G04 #@! TF.GenerationSoftware,KiCad,Pcbnew,5.1.10-88a1d61d58~88~ubuntu18.04.1*
G04 #@! TF.CreationDate,2024-08-15T14:25:57-04:00*
G04 #@! TF.ProjectId,238-capstan,3233382d-6361-4707-9374-616e2e6b6963,rev?*
G04 #@! TF.SameCoordinates,Original*
G04 #@! TF.FileFunction,Soldermask,Top*
G04 #@! TF.FilePolarity,Negative*
%FSLAX46Y46*%
G04 Gerber Fmt 4.6, Leading zero omitted, Abs format (unit mm)*
G04 Created by KiCad (PCBNEW 5.1.10-88a1d61d58~88~ubuntu18.04.1) date 2024-08-15 14:25:57*
%MOMM*%
%LPD*%
G01*
G04 APERTURE LIST*
%ADD10O,2.500000X2.000000*%
%ADD11R,1.300000X1.700000*%
%ADD12C,4.500000*%
%ADD13C,2.500000*%
%ADD14R,1.600000X2.300000*%
%ADD15R,1.200000X1.800000*%
%ADD16C,0.100000*%
%ADD17O,1.700000X2.100000*%
%ADD18R,1.700000X2.100000*%
%ADD19R,2.500000X2.500000*%
G04 APERTURE END LIST*
G36*
G01*
X124250000Y-81750002D02*
X124250000Y-80449998D01*
G75*
G02*
X124499998Y-80200000I249998J0D01*
G01*
X125325002Y-80200000D01*
G75*
G02*
X125575000Y-80449998I0J-249998D01*
G01*
X125575000Y-81750002D01*
G75*
G02*
X125325002Y-82000000I-249998J0D01*
G01*
X124499998Y-82000000D01*
G75*
G02*
X124250000Y-81750002I0J249998D01*
G01*
G37*
G36*
G01*
X121125000Y-81750002D02*
X121125000Y-80449998D01*
G75*
G02*
X121374998Y-80200000I249998J0D01*
G01*
X122200002Y-80200000D01*
G75*
G02*
X122450000Y-80449998I0J-249998D01*
G01*
X122450000Y-81750002D01*
G75*
G02*
X122200002Y-82000000I-249998J0D01*
G01*
X121374998Y-82000000D01*
G75*
G02*
X121125000Y-81750002I0J249998D01*
G01*
G37*
D10*
X120000000Y-68960000D03*
X120000000Y-71500000D03*
X174200000Y-102430000D03*
X174200000Y-99890000D03*
X174200000Y-97350000D03*
X121200000Y-78000000D03*
X121200000Y-75460000D03*
X174200000Y-83600000D03*
X174200000Y-86140000D03*
X174200000Y-88680000D03*
G36*
G01*
X175450000Y-90720000D02*
X175450000Y-91720000D01*
G75*
G02*
X174950000Y-92220000I-500000J0D01*
G01*
X173450000Y-92220000D01*
G75*
G02*
X172950000Y-91720000I0J500000D01*
G01*
X172950000Y-90720000D01*
G75*
G02*
X173450000Y-90220000I500000J0D01*
G01*
X174950000Y-90220000D01*
G75*
G02*
X175450000Y-90720000I0J-500000D01*
G01*
G37*
D11*
X129400000Y-87500000D03*
X132900000Y-87500000D03*
D12*
X165500000Y-110500000D03*
X157000000Y-65000000D03*
X125000000Y-103500000D03*
G36*
G01*
X154374999Y-73400000D02*
X155625001Y-73400000D01*
G75*
G02*
X155875000Y-73649999I0J-249999D01*
G01*
X155875000Y-74450001D01*
G75*
G02*
X155625001Y-74700000I-249999J0D01*
G01*
X154374999Y-74700000D01*
G75*
G02*
X154125000Y-74450001I0J249999D01*
G01*
X154125000Y-73649999D01*
G75*
G02*
X154374999Y-73400000I249999J0D01*
G01*
G37*
G36*
G01*
X154374999Y-70300000D02*
X155625001Y-70300000D01*
G75*
G02*
X155875000Y-70549999I0J-249999D01*
G01*
X155875000Y-71350001D01*
G75*
G02*
X155625001Y-71600000I-249999J0D01*
G01*
X154374999Y-71600000D01*
G75*
G02*
X154125000Y-71350001I0J249999D01*
G01*
X154125000Y-70549999D01*
G75*
G02*
X154374999Y-70300000I249999J0D01*
G01*
G37*
G36*
G01*
X138562500Y-60874999D02*
X138562500Y-62125001D01*
G75*
G02*
X138312501Y-62375000I-249999J0D01*
G01*
X137512499Y-62375000D01*
G75*
G02*
X137262500Y-62125001I0J249999D01*
G01*
X137262500Y-60874999D01*
G75*
G02*
X137512499Y-60625000I249999J0D01*
G01*
X138312501Y-60625000D01*
G75*
G02*
X138562500Y-60874999I0J-249999D01*
G01*
G37*
G36*
G01*
X141662500Y-60874999D02*
X141662500Y-62125001D01*
G75*
G02*
X141412501Y-62375000I-249999J0D01*
G01*
X140612499Y-62375000D01*
G75*
G02*
X140362500Y-62125001I0J249999D01*
G01*
X140362500Y-60874999D01*
G75*
G02*
X140612499Y-60625000I249999J0D01*
G01*
X141412501Y-60625000D01*
G75*
G02*
X141662500Y-60874999I0J-249999D01*
G01*
G37*
G36*
G01*
X123137500Y-58874999D02*
X123137500Y-60125001D01*
G75*
G02*
X122887501Y-60375000I-249999J0D01*
G01*
X122087499Y-60375000D01*
G75*
G02*
X121837500Y-60125001I0J249999D01*
G01*
X121837500Y-58874999D01*
G75*
G02*
X122087499Y-58625000I249999J0D01*
G01*
X122887501Y-58625000D01*
G75*
G02*
X123137500Y-58874999I0J-249999D01*
G01*
G37*
G36*
G01*
X126237500Y-58874999D02*
X126237500Y-60125001D01*
G75*
G02*
X125987501Y-60375000I-249999J0D01*
G01*
X125187499Y-60375000D01*
G75*
G02*
X124937500Y-60125001I0J249999D01*
G01*
X124937500Y-58874999D01*
G75*
G02*
X125187499Y-58625000I249999J0D01*
G01*
X125987501Y-58625000D01*
G75*
G02*
X126237500Y-58874999I0J-249999D01*
G01*
G37*
G36*
G01*
X130600000Y-79625001D02*
X130600000Y-78374999D01*
G75*
G02*
X130849999Y-78125000I249999J0D01*
G01*
X131650001Y-78125000D01*
G75*
G02*
X131900000Y-78374999I0J-249999D01*
G01*
X131900000Y-79625001D01*
G75*
G02*
X131650001Y-79875000I-249999J0D01*
G01*
X130849999Y-79875000D01*
G75*
G02*
X130600000Y-79625001I0J249999D01*
G01*
G37*
G36*
G01*
X127500000Y-79625001D02*
X127500000Y-78374999D01*
G75*
G02*
X127749999Y-78125000I249999J0D01*
G01*
X128550001Y-78125000D01*
G75*
G02*
X128800000Y-78374999I0J-249999D01*
G01*
X128800000Y-79625001D01*
G75*
G02*
X128550001Y-79875000I-249999J0D01*
G01*
X127749999Y-79875000D01*
G75*
G02*
X127500000Y-79625001I0J249999D01*
G01*
G37*
G36*
G01*
X170825001Y-95050000D02*
X169574999Y-95050000D01*
G75*
G02*
X169325000Y-94800001I0J249999D01*
G01*
X169325000Y-93999999D01*
G75*
G02*
X169574999Y-93750000I249999J0D01*
G01*
X170825001Y-93750000D01*
G75*
G02*
X171075000Y-93999999I0J-249999D01*
G01*
X171075000Y-94800001D01*
G75*
G02*
X170825001Y-95050000I-249999J0D01*
G01*
G37*
G36*
G01*
X170825001Y-98150000D02*
X169574999Y-98150000D01*
G75*
G02*
X169325000Y-97900001I0J249999D01*
G01*
X169325000Y-97099999D01*
G75*
G02*
X169574999Y-96850000I249999J0D01*
G01*
X170825001Y-96850000D01*
G75*
G02*
X171075000Y-97099999I0J-249999D01*
G01*
X171075000Y-97900001D01*
G75*
G02*
X170825001Y-98150000I-249999J0D01*
G01*
G37*
G36*
G01*
X167850000Y-102174999D02*
X167850000Y-103425001D01*
G75*
G02*
X167600001Y-103675000I-249999J0D01*
G01*
X166799999Y-103675000D01*
G75*
G02*
X166550000Y-103425001I0J249999D01*
G01*
X166550000Y-102174999D01*
G75*
G02*
X166799999Y-101925000I249999J0D01*
G01*
X167600001Y-101925000D01*
G75*
G02*
X167850000Y-102174999I0J-249999D01*
G01*
G37*
G36*
G01*
X170950000Y-102174999D02*
X170950000Y-103425001D01*
G75*
G02*
X170700001Y-103675000I-249999J0D01*
G01*
X169899999Y-103675000D01*
G75*
G02*
X169650000Y-103425001I0J249999D01*
G01*
X169650000Y-102174999D01*
G75*
G02*
X169899999Y-101925000I249999J0D01*
G01*
X170700001Y-101925000D01*
G75*
G02*
X170950000Y-102174999I0J-249999D01*
G01*
G37*
G36*
G01*
X164800000Y-95874999D02*
X164800000Y-97125001D01*
G75*
G02*
X164550001Y-97375000I-249999J0D01*
G01*
X163749999Y-97375000D01*
G75*
G02*
X163500000Y-97125001I0J249999D01*
G01*
X163500000Y-95874999D01*
G75*
G02*
X163749999Y-95625000I249999J0D01*
G01*
X164550001Y-95625000D01*
G75*
G02*
X164800000Y-95874999I0J-249999D01*
G01*
G37*
G36*
G01*
X167900000Y-95874999D02*
X167900000Y-97125001D01*
G75*
G02*
X167650001Y-97375000I-249999J0D01*
G01*
X166849999Y-97375000D01*
G75*
G02*
X166600000Y-97125001I0J249999D01*
G01*
X166600000Y-95874999D01*
G75*
G02*
X166849999Y-95625000I249999J0D01*
G01*
X167650001Y-95625000D01*
G75*
G02*
X167900000Y-95874999I0J-249999D01*
G01*
G37*
G36*
G01*
X128374999Y-112362500D02*
X129625001Y-112362500D01*
G75*
G02*
X129875000Y-112612499I0J-249999D01*
G01*
X129875000Y-113412501D01*
G75*
G02*
X129625001Y-113662500I-249999J0D01*
G01*
X128374999Y-113662500D01*
G75*
G02*
X128125000Y-113412501I0J249999D01*
G01*
X128125000Y-112612499D01*
G75*
G02*
X128374999Y-112362500I249999J0D01*
G01*
G37*
G36*
G01*
X128374999Y-109262500D02*
X129625001Y-109262500D01*
G75*
G02*
X129875000Y-109512499I0J-249999D01*
G01*
X129875000Y-110312501D01*
G75*
G02*
X129625001Y-110562500I-249999J0D01*
G01*
X128374999Y-110562500D01*
G75*
G02*
X128125000Y-110312501I0J249999D01*
G01*
X128125000Y-109512499D01*
G75*
G02*
X128374999Y-109262500I249999J0D01*
G01*
G37*
G36*
G01*
X128374999Y-102362500D02*
X129625001Y-102362500D01*
G75*
G02*
X129875000Y-102612499I0J-249999D01*
G01*
X129875000Y-103412501D01*
G75*
G02*
X129625001Y-103662500I-249999J0D01*
G01*
X128374999Y-103662500D01*
G75*
G02*
X128125000Y-103412501I0J249999D01*
G01*
X128125000Y-102612499D01*
G75*
G02*
X128374999Y-102362500I249999J0D01*
G01*
G37*
G36*
G01*
X128374999Y-99262500D02*
X129625001Y-99262500D01*
G75*
G02*
X129875000Y-99512499I0J-249999D01*
G01*
X129875000Y-100312501D01*
G75*
G02*
X129625001Y-100562500I-249999J0D01*
G01*
X128374999Y-100562500D01*
G75*
G02*
X128125000Y-100312501I0J249999D01*
G01*
X128125000Y-99512499D01*
G75*
G02*
X128374999Y-99262500I249999J0D01*
G01*
G37*
G36*
G01*
X127625001Y-95562500D02*
X126374999Y-95562500D01*
G75*
G02*
X126125000Y-95312501I0J249999D01*
G01*
X126125000Y-94512499D01*
G75*
G02*
X126374999Y-94262500I249999J0D01*
G01*
X127625001Y-94262500D01*
G75*
G02*
X127875000Y-94512499I0J-249999D01*
G01*
X127875000Y-95312501D01*
G75*
G02*
X127625001Y-95562500I-249999J0D01*
G01*
G37*
G36*
G01*
X127625001Y-98662500D02*
X126374999Y-98662500D01*
G75*
G02*
X126125000Y-98412501I0J249999D01*
G01*
X126125000Y-97612499D01*
G75*
G02*
X126374999Y-97362500I249999J0D01*
G01*
X127625001Y-97362500D01*
G75*
G02*
X127875000Y-97612499I0J-249999D01*
G01*
X127875000Y-98412501D01*
G75*
G02*
X127625001Y-98662500I-249999J0D01*
G01*
G37*
G36*
G01*
X144300000Y-103774999D02*
X144300000Y-105025001D01*
G75*
G02*
X144050001Y-105275000I-249999J0D01*
G01*
X143249999Y-105275000D01*
G75*
G02*
X143000000Y-105025001I0J249999D01*
G01*
X143000000Y-103774999D01*
G75*
G02*
X143249999Y-103525000I249999J0D01*
G01*
X144050001Y-103525000D01*
G75*
G02*
X144300000Y-103774999I0J-249999D01*
G01*
G37*
G36*
G01*
X147400000Y-103774999D02*
X147400000Y-105025001D01*
G75*
G02*
X147150001Y-105275000I-249999J0D01*
G01*
X146349999Y-105275000D01*
G75*
G02*
X146100000Y-105025001I0J249999D01*
G01*
X146100000Y-103774999D01*
G75*
G02*
X146349999Y-103525000I249999J0D01*
G01*
X147150001Y-103525000D01*
G75*
G02*
X147400000Y-103774999I0J-249999D01*
G01*
G37*
G36*
G01*
X159600000Y-76524999D02*
X159600000Y-77775001D01*
G75*
G02*
X159350001Y-78025000I-249999J0D01*
G01*
X158549999Y-78025000D01*
G75*
G02*
X158300000Y-77775001I0J249999D01*
G01*
X158300000Y-76524999D01*
G75*
G02*
X158549999Y-76275000I249999J0D01*
G01*
X159350001Y-76275000D01*
G75*
G02*
X159600000Y-76524999I0J-249999D01*
G01*
G37*
G36*
G01*
X162700000Y-76524999D02*
X162700000Y-77775001D01*
G75*
G02*
X162450001Y-78025000I-249999J0D01*
G01*
X161649999Y-78025000D01*
G75*
G02*
X161400000Y-77775001I0J249999D01*
G01*
X161400000Y-76524999D01*
G75*
G02*
X161649999Y-76275000I249999J0D01*
G01*
X162450001Y-76275000D01*
G75*
G02*
X162700000Y-76524999I0J-249999D01*
G01*
G37*
G36*
G01*
X168874999Y-80400000D02*
X170125001Y-80400000D01*
G75*
G02*
X170375000Y-80649999I0J-249999D01*
G01*
X170375000Y-81450001D01*
G75*
G02*
X170125001Y-81700000I-249999J0D01*
G01*
X168874999Y-81700000D01*
G75*
G02*
X168625000Y-81450001I0J249999D01*
G01*
X168625000Y-80649999D01*
G75*
G02*
X168874999Y-80400000I249999J0D01*
G01*
G37*
G36*
G01*
X168874999Y-77300000D02*
X170125001Y-77300000D01*
G75*
G02*
X170375000Y-77549999I0J-249999D01*
G01*
X170375000Y-78350001D01*
G75*
G02*
X170125001Y-78600000I-249999J0D01*
G01*
X168874999Y-78600000D01*
G75*
G02*
X168625000Y-78350001I0J249999D01*
G01*
X168625000Y-77549999D01*
G75*
G02*
X168874999Y-77300000I249999J0D01*
G01*
G37*
G36*
G01*
X161400000Y-81875001D02*
X161400000Y-80624999D01*
G75*
G02*
X161649999Y-80375000I249999J0D01*
G01*
X162450001Y-80375000D01*
G75*
G02*
X162700000Y-80624999I0J-249999D01*
G01*
X162700000Y-81875001D01*
G75*
G02*
X162450001Y-82125000I-249999J0D01*
G01*
X161649999Y-82125000D01*
G75*
G02*
X161400000Y-81875001I0J249999D01*
G01*
G37*
G36*
G01*
X158300000Y-81875001D02*
X158300000Y-80624999D01*
G75*
G02*
X158549999Y-80375000I249999J0D01*
G01*
X159350001Y-80375000D01*
G75*
G02*
X159600000Y-80624999I0J-249999D01*
G01*
X159600000Y-81875001D01*
G75*
G02*
X159350001Y-82125000I-249999J0D01*
G01*
X158549999Y-82125000D01*
G75*
G02*
X158300000Y-81875001I0J249999D01*
G01*
G37*
G36*
G01*
X167900000Y-99374999D02*
X167900000Y-100625001D01*
G75*
G02*
X167650001Y-100875000I-249999J0D01*
G01*
X166849999Y-100875000D01*
G75*
G02*
X166600000Y-100625001I0J249999D01*
G01*
X166600000Y-99374999D01*
G75*
G02*
X166849999Y-99125000I249999J0D01*
G01*
X167650001Y-99125000D01*
G75*
G02*
X167900000Y-99374999I0J-249999D01*
G01*
G37*
G36*
G01*
X171000000Y-99374999D02*
X171000000Y-100625001D01*
G75*
G02*
X170750001Y-100875000I-249999J0D01*
G01*
X169949999Y-100875000D01*
G75*
G02*
X169700000Y-100625001I0J249999D01*
G01*
X169700000Y-99374999D01*
G75*
G02*
X169949999Y-99125000I249999J0D01*
G01*
X170750001Y-99125000D01*
G75*
G02*
X171000000Y-99374999I0J-249999D01*
G01*
G37*
G36*
G01*
X144300000Y-106249998D02*
X144300000Y-107550002D01*
G75*
G02*
X144050002Y-107800000I-249998J0D01*
G01*
X143224998Y-107800000D01*
G75*
G02*
X142975000Y-107550002I0J249998D01*
G01*
X142975000Y-106249998D01*
G75*
G02*
X143224998Y-106000000I249998J0D01*
G01*
X144050002Y-106000000D01*
G75*
G02*
X144300000Y-106249998I0J-249998D01*
G01*
G37*
G36*
G01*
X147425000Y-106249998D02*
X147425000Y-107550002D01*
G75*
G02*
X147175002Y-107800000I-249998J0D01*
G01*
X146349998Y-107800000D01*
G75*
G02*
X146100000Y-107550002I0J249998D01*
G01*
X146100000Y-106249998D01*
G75*
G02*
X146349998Y-106000000I249998J0D01*
G01*
X147175002Y-106000000D01*
G75*
G02*
X147425000Y-106249998I0J-249998D01*
G01*
G37*
G36*
G01*
X133922500Y-65850002D02*
X133922500Y-64549998D01*
G75*
G02*
X134172498Y-64300000I249998J0D01*
G01*
X134997502Y-64300000D01*
G75*
G02*
X135247500Y-64549998I0J-249998D01*
G01*
X135247500Y-65850002D01*
G75*
G02*
X134997502Y-66100000I-249998J0D01*
G01*
X134172498Y-66100000D01*
G75*
G02*
X133922500Y-65850002I0J249998D01*
G01*
G37*
G36*
G01*
X130797500Y-65850002D02*
X130797500Y-64549998D01*
G75*
G02*
X131047498Y-64300000I249998J0D01*
G01*
X131872502Y-64300000D01*
G75*
G02*
X132122500Y-64549998I0J-249998D01*
G01*
X132122500Y-65850002D01*
G75*
G02*
X131872502Y-66100000I-249998J0D01*
G01*
X131047498Y-66100000D01*
G75*
G02*
X130797500Y-65850002I0J249998D01*
G01*
G37*
G36*
G01*
X133875000Y-61150002D02*
X133875000Y-59849998D01*
G75*
G02*
X134124998Y-59600000I249998J0D01*
G01*
X134950002Y-59600000D01*
G75*
G02*
X135200000Y-59849998I0J-249998D01*
G01*
X135200000Y-61150002D01*
G75*
G02*
X134950002Y-61400000I-249998J0D01*
G01*
X134124998Y-61400000D01*
G75*
G02*
X133875000Y-61150002I0J249998D01*
G01*
G37*
G36*
G01*
X130750000Y-61150002D02*
X130750000Y-59849998D01*
G75*
G02*
X130999998Y-59600000I249998J0D01*
G01*
X131825002Y-59600000D01*
G75*
G02*
X132075000Y-59849998I0J-249998D01*
G01*
X132075000Y-61150002D01*
G75*
G02*
X131825002Y-61400000I-249998J0D01*
G01*
X130999998Y-61400000D01*
G75*
G02*
X130750000Y-61150002I0J249998D01*
G01*
G37*
G36*
G01*
X123625000Y-112349998D02*
X123625000Y-113650002D01*
G75*
G02*
X123375002Y-113900000I-249998J0D01*
G01*
X122549998Y-113900000D01*
G75*
G02*
X122300000Y-113650002I0J249998D01*
G01*
X122300000Y-112349998D01*
G75*
G02*
X122549998Y-112100000I249998J0D01*
G01*
X123375002Y-112100000D01*
G75*
G02*
X123625000Y-112349998I0J-249998D01*
G01*
G37*
G36*
G01*
X126750000Y-112349998D02*
X126750000Y-113650002D01*
G75*
G02*
X126500002Y-113900000I-249998J0D01*
G01*
X125674998Y-113900000D01*
G75*
G02*
X125425000Y-113650002I0J249998D01*
G01*
X125425000Y-112349998D01*
G75*
G02*
X125674998Y-112100000I249998J0D01*
G01*
X126500002Y-112100000D01*
G75*
G02*
X126750000Y-112349998I0J-249998D01*
G01*
G37*
G36*
G01*
X127075000Y-89849998D02*
X127075000Y-91150002D01*
G75*
G02*
X126825002Y-91400000I-249998J0D01*
G01*
X125999998Y-91400000D01*
G75*
G02*
X125750000Y-91150002I0J249998D01*
G01*
X125750000Y-89849998D01*
G75*
G02*
X125999998Y-89600000I249998J0D01*
G01*
X126825002Y-89600000D01*
G75*
G02*
X127075000Y-89849998I0J-249998D01*
G01*
G37*
G36*
G01*
X130200000Y-89849998D02*
X130200000Y-91150002D01*
G75*
G02*
X129950002Y-91400000I-249998J0D01*
G01*
X129124998Y-91400000D01*
G75*
G02*
X128875000Y-91150002I0J249998D01*
G01*
X128875000Y-89849998D01*
G75*
G02*
X129124998Y-89600000I249998J0D01*
G01*
X129950002Y-89600000D01*
G75*
G02*
X130200000Y-89849998I0J-249998D01*
G01*
G37*
D13*
X143576060Y-98814609D03*
X148000000Y-100000000D03*
X152423940Y-81185391D03*
X148000000Y-80000000D03*
X138500000Y-92280000D03*
X138500000Y-87700000D03*
X157500000Y-87900000D03*
X157500000Y-92480000D03*
D14*
X160000000Y-70350000D03*
D15*
X161300000Y-74300000D03*
X158700000Y-74300000D03*
D13*
X165750000Y-76150000D03*
X129000000Y-106500000D03*
D16*
G36*
X166449398Y-80950000D02*
G01*
X166449398Y-80974534D01*
X166444588Y-81023365D01*
X166435016Y-81071490D01*
X166420772Y-81118445D01*
X166401995Y-81163778D01*
X166378864Y-81207051D01*
X166351604Y-81247850D01*
X166320476Y-81285779D01*
X166285779Y-81320476D01*
X166247850Y-81351604D01*
X166207051Y-81378864D01*
X166163778Y-81401995D01*
X166118445Y-81420772D01*
X166071490Y-81435016D01*
X166023365Y-81444588D01*
X165974534Y-81449398D01*
X165950000Y-81449398D01*
X165950000Y-81450000D01*
X165450000Y-81450000D01*
X165450000Y-81449398D01*
X165425466Y-81449398D01*
X165376635Y-81444588D01*
X165328510Y-81435016D01*
X165281555Y-81420772D01*
X165236222Y-81401995D01*
X165192949Y-81378864D01*
X165152150Y-81351604D01*
X165114221Y-81320476D01*
X165079524Y-81285779D01*
X165048396Y-81247850D01*
X165021136Y-81207051D01*
X164998005Y-81163778D01*
X164979228Y-81118445D01*
X164964984Y-81071490D01*
X164955412Y-81023365D01*
X164950602Y-80974534D01*
X164950602Y-80950000D01*
X164950000Y-80950000D01*
X164950000Y-80450000D01*
X166450000Y-80450000D01*
X166450000Y-80950000D01*
X166449398Y-80950000D01*
G37*
G36*
X164950000Y-80150000D02*
G01*
X164950000Y-79650000D01*
X164950602Y-79650000D01*
X164950602Y-79625466D01*
X164955412Y-79576635D01*
X164964984Y-79528510D01*
X164979228Y-79481555D01*
X164998005Y-79436222D01*
X165021136Y-79392949D01*
X165048396Y-79352150D01*
X165079524Y-79314221D01*
X165114221Y-79279524D01*
X165152150Y-79248396D01*
X165192949Y-79221136D01*
X165236222Y-79198005D01*
X165281555Y-79179228D01*
X165328510Y-79164984D01*
X165376635Y-79155412D01*
X165425466Y-79150602D01*
X165450000Y-79150602D01*
X165450000Y-79150000D01*
X165950000Y-79150000D01*
X165950000Y-79150602D01*
X165974534Y-79150602D01*
X166023365Y-79155412D01*
X166071490Y-79164984D01*
X166118445Y-79179228D01*
X166163778Y-79198005D01*
X166207051Y-79221136D01*
X166247850Y-79248396D01*
X166285779Y-79279524D01*
X166320476Y-79314221D01*
X166351604Y-79352150D01*
X166378864Y-79392949D01*
X166401995Y-79436222D01*
X166420772Y-79481555D01*
X166435016Y-79528510D01*
X166444588Y-79576635D01*
X166449398Y-79625466D01*
X166449398Y-79650000D01*
X166450000Y-79650000D01*
X166450000Y-80150000D01*
X164950000Y-80150000D01*
G37*
G36*
X160250602Y-96650000D02*
G01*
X160250602Y-96625466D01*
X160255412Y-96576635D01*
X160264984Y-96528510D01*
X160279228Y-96481555D01*
X160298005Y-96436222D01*
X160321136Y-96392949D01*
X160348396Y-96352150D01*
X160379524Y-96314221D01*
X160414221Y-96279524D01*
X160452150Y-96248396D01*
X160492949Y-96221136D01*
X160536222Y-96198005D01*
X160581555Y-96179228D01*
X160628510Y-96164984D01*
X160676635Y-96155412D01*
X160725466Y-96150602D01*
X160750000Y-96150602D01*
X160750000Y-96150000D01*
X161250000Y-96150000D01*
X161250000Y-96150602D01*
X161274534Y-96150602D01*
X161323365Y-96155412D01*
X161371490Y-96164984D01*
X161418445Y-96179228D01*
X161463778Y-96198005D01*
X161507051Y-96221136D01*
X161547850Y-96248396D01*
X161585779Y-96279524D01*
X161620476Y-96314221D01*
X161651604Y-96352150D01*
X161678864Y-96392949D01*
X161701995Y-96436222D01*
X161720772Y-96481555D01*
X161735016Y-96528510D01*
X161744588Y-96576635D01*
X161749398Y-96625466D01*
X161749398Y-96650000D01*
X161750000Y-96650000D01*
X161750000Y-97150000D01*
X160250000Y-97150000D01*
X160250000Y-96650000D01*
X160250602Y-96650000D01*
G37*
G36*
X161750000Y-97450000D02*
G01*
X161750000Y-97950000D01*
X161749398Y-97950000D01*
X161749398Y-97974534D01*
X161744588Y-98023365D01*
X161735016Y-98071490D01*
X161720772Y-98118445D01*
X161701995Y-98163778D01*
X161678864Y-98207051D01*
X161651604Y-98247850D01*
X161620476Y-98285779D01*
X161585779Y-98320476D01*
X161547850Y-98351604D01*
X161507051Y-98378864D01*
X161463778Y-98401995D01*
X161418445Y-98420772D01*
X161371490Y-98435016D01*
X161323365Y-98444588D01*
X161274534Y-98449398D01*
X161250000Y-98449398D01*
X161250000Y-98450000D01*
X160750000Y-98450000D01*
X160750000Y-98449398D01*
X160725466Y-98449398D01*
X160676635Y-98444588D01*
X160628510Y-98435016D01*
X160581555Y-98420772D01*
X160536222Y-98401995D01*
X160492949Y-98378864D01*
X160452150Y-98351604D01*
X160414221Y-98320476D01*
X160379524Y-98285779D01*
X160348396Y-98247850D01*
X160321136Y-98207051D01*
X160298005Y-98163778D01*
X160279228Y-98118445D01*
X160264984Y-98071490D01*
X160255412Y-98023365D01*
X160250602Y-97974534D01*
X160250602Y-97950000D01*
X160250000Y-97950000D01*
X160250000Y-97450000D01*
X161750000Y-97450000D01*
G37*
G36*
X142750602Y-111350000D02*
G01*
X142750602Y-111325466D01*
X142755412Y-111276635D01*
X142764984Y-111228510D01*
X142779228Y-111181555D01*
X142798005Y-111136222D01*
X142821136Y-111092949D01*
X142848396Y-111052150D01*
X142879524Y-111014221D01*
X142914221Y-110979524D01*
X142952150Y-110948396D01*
X142992949Y-110921136D01*
X143036222Y-110898005D01*
X143081555Y-110879228D01*
X143128510Y-110864984D01*
X143176635Y-110855412D01*
X143225466Y-110850602D01*
X143250000Y-110850602D01*
X143250000Y-110850000D01*
X143750000Y-110850000D01*
X143750000Y-110850602D01*
X143774534Y-110850602D01*
X143823365Y-110855412D01*
X143871490Y-110864984D01*
X143918445Y-110879228D01*
X143963778Y-110898005D01*
X144007051Y-110921136D01*
X144047850Y-110948396D01*
X144085779Y-110979524D01*
X144120476Y-111014221D01*
X144151604Y-111052150D01*
X144178864Y-111092949D01*
X144201995Y-111136222D01*
X144220772Y-111181555D01*
X144235016Y-111228510D01*
X144244588Y-111276635D01*
X144249398Y-111325466D01*
X144249398Y-111350000D01*
X144250000Y-111350000D01*
X144250000Y-111850000D01*
X142750000Y-111850000D01*
X142750000Y-111350000D01*
X142750602Y-111350000D01*
G37*
G36*
X144250000Y-112150000D02*
G01*
X144250000Y-112650000D01*
X144249398Y-112650000D01*
X144249398Y-112674534D01*
X144244588Y-112723365D01*
X144235016Y-112771490D01*
X144220772Y-112818445D01*
X144201995Y-112863778D01*
X144178864Y-112907051D01*
X144151604Y-112947850D01*
X144120476Y-112985779D01*
X144085779Y-113020476D01*
X144047850Y-113051604D01*
X144007051Y-113078864D01*
X143963778Y-113101995D01*
X143918445Y-113120772D01*
X143871490Y-113135016D01*
X143823365Y-113144588D01*
X143774534Y-113149398D01*
X143750000Y-113149398D01*
X143750000Y-113150000D01*
X143250000Y-113150000D01*
X143250000Y-113149398D01*
X143225466Y-113149398D01*
X143176635Y-113144588D01*
X143128510Y-113135016D01*
X143081555Y-113120772D01*
X143036222Y-113101995D01*
X142992949Y-113078864D01*
X142952150Y-113051604D01*
X142914221Y-113020476D01*
X142879524Y-112985779D01*
X142848396Y-112947850D01*
X142821136Y-112907051D01*
X142798005Y-112863778D01*
X142779228Y-112818445D01*
X142764984Y-112771490D01*
X142755412Y-112723365D01*
X142750602Y-112674534D01*
X142750602Y-112650000D01*
X142750000Y-112650000D01*
X142750000Y-112150000D01*
X144250000Y-112150000D01*
G37*
D17*
X149440000Y-56500000D03*
X146900000Y-56500000D03*
X144360000Y-56500000D03*
X141820000Y-56500000D03*
X139280000Y-56500000D03*
X136740000Y-56500000D03*
X134200000Y-56500000D03*
X131660000Y-56500000D03*
X129120000Y-56500000D03*
X126580000Y-56500000D03*
X124040000Y-56500000D03*
D18*
X121500000Y-56500000D03*
G36*
G01*
X162190000Y-85487500D02*
X161890000Y-85487500D01*
G75*
G02*
X161740000Y-85337500I0J150000D01*
G01*
X161740000Y-83662500D01*
G75*
G02*
X161890000Y-83512500I150000J0D01*
G01*
X162190000Y-83512500D01*
G75*
G02*
X162340000Y-83662500I0J-150000D01*
G01*
X162340000Y-85337500D01*
G75*
G02*
X162190000Y-85487500I-150000J0D01*
G01*
G37*
G36*
G01*
X163460000Y-85487500D02*
X163160000Y-85487500D01*
G75*
G02*
X163010000Y-85337500I0J150000D01*
G01*
X163010000Y-83662500D01*
G75*
G02*
X163160000Y-83512500I150000J0D01*
G01*
X163460000Y-83512500D01*
G75*
G02*
X163610000Y-83662500I0J-150000D01*
G01*
X163610000Y-85337500D01*
G75*
G02*
X163460000Y-85487500I-150000J0D01*
G01*
G37*
G36*
G01*
X164730000Y-85487500D02*
X164430000Y-85487500D01*
G75*
G02*
X164280000Y-85337500I0J150000D01*
G01*
X164280000Y-83662500D01*
G75*
G02*
X164430000Y-83512500I150000J0D01*
G01*
X164730000Y-83512500D01*
G75*
G02*
X164880000Y-83662500I0J-150000D01*
G01*
X164880000Y-85337500D01*
G75*
G02*
X164730000Y-85487500I-150000J0D01*
G01*
G37*
G36*
G01*
X166000000Y-85487500D02*
X165700000Y-85487500D01*
G75*
G02*
X165550000Y-85337500I0J150000D01*
G01*
X165550000Y-83662500D01*
G75*
G02*
X165700000Y-83512500I150000J0D01*
G01*
X166000000Y-83512500D01*
G75*
G02*
X166150000Y-83662500I0J-150000D01*
G01*
X166150000Y-85337500D01*
G75*
G02*
X166000000Y-85487500I-150000J0D01*
G01*
G37*
G36*
G01*
X167270000Y-85487500D02*
X166970000Y-85487500D01*
G75*
G02*
X166820000Y-85337500I0J150000D01*
G01*
X166820000Y-83662500D01*
G75*
G02*
X166970000Y-83512500I150000J0D01*
G01*
X167270000Y-83512500D01*
G75*
G02*
X167420000Y-83662500I0J-150000D01*
G01*
X167420000Y-85337500D01*
G75*
G02*
X167270000Y-85487500I-150000J0D01*
G01*
G37*
G36*
G01*
X168540000Y-85487500D02*
X168240000Y-85487500D01*
G75*
G02*
X168090000Y-85337500I0J150000D01*
G01*
X168090000Y-83662500D01*
G75*
G02*
X168240000Y-83512500I150000J0D01*
G01*
X168540000Y-83512500D01*
G75*
G02*
X168690000Y-83662500I0J-150000D01*
G01*
X168690000Y-85337500D01*
G75*
G02*
X168540000Y-85487500I-150000J0D01*
G01*
G37*
G36*
G01*
X169810000Y-85487500D02*
X169510000Y-85487500D01*
G75*
G02*
X169360000Y-85337500I0J150000D01*
G01*
X169360000Y-83662500D01*
G75*
G02*
X169510000Y-83512500I150000J0D01*
G01*
X169810000Y-83512500D01*
G75*
G02*
X169960000Y-83662500I0J-150000D01*
G01*
X169960000Y-85337500D01*
G75*
G02*
X169810000Y-85487500I-150000J0D01*
G01*
G37*
G36*
G01*
X169810000Y-92412500D02*
X169510000Y-92412500D01*
G75*
G02*
X169360000Y-92262500I0J150000D01*
G01*
X169360000Y-90587500D01*
G75*
G02*
X169510000Y-90437500I150000J0D01*
G01*
X169810000Y-90437500D01*
G75*
G02*
X169960000Y-90587500I0J-150000D01*
G01*
X169960000Y-92262500D01*
G75*
G02*
X169810000Y-92412500I-150000J0D01*
G01*
G37*
G36*
G01*
X168540000Y-92412500D02*
X168240000Y-92412500D01*
G75*
G02*
X168090000Y-92262500I0J150000D01*
G01*
X168090000Y-90587500D01*
G75*
G02*
X168240000Y-90437500I150000J0D01*
G01*
X168540000Y-90437500D01*
G75*
G02*
X168690000Y-90587500I0J-150000D01*
G01*
X168690000Y-92262500D01*
G75*
G02*
X168540000Y-92412500I-150000J0D01*
G01*
G37*
G36*
G01*
X167270000Y-92412500D02*
X166970000Y-92412500D01*
G75*
G02*
X166820000Y-92262500I0J150000D01*
G01*
X166820000Y-90587500D01*
G75*
G02*
X166970000Y-90437500I150000J0D01*
G01*
X167270000Y-90437500D01*
G75*
G02*
X167420000Y-90587500I0J-150000D01*
G01*
X167420000Y-92262500D01*
G75*
G02*
X167270000Y-92412500I-150000J0D01*
G01*
G37*
G36*
G01*
X166000000Y-92412500D02*
X165700000Y-92412500D01*
G75*
G02*
X165550000Y-92262500I0J150000D01*
G01*
X165550000Y-90587500D01*
G75*
G02*
X165700000Y-90437500I150000J0D01*
G01*
X166000000Y-90437500D01*
G75*
G02*
X166150000Y-90587500I0J-150000D01*
G01*
X166150000Y-92262500D01*
G75*
G02*
X166000000Y-92412500I-150000J0D01*
G01*
G37*
G36*
G01*
X164730000Y-92412500D02*
X164430000Y-92412500D01*
G75*
G02*
X164280000Y-92262500I0J150000D01*
G01*
X164280000Y-90587500D01*
G75*
G02*
X164430000Y-90437500I150000J0D01*
G01*
X164730000Y-90437500D01*
G75*
G02*
X164880000Y-90587500I0J-150000D01*
G01*
X164880000Y-92262500D01*
G75*
G02*
X164730000Y-92412500I-150000J0D01*
G01*
G37*
G36*
G01*
X163460000Y-92412500D02*
X163160000Y-92412500D01*
G75*
G02*
X163010000Y-92262500I0J150000D01*
G01*
X163010000Y-90587500D01*
G75*
G02*
X163160000Y-90437500I150000J0D01*
G01*
X163460000Y-90437500D01*
G75*
G02*
X163610000Y-90587500I0J-150000D01*
G01*
X163610000Y-92262500D01*
G75*
G02*
X163460000Y-92412500I-150000J0D01*
G01*
G37*
G36*
G01*
X162190000Y-92412500D02*
X161890000Y-92412500D01*
G75*
G02*
X161740000Y-92262500I0J150000D01*
G01*
X161740000Y-90587500D01*
G75*
G02*
X161890000Y-90437500I150000J0D01*
G01*
X162190000Y-90437500D01*
G75*
G02*
X162340000Y-90587500I0J-150000D01*
G01*
X162340000Y-92262500D01*
G75*
G02*
X162190000Y-92412500I-150000J0D01*
G01*
G37*
G36*
G01*
X138437500Y-103760000D02*
X138437500Y-103460000D01*
G75*
G02*
X138587500Y-103310000I150000J0D01*
G01*
X140262500Y-103310000D01*
G75*
G02*
X140412500Y-103460000I0J-150000D01*
G01*
X140412500Y-103760000D01*
G75*
G02*
X140262500Y-103910000I-150000J0D01*
G01*
X138587500Y-103910000D01*
G75*
G02*
X138437500Y-103760000I0J150000D01*
G01*
G37*
G36*
G01*
X138437500Y-105030000D02*
X138437500Y-104730000D01*
G75*
G02*
X138587500Y-104580000I150000J0D01*
G01*
X140262500Y-104580000D01*
G75*
G02*
X140412500Y-104730000I0J-150000D01*
G01*
X140412500Y-105030000D01*
G75*
G02*
X140262500Y-105180000I-150000J0D01*
G01*
X138587500Y-105180000D01*
G75*
G02*
X138437500Y-105030000I0J150000D01*
G01*
G37*
G36*
G01*
X138437500Y-106300000D02*
X138437500Y-106000000D01*
G75*
G02*
X138587500Y-105850000I150000J0D01*
G01*
X140262500Y-105850000D01*
G75*
G02*
X140412500Y-106000000I0J-150000D01*
G01*
X140412500Y-106300000D01*
G75*
G02*
X140262500Y-106450000I-150000J0D01*
G01*
X138587500Y-106450000D01*
G75*
G02*
X138437500Y-106300000I0J150000D01*
G01*
G37*
G36*
G01*
X138437500Y-107570000D02*
X138437500Y-107270000D01*
G75*
G02*
X138587500Y-107120000I150000J0D01*
G01*
X140262500Y-107120000D01*
G75*
G02*
X140412500Y-107270000I0J-150000D01*
G01*
X140412500Y-107570000D01*
G75*
G02*
X140262500Y-107720000I-150000J0D01*
G01*
X138587500Y-107720000D01*
G75*
G02*
X138437500Y-107570000I0J150000D01*
G01*
G37*
G36*
G01*
X138437500Y-108840000D02*
X138437500Y-108540000D01*
G75*
G02*
X138587500Y-108390000I150000J0D01*
G01*
X140262500Y-108390000D01*
G75*
G02*
X140412500Y-108540000I0J-150000D01*
G01*
X140412500Y-108840000D01*
G75*
G02*
X140262500Y-108990000I-150000J0D01*
G01*
X138587500Y-108990000D01*
G75*
G02*
X138437500Y-108840000I0J150000D01*
G01*
G37*
G36*
G01*
X138437500Y-110110000D02*
X138437500Y-109810000D01*
G75*
G02*
X138587500Y-109660000I150000J0D01*
G01*
X140262500Y-109660000D01*
G75*
G02*
X140412500Y-109810000I0J-150000D01*
G01*
X140412500Y-110110000D01*
G75*
G02*
X140262500Y-110260000I-150000J0D01*
G01*
X138587500Y-110260000D01*
G75*
G02*
X138437500Y-110110000I0J150000D01*
G01*
G37*
G36*
G01*
X138437500Y-111380000D02*
X138437500Y-111080000D01*
G75*
G02*
X138587500Y-110930000I150000J0D01*
G01*
X140262500Y-110930000D01*
G75*
G02*
X140412500Y-111080000I0J-150000D01*
G01*
X140412500Y-111380000D01*
G75*
G02*
X140262500Y-111530000I-150000J0D01*
G01*
X138587500Y-111530000D01*
G75*
G02*
X138437500Y-111380000I0J150000D01*
G01*
G37*
G36*
G01*
X138437500Y-112650000D02*
X138437500Y-112350000D01*
G75*
G02*
X138587500Y-112200000I150000J0D01*
G01*
X140262500Y-112200000D01*
G75*
G02*
X140412500Y-112350000I0J-150000D01*
G01*
X140412500Y-112650000D01*
G75*
G02*
X140262500Y-112800000I-150000J0D01*
G01*
X138587500Y-112800000D01*
G75*
G02*
X138437500Y-112650000I0J150000D01*
G01*
G37*
G36*
G01*
X131512500Y-112650000D02*
X131512500Y-112350000D01*
G75*
G02*
X131662500Y-112200000I150000J0D01*
G01*
X133337500Y-112200000D01*
G75*
G02*
X133487500Y-112350000I0J-150000D01*
G01*
X133487500Y-112650000D01*
G75*
G02*
X133337500Y-112800000I-150000J0D01*
G01*
X131662500Y-112800000D01*
G75*
G02*
X131512500Y-112650000I0J150000D01*
G01*
G37*
G36*
G01*
X131512500Y-111380000D02*
X131512500Y-111080000D01*
G75*
G02*
X131662500Y-110930000I150000J0D01*
G01*
X133337500Y-110930000D01*
G75*
G02*
X133487500Y-111080000I0J-150000D01*
G01*
X133487500Y-111380000D01*
G75*
G02*
X133337500Y-111530000I-150000J0D01*
G01*
X131662500Y-111530000D01*
G75*
G02*
X131512500Y-111380000I0J150000D01*
G01*
G37*
G36*
G01*
X131512500Y-110110000D02*
X131512500Y-109810000D01*
G75*
G02*
X131662500Y-109660000I150000J0D01*
G01*
X133337500Y-109660000D01*
G75*
G02*
X133487500Y-109810000I0J-150000D01*
G01*
X133487500Y-110110000D01*
G75*
G02*
X133337500Y-110260000I-150000J0D01*
G01*
X131662500Y-110260000D01*
G75*
G02*
X131512500Y-110110000I0J150000D01*
G01*
G37*
G36*
G01*
X131512500Y-108840000D02*
X131512500Y-108540000D01*
G75*
G02*
X131662500Y-108390000I150000J0D01*
G01*
X133337500Y-108390000D01*
G75*
G02*
X133487500Y-108540000I0J-150000D01*
G01*
X133487500Y-108840000D01*
G75*
G02*
X133337500Y-108990000I-150000J0D01*
G01*
X131662500Y-108990000D01*
G75*
G02*
X131512500Y-108840000I0J150000D01*
G01*
G37*
G36*
G01*
X131512500Y-107570000D02*
X131512500Y-107270000D01*
G75*
G02*
X131662500Y-107120000I150000J0D01*
G01*
X133337500Y-107120000D01*
G75*
G02*
X133487500Y-107270000I0J-150000D01*
G01*
X133487500Y-107570000D01*
G75*
G02*
X133337500Y-107720000I-150000J0D01*
G01*
X131662500Y-107720000D01*
G75*
G02*
X131512500Y-107570000I0J150000D01*
G01*
G37*
G36*
G01*
X131512500Y-106300000D02*
X131512500Y-106000000D01*
G75*
G02*
X131662500Y-105850000I150000J0D01*
G01*
X133337500Y-105850000D01*
G75*
G02*
X133487500Y-106000000I0J-150000D01*
G01*
X133487500Y-106300000D01*
G75*
G02*
X133337500Y-106450000I-150000J0D01*
G01*
X131662500Y-106450000D01*
G75*
G02*
X131512500Y-106300000I0J150000D01*
G01*
G37*
G36*
G01*
X131512500Y-105030000D02*
X131512500Y-104730000D01*
G75*
G02*
X131662500Y-104580000I150000J0D01*
G01*
X133337500Y-104580000D01*
G75*
G02*
X133487500Y-104730000I0J-150000D01*
G01*
X133487500Y-105030000D01*
G75*
G02*
X133337500Y-105180000I-150000J0D01*
G01*
X131662500Y-105180000D01*
G75*
G02*
X131512500Y-105030000I0J150000D01*
G01*
G37*
G36*
G01*
X131512500Y-103760000D02*
X131512500Y-103460000D01*
G75*
G02*
X131662500Y-103310000I150000J0D01*
G01*
X133337500Y-103310000D01*
G75*
G02*
X133487500Y-103460000I0J-150000D01*
G01*
X133487500Y-103760000D01*
G75*
G02*
X133337500Y-103910000I-150000J0D01*
G01*
X131662500Y-103910000D01*
G75*
G02*
X131512500Y-103760000I0J150000D01*
G01*
G37*
G36*
G01*
X133242641Y-71818019D02*
X133242641Y-71818019D01*
G75*
G02*
X132358757Y-71818019I-441942J441942D01*
G01*
X132181981Y-71641243D01*
G75*
G02*
X132181981Y-70757359I441942J441942D01*
G01*
X132181981Y-70757359D01*
G75*
G02*
X133065865Y-70757359I441942J-441942D01*
G01*
X133242641Y-70934135D01*
G75*
G02*
X133242641Y-71818019I-441942J-441942D01*
G01*
G37*
G36*
G01*
X132005204Y-73055456D02*
X132005204Y-73055456D01*
G75*
G02*
X131121320Y-73055456I-441942J441942D01*
G01*
X130944544Y-72878680D01*
G75*
G02*
X130944544Y-71994796I441942J441942D01*
G01*
X130944544Y-71994796D01*
G75*
G02*
X131828428Y-71994796I441942J-441942D01*
G01*
X132005204Y-72171572D01*
G75*
G02*
X132005204Y-73055456I-441942J-441942D01*
G01*
G37*
G36*
G01*
X130767767Y-74292893D02*
X130767767Y-74292893D01*
G75*
G02*
X129883883Y-74292893I-441942J441942D01*
G01*
X129707107Y-74116117D01*
G75*
G02*
X129707107Y-73232233I441942J441942D01*
G01*
X129707107Y-73232233D01*
G75*
G02*
X130590991Y-73232233I441942J-441942D01*
G01*
X130767767Y-73409009D01*
G75*
G02*
X130767767Y-74292893I-441942J-441942D01*
G01*
G37*
D16*
G36*
X129972272Y-75088388D02*
G01*
X129088388Y-75972272D01*
X128027728Y-74911612D01*
X128911612Y-74027728D01*
X129972272Y-75088388D01*
G37*
G36*
G01*
X141075079Y-67460984D02*
X141075079Y-67460984D01*
G75*
G02*
X140244501Y-67158678I-264136J566442D01*
G01*
X140138847Y-66932102D01*
G75*
G02*
X140441153Y-66101524I566442J264136D01*
G01*
X140441153Y-66101524D01*
G75*
G02*
X141271731Y-66403830I264136J-566442D01*
G01*
X141377385Y-66630406D01*
G75*
G02*
X141075079Y-67460984I-566442J-264136D01*
G01*
G37*
G36*
G01*
X139489040Y-68200566D02*
X139489040Y-68200566D01*
G75*
G02*
X138658462Y-67898260I-264136J566442D01*
G01*
X138552808Y-67671684D01*
G75*
G02*
X138855114Y-66841106I566442J264136D01*
G01*
X138855114Y-66841106D01*
G75*
G02*
X139685692Y-67143412I264136J-566442D01*
G01*
X139791346Y-67369988D01*
G75*
G02*
X139489040Y-68200566I-566442J-264136D01*
G01*
G37*
G36*
G01*
X137903002Y-68940148D02*
X137903002Y-68940148D01*
G75*
G02*
X137072424Y-68637842I-264136J566442D01*
G01*
X136966770Y-68411266D01*
G75*
G02*
X137269076Y-67580688I566442J264136D01*
G01*
X137269076Y-67580688D01*
G75*
G02*
X138099654Y-67882994I264136J-566442D01*
G01*
X138205308Y-68109570D01*
G75*
G02*
X137903002Y-68940148I-566442J-264136D01*
G01*
G37*
G36*
X136883406Y-69415594D02*
G01*
X135750521Y-69943867D01*
X135116594Y-68584406D01*
X136249479Y-68056133D01*
X136883406Y-69415594D01*
G37*
G36*
G01*
X130700000Y-82950000D02*
X130700000Y-84050000D01*
G75*
G02*
X130450000Y-84300000I-250000J0D01*
G01*
X128350000Y-84300000D01*
G75*
G02*
X128100000Y-84050000I0J250000D01*
G01*
X128100000Y-82950000D01*
G75*
G02*
X128350000Y-82700000I250000J0D01*
G01*
X130450000Y-82700000D01*
G75*
G02*
X130700000Y-82950000I0J-250000D01*
G01*
G37*
G36*
G01*
X134300000Y-82950000D02*
X134300000Y-84050000D01*
G75*
G02*
X134050000Y-84300000I-250000J0D01*
G01*
X131950000Y-84300000D01*
G75*
G02*
X131700000Y-84050000I0J250000D01*
G01*
X131700000Y-82950000D01*
G75*
G02*
X131950000Y-82700000I250000J0D01*
G01*
X134050000Y-82700000D01*
G75*
G02*
X134300000Y-82950000I0J-250000D01*
G01*
G37*
G36*
G01*
X148800000Y-72050000D02*
X148800000Y-70950000D01*
G75*
G02*
X149050000Y-70700000I250000J0D01*
G01*
X151150000Y-70700000D01*
G75*
G02*
X151400000Y-70950000I0J-250000D01*
G01*
X151400000Y-72050000D01*
G75*
G02*
X151150000Y-72300000I-250000J0D01*
G01*
X149050000Y-72300000D01*
G75*
G02*
X148800000Y-72050000I0J250000D01*
G01*
G37*
G36*
G01*
X145200000Y-72050000D02*
X145200000Y-70950000D01*
G75*
G02*
X145450000Y-70700000I250000J0D01*
G01*
X147550000Y-70700000D01*
G75*
G02*
X147800000Y-70950000I0J-250000D01*
G01*
X147800000Y-72050000D01*
G75*
G02*
X147550000Y-72300000I-250000J0D01*
G01*
X145450000Y-72300000D01*
G75*
G02*
X145200000Y-72050000I0J250000D01*
G01*
G37*
G36*
G01*
X123550000Y-64000000D02*
X122450000Y-64000000D01*
G75*
G02*
X122200000Y-63750000I0J250000D01*
G01*
X122200000Y-61650000D01*
G75*
G02*
X122450000Y-61400000I250000J0D01*
G01*
X123550000Y-61400000D01*
G75*
G02*
X123800000Y-61650000I0J-250000D01*
G01*
X123800000Y-63750000D01*
G75*
G02*
X123550000Y-64000000I-250000J0D01*
G01*
G37*
G36*
G01*
X123550000Y-67600000D02*
X122450000Y-67600000D01*
G75*
G02*
X122200000Y-67350000I0J250000D01*
G01*
X122200000Y-65250000D01*
G75*
G02*
X122450000Y-65000000I250000J0D01*
G01*
X123550000Y-65000000D01*
G75*
G02*
X123800000Y-65250000I0J-250000D01*
G01*
X123800000Y-67350000D01*
G75*
G02*
X123550000Y-67600000I-250000J0D01*
G01*
G37*
G36*
G01*
X140300000Y-75750000D02*
X140300000Y-74650000D01*
G75*
G02*
X140550000Y-74400000I250000J0D01*
G01*
X142650000Y-74400000D01*
G75*
G02*
X142900000Y-74650000I0J-250000D01*
G01*
X142900000Y-75750000D01*
G75*
G02*
X142650000Y-76000000I-250000J0D01*
G01*
X140550000Y-76000000D01*
G75*
G02*
X140300000Y-75750000I0J250000D01*
G01*
G37*
G36*
G01*
X136700000Y-75750000D02*
X136700000Y-74650000D01*
G75*
G02*
X136950000Y-74400000I250000J0D01*
G01*
X139050000Y-74400000D01*
G75*
G02*
X139300000Y-74650000I0J-250000D01*
G01*
X139300000Y-75750000D01*
G75*
G02*
X139050000Y-76000000I-250000J0D01*
G01*
X136950000Y-76000000D01*
G75*
G02*
X136700000Y-75750000I0J250000D01*
G01*
G37*
G36*
G01*
X126350000Y-71600000D02*
X125250000Y-71600000D01*
G75*
G02*
X125000000Y-71350000I0J250000D01*
G01*
X125000000Y-69250000D01*
G75*
G02*
X125250000Y-69000000I250000J0D01*
G01*
X126350000Y-69000000D01*
G75*
G02*
X126600000Y-69250000I0J-250000D01*
G01*
X126600000Y-71350000D01*
G75*
G02*
X126350000Y-71600000I-250000J0D01*
G01*
G37*
G36*
G01*
X126350000Y-75200000D02*
X125250000Y-75200000D01*
G75*
G02*
X125000000Y-74950000I0J250000D01*
G01*
X125000000Y-72850000D01*
G75*
G02*
X125250000Y-72600000I250000J0D01*
G01*
X126350000Y-72600000D01*
G75*
G02*
X126600000Y-72850000I0J-250000D01*
G01*
X126600000Y-74950000D01*
G75*
G02*
X126350000Y-75200000I-250000J0D01*
G01*
G37*
G36*
G01*
X123550000Y-96500000D02*
X122450000Y-96500000D01*
G75*
G02*
X122200000Y-96250000I0J250000D01*
G01*
X122200000Y-94150000D01*
G75*
G02*
X122450000Y-93900000I250000J0D01*
G01*
X123550000Y-93900000D01*
G75*
G02*
X123800000Y-94150000I0J-250000D01*
G01*
X123800000Y-96250000D01*
G75*
G02*
X123550000Y-96500000I-250000J0D01*
G01*
G37*
G36*
G01*
X123550000Y-100100000D02*
X122450000Y-100100000D01*
G75*
G02*
X122200000Y-99850000I0J250000D01*
G01*
X122200000Y-97750000D01*
G75*
G02*
X122450000Y-97500000I250000J0D01*
G01*
X123550000Y-97500000D01*
G75*
G02*
X123800000Y-97750000I0J-250000D01*
G01*
X123800000Y-99850000D01*
G75*
G02*
X123550000Y-100100000I-250000J0D01*
G01*
G37*
G36*
G01*
X123750000Y-86150000D02*
X122650000Y-86150000D01*
G75*
G02*
X122400000Y-85900000I0J250000D01*
G01*
X122400000Y-83800000D01*
G75*
G02*
X122650000Y-83550000I250000J0D01*
G01*
X123750000Y-83550000D01*
G75*
G02*
X124000000Y-83800000I0J-250000D01*
G01*
X124000000Y-85900000D01*
G75*
G02*
X123750000Y-86150000I-250000J0D01*
G01*
G37*
G36*
G01*
X123750000Y-89750000D02*
X122650000Y-89750000D01*
G75*
G02*
X122400000Y-89500000I0J250000D01*
G01*
X122400000Y-87400000D01*
G75*
G02*
X122650000Y-87150000I250000J0D01*
G01*
X123750000Y-87150000D01*
G75*
G02*
X124000000Y-87400000I0J-250000D01*
G01*
X124000000Y-89500000D01*
G75*
G02*
X123750000Y-89750000I-250000J0D01*
G01*
G37*
D19*
X148000000Y-115000000D03*
X148000000Y-110000000D03*
X160800000Y-101700000D03*
X160800000Y-106200000D03*
M02*
