M48
; DRILL file {KiCad 5.1.10-88a1d61d58~88~ubuntu18.04.1} date Sat Aug  3 22:25:46 2024
; FORMAT={-:-/ absolute / metric / decimal}
; #@! TF.CreationDate,2024-08-03T22:25:46-04:00
; #@! TF.GenerationSoftware,Kicad,Pcbnew,5.1.10-88a1d61d58~88~ubuntu18.04.1
; #@! TF.FileFunction,Plated,1,2,PTH
FMAT,2
METRIC
T1C0.650
T2C1.000
T3C1.100
%
G90
G05
T1
X129.0Y-75.0
X130.237Y-73.763
X131.475Y-72.525
X132.712Y-71.288
X136.0Y-69.0
X137.586Y-68.26
X139.172Y-67.521
X140.758Y-66.781
T2
X121.5Y-56.5
X124.04Y-56.5
X126.58Y-56.5
X129.12Y-56.5
X131.66Y-56.5
X134.2Y-56.5
X136.74Y-56.5
X139.28Y-56.5
X141.82Y-56.5
X144.36Y-56.5
X146.9Y-56.5
X149.44Y-56.5
T3
X120.0Y-68.96
X120.0Y-71.5
X121.2Y-75.46
X121.2Y-78.0
X173.7Y-83.1
X173.7Y-85.64
X173.7Y-88.18
X173.7Y-90.72
X173.7Y-97.35
X173.7Y-99.89
X173.7Y-102.43
T0
M30
