%FSLAX45Y45*%
G04 Gerber Fmt 4.5, Leading zero omitted, Abs format (unit mm)*
G04 Created by KiCad (PCBNEW 5.1.10-88a1d61d58~88~ubuntu18.04.1) date 2024-08-03 22:25:54*
%MOMM*%
%LPD*%
G01*
G04 APERTURE LIST*
%TA.AperFunction,Profile*%
%ADD10C,0.050000*%
%TD*%
%ADD11C,0.200000*%
%ADD12C,0.300000*%
G04 APERTURE END LIST*
D10*
X17450000Y-10850000D02*
G75*
G03*
X17450000Y-10850000I-300000J0D01*
G01*
X12750000Y-10850000D02*
G75*
G03*
X12750000Y-10850000I-300000J0D01*
G01*
X15554138Y-6150000D02*
G75*
G03*
X15554138Y-6150000I-304138J0D01*
G01*
X15450000Y-9000000D02*
G75*
G03*
X15450000Y-9000000I-650000J0D01*
G01*
X12300000Y-5000000D02*
X14800000Y-5000000D01*
X17600000Y-11200000D02*
G75*
G02*
X17100000Y-11700000I-500000J0D01*
G01*
X12300000Y-11700000D02*
G75*
G02*
X11800000Y-11200000I0J500000D01*
G01*
X11800000Y-5500000D02*
G75*
G02*
X12300000Y-5000000I500000J0D01*
G01*
X17600000Y-8200000D02*
X14800000Y-5000000D01*
X17600000Y-11200000D02*
X17600000Y-8200000D01*
X12300000Y-11700000D02*
X17100000Y-11700000D01*
X11800000Y-5500000D02*
X11800000Y-11200000D01*
D11*
X12395000Y-10245000D02*
X12605000Y-10455000D01*
X12605000Y-10245000D02*
X12395000Y-10455000D01*
X15565000Y-6395000D02*
X15775000Y-6605000D01*
X15775000Y-6395000D02*
X15565000Y-6605000D01*
X16445000Y-10945000D02*
X16655000Y-11155000D01*
X16655000Y-10945000D02*
X16445000Y-11155000D01*
D12*
X12083928Y-12168214D02*
X12083928Y-11868214D01*
X12155357Y-11868214D01*
X12198214Y-11882500D01*
X12226786Y-11911071D01*
X12241071Y-11939643D01*
X12255357Y-11996786D01*
X12255357Y-12039643D01*
X12241071Y-12096786D01*
X12226786Y-12125357D01*
X12198214Y-12153929D01*
X12155357Y-12168214D01*
X12083928Y-12168214D01*
X12383928Y-12168214D02*
X12383928Y-11968214D01*
X12383928Y-12025357D02*
X12398214Y-11996786D01*
X12412500Y-11982500D01*
X12441071Y-11968214D01*
X12469643Y-11968214D01*
X12569643Y-12168214D02*
X12569643Y-11968214D01*
X12569643Y-11868214D02*
X12555357Y-11882500D01*
X12569643Y-11896786D01*
X12583928Y-11882500D01*
X12569643Y-11868214D01*
X12569643Y-11896786D01*
X12755357Y-12168214D02*
X12726786Y-12153929D01*
X12712500Y-12125357D01*
X12712500Y-11868214D01*
X12912500Y-12168214D02*
X12883928Y-12153929D01*
X12869643Y-12125357D01*
X12869643Y-11868214D01*
X13255357Y-12168214D02*
X13255357Y-11868214D01*
X13355357Y-12082500D01*
X13455357Y-11868214D01*
X13455357Y-12168214D01*
X13726786Y-12168214D02*
X13726786Y-12011071D01*
X13712500Y-11982500D01*
X13683928Y-11968214D01*
X13626786Y-11968214D01*
X13598214Y-11982500D01*
X13726786Y-12153929D02*
X13698214Y-12168214D01*
X13626786Y-12168214D01*
X13598214Y-12153929D01*
X13583928Y-12125357D01*
X13583928Y-12096786D01*
X13598214Y-12068214D01*
X13626786Y-12053929D01*
X13698214Y-12053929D01*
X13726786Y-12039643D01*
X13869643Y-11968214D02*
X13869643Y-12268214D01*
X13869643Y-11982500D02*
X13898214Y-11968214D01*
X13955357Y-11968214D01*
X13983928Y-11982500D01*
X13998214Y-11996786D01*
X14012500Y-12025357D01*
X14012500Y-12111071D01*
X13998214Y-12139643D01*
X13983928Y-12153929D01*
X13955357Y-12168214D01*
X13898214Y-12168214D01*
X13869643Y-12153929D01*
X14141071Y-12139643D02*
X14155357Y-12153929D01*
X14141071Y-12168214D01*
X14126786Y-12153929D01*
X14141071Y-12139643D01*
X14141071Y-12168214D01*
X14141071Y-11982500D02*
X14155357Y-11996786D01*
X14141071Y-12011071D01*
X14126786Y-11996786D01*
X14141071Y-11982500D01*
X14141071Y-12011071D01*
X11587500Y-12557500D02*
X11797500Y-12767500D01*
X11797500Y-12557500D02*
X11587500Y-12767500D01*
X12069643Y-12526786D02*
X12083928Y-12512500D01*
X12112500Y-12498214D01*
X12183928Y-12498214D01*
X12212500Y-12512500D01*
X12226786Y-12526786D01*
X12241071Y-12555357D01*
X12241071Y-12583929D01*
X12226786Y-12626786D01*
X12055357Y-12798214D01*
X12241071Y-12798214D01*
X12369643Y-12769643D02*
X12383928Y-12783929D01*
X12369643Y-12798214D01*
X12355357Y-12783929D01*
X12369643Y-12769643D01*
X12369643Y-12798214D01*
X12669643Y-12798214D02*
X12498214Y-12798214D01*
X12583928Y-12798214D02*
X12583928Y-12498214D01*
X12555357Y-12541071D01*
X12526786Y-12569643D01*
X12498214Y-12583929D01*
X12855357Y-12498214D02*
X12883928Y-12498214D01*
X12912500Y-12512500D01*
X12926786Y-12526786D01*
X12941071Y-12555357D01*
X12955357Y-12612500D01*
X12955357Y-12683929D01*
X12941071Y-12741071D01*
X12926786Y-12769643D01*
X12912500Y-12783929D01*
X12883928Y-12798214D01*
X12855357Y-12798214D01*
X12826786Y-12783929D01*
X12812500Y-12769643D01*
X12798214Y-12741071D01*
X12783928Y-12683929D01*
X12783928Y-12612500D01*
X12798214Y-12555357D01*
X12812500Y-12526786D01*
X12826786Y-12512500D01*
X12855357Y-12498214D01*
X13141071Y-12498214D02*
X13169643Y-12498214D01*
X13198214Y-12512500D01*
X13212500Y-12526786D01*
X13226786Y-12555357D01*
X13241071Y-12612500D01*
X13241071Y-12683929D01*
X13226786Y-12741071D01*
X13212500Y-12769643D01*
X13198214Y-12783929D01*
X13169643Y-12798214D01*
X13141071Y-12798214D01*
X13112500Y-12783929D01*
X13098214Y-12769643D01*
X13083928Y-12741071D01*
X13069643Y-12683929D01*
X13069643Y-12612500D01*
X13083928Y-12555357D01*
X13098214Y-12526786D01*
X13112500Y-12512500D01*
X13141071Y-12498214D01*
X13369643Y-12798214D02*
X13369643Y-12598214D01*
X13369643Y-12626786D02*
X13383928Y-12612500D01*
X13412500Y-12598214D01*
X13455357Y-12598214D01*
X13483928Y-12612500D01*
X13498214Y-12641071D01*
X13498214Y-12798214D01*
X13498214Y-12641071D02*
X13512500Y-12612500D01*
X13541071Y-12598214D01*
X13583928Y-12598214D01*
X13612500Y-12612500D01*
X13626786Y-12641071D01*
X13626786Y-12798214D01*
X13769643Y-12798214D02*
X13769643Y-12598214D01*
X13769643Y-12626786D02*
X13783928Y-12612500D01*
X13812500Y-12598214D01*
X13855357Y-12598214D01*
X13883928Y-12612500D01*
X13898214Y-12641071D01*
X13898214Y-12798214D01*
X13898214Y-12641071D02*
X13912500Y-12612500D01*
X13941071Y-12598214D01*
X13983928Y-12598214D01*
X14012500Y-12612500D01*
X14026786Y-12641071D01*
X14026786Y-12798214D01*
X14612500Y-12483929D02*
X14355357Y-12869643D01*
X14998214Y-12498214D02*
X15026786Y-12498214D01*
X15055357Y-12512500D01*
X15069643Y-12526786D01*
X15083928Y-12555357D01*
X15098214Y-12612500D01*
X15098214Y-12683929D01*
X15083928Y-12741071D01*
X15069643Y-12769643D01*
X15055357Y-12783929D01*
X15026786Y-12798214D01*
X14998214Y-12798214D01*
X14969643Y-12783929D01*
X14955357Y-12769643D01*
X14941071Y-12741071D01*
X14926786Y-12683929D01*
X14926786Y-12612500D01*
X14941071Y-12555357D01*
X14955357Y-12526786D01*
X14969643Y-12512500D01*
X14998214Y-12498214D01*
X15226786Y-12769643D02*
X15241071Y-12783929D01*
X15226786Y-12798214D01*
X15212500Y-12783929D01*
X15226786Y-12769643D01*
X15226786Y-12798214D01*
X15426786Y-12498214D02*
X15455357Y-12498214D01*
X15483928Y-12512500D01*
X15498214Y-12526786D01*
X15512500Y-12555357D01*
X15526786Y-12612500D01*
X15526786Y-12683929D01*
X15512500Y-12741071D01*
X15498214Y-12769643D01*
X15483928Y-12783929D01*
X15455357Y-12798214D01*
X15426786Y-12798214D01*
X15398214Y-12783929D01*
X15383928Y-12769643D01*
X15369643Y-12741071D01*
X15355357Y-12683929D01*
X15355357Y-12612500D01*
X15369643Y-12555357D01*
X15383928Y-12526786D01*
X15398214Y-12512500D01*
X15426786Y-12498214D01*
X15698214Y-12626786D02*
X15669643Y-12612500D01*
X15655357Y-12598214D01*
X15641071Y-12569643D01*
X15641071Y-12555357D01*
X15655357Y-12526786D01*
X15669643Y-12512500D01*
X15698214Y-12498214D01*
X15755357Y-12498214D01*
X15783928Y-12512500D01*
X15798214Y-12526786D01*
X15812500Y-12555357D01*
X15812500Y-12569643D01*
X15798214Y-12598214D01*
X15783928Y-12612500D01*
X15755357Y-12626786D01*
X15698214Y-12626786D01*
X15669643Y-12641071D01*
X15655357Y-12655357D01*
X15641071Y-12683929D01*
X15641071Y-12741071D01*
X15655357Y-12769643D01*
X15669643Y-12783929D01*
X15698214Y-12798214D01*
X15755357Y-12798214D01*
X15783928Y-12783929D01*
X15798214Y-12769643D01*
X15812500Y-12741071D01*
X15812500Y-12683929D01*
X15798214Y-12655357D01*
X15783928Y-12641071D01*
X15755357Y-12626786D01*
X15926786Y-12526786D02*
X15941071Y-12512500D01*
X15969643Y-12498214D01*
X16041071Y-12498214D01*
X16069643Y-12512500D01*
X16083928Y-12526786D01*
X16098214Y-12555357D01*
X16098214Y-12583929D01*
X16083928Y-12626786D01*
X15912500Y-12798214D01*
X16098214Y-12798214D01*
X16198214Y-12498214D02*
X16398214Y-12498214D01*
X16269643Y-12798214D01*
X16498214Y-12498214D02*
X16498214Y-12555357D01*
X16612500Y-12498214D02*
X16612500Y-12555357D01*
X17055357Y-12912500D02*
X17041071Y-12898214D01*
X17012500Y-12855357D01*
X16998214Y-12826786D01*
X16983928Y-12783929D01*
X16969643Y-12712500D01*
X16969643Y-12655357D01*
X16983928Y-12583929D01*
X16998214Y-12541071D01*
X17012500Y-12512500D01*
X17041071Y-12469643D01*
X17055357Y-12455357D01*
X17141071Y-12498214D02*
X17326786Y-12498214D01*
X17226786Y-12612500D01*
X17269643Y-12612500D01*
X17298214Y-12626786D01*
X17312500Y-12641071D01*
X17326786Y-12669643D01*
X17326786Y-12741071D01*
X17312500Y-12769643D01*
X17298214Y-12783929D01*
X17269643Y-12798214D01*
X17183928Y-12798214D01*
X17155357Y-12783929D01*
X17141071Y-12769643D01*
X17683928Y-12798214D02*
X17683928Y-12498214D01*
X17812500Y-12798214D02*
X17812500Y-12641071D01*
X17798214Y-12612500D01*
X17769643Y-12598214D01*
X17726786Y-12598214D01*
X17698214Y-12612500D01*
X17683928Y-12626786D01*
X17998214Y-12798214D02*
X17969643Y-12783929D01*
X17955357Y-12769643D01*
X17941071Y-12741071D01*
X17941071Y-12655357D01*
X17955357Y-12626786D01*
X17969643Y-12612500D01*
X17998214Y-12598214D01*
X18041071Y-12598214D01*
X18069643Y-12612500D01*
X18083928Y-12626786D01*
X18098214Y-12655357D01*
X18098214Y-12741071D01*
X18083928Y-12769643D01*
X18069643Y-12783929D01*
X18041071Y-12798214D01*
X17998214Y-12798214D01*
X18269643Y-12798214D02*
X18241071Y-12783929D01*
X18226786Y-12755357D01*
X18226786Y-12498214D01*
X18498214Y-12783929D02*
X18469643Y-12798214D01*
X18412500Y-12798214D01*
X18383928Y-12783929D01*
X18369643Y-12755357D01*
X18369643Y-12641071D01*
X18383928Y-12612500D01*
X18412500Y-12598214D01*
X18469643Y-12598214D01*
X18498214Y-12612500D01*
X18512500Y-12641071D01*
X18512500Y-12669643D01*
X18369643Y-12698214D01*
X18626786Y-12783929D02*
X18655357Y-12798214D01*
X18712500Y-12798214D01*
X18741071Y-12783929D01*
X18755357Y-12755357D01*
X18755357Y-12741071D01*
X18741071Y-12712500D01*
X18712500Y-12698214D01*
X18669643Y-12698214D01*
X18641071Y-12683929D01*
X18626786Y-12655357D01*
X18626786Y-12641071D01*
X18641071Y-12612500D01*
X18669643Y-12598214D01*
X18712500Y-12598214D01*
X18741071Y-12612500D01*
X18855357Y-12912500D02*
X18869643Y-12898214D01*
X18898214Y-12855357D01*
X18912500Y-12826786D01*
X18926786Y-12783929D01*
X18941071Y-12712500D01*
X18941071Y-12655357D01*
X18926786Y-12583929D01*
X18912500Y-12541071D01*
X18898214Y-12512500D01*
X18869643Y-12469643D01*
X18855357Y-12455357D01*
X19398214Y-12912500D02*
X19383928Y-12898214D01*
X19355357Y-12855357D01*
X19341071Y-12826786D01*
X19326786Y-12783929D01*
X19312500Y-12712500D01*
X19312500Y-12655357D01*
X19326786Y-12583929D01*
X19341071Y-12541071D01*
X19355357Y-12512500D01*
X19383928Y-12469643D01*
X19398214Y-12455357D01*
X19512500Y-12598214D02*
X19512500Y-12798214D01*
X19512500Y-12626786D02*
X19526786Y-12612500D01*
X19555357Y-12598214D01*
X19598214Y-12598214D01*
X19626786Y-12612500D01*
X19641071Y-12641071D01*
X19641071Y-12798214D01*
X19826786Y-12798214D02*
X19798214Y-12783929D01*
X19783928Y-12769643D01*
X19769643Y-12741071D01*
X19769643Y-12655357D01*
X19783928Y-12626786D01*
X19798214Y-12612500D01*
X19826786Y-12598214D01*
X19869643Y-12598214D01*
X19898214Y-12612500D01*
X19912500Y-12626786D01*
X19926786Y-12655357D01*
X19926786Y-12741071D01*
X19912500Y-12769643D01*
X19898214Y-12783929D01*
X19869643Y-12798214D01*
X19826786Y-12798214D01*
X20012500Y-12598214D02*
X20126786Y-12598214D01*
X20055357Y-12498214D02*
X20055357Y-12755357D01*
X20069643Y-12783929D01*
X20098214Y-12798214D01*
X20126786Y-12798214D01*
X20455357Y-12598214D02*
X20455357Y-12898214D01*
X20455357Y-12612500D02*
X20483928Y-12598214D01*
X20541071Y-12598214D01*
X20569643Y-12612500D01*
X20583928Y-12626786D01*
X20598214Y-12655357D01*
X20598214Y-12741071D01*
X20583928Y-12769643D01*
X20569643Y-12783929D01*
X20541071Y-12798214D01*
X20483928Y-12798214D01*
X20455357Y-12783929D01*
X20769643Y-12798214D02*
X20741071Y-12783929D01*
X20726786Y-12755357D01*
X20726786Y-12498214D01*
X21012500Y-12798214D02*
X21012500Y-12641071D01*
X20998214Y-12612500D01*
X20969643Y-12598214D01*
X20912500Y-12598214D01*
X20883928Y-12612500D01*
X21012500Y-12783929D02*
X20983928Y-12798214D01*
X20912500Y-12798214D01*
X20883928Y-12783929D01*
X20869643Y-12755357D01*
X20869643Y-12726786D01*
X20883928Y-12698214D01*
X20912500Y-12683929D01*
X20983928Y-12683929D01*
X21012500Y-12669643D01*
X21112500Y-12598214D02*
X21226786Y-12598214D01*
X21155357Y-12498214D02*
X21155357Y-12755357D01*
X21169643Y-12783929D01*
X21198214Y-12798214D01*
X21226786Y-12798214D01*
X21441071Y-12783929D02*
X21412500Y-12798214D01*
X21355357Y-12798214D01*
X21326786Y-12783929D01*
X21312500Y-12755357D01*
X21312500Y-12641071D01*
X21326786Y-12612500D01*
X21355357Y-12598214D01*
X21412500Y-12598214D01*
X21441071Y-12612500D01*
X21455357Y-12641071D01*
X21455357Y-12669643D01*
X21312500Y-12698214D01*
X21712500Y-12798214D02*
X21712500Y-12498214D01*
X21712500Y-12783929D02*
X21683928Y-12798214D01*
X21626786Y-12798214D01*
X21598214Y-12783929D01*
X21583928Y-12769643D01*
X21569643Y-12741071D01*
X21569643Y-12655357D01*
X21583928Y-12626786D01*
X21598214Y-12612500D01*
X21626786Y-12598214D01*
X21683928Y-12598214D01*
X21712500Y-12612500D01*
X21826786Y-12912500D02*
X21841071Y-12898214D01*
X21869643Y-12855357D01*
X21883928Y-12826786D01*
X21898214Y-12783929D01*
X21912500Y-12712500D01*
X21912500Y-12655357D01*
X21898214Y-12583929D01*
X21883928Y-12541071D01*
X21869643Y-12512500D01*
X21841071Y-12469643D01*
X21826786Y-12455357D01*
M02*
