G04 #@! TF.GenerationSoftware,KiCad,Pcbnew,5.1.10-88a1d61d58~88~ubuntu18.04.1*
G04 #@! TF.CreationDate,2024-08-03T23:10:31-04:00*
G04 #@! TF.ProjectId,238-capstan,3233382d-6361-4707-9374-616e2e6b6963,rev?*
G04 #@! TF.SameCoordinates,Original*
G04 #@! TF.FileFunction,Soldermask,Top*
G04 #@! TF.FilePolarity,Negative*
%FSLAX46Y46*%
G04 Gerber Fmt 4.6, Leading zero omitted, Abs format (unit mm)*
G04 Created by KiCad (PCBNEW 5.1.10-88a1d61d58~88~ubuntu18.04.1) date 2024-08-03 23:10:31*
%MOMM*%
%LPD*%
G01*
G04 APERTURE LIST*
%ADD10O,2.500000X2.000000*%
%ADD11R,1.300000X1.700000*%
%ADD12C,2.100000*%
%ADD13C,2.500000*%
%ADD14R,1.600000X1.500000*%
%ADD15R,1.200000X1.200000*%
%ADD16C,0.100000*%
%ADD17O,1.700000X2.100000*%
%ADD18R,1.700000X2.100000*%
%ADD19R,2.500000X2.500000*%
G04 APERTURE END LIST*
D10*
X120000000Y-68960000D03*
X120000000Y-71500000D03*
X173700000Y-102430000D03*
X173700000Y-99890000D03*
X173700000Y-97350000D03*
X121200000Y-78000000D03*
X121200000Y-75460000D03*
X173700000Y-83100000D03*
X173700000Y-85640000D03*
X173700000Y-88180000D03*
G36*
G01*
X174950000Y-90220000D02*
X174950000Y-91220000D01*
G75*
G02*
X174450000Y-91720000I-500000J0D01*
G01*
X172950000Y-91720000D01*
G75*
G02*
X172450000Y-91220000I0J500000D01*
G01*
X172450000Y-90220000D01*
G75*
G02*
X172950000Y-89720000I500000J0D01*
G01*
X174450000Y-89720000D01*
G75*
G02*
X174950000Y-90220000I0J-500000D01*
G01*
G37*
D11*
X129400000Y-87500000D03*
X132900000Y-87500000D03*
D12*
X165500000Y-110500000D03*
X156700000Y-65000000D03*
X125000000Y-103500000D03*
G36*
G01*
X154375000Y-72437500D02*
X155625000Y-72437500D01*
G75*
G02*
X155875000Y-72687500I0J-250000D01*
G01*
X155875000Y-73487500D01*
G75*
G02*
X155625000Y-73737500I-250000J0D01*
G01*
X154375000Y-73737500D01*
G75*
G02*
X154125000Y-73487500I0J250000D01*
G01*
X154125000Y-72687500D01*
G75*
G02*
X154375000Y-72437500I250000J0D01*
G01*
G37*
G36*
G01*
X154375000Y-69337500D02*
X155625000Y-69337500D01*
G75*
G02*
X155875000Y-69587500I0J-250000D01*
G01*
X155875000Y-70387500D01*
G75*
G02*
X155625000Y-70637500I-250000J0D01*
G01*
X154375000Y-70637500D01*
G75*
G02*
X154125000Y-70387500I0J250000D01*
G01*
X154125000Y-69587500D01*
G75*
G02*
X154375000Y-69337500I250000J0D01*
G01*
G37*
G36*
G01*
X138562500Y-60875000D02*
X138562500Y-62125000D01*
G75*
G02*
X138312500Y-62375000I-250000J0D01*
G01*
X137512500Y-62375000D01*
G75*
G02*
X137262500Y-62125000I0J250000D01*
G01*
X137262500Y-60875000D01*
G75*
G02*
X137512500Y-60625000I250000J0D01*
G01*
X138312500Y-60625000D01*
G75*
G02*
X138562500Y-60875000I0J-250000D01*
G01*
G37*
G36*
G01*
X141662500Y-60875000D02*
X141662500Y-62125000D01*
G75*
G02*
X141412500Y-62375000I-250000J0D01*
G01*
X140612500Y-62375000D01*
G75*
G02*
X140362500Y-62125000I0J250000D01*
G01*
X140362500Y-60875000D01*
G75*
G02*
X140612500Y-60625000I250000J0D01*
G01*
X141412500Y-60625000D01*
G75*
G02*
X141662500Y-60875000I0J-250000D01*
G01*
G37*
G36*
G01*
X123137500Y-58875000D02*
X123137500Y-60125000D01*
G75*
G02*
X122887500Y-60375000I-250000J0D01*
G01*
X122087500Y-60375000D01*
G75*
G02*
X121837500Y-60125000I0J250000D01*
G01*
X121837500Y-58875000D01*
G75*
G02*
X122087500Y-58625000I250000J0D01*
G01*
X122887500Y-58625000D01*
G75*
G02*
X123137500Y-58875000I0J-250000D01*
G01*
G37*
G36*
G01*
X126237500Y-58875000D02*
X126237500Y-60125000D01*
G75*
G02*
X125987500Y-60375000I-250000J0D01*
G01*
X125187500Y-60375000D01*
G75*
G02*
X124937500Y-60125000I0J250000D01*
G01*
X124937500Y-58875000D01*
G75*
G02*
X125187500Y-58625000I250000J0D01*
G01*
X125987500Y-58625000D01*
G75*
G02*
X126237500Y-58875000I0J-250000D01*
G01*
G37*
G36*
G01*
X131862500Y-79625000D02*
X131862500Y-78375000D01*
G75*
G02*
X132112500Y-78125000I250000J0D01*
G01*
X132912500Y-78125000D01*
G75*
G02*
X133162500Y-78375000I0J-250000D01*
G01*
X133162500Y-79625000D01*
G75*
G02*
X132912500Y-79875000I-250000J0D01*
G01*
X132112500Y-79875000D01*
G75*
G02*
X131862500Y-79625000I0J250000D01*
G01*
G37*
G36*
G01*
X128762500Y-79625000D02*
X128762500Y-78375000D01*
G75*
G02*
X129012500Y-78125000I250000J0D01*
G01*
X129812500Y-78125000D01*
G75*
G02*
X130062500Y-78375000I0J-250000D01*
G01*
X130062500Y-79625000D01*
G75*
G02*
X129812500Y-79875000I-250000J0D01*
G01*
X129012500Y-79875000D01*
G75*
G02*
X128762500Y-79625000I0J250000D01*
G01*
G37*
G36*
G01*
X170825000Y-95650000D02*
X169575000Y-95650000D01*
G75*
G02*
X169325000Y-95400000I0J250000D01*
G01*
X169325000Y-94600000D01*
G75*
G02*
X169575000Y-94350000I250000J0D01*
G01*
X170825000Y-94350000D01*
G75*
G02*
X171075000Y-94600000I0J-250000D01*
G01*
X171075000Y-95400000D01*
G75*
G02*
X170825000Y-95650000I-250000J0D01*
G01*
G37*
G36*
G01*
X170825000Y-98750000D02*
X169575000Y-98750000D01*
G75*
G02*
X169325000Y-98500000I0J250000D01*
G01*
X169325000Y-97700000D01*
G75*
G02*
X169575000Y-97450000I250000J0D01*
G01*
X170825000Y-97450000D01*
G75*
G02*
X171075000Y-97700000I0J-250000D01*
G01*
X171075000Y-98500000D01*
G75*
G02*
X170825000Y-98750000I-250000J0D01*
G01*
G37*
G36*
G01*
X164650000Y-105375000D02*
X164650000Y-106625000D01*
G75*
G02*
X164400000Y-106875000I-250000J0D01*
G01*
X163600000Y-106875000D01*
G75*
G02*
X163350000Y-106625000I0J250000D01*
G01*
X163350000Y-105375000D01*
G75*
G02*
X163600000Y-105125000I250000J0D01*
G01*
X164400000Y-105125000D01*
G75*
G02*
X164650000Y-105375000I0J-250000D01*
G01*
G37*
G36*
G01*
X167750000Y-105375000D02*
X167750000Y-106625000D01*
G75*
G02*
X167500000Y-106875000I-250000J0D01*
G01*
X166700000Y-106875000D01*
G75*
G02*
X166450000Y-106625000I0J250000D01*
G01*
X166450000Y-105375000D01*
G75*
G02*
X166700000Y-105125000I250000J0D01*
G01*
X167500000Y-105125000D01*
G75*
G02*
X167750000Y-105375000I0J-250000D01*
G01*
G37*
G36*
G01*
X157637500Y-106375000D02*
X157637500Y-107625000D01*
G75*
G02*
X157387500Y-107875000I-250000J0D01*
G01*
X156587500Y-107875000D01*
G75*
G02*
X156337500Y-107625000I0J250000D01*
G01*
X156337500Y-106375000D01*
G75*
G02*
X156587500Y-106125000I250000J0D01*
G01*
X157387500Y-106125000D01*
G75*
G02*
X157637500Y-106375000I0J-250000D01*
G01*
G37*
G36*
G01*
X160737500Y-106375000D02*
X160737500Y-107625000D01*
G75*
G02*
X160487500Y-107875000I-250000J0D01*
G01*
X159687500Y-107875000D01*
G75*
G02*
X159437500Y-107625000I0J250000D01*
G01*
X159437500Y-106375000D01*
G75*
G02*
X159687500Y-106125000I250000J0D01*
G01*
X160487500Y-106125000D01*
G75*
G02*
X160737500Y-106375000I0J-250000D01*
G01*
G37*
G36*
G01*
X128375000Y-112362500D02*
X129625000Y-112362500D01*
G75*
G02*
X129875000Y-112612500I0J-250000D01*
G01*
X129875000Y-113412500D01*
G75*
G02*
X129625000Y-113662500I-250000J0D01*
G01*
X128375000Y-113662500D01*
G75*
G02*
X128125000Y-113412500I0J250000D01*
G01*
X128125000Y-112612500D01*
G75*
G02*
X128375000Y-112362500I250000J0D01*
G01*
G37*
G36*
G01*
X128375000Y-109262500D02*
X129625000Y-109262500D01*
G75*
G02*
X129875000Y-109512500I0J-250000D01*
G01*
X129875000Y-110312500D01*
G75*
G02*
X129625000Y-110562500I-250000J0D01*
G01*
X128375000Y-110562500D01*
G75*
G02*
X128125000Y-110312500I0J250000D01*
G01*
X128125000Y-109512500D01*
G75*
G02*
X128375000Y-109262500I250000J0D01*
G01*
G37*
G36*
G01*
X128375000Y-102362500D02*
X129625000Y-102362500D01*
G75*
G02*
X129875000Y-102612500I0J-250000D01*
G01*
X129875000Y-103412500D01*
G75*
G02*
X129625000Y-103662500I-250000J0D01*
G01*
X128375000Y-103662500D01*
G75*
G02*
X128125000Y-103412500I0J250000D01*
G01*
X128125000Y-102612500D01*
G75*
G02*
X128375000Y-102362500I250000J0D01*
G01*
G37*
G36*
G01*
X128375000Y-99262500D02*
X129625000Y-99262500D01*
G75*
G02*
X129875000Y-99512500I0J-250000D01*
G01*
X129875000Y-100312500D01*
G75*
G02*
X129625000Y-100562500I-250000J0D01*
G01*
X128375000Y-100562500D01*
G75*
G02*
X128125000Y-100312500I0J250000D01*
G01*
X128125000Y-99512500D01*
G75*
G02*
X128375000Y-99262500I250000J0D01*
G01*
G37*
G36*
G01*
X127625000Y-95562500D02*
X126375000Y-95562500D01*
G75*
G02*
X126125000Y-95312500I0J250000D01*
G01*
X126125000Y-94512500D01*
G75*
G02*
X126375000Y-94262500I250000J0D01*
G01*
X127625000Y-94262500D01*
G75*
G02*
X127875000Y-94512500I0J-250000D01*
G01*
X127875000Y-95312500D01*
G75*
G02*
X127625000Y-95562500I-250000J0D01*
G01*
G37*
G36*
G01*
X127625000Y-98662500D02*
X126375000Y-98662500D01*
G75*
G02*
X126125000Y-98412500I0J250000D01*
G01*
X126125000Y-97612500D01*
G75*
G02*
X126375000Y-97362500I250000J0D01*
G01*
X127625000Y-97362500D01*
G75*
G02*
X127875000Y-97612500I0J-250000D01*
G01*
X127875000Y-98412500D01*
G75*
G02*
X127625000Y-98662500I-250000J0D01*
G01*
G37*
G36*
G01*
X144300000Y-103775000D02*
X144300000Y-105025000D01*
G75*
G02*
X144050000Y-105275000I-250000J0D01*
G01*
X143250000Y-105275000D01*
G75*
G02*
X143000000Y-105025000I0J250000D01*
G01*
X143000000Y-103775000D01*
G75*
G02*
X143250000Y-103525000I250000J0D01*
G01*
X144050000Y-103525000D01*
G75*
G02*
X144300000Y-103775000I0J-250000D01*
G01*
G37*
G36*
G01*
X147400000Y-103775000D02*
X147400000Y-105025000D01*
G75*
G02*
X147150000Y-105275000I-250000J0D01*
G01*
X146350000Y-105275000D01*
G75*
G02*
X146100000Y-105025000I0J250000D01*
G01*
X146100000Y-103775000D01*
G75*
G02*
X146350000Y-103525000I250000J0D01*
G01*
X147150000Y-103525000D01*
G75*
G02*
X147400000Y-103775000I0J-250000D01*
G01*
G37*
G36*
G01*
X161125000Y-77812500D02*
X159875000Y-77812500D01*
G75*
G02*
X159625000Y-77562500I0J250000D01*
G01*
X159625000Y-76762500D01*
G75*
G02*
X159875000Y-76512500I250000J0D01*
G01*
X161125000Y-76512500D01*
G75*
G02*
X161375000Y-76762500I0J-250000D01*
G01*
X161375000Y-77562500D01*
G75*
G02*
X161125000Y-77812500I-250000J0D01*
G01*
G37*
G36*
G01*
X161125000Y-80912500D02*
X159875000Y-80912500D01*
G75*
G02*
X159625000Y-80662500I0J250000D01*
G01*
X159625000Y-79862500D01*
G75*
G02*
X159875000Y-79612500I250000J0D01*
G01*
X161125000Y-79612500D01*
G75*
G02*
X161375000Y-79862500I0J-250000D01*
G01*
X161375000Y-80662500D01*
G75*
G02*
X161125000Y-80912500I-250000J0D01*
G01*
G37*
G36*
G01*
X168875000Y-80400000D02*
X170125000Y-80400000D01*
G75*
G02*
X170375000Y-80650000I0J-250000D01*
G01*
X170375000Y-81450000D01*
G75*
G02*
X170125000Y-81700000I-250000J0D01*
G01*
X168875000Y-81700000D01*
G75*
G02*
X168625000Y-81450000I0J250000D01*
G01*
X168625000Y-80650000D01*
G75*
G02*
X168875000Y-80400000I250000J0D01*
G01*
G37*
G36*
G01*
X168875000Y-77300000D02*
X170125000Y-77300000D01*
G75*
G02*
X170375000Y-77550000I0J-250000D01*
G01*
X170375000Y-78350000D01*
G75*
G02*
X170125000Y-78600000I-250000J0D01*
G01*
X168875000Y-78600000D01*
G75*
G02*
X168625000Y-78350000I0J250000D01*
G01*
X168625000Y-77550000D01*
G75*
G02*
X168875000Y-77300000I250000J0D01*
G01*
G37*
G36*
G01*
X160050000Y-83875000D02*
X160050000Y-82625000D01*
G75*
G02*
X160300000Y-82375000I250000J0D01*
G01*
X161100000Y-82375000D01*
G75*
G02*
X161350000Y-82625000I0J-250000D01*
G01*
X161350000Y-83875000D01*
G75*
G02*
X161100000Y-84125000I-250000J0D01*
G01*
X160300000Y-84125000D01*
G75*
G02*
X160050000Y-83875000I0J250000D01*
G01*
G37*
G36*
G01*
X156950000Y-83875000D02*
X156950000Y-82625000D01*
G75*
G02*
X157200000Y-82375000I250000J0D01*
G01*
X158000000Y-82375000D01*
G75*
G02*
X158250000Y-82625000I0J-250000D01*
G01*
X158250000Y-83875000D01*
G75*
G02*
X158000000Y-84125000I-250000J0D01*
G01*
X157200000Y-84125000D01*
G75*
G02*
X156950000Y-83875000I0J250000D01*
G01*
G37*
G36*
G01*
X168062500Y-101875000D02*
X168062500Y-103125000D01*
G75*
G02*
X167812500Y-103375000I-250000J0D01*
G01*
X167012500Y-103375000D01*
G75*
G02*
X166762500Y-103125000I0J250000D01*
G01*
X166762500Y-101875000D01*
G75*
G02*
X167012500Y-101625000I250000J0D01*
G01*
X167812500Y-101625000D01*
G75*
G02*
X168062500Y-101875000I0J-250000D01*
G01*
G37*
G36*
G01*
X171162500Y-101875000D02*
X171162500Y-103125000D01*
G75*
G02*
X170912500Y-103375000I-250000J0D01*
G01*
X170112500Y-103375000D01*
G75*
G02*
X169862500Y-103125000I0J250000D01*
G01*
X169862500Y-101875000D01*
G75*
G02*
X170112500Y-101625000I250000J0D01*
G01*
X170912500Y-101625000D01*
G75*
G02*
X171162500Y-101875000I0J-250000D01*
G01*
G37*
G36*
G01*
X144300000Y-106249999D02*
X144300000Y-107550001D01*
G75*
G02*
X144050001Y-107800000I-249999J0D01*
G01*
X143224999Y-107800000D01*
G75*
G02*
X142975000Y-107550001I0J249999D01*
G01*
X142975000Y-106249999D01*
G75*
G02*
X143224999Y-106000000I249999J0D01*
G01*
X144050001Y-106000000D01*
G75*
G02*
X144300000Y-106249999I0J-249999D01*
G01*
G37*
G36*
G01*
X147425000Y-106249999D02*
X147425000Y-107550001D01*
G75*
G02*
X147175001Y-107800000I-249999J0D01*
G01*
X146349999Y-107800000D01*
G75*
G02*
X146100000Y-107550001I0J249999D01*
G01*
X146100000Y-106249999D01*
G75*
G02*
X146349999Y-106000000I249999J0D01*
G01*
X147175001Y-106000000D01*
G75*
G02*
X147425000Y-106249999I0J-249999D01*
G01*
G37*
G36*
G01*
X133922500Y-65850001D02*
X133922500Y-64549999D01*
G75*
G02*
X134172499Y-64300000I249999J0D01*
G01*
X134997501Y-64300000D01*
G75*
G02*
X135247500Y-64549999I0J-249999D01*
G01*
X135247500Y-65850001D01*
G75*
G02*
X134997501Y-66100000I-249999J0D01*
G01*
X134172499Y-66100000D01*
G75*
G02*
X133922500Y-65850001I0J249999D01*
G01*
G37*
G36*
G01*
X130797500Y-65850001D02*
X130797500Y-64549999D01*
G75*
G02*
X131047499Y-64300000I249999J0D01*
G01*
X131872501Y-64300000D01*
G75*
G02*
X132122500Y-64549999I0J-249999D01*
G01*
X132122500Y-65850001D01*
G75*
G02*
X131872501Y-66100000I-249999J0D01*
G01*
X131047499Y-66100000D01*
G75*
G02*
X130797500Y-65850001I0J249999D01*
G01*
G37*
G36*
G01*
X133875000Y-61150001D02*
X133875000Y-59849999D01*
G75*
G02*
X134124999Y-59600000I249999J0D01*
G01*
X134950001Y-59600000D01*
G75*
G02*
X135200000Y-59849999I0J-249999D01*
G01*
X135200000Y-61150001D01*
G75*
G02*
X134950001Y-61400000I-249999J0D01*
G01*
X134124999Y-61400000D01*
G75*
G02*
X133875000Y-61150001I0J249999D01*
G01*
G37*
G36*
G01*
X130750000Y-61150001D02*
X130750000Y-59849999D01*
G75*
G02*
X130999999Y-59600000I249999J0D01*
G01*
X131825001Y-59600000D01*
G75*
G02*
X132075000Y-59849999I0J-249999D01*
G01*
X132075000Y-61150001D01*
G75*
G02*
X131825001Y-61400000I-249999J0D01*
G01*
X130999999Y-61400000D01*
G75*
G02*
X130750000Y-61150001I0J249999D01*
G01*
G37*
G36*
G01*
X123625000Y-112349999D02*
X123625000Y-113650001D01*
G75*
G02*
X123375001Y-113900000I-249999J0D01*
G01*
X122549999Y-113900000D01*
G75*
G02*
X122300000Y-113650001I0J249999D01*
G01*
X122300000Y-112349999D01*
G75*
G02*
X122549999Y-112100000I249999J0D01*
G01*
X123375001Y-112100000D01*
G75*
G02*
X123625000Y-112349999I0J-249999D01*
G01*
G37*
G36*
G01*
X126750000Y-112349999D02*
X126750000Y-113650001D01*
G75*
G02*
X126500001Y-113900000I-249999J0D01*
G01*
X125674999Y-113900000D01*
G75*
G02*
X125425000Y-113650001I0J249999D01*
G01*
X125425000Y-112349999D01*
G75*
G02*
X125674999Y-112100000I249999J0D01*
G01*
X126500001Y-112100000D01*
G75*
G02*
X126750000Y-112349999I0J-249999D01*
G01*
G37*
G36*
G01*
X126375000Y-79650001D02*
X126375000Y-78349999D01*
G75*
G02*
X126624999Y-78100000I249999J0D01*
G01*
X127450001Y-78100000D01*
G75*
G02*
X127700000Y-78349999I0J-249999D01*
G01*
X127700000Y-79650001D01*
G75*
G02*
X127450001Y-79900000I-249999J0D01*
G01*
X126624999Y-79900000D01*
G75*
G02*
X126375000Y-79650001I0J249999D01*
G01*
G37*
G36*
G01*
X123250000Y-79650001D02*
X123250000Y-78349999D01*
G75*
G02*
X123499999Y-78100000I249999J0D01*
G01*
X124325001Y-78100000D01*
G75*
G02*
X124575000Y-78349999I0J-249999D01*
G01*
X124575000Y-79650001D01*
G75*
G02*
X124325001Y-79900000I-249999J0D01*
G01*
X123499999Y-79900000D01*
G75*
G02*
X123250000Y-79650001I0J249999D01*
G01*
G37*
G36*
G01*
X127075000Y-89849999D02*
X127075000Y-91150001D01*
G75*
G02*
X126825001Y-91400000I-249999J0D01*
G01*
X125999999Y-91400000D01*
G75*
G02*
X125750000Y-91150001I0J249999D01*
G01*
X125750000Y-89849999D01*
G75*
G02*
X125999999Y-89600000I249999J0D01*
G01*
X126825001Y-89600000D01*
G75*
G02*
X127075000Y-89849999I0J-249999D01*
G01*
G37*
G36*
G01*
X130200000Y-89849999D02*
X130200000Y-91150001D01*
G75*
G02*
X129950001Y-91400000I-249999J0D01*
G01*
X129124999Y-91400000D01*
G75*
G02*
X128875000Y-91150001I0J249999D01*
G01*
X128875000Y-89849999D01*
G75*
G02*
X129124999Y-89600000I249999J0D01*
G01*
X129950001Y-89600000D01*
G75*
G02*
X130200000Y-89849999I0J-249999D01*
G01*
G37*
D13*
X143576060Y-98814609D03*
X148000000Y-100000000D03*
X152423940Y-81185391D03*
X148000000Y-80000000D03*
X138500000Y-92280000D03*
X138500000Y-87700000D03*
X157500000Y-87900000D03*
X157500000Y-92480000D03*
D14*
X160000000Y-70750000D03*
D15*
X161000000Y-74000000D03*
X159000000Y-74000000D03*
D13*
X164500000Y-76500000D03*
X129000000Y-106500000D03*
D16*
G36*
X165399398Y-80650000D02*
G01*
X165399398Y-80674534D01*
X165394588Y-80723365D01*
X165385016Y-80771490D01*
X165370772Y-80818445D01*
X165351995Y-80863778D01*
X165328864Y-80907051D01*
X165301604Y-80947850D01*
X165270476Y-80985779D01*
X165235779Y-81020476D01*
X165197850Y-81051604D01*
X165157051Y-81078864D01*
X165113778Y-81101995D01*
X165068445Y-81120772D01*
X165021490Y-81135016D01*
X164973365Y-81144588D01*
X164924534Y-81149398D01*
X164900000Y-81149398D01*
X164900000Y-81150000D01*
X164400000Y-81150000D01*
X164400000Y-81149398D01*
X164375466Y-81149398D01*
X164326635Y-81144588D01*
X164278510Y-81135016D01*
X164231555Y-81120772D01*
X164186222Y-81101995D01*
X164142949Y-81078864D01*
X164102150Y-81051604D01*
X164064221Y-81020476D01*
X164029524Y-80985779D01*
X163998396Y-80947850D01*
X163971136Y-80907051D01*
X163948005Y-80863778D01*
X163929228Y-80818445D01*
X163914984Y-80771490D01*
X163905412Y-80723365D01*
X163900602Y-80674534D01*
X163900602Y-80650000D01*
X163900000Y-80650000D01*
X163900000Y-80150000D01*
X165400000Y-80150000D01*
X165400000Y-80650000D01*
X165399398Y-80650000D01*
G37*
G36*
X163900000Y-79850000D02*
G01*
X163900000Y-79350000D01*
X163900602Y-79350000D01*
X163900602Y-79325466D01*
X163905412Y-79276635D01*
X163914984Y-79228510D01*
X163929228Y-79181555D01*
X163948005Y-79136222D01*
X163971136Y-79092949D01*
X163998396Y-79052150D01*
X164029524Y-79014221D01*
X164064221Y-78979524D01*
X164102150Y-78948396D01*
X164142949Y-78921136D01*
X164186222Y-78898005D01*
X164231555Y-78879228D01*
X164278510Y-78864984D01*
X164326635Y-78855412D01*
X164375466Y-78850602D01*
X164400000Y-78850602D01*
X164400000Y-78850000D01*
X164900000Y-78850000D01*
X164900000Y-78850602D01*
X164924534Y-78850602D01*
X164973365Y-78855412D01*
X165021490Y-78864984D01*
X165068445Y-78879228D01*
X165113778Y-78898005D01*
X165157051Y-78921136D01*
X165197850Y-78948396D01*
X165235779Y-78979524D01*
X165270476Y-79014221D01*
X165301604Y-79052150D01*
X165328864Y-79092949D01*
X165351995Y-79136222D01*
X165370772Y-79181555D01*
X165385016Y-79228510D01*
X165394588Y-79276635D01*
X165399398Y-79325466D01*
X165399398Y-79350000D01*
X165400000Y-79350000D01*
X165400000Y-79850000D01*
X163900000Y-79850000D01*
G37*
G36*
X152750602Y-105350000D02*
G01*
X152750602Y-105325466D01*
X152755412Y-105276635D01*
X152764984Y-105228510D01*
X152779228Y-105181555D01*
X152798005Y-105136222D01*
X152821136Y-105092949D01*
X152848396Y-105052150D01*
X152879524Y-105014221D01*
X152914221Y-104979524D01*
X152952150Y-104948396D01*
X152992949Y-104921136D01*
X153036222Y-104898005D01*
X153081555Y-104879228D01*
X153128510Y-104864984D01*
X153176635Y-104855412D01*
X153225466Y-104850602D01*
X153250000Y-104850602D01*
X153250000Y-104850000D01*
X153750000Y-104850000D01*
X153750000Y-104850602D01*
X153774534Y-104850602D01*
X153823365Y-104855412D01*
X153871490Y-104864984D01*
X153918445Y-104879228D01*
X153963778Y-104898005D01*
X154007051Y-104921136D01*
X154047850Y-104948396D01*
X154085779Y-104979524D01*
X154120476Y-105014221D01*
X154151604Y-105052150D01*
X154178864Y-105092949D01*
X154201995Y-105136222D01*
X154220772Y-105181555D01*
X154235016Y-105228510D01*
X154244588Y-105276635D01*
X154249398Y-105325466D01*
X154249398Y-105350000D01*
X154250000Y-105350000D01*
X154250000Y-105850000D01*
X152750000Y-105850000D01*
X152750000Y-105350000D01*
X152750602Y-105350000D01*
G37*
G36*
X154250000Y-106150000D02*
G01*
X154250000Y-106650000D01*
X154249398Y-106650000D01*
X154249398Y-106674534D01*
X154244588Y-106723365D01*
X154235016Y-106771490D01*
X154220772Y-106818445D01*
X154201995Y-106863778D01*
X154178864Y-106907051D01*
X154151604Y-106947850D01*
X154120476Y-106985779D01*
X154085779Y-107020476D01*
X154047850Y-107051604D01*
X154007051Y-107078864D01*
X153963778Y-107101995D01*
X153918445Y-107120772D01*
X153871490Y-107135016D01*
X153823365Y-107144588D01*
X153774534Y-107149398D01*
X153750000Y-107149398D01*
X153750000Y-107150000D01*
X153250000Y-107150000D01*
X153250000Y-107149398D01*
X153225466Y-107149398D01*
X153176635Y-107144588D01*
X153128510Y-107135016D01*
X153081555Y-107120772D01*
X153036222Y-107101995D01*
X152992949Y-107078864D01*
X152952150Y-107051604D01*
X152914221Y-107020476D01*
X152879524Y-106985779D01*
X152848396Y-106947850D01*
X152821136Y-106907051D01*
X152798005Y-106863778D01*
X152779228Y-106818445D01*
X152764984Y-106771490D01*
X152755412Y-106723365D01*
X152750602Y-106674534D01*
X152750602Y-106650000D01*
X152750000Y-106650000D01*
X152750000Y-106150000D01*
X154250000Y-106150000D01*
G37*
G36*
X142750602Y-111350000D02*
G01*
X142750602Y-111325466D01*
X142755412Y-111276635D01*
X142764984Y-111228510D01*
X142779228Y-111181555D01*
X142798005Y-111136222D01*
X142821136Y-111092949D01*
X142848396Y-111052150D01*
X142879524Y-111014221D01*
X142914221Y-110979524D01*
X142952150Y-110948396D01*
X142992949Y-110921136D01*
X143036222Y-110898005D01*
X143081555Y-110879228D01*
X143128510Y-110864984D01*
X143176635Y-110855412D01*
X143225466Y-110850602D01*
X143250000Y-110850602D01*
X143250000Y-110850000D01*
X143750000Y-110850000D01*
X143750000Y-110850602D01*
X143774534Y-110850602D01*
X143823365Y-110855412D01*
X143871490Y-110864984D01*
X143918445Y-110879228D01*
X143963778Y-110898005D01*
X144007051Y-110921136D01*
X144047850Y-110948396D01*
X144085779Y-110979524D01*
X144120476Y-111014221D01*
X144151604Y-111052150D01*
X144178864Y-111092949D01*
X144201995Y-111136222D01*
X144220772Y-111181555D01*
X144235016Y-111228510D01*
X144244588Y-111276635D01*
X144249398Y-111325466D01*
X144249398Y-111350000D01*
X144250000Y-111350000D01*
X144250000Y-111850000D01*
X142750000Y-111850000D01*
X142750000Y-111350000D01*
X142750602Y-111350000D01*
G37*
G36*
X144250000Y-112150000D02*
G01*
X144250000Y-112650000D01*
X144249398Y-112650000D01*
X144249398Y-112674534D01*
X144244588Y-112723365D01*
X144235016Y-112771490D01*
X144220772Y-112818445D01*
X144201995Y-112863778D01*
X144178864Y-112907051D01*
X144151604Y-112947850D01*
X144120476Y-112985779D01*
X144085779Y-113020476D01*
X144047850Y-113051604D01*
X144007051Y-113078864D01*
X143963778Y-113101995D01*
X143918445Y-113120772D01*
X143871490Y-113135016D01*
X143823365Y-113144588D01*
X143774534Y-113149398D01*
X143750000Y-113149398D01*
X143750000Y-113150000D01*
X143250000Y-113150000D01*
X143250000Y-113149398D01*
X143225466Y-113149398D01*
X143176635Y-113144588D01*
X143128510Y-113135016D01*
X143081555Y-113120772D01*
X143036222Y-113101995D01*
X142992949Y-113078864D01*
X142952150Y-113051604D01*
X142914221Y-113020476D01*
X142879524Y-112985779D01*
X142848396Y-112947850D01*
X142821136Y-112907051D01*
X142798005Y-112863778D01*
X142779228Y-112818445D01*
X142764984Y-112771490D01*
X142755412Y-112723365D01*
X142750602Y-112674534D01*
X142750602Y-112650000D01*
X142750000Y-112650000D01*
X142750000Y-112150000D01*
X144250000Y-112150000D01*
G37*
D17*
X149440000Y-56500000D03*
X146900000Y-56500000D03*
X144360000Y-56500000D03*
X141820000Y-56500000D03*
X139280000Y-56500000D03*
X136740000Y-56500000D03*
X134200000Y-56500000D03*
X131660000Y-56500000D03*
X129120000Y-56500000D03*
X126580000Y-56500000D03*
X124040000Y-56500000D03*
D18*
X121500000Y-56500000D03*
G36*
G01*
X163340000Y-85487500D02*
X163040000Y-85487500D01*
G75*
G02*
X162890000Y-85337500I0J150000D01*
G01*
X162890000Y-83662500D01*
G75*
G02*
X163040000Y-83512500I150000J0D01*
G01*
X163340000Y-83512500D01*
G75*
G02*
X163490000Y-83662500I0J-150000D01*
G01*
X163490000Y-85337500D01*
G75*
G02*
X163340000Y-85487500I-150000J0D01*
G01*
G37*
G36*
G01*
X164610000Y-85487500D02*
X164310000Y-85487500D01*
G75*
G02*
X164160000Y-85337500I0J150000D01*
G01*
X164160000Y-83662500D01*
G75*
G02*
X164310000Y-83512500I150000J0D01*
G01*
X164610000Y-83512500D01*
G75*
G02*
X164760000Y-83662500I0J-150000D01*
G01*
X164760000Y-85337500D01*
G75*
G02*
X164610000Y-85487500I-150000J0D01*
G01*
G37*
G36*
G01*
X165880000Y-85487500D02*
X165580000Y-85487500D01*
G75*
G02*
X165430000Y-85337500I0J150000D01*
G01*
X165430000Y-83662500D01*
G75*
G02*
X165580000Y-83512500I150000J0D01*
G01*
X165880000Y-83512500D01*
G75*
G02*
X166030000Y-83662500I0J-150000D01*
G01*
X166030000Y-85337500D01*
G75*
G02*
X165880000Y-85487500I-150000J0D01*
G01*
G37*
G36*
G01*
X167150000Y-85487500D02*
X166850000Y-85487500D01*
G75*
G02*
X166700000Y-85337500I0J150000D01*
G01*
X166700000Y-83662500D01*
G75*
G02*
X166850000Y-83512500I150000J0D01*
G01*
X167150000Y-83512500D01*
G75*
G02*
X167300000Y-83662500I0J-150000D01*
G01*
X167300000Y-85337500D01*
G75*
G02*
X167150000Y-85487500I-150000J0D01*
G01*
G37*
G36*
G01*
X168420000Y-85487500D02*
X168120000Y-85487500D01*
G75*
G02*
X167970000Y-85337500I0J150000D01*
G01*
X167970000Y-83662500D01*
G75*
G02*
X168120000Y-83512500I150000J0D01*
G01*
X168420000Y-83512500D01*
G75*
G02*
X168570000Y-83662500I0J-150000D01*
G01*
X168570000Y-85337500D01*
G75*
G02*
X168420000Y-85487500I-150000J0D01*
G01*
G37*
G36*
G01*
X169690000Y-85487500D02*
X169390000Y-85487500D01*
G75*
G02*
X169240000Y-85337500I0J150000D01*
G01*
X169240000Y-83662500D01*
G75*
G02*
X169390000Y-83512500I150000J0D01*
G01*
X169690000Y-83512500D01*
G75*
G02*
X169840000Y-83662500I0J-150000D01*
G01*
X169840000Y-85337500D01*
G75*
G02*
X169690000Y-85487500I-150000J0D01*
G01*
G37*
G36*
G01*
X170960000Y-85487500D02*
X170660000Y-85487500D01*
G75*
G02*
X170510000Y-85337500I0J150000D01*
G01*
X170510000Y-83662500D01*
G75*
G02*
X170660000Y-83512500I150000J0D01*
G01*
X170960000Y-83512500D01*
G75*
G02*
X171110000Y-83662500I0J-150000D01*
G01*
X171110000Y-85337500D01*
G75*
G02*
X170960000Y-85487500I-150000J0D01*
G01*
G37*
G36*
G01*
X170960000Y-92412500D02*
X170660000Y-92412500D01*
G75*
G02*
X170510000Y-92262500I0J150000D01*
G01*
X170510000Y-90587500D01*
G75*
G02*
X170660000Y-90437500I150000J0D01*
G01*
X170960000Y-90437500D01*
G75*
G02*
X171110000Y-90587500I0J-150000D01*
G01*
X171110000Y-92262500D01*
G75*
G02*
X170960000Y-92412500I-150000J0D01*
G01*
G37*
G36*
G01*
X169690000Y-92412500D02*
X169390000Y-92412500D01*
G75*
G02*
X169240000Y-92262500I0J150000D01*
G01*
X169240000Y-90587500D01*
G75*
G02*
X169390000Y-90437500I150000J0D01*
G01*
X169690000Y-90437500D01*
G75*
G02*
X169840000Y-90587500I0J-150000D01*
G01*
X169840000Y-92262500D01*
G75*
G02*
X169690000Y-92412500I-150000J0D01*
G01*
G37*
G36*
G01*
X168420000Y-92412500D02*
X168120000Y-92412500D01*
G75*
G02*
X167970000Y-92262500I0J150000D01*
G01*
X167970000Y-90587500D01*
G75*
G02*
X168120000Y-90437500I150000J0D01*
G01*
X168420000Y-90437500D01*
G75*
G02*
X168570000Y-90587500I0J-150000D01*
G01*
X168570000Y-92262500D01*
G75*
G02*
X168420000Y-92412500I-150000J0D01*
G01*
G37*
G36*
G01*
X167150000Y-92412500D02*
X166850000Y-92412500D01*
G75*
G02*
X166700000Y-92262500I0J150000D01*
G01*
X166700000Y-90587500D01*
G75*
G02*
X166850000Y-90437500I150000J0D01*
G01*
X167150000Y-90437500D01*
G75*
G02*
X167300000Y-90587500I0J-150000D01*
G01*
X167300000Y-92262500D01*
G75*
G02*
X167150000Y-92412500I-150000J0D01*
G01*
G37*
G36*
G01*
X165880000Y-92412500D02*
X165580000Y-92412500D01*
G75*
G02*
X165430000Y-92262500I0J150000D01*
G01*
X165430000Y-90587500D01*
G75*
G02*
X165580000Y-90437500I150000J0D01*
G01*
X165880000Y-90437500D01*
G75*
G02*
X166030000Y-90587500I0J-150000D01*
G01*
X166030000Y-92262500D01*
G75*
G02*
X165880000Y-92412500I-150000J0D01*
G01*
G37*
G36*
G01*
X164610000Y-92412500D02*
X164310000Y-92412500D01*
G75*
G02*
X164160000Y-92262500I0J150000D01*
G01*
X164160000Y-90587500D01*
G75*
G02*
X164310000Y-90437500I150000J0D01*
G01*
X164610000Y-90437500D01*
G75*
G02*
X164760000Y-90587500I0J-150000D01*
G01*
X164760000Y-92262500D01*
G75*
G02*
X164610000Y-92412500I-150000J0D01*
G01*
G37*
G36*
G01*
X163340000Y-92412500D02*
X163040000Y-92412500D01*
G75*
G02*
X162890000Y-92262500I0J150000D01*
G01*
X162890000Y-90587500D01*
G75*
G02*
X163040000Y-90437500I150000J0D01*
G01*
X163340000Y-90437500D01*
G75*
G02*
X163490000Y-90587500I0J-150000D01*
G01*
X163490000Y-92262500D01*
G75*
G02*
X163340000Y-92412500I-150000J0D01*
G01*
G37*
G36*
G01*
X138437500Y-103760000D02*
X138437500Y-103460000D01*
G75*
G02*
X138587500Y-103310000I150000J0D01*
G01*
X140262500Y-103310000D01*
G75*
G02*
X140412500Y-103460000I0J-150000D01*
G01*
X140412500Y-103760000D01*
G75*
G02*
X140262500Y-103910000I-150000J0D01*
G01*
X138587500Y-103910000D01*
G75*
G02*
X138437500Y-103760000I0J150000D01*
G01*
G37*
G36*
G01*
X138437500Y-105030000D02*
X138437500Y-104730000D01*
G75*
G02*
X138587500Y-104580000I150000J0D01*
G01*
X140262500Y-104580000D01*
G75*
G02*
X140412500Y-104730000I0J-150000D01*
G01*
X140412500Y-105030000D01*
G75*
G02*
X140262500Y-105180000I-150000J0D01*
G01*
X138587500Y-105180000D01*
G75*
G02*
X138437500Y-105030000I0J150000D01*
G01*
G37*
G36*
G01*
X138437500Y-106300000D02*
X138437500Y-106000000D01*
G75*
G02*
X138587500Y-105850000I150000J0D01*
G01*
X140262500Y-105850000D01*
G75*
G02*
X140412500Y-106000000I0J-150000D01*
G01*
X140412500Y-106300000D01*
G75*
G02*
X140262500Y-106450000I-150000J0D01*
G01*
X138587500Y-106450000D01*
G75*
G02*
X138437500Y-106300000I0J150000D01*
G01*
G37*
G36*
G01*
X138437500Y-107570000D02*
X138437500Y-107270000D01*
G75*
G02*
X138587500Y-107120000I150000J0D01*
G01*
X140262500Y-107120000D01*
G75*
G02*
X140412500Y-107270000I0J-150000D01*
G01*
X140412500Y-107570000D01*
G75*
G02*
X140262500Y-107720000I-150000J0D01*
G01*
X138587500Y-107720000D01*
G75*
G02*
X138437500Y-107570000I0J150000D01*
G01*
G37*
G36*
G01*
X138437500Y-108840000D02*
X138437500Y-108540000D01*
G75*
G02*
X138587500Y-108390000I150000J0D01*
G01*
X140262500Y-108390000D01*
G75*
G02*
X140412500Y-108540000I0J-150000D01*
G01*
X140412500Y-108840000D01*
G75*
G02*
X140262500Y-108990000I-150000J0D01*
G01*
X138587500Y-108990000D01*
G75*
G02*
X138437500Y-108840000I0J150000D01*
G01*
G37*
G36*
G01*
X138437500Y-110110000D02*
X138437500Y-109810000D01*
G75*
G02*
X138587500Y-109660000I150000J0D01*
G01*
X140262500Y-109660000D01*
G75*
G02*
X140412500Y-109810000I0J-150000D01*
G01*
X140412500Y-110110000D01*
G75*
G02*
X140262500Y-110260000I-150000J0D01*
G01*
X138587500Y-110260000D01*
G75*
G02*
X138437500Y-110110000I0J150000D01*
G01*
G37*
G36*
G01*
X138437500Y-111380000D02*
X138437500Y-111080000D01*
G75*
G02*
X138587500Y-110930000I150000J0D01*
G01*
X140262500Y-110930000D01*
G75*
G02*
X140412500Y-111080000I0J-150000D01*
G01*
X140412500Y-111380000D01*
G75*
G02*
X140262500Y-111530000I-150000J0D01*
G01*
X138587500Y-111530000D01*
G75*
G02*
X138437500Y-111380000I0J150000D01*
G01*
G37*
G36*
G01*
X138437500Y-112650000D02*
X138437500Y-112350000D01*
G75*
G02*
X138587500Y-112200000I150000J0D01*
G01*
X140262500Y-112200000D01*
G75*
G02*
X140412500Y-112350000I0J-150000D01*
G01*
X140412500Y-112650000D01*
G75*
G02*
X140262500Y-112800000I-150000J0D01*
G01*
X138587500Y-112800000D01*
G75*
G02*
X138437500Y-112650000I0J150000D01*
G01*
G37*
G36*
G01*
X131512500Y-112650000D02*
X131512500Y-112350000D01*
G75*
G02*
X131662500Y-112200000I150000J0D01*
G01*
X133337500Y-112200000D01*
G75*
G02*
X133487500Y-112350000I0J-150000D01*
G01*
X133487500Y-112650000D01*
G75*
G02*
X133337500Y-112800000I-150000J0D01*
G01*
X131662500Y-112800000D01*
G75*
G02*
X131512500Y-112650000I0J150000D01*
G01*
G37*
G36*
G01*
X131512500Y-111380000D02*
X131512500Y-111080000D01*
G75*
G02*
X131662500Y-110930000I150000J0D01*
G01*
X133337500Y-110930000D01*
G75*
G02*
X133487500Y-111080000I0J-150000D01*
G01*
X133487500Y-111380000D01*
G75*
G02*
X133337500Y-111530000I-150000J0D01*
G01*
X131662500Y-111530000D01*
G75*
G02*
X131512500Y-111380000I0J150000D01*
G01*
G37*
G36*
G01*
X131512500Y-110110000D02*
X131512500Y-109810000D01*
G75*
G02*
X131662500Y-109660000I150000J0D01*
G01*
X133337500Y-109660000D01*
G75*
G02*
X133487500Y-109810000I0J-150000D01*
G01*
X133487500Y-110110000D01*
G75*
G02*
X133337500Y-110260000I-150000J0D01*
G01*
X131662500Y-110260000D01*
G75*
G02*
X131512500Y-110110000I0J150000D01*
G01*
G37*
G36*
G01*
X131512500Y-108840000D02*
X131512500Y-108540000D01*
G75*
G02*
X131662500Y-108390000I150000J0D01*
G01*
X133337500Y-108390000D01*
G75*
G02*
X133487500Y-108540000I0J-150000D01*
G01*
X133487500Y-108840000D01*
G75*
G02*
X133337500Y-108990000I-150000J0D01*
G01*
X131662500Y-108990000D01*
G75*
G02*
X131512500Y-108840000I0J150000D01*
G01*
G37*
G36*
G01*
X131512500Y-107570000D02*
X131512500Y-107270000D01*
G75*
G02*
X131662500Y-107120000I150000J0D01*
G01*
X133337500Y-107120000D01*
G75*
G02*
X133487500Y-107270000I0J-150000D01*
G01*
X133487500Y-107570000D01*
G75*
G02*
X133337500Y-107720000I-150000J0D01*
G01*
X131662500Y-107720000D01*
G75*
G02*
X131512500Y-107570000I0J150000D01*
G01*
G37*
G36*
G01*
X131512500Y-106300000D02*
X131512500Y-106000000D01*
G75*
G02*
X131662500Y-105850000I150000J0D01*
G01*
X133337500Y-105850000D01*
G75*
G02*
X133487500Y-106000000I0J-150000D01*
G01*
X133487500Y-106300000D01*
G75*
G02*
X133337500Y-106450000I-150000J0D01*
G01*
X131662500Y-106450000D01*
G75*
G02*
X131512500Y-106300000I0J150000D01*
G01*
G37*
G36*
G01*
X131512500Y-105030000D02*
X131512500Y-104730000D01*
G75*
G02*
X131662500Y-104580000I150000J0D01*
G01*
X133337500Y-104580000D01*
G75*
G02*
X133487500Y-104730000I0J-150000D01*
G01*
X133487500Y-105030000D01*
G75*
G02*
X133337500Y-105180000I-150000J0D01*
G01*
X131662500Y-105180000D01*
G75*
G02*
X131512500Y-105030000I0J150000D01*
G01*
G37*
G36*
G01*
X131512500Y-103760000D02*
X131512500Y-103460000D01*
G75*
G02*
X131662500Y-103310000I150000J0D01*
G01*
X133337500Y-103310000D01*
G75*
G02*
X133487500Y-103460000I0J-150000D01*
G01*
X133487500Y-103760000D01*
G75*
G02*
X133337500Y-103910000I-150000J0D01*
G01*
X131662500Y-103910000D01*
G75*
G02*
X131512500Y-103760000I0J150000D01*
G01*
G37*
G36*
G01*
X133242641Y-71818019D02*
X133242641Y-71818019D01*
G75*
G02*
X132358757Y-71818019I-441942J441942D01*
G01*
X132181981Y-71641243D01*
G75*
G02*
X132181981Y-70757359I441942J441942D01*
G01*
X132181981Y-70757359D01*
G75*
G02*
X133065865Y-70757359I441942J-441942D01*
G01*
X133242641Y-70934135D01*
G75*
G02*
X133242641Y-71818019I-441942J-441942D01*
G01*
G37*
G36*
G01*
X132005204Y-73055456D02*
X132005204Y-73055456D01*
G75*
G02*
X131121320Y-73055456I-441942J441942D01*
G01*
X130944544Y-72878680D01*
G75*
G02*
X130944544Y-71994796I441942J441942D01*
G01*
X130944544Y-71994796D01*
G75*
G02*
X131828428Y-71994796I441942J-441942D01*
G01*
X132005204Y-72171572D01*
G75*
G02*
X132005204Y-73055456I-441942J-441942D01*
G01*
G37*
G36*
G01*
X130767767Y-74292893D02*
X130767767Y-74292893D01*
G75*
G02*
X129883883Y-74292893I-441942J441942D01*
G01*
X129707107Y-74116117D01*
G75*
G02*
X129707107Y-73232233I441942J441942D01*
G01*
X129707107Y-73232233D01*
G75*
G02*
X130590991Y-73232233I441942J-441942D01*
G01*
X130767767Y-73409009D01*
G75*
G02*
X130767767Y-74292893I-441942J-441942D01*
G01*
G37*
D16*
G36*
X129972272Y-75088388D02*
G01*
X129088388Y-75972272D01*
X128027728Y-74911612D01*
X128911612Y-74027728D01*
X129972272Y-75088388D01*
G37*
G36*
G01*
X141075079Y-67460984D02*
X141075079Y-67460984D01*
G75*
G02*
X140244501Y-67158678I-264136J566442D01*
G01*
X140138847Y-66932102D01*
G75*
G02*
X140441153Y-66101524I566442J264136D01*
G01*
X140441153Y-66101524D01*
G75*
G02*
X141271731Y-66403830I264136J-566442D01*
G01*
X141377385Y-66630406D01*
G75*
G02*
X141075079Y-67460984I-566442J-264136D01*
G01*
G37*
G36*
G01*
X139489040Y-68200566D02*
X139489040Y-68200566D01*
G75*
G02*
X138658462Y-67898260I-264136J566442D01*
G01*
X138552808Y-67671684D01*
G75*
G02*
X138855114Y-66841106I566442J264136D01*
G01*
X138855114Y-66841106D01*
G75*
G02*
X139685692Y-67143412I264136J-566442D01*
G01*
X139791346Y-67369988D01*
G75*
G02*
X139489040Y-68200566I-566442J-264136D01*
G01*
G37*
G36*
G01*
X137903002Y-68940148D02*
X137903002Y-68940148D01*
G75*
G02*
X137072424Y-68637842I-264136J566442D01*
G01*
X136966770Y-68411266D01*
G75*
G02*
X137269076Y-67580688I566442J264136D01*
G01*
X137269076Y-67580688D01*
G75*
G02*
X138099654Y-67882994I264136J-566442D01*
G01*
X138205308Y-68109570D01*
G75*
G02*
X137903002Y-68940148I-566442J-264136D01*
G01*
G37*
G36*
X136883406Y-69415594D02*
G01*
X135750521Y-69943867D01*
X135116594Y-68584406D01*
X136249479Y-68056133D01*
X136883406Y-69415594D01*
G37*
G36*
G01*
X130700000Y-82950000D02*
X130700000Y-84050000D01*
G75*
G02*
X130450000Y-84300000I-250000J0D01*
G01*
X128350000Y-84300000D01*
G75*
G02*
X128100000Y-84050000I0J250000D01*
G01*
X128100000Y-82950000D01*
G75*
G02*
X128350000Y-82700000I250000J0D01*
G01*
X130450000Y-82700000D01*
G75*
G02*
X130700000Y-82950000I0J-250000D01*
G01*
G37*
G36*
G01*
X134300000Y-82950000D02*
X134300000Y-84050000D01*
G75*
G02*
X134050000Y-84300000I-250000J0D01*
G01*
X131950000Y-84300000D01*
G75*
G02*
X131700000Y-84050000I0J250000D01*
G01*
X131700000Y-82950000D01*
G75*
G02*
X131950000Y-82700000I250000J0D01*
G01*
X134050000Y-82700000D01*
G75*
G02*
X134300000Y-82950000I0J-250000D01*
G01*
G37*
G36*
G01*
X148800000Y-72050000D02*
X148800000Y-70950000D01*
G75*
G02*
X149050000Y-70700000I250000J0D01*
G01*
X151150000Y-70700000D01*
G75*
G02*
X151400000Y-70950000I0J-250000D01*
G01*
X151400000Y-72050000D01*
G75*
G02*
X151150000Y-72300000I-250000J0D01*
G01*
X149050000Y-72300000D01*
G75*
G02*
X148800000Y-72050000I0J250000D01*
G01*
G37*
G36*
G01*
X145200000Y-72050000D02*
X145200000Y-70950000D01*
G75*
G02*
X145450000Y-70700000I250000J0D01*
G01*
X147550000Y-70700000D01*
G75*
G02*
X147800000Y-70950000I0J-250000D01*
G01*
X147800000Y-72050000D01*
G75*
G02*
X147550000Y-72300000I-250000J0D01*
G01*
X145450000Y-72300000D01*
G75*
G02*
X145200000Y-72050000I0J250000D01*
G01*
G37*
G36*
G01*
X123550000Y-64000000D02*
X122450000Y-64000000D01*
G75*
G02*
X122200000Y-63750000I0J250000D01*
G01*
X122200000Y-61650000D01*
G75*
G02*
X122450000Y-61400000I250000J0D01*
G01*
X123550000Y-61400000D01*
G75*
G02*
X123800000Y-61650000I0J-250000D01*
G01*
X123800000Y-63750000D01*
G75*
G02*
X123550000Y-64000000I-250000J0D01*
G01*
G37*
G36*
G01*
X123550000Y-67600000D02*
X122450000Y-67600000D01*
G75*
G02*
X122200000Y-67350000I0J250000D01*
G01*
X122200000Y-65250000D01*
G75*
G02*
X122450000Y-65000000I250000J0D01*
G01*
X123550000Y-65000000D01*
G75*
G02*
X123800000Y-65250000I0J-250000D01*
G01*
X123800000Y-67350000D01*
G75*
G02*
X123550000Y-67600000I-250000J0D01*
G01*
G37*
G36*
G01*
X140300000Y-75750000D02*
X140300000Y-74650000D01*
G75*
G02*
X140550000Y-74400000I250000J0D01*
G01*
X142650000Y-74400000D01*
G75*
G02*
X142900000Y-74650000I0J-250000D01*
G01*
X142900000Y-75750000D01*
G75*
G02*
X142650000Y-76000000I-250000J0D01*
G01*
X140550000Y-76000000D01*
G75*
G02*
X140300000Y-75750000I0J250000D01*
G01*
G37*
G36*
G01*
X136700000Y-75750000D02*
X136700000Y-74650000D01*
G75*
G02*
X136950000Y-74400000I250000J0D01*
G01*
X139050000Y-74400000D01*
G75*
G02*
X139300000Y-74650000I0J-250000D01*
G01*
X139300000Y-75750000D01*
G75*
G02*
X139050000Y-76000000I-250000J0D01*
G01*
X136950000Y-76000000D01*
G75*
G02*
X136700000Y-75750000I0J250000D01*
G01*
G37*
G36*
G01*
X126350000Y-71600000D02*
X125250000Y-71600000D01*
G75*
G02*
X125000000Y-71350000I0J250000D01*
G01*
X125000000Y-69250000D01*
G75*
G02*
X125250000Y-69000000I250000J0D01*
G01*
X126350000Y-69000000D01*
G75*
G02*
X126600000Y-69250000I0J-250000D01*
G01*
X126600000Y-71350000D01*
G75*
G02*
X126350000Y-71600000I-250000J0D01*
G01*
G37*
G36*
G01*
X126350000Y-75200000D02*
X125250000Y-75200000D01*
G75*
G02*
X125000000Y-74950000I0J250000D01*
G01*
X125000000Y-72850000D01*
G75*
G02*
X125250000Y-72600000I250000J0D01*
G01*
X126350000Y-72600000D01*
G75*
G02*
X126600000Y-72850000I0J-250000D01*
G01*
X126600000Y-74950000D01*
G75*
G02*
X126350000Y-75200000I-250000J0D01*
G01*
G37*
G36*
G01*
X123550000Y-96500000D02*
X122450000Y-96500000D01*
G75*
G02*
X122200000Y-96250000I0J250000D01*
G01*
X122200000Y-94150000D01*
G75*
G02*
X122450000Y-93900000I250000J0D01*
G01*
X123550000Y-93900000D01*
G75*
G02*
X123800000Y-94150000I0J-250000D01*
G01*
X123800000Y-96250000D01*
G75*
G02*
X123550000Y-96500000I-250000J0D01*
G01*
G37*
G36*
G01*
X123550000Y-100100000D02*
X122450000Y-100100000D01*
G75*
G02*
X122200000Y-99850000I0J250000D01*
G01*
X122200000Y-97750000D01*
G75*
G02*
X122450000Y-97500000I250000J0D01*
G01*
X123550000Y-97500000D01*
G75*
G02*
X123800000Y-97750000I0J-250000D01*
G01*
X123800000Y-99850000D01*
G75*
G02*
X123550000Y-100100000I-250000J0D01*
G01*
G37*
G36*
G01*
X123750000Y-86150000D02*
X122650000Y-86150000D01*
G75*
G02*
X122400000Y-85900000I0J250000D01*
G01*
X122400000Y-83800000D01*
G75*
G02*
X122650000Y-83550000I250000J0D01*
G01*
X123750000Y-83550000D01*
G75*
G02*
X124000000Y-83800000I0J-250000D01*
G01*
X124000000Y-85900000D01*
G75*
G02*
X123750000Y-86150000I-250000J0D01*
G01*
G37*
G36*
G01*
X123750000Y-89750000D02*
X122650000Y-89750000D01*
G75*
G02*
X122400000Y-89500000I0J250000D01*
G01*
X122400000Y-87400000D01*
G75*
G02*
X122650000Y-87150000I250000J0D01*
G01*
X123750000Y-87150000D01*
G75*
G02*
X124000000Y-87400000I0J-250000D01*
G01*
X124000000Y-89500000D01*
G75*
G02*
X123750000Y-89750000I-250000J0D01*
G01*
G37*
D19*
X148000000Y-115000000D03*
X148000000Y-110000000D03*
X163000000Y-98000000D03*
X163000000Y-102500000D03*
M02*
