G04 #@! TF.GenerationSoftware,KiCad,Pcbnew,5.1.10-88a1d61d58~88~ubuntu18.04.1*
G04 #@! TF.CreationDate,2024-08-15T14:25:57-04:00*
G04 #@! TF.ProjectId,238-capstan,3233382d-6361-4707-9374-616e2e6b6963,rev?*
G04 #@! TF.SameCoordinates,Original*
G04 #@! TF.FileFunction,Legend,Top*
G04 #@! TF.FilePolarity,Positive*
%FSLAX46Y46*%
G04 Gerber Fmt 4.6, Leading zero omitted, Abs format (unit mm)*
G04 Created by KiCad (PCBNEW 5.1.10-88a1d61d58~88~ubuntu18.04.1) date 2024-08-15 14:25:57*
%MOMM*%
%LPD*%
G01*
G04 APERTURE LIST*
%ADD10C,0.150000*%
%ADD11C,0.120000*%
%ADD12O,2.500000X2.000000*%
%ADD13R,1.300000X1.700000*%
%ADD14C,4.500000*%
%ADD15C,2.500000*%
%ADD16R,1.600000X2.300000*%
%ADD17R,1.200000X1.800000*%
%ADD18C,0.100000*%
%ADD19O,1.700000X2.100000*%
%ADD20R,1.700000X2.100000*%
%ADD21R,2.500000X2.500000*%
G04 APERTURE END LIST*
D10*
X172390476Y-83385714D02*
X172390476Y-84052380D01*
X172152380Y-83004761D02*
X171914285Y-83719047D01*
X172533333Y-83719047D01*
X171966666Y-85552380D02*
X172585714Y-85552380D01*
X172252380Y-85933333D01*
X172395238Y-85933333D01*
X172490476Y-85980952D01*
X172538095Y-86028571D01*
X172585714Y-86123809D01*
X172585714Y-86361904D01*
X172538095Y-86457142D01*
X172490476Y-86504761D01*
X172395238Y-86552380D01*
X172109523Y-86552380D01*
X172014285Y-86504761D01*
X171966666Y-86457142D01*
X172014285Y-88247619D02*
X172061904Y-88200000D01*
X172157142Y-88152380D01*
X172395238Y-88152380D01*
X172490476Y-88200000D01*
X172538095Y-88247619D01*
X172585714Y-88342857D01*
X172585714Y-88438095D01*
X172538095Y-88580952D01*
X171966666Y-89152380D01*
X172585714Y-89152380D01*
X172585714Y-91652380D02*
X172014285Y-91652380D01*
X172300000Y-91652380D02*
X172300000Y-90652380D01*
X172204761Y-90795238D01*
X172109523Y-90890476D01*
X172014285Y-90938095D01*
X128469047Y-52377380D02*
X128469047Y-51377380D01*
X128469047Y-52329761D02*
X128373809Y-52377380D01*
X128183333Y-52377380D01*
X128088095Y-52329761D01*
X128040476Y-52282142D01*
X127992857Y-52186904D01*
X127992857Y-51901190D01*
X128040476Y-51805952D01*
X128088095Y-51758333D01*
X128183333Y-51710714D01*
X128373809Y-51710714D01*
X128469047Y-51758333D01*
X129326190Y-52329761D02*
X129230952Y-52377380D01*
X129040476Y-52377380D01*
X128945238Y-52329761D01*
X128897619Y-52234523D01*
X128897619Y-51853571D01*
X128945238Y-51758333D01*
X129040476Y-51710714D01*
X129230952Y-51710714D01*
X129326190Y-51758333D01*
X129373809Y-51853571D01*
X129373809Y-51948809D01*
X128897619Y-52044047D01*
X129802380Y-51710714D02*
X129802380Y-52377380D01*
X129802380Y-51805952D02*
X129850000Y-51758333D01*
X129945238Y-51710714D01*
X130088095Y-51710714D01*
X130183333Y-51758333D01*
X130230952Y-51853571D01*
X130230952Y-52377380D01*
X130707142Y-52377380D02*
X130707142Y-51710714D01*
X130707142Y-51377380D02*
X130659523Y-51425000D01*
X130707142Y-51472619D01*
X130754761Y-51425000D01*
X130707142Y-51377380D01*
X130707142Y-51472619D01*
X131135714Y-52329761D02*
X131230952Y-52377380D01*
X131421428Y-52377380D01*
X131516666Y-52329761D01*
X131564285Y-52234523D01*
X131564285Y-52186904D01*
X131516666Y-52091666D01*
X131421428Y-52044047D01*
X131278571Y-52044047D01*
X131183333Y-51996428D01*
X131135714Y-51901190D01*
X131135714Y-51853571D01*
X131183333Y-51758333D01*
X131278571Y-51710714D01*
X131421428Y-51710714D01*
X131516666Y-51758333D01*
X132611904Y-51901190D02*
X132564285Y-51853571D01*
X132469047Y-51805952D01*
X132373809Y-51805952D01*
X132278571Y-51853571D01*
X132230952Y-51901190D01*
X132183333Y-51996428D01*
X132183333Y-52091666D01*
X132230952Y-52186904D01*
X132278571Y-52234523D01*
X132373809Y-52282142D01*
X132469047Y-52282142D01*
X132564285Y-52234523D01*
X132611904Y-52186904D01*
X132611904Y-51805952D02*
X132611904Y-52186904D01*
X132659523Y-52234523D01*
X132707142Y-52234523D01*
X132802380Y-52186904D01*
X132850000Y-52091666D01*
X132850000Y-51853571D01*
X132754761Y-51710714D01*
X132611904Y-51615476D01*
X132421428Y-51567857D01*
X132230952Y-51615476D01*
X132088095Y-51710714D01*
X131992857Y-51853571D01*
X131945238Y-52044047D01*
X131992857Y-52234523D01*
X132088095Y-52377380D01*
X132230952Y-52472619D01*
X132421428Y-52520238D01*
X132611904Y-52472619D01*
X132754761Y-52377380D01*
X133230952Y-51472619D02*
X133278571Y-51425000D01*
X133373809Y-51377380D01*
X133611904Y-51377380D01*
X133707142Y-51425000D01*
X133754761Y-51472619D01*
X133802380Y-51567857D01*
X133802380Y-51663095D01*
X133754761Y-51805952D01*
X133183333Y-52377380D01*
X133802380Y-52377380D01*
X134135714Y-51377380D02*
X134754761Y-51377380D01*
X134421428Y-51758333D01*
X134564285Y-51758333D01*
X134659523Y-51805952D01*
X134707142Y-51853571D01*
X134754761Y-51948809D01*
X134754761Y-52186904D01*
X134707142Y-52282142D01*
X134659523Y-52329761D01*
X134564285Y-52377380D01*
X134278571Y-52377380D01*
X134183333Y-52329761D01*
X134135714Y-52282142D01*
X135326190Y-51805952D02*
X135230952Y-51758333D01*
X135183333Y-51710714D01*
X135135714Y-51615476D01*
X135135714Y-51567857D01*
X135183333Y-51472619D01*
X135230952Y-51425000D01*
X135326190Y-51377380D01*
X135516666Y-51377380D01*
X135611904Y-51425000D01*
X135659523Y-51472619D01*
X135707142Y-51567857D01*
X135707142Y-51615476D01*
X135659523Y-51710714D01*
X135611904Y-51758333D01*
X135516666Y-51805952D01*
X135326190Y-51805952D01*
X135230952Y-51853571D01*
X135183333Y-51901190D01*
X135135714Y-51996428D01*
X135135714Y-52186904D01*
X135183333Y-52282142D01*
X135230952Y-52329761D01*
X135326190Y-52377380D01*
X135516666Y-52377380D01*
X135611904Y-52329761D01*
X135659523Y-52282142D01*
X135707142Y-52186904D01*
X135707142Y-51996428D01*
X135659523Y-51901190D01*
X135611904Y-51853571D01*
X135516666Y-51805952D01*
X136135714Y-51710714D02*
X136135714Y-52710714D01*
X136135714Y-51758333D02*
X136230952Y-51710714D01*
X136421428Y-51710714D01*
X136516666Y-51758333D01*
X136564285Y-51805952D01*
X136611904Y-51901190D01*
X136611904Y-52186904D01*
X136564285Y-52282142D01*
X136516666Y-52329761D01*
X136421428Y-52377380D01*
X136230952Y-52377380D01*
X136135714Y-52329761D01*
X137040476Y-52377380D02*
X137040476Y-51710714D01*
X137040476Y-51901190D02*
X137088095Y-51805952D01*
X137135714Y-51758333D01*
X137230952Y-51710714D01*
X137326190Y-51710714D01*
X137802380Y-52377380D02*
X137707142Y-52329761D01*
X137659523Y-52282142D01*
X137611904Y-52186904D01*
X137611904Y-51901190D01*
X137659523Y-51805952D01*
X137707142Y-51758333D01*
X137802380Y-51710714D01*
X137945238Y-51710714D01*
X138040476Y-51758333D01*
X138088095Y-51805952D01*
X138135714Y-51901190D01*
X138135714Y-52186904D01*
X138088095Y-52282142D01*
X138040476Y-52329761D01*
X137945238Y-52377380D01*
X137802380Y-52377380D01*
X138564285Y-52282142D02*
X138611904Y-52329761D01*
X138564285Y-52377380D01*
X138516666Y-52329761D01*
X138564285Y-52282142D01*
X138564285Y-52377380D01*
X139469047Y-52329761D02*
X139373809Y-52377380D01*
X139183333Y-52377380D01*
X139088095Y-52329761D01*
X139040476Y-52282142D01*
X138992857Y-52186904D01*
X138992857Y-51901190D01*
X139040476Y-51805952D01*
X139088095Y-51758333D01*
X139183333Y-51710714D01*
X139373809Y-51710714D01*
X139469047Y-51758333D01*
X140040476Y-52377380D02*
X139945238Y-52329761D01*
X139897619Y-52282142D01*
X139850000Y-52186904D01*
X139850000Y-51901190D01*
X139897619Y-51805952D01*
X139945238Y-51758333D01*
X140040476Y-51710714D01*
X140183333Y-51710714D01*
X140278571Y-51758333D01*
X140326190Y-51805952D01*
X140373809Y-51901190D01*
X140373809Y-52186904D01*
X140326190Y-52282142D01*
X140278571Y-52329761D01*
X140183333Y-52377380D01*
X140040476Y-52377380D01*
X140802380Y-52377380D02*
X140802380Y-51710714D01*
X140802380Y-51805952D02*
X140850000Y-51758333D01*
X140945238Y-51710714D01*
X141088095Y-51710714D01*
X141183333Y-51758333D01*
X141230952Y-51853571D01*
X141230952Y-52377380D01*
X141230952Y-51853571D02*
X141278571Y-51758333D01*
X141373809Y-51710714D01*
X141516666Y-51710714D01*
X141611904Y-51758333D01*
X141659523Y-51853571D01*
X141659523Y-52377380D01*
X129564285Y-53360714D02*
X129802380Y-54027380D01*
X130040476Y-53360714D01*
X130373809Y-53122619D02*
X130421428Y-53075000D01*
X130516666Y-53027380D01*
X130754761Y-53027380D01*
X130850000Y-53075000D01*
X130897619Y-53122619D01*
X130945238Y-53217857D01*
X130945238Y-53313095D01*
X130897619Y-53455952D01*
X130326190Y-54027380D01*
X130945238Y-54027380D01*
X131564285Y-53027380D02*
X131659523Y-53027380D01*
X131754761Y-53075000D01*
X131802380Y-53122619D01*
X131850000Y-53217857D01*
X131897619Y-53408333D01*
X131897619Y-53646428D01*
X131850000Y-53836904D01*
X131802380Y-53932142D01*
X131754761Y-53979761D01*
X131659523Y-54027380D01*
X131564285Y-54027380D01*
X131469047Y-53979761D01*
X131421428Y-53932142D01*
X131373809Y-53836904D01*
X131326190Y-53646428D01*
X131326190Y-53408333D01*
X131373809Y-53217857D01*
X131421428Y-53122619D01*
X131469047Y-53075000D01*
X131564285Y-53027380D01*
X132278571Y-53122619D02*
X132326190Y-53075000D01*
X132421428Y-53027380D01*
X132659523Y-53027380D01*
X132754761Y-53075000D01*
X132802380Y-53122619D01*
X132850000Y-53217857D01*
X132850000Y-53313095D01*
X132802380Y-53455952D01*
X132230952Y-54027380D01*
X132850000Y-54027380D01*
X133707142Y-53360714D02*
X133707142Y-54027380D01*
X133469047Y-52979761D02*
X133230952Y-53694047D01*
X133850000Y-53694047D01*
X134230952Y-53646428D02*
X134992857Y-53646428D01*
X135659523Y-53027380D02*
X135754761Y-53027380D01*
X135850000Y-53075000D01*
X135897619Y-53122619D01*
X135945238Y-53217857D01*
X135992857Y-53408333D01*
X135992857Y-53646428D01*
X135945238Y-53836904D01*
X135897619Y-53932142D01*
X135850000Y-53979761D01*
X135754761Y-54027380D01*
X135659523Y-54027380D01*
X135564285Y-53979761D01*
X135516666Y-53932142D01*
X135469047Y-53836904D01*
X135421428Y-53646428D01*
X135421428Y-53408333D01*
X135469047Y-53217857D01*
X135516666Y-53122619D01*
X135564285Y-53075000D01*
X135659523Y-53027380D01*
X136564285Y-53455952D02*
X136469047Y-53408333D01*
X136421428Y-53360714D01*
X136373809Y-53265476D01*
X136373809Y-53217857D01*
X136421428Y-53122619D01*
X136469047Y-53075000D01*
X136564285Y-53027380D01*
X136754761Y-53027380D01*
X136850000Y-53075000D01*
X136897619Y-53122619D01*
X136945238Y-53217857D01*
X136945238Y-53265476D01*
X136897619Y-53360714D01*
X136850000Y-53408333D01*
X136754761Y-53455952D01*
X136564285Y-53455952D01*
X136469047Y-53503571D01*
X136421428Y-53551190D01*
X136373809Y-53646428D01*
X136373809Y-53836904D01*
X136421428Y-53932142D01*
X136469047Y-53979761D01*
X136564285Y-54027380D01*
X136754761Y-54027380D01*
X136850000Y-53979761D01*
X136897619Y-53932142D01*
X136945238Y-53836904D01*
X136945238Y-53646428D01*
X136897619Y-53551190D01*
X136850000Y-53503571D01*
X136754761Y-53455952D01*
X137373809Y-53646428D02*
X138135714Y-53646428D01*
X139135714Y-54027380D02*
X138564285Y-54027380D01*
X138850000Y-54027380D02*
X138850000Y-53027380D01*
X138754761Y-53170238D01*
X138659523Y-53265476D01*
X138564285Y-53313095D01*
X140040476Y-53027380D02*
X139564285Y-53027380D01*
X139516666Y-53503571D01*
X139564285Y-53455952D01*
X139659523Y-53408333D01*
X139897619Y-53408333D01*
X139992857Y-53455952D01*
X140040476Y-53503571D01*
X140088095Y-53598809D01*
X140088095Y-53836904D01*
X140040476Y-53932142D01*
X139992857Y-53979761D01*
X139897619Y-54027380D01*
X139659523Y-54027380D01*
X139564285Y-53979761D01*
X139516666Y-53932142D01*
X161430952Y-113802380D02*
X161430952Y-114516666D01*
X161383333Y-114659523D01*
X161288095Y-114754761D01*
X161145238Y-114802380D01*
X161050000Y-114802380D01*
X162383333Y-114802380D02*
X161907142Y-114802380D01*
X161907142Y-113802380D01*
X163288095Y-114707142D02*
X163240476Y-114754761D01*
X163097619Y-114802380D01*
X163002380Y-114802380D01*
X162859523Y-114754761D01*
X162764285Y-114659523D01*
X162716666Y-114564285D01*
X162669047Y-114373809D01*
X162669047Y-114230952D01*
X162716666Y-114040476D01*
X162764285Y-113945238D01*
X162859523Y-113850000D01*
X163002380Y-113802380D01*
X163097619Y-113802380D01*
X163240476Y-113850000D01*
X163288095Y-113897619D01*
X164002380Y-113802380D02*
X164002380Y-114516666D01*
X163954761Y-114659523D01*
X163859523Y-114754761D01*
X163716666Y-114802380D01*
X163621428Y-114802380D01*
X164954761Y-114802380D02*
X164478571Y-114802380D01*
X164478571Y-113802380D01*
X165859523Y-114707142D02*
X165811904Y-114754761D01*
X165669047Y-114802380D01*
X165573809Y-114802380D01*
X165430952Y-114754761D01*
X165335714Y-114659523D01*
X165288095Y-114564285D01*
X165240476Y-114373809D01*
X165240476Y-114230952D01*
X165288095Y-114040476D01*
X165335714Y-113945238D01*
X165430952Y-113850000D01*
X165573809Y-113802380D01*
X165669047Y-113802380D01*
X165811904Y-113850000D01*
X165859523Y-113897619D01*
X166573809Y-113802380D02*
X166573809Y-114516666D01*
X166526190Y-114659523D01*
X166430952Y-114754761D01*
X166288095Y-114802380D01*
X166192857Y-114802380D01*
X167526190Y-114802380D02*
X167050000Y-114802380D01*
X167050000Y-113802380D01*
X168430952Y-114707142D02*
X168383333Y-114754761D01*
X168240476Y-114802380D01*
X168145238Y-114802380D01*
X168002380Y-114754761D01*
X167907142Y-114659523D01*
X167859523Y-114564285D01*
X167811904Y-114373809D01*
X167811904Y-114230952D01*
X167859523Y-114040476D01*
X167907142Y-113945238D01*
X168002380Y-113850000D01*
X168145238Y-113802380D01*
X168240476Y-113802380D01*
X168383333Y-113850000D01*
X168430952Y-113897619D01*
X169145238Y-113802380D02*
X169145238Y-114516666D01*
X169097619Y-114659523D01*
X169002380Y-114754761D01*
X168859523Y-114802380D01*
X168764285Y-114802380D01*
X170097619Y-114802380D02*
X169621428Y-114802380D01*
X169621428Y-113802380D01*
X171002380Y-114707142D02*
X170954761Y-114754761D01*
X170811904Y-114802380D01*
X170716666Y-114802380D01*
X170573809Y-114754761D01*
X170478571Y-114659523D01*
X170430952Y-114564285D01*
X170383333Y-114373809D01*
X170383333Y-114230952D01*
X170430952Y-114040476D01*
X170478571Y-113945238D01*
X170573809Y-113850000D01*
X170716666Y-113802380D01*
X170811904Y-113802380D01*
X170954761Y-113850000D01*
X171002380Y-113897619D01*
D11*
X122638748Y-82010000D02*
X124061252Y-82010000D01*
X122638748Y-80190000D02*
X124061252Y-80190000D01*
X133700000Y-86500000D02*
X129400000Y-86500000D01*
X133700000Y-88500000D02*
X133700000Y-86500000D01*
X129400000Y-88500000D02*
X133700000Y-88500000D01*
X154090000Y-71772936D02*
X154090000Y-73227064D01*
X155910000Y-71772936D02*
X155910000Y-73227064D01*
X140189564Y-60590000D02*
X138735436Y-60590000D01*
X140189564Y-62410000D02*
X138735436Y-62410000D01*
X124764564Y-58590000D02*
X123310436Y-58590000D01*
X124764564Y-60410000D02*
X123310436Y-60410000D01*
X128972936Y-79910000D02*
X130427064Y-79910000D01*
X128972936Y-78090000D02*
X130427064Y-78090000D01*
X171110000Y-96677064D02*
X171110000Y-95222936D01*
X169290000Y-96677064D02*
X169290000Y-95222936D01*
X169477064Y-101890000D02*
X168022936Y-101890000D01*
X169477064Y-103710000D02*
X168022936Y-103710000D01*
X166427064Y-95590000D02*
X164972936Y-95590000D01*
X166427064Y-97410000D02*
X164972936Y-97410000D01*
X128090000Y-110735436D02*
X128090000Y-112189564D01*
X129910000Y-110735436D02*
X129910000Y-112189564D01*
X128090000Y-100735436D02*
X128090000Y-102189564D01*
X129910000Y-100735436D02*
X129910000Y-102189564D01*
X127910000Y-97189564D02*
X127910000Y-95735436D01*
X126090000Y-97189564D02*
X126090000Y-95735436D01*
X145927064Y-103490000D02*
X144472936Y-103490000D01*
X145927064Y-105310000D02*
X144472936Y-105310000D01*
X161227064Y-76240000D02*
X159772936Y-76240000D01*
X161227064Y-78060000D02*
X159772936Y-78060000D01*
X168590000Y-78772936D02*
X168590000Y-80227064D01*
X170410000Y-78772936D02*
X170410000Y-80227064D01*
X159772936Y-82160000D02*
X161227064Y-82160000D01*
X159772936Y-80340000D02*
X161227064Y-80340000D01*
X169527064Y-99090000D02*
X168072936Y-99090000D01*
X169527064Y-100910000D02*
X168072936Y-100910000D01*
X145911252Y-105990000D02*
X144488748Y-105990000D01*
X145911252Y-107810000D02*
X144488748Y-107810000D01*
X132311248Y-66110000D02*
X133733752Y-66110000D01*
X132311248Y-64290000D02*
X133733752Y-64290000D01*
X132263748Y-61410000D02*
X133686252Y-61410000D01*
X132263748Y-59590000D02*
X133686252Y-59590000D01*
X125236252Y-112090000D02*
X123813748Y-112090000D01*
X125236252Y-113910000D02*
X123813748Y-113910000D01*
X128686252Y-89590000D02*
X127263748Y-89590000D01*
X128686252Y-91410000D02*
X127263748Y-91410000D01*
X149450000Y-100000000D02*
G75*
G03*
X149450000Y-100000000I-1450000J0D01*
G01*
X145026060Y-98814609D02*
G75*
G03*
X145026060Y-98814609I-1450000J0D01*
G01*
X149450000Y-80000000D02*
G75*
G03*
X149450000Y-80000000I-1450000J0D01*
G01*
X153873940Y-81185391D02*
G75*
G03*
X153873940Y-81185391I-1450000J0D01*
G01*
X139950000Y-87700000D02*
G75*
G03*
X139950000Y-87700000I-1450000J0D01*
G01*
X139950000Y-92280000D02*
G75*
G03*
X139950000Y-92280000I-1450000J0D01*
G01*
X158950000Y-92480000D02*
G75*
G03*
X158950000Y-92480000I-1450000J0D01*
G01*
X158950000Y-87900000D02*
G75*
G03*
X158950000Y-87900000I-1450000J0D01*
G01*
X158200000Y-74800000D02*
X158900000Y-74800000D01*
X158200000Y-74100000D02*
X158200000Y-74800000D01*
X161600000Y-70300000D02*
X161000000Y-70300000D01*
X161600000Y-73200000D02*
X161600000Y-70300000D01*
X158400000Y-70300000D02*
X159000000Y-70300000D01*
X158400000Y-73200000D02*
X158400000Y-70300000D01*
X159800000Y-74300000D02*
X160200000Y-74300000D01*
X167200000Y-76150000D02*
G75*
G03*
X167200000Y-76150000I-1450000J0D01*
G01*
X130450000Y-106500000D02*
G75*
G03*
X130450000Y-106500000I-1450000J0D01*
G01*
X166700000Y-79600000D02*
X166700000Y-81000000D01*
X166000000Y-81700000D02*
X165400000Y-81700000D01*
X164700000Y-81000000D02*
X164700000Y-79600000D01*
X165400000Y-78900000D02*
X166000000Y-78900000D01*
X166000000Y-78900000D02*
G75*
G02*
X166700000Y-79600000I0J-700000D01*
G01*
X164700000Y-79600000D02*
G75*
G02*
X165400000Y-78900000I700000J0D01*
G01*
X165400000Y-81700000D02*
G75*
G02*
X164700000Y-81000000I0J700000D01*
G01*
X166700000Y-81000000D02*
G75*
G02*
X166000000Y-81700000I-700000J0D01*
G01*
X160000000Y-98000000D02*
X160000000Y-96600000D01*
X160700000Y-95900000D02*
X161300000Y-95900000D01*
X162000000Y-96600000D02*
X162000000Y-98000000D01*
X161300000Y-98700000D02*
X160700000Y-98700000D01*
X160700000Y-98700000D02*
G75*
G02*
X160000000Y-98000000I0J700000D01*
G01*
X162000000Y-98000000D02*
G75*
G02*
X161300000Y-98700000I-700000J0D01*
G01*
X161300000Y-95900000D02*
G75*
G02*
X162000000Y-96600000I0J-700000D01*
G01*
X160000000Y-96600000D02*
G75*
G02*
X160700000Y-95900000I700000J0D01*
G01*
X142500000Y-112700000D02*
X142500000Y-111300000D01*
X143200000Y-110600000D02*
X143800000Y-110600000D01*
X144500000Y-111300000D02*
X144500000Y-112700000D01*
X143800000Y-113400000D02*
X143200000Y-113400000D01*
X143200000Y-113400000D02*
G75*
G02*
X142500000Y-112700000I0J700000D01*
G01*
X144500000Y-112700000D02*
G75*
G02*
X143800000Y-113400000I-700000J0D01*
G01*
X143800000Y-110600000D02*
G75*
G02*
X144500000Y-111300000I0J-700000D01*
G01*
X142500000Y-111300000D02*
G75*
G02*
X143200000Y-110600000I700000J0D01*
G01*
X120170000Y-57830000D02*
X120170000Y-56500000D01*
X121500000Y-57830000D02*
X120170000Y-57830000D01*
X122770000Y-57830000D02*
X122770000Y-55170000D01*
X122770000Y-55170000D02*
X150770000Y-55170000D01*
X122770000Y-57830000D02*
X150770000Y-57830000D01*
X150770000Y-57830000D02*
X150770000Y-55170000D01*
X161480000Y-90722500D02*
X161480000Y-92412500D01*
X160640000Y-90722500D02*
X161480000Y-90722500D01*
X160640000Y-87962500D02*
X160640000Y-90722500D01*
X160640000Y-85202500D02*
X161480000Y-85202500D01*
X160640000Y-87962500D02*
X160640000Y-85202500D01*
X171060000Y-90722500D02*
X170220000Y-90722500D01*
X171060000Y-87962500D02*
X171060000Y-90722500D01*
X171060000Y-85202500D02*
X170220000Y-85202500D01*
X171060000Y-87962500D02*
X171060000Y-85202500D01*
X133202500Y-103050000D02*
X131512500Y-103050000D01*
X133202500Y-102845000D02*
X133202500Y-103050000D01*
X135962500Y-102845000D02*
X133202500Y-102845000D01*
X138722500Y-102845000D02*
X138722500Y-103050000D01*
X135962500Y-102845000D02*
X138722500Y-102845000D01*
X133202500Y-113265000D02*
X133202500Y-113060000D01*
X135962500Y-113265000D02*
X133202500Y-113265000D01*
X138722500Y-113265000D02*
X138722500Y-113060000D01*
X135962500Y-113265000D02*
X138722500Y-113265000D01*
X133950000Y-85310000D02*
X133950000Y-84810000D01*
X134200000Y-85060000D02*
X133700000Y-85060000D01*
X133460000Y-82304437D02*
X132395563Y-81240000D01*
X133460000Y-84695563D02*
X132395563Y-85760000D01*
X133460000Y-84695563D02*
X133460000Y-84560000D01*
X133460000Y-82304437D02*
X133460000Y-82440000D01*
X132395563Y-81240000D02*
X128940000Y-81240000D01*
X132395563Y-85760000D02*
X128940000Y-85760000D01*
X128940000Y-85760000D02*
X128940000Y-84560000D01*
X128940000Y-81240000D02*
X128940000Y-82440000D01*
X145550000Y-69690000D02*
X145550000Y-70190000D01*
X145300000Y-69940000D02*
X145800000Y-69940000D01*
X146040000Y-72695563D02*
X147104437Y-73760000D01*
X146040000Y-70304437D02*
X147104437Y-69240000D01*
X146040000Y-70304437D02*
X146040000Y-70440000D01*
X146040000Y-72695563D02*
X146040000Y-72560000D01*
X147104437Y-73760000D02*
X150560000Y-73760000D01*
X147104437Y-69240000D02*
X150560000Y-69240000D01*
X150560000Y-69240000D02*
X150560000Y-70440000D01*
X150560000Y-73760000D02*
X150560000Y-72560000D01*
X121190000Y-67250000D02*
X121690000Y-67250000D01*
X121440000Y-67500000D02*
X121440000Y-67000000D01*
X124195563Y-66760000D02*
X125260000Y-65695563D01*
X121804437Y-66760000D02*
X120740000Y-65695563D01*
X121804437Y-66760000D02*
X121940000Y-66760000D01*
X124195563Y-66760000D02*
X124060000Y-66760000D01*
X125260000Y-65695563D02*
X125260000Y-62240000D01*
X120740000Y-65695563D02*
X120740000Y-62240000D01*
X120740000Y-62240000D02*
X121940000Y-62240000D01*
X125260000Y-62240000D02*
X124060000Y-62240000D01*
X137050000Y-73390000D02*
X137050000Y-73890000D01*
X136800000Y-73640000D02*
X137300000Y-73640000D01*
X137540000Y-76395563D02*
X138604437Y-77460000D01*
X137540000Y-74004437D02*
X138604437Y-72940000D01*
X137540000Y-74004437D02*
X137540000Y-74140000D01*
X137540000Y-76395563D02*
X137540000Y-76260000D01*
X138604437Y-77460000D02*
X142060000Y-77460000D01*
X138604437Y-72940000D02*
X142060000Y-72940000D01*
X142060000Y-72940000D02*
X142060000Y-74140000D01*
X142060000Y-77460000D02*
X142060000Y-76260000D01*
X123990000Y-74850000D02*
X124490000Y-74850000D01*
X124240000Y-75100000D02*
X124240000Y-74600000D01*
X126995563Y-74360000D02*
X128060000Y-73295563D01*
X124604437Y-74360000D02*
X123540000Y-73295563D01*
X124604437Y-74360000D02*
X124740000Y-74360000D01*
X126995563Y-74360000D02*
X126860000Y-74360000D01*
X128060000Y-73295563D02*
X128060000Y-69840000D01*
X123540000Y-73295563D02*
X123540000Y-69840000D01*
X123540000Y-69840000D02*
X124740000Y-69840000D01*
X128060000Y-69840000D02*
X126860000Y-69840000D01*
X121190000Y-99750000D02*
X121690000Y-99750000D01*
X121440000Y-100000000D02*
X121440000Y-99500000D01*
X124195563Y-99260000D02*
X125260000Y-98195563D01*
X121804437Y-99260000D02*
X120740000Y-98195563D01*
X121804437Y-99260000D02*
X121940000Y-99260000D01*
X124195563Y-99260000D02*
X124060000Y-99260000D01*
X125260000Y-98195563D02*
X125260000Y-94740000D01*
X120740000Y-98195563D02*
X120740000Y-94740000D01*
X120740000Y-94740000D02*
X121940000Y-94740000D01*
X125260000Y-94740000D02*
X124060000Y-94740000D01*
X121390000Y-89400000D02*
X121890000Y-89400000D01*
X121640000Y-89650000D02*
X121640000Y-89150000D01*
X124395563Y-88910000D02*
X125460000Y-87845563D01*
X122004437Y-88910000D02*
X120940000Y-87845563D01*
X122004437Y-88910000D02*
X122140000Y-88910000D01*
X124395563Y-88910000D02*
X124260000Y-88910000D01*
X125460000Y-87845563D02*
X125460000Y-84390000D01*
X120940000Y-87845563D02*
X120940000Y-84390000D01*
X120940000Y-84390000D02*
X122140000Y-84390000D01*
X125460000Y-84390000D02*
X124260000Y-84390000D01*
X151500000Y-109000000D02*
X151500000Y-110200000D01*
X158000000Y-109000000D02*
X151500000Y-109000000D01*
X158000000Y-116000000D02*
X158000000Y-109000000D01*
X151500000Y-116000000D02*
X158000000Y-116000000D01*
X151500000Y-116000000D02*
X151500000Y-115200000D01*
X151500000Y-110200000D02*
X151500000Y-115200000D01*
X149500000Y-115000000D02*
X151500000Y-115000000D01*
X149500000Y-110000000D02*
X151500000Y-110000000D01*
X149450000Y-116450000D02*
X146550000Y-116450000D01*
X149450000Y-113550000D02*
X149450000Y-116450000D01*
X146550000Y-116450000D02*
X146550000Y-113550000D01*
X146550000Y-113550000D02*
X149450000Y-113550000D01*
X146550000Y-108550000D02*
X149450000Y-108550000D01*
X146550000Y-111450000D02*
X146550000Y-108550000D01*
X149450000Y-111450000D02*
X146550000Y-111450000D01*
X149450000Y-108550000D02*
X149450000Y-111450000D01*
X157300000Y-106700000D02*
X157300000Y-106200000D01*
X150800000Y-106700000D02*
X157300000Y-106700000D01*
X150800000Y-101200000D02*
X150800000Y-106700000D01*
X157300000Y-101200000D02*
X150800000Y-101200000D01*
X157300000Y-101700000D02*
X157300000Y-101200000D01*
X157300000Y-106200000D02*
X157300000Y-101700000D01*
X159300000Y-101700000D02*
X157300000Y-101700000D01*
X159300000Y-106200000D02*
X157300000Y-106200000D01*
X159350000Y-100250000D02*
X162250000Y-100250000D01*
X159350000Y-103150000D02*
X159350000Y-100250000D01*
X162250000Y-100250000D02*
X162250000Y-103150000D01*
X162250000Y-103150000D02*
X159350000Y-103150000D01*
X162250000Y-107650000D02*
X159350000Y-107650000D01*
X162250000Y-104750000D02*
X162250000Y-107650000D01*
X159350000Y-104750000D02*
X162250000Y-104750000D01*
X159350000Y-107650000D02*
X159350000Y-104750000D01*
D10*
X124733333Y-79207142D02*
X124685714Y-79254761D01*
X124542857Y-79302380D01*
X124447619Y-79302380D01*
X124304761Y-79254761D01*
X124209523Y-79159523D01*
X124161904Y-79064285D01*
X124114285Y-78873809D01*
X124114285Y-78730952D01*
X124161904Y-78540476D01*
X124209523Y-78445238D01*
X124304761Y-78350000D01*
X124447619Y-78302380D01*
X124542857Y-78302380D01*
X124685714Y-78350000D01*
X124733333Y-78397619D01*
X125590476Y-78302380D02*
X125400000Y-78302380D01*
X125304761Y-78350000D01*
X125257142Y-78397619D01*
X125161904Y-78540476D01*
X125114285Y-78730952D01*
X125114285Y-79111904D01*
X125161904Y-79207142D01*
X125209523Y-79254761D01*
X125304761Y-79302380D01*
X125495238Y-79302380D01*
X125590476Y-79254761D01*
X125638095Y-79207142D01*
X125685714Y-79111904D01*
X125685714Y-78873809D01*
X125638095Y-78778571D01*
X125590476Y-78730952D01*
X125495238Y-78683333D01*
X125304761Y-78683333D01*
X125209523Y-78730952D01*
X125161904Y-78778571D01*
X125114285Y-78873809D01*
X121800000Y-71580952D02*
X121752380Y-71676190D01*
X121752380Y-71819047D01*
X121800000Y-71961904D01*
X121895238Y-72057142D01*
X121990476Y-72104761D01*
X122180952Y-72152380D01*
X122323809Y-72152380D01*
X122514285Y-72104761D01*
X122609523Y-72057142D01*
X122704761Y-71961904D01*
X122752380Y-71819047D01*
X122752380Y-71723809D01*
X122704761Y-71580952D01*
X122657142Y-71533333D01*
X122323809Y-71533333D01*
X122323809Y-71723809D01*
X122752380Y-71104761D02*
X121752380Y-71104761D01*
X122752380Y-70533333D01*
X121752380Y-70533333D01*
X122752380Y-70057142D02*
X121752380Y-70057142D01*
X121752380Y-69819047D01*
X121800000Y-69676190D01*
X121895238Y-69580952D01*
X121990476Y-69533333D01*
X122180952Y-69485714D01*
X122323809Y-69485714D01*
X122514285Y-69533333D01*
X122609523Y-69580952D01*
X122704761Y-69676190D01*
X122752380Y-69819047D01*
X122752380Y-70057142D01*
X122371428Y-69057142D02*
X122371428Y-68295238D01*
X122752380Y-68676190D02*
X121990476Y-68676190D01*
X173488095Y-94452380D02*
X173488095Y-93452380D01*
X173869047Y-93452380D01*
X173964285Y-93500000D01*
X174011904Y-93547619D01*
X174059523Y-93642857D01*
X174059523Y-93785714D01*
X174011904Y-93880952D01*
X173964285Y-93928571D01*
X173869047Y-93976190D01*
X173488095Y-93976190D01*
X175059523Y-94357142D02*
X175011904Y-94404761D01*
X174869047Y-94452380D01*
X174773809Y-94452380D01*
X174630952Y-94404761D01*
X174535714Y-94309523D01*
X174488095Y-94214285D01*
X174440476Y-94023809D01*
X174440476Y-93880952D01*
X174488095Y-93690476D01*
X174535714Y-93595238D01*
X174630952Y-93500000D01*
X174773809Y-93452380D01*
X174869047Y-93452380D01*
X175011904Y-93500000D01*
X175059523Y-93547619D01*
X173626190Y-104185714D02*
X173626190Y-104852380D01*
X173388095Y-103804761D02*
X173150000Y-104519047D01*
X173769047Y-104519047D01*
X174150000Y-104757142D02*
X174197619Y-104804761D01*
X174150000Y-104852380D01*
X174102380Y-104804761D01*
X174150000Y-104757142D01*
X174150000Y-104852380D01*
X174769047Y-104280952D02*
X174673809Y-104233333D01*
X174626190Y-104185714D01*
X174578571Y-104090476D01*
X174578571Y-104042857D01*
X174626190Y-103947619D01*
X174673809Y-103900000D01*
X174769047Y-103852380D01*
X174959523Y-103852380D01*
X175054761Y-103900000D01*
X175102380Y-103947619D01*
X175150000Y-104042857D01*
X175150000Y-104090476D01*
X175102380Y-104185714D01*
X175054761Y-104233333D01*
X174959523Y-104280952D01*
X174769047Y-104280952D01*
X174673809Y-104328571D01*
X174626190Y-104376190D01*
X174578571Y-104471428D01*
X174578571Y-104661904D01*
X174626190Y-104757142D01*
X174673809Y-104804761D01*
X174769047Y-104852380D01*
X174959523Y-104852380D01*
X175054761Y-104804761D01*
X175102380Y-104757142D01*
X175150000Y-104661904D01*
X175150000Y-104471428D01*
X175102380Y-104376190D01*
X175054761Y-104328571D01*
X174959523Y-104280952D01*
X173295238Y-95802380D02*
X173485714Y-95802380D01*
X173580952Y-95754761D01*
X173628571Y-95707142D01*
X173723809Y-95564285D01*
X173771428Y-95373809D01*
X173771428Y-94992857D01*
X173723809Y-94897619D01*
X173676190Y-94850000D01*
X173580952Y-94802380D01*
X173390476Y-94802380D01*
X173295238Y-94850000D01*
X173247619Y-94897619D01*
X173200000Y-94992857D01*
X173200000Y-95230952D01*
X173247619Y-95326190D01*
X173295238Y-95373809D01*
X173390476Y-95421428D01*
X173580952Y-95421428D01*
X173676190Y-95373809D01*
X173723809Y-95326190D01*
X173771428Y-95230952D01*
X174200000Y-95707142D02*
X174247619Y-95754761D01*
X174200000Y-95802380D01*
X174152380Y-95754761D01*
X174200000Y-95707142D01*
X174200000Y-95802380D01*
X175104761Y-94802380D02*
X174914285Y-94802380D01*
X174819047Y-94850000D01*
X174771428Y-94897619D01*
X174676190Y-95040476D01*
X174628571Y-95230952D01*
X174628571Y-95611904D01*
X174676190Y-95707142D01*
X174723809Y-95754761D01*
X174819047Y-95802380D01*
X175009523Y-95802380D01*
X175104761Y-95754761D01*
X175152380Y-95707142D01*
X175200000Y-95611904D01*
X175200000Y-95373809D01*
X175152380Y-95278571D01*
X175104761Y-95230952D01*
X175009523Y-95183333D01*
X174819047Y-95183333D01*
X174723809Y-95230952D01*
X174676190Y-95278571D01*
X174628571Y-95373809D01*
X119178571Y-77057142D02*
X119178571Y-77390476D01*
X119702380Y-77390476D02*
X118702380Y-77390476D01*
X118702380Y-76914285D01*
X118750000Y-76009523D02*
X118702380Y-76104761D01*
X118702380Y-76247619D01*
X118750000Y-76390476D01*
X118845238Y-76485714D01*
X118940476Y-76533333D01*
X119130952Y-76580952D01*
X119273809Y-76580952D01*
X119464285Y-76533333D01*
X119559523Y-76485714D01*
X119654761Y-76390476D01*
X119702380Y-76247619D01*
X119702380Y-76152380D01*
X119654761Y-76009523D01*
X119607142Y-75961904D01*
X119273809Y-75961904D01*
X119273809Y-76152380D01*
X172509523Y-81857142D02*
X172461904Y-81904761D01*
X172319047Y-81952380D01*
X172223809Y-81952380D01*
X172080952Y-81904761D01*
X171985714Y-81809523D01*
X171938095Y-81714285D01*
X171890476Y-81523809D01*
X171890476Y-81380952D01*
X171938095Y-81190476D01*
X171985714Y-81095238D01*
X172080952Y-81000000D01*
X172223809Y-80952380D01*
X172319047Y-80952380D01*
X172461904Y-81000000D01*
X172509523Y-81047619D01*
X172938095Y-81952380D02*
X172938095Y-80952380D01*
X173509523Y-81952380D01*
X173509523Y-80952380D01*
X174509523Y-81952380D02*
X173938095Y-81952380D01*
X174223809Y-81952380D02*
X174223809Y-80952380D01*
X174128571Y-81095238D01*
X174033333Y-81190476D01*
X173938095Y-81238095D01*
X132190476Y-89152380D02*
X132857142Y-89152380D01*
X132190476Y-90152380D01*
X132857142Y-90152380D01*
X133761904Y-90152380D02*
X133190476Y-90152380D01*
X133476190Y-90152380D02*
X133476190Y-89152380D01*
X133380952Y-89295238D01*
X133285714Y-89390476D01*
X133190476Y-89438095D01*
X154357142Y-69764880D02*
X154023809Y-69288690D01*
X153785714Y-69764880D02*
X153785714Y-68764880D01*
X154166666Y-68764880D01*
X154261904Y-68812500D01*
X154309523Y-68860119D01*
X154357142Y-68955357D01*
X154357142Y-69098214D01*
X154309523Y-69193452D01*
X154261904Y-69241071D01*
X154166666Y-69288690D01*
X153785714Y-69288690D01*
X155309523Y-69764880D02*
X154738095Y-69764880D01*
X155023809Y-69764880D02*
X155023809Y-68764880D01*
X154928571Y-68907738D01*
X154833333Y-69002976D01*
X154738095Y-69050595D01*
X156166666Y-69098214D02*
X156166666Y-69764880D01*
X155928571Y-68717261D02*
X155690476Y-69431547D01*
X156309523Y-69431547D01*
X138819642Y-63772380D02*
X138486309Y-63296190D01*
X138248214Y-63772380D02*
X138248214Y-62772380D01*
X138629166Y-62772380D01*
X138724404Y-62820000D01*
X138772023Y-62867619D01*
X138819642Y-62962857D01*
X138819642Y-63105714D01*
X138772023Y-63200952D01*
X138724404Y-63248571D01*
X138629166Y-63296190D01*
X138248214Y-63296190D01*
X139772023Y-63772380D02*
X139200595Y-63772380D01*
X139486309Y-63772380D02*
X139486309Y-62772380D01*
X139391071Y-62915238D01*
X139295833Y-63010476D01*
X139200595Y-63058095D01*
X140105357Y-62772380D02*
X140724404Y-62772380D01*
X140391071Y-63153333D01*
X140533928Y-63153333D01*
X140629166Y-63200952D01*
X140676785Y-63248571D01*
X140724404Y-63343809D01*
X140724404Y-63581904D01*
X140676785Y-63677142D01*
X140629166Y-63724761D01*
X140533928Y-63772380D01*
X140248214Y-63772380D01*
X140152976Y-63724761D01*
X140105357Y-63677142D01*
X127457142Y-59852380D02*
X127123809Y-59376190D01*
X126885714Y-59852380D02*
X126885714Y-58852380D01*
X127266666Y-58852380D01*
X127361904Y-58900000D01*
X127409523Y-58947619D01*
X127457142Y-59042857D01*
X127457142Y-59185714D01*
X127409523Y-59280952D01*
X127361904Y-59328571D01*
X127266666Y-59376190D01*
X126885714Y-59376190D01*
X128409523Y-59852380D02*
X127838095Y-59852380D01*
X128123809Y-59852380D02*
X128123809Y-58852380D01*
X128028571Y-58995238D01*
X127933333Y-59090476D01*
X127838095Y-59138095D01*
X128790476Y-58947619D02*
X128838095Y-58900000D01*
X128933333Y-58852380D01*
X129171428Y-58852380D01*
X129266666Y-58900000D01*
X129314285Y-58947619D01*
X129361904Y-59042857D01*
X129361904Y-59138095D01*
X129314285Y-59280952D01*
X128742857Y-59852380D01*
X129361904Y-59852380D01*
X133194642Y-79352380D02*
X132861309Y-78876190D01*
X132623214Y-79352380D02*
X132623214Y-78352380D01*
X133004166Y-78352380D01*
X133099404Y-78400000D01*
X133147023Y-78447619D01*
X133194642Y-78542857D01*
X133194642Y-78685714D01*
X133147023Y-78780952D01*
X133099404Y-78828571D01*
X133004166Y-78876190D01*
X132623214Y-78876190D01*
X134147023Y-79352380D02*
X133575595Y-79352380D01*
X133861309Y-79352380D02*
X133861309Y-78352380D01*
X133766071Y-78495238D01*
X133670833Y-78590476D01*
X133575595Y-78638095D01*
X135099404Y-79352380D02*
X134527976Y-79352380D01*
X134813690Y-79352380D02*
X134813690Y-78352380D01*
X134718452Y-78495238D01*
X134623214Y-78590476D01*
X134527976Y-78638095D01*
X167533333Y-94352380D02*
X167200000Y-93876190D01*
X166961904Y-94352380D02*
X166961904Y-93352380D01*
X167342857Y-93352380D01*
X167438095Y-93400000D01*
X167485714Y-93447619D01*
X167533333Y-93542857D01*
X167533333Y-93685714D01*
X167485714Y-93780952D01*
X167438095Y-93828571D01*
X167342857Y-93876190D01*
X166961904Y-93876190D01*
X168009523Y-94352380D02*
X168200000Y-94352380D01*
X168295238Y-94304761D01*
X168342857Y-94257142D01*
X168438095Y-94114285D01*
X168485714Y-93923809D01*
X168485714Y-93542857D01*
X168438095Y-93447619D01*
X168390476Y-93400000D01*
X168295238Y-93352380D01*
X168104761Y-93352380D01*
X168009523Y-93400000D01*
X167961904Y-93447619D01*
X167914285Y-93542857D01*
X167914285Y-93780952D01*
X167961904Y-93876190D01*
X168009523Y-93923809D01*
X168104761Y-93971428D01*
X168295238Y-93971428D01*
X168390476Y-93923809D01*
X168438095Y-93876190D01*
X168485714Y-93780952D01*
X164733333Y-103252380D02*
X164400000Y-102776190D01*
X164161904Y-103252380D02*
X164161904Y-102252380D01*
X164542857Y-102252380D01*
X164638095Y-102300000D01*
X164685714Y-102347619D01*
X164733333Y-102442857D01*
X164733333Y-102585714D01*
X164685714Y-102680952D01*
X164638095Y-102728571D01*
X164542857Y-102776190D01*
X164161904Y-102776190D01*
X165304761Y-102680952D02*
X165209523Y-102633333D01*
X165161904Y-102585714D01*
X165114285Y-102490476D01*
X165114285Y-102442857D01*
X165161904Y-102347619D01*
X165209523Y-102300000D01*
X165304761Y-102252380D01*
X165495238Y-102252380D01*
X165590476Y-102300000D01*
X165638095Y-102347619D01*
X165685714Y-102442857D01*
X165685714Y-102490476D01*
X165638095Y-102585714D01*
X165590476Y-102633333D01*
X165495238Y-102680952D01*
X165304761Y-102680952D01*
X165209523Y-102728571D01*
X165161904Y-102776190D01*
X165114285Y-102871428D01*
X165114285Y-103061904D01*
X165161904Y-103157142D01*
X165209523Y-103204761D01*
X165304761Y-103252380D01*
X165495238Y-103252380D01*
X165590476Y-103204761D01*
X165638095Y-103157142D01*
X165685714Y-103061904D01*
X165685714Y-102871428D01*
X165638095Y-102776190D01*
X165590476Y-102728571D01*
X165495238Y-102680952D01*
X163933333Y-94752380D02*
X163600000Y-94276190D01*
X163361904Y-94752380D02*
X163361904Y-93752380D01*
X163742857Y-93752380D01*
X163838095Y-93800000D01*
X163885714Y-93847619D01*
X163933333Y-93942857D01*
X163933333Y-94085714D01*
X163885714Y-94180952D01*
X163838095Y-94228571D01*
X163742857Y-94276190D01*
X163361904Y-94276190D01*
X164266666Y-93752380D02*
X164933333Y-93752380D01*
X164504761Y-94752380D01*
X129233333Y-115302380D02*
X128900000Y-114826190D01*
X128661904Y-115302380D02*
X128661904Y-114302380D01*
X129042857Y-114302380D01*
X129138095Y-114350000D01*
X129185714Y-114397619D01*
X129233333Y-114492857D01*
X129233333Y-114635714D01*
X129185714Y-114730952D01*
X129138095Y-114778571D01*
X129042857Y-114826190D01*
X128661904Y-114826190D01*
X130090476Y-114302380D02*
X129900000Y-114302380D01*
X129804761Y-114350000D01*
X129757142Y-114397619D01*
X129661904Y-114540476D01*
X129614285Y-114730952D01*
X129614285Y-115111904D01*
X129661904Y-115207142D01*
X129709523Y-115254761D01*
X129804761Y-115302380D01*
X129995238Y-115302380D01*
X130090476Y-115254761D01*
X130138095Y-115207142D01*
X130185714Y-115111904D01*
X130185714Y-114873809D01*
X130138095Y-114778571D01*
X130090476Y-114730952D01*
X129995238Y-114683333D01*
X129804761Y-114683333D01*
X129709523Y-114730952D01*
X129661904Y-114778571D01*
X129614285Y-114873809D01*
X131133333Y-101452380D02*
X130800000Y-100976190D01*
X130561904Y-101452380D02*
X130561904Y-100452380D01*
X130942857Y-100452380D01*
X131038095Y-100500000D01*
X131085714Y-100547619D01*
X131133333Y-100642857D01*
X131133333Y-100785714D01*
X131085714Y-100880952D01*
X131038095Y-100928571D01*
X130942857Y-100976190D01*
X130561904Y-100976190D01*
X132038095Y-100452380D02*
X131561904Y-100452380D01*
X131514285Y-100928571D01*
X131561904Y-100880952D01*
X131657142Y-100833333D01*
X131895238Y-100833333D01*
X131990476Y-100880952D01*
X132038095Y-100928571D01*
X132085714Y-101023809D01*
X132085714Y-101261904D01*
X132038095Y-101357142D01*
X131990476Y-101404761D01*
X131895238Y-101452380D01*
X131657142Y-101452380D01*
X131561904Y-101404761D01*
X131514285Y-101357142D01*
X129183333Y-96602380D02*
X128850000Y-96126190D01*
X128611904Y-96602380D02*
X128611904Y-95602380D01*
X128992857Y-95602380D01*
X129088095Y-95650000D01*
X129135714Y-95697619D01*
X129183333Y-95792857D01*
X129183333Y-95935714D01*
X129135714Y-96030952D01*
X129088095Y-96078571D01*
X128992857Y-96126190D01*
X128611904Y-96126190D01*
X130040476Y-95935714D02*
X130040476Y-96602380D01*
X129802380Y-95554761D02*
X129564285Y-96269047D01*
X130183333Y-96269047D01*
X143633333Y-102452380D02*
X143300000Y-101976190D01*
X143061904Y-102452380D02*
X143061904Y-101452380D01*
X143442857Y-101452380D01*
X143538095Y-101500000D01*
X143585714Y-101547619D01*
X143633333Y-101642857D01*
X143633333Y-101785714D01*
X143585714Y-101880952D01*
X143538095Y-101928571D01*
X143442857Y-101976190D01*
X143061904Y-101976190D01*
X143966666Y-101452380D02*
X144585714Y-101452380D01*
X144252380Y-101833333D01*
X144395238Y-101833333D01*
X144490476Y-101880952D01*
X144538095Y-101928571D01*
X144585714Y-102023809D01*
X144585714Y-102261904D01*
X144538095Y-102357142D01*
X144490476Y-102404761D01*
X144395238Y-102452380D01*
X144109523Y-102452380D01*
X144014285Y-102404761D01*
X143966666Y-102357142D01*
X156683333Y-77702380D02*
X156350000Y-77226190D01*
X156111904Y-77702380D02*
X156111904Y-76702380D01*
X156492857Y-76702380D01*
X156588095Y-76750000D01*
X156635714Y-76797619D01*
X156683333Y-76892857D01*
X156683333Y-77035714D01*
X156635714Y-77130952D01*
X156588095Y-77178571D01*
X156492857Y-77226190D01*
X156111904Y-77226190D01*
X157064285Y-76797619D02*
X157111904Y-76750000D01*
X157207142Y-76702380D01*
X157445238Y-76702380D01*
X157540476Y-76750000D01*
X157588095Y-76797619D01*
X157635714Y-76892857D01*
X157635714Y-76988095D01*
X157588095Y-77130952D01*
X157016666Y-77702380D01*
X157635714Y-77702380D01*
X168783333Y-76702380D02*
X168450000Y-76226190D01*
X168211904Y-76702380D02*
X168211904Y-75702380D01*
X168592857Y-75702380D01*
X168688095Y-75750000D01*
X168735714Y-75797619D01*
X168783333Y-75892857D01*
X168783333Y-76035714D01*
X168735714Y-76130952D01*
X168688095Y-76178571D01*
X168592857Y-76226190D01*
X168211904Y-76226190D01*
X169735714Y-76702380D02*
X169164285Y-76702380D01*
X169450000Y-76702380D02*
X169450000Y-75702380D01*
X169354761Y-75845238D01*
X169259523Y-75940476D01*
X169164285Y-75988095D01*
X156416666Y-80602380D02*
X156416666Y-81316666D01*
X156369047Y-81459523D01*
X156273809Y-81554761D01*
X156130952Y-81602380D01*
X156035714Y-81602380D01*
X156845238Y-80697619D02*
X156892857Y-80650000D01*
X156988095Y-80602380D01*
X157226190Y-80602380D01*
X157321428Y-80650000D01*
X157369047Y-80697619D01*
X157416666Y-80792857D01*
X157416666Y-80888095D01*
X157369047Y-81030952D01*
X156797619Y-81602380D01*
X157416666Y-81602380D01*
X164666666Y-99252380D02*
X164666666Y-99966666D01*
X164619047Y-100109523D01*
X164523809Y-100204761D01*
X164380952Y-100252380D01*
X164285714Y-100252380D01*
X165666666Y-100252380D02*
X165095238Y-100252380D01*
X165380952Y-100252380D02*
X165380952Y-99252380D01*
X165285714Y-99395238D01*
X165190476Y-99490476D01*
X165095238Y-99538095D01*
X143357142Y-109657142D02*
X143309523Y-109704761D01*
X143166666Y-109752380D01*
X143071428Y-109752380D01*
X142928571Y-109704761D01*
X142833333Y-109609523D01*
X142785714Y-109514285D01*
X142738095Y-109323809D01*
X142738095Y-109180952D01*
X142785714Y-108990476D01*
X142833333Y-108895238D01*
X142928571Y-108800000D01*
X143071428Y-108752380D01*
X143166666Y-108752380D01*
X143309523Y-108800000D01*
X143357142Y-108847619D01*
X144309523Y-109752380D02*
X143738095Y-109752380D01*
X144023809Y-109752380D02*
X144023809Y-108752380D01*
X143928571Y-108895238D01*
X143833333Y-108990476D01*
X143738095Y-109038095D01*
X145166666Y-108752380D02*
X144976190Y-108752380D01*
X144880952Y-108800000D01*
X144833333Y-108847619D01*
X144738095Y-108990476D01*
X144690476Y-109180952D01*
X144690476Y-109561904D01*
X144738095Y-109657142D01*
X144785714Y-109704761D01*
X144880952Y-109752380D01*
X145071428Y-109752380D01*
X145166666Y-109704761D01*
X145214285Y-109657142D01*
X145261904Y-109561904D01*
X145261904Y-109323809D01*
X145214285Y-109228571D01*
X145166666Y-109180952D01*
X145071428Y-109133333D01*
X144880952Y-109133333D01*
X144785714Y-109180952D01*
X144738095Y-109228571D01*
X144690476Y-109323809D01*
X131357142Y-67657142D02*
X131309523Y-67704761D01*
X131166666Y-67752380D01*
X131071428Y-67752380D01*
X130928571Y-67704761D01*
X130833333Y-67609523D01*
X130785714Y-67514285D01*
X130738095Y-67323809D01*
X130738095Y-67180952D01*
X130785714Y-66990476D01*
X130833333Y-66895238D01*
X130928571Y-66800000D01*
X131071428Y-66752380D01*
X131166666Y-66752380D01*
X131309523Y-66800000D01*
X131357142Y-66847619D01*
X132309523Y-67752380D02*
X131738095Y-67752380D01*
X132023809Y-67752380D02*
X132023809Y-66752380D01*
X131928571Y-66895238D01*
X131833333Y-66990476D01*
X131738095Y-67038095D01*
X132928571Y-66752380D02*
X133023809Y-66752380D01*
X133119047Y-66800000D01*
X133166666Y-66847619D01*
X133214285Y-66942857D01*
X133261904Y-67133333D01*
X133261904Y-67371428D01*
X133214285Y-67561904D01*
X133166666Y-67657142D01*
X133119047Y-67704761D01*
X133023809Y-67752380D01*
X132928571Y-67752380D01*
X132833333Y-67704761D01*
X132785714Y-67657142D01*
X132738095Y-67561904D01*
X132690476Y-67371428D01*
X132690476Y-67133333D01*
X132738095Y-66942857D01*
X132785714Y-66847619D01*
X132833333Y-66800000D01*
X132928571Y-66752380D01*
X131457142Y-62857142D02*
X131409523Y-62904761D01*
X131266666Y-62952380D01*
X131171428Y-62952380D01*
X131028571Y-62904761D01*
X130933333Y-62809523D01*
X130885714Y-62714285D01*
X130838095Y-62523809D01*
X130838095Y-62380952D01*
X130885714Y-62190476D01*
X130933333Y-62095238D01*
X131028571Y-62000000D01*
X131171428Y-61952380D01*
X131266666Y-61952380D01*
X131409523Y-62000000D01*
X131457142Y-62047619D01*
X132409523Y-62952380D02*
X131838095Y-62952380D01*
X132123809Y-62952380D02*
X132123809Y-61952380D01*
X132028571Y-62095238D01*
X131933333Y-62190476D01*
X131838095Y-62238095D01*
X133361904Y-62952380D02*
X132790476Y-62952380D01*
X133076190Y-62952380D02*
X133076190Y-61952380D01*
X132980952Y-62095238D01*
X132885714Y-62190476D01*
X132790476Y-62238095D01*
X124358333Y-115207142D02*
X124310714Y-115254761D01*
X124167857Y-115302380D01*
X124072619Y-115302380D01*
X123929761Y-115254761D01*
X123834523Y-115159523D01*
X123786904Y-115064285D01*
X123739285Y-114873809D01*
X123739285Y-114730952D01*
X123786904Y-114540476D01*
X123834523Y-114445238D01*
X123929761Y-114350000D01*
X124072619Y-114302380D01*
X124167857Y-114302380D01*
X124310714Y-114350000D01*
X124358333Y-114397619D01*
X124929761Y-114730952D02*
X124834523Y-114683333D01*
X124786904Y-114635714D01*
X124739285Y-114540476D01*
X124739285Y-114492857D01*
X124786904Y-114397619D01*
X124834523Y-114350000D01*
X124929761Y-114302380D01*
X125120238Y-114302380D01*
X125215476Y-114350000D01*
X125263095Y-114397619D01*
X125310714Y-114492857D01*
X125310714Y-114540476D01*
X125263095Y-114635714D01*
X125215476Y-114683333D01*
X125120238Y-114730952D01*
X124929761Y-114730952D01*
X124834523Y-114778571D01*
X124786904Y-114826190D01*
X124739285Y-114921428D01*
X124739285Y-115111904D01*
X124786904Y-115207142D01*
X124834523Y-115254761D01*
X124929761Y-115302380D01*
X125120238Y-115302380D01*
X125215476Y-115254761D01*
X125263095Y-115207142D01*
X125310714Y-115111904D01*
X125310714Y-114921428D01*
X125263095Y-114826190D01*
X125215476Y-114778571D01*
X125120238Y-114730952D01*
X127808333Y-92707142D02*
X127760714Y-92754761D01*
X127617857Y-92802380D01*
X127522619Y-92802380D01*
X127379761Y-92754761D01*
X127284523Y-92659523D01*
X127236904Y-92564285D01*
X127189285Y-92373809D01*
X127189285Y-92230952D01*
X127236904Y-92040476D01*
X127284523Y-91945238D01*
X127379761Y-91850000D01*
X127522619Y-91802380D01*
X127617857Y-91802380D01*
X127760714Y-91850000D01*
X127808333Y-91897619D01*
X128189285Y-91897619D02*
X128236904Y-91850000D01*
X128332142Y-91802380D01*
X128570238Y-91802380D01*
X128665476Y-91850000D01*
X128713095Y-91897619D01*
X128760714Y-91992857D01*
X128760714Y-92088095D01*
X128713095Y-92230952D01*
X128141666Y-92802380D01*
X128760714Y-92802380D01*
X158690476Y-67552380D02*
X159023809Y-68552380D01*
X159357142Y-67552380D01*
X160261904Y-68552380D02*
X159928571Y-68076190D01*
X159690476Y-68552380D02*
X159690476Y-67552380D01*
X160071428Y-67552380D01*
X160166666Y-67600000D01*
X160214285Y-67647619D01*
X160261904Y-67742857D01*
X160261904Y-67885714D01*
X160214285Y-67980952D01*
X160166666Y-68028571D01*
X160071428Y-68076190D01*
X159690476Y-68076190D01*
X161214285Y-68552380D02*
X160642857Y-68552380D01*
X160928571Y-68552380D02*
X160928571Y-67552380D01*
X160833333Y-67695238D01*
X160738095Y-67790476D01*
X160642857Y-67838095D01*
X157245238Y-97752380D02*
X157435714Y-97752380D01*
X157530952Y-97704761D01*
X157578571Y-97657142D01*
X157673809Y-97514285D01*
X157721428Y-97323809D01*
X157721428Y-96942857D01*
X157673809Y-96847619D01*
X157626190Y-96800000D01*
X157530952Y-96752380D01*
X157340476Y-96752380D01*
X157245238Y-96800000D01*
X157197619Y-96847619D01*
X157150000Y-96942857D01*
X157150000Y-97180952D01*
X157197619Y-97276190D01*
X157245238Y-97323809D01*
X157340476Y-97371428D01*
X157530952Y-97371428D01*
X157626190Y-97323809D01*
X157673809Y-97276190D01*
X157721428Y-97180952D01*
X158150000Y-97657142D02*
X158197619Y-97704761D01*
X158150000Y-97752380D01*
X158102380Y-97704761D01*
X158150000Y-97657142D01*
X158150000Y-97752380D01*
X159054761Y-96752380D02*
X158864285Y-96752380D01*
X158769047Y-96800000D01*
X158721428Y-96847619D01*
X158626190Y-96990476D01*
X158578571Y-97180952D01*
X158578571Y-97561904D01*
X158626190Y-97657142D01*
X158673809Y-97704761D01*
X158769047Y-97752380D01*
X158959523Y-97752380D01*
X159054761Y-97704761D01*
X159102380Y-97657142D01*
X159150000Y-97561904D01*
X159150000Y-97323809D01*
X159102380Y-97228571D01*
X159054761Y-97180952D01*
X158959523Y-97133333D01*
X158769047Y-97133333D01*
X158673809Y-97180952D01*
X158626190Y-97228571D01*
X158578571Y-97323809D01*
X143176190Y-114385714D02*
X143176190Y-115052380D01*
X142938095Y-114004761D02*
X142700000Y-114719047D01*
X143319047Y-114719047D01*
X143700000Y-114957142D02*
X143747619Y-115004761D01*
X143700000Y-115052380D01*
X143652380Y-115004761D01*
X143700000Y-114957142D01*
X143700000Y-115052380D01*
X144319047Y-114480952D02*
X144223809Y-114433333D01*
X144176190Y-114385714D01*
X144128571Y-114290476D01*
X144128571Y-114242857D01*
X144176190Y-114147619D01*
X144223809Y-114100000D01*
X144319047Y-114052380D01*
X144509523Y-114052380D01*
X144604761Y-114100000D01*
X144652380Y-114147619D01*
X144700000Y-114242857D01*
X144700000Y-114290476D01*
X144652380Y-114385714D01*
X144604761Y-114433333D01*
X144509523Y-114480952D01*
X144319047Y-114480952D01*
X144223809Y-114528571D01*
X144176190Y-114576190D01*
X144128571Y-114671428D01*
X144128571Y-114861904D01*
X144176190Y-114957142D01*
X144223809Y-115004761D01*
X144319047Y-115052380D01*
X144509523Y-115052380D01*
X144604761Y-115004761D01*
X144652380Y-114957142D01*
X144700000Y-114861904D01*
X144700000Y-114671428D01*
X144652380Y-114576190D01*
X144604761Y-114528571D01*
X144509523Y-114480952D01*
X121523809Y-54452380D02*
X121523809Y-53452380D01*
X122571428Y-54357142D02*
X122523809Y-54404761D01*
X122380952Y-54452380D01*
X122285714Y-54452380D01*
X122142857Y-54404761D01*
X122047619Y-54309523D01*
X122000000Y-54214285D01*
X121952380Y-54023809D01*
X121952380Y-53880952D01*
X122000000Y-53690476D01*
X122047619Y-53595238D01*
X122142857Y-53500000D01*
X122285714Y-53452380D01*
X122380952Y-53452380D01*
X122523809Y-53500000D01*
X122571428Y-53547619D01*
X122904761Y-53452380D02*
X123523809Y-53452380D01*
X123190476Y-53833333D01*
X123333333Y-53833333D01*
X123428571Y-53880952D01*
X123476190Y-53928571D01*
X123523809Y-54023809D01*
X123523809Y-54261904D01*
X123476190Y-54357142D01*
X123428571Y-54404761D01*
X123333333Y-54452380D01*
X123047619Y-54452380D01*
X122952380Y-54404761D01*
X122904761Y-54357142D01*
X157823809Y-84752380D02*
X157823809Y-83752380D01*
X158871428Y-84657142D02*
X158823809Y-84704761D01*
X158680952Y-84752380D01*
X158585714Y-84752380D01*
X158442857Y-84704761D01*
X158347619Y-84609523D01*
X158300000Y-84514285D01*
X158252380Y-84323809D01*
X158252380Y-84180952D01*
X158300000Y-83990476D01*
X158347619Y-83895238D01*
X158442857Y-83800000D01*
X158585714Y-83752380D01*
X158680952Y-83752380D01*
X158823809Y-83800000D01*
X158871428Y-83847619D01*
X159252380Y-83847619D02*
X159300000Y-83800000D01*
X159395238Y-83752380D01*
X159633333Y-83752380D01*
X159728571Y-83800000D01*
X159776190Y-83847619D01*
X159823809Y-83942857D01*
X159823809Y-84038095D01*
X159776190Y-84180952D01*
X159204761Y-84752380D01*
X159823809Y-84752380D01*
X134998809Y-101927380D02*
X134998809Y-100927380D01*
X136046428Y-101832142D02*
X135998809Y-101879761D01*
X135855952Y-101927380D01*
X135760714Y-101927380D01*
X135617857Y-101879761D01*
X135522619Y-101784523D01*
X135475000Y-101689285D01*
X135427380Y-101498809D01*
X135427380Y-101355952D01*
X135475000Y-101165476D01*
X135522619Y-101070238D01*
X135617857Y-100975000D01*
X135760714Y-100927380D01*
X135855952Y-100927380D01*
X135998809Y-100975000D01*
X136046428Y-101022619D01*
X136998809Y-101927380D02*
X136427380Y-101927380D01*
X136713095Y-101927380D02*
X136713095Y-100927380D01*
X136617857Y-101070238D01*
X136522619Y-101165476D01*
X136427380Y-101213095D01*
X135532142Y-83732142D02*
X135484523Y-83779761D01*
X135341666Y-83827380D01*
X135246428Y-83827380D01*
X135103571Y-83779761D01*
X135008333Y-83684523D01*
X134960714Y-83589285D01*
X134913095Y-83398809D01*
X134913095Y-83255952D01*
X134960714Y-83065476D01*
X135008333Y-82970238D01*
X135103571Y-82875000D01*
X135246428Y-82827380D01*
X135341666Y-82827380D01*
X135484523Y-82875000D01*
X135532142Y-82922619D01*
X136484523Y-83827380D02*
X135913095Y-83827380D01*
X136198809Y-83827380D02*
X136198809Y-82827380D01*
X136103571Y-82970238D01*
X136008333Y-83065476D01*
X135913095Y-83113095D01*
X137389285Y-82827380D02*
X136913095Y-82827380D01*
X136865476Y-83303571D01*
X136913095Y-83255952D01*
X137008333Y-83208333D01*
X137246428Y-83208333D01*
X137341666Y-83255952D01*
X137389285Y-83303571D01*
X137436904Y-83398809D01*
X137436904Y-83636904D01*
X137389285Y-83732142D01*
X137341666Y-83779761D01*
X137246428Y-83827380D01*
X137008333Y-83827380D01*
X136913095Y-83779761D01*
X136865476Y-83732142D01*
X148732142Y-75282142D02*
X148684523Y-75329761D01*
X148541666Y-75377380D01*
X148446428Y-75377380D01*
X148303571Y-75329761D01*
X148208333Y-75234523D01*
X148160714Y-75139285D01*
X148113095Y-74948809D01*
X148113095Y-74805952D01*
X148160714Y-74615476D01*
X148208333Y-74520238D01*
X148303571Y-74425000D01*
X148446428Y-74377380D01*
X148541666Y-74377380D01*
X148684523Y-74425000D01*
X148732142Y-74472619D01*
X149684523Y-75377380D02*
X149113095Y-75377380D01*
X149398809Y-75377380D02*
X149398809Y-74377380D01*
X149303571Y-74520238D01*
X149208333Y-74615476D01*
X149113095Y-74663095D01*
X150541666Y-74710714D02*
X150541666Y-75377380D01*
X150303571Y-74329761D02*
X150065476Y-75044047D01*
X150684523Y-75044047D01*
X126457142Y-63857142D02*
X126409523Y-63904761D01*
X126266666Y-63952380D01*
X126171428Y-63952380D01*
X126028571Y-63904761D01*
X125933333Y-63809523D01*
X125885714Y-63714285D01*
X125838095Y-63523809D01*
X125838095Y-63380952D01*
X125885714Y-63190476D01*
X125933333Y-63095238D01*
X126028571Y-63000000D01*
X126171428Y-62952380D01*
X126266666Y-62952380D01*
X126409523Y-63000000D01*
X126457142Y-63047619D01*
X127409523Y-63952380D02*
X126838095Y-63952380D01*
X127123809Y-63952380D02*
X127123809Y-62952380D01*
X127028571Y-63095238D01*
X126933333Y-63190476D01*
X126838095Y-63238095D01*
X127742857Y-62952380D02*
X128361904Y-62952380D01*
X128028571Y-63333333D01*
X128171428Y-63333333D01*
X128266666Y-63380952D01*
X128314285Y-63428571D01*
X128361904Y-63523809D01*
X128361904Y-63761904D01*
X128314285Y-63857142D01*
X128266666Y-63904761D01*
X128171428Y-63952380D01*
X127885714Y-63952380D01*
X127790476Y-63904761D01*
X127742857Y-63857142D01*
X140032142Y-78932142D02*
X139984523Y-78979761D01*
X139841666Y-79027380D01*
X139746428Y-79027380D01*
X139603571Y-78979761D01*
X139508333Y-78884523D01*
X139460714Y-78789285D01*
X139413095Y-78598809D01*
X139413095Y-78455952D01*
X139460714Y-78265476D01*
X139508333Y-78170238D01*
X139603571Y-78075000D01*
X139746428Y-78027380D01*
X139841666Y-78027380D01*
X139984523Y-78075000D01*
X140032142Y-78122619D01*
X140984523Y-79027380D02*
X140413095Y-79027380D01*
X140698809Y-79027380D02*
X140698809Y-78027380D01*
X140603571Y-78170238D01*
X140508333Y-78265476D01*
X140413095Y-78313095D01*
X141365476Y-78122619D02*
X141413095Y-78075000D01*
X141508333Y-78027380D01*
X141746428Y-78027380D01*
X141841666Y-78075000D01*
X141889285Y-78122619D01*
X141936904Y-78217857D01*
X141936904Y-78313095D01*
X141889285Y-78455952D01*
X141317857Y-79027380D01*
X141936904Y-79027380D01*
X128133333Y-69057142D02*
X128085714Y-69104761D01*
X127942857Y-69152380D01*
X127847619Y-69152380D01*
X127704761Y-69104761D01*
X127609523Y-69009523D01*
X127561904Y-68914285D01*
X127514285Y-68723809D01*
X127514285Y-68580952D01*
X127561904Y-68390476D01*
X127609523Y-68295238D01*
X127704761Y-68200000D01*
X127847619Y-68152380D01*
X127942857Y-68152380D01*
X128085714Y-68200000D01*
X128133333Y-68247619D01*
X128609523Y-69152380D02*
X128800000Y-69152380D01*
X128895238Y-69104761D01*
X128942857Y-69057142D01*
X129038095Y-68914285D01*
X129085714Y-68723809D01*
X129085714Y-68342857D01*
X129038095Y-68247619D01*
X128990476Y-68200000D01*
X128895238Y-68152380D01*
X128704761Y-68152380D01*
X128609523Y-68200000D01*
X128561904Y-68247619D01*
X128514285Y-68342857D01*
X128514285Y-68580952D01*
X128561904Y-68676190D01*
X128609523Y-68723809D01*
X128704761Y-68771428D01*
X128895238Y-68771428D01*
X128990476Y-68723809D01*
X129038095Y-68676190D01*
X129085714Y-68580952D01*
X121433333Y-101982142D02*
X121385714Y-102029761D01*
X121242857Y-102077380D01*
X121147619Y-102077380D01*
X121004761Y-102029761D01*
X120909523Y-101934523D01*
X120861904Y-101839285D01*
X120814285Y-101648809D01*
X120814285Y-101505952D01*
X120861904Y-101315476D01*
X120909523Y-101220238D01*
X121004761Y-101125000D01*
X121147619Y-101077380D01*
X121242857Y-101077380D01*
X121385714Y-101125000D01*
X121433333Y-101172619D01*
X121766666Y-101077380D02*
X122433333Y-101077380D01*
X122004761Y-102077380D01*
X121208333Y-91657142D02*
X121160714Y-91704761D01*
X121017857Y-91752380D01*
X120922619Y-91752380D01*
X120779761Y-91704761D01*
X120684523Y-91609523D01*
X120636904Y-91514285D01*
X120589285Y-91323809D01*
X120589285Y-91180952D01*
X120636904Y-90990476D01*
X120684523Y-90895238D01*
X120779761Y-90800000D01*
X120922619Y-90752380D01*
X121017857Y-90752380D01*
X121160714Y-90800000D01*
X121208333Y-90847619D01*
X122113095Y-90752380D02*
X121636904Y-90752380D01*
X121589285Y-91228571D01*
X121636904Y-91180952D01*
X121732142Y-91133333D01*
X121970238Y-91133333D01*
X122065476Y-91180952D01*
X122113095Y-91228571D01*
X122160714Y-91323809D01*
X122160714Y-91561904D01*
X122113095Y-91657142D01*
X122065476Y-91704761D01*
X121970238Y-91752380D01*
X121732142Y-91752380D01*
X121636904Y-91704761D01*
X121589285Y-91657142D01*
X159633333Y-111357142D02*
X159585714Y-111404761D01*
X159442857Y-111452380D01*
X159347619Y-111452380D01*
X159204761Y-111404761D01*
X159109523Y-111309523D01*
X159061904Y-111214285D01*
X159014285Y-111023809D01*
X159014285Y-110880952D01*
X159061904Y-110690476D01*
X159109523Y-110595238D01*
X159204761Y-110500000D01*
X159347619Y-110452380D01*
X159442857Y-110452380D01*
X159585714Y-110500000D01*
X159633333Y-110547619D01*
X160490476Y-110785714D02*
X160490476Y-111452380D01*
X160252380Y-110404761D02*
X160014285Y-111119047D01*
X160633333Y-111119047D01*
X154233333Y-100057142D02*
X154185714Y-100104761D01*
X154042857Y-100152380D01*
X153947619Y-100152380D01*
X153804761Y-100104761D01*
X153709523Y-100009523D01*
X153661904Y-99914285D01*
X153614285Y-99723809D01*
X153614285Y-99580952D01*
X153661904Y-99390476D01*
X153709523Y-99295238D01*
X153804761Y-99200000D01*
X153947619Y-99152380D01*
X154042857Y-99152380D01*
X154185714Y-99200000D01*
X154233333Y-99247619D01*
X154566666Y-99152380D02*
X155185714Y-99152380D01*
X154852380Y-99533333D01*
X154995238Y-99533333D01*
X155090476Y-99580952D01*
X155138095Y-99628571D01*
X155185714Y-99723809D01*
X155185714Y-99961904D01*
X155138095Y-100057142D01*
X155090476Y-100104761D01*
X154995238Y-100152380D01*
X154709523Y-100152380D01*
X154614285Y-100104761D01*
X154566666Y-100057142D01*
%LPC*%
G36*
G01*
X124250000Y-81750002D02*
X124250000Y-80449998D01*
G75*
G02*
X124499998Y-80200000I249998J0D01*
G01*
X125325002Y-80200000D01*
G75*
G02*
X125575000Y-80449998I0J-249998D01*
G01*
X125575000Y-81750002D01*
G75*
G02*
X125325002Y-82000000I-249998J0D01*
G01*
X124499998Y-82000000D01*
G75*
G02*
X124250000Y-81750002I0J249998D01*
G01*
G37*
G36*
G01*
X121125000Y-81750002D02*
X121125000Y-80449998D01*
G75*
G02*
X121374998Y-80200000I249998J0D01*
G01*
X122200002Y-80200000D01*
G75*
G02*
X122450000Y-80449998I0J-249998D01*
G01*
X122450000Y-81750002D01*
G75*
G02*
X122200002Y-82000000I-249998J0D01*
G01*
X121374998Y-82000000D01*
G75*
G02*
X121125000Y-81750002I0J249998D01*
G01*
G37*
D12*
X120000000Y-68960000D03*
X120000000Y-71500000D03*
X174200000Y-102430000D03*
X174200000Y-99890000D03*
X174200000Y-97350000D03*
X121200000Y-78000000D03*
X121200000Y-75460000D03*
X174200000Y-83600000D03*
X174200000Y-86140000D03*
X174200000Y-88680000D03*
G36*
G01*
X175450000Y-90720000D02*
X175450000Y-91720000D01*
G75*
G02*
X174950000Y-92220000I-500000J0D01*
G01*
X173450000Y-92220000D01*
G75*
G02*
X172950000Y-91720000I0J500000D01*
G01*
X172950000Y-90720000D01*
G75*
G02*
X173450000Y-90220000I500000J0D01*
G01*
X174950000Y-90220000D01*
G75*
G02*
X175450000Y-90720000I0J-500000D01*
G01*
G37*
D13*
X129400000Y-87500000D03*
X132900000Y-87500000D03*
D14*
X165500000Y-110500000D03*
X157000000Y-65000000D03*
X125000000Y-103500000D03*
G36*
G01*
X154374999Y-73400000D02*
X155625001Y-73400000D01*
G75*
G02*
X155875000Y-73649999I0J-249999D01*
G01*
X155875000Y-74450001D01*
G75*
G02*
X155625001Y-74700000I-249999J0D01*
G01*
X154374999Y-74700000D01*
G75*
G02*
X154125000Y-74450001I0J249999D01*
G01*
X154125000Y-73649999D01*
G75*
G02*
X154374999Y-73400000I249999J0D01*
G01*
G37*
G36*
G01*
X154374999Y-70300000D02*
X155625001Y-70300000D01*
G75*
G02*
X155875000Y-70549999I0J-249999D01*
G01*
X155875000Y-71350001D01*
G75*
G02*
X155625001Y-71600000I-249999J0D01*
G01*
X154374999Y-71600000D01*
G75*
G02*
X154125000Y-71350001I0J249999D01*
G01*
X154125000Y-70549999D01*
G75*
G02*
X154374999Y-70300000I249999J0D01*
G01*
G37*
G36*
G01*
X138562500Y-60874999D02*
X138562500Y-62125001D01*
G75*
G02*
X138312501Y-62375000I-249999J0D01*
G01*
X137512499Y-62375000D01*
G75*
G02*
X137262500Y-62125001I0J249999D01*
G01*
X137262500Y-60874999D01*
G75*
G02*
X137512499Y-60625000I249999J0D01*
G01*
X138312501Y-60625000D01*
G75*
G02*
X138562500Y-60874999I0J-249999D01*
G01*
G37*
G36*
G01*
X141662500Y-60874999D02*
X141662500Y-62125001D01*
G75*
G02*
X141412501Y-62375000I-249999J0D01*
G01*
X140612499Y-62375000D01*
G75*
G02*
X140362500Y-62125001I0J249999D01*
G01*
X140362500Y-60874999D01*
G75*
G02*
X140612499Y-60625000I249999J0D01*
G01*
X141412501Y-60625000D01*
G75*
G02*
X141662500Y-60874999I0J-249999D01*
G01*
G37*
G36*
G01*
X123137500Y-58874999D02*
X123137500Y-60125001D01*
G75*
G02*
X122887501Y-60375000I-249999J0D01*
G01*
X122087499Y-60375000D01*
G75*
G02*
X121837500Y-60125001I0J249999D01*
G01*
X121837500Y-58874999D01*
G75*
G02*
X122087499Y-58625000I249999J0D01*
G01*
X122887501Y-58625000D01*
G75*
G02*
X123137500Y-58874999I0J-249999D01*
G01*
G37*
G36*
G01*
X126237500Y-58874999D02*
X126237500Y-60125001D01*
G75*
G02*
X125987501Y-60375000I-249999J0D01*
G01*
X125187499Y-60375000D01*
G75*
G02*
X124937500Y-60125001I0J249999D01*
G01*
X124937500Y-58874999D01*
G75*
G02*
X125187499Y-58625000I249999J0D01*
G01*
X125987501Y-58625000D01*
G75*
G02*
X126237500Y-58874999I0J-249999D01*
G01*
G37*
G36*
G01*
X130600000Y-79625001D02*
X130600000Y-78374999D01*
G75*
G02*
X130849999Y-78125000I249999J0D01*
G01*
X131650001Y-78125000D01*
G75*
G02*
X131900000Y-78374999I0J-249999D01*
G01*
X131900000Y-79625001D01*
G75*
G02*
X131650001Y-79875000I-249999J0D01*
G01*
X130849999Y-79875000D01*
G75*
G02*
X130600000Y-79625001I0J249999D01*
G01*
G37*
G36*
G01*
X127500000Y-79625001D02*
X127500000Y-78374999D01*
G75*
G02*
X127749999Y-78125000I249999J0D01*
G01*
X128550001Y-78125000D01*
G75*
G02*
X128800000Y-78374999I0J-249999D01*
G01*
X128800000Y-79625001D01*
G75*
G02*
X128550001Y-79875000I-249999J0D01*
G01*
X127749999Y-79875000D01*
G75*
G02*
X127500000Y-79625001I0J249999D01*
G01*
G37*
G36*
G01*
X170825001Y-95050000D02*
X169574999Y-95050000D01*
G75*
G02*
X169325000Y-94800001I0J249999D01*
G01*
X169325000Y-93999999D01*
G75*
G02*
X169574999Y-93750000I249999J0D01*
G01*
X170825001Y-93750000D01*
G75*
G02*
X171075000Y-93999999I0J-249999D01*
G01*
X171075000Y-94800001D01*
G75*
G02*
X170825001Y-95050000I-249999J0D01*
G01*
G37*
G36*
G01*
X170825001Y-98150000D02*
X169574999Y-98150000D01*
G75*
G02*
X169325000Y-97900001I0J249999D01*
G01*
X169325000Y-97099999D01*
G75*
G02*
X169574999Y-96850000I249999J0D01*
G01*
X170825001Y-96850000D01*
G75*
G02*
X171075000Y-97099999I0J-249999D01*
G01*
X171075000Y-97900001D01*
G75*
G02*
X170825001Y-98150000I-249999J0D01*
G01*
G37*
G36*
G01*
X167850000Y-102174999D02*
X167850000Y-103425001D01*
G75*
G02*
X167600001Y-103675000I-249999J0D01*
G01*
X166799999Y-103675000D01*
G75*
G02*
X166550000Y-103425001I0J249999D01*
G01*
X166550000Y-102174999D01*
G75*
G02*
X166799999Y-101925000I249999J0D01*
G01*
X167600001Y-101925000D01*
G75*
G02*
X167850000Y-102174999I0J-249999D01*
G01*
G37*
G36*
G01*
X170950000Y-102174999D02*
X170950000Y-103425001D01*
G75*
G02*
X170700001Y-103675000I-249999J0D01*
G01*
X169899999Y-103675000D01*
G75*
G02*
X169650000Y-103425001I0J249999D01*
G01*
X169650000Y-102174999D01*
G75*
G02*
X169899999Y-101925000I249999J0D01*
G01*
X170700001Y-101925000D01*
G75*
G02*
X170950000Y-102174999I0J-249999D01*
G01*
G37*
G36*
G01*
X164800000Y-95874999D02*
X164800000Y-97125001D01*
G75*
G02*
X164550001Y-97375000I-249999J0D01*
G01*
X163749999Y-97375000D01*
G75*
G02*
X163500000Y-97125001I0J249999D01*
G01*
X163500000Y-95874999D01*
G75*
G02*
X163749999Y-95625000I249999J0D01*
G01*
X164550001Y-95625000D01*
G75*
G02*
X164800000Y-95874999I0J-249999D01*
G01*
G37*
G36*
G01*
X167900000Y-95874999D02*
X167900000Y-97125001D01*
G75*
G02*
X167650001Y-97375000I-249999J0D01*
G01*
X166849999Y-97375000D01*
G75*
G02*
X166600000Y-97125001I0J249999D01*
G01*
X166600000Y-95874999D01*
G75*
G02*
X166849999Y-95625000I249999J0D01*
G01*
X167650001Y-95625000D01*
G75*
G02*
X167900000Y-95874999I0J-249999D01*
G01*
G37*
G36*
G01*
X128374999Y-112362500D02*
X129625001Y-112362500D01*
G75*
G02*
X129875000Y-112612499I0J-249999D01*
G01*
X129875000Y-113412501D01*
G75*
G02*
X129625001Y-113662500I-249999J0D01*
G01*
X128374999Y-113662500D01*
G75*
G02*
X128125000Y-113412501I0J249999D01*
G01*
X128125000Y-112612499D01*
G75*
G02*
X128374999Y-112362500I249999J0D01*
G01*
G37*
G36*
G01*
X128374999Y-109262500D02*
X129625001Y-109262500D01*
G75*
G02*
X129875000Y-109512499I0J-249999D01*
G01*
X129875000Y-110312501D01*
G75*
G02*
X129625001Y-110562500I-249999J0D01*
G01*
X128374999Y-110562500D01*
G75*
G02*
X128125000Y-110312501I0J249999D01*
G01*
X128125000Y-109512499D01*
G75*
G02*
X128374999Y-109262500I249999J0D01*
G01*
G37*
G36*
G01*
X128374999Y-102362500D02*
X129625001Y-102362500D01*
G75*
G02*
X129875000Y-102612499I0J-249999D01*
G01*
X129875000Y-103412501D01*
G75*
G02*
X129625001Y-103662500I-249999J0D01*
G01*
X128374999Y-103662500D01*
G75*
G02*
X128125000Y-103412501I0J249999D01*
G01*
X128125000Y-102612499D01*
G75*
G02*
X128374999Y-102362500I249999J0D01*
G01*
G37*
G36*
G01*
X128374999Y-99262500D02*
X129625001Y-99262500D01*
G75*
G02*
X129875000Y-99512499I0J-249999D01*
G01*
X129875000Y-100312501D01*
G75*
G02*
X129625001Y-100562500I-249999J0D01*
G01*
X128374999Y-100562500D01*
G75*
G02*
X128125000Y-100312501I0J249999D01*
G01*
X128125000Y-99512499D01*
G75*
G02*
X128374999Y-99262500I249999J0D01*
G01*
G37*
G36*
G01*
X127625001Y-95562500D02*
X126374999Y-95562500D01*
G75*
G02*
X126125000Y-95312501I0J249999D01*
G01*
X126125000Y-94512499D01*
G75*
G02*
X126374999Y-94262500I249999J0D01*
G01*
X127625001Y-94262500D01*
G75*
G02*
X127875000Y-94512499I0J-249999D01*
G01*
X127875000Y-95312501D01*
G75*
G02*
X127625001Y-95562500I-249999J0D01*
G01*
G37*
G36*
G01*
X127625001Y-98662500D02*
X126374999Y-98662500D01*
G75*
G02*
X126125000Y-98412501I0J249999D01*
G01*
X126125000Y-97612499D01*
G75*
G02*
X126374999Y-97362500I249999J0D01*
G01*
X127625001Y-97362500D01*
G75*
G02*
X127875000Y-97612499I0J-249999D01*
G01*
X127875000Y-98412501D01*
G75*
G02*
X127625001Y-98662500I-249999J0D01*
G01*
G37*
G36*
G01*
X144300000Y-103774999D02*
X144300000Y-105025001D01*
G75*
G02*
X144050001Y-105275000I-249999J0D01*
G01*
X143249999Y-105275000D01*
G75*
G02*
X143000000Y-105025001I0J249999D01*
G01*
X143000000Y-103774999D01*
G75*
G02*
X143249999Y-103525000I249999J0D01*
G01*
X144050001Y-103525000D01*
G75*
G02*
X144300000Y-103774999I0J-249999D01*
G01*
G37*
G36*
G01*
X147400000Y-103774999D02*
X147400000Y-105025001D01*
G75*
G02*
X147150001Y-105275000I-249999J0D01*
G01*
X146349999Y-105275000D01*
G75*
G02*
X146100000Y-105025001I0J249999D01*
G01*
X146100000Y-103774999D01*
G75*
G02*
X146349999Y-103525000I249999J0D01*
G01*
X147150001Y-103525000D01*
G75*
G02*
X147400000Y-103774999I0J-249999D01*
G01*
G37*
G36*
G01*
X159600000Y-76524999D02*
X159600000Y-77775001D01*
G75*
G02*
X159350001Y-78025000I-249999J0D01*
G01*
X158549999Y-78025000D01*
G75*
G02*
X158300000Y-77775001I0J249999D01*
G01*
X158300000Y-76524999D01*
G75*
G02*
X158549999Y-76275000I249999J0D01*
G01*
X159350001Y-76275000D01*
G75*
G02*
X159600000Y-76524999I0J-249999D01*
G01*
G37*
G36*
G01*
X162700000Y-76524999D02*
X162700000Y-77775001D01*
G75*
G02*
X162450001Y-78025000I-249999J0D01*
G01*
X161649999Y-78025000D01*
G75*
G02*
X161400000Y-77775001I0J249999D01*
G01*
X161400000Y-76524999D01*
G75*
G02*
X161649999Y-76275000I249999J0D01*
G01*
X162450001Y-76275000D01*
G75*
G02*
X162700000Y-76524999I0J-249999D01*
G01*
G37*
G36*
G01*
X168874999Y-80400000D02*
X170125001Y-80400000D01*
G75*
G02*
X170375000Y-80649999I0J-249999D01*
G01*
X170375000Y-81450001D01*
G75*
G02*
X170125001Y-81700000I-249999J0D01*
G01*
X168874999Y-81700000D01*
G75*
G02*
X168625000Y-81450001I0J249999D01*
G01*
X168625000Y-80649999D01*
G75*
G02*
X168874999Y-80400000I249999J0D01*
G01*
G37*
G36*
G01*
X168874999Y-77300000D02*
X170125001Y-77300000D01*
G75*
G02*
X170375000Y-77549999I0J-249999D01*
G01*
X170375000Y-78350001D01*
G75*
G02*
X170125001Y-78600000I-249999J0D01*
G01*
X168874999Y-78600000D01*
G75*
G02*
X168625000Y-78350001I0J249999D01*
G01*
X168625000Y-77549999D01*
G75*
G02*
X168874999Y-77300000I249999J0D01*
G01*
G37*
G36*
G01*
X161400000Y-81875001D02*
X161400000Y-80624999D01*
G75*
G02*
X161649999Y-80375000I249999J0D01*
G01*
X162450001Y-80375000D01*
G75*
G02*
X162700000Y-80624999I0J-249999D01*
G01*
X162700000Y-81875001D01*
G75*
G02*
X162450001Y-82125000I-249999J0D01*
G01*
X161649999Y-82125000D01*
G75*
G02*
X161400000Y-81875001I0J249999D01*
G01*
G37*
G36*
G01*
X158300000Y-81875001D02*
X158300000Y-80624999D01*
G75*
G02*
X158549999Y-80375000I249999J0D01*
G01*
X159350001Y-80375000D01*
G75*
G02*
X159600000Y-80624999I0J-249999D01*
G01*
X159600000Y-81875001D01*
G75*
G02*
X159350001Y-82125000I-249999J0D01*
G01*
X158549999Y-82125000D01*
G75*
G02*
X158300000Y-81875001I0J249999D01*
G01*
G37*
G36*
G01*
X167900000Y-99374999D02*
X167900000Y-100625001D01*
G75*
G02*
X167650001Y-100875000I-249999J0D01*
G01*
X166849999Y-100875000D01*
G75*
G02*
X166600000Y-100625001I0J249999D01*
G01*
X166600000Y-99374999D01*
G75*
G02*
X166849999Y-99125000I249999J0D01*
G01*
X167650001Y-99125000D01*
G75*
G02*
X167900000Y-99374999I0J-249999D01*
G01*
G37*
G36*
G01*
X171000000Y-99374999D02*
X171000000Y-100625001D01*
G75*
G02*
X170750001Y-100875000I-249999J0D01*
G01*
X169949999Y-100875000D01*
G75*
G02*
X169700000Y-100625001I0J249999D01*
G01*
X169700000Y-99374999D01*
G75*
G02*
X169949999Y-99125000I249999J0D01*
G01*
X170750001Y-99125000D01*
G75*
G02*
X171000000Y-99374999I0J-249999D01*
G01*
G37*
G36*
G01*
X144300000Y-106249998D02*
X144300000Y-107550002D01*
G75*
G02*
X144050002Y-107800000I-249998J0D01*
G01*
X143224998Y-107800000D01*
G75*
G02*
X142975000Y-107550002I0J249998D01*
G01*
X142975000Y-106249998D01*
G75*
G02*
X143224998Y-106000000I249998J0D01*
G01*
X144050002Y-106000000D01*
G75*
G02*
X144300000Y-106249998I0J-249998D01*
G01*
G37*
G36*
G01*
X147425000Y-106249998D02*
X147425000Y-107550002D01*
G75*
G02*
X147175002Y-107800000I-249998J0D01*
G01*
X146349998Y-107800000D01*
G75*
G02*
X146100000Y-107550002I0J249998D01*
G01*
X146100000Y-106249998D01*
G75*
G02*
X146349998Y-106000000I249998J0D01*
G01*
X147175002Y-106000000D01*
G75*
G02*
X147425000Y-106249998I0J-249998D01*
G01*
G37*
G36*
G01*
X133922500Y-65850002D02*
X133922500Y-64549998D01*
G75*
G02*
X134172498Y-64300000I249998J0D01*
G01*
X134997502Y-64300000D01*
G75*
G02*
X135247500Y-64549998I0J-249998D01*
G01*
X135247500Y-65850002D01*
G75*
G02*
X134997502Y-66100000I-249998J0D01*
G01*
X134172498Y-66100000D01*
G75*
G02*
X133922500Y-65850002I0J249998D01*
G01*
G37*
G36*
G01*
X130797500Y-65850002D02*
X130797500Y-64549998D01*
G75*
G02*
X131047498Y-64300000I249998J0D01*
G01*
X131872502Y-64300000D01*
G75*
G02*
X132122500Y-64549998I0J-249998D01*
G01*
X132122500Y-65850002D01*
G75*
G02*
X131872502Y-66100000I-249998J0D01*
G01*
X131047498Y-66100000D01*
G75*
G02*
X130797500Y-65850002I0J249998D01*
G01*
G37*
G36*
G01*
X133875000Y-61150002D02*
X133875000Y-59849998D01*
G75*
G02*
X134124998Y-59600000I249998J0D01*
G01*
X134950002Y-59600000D01*
G75*
G02*
X135200000Y-59849998I0J-249998D01*
G01*
X135200000Y-61150002D01*
G75*
G02*
X134950002Y-61400000I-249998J0D01*
G01*
X134124998Y-61400000D01*
G75*
G02*
X133875000Y-61150002I0J249998D01*
G01*
G37*
G36*
G01*
X130750000Y-61150002D02*
X130750000Y-59849998D01*
G75*
G02*
X130999998Y-59600000I249998J0D01*
G01*
X131825002Y-59600000D01*
G75*
G02*
X132075000Y-59849998I0J-249998D01*
G01*
X132075000Y-61150002D01*
G75*
G02*
X131825002Y-61400000I-249998J0D01*
G01*
X130999998Y-61400000D01*
G75*
G02*
X130750000Y-61150002I0J249998D01*
G01*
G37*
G36*
G01*
X123625000Y-112349998D02*
X123625000Y-113650002D01*
G75*
G02*
X123375002Y-113900000I-249998J0D01*
G01*
X122549998Y-113900000D01*
G75*
G02*
X122300000Y-113650002I0J249998D01*
G01*
X122300000Y-112349998D01*
G75*
G02*
X122549998Y-112100000I249998J0D01*
G01*
X123375002Y-112100000D01*
G75*
G02*
X123625000Y-112349998I0J-249998D01*
G01*
G37*
G36*
G01*
X126750000Y-112349998D02*
X126750000Y-113650002D01*
G75*
G02*
X126500002Y-113900000I-249998J0D01*
G01*
X125674998Y-113900000D01*
G75*
G02*
X125425000Y-113650002I0J249998D01*
G01*
X125425000Y-112349998D01*
G75*
G02*
X125674998Y-112100000I249998J0D01*
G01*
X126500002Y-112100000D01*
G75*
G02*
X126750000Y-112349998I0J-249998D01*
G01*
G37*
G36*
G01*
X127075000Y-89849998D02*
X127075000Y-91150002D01*
G75*
G02*
X126825002Y-91400000I-249998J0D01*
G01*
X125999998Y-91400000D01*
G75*
G02*
X125750000Y-91150002I0J249998D01*
G01*
X125750000Y-89849998D01*
G75*
G02*
X125999998Y-89600000I249998J0D01*
G01*
X126825002Y-89600000D01*
G75*
G02*
X127075000Y-89849998I0J-249998D01*
G01*
G37*
G36*
G01*
X130200000Y-89849998D02*
X130200000Y-91150002D01*
G75*
G02*
X129950002Y-91400000I-249998J0D01*
G01*
X129124998Y-91400000D01*
G75*
G02*
X128875000Y-91150002I0J249998D01*
G01*
X128875000Y-89849998D01*
G75*
G02*
X129124998Y-89600000I249998J0D01*
G01*
X129950002Y-89600000D01*
G75*
G02*
X130200000Y-89849998I0J-249998D01*
G01*
G37*
D15*
X143576060Y-98814609D03*
X148000000Y-100000000D03*
X152423940Y-81185391D03*
X148000000Y-80000000D03*
X138500000Y-92280000D03*
X138500000Y-87700000D03*
X157500000Y-87900000D03*
X157500000Y-92480000D03*
D16*
X160000000Y-70350000D03*
D17*
X161300000Y-74300000D03*
X158700000Y-74300000D03*
D15*
X165750000Y-76150000D03*
X129000000Y-106500000D03*
D18*
G36*
X166449398Y-80950000D02*
G01*
X166449398Y-80974534D01*
X166444588Y-81023365D01*
X166435016Y-81071490D01*
X166420772Y-81118445D01*
X166401995Y-81163778D01*
X166378864Y-81207051D01*
X166351604Y-81247850D01*
X166320476Y-81285779D01*
X166285779Y-81320476D01*
X166247850Y-81351604D01*
X166207051Y-81378864D01*
X166163778Y-81401995D01*
X166118445Y-81420772D01*
X166071490Y-81435016D01*
X166023365Y-81444588D01*
X165974534Y-81449398D01*
X165950000Y-81449398D01*
X165950000Y-81450000D01*
X165450000Y-81450000D01*
X165450000Y-81449398D01*
X165425466Y-81449398D01*
X165376635Y-81444588D01*
X165328510Y-81435016D01*
X165281555Y-81420772D01*
X165236222Y-81401995D01*
X165192949Y-81378864D01*
X165152150Y-81351604D01*
X165114221Y-81320476D01*
X165079524Y-81285779D01*
X165048396Y-81247850D01*
X165021136Y-81207051D01*
X164998005Y-81163778D01*
X164979228Y-81118445D01*
X164964984Y-81071490D01*
X164955412Y-81023365D01*
X164950602Y-80974534D01*
X164950602Y-80950000D01*
X164950000Y-80950000D01*
X164950000Y-80450000D01*
X166450000Y-80450000D01*
X166450000Y-80950000D01*
X166449398Y-80950000D01*
G37*
G36*
X164950000Y-80150000D02*
G01*
X164950000Y-79650000D01*
X164950602Y-79650000D01*
X164950602Y-79625466D01*
X164955412Y-79576635D01*
X164964984Y-79528510D01*
X164979228Y-79481555D01*
X164998005Y-79436222D01*
X165021136Y-79392949D01*
X165048396Y-79352150D01*
X165079524Y-79314221D01*
X165114221Y-79279524D01*
X165152150Y-79248396D01*
X165192949Y-79221136D01*
X165236222Y-79198005D01*
X165281555Y-79179228D01*
X165328510Y-79164984D01*
X165376635Y-79155412D01*
X165425466Y-79150602D01*
X165450000Y-79150602D01*
X165450000Y-79150000D01*
X165950000Y-79150000D01*
X165950000Y-79150602D01*
X165974534Y-79150602D01*
X166023365Y-79155412D01*
X166071490Y-79164984D01*
X166118445Y-79179228D01*
X166163778Y-79198005D01*
X166207051Y-79221136D01*
X166247850Y-79248396D01*
X166285779Y-79279524D01*
X166320476Y-79314221D01*
X166351604Y-79352150D01*
X166378864Y-79392949D01*
X166401995Y-79436222D01*
X166420772Y-79481555D01*
X166435016Y-79528510D01*
X166444588Y-79576635D01*
X166449398Y-79625466D01*
X166449398Y-79650000D01*
X166450000Y-79650000D01*
X166450000Y-80150000D01*
X164950000Y-80150000D01*
G37*
G36*
X160250602Y-96650000D02*
G01*
X160250602Y-96625466D01*
X160255412Y-96576635D01*
X160264984Y-96528510D01*
X160279228Y-96481555D01*
X160298005Y-96436222D01*
X160321136Y-96392949D01*
X160348396Y-96352150D01*
X160379524Y-96314221D01*
X160414221Y-96279524D01*
X160452150Y-96248396D01*
X160492949Y-96221136D01*
X160536222Y-96198005D01*
X160581555Y-96179228D01*
X160628510Y-96164984D01*
X160676635Y-96155412D01*
X160725466Y-96150602D01*
X160750000Y-96150602D01*
X160750000Y-96150000D01*
X161250000Y-96150000D01*
X161250000Y-96150602D01*
X161274534Y-96150602D01*
X161323365Y-96155412D01*
X161371490Y-96164984D01*
X161418445Y-96179228D01*
X161463778Y-96198005D01*
X161507051Y-96221136D01*
X161547850Y-96248396D01*
X161585779Y-96279524D01*
X161620476Y-96314221D01*
X161651604Y-96352150D01*
X161678864Y-96392949D01*
X161701995Y-96436222D01*
X161720772Y-96481555D01*
X161735016Y-96528510D01*
X161744588Y-96576635D01*
X161749398Y-96625466D01*
X161749398Y-96650000D01*
X161750000Y-96650000D01*
X161750000Y-97150000D01*
X160250000Y-97150000D01*
X160250000Y-96650000D01*
X160250602Y-96650000D01*
G37*
G36*
X161750000Y-97450000D02*
G01*
X161750000Y-97950000D01*
X161749398Y-97950000D01*
X161749398Y-97974534D01*
X161744588Y-98023365D01*
X161735016Y-98071490D01*
X161720772Y-98118445D01*
X161701995Y-98163778D01*
X161678864Y-98207051D01*
X161651604Y-98247850D01*
X161620476Y-98285779D01*
X161585779Y-98320476D01*
X161547850Y-98351604D01*
X161507051Y-98378864D01*
X161463778Y-98401995D01*
X161418445Y-98420772D01*
X161371490Y-98435016D01*
X161323365Y-98444588D01*
X161274534Y-98449398D01*
X161250000Y-98449398D01*
X161250000Y-98450000D01*
X160750000Y-98450000D01*
X160750000Y-98449398D01*
X160725466Y-98449398D01*
X160676635Y-98444588D01*
X160628510Y-98435016D01*
X160581555Y-98420772D01*
X160536222Y-98401995D01*
X160492949Y-98378864D01*
X160452150Y-98351604D01*
X160414221Y-98320476D01*
X160379524Y-98285779D01*
X160348396Y-98247850D01*
X160321136Y-98207051D01*
X160298005Y-98163778D01*
X160279228Y-98118445D01*
X160264984Y-98071490D01*
X160255412Y-98023365D01*
X160250602Y-97974534D01*
X160250602Y-97950000D01*
X160250000Y-97950000D01*
X160250000Y-97450000D01*
X161750000Y-97450000D01*
G37*
G36*
X142750602Y-111350000D02*
G01*
X142750602Y-111325466D01*
X142755412Y-111276635D01*
X142764984Y-111228510D01*
X142779228Y-111181555D01*
X142798005Y-111136222D01*
X142821136Y-111092949D01*
X142848396Y-111052150D01*
X142879524Y-111014221D01*
X142914221Y-110979524D01*
X142952150Y-110948396D01*
X142992949Y-110921136D01*
X143036222Y-110898005D01*
X143081555Y-110879228D01*
X143128510Y-110864984D01*
X143176635Y-110855412D01*
X143225466Y-110850602D01*
X143250000Y-110850602D01*
X143250000Y-110850000D01*
X143750000Y-110850000D01*
X143750000Y-110850602D01*
X143774534Y-110850602D01*
X143823365Y-110855412D01*
X143871490Y-110864984D01*
X143918445Y-110879228D01*
X143963778Y-110898005D01*
X144007051Y-110921136D01*
X144047850Y-110948396D01*
X144085779Y-110979524D01*
X144120476Y-111014221D01*
X144151604Y-111052150D01*
X144178864Y-111092949D01*
X144201995Y-111136222D01*
X144220772Y-111181555D01*
X144235016Y-111228510D01*
X144244588Y-111276635D01*
X144249398Y-111325466D01*
X144249398Y-111350000D01*
X144250000Y-111350000D01*
X144250000Y-111850000D01*
X142750000Y-111850000D01*
X142750000Y-111350000D01*
X142750602Y-111350000D01*
G37*
G36*
X144250000Y-112150000D02*
G01*
X144250000Y-112650000D01*
X144249398Y-112650000D01*
X144249398Y-112674534D01*
X144244588Y-112723365D01*
X144235016Y-112771490D01*
X144220772Y-112818445D01*
X144201995Y-112863778D01*
X144178864Y-112907051D01*
X144151604Y-112947850D01*
X144120476Y-112985779D01*
X144085779Y-113020476D01*
X144047850Y-113051604D01*
X144007051Y-113078864D01*
X143963778Y-113101995D01*
X143918445Y-113120772D01*
X143871490Y-113135016D01*
X143823365Y-113144588D01*
X143774534Y-113149398D01*
X143750000Y-113149398D01*
X143750000Y-113150000D01*
X143250000Y-113150000D01*
X143250000Y-113149398D01*
X143225466Y-113149398D01*
X143176635Y-113144588D01*
X143128510Y-113135016D01*
X143081555Y-113120772D01*
X143036222Y-113101995D01*
X142992949Y-113078864D01*
X142952150Y-113051604D01*
X142914221Y-113020476D01*
X142879524Y-112985779D01*
X142848396Y-112947850D01*
X142821136Y-112907051D01*
X142798005Y-112863778D01*
X142779228Y-112818445D01*
X142764984Y-112771490D01*
X142755412Y-112723365D01*
X142750602Y-112674534D01*
X142750602Y-112650000D01*
X142750000Y-112650000D01*
X142750000Y-112150000D01*
X144250000Y-112150000D01*
G37*
D19*
X149440000Y-56500000D03*
X146900000Y-56500000D03*
X144360000Y-56500000D03*
X141820000Y-56500000D03*
X139280000Y-56500000D03*
X136740000Y-56500000D03*
X134200000Y-56500000D03*
X131660000Y-56500000D03*
X129120000Y-56500000D03*
X126580000Y-56500000D03*
X124040000Y-56500000D03*
D20*
X121500000Y-56500000D03*
G36*
G01*
X162190000Y-85487500D02*
X161890000Y-85487500D01*
G75*
G02*
X161740000Y-85337500I0J150000D01*
G01*
X161740000Y-83662500D01*
G75*
G02*
X161890000Y-83512500I150000J0D01*
G01*
X162190000Y-83512500D01*
G75*
G02*
X162340000Y-83662500I0J-150000D01*
G01*
X162340000Y-85337500D01*
G75*
G02*
X162190000Y-85487500I-150000J0D01*
G01*
G37*
G36*
G01*
X163460000Y-85487500D02*
X163160000Y-85487500D01*
G75*
G02*
X163010000Y-85337500I0J150000D01*
G01*
X163010000Y-83662500D01*
G75*
G02*
X163160000Y-83512500I150000J0D01*
G01*
X163460000Y-83512500D01*
G75*
G02*
X163610000Y-83662500I0J-150000D01*
G01*
X163610000Y-85337500D01*
G75*
G02*
X163460000Y-85487500I-150000J0D01*
G01*
G37*
G36*
G01*
X164730000Y-85487500D02*
X164430000Y-85487500D01*
G75*
G02*
X164280000Y-85337500I0J150000D01*
G01*
X164280000Y-83662500D01*
G75*
G02*
X164430000Y-83512500I150000J0D01*
G01*
X164730000Y-83512500D01*
G75*
G02*
X164880000Y-83662500I0J-150000D01*
G01*
X164880000Y-85337500D01*
G75*
G02*
X164730000Y-85487500I-150000J0D01*
G01*
G37*
G36*
G01*
X166000000Y-85487500D02*
X165700000Y-85487500D01*
G75*
G02*
X165550000Y-85337500I0J150000D01*
G01*
X165550000Y-83662500D01*
G75*
G02*
X165700000Y-83512500I150000J0D01*
G01*
X166000000Y-83512500D01*
G75*
G02*
X166150000Y-83662500I0J-150000D01*
G01*
X166150000Y-85337500D01*
G75*
G02*
X166000000Y-85487500I-150000J0D01*
G01*
G37*
G36*
G01*
X167270000Y-85487500D02*
X166970000Y-85487500D01*
G75*
G02*
X166820000Y-85337500I0J150000D01*
G01*
X166820000Y-83662500D01*
G75*
G02*
X166970000Y-83512500I150000J0D01*
G01*
X167270000Y-83512500D01*
G75*
G02*
X167420000Y-83662500I0J-150000D01*
G01*
X167420000Y-85337500D01*
G75*
G02*
X167270000Y-85487500I-150000J0D01*
G01*
G37*
G36*
G01*
X168540000Y-85487500D02*
X168240000Y-85487500D01*
G75*
G02*
X168090000Y-85337500I0J150000D01*
G01*
X168090000Y-83662500D01*
G75*
G02*
X168240000Y-83512500I150000J0D01*
G01*
X168540000Y-83512500D01*
G75*
G02*
X168690000Y-83662500I0J-150000D01*
G01*
X168690000Y-85337500D01*
G75*
G02*
X168540000Y-85487500I-150000J0D01*
G01*
G37*
G36*
G01*
X169810000Y-85487500D02*
X169510000Y-85487500D01*
G75*
G02*
X169360000Y-85337500I0J150000D01*
G01*
X169360000Y-83662500D01*
G75*
G02*
X169510000Y-83512500I150000J0D01*
G01*
X169810000Y-83512500D01*
G75*
G02*
X169960000Y-83662500I0J-150000D01*
G01*
X169960000Y-85337500D01*
G75*
G02*
X169810000Y-85487500I-150000J0D01*
G01*
G37*
G36*
G01*
X169810000Y-92412500D02*
X169510000Y-92412500D01*
G75*
G02*
X169360000Y-92262500I0J150000D01*
G01*
X169360000Y-90587500D01*
G75*
G02*
X169510000Y-90437500I150000J0D01*
G01*
X169810000Y-90437500D01*
G75*
G02*
X169960000Y-90587500I0J-150000D01*
G01*
X169960000Y-92262500D01*
G75*
G02*
X169810000Y-92412500I-150000J0D01*
G01*
G37*
G36*
G01*
X168540000Y-92412500D02*
X168240000Y-92412500D01*
G75*
G02*
X168090000Y-92262500I0J150000D01*
G01*
X168090000Y-90587500D01*
G75*
G02*
X168240000Y-90437500I150000J0D01*
G01*
X168540000Y-90437500D01*
G75*
G02*
X168690000Y-90587500I0J-150000D01*
G01*
X168690000Y-92262500D01*
G75*
G02*
X168540000Y-92412500I-150000J0D01*
G01*
G37*
G36*
G01*
X167270000Y-92412500D02*
X166970000Y-92412500D01*
G75*
G02*
X166820000Y-92262500I0J150000D01*
G01*
X166820000Y-90587500D01*
G75*
G02*
X166970000Y-90437500I150000J0D01*
G01*
X167270000Y-90437500D01*
G75*
G02*
X167420000Y-90587500I0J-150000D01*
G01*
X167420000Y-92262500D01*
G75*
G02*
X167270000Y-92412500I-150000J0D01*
G01*
G37*
G36*
G01*
X166000000Y-92412500D02*
X165700000Y-92412500D01*
G75*
G02*
X165550000Y-92262500I0J150000D01*
G01*
X165550000Y-90587500D01*
G75*
G02*
X165700000Y-90437500I150000J0D01*
G01*
X166000000Y-90437500D01*
G75*
G02*
X166150000Y-90587500I0J-150000D01*
G01*
X166150000Y-92262500D01*
G75*
G02*
X166000000Y-92412500I-150000J0D01*
G01*
G37*
G36*
G01*
X164730000Y-92412500D02*
X164430000Y-92412500D01*
G75*
G02*
X164280000Y-92262500I0J150000D01*
G01*
X164280000Y-90587500D01*
G75*
G02*
X164430000Y-90437500I150000J0D01*
G01*
X164730000Y-90437500D01*
G75*
G02*
X164880000Y-90587500I0J-150000D01*
G01*
X164880000Y-92262500D01*
G75*
G02*
X164730000Y-92412500I-150000J0D01*
G01*
G37*
G36*
G01*
X163460000Y-92412500D02*
X163160000Y-92412500D01*
G75*
G02*
X163010000Y-92262500I0J150000D01*
G01*
X163010000Y-90587500D01*
G75*
G02*
X163160000Y-90437500I150000J0D01*
G01*
X163460000Y-90437500D01*
G75*
G02*
X163610000Y-90587500I0J-150000D01*
G01*
X163610000Y-92262500D01*
G75*
G02*
X163460000Y-92412500I-150000J0D01*
G01*
G37*
G36*
G01*
X162190000Y-92412500D02*
X161890000Y-92412500D01*
G75*
G02*
X161740000Y-92262500I0J150000D01*
G01*
X161740000Y-90587500D01*
G75*
G02*
X161890000Y-90437500I150000J0D01*
G01*
X162190000Y-90437500D01*
G75*
G02*
X162340000Y-90587500I0J-150000D01*
G01*
X162340000Y-92262500D01*
G75*
G02*
X162190000Y-92412500I-150000J0D01*
G01*
G37*
G36*
G01*
X138437500Y-103760000D02*
X138437500Y-103460000D01*
G75*
G02*
X138587500Y-103310000I150000J0D01*
G01*
X140262500Y-103310000D01*
G75*
G02*
X140412500Y-103460000I0J-150000D01*
G01*
X140412500Y-103760000D01*
G75*
G02*
X140262500Y-103910000I-150000J0D01*
G01*
X138587500Y-103910000D01*
G75*
G02*
X138437500Y-103760000I0J150000D01*
G01*
G37*
G36*
G01*
X138437500Y-105030000D02*
X138437500Y-104730000D01*
G75*
G02*
X138587500Y-104580000I150000J0D01*
G01*
X140262500Y-104580000D01*
G75*
G02*
X140412500Y-104730000I0J-150000D01*
G01*
X140412500Y-105030000D01*
G75*
G02*
X140262500Y-105180000I-150000J0D01*
G01*
X138587500Y-105180000D01*
G75*
G02*
X138437500Y-105030000I0J150000D01*
G01*
G37*
G36*
G01*
X138437500Y-106300000D02*
X138437500Y-106000000D01*
G75*
G02*
X138587500Y-105850000I150000J0D01*
G01*
X140262500Y-105850000D01*
G75*
G02*
X140412500Y-106000000I0J-150000D01*
G01*
X140412500Y-106300000D01*
G75*
G02*
X140262500Y-106450000I-150000J0D01*
G01*
X138587500Y-106450000D01*
G75*
G02*
X138437500Y-106300000I0J150000D01*
G01*
G37*
G36*
G01*
X138437500Y-107570000D02*
X138437500Y-107270000D01*
G75*
G02*
X138587500Y-107120000I150000J0D01*
G01*
X140262500Y-107120000D01*
G75*
G02*
X140412500Y-107270000I0J-150000D01*
G01*
X140412500Y-107570000D01*
G75*
G02*
X140262500Y-107720000I-150000J0D01*
G01*
X138587500Y-107720000D01*
G75*
G02*
X138437500Y-107570000I0J150000D01*
G01*
G37*
G36*
G01*
X138437500Y-108840000D02*
X138437500Y-108540000D01*
G75*
G02*
X138587500Y-108390000I150000J0D01*
G01*
X140262500Y-108390000D01*
G75*
G02*
X140412500Y-108540000I0J-150000D01*
G01*
X140412500Y-108840000D01*
G75*
G02*
X140262500Y-108990000I-150000J0D01*
G01*
X138587500Y-108990000D01*
G75*
G02*
X138437500Y-108840000I0J150000D01*
G01*
G37*
G36*
G01*
X138437500Y-110110000D02*
X138437500Y-109810000D01*
G75*
G02*
X138587500Y-109660000I150000J0D01*
G01*
X140262500Y-109660000D01*
G75*
G02*
X140412500Y-109810000I0J-150000D01*
G01*
X140412500Y-110110000D01*
G75*
G02*
X140262500Y-110260000I-150000J0D01*
G01*
X138587500Y-110260000D01*
G75*
G02*
X138437500Y-110110000I0J150000D01*
G01*
G37*
G36*
G01*
X138437500Y-111380000D02*
X138437500Y-111080000D01*
G75*
G02*
X138587500Y-110930000I150000J0D01*
G01*
X140262500Y-110930000D01*
G75*
G02*
X140412500Y-111080000I0J-150000D01*
G01*
X140412500Y-111380000D01*
G75*
G02*
X140262500Y-111530000I-150000J0D01*
G01*
X138587500Y-111530000D01*
G75*
G02*
X138437500Y-111380000I0J150000D01*
G01*
G37*
G36*
G01*
X138437500Y-112650000D02*
X138437500Y-112350000D01*
G75*
G02*
X138587500Y-112200000I150000J0D01*
G01*
X140262500Y-112200000D01*
G75*
G02*
X140412500Y-112350000I0J-150000D01*
G01*
X140412500Y-112650000D01*
G75*
G02*
X140262500Y-112800000I-150000J0D01*
G01*
X138587500Y-112800000D01*
G75*
G02*
X138437500Y-112650000I0J150000D01*
G01*
G37*
G36*
G01*
X131512500Y-112650000D02*
X131512500Y-112350000D01*
G75*
G02*
X131662500Y-112200000I150000J0D01*
G01*
X133337500Y-112200000D01*
G75*
G02*
X133487500Y-112350000I0J-150000D01*
G01*
X133487500Y-112650000D01*
G75*
G02*
X133337500Y-112800000I-150000J0D01*
G01*
X131662500Y-112800000D01*
G75*
G02*
X131512500Y-112650000I0J150000D01*
G01*
G37*
G36*
G01*
X131512500Y-111380000D02*
X131512500Y-111080000D01*
G75*
G02*
X131662500Y-110930000I150000J0D01*
G01*
X133337500Y-110930000D01*
G75*
G02*
X133487500Y-111080000I0J-150000D01*
G01*
X133487500Y-111380000D01*
G75*
G02*
X133337500Y-111530000I-150000J0D01*
G01*
X131662500Y-111530000D01*
G75*
G02*
X131512500Y-111380000I0J150000D01*
G01*
G37*
G36*
G01*
X131512500Y-110110000D02*
X131512500Y-109810000D01*
G75*
G02*
X131662500Y-109660000I150000J0D01*
G01*
X133337500Y-109660000D01*
G75*
G02*
X133487500Y-109810000I0J-150000D01*
G01*
X133487500Y-110110000D01*
G75*
G02*
X133337500Y-110260000I-150000J0D01*
G01*
X131662500Y-110260000D01*
G75*
G02*
X131512500Y-110110000I0J150000D01*
G01*
G37*
G36*
G01*
X131512500Y-108840000D02*
X131512500Y-108540000D01*
G75*
G02*
X131662500Y-108390000I150000J0D01*
G01*
X133337500Y-108390000D01*
G75*
G02*
X133487500Y-108540000I0J-150000D01*
G01*
X133487500Y-108840000D01*
G75*
G02*
X133337500Y-108990000I-150000J0D01*
G01*
X131662500Y-108990000D01*
G75*
G02*
X131512500Y-108840000I0J150000D01*
G01*
G37*
G36*
G01*
X131512500Y-107570000D02*
X131512500Y-107270000D01*
G75*
G02*
X131662500Y-107120000I150000J0D01*
G01*
X133337500Y-107120000D01*
G75*
G02*
X133487500Y-107270000I0J-150000D01*
G01*
X133487500Y-107570000D01*
G75*
G02*
X133337500Y-107720000I-150000J0D01*
G01*
X131662500Y-107720000D01*
G75*
G02*
X131512500Y-107570000I0J150000D01*
G01*
G37*
G36*
G01*
X131512500Y-106300000D02*
X131512500Y-106000000D01*
G75*
G02*
X131662500Y-105850000I150000J0D01*
G01*
X133337500Y-105850000D01*
G75*
G02*
X133487500Y-106000000I0J-150000D01*
G01*
X133487500Y-106300000D01*
G75*
G02*
X133337500Y-106450000I-150000J0D01*
G01*
X131662500Y-106450000D01*
G75*
G02*
X131512500Y-106300000I0J150000D01*
G01*
G37*
G36*
G01*
X131512500Y-105030000D02*
X131512500Y-104730000D01*
G75*
G02*
X131662500Y-104580000I150000J0D01*
G01*
X133337500Y-104580000D01*
G75*
G02*
X133487500Y-104730000I0J-150000D01*
G01*
X133487500Y-105030000D01*
G75*
G02*
X133337500Y-105180000I-150000J0D01*
G01*
X131662500Y-105180000D01*
G75*
G02*
X131512500Y-105030000I0J150000D01*
G01*
G37*
G36*
G01*
X131512500Y-103760000D02*
X131512500Y-103460000D01*
G75*
G02*
X131662500Y-103310000I150000J0D01*
G01*
X133337500Y-103310000D01*
G75*
G02*
X133487500Y-103460000I0J-150000D01*
G01*
X133487500Y-103760000D01*
G75*
G02*
X133337500Y-103910000I-150000J0D01*
G01*
X131662500Y-103910000D01*
G75*
G02*
X131512500Y-103760000I0J150000D01*
G01*
G37*
G36*
G01*
X133242641Y-71818019D02*
X133242641Y-71818019D01*
G75*
G02*
X132358757Y-71818019I-441942J441942D01*
G01*
X132181981Y-71641243D01*
G75*
G02*
X132181981Y-70757359I441942J441942D01*
G01*
X132181981Y-70757359D01*
G75*
G02*
X133065865Y-70757359I441942J-441942D01*
G01*
X133242641Y-70934135D01*
G75*
G02*
X133242641Y-71818019I-441942J-441942D01*
G01*
G37*
G36*
G01*
X132005204Y-73055456D02*
X132005204Y-73055456D01*
G75*
G02*
X131121320Y-73055456I-441942J441942D01*
G01*
X130944544Y-72878680D01*
G75*
G02*
X130944544Y-71994796I441942J441942D01*
G01*
X130944544Y-71994796D01*
G75*
G02*
X131828428Y-71994796I441942J-441942D01*
G01*
X132005204Y-72171572D01*
G75*
G02*
X132005204Y-73055456I-441942J-441942D01*
G01*
G37*
G36*
G01*
X130767767Y-74292893D02*
X130767767Y-74292893D01*
G75*
G02*
X129883883Y-74292893I-441942J441942D01*
G01*
X129707107Y-74116117D01*
G75*
G02*
X129707107Y-73232233I441942J441942D01*
G01*
X129707107Y-73232233D01*
G75*
G02*
X130590991Y-73232233I441942J-441942D01*
G01*
X130767767Y-73409009D01*
G75*
G02*
X130767767Y-74292893I-441942J-441942D01*
G01*
G37*
D18*
G36*
X129972272Y-75088388D02*
G01*
X129088388Y-75972272D01*
X128027728Y-74911612D01*
X128911612Y-74027728D01*
X129972272Y-75088388D01*
G37*
G36*
G01*
X141075079Y-67460984D02*
X141075079Y-67460984D01*
G75*
G02*
X140244501Y-67158678I-264136J566442D01*
G01*
X140138847Y-66932102D01*
G75*
G02*
X140441153Y-66101524I566442J264136D01*
G01*
X140441153Y-66101524D01*
G75*
G02*
X141271731Y-66403830I264136J-566442D01*
G01*
X141377385Y-66630406D01*
G75*
G02*
X141075079Y-67460984I-566442J-264136D01*
G01*
G37*
G36*
G01*
X139489040Y-68200566D02*
X139489040Y-68200566D01*
G75*
G02*
X138658462Y-67898260I-264136J566442D01*
G01*
X138552808Y-67671684D01*
G75*
G02*
X138855114Y-66841106I566442J264136D01*
G01*
X138855114Y-66841106D01*
G75*
G02*
X139685692Y-67143412I264136J-566442D01*
G01*
X139791346Y-67369988D01*
G75*
G02*
X139489040Y-68200566I-566442J-264136D01*
G01*
G37*
G36*
G01*
X137903002Y-68940148D02*
X137903002Y-68940148D01*
G75*
G02*
X137072424Y-68637842I-264136J566442D01*
G01*
X136966770Y-68411266D01*
G75*
G02*
X137269076Y-67580688I566442J264136D01*
G01*
X137269076Y-67580688D01*
G75*
G02*
X138099654Y-67882994I264136J-566442D01*
G01*
X138205308Y-68109570D01*
G75*
G02*
X137903002Y-68940148I-566442J-264136D01*
G01*
G37*
G36*
X136883406Y-69415594D02*
G01*
X135750521Y-69943867D01*
X135116594Y-68584406D01*
X136249479Y-68056133D01*
X136883406Y-69415594D01*
G37*
G36*
G01*
X130700000Y-82950000D02*
X130700000Y-84050000D01*
G75*
G02*
X130450000Y-84300000I-250000J0D01*
G01*
X128350000Y-84300000D01*
G75*
G02*
X128100000Y-84050000I0J250000D01*
G01*
X128100000Y-82950000D01*
G75*
G02*
X128350000Y-82700000I250000J0D01*
G01*
X130450000Y-82700000D01*
G75*
G02*
X130700000Y-82950000I0J-250000D01*
G01*
G37*
G36*
G01*
X134300000Y-82950000D02*
X134300000Y-84050000D01*
G75*
G02*
X134050000Y-84300000I-250000J0D01*
G01*
X131950000Y-84300000D01*
G75*
G02*
X131700000Y-84050000I0J250000D01*
G01*
X131700000Y-82950000D01*
G75*
G02*
X131950000Y-82700000I250000J0D01*
G01*
X134050000Y-82700000D01*
G75*
G02*
X134300000Y-82950000I0J-250000D01*
G01*
G37*
G36*
G01*
X148800000Y-72050000D02*
X148800000Y-70950000D01*
G75*
G02*
X149050000Y-70700000I250000J0D01*
G01*
X151150000Y-70700000D01*
G75*
G02*
X151400000Y-70950000I0J-250000D01*
G01*
X151400000Y-72050000D01*
G75*
G02*
X151150000Y-72300000I-250000J0D01*
G01*
X149050000Y-72300000D01*
G75*
G02*
X148800000Y-72050000I0J250000D01*
G01*
G37*
G36*
G01*
X145200000Y-72050000D02*
X145200000Y-70950000D01*
G75*
G02*
X145450000Y-70700000I250000J0D01*
G01*
X147550000Y-70700000D01*
G75*
G02*
X147800000Y-70950000I0J-250000D01*
G01*
X147800000Y-72050000D01*
G75*
G02*
X147550000Y-72300000I-250000J0D01*
G01*
X145450000Y-72300000D01*
G75*
G02*
X145200000Y-72050000I0J250000D01*
G01*
G37*
G36*
G01*
X123550000Y-64000000D02*
X122450000Y-64000000D01*
G75*
G02*
X122200000Y-63750000I0J250000D01*
G01*
X122200000Y-61650000D01*
G75*
G02*
X122450000Y-61400000I250000J0D01*
G01*
X123550000Y-61400000D01*
G75*
G02*
X123800000Y-61650000I0J-250000D01*
G01*
X123800000Y-63750000D01*
G75*
G02*
X123550000Y-64000000I-250000J0D01*
G01*
G37*
G36*
G01*
X123550000Y-67600000D02*
X122450000Y-67600000D01*
G75*
G02*
X122200000Y-67350000I0J250000D01*
G01*
X122200000Y-65250000D01*
G75*
G02*
X122450000Y-65000000I250000J0D01*
G01*
X123550000Y-65000000D01*
G75*
G02*
X123800000Y-65250000I0J-250000D01*
G01*
X123800000Y-67350000D01*
G75*
G02*
X123550000Y-67600000I-250000J0D01*
G01*
G37*
G36*
G01*
X140300000Y-75750000D02*
X140300000Y-74650000D01*
G75*
G02*
X140550000Y-74400000I250000J0D01*
G01*
X142650000Y-74400000D01*
G75*
G02*
X142900000Y-74650000I0J-250000D01*
G01*
X142900000Y-75750000D01*
G75*
G02*
X142650000Y-76000000I-250000J0D01*
G01*
X140550000Y-76000000D01*
G75*
G02*
X140300000Y-75750000I0J250000D01*
G01*
G37*
G36*
G01*
X136700000Y-75750000D02*
X136700000Y-74650000D01*
G75*
G02*
X136950000Y-74400000I250000J0D01*
G01*
X139050000Y-74400000D01*
G75*
G02*
X139300000Y-74650000I0J-250000D01*
G01*
X139300000Y-75750000D01*
G75*
G02*
X139050000Y-76000000I-250000J0D01*
G01*
X136950000Y-76000000D01*
G75*
G02*
X136700000Y-75750000I0J250000D01*
G01*
G37*
G36*
G01*
X126350000Y-71600000D02*
X125250000Y-71600000D01*
G75*
G02*
X125000000Y-71350000I0J250000D01*
G01*
X125000000Y-69250000D01*
G75*
G02*
X125250000Y-69000000I250000J0D01*
G01*
X126350000Y-69000000D01*
G75*
G02*
X126600000Y-69250000I0J-250000D01*
G01*
X126600000Y-71350000D01*
G75*
G02*
X126350000Y-71600000I-250000J0D01*
G01*
G37*
G36*
G01*
X126350000Y-75200000D02*
X125250000Y-75200000D01*
G75*
G02*
X125000000Y-74950000I0J250000D01*
G01*
X125000000Y-72850000D01*
G75*
G02*
X125250000Y-72600000I250000J0D01*
G01*
X126350000Y-72600000D01*
G75*
G02*
X126600000Y-72850000I0J-250000D01*
G01*
X126600000Y-74950000D01*
G75*
G02*
X126350000Y-75200000I-250000J0D01*
G01*
G37*
G36*
G01*
X123550000Y-96500000D02*
X122450000Y-96500000D01*
G75*
G02*
X122200000Y-96250000I0J250000D01*
G01*
X122200000Y-94150000D01*
G75*
G02*
X122450000Y-93900000I250000J0D01*
G01*
X123550000Y-93900000D01*
G75*
G02*
X123800000Y-94150000I0J-250000D01*
G01*
X123800000Y-96250000D01*
G75*
G02*
X123550000Y-96500000I-250000J0D01*
G01*
G37*
G36*
G01*
X123550000Y-100100000D02*
X122450000Y-100100000D01*
G75*
G02*
X122200000Y-99850000I0J250000D01*
G01*
X122200000Y-97750000D01*
G75*
G02*
X122450000Y-97500000I250000J0D01*
G01*
X123550000Y-97500000D01*
G75*
G02*
X123800000Y-97750000I0J-250000D01*
G01*
X123800000Y-99850000D01*
G75*
G02*
X123550000Y-100100000I-250000J0D01*
G01*
G37*
G36*
G01*
X123750000Y-86150000D02*
X122650000Y-86150000D01*
G75*
G02*
X122400000Y-85900000I0J250000D01*
G01*
X122400000Y-83800000D01*
G75*
G02*
X122650000Y-83550000I250000J0D01*
G01*
X123750000Y-83550000D01*
G75*
G02*
X124000000Y-83800000I0J-250000D01*
G01*
X124000000Y-85900000D01*
G75*
G02*
X123750000Y-86150000I-250000J0D01*
G01*
G37*
G36*
G01*
X123750000Y-89750000D02*
X122650000Y-89750000D01*
G75*
G02*
X122400000Y-89500000I0J250000D01*
G01*
X122400000Y-87400000D01*
G75*
G02*
X122650000Y-87150000I250000J0D01*
G01*
X123750000Y-87150000D01*
G75*
G02*
X124000000Y-87400000I0J-250000D01*
G01*
X124000000Y-89500000D01*
G75*
G02*
X123750000Y-89750000I-250000J0D01*
G01*
G37*
D21*
X148000000Y-115000000D03*
X148000000Y-110000000D03*
X160800000Y-101700000D03*
X160800000Y-106200000D03*
M02*
