G04 #@! TF.GenerationSoftware,KiCad,Pcbnew,5.1.10-88a1d61d58~88~ubuntu18.04.1*
G04 #@! TF.CreationDate,2024-09-12T22:28:14-04:00*
G04 #@! TF.ProjectId,238-capstan,3233382d-6361-4707-9374-616e2e6b6963,rev?*
G04 #@! TF.SameCoordinates,Original*
G04 #@! TF.FileFunction,Copper,L2,Bot*
G04 #@! TF.FilePolarity,Positive*
%FSLAX46Y46*%
G04 Gerber Fmt 4.6, Leading zero omitted, Abs format (unit mm)*
G04 Created by KiCad (PCBNEW 5.1.10-88a1d61d58~88~ubuntu18.04.1) date 2024-09-12 22:28:14*
%MOMM*%
%LPD*%
G01*
G04 APERTURE LIST*
G04 #@! TA.AperFunction,ComponentPad*
%ADD10O,2.500000X2.000000*%
G04 #@! TD*
G04 #@! TA.AperFunction,ComponentPad*
%ADD11O,2.000000X2.000000*%
G04 #@! TD*
G04 #@! TA.AperFunction,ComponentPad*
%ADD12O,1.700000X2.100000*%
G04 #@! TD*
G04 #@! TA.AperFunction,ComponentPad*
%ADD13R,1.700000X2.100000*%
G04 #@! TD*
G04 #@! TA.AperFunction,ComponentPad*
%ADD14C,0.100000*%
G04 #@! TD*
G04 #@! TA.AperFunction,NonConductor*
%ADD15C,0.254000*%
G04 #@! TD*
G04 #@! TA.AperFunction,NonConductor*
%ADD16C,0.100000*%
G04 #@! TD*
G04 APERTURE END LIST*
D10*
X120000000Y-68960000D03*
X120000000Y-71500000D03*
X174200000Y-102430000D03*
X174200000Y-99890000D03*
X174200000Y-97350000D03*
X121200000Y-78000000D03*
X121200000Y-75460000D03*
D11*
X174400000Y-83600000D03*
X174400000Y-86140000D03*
X174400000Y-88680000D03*
G04 #@! TA.AperFunction,ComponentPad*
G36*
G01*
X175400000Y-90720000D02*
X175400000Y-91720000D01*
G75*
G02*
X174900000Y-92220000I-500000J0D01*
G01*
X173900000Y-92220000D01*
G75*
G02*
X173400000Y-91720000I0J500000D01*
G01*
X173400000Y-90720000D01*
G75*
G02*
X173900000Y-90220000I500000J0D01*
G01*
X174900000Y-90220000D01*
G75*
G02*
X175400000Y-90720000I0J-500000D01*
G01*
G37*
G04 #@! TD.AperFunction*
D12*
X149440000Y-56500000D03*
X146900000Y-56500000D03*
X144360000Y-56500000D03*
X141820000Y-56500000D03*
X139280000Y-56500000D03*
X136740000Y-56500000D03*
X134200000Y-56500000D03*
X131660000Y-56500000D03*
X129120000Y-56500000D03*
X126580000Y-56500000D03*
X124040000Y-56500000D03*
D13*
X121500000Y-56500000D03*
G04 #@! TA.AperFunction,ComponentPad*
G36*
G01*
X133242641Y-71818019D02*
X133242641Y-71818019D01*
G75*
G02*
X132358757Y-71818019I-441942J441942D01*
G01*
X132181981Y-71641243D01*
G75*
G02*
X132181981Y-70757359I441942J441942D01*
G01*
X132181981Y-70757359D01*
G75*
G02*
X133065865Y-70757359I441942J-441942D01*
G01*
X133242641Y-70934135D01*
G75*
G02*
X133242641Y-71818019I-441942J-441942D01*
G01*
G37*
G04 #@! TD.AperFunction*
G04 #@! TA.AperFunction,ComponentPad*
G36*
G01*
X132005204Y-73055456D02*
X132005204Y-73055456D01*
G75*
G02*
X131121320Y-73055456I-441942J441942D01*
G01*
X130944544Y-72878680D01*
G75*
G02*
X130944544Y-71994796I441942J441942D01*
G01*
X130944544Y-71994796D01*
G75*
G02*
X131828428Y-71994796I441942J-441942D01*
G01*
X132005204Y-72171572D01*
G75*
G02*
X132005204Y-73055456I-441942J-441942D01*
G01*
G37*
G04 #@! TD.AperFunction*
G04 #@! TA.AperFunction,ComponentPad*
G36*
G01*
X130767767Y-74292893D02*
X130767767Y-74292893D01*
G75*
G02*
X129883883Y-74292893I-441942J441942D01*
G01*
X129707107Y-74116117D01*
G75*
G02*
X129707107Y-73232233I441942J441942D01*
G01*
X129707107Y-73232233D01*
G75*
G02*
X130590991Y-73232233I441942J-441942D01*
G01*
X130767767Y-73409009D01*
G75*
G02*
X130767767Y-74292893I-441942J-441942D01*
G01*
G37*
G04 #@! TD.AperFunction*
G04 #@! TA.AperFunction,ComponentPad*
D14*
G36*
X129972272Y-75088388D02*
G01*
X129088388Y-75972272D01*
X128027728Y-74911612D01*
X128911612Y-74027728D01*
X129972272Y-75088388D01*
G37*
G04 #@! TD.AperFunction*
G04 #@! TA.AperFunction,ComponentPad*
G36*
G01*
X141075079Y-67460984D02*
X141075079Y-67460984D01*
G75*
G02*
X140244501Y-67158678I-264136J566442D01*
G01*
X140138847Y-66932102D01*
G75*
G02*
X140441153Y-66101524I566442J264136D01*
G01*
X140441153Y-66101524D01*
G75*
G02*
X141271731Y-66403830I264136J-566442D01*
G01*
X141377385Y-66630406D01*
G75*
G02*
X141075079Y-67460984I-566442J-264136D01*
G01*
G37*
G04 #@! TD.AperFunction*
G04 #@! TA.AperFunction,ComponentPad*
G36*
G01*
X139489040Y-68200566D02*
X139489040Y-68200566D01*
G75*
G02*
X138658462Y-67898260I-264136J566442D01*
G01*
X138552808Y-67671684D01*
G75*
G02*
X138855114Y-66841106I566442J264136D01*
G01*
X138855114Y-66841106D01*
G75*
G02*
X139685692Y-67143412I264136J-566442D01*
G01*
X139791346Y-67369988D01*
G75*
G02*
X139489040Y-68200566I-566442J-264136D01*
G01*
G37*
G04 #@! TD.AperFunction*
G04 #@! TA.AperFunction,ComponentPad*
G36*
G01*
X137903002Y-68940148D02*
X137903002Y-68940148D01*
G75*
G02*
X137072424Y-68637842I-264136J566442D01*
G01*
X136966770Y-68411266D01*
G75*
G02*
X137269076Y-67580688I566442J264136D01*
G01*
X137269076Y-67580688D01*
G75*
G02*
X138099654Y-67882994I264136J-566442D01*
G01*
X138205308Y-68109570D01*
G75*
G02*
X137903002Y-68940148I-566442J-264136D01*
G01*
G37*
G04 #@! TD.AperFunction*
G04 #@! TA.AperFunction,ComponentPad*
G36*
X136883406Y-69415594D02*
G01*
X135750521Y-69943867D01*
X135116594Y-68584406D01*
X136249479Y-68056133D01*
X136883406Y-69415594D01*
G37*
G04 #@! TD.AperFunction*
D15*
X154397616Y-58313831D02*
X154254247Y-58218035D01*
X153580260Y-57938860D01*
X152864759Y-57796538D01*
X152135241Y-57796538D01*
X151419740Y-57938860D01*
X150745753Y-58218035D01*
X150139181Y-58623334D01*
X149623334Y-59139181D01*
X149218035Y-59745753D01*
X148938860Y-60419740D01*
X148796538Y-61135241D01*
X148796538Y-61864759D01*
X148938860Y-62580260D01*
X149218035Y-63254247D01*
X149623334Y-63860819D01*
X150139181Y-64376666D01*
X150745753Y-64781965D01*
X151419740Y-65061140D01*
X152135241Y-65203462D01*
X152864759Y-65203462D01*
X153580260Y-65061140D01*
X154254247Y-64781965D01*
X154860819Y-64376666D01*
X154930820Y-64306665D01*
X154906660Y-64364992D01*
X154823000Y-64785584D01*
X154823000Y-65214416D01*
X154906660Y-65635008D01*
X155070767Y-66031196D01*
X155309013Y-66387757D01*
X155612243Y-66690987D01*
X155968804Y-66929233D01*
X156364992Y-67093340D01*
X156785584Y-67177000D01*
X157214416Y-67177000D01*
X157635008Y-67093340D01*
X158031196Y-66929233D01*
X158387757Y-66690987D01*
X158690987Y-66387757D01*
X158929233Y-66031196D01*
X159093340Y-65635008D01*
X159177000Y-65214416D01*
X159177000Y-64785584D01*
X159093340Y-64364992D01*
X158929233Y-63968804D01*
X158690987Y-63612243D01*
X158387757Y-63309013D01*
X158031196Y-63070767D01*
X157635008Y-62906660D01*
X157214416Y-62823000D01*
X156785584Y-62823000D01*
X156364992Y-62906660D01*
X155968804Y-63070767D01*
X155815549Y-63173169D01*
X156061140Y-62580260D01*
X156203462Y-61864759D01*
X156203462Y-61135241D01*
X156061140Y-60419740D01*
X155900100Y-60030956D01*
X175340001Y-82247986D01*
X175340001Y-82261691D01*
X175174463Y-82151082D01*
X174876912Y-82027832D01*
X174561033Y-81965000D01*
X174238967Y-81965000D01*
X173923088Y-82027832D01*
X173625537Y-82151082D01*
X173357748Y-82330013D01*
X173130013Y-82557748D01*
X172951082Y-82825537D01*
X172827832Y-83123088D01*
X172765000Y-83438967D01*
X172765000Y-83761033D01*
X172827832Y-84076912D01*
X172951082Y-84374463D01*
X173130013Y-84642252D01*
X173357748Y-84869987D01*
X173357767Y-84870000D01*
X173357748Y-84870013D01*
X173130013Y-85097748D01*
X172951082Y-85365537D01*
X172827832Y-85663088D01*
X172765000Y-85978967D01*
X172765000Y-86301033D01*
X172827832Y-86616912D01*
X172951082Y-86914463D01*
X173130013Y-87182252D01*
X173357748Y-87409987D01*
X173357767Y-87410000D01*
X173357748Y-87410013D01*
X173130013Y-87637748D01*
X172951082Y-87905537D01*
X172827832Y-88203088D01*
X172765000Y-88518967D01*
X172765000Y-88841033D01*
X172827832Y-89156912D01*
X172951082Y-89454463D01*
X173130013Y-89722252D01*
X173220359Y-89812598D01*
X173095262Y-89915262D01*
X172953728Y-90087721D01*
X172848559Y-90284479D01*
X172783796Y-90497973D01*
X172761928Y-90720000D01*
X172761928Y-91720000D01*
X172783796Y-91942027D01*
X172848559Y-92155521D01*
X172953728Y-92352279D01*
X173095262Y-92524738D01*
X173267721Y-92666272D01*
X173464479Y-92771441D01*
X173677973Y-92836204D01*
X173900000Y-92858072D01*
X174900000Y-92858072D01*
X175122027Y-92836204D01*
X175335521Y-92771441D01*
X175340001Y-92769047D01*
X175340001Y-95971808D01*
X175078715Y-95832148D01*
X174770516Y-95738657D01*
X174530322Y-95715000D01*
X173869678Y-95715000D01*
X173629484Y-95738657D01*
X173321285Y-95832148D01*
X173037248Y-95983969D01*
X172788286Y-96188286D01*
X172583969Y-96437248D01*
X172432148Y-96721285D01*
X172338657Y-97029484D01*
X172307089Y-97350000D01*
X172338657Y-97670516D01*
X172432148Y-97978715D01*
X172583969Y-98262752D01*
X172788286Y-98511714D01*
X172920233Y-98620000D01*
X172788286Y-98728286D01*
X172583969Y-98977248D01*
X172432148Y-99261285D01*
X172338657Y-99569484D01*
X172307089Y-99890000D01*
X172338657Y-100210516D01*
X172432148Y-100518715D01*
X172583969Y-100802752D01*
X172788286Y-101051714D01*
X172920233Y-101160000D01*
X172788286Y-101268286D01*
X172583969Y-101517248D01*
X172432148Y-101801285D01*
X172338657Y-102109484D01*
X172307089Y-102430000D01*
X172338657Y-102750516D01*
X172432148Y-103058715D01*
X172583969Y-103342752D01*
X172788286Y-103591714D01*
X173037248Y-103796031D01*
X173321285Y-103947852D01*
X173629484Y-104041343D01*
X173869678Y-104065000D01*
X174530322Y-104065000D01*
X174770516Y-104041343D01*
X175078715Y-103947852D01*
X175340000Y-103808192D01*
X175340000Y-111970608D01*
X175268827Y-112768083D01*
X175065344Y-113511890D01*
X174733363Y-114207904D01*
X174283374Y-114834130D01*
X173729597Y-115370777D01*
X173089549Y-115800871D01*
X172383447Y-116110829D01*
X171628543Y-116292065D01*
X170975793Y-116340000D01*
X123029392Y-116340000D01*
X122231917Y-116268827D01*
X121488110Y-116065344D01*
X120792096Y-115733363D01*
X120165870Y-115283374D01*
X119629223Y-114729597D01*
X119199129Y-114089549D01*
X118889171Y-113383447D01*
X118707935Y-112628543D01*
X118660000Y-111975793D01*
X118660000Y-108139297D01*
X120837720Y-108139297D01*
X120837720Y-108860703D01*
X120978460Y-109568248D01*
X121254530Y-110234740D01*
X121655322Y-110834567D01*
X122165433Y-111344678D01*
X122765260Y-111745470D01*
X123431752Y-112021540D01*
X124139297Y-112162280D01*
X124860703Y-112162280D01*
X125568248Y-112021540D01*
X126234740Y-111745470D01*
X126834567Y-111344678D01*
X127344678Y-110834567D01*
X127711497Y-110285584D01*
X163323000Y-110285584D01*
X163323000Y-110714416D01*
X163406660Y-111135008D01*
X163570767Y-111531196D01*
X163809013Y-111887757D01*
X164112243Y-112190987D01*
X164468804Y-112429233D01*
X164864992Y-112593340D01*
X165285584Y-112677000D01*
X165714416Y-112677000D01*
X166135008Y-112593340D01*
X166531196Y-112429233D01*
X166887757Y-112190987D01*
X167190987Y-111887757D01*
X167429233Y-111531196D01*
X167593340Y-111135008D01*
X167677000Y-110714416D01*
X167677000Y-110285584D01*
X167593340Y-109864992D01*
X167429233Y-109468804D01*
X167190987Y-109112243D01*
X166887757Y-108809013D01*
X166531196Y-108570767D01*
X166135008Y-108406660D01*
X165714416Y-108323000D01*
X165285584Y-108323000D01*
X164864992Y-108406660D01*
X164468804Y-108570767D01*
X164112243Y-108809013D01*
X163809013Y-109112243D01*
X163570767Y-109468804D01*
X163406660Y-109864992D01*
X163323000Y-110285584D01*
X127711497Y-110285584D01*
X127745470Y-110234740D01*
X128021540Y-109568248D01*
X128162280Y-108860703D01*
X128162280Y-108139297D01*
X167837720Y-108139297D01*
X167837720Y-108860703D01*
X167978460Y-109568248D01*
X168254530Y-110234740D01*
X168655322Y-110834567D01*
X169165433Y-111344678D01*
X169765260Y-111745470D01*
X170431752Y-112021540D01*
X171139297Y-112162280D01*
X171860703Y-112162280D01*
X172568248Y-112021540D01*
X173234740Y-111745470D01*
X173834567Y-111344678D01*
X174344678Y-110834567D01*
X174745470Y-110234740D01*
X175021540Y-109568248D01*
X175162280Y-108860703D01*
X175162280Y-108139297D01*
X175021540Y-107431752D01*
X174745470Y-106765260D01*
X174344678Y-106165433D01*
X173834567Y-105655322D01*
X173234740Y-105254530D01*
X172568248Y-104978460D01*
X171860703Y-104837720D01*
X171139297Y-104837720D01*
X170431752Y-104978460D01*
X169765260Y-105254530D01*
X169165433Y-105655322D01*
X168655322Y-106165433D01*
X168254530Y-106765260D01*
X167978460Y-107431752D01*
X167837720Y-108139297D01*
X128162280Y-108139297D01*
X128021540Y-107431752D01*
X127745470Y-106765260D01*
X127344678Y-106165433D01*
X126834567Y-105655322D01*
X126263699Y-105273880D01*
X126387757Y-105190987D01*
X126690987Y-104887757D01*
X126929233Y-104531196D01*
X127093340Y-104135008D01*
X127177000Y-103714416D01*
X127177000Y-103285584D01*
X127093340Y-102864992D01*
X126929233Y-102468804D01*
X126690987Y-102112243D01*
X126387757Y-101809013D01*
X126031196Y-101570767D01*
X125635008Y-101406660D01*
X125214416Y-101323000D01*
X124785584Y-101323000D01*
X124364992Y-101406660D01*
X123968804Y-101570767D01*
X123612243Y-101809013D01*
X123309013Y-102112243D01*
X123070767Y-102468804D01*
X122906660Y-102864992D01*
X122823000Y-103285584D01*
X122823000Y-103714416D01*
X122906660Y-104135008D01*
X123070767Y-104531196D01*
X123309013Y-104887757D01*
X123409099Y-104987843D01*
X122765260Y-105254530D01*
X122165433Y-105655322D01*
X121655322Y-106165433D01*
X121254530Y-106765260D01*
X120978460Y-107431752D01*
X120837720Y-108139297D01*
X118660000Y-108139297D01*
X118660000Y-89436664D01*
X140842134Y-89436664D01*
X140842134Y-90563336D01*
X141018384Y-91676138D01*
X141366545Y-92747667D01*
X141878044Y-93751540D01*
X142540285Y-94663037D01*
X143336963Y-95459715D01*
X144248460Y-96121956D01*
X145252333Y-96633455D01*
X146323862Y-96981616D01*
X147436664Y-97157866D01*
X148563336Y-97157866D01*
X149676138Y-96981616D01*
X150747667Y-96633455D01*
X151751540Y-96121956D01*
X152663037Y-95459715D01*
X153459715Y-94663037D01*
X154121956Y-93751540D01*
X154633455Y-92747667D01*
X154981616Y-91676138D01*
X155157866Y-90563336D01*
X155157866Y-89436664D01*
X154981616Y-88323862D01*
X154633455Y-87252333D01*
X154121956Y-86248460D01*
X153459715Y-85336963D01*
X152663037Y-84540285D01*
X151751540Y-83878044D01*
X150747667Y-83366545D01*
X149676138Y-83018384D01*
X148563336Y-82842134D01*
X147436664Y-82842134D01*
X146323862Y-83018384D01*
X145252333Y-83366545D01*
X144248460Y-83878044D01*
X143336963Y-84540285D01*
X142540285Y-85336963D01*
X141878044Y-86248460D01*
X141366545Y-87252333D01*
X141018384Y-88323862D01*
X140842134Y-89436664D01*
X118660000Y-89436664D01*
X118660000Y-75460000D01*
X119307089Y-75460000D01*
X119338657Y-75780516D01*
X119432148Y-76088715D01*
X119583969Y-76372752D01*
X119788286Y-76621714D01*
X119920233Y-76730000D01*
X119788286Y-76838286D01*
X119583969Y-77087248D01*
X119432148Y-77371285D01*
X119338657Y-77679484D01*
X119307089Y-78000000D01*
X119338657Y-78320516D01*
X119432148Y-78628715D01*
X119583969Y-78912752D01*
X119788286Y-79161714D01*
X120037248Y-79366031D01*
X120321285Y-79517852D01*
X120629484Y-79611343D01*
X120869678Y-79635000D01*
X121530322Y-79635000D01*
X121770516Y-79611343D01*
X122078715Y-79517852D01*
X122362752Y-79366031D01*
X122611714Y-79161714D01*
X122816031Y-78912752D01*
X122967852Y-78628715D01*
X123061343Y-78320516D01*
X123092911Y-78000000D01*
X123061343Y-77679484D01*
X122967852Y-77371285D01*
X122816031Y-77087248D01*
X122611714Y-76838286D01*
X122479767Y-76730000D01*
X122611714Y-76621714D01*
X122816031Y-76372752D01*
X122967852Y-76088715D01*
X123061343Y-75780516D01*
X123092911Y-75460000D01*
X123061343Y-75139484D01*
X122992219Y-74911612D01*
X127389656Y-74911612D01*
X127401916Y-75036094D01*
X127438226Y-75155792D01*
X127497191Y-75266106D01*
X127576543Y-75362797D01*
X128637203Y-76423457D01*
X128733894Y-76502809D01*
X128844208Y-76561774D01*
X128963906Y-76598084D01*
X129088388Y-76610344D01*
X129212870Y-76598084D01*
X129332568Y-76561774D01*
X129442882Y-76502809D01*
X129539573Y-76423457D01*
X130423457Y-75539573D01*
X130502809Y-75442882D01*
X130561774Y-75332568D01*
X130598084Y-75212870D01*
X130610344Y-75088388D01*
X130609670Y-75081542D01*
X130810338Y-75020671D01*
X131029230Y-74903671D01*
X131221090Y-74746216D01*
X131378545Y-74554356D01*
X131495545Y-74335464D01*
X131567592Y-74097953D01*
X131589350Y-73877039D01*
X131810264Y-73855281D01*
X132047775Y-73783234D01*
X132266667Y-73666234D01*
X132458527Y-73508779D01*
X132615982Y-73316919D01*
X132732982Y-73098027D01*
X132805029Y-72860516D01*
X132826787Y-72639602D01*
X133047701Y-72617844D01*
X133285212Y-72545797D01*
X133504104Y-72428797D01*
X133695964Y-72271342D01*
X133853419Y-72079482D01*
X133970419Y-71860590D01*
X134042466Y-71623079D01*
X134066794Y-71376076D01*
X134042466Y-71129074D01*
X133970419Y-70891564D01*
X133853419Y-70672672D01*
X133735418Y-70528888D01*
X133471112Y-70264582D01*
X133327328Y-70146581D01*
X133108436Y-70029581D01*
X132870926Y-69957534D01*
X132623923Y-69933206D01*
X132376920Y-69957534D01*
X132139410Y-70029581D01*
X131920518Y-70146581D01*
X131728658Y-70304036D01*
X131571203Y-70495896D01*
X131454203Y-70714788D01*
X131382156Y-70952298D01*
X131360398Y-71173213D01*
X131139483Y-71194971D01*
X130901973Y-71267018D01*
X130683081Y-71384018D01*
X130491221Y-71541473D01*
X130333766Y-71733333D01*
X130216766Y-71952225D01*
X130144719Y-72189735D01*
X130122961Y-72410650D01*
X129902046Y-72432408D01*
X129664536Y-72504455D01*
X129445644Y-72621455D01*
X129253784Y-72778910D01*
X129096329Y-72970770D01*
X128979329Y-73189662D01*
X128918458Y-73390330D01*
X128911612Y-73389656D01*
X128787130Y-73401916D01*
X128667432Y-73438226D01*
X128557118Y-73497191D01*
X128460427Y-73576543D01*
X127576543Y-74460427D01*
X127497191Y-74557118D01*
X127438226Y-74667432D01*
X127401916Y-74787130D01*
X127389656Y-74911612D01*
X122992219Y-74911612D01*
X122967852Y-74831285D01*
X122816031Y-74547248D01*
X122611714Y-74298286D01*
X122362752Y-74093969D01*
X122078715Y-73942148D01*
X121770516Y-73848657D01*
X121530322Y-73825000D01*
X120869678Y-73825000D01*
X120629484Y-73848657D01*
X120321285Y-73942148D01*
X120037248Y-74093969D01*
X119788286Y-74298286D01*
X119583969Y-74547248D01*
X119432148Y-74831285D01*
X119338657Y-75139484D01*
X119307089Y-75460000D01*
X118660000Y-75460000D01*
X118660000Y-72720568D01*
X118837248Y-72866031D01*
X119121285Y-73017852D01*
X119429484Y-73111343D01*
X119669678Y-73135000D01*
X120330322Y-73135000D01*
X120570516Y-73111343D01*
X120878715Y-73017852D01*
X121162752Y-72866031D01*
X121411714Y-72661714D01*
X121616031Y-72412752D01*
X121767852Y-72128715D01*
X121861343Y-71820516D01*
X121892911Y-71500000D01*
X121861343Y-71179484D01*
X121767852Y-70871285D01*
X121616031Y-70587248D01*
X121411714Y-70338286D01*
X121279767Y-70230000D01*
X121411714Y-70121714D01*
X121616031Y-69872752D01*
X121767852Y-69588715D01*
X121861343Y-69280516D01*
X121892911Y-68960000D01*
X121861343Y-68639484D01*
X121853079Y-68612238D01*
X134479129Y-68612238D01*
X134496808Y-68736067D01*
X134538304Y-68854067D01*
X135172231Y-70213528D01*
X135235951Y-70321165D01*
X135319446Y-70414303D01*
X135419506Y-70489362D01*
X135532288Y-70543459D01*
X135653455Y-70574513D01*
X135778353Y-70581332D01*
X135902182Y-70563653D01*
X136020182Y-70522157D01*
X137153067Y-69993884D01*
X137260704Y-69930164D01*
X137353842Y-69846669D01*
X137428901Y-69746609D01*
X137482998Y-69633828D01*
X137484706Y-69627165D01*
X137694091Y-69638596D01*
X137939798Y-69603518D01*
X138173940Y-69521178D01*
X138387520Y-69394742D01*
X138572329Y-69229068D01*
X138721265Y-69030523D01*
X138817269Y-68830372D01*
X139032301Y-68885484D01*
X139280129Y-68899014D01*
X139525836Y-68863936D01*
X139759978Y-68781596D01*
X139973558Y-68655160D01*
X140158367Y-68489486D01*
X140307303Y-68290941D01*
X140403307Y-68090790D01*
X140618340Y-68145902D01*
X140866168Y-68159432D01*
X141111875Y-68124354D01*
X141346017Y-68042014D01*
X141559597Y-67915578D01*
X141744406Y-67749904D01*
X141893342Y-67551359D01*
X142000683Y-67327572D01*
X142062303Y-67087145D01*
X142075833Y-66839316D01*
X142040755Y-66593610D01*
X141979048Y-66418138D01*
X141821079Y-66079374D01*
X141726325Y-65919312D01*
X141560651Y-65734503D01*
X141362106Y-65585567D01*
X141138319Y-65478226D01*
X140897892Y-65416606D01*
X140650064Y-65403076D01*
X140404357Y-65438154D01*
X140170215Y-65520494D01*
X139956635Y-65646930D01*
X139771826Y-65812604D01*
X139622890Y-66011149D01*
X139526886Y-66211300D01*
X139311853Y-66156188D01*
X139064025Y-66142658D01*
X138818318Y-66177736D01*
X138584176Y-66260076D01*
X138370596Y-66386512D01*
X138185787Y-66552186D01*
X138036851Y-66750731D01*
X137940847Y-66950882D01*
X137725815Y-66895770D01*
X137477987Y-66882240D01*
X137232280Y-66917318D01*
X136998138Y-66999658D01*
X136784558Y-67126094D01*
X136599749Y-67291768D01*
X136473915Y-67459516D01*
X136467712Y-67456541D01*
X136346545Y-67425487D01*
X136221647Y-67418668D01*
X136097818Y-67436347D01*
X135979818Y-67477843D01*
X134846933Y-68006116D01*
X134739296Y-68069836D01*
X134646158Y-68153331D01*
X134571099Y-68253391D01*
X134517002Y-68366172D01*
X134485948Y-68487340D01*
X134479129Y-68612238D01*
X121853079Y-68612238D01*
X121767852Y-68331285D01*
X121616031Y-68047248D01*
X121411714Y-67798286D01*
X121162752Y-67593969D01*
X120878715Y-67442148D01*
X120570516Y-67348657D01*
X120330322Y-67325000D01*
X119669678Y-67325000D01*
X119429484Y-67348657D01*
X119121285Y-67442148D01*
X118837248Y-67593969D01*
X118660000Y-67739432D01*
X118660000Y-55450000D01*
X120011928Y-55450000D01*
X120011928Y-57550000D01*
X120024188Y-57674482D01*
X120060498Y-57794180D01*
X120119463Y-57904494D01*
X120198815Y-58001185D01*
X120295506Y-58080537D01*
X120405820Y-58139502D01*
X120525518Y-58175812D01*
X120650000Y-58188072D01*
X122350000Y-58188072D01*
X122474482Y-58175812D01*
X122594180Y-58139502D01*
X122704494Y-58080537D01*
X122801185Y-58001185D01*
X122880537Y-57904494D01*
X122939502Y-57794180D01*
X122960393Y-57725313D01*
X122984866Y-57755134D01*
X123210987Y-57940706D01*
X123468967Y-58078599D01*
X123748890Y-58163513D01*
X124040000Y-58192185D01*
X124331111Y-58163513D01*
X124611034Y-58078599D01*
X124869014Y-57940706D01*
X125095134Y-57755134D01*
X125280706Y-57529014D01*
X125310000Y-57474209D01*
X125339294Y-57529014D01*
X125524866Y-57755134D01*
X125750987Y-57940706D01*
X126008967Y-58078599D01*
X126288890Y-58163513D01*
X126580000Y-58192185D01*
X126871111Y-58163513D01*
X127151034Y-58078599D01*
X127409014Y-57940706D01*
X127635134Y-57755134D01*
X127820706Y-57529014D01*
X127850000Y-57474209D01*
X127879294Y-57529014D01*
X128064866Y-57755134D01*
X128290987Y-57940706D01*
X128548967Y-58078599D01*
X128828890Y-58163513D01*
X129120000Y-58192185D01*
X129411111Y-58163513D01*
X129691034Y-58078599D01*
X129949014Y-57940706D01*
X130175134Y-57755134D01*
X130360706Y-57529014D01*
X130390000Y-57474209D01*
X130419294Y-57529014D01*
X130604866Y-57755134D01*
X130830987Y-57940706D01*
X131088967Y-58078599D01*
X131368890Y-58163513D01*
X131660000Y-58192185D01*
X131951111Y-58163513D01*
X132231034Y-58078599D01*
X132489014Y-57940706D01*
X132715134Y-57755134D01*
X132900706Y-57529014D01*
X132930000Y-57474209D01*
X132959294Y-57529014D01*
X133144866Y-57755134D01*
X133370987Y-57940706D01*
X133628967Y-58078599D01*
X133908890Y-58163513D01*
X134200000Y-58192185D01*
X134491111Y-58163513D01*
X134771034Y-58078599D01*
X135029014Y-57940706D01*
X135255134Y-57755134D01*
X135440706Y-57529014D01*
X135470000Y-57474209D01*
X135499294Y-57529014D01*
X135684866Y-57755134D01*
X135910987Y-57940706D01*
X136168967Y-58078599D01*
X136448890Y-58163513D01*
X136740000Y-58192185D01*
X137031111Y-58163513D01*
X137311034Y-58078599D01*
X137569014Y-57940706D01*
X137795134Y-57755134D01*
X137980706Y-57529014D01*
X138010000Y-57474209D01*
X138039294Y-57529014D01*
X138224866Y-57755134D01*
X138450987Y-57940706D01*
X138708967Y-58078599D01*
X138988890Y-58163513D01*
X139280000Y-58192185D01*
X139571111Y-58163513D01*
X139851034Y-58078599D01*
X140109014Y-57940706D01*
X140335134Y-57755134D01*
X140520706Y-57529014D01*
X140550000Y-57474209D01*
X140579294Y-57529014D01*
X140764866Y-57755134D01*
X140990987Y-57940706D01*
X141248967Y-58078599D01*
X141528890Y-58163513D01*
X141820000Y-58192185D01*
X142111111Y-58163513D01*
X142391034Y-58078599D01*
X142649014Y-57940706D01*
X142875134Y-57755134D01*
X143060706Y-57529014D01*
X143090000Y-57474209D01*
X143119294Y-57529014D01*
X143304866Y-57755134D01*
X143530987Y-57940706D01*
X143788967Y-58078599D01*
X144068890Y-58163513D01*
X144360000Y-58192185D01*
X144651111Y-58163513D01*
X144931034Y-58078599D01*
X145189014Y-57940706D01*
X145415134Y-57755134D01*
X145600706Y-57529014D01*
X145630000Y-57474209D01*
X145659294Y-57529014D01*
X145844866Y-57755134D01*
X146070987Y-57940706D01*
X146328967Y-58078599D01*
X146608890Y-58163513D01*
X146900000Y-58192185D01*
X147191111Y-58163513D01*
X147471034Y-58078599D01*
X147729014Y-57940706D01*
X147955134Y-57755134D01*
X148140706Y-57529014D01*
X148170000Y-57474209D01*
X148199294Y-57529014D01*
X148384866Y-57755134D01*
X148610987Y-57940706D01*
X148868967Y-58078599D01*
X149148890Y-58163513D01*
X149440000Y-58192185D01*
X149731111Y-58163513D01*
X150011034Y-58078599D01*
X150269014Y-57940706D01*
X150495134Y-57755134D01*
X150680706Y-57529014D01*
X150818599Y-57271033D01*
X150903513Y-56991110D01*
X150925000Y-56772949D01*
X150925000Y-56227050D01*
X150903513Y-56008889D01*
X150818599Y-55728966D01*
X150680706Y-55470986D01*
X150495134Y-55244866D01*
X150269013Y-55059294D01*
X150011033Y-54921401D01*
X149731110Y-54836487D01*
X149440000Y-54807815D01*
X149148889Y-54836487D01*
X148868966Y-54921401D01*
X148610986Y-55059294D01*
X148384866Y-55244866D01*
X148199294Y-55470987D01*
X148170000Y-55525792D01*
X148140706Y-55470986D01*
X147955134Y-55244866D01*
X147729013Y-55059294D01*
X147471033Y-54921401D01*
X147191110Y-54836487D01*
X146900000Y-54807815D01*
X146608889Y-54836487D01*
X146328966Y-54921401D01*
X146070986Y-55059294D01*
X145844866Y-55244866D01*
X145659294Y-55470987D01*
X145630000Y-55525792D01*
X145600706Y-55470986D01*
X145415134Y-55244866D01*
X145189013Y-55059294D01*
X144931033Y-54921401D01*
X144651110Y-54836487D01*
X144360000Y-54807815D01*
X144068889Y-54836487D01*
X143788966Y-54921401D01*
X143530986Y-55059294D01*
X143304866Y-55244866D01*
X143119294Y-55470987D01*
X143090000Y-55525792D01*
X143060706Y-55470986D01*
X142875134Y-55244866D01*
X142649013Y-55059294D01*
X142391033Y-54921401D01*
X142111110Y-54836487D01*
X141820000Y-54807815D01*
X141528889Y-54836487D01*
X141248966Y-54921401D01*
X140990986Y-55059294D01*
X140764866Y-55244866D01*
X140579294Y-55470987D01*
X140550000Y-55525792D01*
X140520706Y-55470986D01*
X140335134Y-55244866D01*
X140109013Y-55059294D01*
X139851033Y-54921401D01*
X139571110Y-54836487D01*
X139280000Y-54807815D01*
X138988889Y-54836487D01*
X138708966Y-54921401D01*
X138450986Y-55059294D01*
X138224866Y-55244866D01*
X138039294Y-55470987D01*
X138010000Y-55525792D01*
X137980706Y-55470986D01*
X137795134Y-55244866D01*
X137569013Y-55059294D01*
X137311033Y-54921401D01*
X137031110Y-54836487D01*
X136740000Y-54807815D01*
X136448889Y-54836487D01*
X136168966Y-54921401D01*
X135910986Y-55059294D01*
X135684866Y-55244866D01*
X135499294Y-55470987D01*
X135470000Y-55525792D01*
X135440706Y-55470986D01*
X135255134Y-55244866D01*
X135029013Y-55059294D01*
X134771033Y-54921401D01*
X134491110Y-54836487D01*
X134200000Y-54807815D01*
X133908889Y-54836487D01*
X133628966Y-54921401D01*
X133370986Y-55059294D01*
X133144866Y-55244866D01*
X132959294Y-55470987D01*
X132930000Y-55525792D01*
X132900706Y-55470986D01*
X132715134Y-55244866D01*
X132489013Y-55059294D01*
X132231033Y-54921401D01*
X131951110Y-54836487D01*
X131660000Y-54807815D01*
X131368889Y-54836487D01*
X131088966Y-54921401D01*
X130830986Y-55059294D01*
X130604866Y-55244866D01*
X130419294Y-55470987D01*
X130390000Y-55525792D01*
X130360706Y-55470986D01*
X130175134Y-55244866D01*
X129949013Y-55059294D01*
X129691033Y-54921401D01*
X129411110Y-54836487D01*
X129120000Y-54807815D01*
X128828889Y-54836487D01*
X128548966Y-54921401D01*
X128290986Y-55059294D01*
X128064866Y-55244866D01*
X127879294Y-55470987D01*
X127850000Y-55525792D01*
X127820706Y-55470986D01*
X127635134Y-55244866D01*
X127409013Y-55059294D01*
X127151033Y-54921401D01*
X126871110Y-54836487D01*
X126580000Y-54807815D01*
X126288889Y-54836487D01*
X126008966Y-54921401D01*
X125750986Y-55059294D01*
X125524866Y-55244866D01*
X125339294Y-55470987D01*
X125310000Y-55525792D01*
X125280706Y-55470986D01*
X125095134Y-55244866D01*
X124869013Y-55059294D01*
X124611033Y-54921401D01*
X124331110Y-54836487D01*
X124040000Y-54807815D01*
X123748889Y-54836487D01*
X123468966Y-54921401D01*
X123210986Y-55059294D01*
X122984866Y-55244866D01*
X122960393Y-55274687D01*
X122939502Y-55205820D01*
X122880537Y-55095506D01*
X122801185Y-54998815D01*
X122704494Y-54919463D01*
X122594180Y-54860498D01*
X122474482Y-54824188D01*
X122350000Y-54811928D01*
X120650000Y-54811928D01*
X120525518Y-54824188D01*
X120405820Y-54860498D01*
X120295506Y-54919463D01*
X120198815Y-54998815D01*
X120119463Y-55095506D01*
X120060498Y-55205820D01*
X120024188Y-55325518D01*
X120011928Y-55450000D01*
X118660000Y-55450000D01*
X118660000Y-55029392D01*
X118731173Y-54231917D01*
X118934656Y-53488109D01*
X119266638Y-52792095D01*
X119716626Y-52165870D01*
X120270403Y-51629223D01*
X120910451Y-51199129D01*
X121616553Y-50889171D01*
X122371457Y-50707935D01*
X123024207Y-50660000D01*
X147700514Y-50660000D01*
X154397616Y-58313831D01*
G04 #@! TA.AperFunction,NonConductor*
D16*
G36*
X154397616Y-58313831D02*
G01*
X154254247Y-58218035D01*
X153580260Y-57938860D01*
X152864759Y-57796538D01*
X152135241Y-57796538D01*
X151419740Y-57938860D01*
X150745753Y-58218035D01*
X150139181Y-58623334D01*
X149623334Y-59139181D01*
X149218035Y-59745753D01*
X148938860Y-60419740D01*
X148796538Y-61135241D01*
X148796538Y-61864759D01*
X148938860Y-62580260D01*
X149218035Y-63254247D01*
X149623334Y-63860819D01*
X150139181Y-64376666D01*
X150745753Y-64781965D01*
X151419740Y-65061140D01*
X152135241Y-65203462D01*
X152864759Y-65203462D01*
X153580260Y-65061140D01*
X154254247Y-64781965D01*
X154860819Y-64376666D01*
X154930820Y-64306665D01*
X154906660Y-64364992D01*
X154823000Y-64785584D01*
X154823000Y-65214416D01*
X154906660Y-65635008D01*
X155070767Y-66031196D01*
X155309013Y-66387757D01*
X155612243Y-66690987D01*
X155968804Y-66929233D01*
X156364992Y-67093340D01*
X156785584Y-67177000D01*
X157214416Y-67177000D01*
X157635008Y-67093340D01*
X158031196Y-66929233D01*
X158387757Y-66690987D01*
X158690987Y-66387757D01*
X158929233Y-66031196D01*
X159093340Y-65635008D01*
X159177000Y-65214416D01*
X159177000Y-64785584D01*
X159093340Y-64364992D01*
X158929233Y-63968804D01*
X158690987Y-63612243D01*
X158387757Y-63309013D01*
X158031196Y-63070767D01*
X157635008Y-62906660D01*
X157214416Y-62823000D01*
X156785584Y-62823000D01*
X156364992Y-62906660D01*
X155968804Y-63070767D01*
X155815549Y-63173169D01*
X156061140Y-62580260D01*
X156203462Y-61864759D01*
X156203462Y-61135241D01*
X156061140Y-60419740D01*
X155900100Y-60030956D01*
X175340001Y-82247986D01*
X175340001Y-82261691D01*
X175174463Y-82151082D01*
X174876912Y-82027832D01*
X174561033Y-81965000D01*
X174238967Y-81965000D01*
X173923088Y-82027832D01*
X173625537Y-82151082D01*
X173357748Y-82330013D01*
X173130013Y-82557748D01*
X172951082Y-82825537D01*
X172827832Y-83123088D01*
X172765000Y-83438967D01*
X172765000Y-83761033D01*
X172827832Y-84076912D01*
X172951082Y-84374463D01*
X173130013Y-84642252D01*
X173357748Y-84869987D01*
X173357767Y-84870000D01*
X173357748Y-84870013D01*
X173130013Y-85097748D01*
X172951082Y-85365537D01*
X172827832Y-85663088D01*
X172765000Y-85978967D01*
X172765000Y-86301033D01*
X172827832Y-86616912D01*
X172951082Y-86914463D01*
X173130013Y-87182252D01*
X173357748Y-87409987D01*
X173357767Y-87410000D01*
X173357748Y-87410013D01*
X173130013Y-87637748D01*
X172951082Y-87905537D01*
X172827832Y-88203088D01*
X172765000Y-88518967D01*
X172765000Y-88841033D01*
X172827832Y-89156912D01*
X172951082Y-89454463D01*
X173130013Y-89722252D01*
X173220359Y-89812598D01*
X173095262Y-89915262D01*
X172953728Y-90087721D01*
X172848559Y-90284479D01*
X172783796Y-90497973D01*
X172761928Y-90720000D01*
X172761928Y-91720000D01*
X172783796Y-91942027D01*
X172848559Y-92155521D01*
X172953728Y-92352279D01*
X173095262Y-92524738D01*
X173267721Y-92666272D01*
X173464479Y-92771441D01*
X173677973Y-92836204D01*
X173900000Y-92858072D01*
X174900000Y-92858072D01*
X175122027Y-92836204D01*
X175335521Y-92771441D01*
X175340001Y-92769047D01*
X175340001Y-95971808D01*
X175078715Y-95832148D01*
X174770516Y-95738657D01*
X174530322Y-95715000D01*
X173869678Y-95715000D01*
X173629484Y-95738657D01*
X173321285Y-95832148D01*
X173037248Y-95983969D01*
X172788286Y-96188286D01*
X172583969Y-96437248D01*
X172432148Y-96721285D01*
X172338657Y-97029484D01*
X172307089Y-97350000D01*
X172338657Y-97670516D01*
X172432148Y-97978715D01*
X172583969Y-98262752D01*
X172788286Y-98511714D01*
X172920233Y-98620000D01*
X172788286Y-98728286D01*
X172583969Y-98977248D01*
X172432148Y-99261285D01*
X172338657Y-99569484D01*
X172307089Y-99890000D01*
X172338657Y-100210516D01*
X172432148Y-100518715D01*
X172583969Y-100802752D01*
X172788286Y-101051714D01*
X172920233Y-101160000D01*
X172788286Y-101268286D01*
X172583969Y-101517248D01*
X172432148Y-101801285D01*
X172338657Y-102109484D01*
X172307089Y-102430000D01*
X172338657Y-102750516D01*
X172432148Y-103058715D01*
X172583969Y-103342752D01*
X172788286Y-103591714D01*
X173037248Y-103796031D01*
X173321285Y-103947852D01*
X173629484Y-104041343D01*
X173869678Y-104065000D01*
X174530322Y-104065000D01*
X174770516Y-104041343D01*
X175078715Y-103947852D01*
X175340000Y-103808192D01*
X175340000Y-111970608D01*
X175268827Y-112768083D01*
X175065344Y-113511890D01*
X174733363Y-114207904D01*
X174283374Y-114834130D01*
X173729597Y-115370777D01*
X173089549Y-115800871D01*
X172383447Y-116110829D01*
X171628543Y-116292065D01*
X170975793Y-116340000D01*
X123029392Y-116340000D01*
X122231917Y-116268827D01*
X121488110Y-116065344D01*
X120792096Y-115733363D01*
X120165870Y-115283374D01*
X119629223Y-114729597D01*
X119199129Y-114089549D01*
X118889171Y-113383447D01*
X118707935Y-112628543D01*
X118660000Y-111975793D01*
X118660000Y-108139297D01*
X120837720Y-108139297D01*
X120837720Y-108860703D01*
X120978460Y-109568248D01*
X121254530Y-110234740D01*
X121655322Y-110834567D01*
X122165433Y-111344678D01*
X122765260Y-111745470D01*
X123431752Y-112021540D01*
X124139297Y-112162280D01*
X124860703Y-112162280D01*
X125568248Y-112021540D01*
X126234740Y-111745470D01*
X126834567Y-111344678D01*
X127344678Y-110834567D01*
X127711497Y-110285584D01*
X163323000Y-110285584D01*
X163323000Y-110714416D01*
X163406660Y-111135008D01*
X163570767Y-111531196D01*
X163809013Y-111887757D01*
X164112243Y-112190987D01*
X164468804Y-112429233D01*
X164864992Y-112593340D01*
X165285584Y-112677000D01*
X165714416Y-112677000D01*
X166135008Y-112593340D01*
X166531196Y-112429233D01*
X166887757Y-112190987D01*
X167190987Y-111887757D01*
X167429233Y-111531196D01*
X167593340Y-111135008D01*
X167677000Y-110714416D01*
X167677000Y-110285584D01*
X167593340Y-109864992D01*
X167429233Y-109468804D01*
X167190987Y-109112243D01*
X166887757Y-108809013D01*
X166531196Y-108570767D01*
X166135008Y-108406660D01*
X165714416Y-108323000D01*
X165285584Y-108323000D01*
X164864992Y-108406660D01*
X164468804Y-108570767D01*
X164112243Y-108809013D01*
X163809013Y-109112243D01*
X163570767Y-109468804D01*
X163406660Y-109864992D01*
X163323000Y-110285584D01*
X127711497Y-110285584D01*
X127745470Y-110234740D01*
X128021540Y-109568248D01*
X128162280Y-108860703D01*
X128162280Y-108139297D01*
X167837720Y-108139297D01*
X167837720Y-108860703D01*
X167978460Y-109568248D01*
X168254530Y-110234740D01*
X168655322Y-110834567D01*
X169165433Y-111344678D01*
X169765260Y-111745470D01*
X170431752Y-112021540D01*
X171139297Y-112162280D01*
X171860703Y-112162280D01*
X172568248Y-112021540D01*
X173234740Y-111745470D01*
X173834567Y-111344678D01*
X174344678Y-110834567D01*
X174745470Y-110234740D01*
X175021540Y-109568248D01*
X175162280Y-108860703D01*
X175162280Y-108139297D01*
X175021540Y-107431752D01*
X174745470Y-106765260D01*
X174344678Y-106165433D01*
X173834567Y-105655322D01*
X173234740Y-105254530D01*
X172568248Y-104978460D01*
X171860703Y-104837720D01*
X171139297Y-104837720D01*
X170431752Y-104978460D01*
X169765260Y-105254530D01*
X169165433Y-105655322D01*
X168655322Y-106165433D01*
X168254530Y-106765260D01*
X167978460Y-107431752D01*
X167837720Y-108139297D01*
X128162280Y-108139297D01*
X128021540Y-107431752D01*
X127745470Y-106765260D01*
X127344678Y-106165433D01*
X126834567Y-105655322D01*
X126263699Y-105273880D01*
X126387757Y-105190987D01*
X126690987Y-104887757D01*
X126929233Y-104531196D01*
X127093340Y-104135008D01*
X127177000Y-103714416D01*
X127177000Y-103285584D01*
X127093340Y-102864992D01*
X126929233Y-102468804D01*
X126690987Y-102112243D01*
X126387757Y-101809013D01*
X126031196Y-101570767D01*
X125635008Y-101406660D01*
X125214416Y-101323000D01*
X124785584Y-101323000D01*
X124364992Y-101406660D01*
X123968804Y-101570767D01*
X123612243Y-101809013D01*
X123309013Y-102112243D01*
X123070767Y-102468804D01*
X122906660Y-102864992D01*
X122823000Y-103285584D01*
X122823000Y-103714416D01*
X122906660Y-104135008D01*
X123070767Y-104531196D01*
X123309013Y-104887757D01*
X123409099Y-104987843D01*
X122765260Y-105254530D01*
X122165433Y-105655322D01*
X121655322Y-106165433D01*
X121254530Y-106765260D01*
X120978460Y-107431752D01*
X120837720Y-108139297D01*
X118660000Y-108139297D01*
X118660000Y-89436664D01*
X140842134Y-89436664D01*
X140842134Y-90563336D01*
X141018384Y-91676138D01*
X141366545Y-92747667D01*
X141878044Y-93751540D01*
X142540285Y-94663037D01*
X143336963Y-95459715D01*
X144248460Y-96121956D01*
X145252333Y-96633455D01*
X146323862Y-96981616D01*
X147436664Y-97157866D01*
X148563336Y-97157866D01*
X149676138Y-96981616D01*
X150747667Y-96633455D01*
X151751540Y-96121956D01*
X152663037Y-95459715D01*
X153459715Y-94663037D01*
X154121956Y-93751540D01*
X154633455Y-92747667D01*
X154981616Y-91676138D01*
X155157866Y-90563336D01*
X155157866Y-89436664D01*
X154981616Y-88323862D01*
X154633455Y-87252333D01*
X154121956Y-86248460D01*
X153459715Y-85336963D01*
X152663037Y-84540285D01*
X151751540Y-83878044D01*
X150747667Y-83366545D01*
X149676138Y-83018384D01*
X148563336Y-82842134D01*
X147436664Y-82842134D01*
X146323862Y-83018384D01*
X145252333Y-83366545D01*
X144248460Y-83878044D01*
X143336963Y-84540285D01*
X142540285Y-85336963D01*
X141878044Y-86248460D01*
X141366545Y-87252333D01*
X141018384Y-88323862D01*
X140842134Y-89436664D01*
X118660000Y-89436664D01*
X118660000Y-75460000D01*
X119307089Y-75460000D01*
X119338657Y-75780516D01*
X119432148Y-76088715D01*
X119583969Y-76372752D01*
X119788286Y-76621714D01*
X119920233Y-76730000D01*
X119788286Y-76838286D01*
X119583969Y-77087248D01*
X119432148Y-77371285D01*
X119338657Y-77679484D01*
X119307089Y-78000000D01*
X119338657Y-78320516D01*
X119432148Y-78628715D01*
X119583969Y-78912752D01*
X119788286Y-79161714D01*
X120037248Y-79366031D01*
X120321285Y-79517852D01*
X120629484Y-79611343D01*
X120869678Y-79635000D01*
X121530322Y-79635000D01*
X121770516Y-79611343D01*
X122078715Y-79517852D01*
X122362752Y-79366031D01*
X122611714Y-79161714D01*
X122816031Y-78912752D01*
X122967852Y-78628715D01*
X123061343Y-78320516D01*
X123092911Y-78000000D01*
X123061343Y-77679484D01*
X122967852Y-77371285D01*
X122816031Y-77087248D01*
X122611714Y-76838286D01*
X122479767Y-76730000D01*
X122611714Y-76621714D01*
X122816031Y-76372752D01*
X122967852Y-76088715D01*
X123061343Y-75780516D01*
X123092911Y-75460000D01*
X123061343Y-75139484D01*
X122992219Y-74911612D01*
X127389656Y-74911612D01*
X127401916Y-75036094D01*
X127438226Y-75155792D01*
X127497191Y-75266106D01*
X127576543Y-75362797D01*
X128637203Y-76423457D01*
X128733894Y-76502809D01*
X128844208Y-76561774D01*
X128963906Y-76598084D01*
X129088388Y-76610344D01*
X129212870Y-76598084D01*
X129332568Y-76561774D01*
X129442882Y-76502809D01*
X129539573Y-76423457D01*
X130423457Y-75539573D01*
X130502809Y-75442882D01*
X130561774Y-75332568D01*
X130598084Y-75212870D01*
X130610344Y-75088388D01*
X130609670Y-75081542D01*
X130810338Y-75020671D01*
X131029230Y-74903671D01*
X131221090Y-74746216D01*
X131378545Y-74554356D01*
X131495545Y-74335464D01*
X131567592Y-74097953D01*
X131589350Y-73877039D01*
X131810264Y-73855281D01*
X132047775Y-73783234D01*
X132266667Y-73666234D01*
X132458527Y-73508779D01*
X132615982Y-73316919D01*
X132732982Y-73098027D01*
X132805029Y-72860516D01*
X132826787Y-72639602D01*
X133047701Y-72617844D01*
X133285212Y-72545797D01*
X133504104Y-72428797D01*
X133695964Y-72271342D01*
X133853419Y-72079482D01*
X133970419Y-71860590D01*
X134042466Y-71623079D01*
X134066794Y-71376076D01*
X134042466Y-71129074D01*
X133970419Y-70891564D01*
X133853419Y-70672672D01*
X133735418Y-70528888D01*
X133471112Y-70264582D01*
X133327328Y-70146581D01*
X133108436Y-70029581D01*
X132870926Y-69957534D01*
X132623923Y-69933206D01*
X132376920Y-69957534D01*
X132139410Y-70029581D01*
X131920518Y-70146581D01*
X131728658Y-70304036D01*
X131571203Y-70495896D01*
X131454203Y-70714788D01*
X131382156Y-70952298D01*
X131360398Y-71173213D01*
X131139483Y-71194971D01*
X130901973Y-71267018D01*
X130683081Y-71384018D01*
X130491221Y-71541473D01*
X130333766Y-71733333D01*
X130216766Y-71952225D01*
X130144719Y-72189735D01*
X130122961Y-72410650D01*
X129902046Y-72432408D01*
X129664536Y-72504455D01*
X129445644Y-72621455D01*
X129253784Y-72778910D01*
X129096329Y-72970770D01*
X128979329Y-73189662D01*
X128918458Y-73390330D01*
X128911612Y-73389656D01*
X128787130Y-73401916D01*
X128667432Y-73438226D01*
X128557118Y-73497191D01*
X128460427Y-73576543D01*
X127576543Y-74460427D01*
X127497191Y-74557118D01*
X127438226Y-74667432D01*
X127401916Y-74787130D01*
X127389656Y-74911612D01*
X122992219Y-74911612D01*
X122967852Y-74831285D01*
X122816031Y-74547248D01*
X122611714Y-74298286D01*
X122362752Y-74093969D01*
X122078715Y-73942148D01*
X121770516Y-73848657D01*
X121530322Y-73825000D01*
X120869678Y-73825000D01*
X120629484Y-73848657D01*
X120321285Y-73942148D01*
X120037248Y-74093969D01*
X119788286Y-74298286D01*
X119583969Y-74547248D01*
X119432148Y-74831285D01*
X119338657Y-75139484D01*
X119307089Y-75460000D01*
X118660000Y-75460000D01*
X118660000Y-72720568D01*
X118837248Y-72866031D01*
X119121285Y-73017852D01*
X119429484Y-73111343D01*
X119669678Y-73135000D01*
X120330322Y-73135000D01*
X120570516Y-73111343D01*
X120878715Y-73017852D01*
X121162752Y-72866031D01*
X121411714Y-72661714D01*
X121616031Y-72412752D01*
X121767852Y-72128715D01*
X121861343Y-71820516D01*
X121892911Y-71500000D01*
X121861343Y-71179484D01*
X121767852Y-70871285D01*
X121616031Y-70587248D01*
X121411714Y-70338286D01*
X121279767Y-70230000D01*
X121411714Y-70121714D01*
X121616031Y-69872752D01*
X121767852Y-69588715D01*
X121861343Y-69280516D01*
X121892911Y-68960000D01*
X121861343Y-68639484D01*
X121853079Y-68612238D01*
X134479129Y-68612238D01*
X134496808Y-68736067D01*
X134538304Y-68854067D01*
X135172231Y-70213528D01*
X135235951Y-70321165D01*
X135319446Y-70414303D01*
X135419506Y-70489362D01*
X135532288Y-70543459D01*
X135653455Y-70574513D01*
X135778353Y-70581332D01*
X135902182Y-70563653D01*
X136020182Y-70522157D01*
X137153067Y-69993884D01*
X137260704Y-69930164D01*
X137353842Y-69846669D01*
X137428901Y-69746609D01*
X137482998Y-69633828D01*
X137484706Y-69627165D01*
X137694091Y-69638596D01*
X137939798Y-69603518D01*
X138173940Y-69521178D01*
X138387520Y-69394742D01*
X138572329Y-69229068D01*
X138721265Y-69030523D01*
X138817269Y-68830372D01*
X139032301Y-68885484D01*
X139280129Y-68899014D01*
X139525836Y-68863936D01*
X139759978Y-68781596D01*
X139973558Y-68655160D01*
X140158367Y-68489486D01*
X140307303Y-68290941D01*
X140403307Y-68090790D01*
X140618340Y-68145902D01*
X140866168Y-68159432D01*
X141111875Y-68124354D01*
X141346017Y-68042014D01*
X141559597Y-67915578D01*
X141744406Y-67749904D01*
X141893342Y-67551359D01*
X142000683Y-67327572D01*
X142062303Y-67087145D01*
X142075833Y-66839316D01*
X142040755Y-66593610D01*
X141979048Y-66418138D01*
X141821079Y-66079374D01*
X141726325Y-65919312D01*
X141560651Y-65734503D01*
X141362106Y-65585567D01*
X141138319Y-65478226D01*
X140897892Y-65416606D01*
X140650064Y-65403076D01*
X140404357Y-65438154D01*
X140170215Y-65520494D01*
X139956635Y-65646930D01*
X139771826Y-65812604D01*
X139622890Y-66011149D01*
X139526886Y-66211300D01*
X139311853Y-66156188D01*
X139064025Y-66142658D01*
X138818318Y-66177736D01*
X138584176Y-66260076D01*
X138370596Y-66386512D01*
X138185787Y-66552186D01*
X138036851Y-66750731D01*
X137940847Y-66950882D01*
X137725815Y-66895770D01*
X137477987Y-66882240D01*
X137232280Y-66917318D01*
X136998138Y-66999658D01*
X136784558Y-67126094D01*
X136599749Y-67291768D01*
X136473915Y-67459516D01*
X136467712Y-67456541D01*
X136346545Y-67425487D01*
X136221647Y-67418668D01*
X136097818Y-67436347D01*
X135979818Y-67477843D01*
X134846933Y-68006116D01*
X134739296Y-68069836D01*
X134646158Y-68153331D01*
X134571099Y-68253391D01*
X134517002Y-68366172D01*
X134485948Y-68487340D01*
X134479129Y-68612238D01*
X121853079Y-68612238D01*
X121767852Y-68331285D01*
X121616031Y-68047248D01*
X121411714Y-67798286D01*
X121162752Y-67593969D01*
X120878715Y-67442148D01*
X120570516Y-67348657D01*
X120330322Y-67325000D01*
X119669678Y-67325000D01*
X119429484Y-67348657D01*
X119121285Y-67442148D01*
X118837248Y-67593969D01*
X118660000Y-67739432D01*
X118660000Y-55450000D01*
X120011928Y-55450000D01*
X120011928Y-57550000D01*
X120024188Y-57674482D01*
X120060498Y-57794180D01*
X120119463Y-57904494D01*
X120198815Y-58001185D01*
X120295506Y-58080537D01*
X120405820Y-58139502D01*
X120525518Y-58175812D01*
X120650000Y-58188072D01*
X122350000Y-58188072D01*
X122474482Y-58175812D01*
X122594180Y-58139502D01*
X122704494Y-58080537D01*
X122801185Y-58001185D01*
X122880537Y-57904494D01*
X122939502Y-57794180D01*
X122960393Y-57725313D01*
X122984866Y-57755134D01*
X123210987Y-57940706D01*
X123468967Y-58078599D01*
X123748890Y-58163513D01*
X124040000Y-58192185D01*
X124331111Y-58163513D01*
X124611034Y-58078599D01*
X124869014Y-57940706D01*
X125095134Y-57755134D01*
X125280706Y-57529014D01*
X125310000Y-57474209D01*
X125339294Y-57529014D01*
X125524866Y-57755134D01*
X125750987Y-57940706D01*
X126008967Y-58078599D01*
X126288890Y-58163513D01*
X126580000Y-58192185D01*
X126871111Y-58163513D01*
X127151034Y-58078599D01*
X127409014Y-57940706D01*
X127635134Y-57755134D01*
X127820706Y-57529014D01*
X127850000Y-57474209D01*
X127879294Y-57529014D01*
X128064866Y-57755134D01*
X128290987Y-57940706D01*
X128548967Y-58078599D01*
X128828890Y-58163513D01*
X129120000Y-58192185D01*
X129411111Y-58163513D01*
X129691034Y-58078599D01*
X129949014Y-57940706D01*
X130175134Y-57755134D01*
X130360706Y-57529014D01*
X130390000Y-57474209D01*
X130419294Y-57529014D01*
X130604866Y-57755134D01*
X130830987Y-57940706D01*
X131088967Y-58078599D01*
X131368890Y-58163513D01*
X131660000Y-58192185D01*
X131951111Y-58163513D01*
X132231034Y-58078599D01*
X132489014Y-57940706D01*
X132715134Y-57755134D01*
X132900706Y-57529014D01*
X132930000Y-57474209D01*
X132959294Y-57529014D01*
X133144866Y-57755134D01*
X133370987Y-57940706D01*
X133628967Y-58078599D01*
X133908890Y-58163513D01*
X134200000Y-58192185D01*
X134491111Y-58163513D01*
X134771034Y-58078599D01*
X135029014Y-57940706D01*
X135255134Y-57755134D01*
X135440706Y-57529014D01*
X135470000Y-57474209D01*
X135499294Y-57529014D01*
X135684866Y-57755134D01*
X135910987Y-57940706D01*
X136168967Y-58078599D01*
X136448890Y-58163513D01*
X136740000Y-58192185D01*
X137031111Y-58163513D01*
X137311034Y-58078599D01*
X137569014Y-57940706D01*
X137795134Y-57755134D01*
X137980706Y-57529014D01*
X138010000Y-57474209D01*
X138039294Y-57529014D01*
X138224866Y-57755134D01*
X138450987Y-57940706D01*
X138708967Y-58078599D01*
X138988890Y-58163513D01*
X139280000Y-58192185D01*
X139571111Y-58163513D01*
X139851034Y-58078599D01*
X140109014Y-57940706D01*
X140335134Y-57755134D01*
X140520706Y-57529014D01*
X140550000Y-57474209D01*
X140579294Y-57529014D01*
X140764866Y-57755134D01*
X140990987Y-57940706D01*
X141248967Y-58078599D01*
X141528890Y-58163513D01*
X141820000Y-58192185D01*
X142111111Y-58163513D01*
X142391034Y-58078599D01*
X142649014Y-57940706D01*
X142875134Y-57755134D01*
X143060706Y-57529014D01*
X143090000Y-57474209D01*
X143119294Y-57529014D01*
X143304866Y-57755134D01*
X143530987Y-57940706D01*
X143788967Y-58078599D01*
X144068890Y-58163513D01*
X144360000Y-58192185D01*
X144651111Y-58163513D01*
X144931034Y-58078599D01*
X145189014Y-57940706D01*
X145415134Y-57755134D01*
X145600706Y-57529014D01*
X145630000Y-57474209D01*
X145659294Y-57529014D01*
X145844866Y-57755134D01*
X146070987Y-57940706D01*
X146328967Y-58078599D01*
X146608890Y-58163513D01*
X146900000Y-58192185D01*
X147191111Y-58163513D01*
X147471034Y-58078599D01*
X147729014Y-57940706D01*
X147955134Y-57755134D01*
X148140706Y-57529014D01*
X148170000Y-57474209D01*
X148199294Y-57529014D01*
X148384866Y-57755134D01*
X148610987Y-57940706D01*
X148868967Y-58078599D01*
X149148890Y-58163513D01*
X149440000Y-58192185D01*
X149731111Y-58163513D01*
X150011034Y-58078599D01*
X150269014Y-57940706D01*
X150495134Y-57755134D01*
X150680706Y-57529014D01*
X150818599Y-57271033D01*
X150903513Y-56991110D01*
X150925000Y-56772949D01*
X150925000Y-56227050D01*
X150903513Y-56008889D01*
X150818599Y-55728966D01*
X150680706Y-55470986D01*
X150495134Y-55244866D01*
X150269013Y-55059294D01*
X150011033Y-54921401D01*
X149731110Y-54836487D01*
X149440000Y-54807815D01*
X149148889Y-54836487D01*
X148868966Y-54921401D01*
X148610986Y-55059294D01*
X148384866Y-55244866D01*
X148199294Y-55470987D01*
X148170000Y-55525792D01*
X148140706Y-55470986D01*
X147955134Y-55244866D01*
X147729013Y-55059294D01*
X147471033Y-54921401D01*
X147191110Y-54836487D01*
X146900000Y-54807815D01*
X146608889Y-54836487D01*
X146328966Y-54921401D01*
X146070986Y-55059294D01*
X145844866Y-55244866D01*
X145659294Y-55470987D01*
X145630000Y-55525792D01*
X145600706Y-55470986D01*
X145415134Y-55244866D01*
X145189013Y-55059294D01*
X144931033Y-54921401D01*
X144651110Y-54836487D01*
X144360000Y-54807815D01*
X144068889Y-54836487D01*
X143788966Y-54921401D01*
X143530986Y-55059294D01*
X143304866Y-55244866D01*
X143119294Y-55470987D01*
X143090000Y-55525792D01*
X143060706Y-55470986D01*
X142875134Y-55244866D01*
X142649013Y-55059294D01*
X142391033Y-54921401D01*
X142111110Y-54836487D01*
X141820000Y-54807815D01*
X141528889Y-54836487D01*
X141248966Y-54921401D01*
X140990986Y-55059294D01*
X140764866Y-55244866D01*
X140579294Y-55470987D01*
X140550000Y-55525792D01*
X140520706Y-55470986D01*
X140335134Y-55244866D01*
X140109013Y-55059294D01*
X139851033Y-54921401D01*
X139571110Y-54836487D01*
X139280000Y-54807815D01*
X138988889Y-54836487D01*
X138708966Y-54921401D01*
X138450986Y-55059294D01*
X138224866Y-55244866D01*
X138039294Y-55470987D01*
X138010000Y-55525792D01*
X137980706Y-55470986D01*
X137795134Y-55244866D01*
X137569013Y-55059294D01*
X137311033Y-54921401D01*
X137031110Y-54836487D01*
X136740000Y-54807815D01*
X136448889Y-54836487D01*
X136168966Y-54921401D01*
X135910986Y-55059294D01*
X135684866Y-55244866D01*
X135499294Y-55470987D01*
X135470000Y-55525792D01*
X135440706Y-55470986D01*
X135255134Y-55244866D01*
X135029013Y-55059294D01*
X134771033Y-54921401D01*
X134491110Y-54836487D01*
X134200000Y-54807815D01*
X133908889Y-54836487D01*
X133628966Y-54921401D01*
X133370986Y-55059294D01*
X133144866Y-55244866D01*
X132959294Y-55470987D01*
X132930000Y-55525792D01*
X132900706Y-55470986D01*
X132715134Y-55244866D01*
X132489013Y-55059294D01*
X132231033Y-54921401D01*
X131951110Y-54836487D01*
X131660000Y-54807815D01*
X131368889Y-54836487D01*
X131088966Y-54921401D01*
X130830986Y-55059294D01*
X130604866Y-55244866D01*
X130419294Y-55470987D01*
X130390000Y-55525792D01*
X130360706Y-55470986D01*
X130175134Y-55244866D01*
X129949013Y-55059294D01*
X129691033Y-54921401D01*
X129411110Y-54836487D01*
X129120000Y-54807815D01*
X128828889Y-54836487D01*
X128548966Y-54921401D01*
X128290986Y-55059294D01*
X128064866Y-55244866D01*
X127879294Y-55470987D01*
X127850000Y-55525792D01*
X127820706Y-55470986D01*
X127635134Y-55244866D01*
X127409013Y-55059294D01*
X127151033Y-54921401D01*
X126871110Y-54836487D01*
X126580000Y-54807815D01*
X126288889Y-54836487D01*
X126008966Y-54921401D01*
X125750986Y-55059294D01*
X125524866Y-55244866D01*
X125339294Y-55470987D01*
X125310000Y-55525792D01*
X125280706Y-55470986D01*
X125095134Y-55244866D01*
X124869013Y-55059294D01*
X124611033Y-54921401D01*
X124331110Y-54836487D01*
X124040000Y-54807815D01*
X123748889Y-54836487D01*
X123468966Y-54921401D01*
X123210986Y-55059294D01*
X122984866Y-55244866D01*
X122960393Y-55274687D01*
X122939502Y-55205820D01*
X122880537Y-55095506D01*
X122801185Y-54998815D01*
X122704494Y-54919463D01*
X122594180Y-54860498D01*
X122474482Y-54824188D01*
X122350000Y-54811928D01*
X120650000Y-54811928D01*
X120525518Y-54824188D01*
X120405820Y-54860498D01*
X120295506Y-54919463D01*
X120198815Y-54998815D01*
X120119463Y-55095506D01*
X120060498Y-55205820D01*
X120024188Y-55325518D01*
X120011928Y-55450000D01*
X118660000Y-55450000D01*
X118660000Y-55029392D01*
X118731173Y-54231917D01*
X118934656Y-53488109D01*
X119266638Y-52792095D01*
X119716626Y-52165870D01*
X120270403Y-51629223D01*
X120910451Y-51199129D01*
X121616553Y-50889171D01*
X122371457Y-50707935D01*
X123024207Y-50660000D01*
X147700514Y-50660000D01*
X154397616Y-58313831D01*
G37*
G04 #@! TD.AperFunction*
D15*
X118720233Y-70230000D02*
X118660000Y-70279432D01*
X118660000Y-70180568D01*
X118720233Y-70230000D01*
G04 #@! TA.AperFunction,NonConductor*
D16*
G36*
X118720233Y-70230000D02*
G01*
X118660000Y-70279432D01*
X118660000Y-70180568D01*
X118720233Y-70230000D01*
G37*
G04 #@! TD.AperFunction*
M02*
