G04 #@! TF.GenerationSoftware,KiCad,Pcbnew,5.1.10-88a1d61d58~88~ubuntu18.04.1*
G04 #@! TF.CreationDate,2024-08-15T14:25:57-04:00*
G04 #@! TF.ProjectId,238-capstan,3233382d-6361-4707-9374-616e2e6b6963,rev?*
G04 #@! TF.SameCoordinates,Original*
G04 #@! TF.FileFunction,Paste,Top*
G04 #@! TF.FilePolarity,Positive*
%FSLAX46Y46*%
G04 Gerber Fmt 4.6, Leading zero omitted, Abs format (unit mm)*
G04 Created by KiCad (PCBNEW 5.1.10-88a1d61d58~88~ubuntu18.04.1) date 2024-08-15 14:25:57*
%MOMM*%
%LPD*%
G01*
G04 APERTURE LIST*
%ADD10R,1.300000X1.700000*%
%ADD11R,1.600000X2.300000*%
%ADD12R,1.200000X1.800000*%
G04 APERTURE END LIST*
G36*
G01*
X124250000Y-81750002D02*
X124250000Y-80449998D01*
G75*
G02*
X124499998Y-80200000I249998J0D01*
G01*
X125325002Y-80200000D01*
G75*
G02*
X125575000Y-80449998I0J-249998D01*
G01*
X125575000Y-81750002D01*
G75*
G02*
X125325002Y-82000000I-249998J0D01*
G01*
X124499998Y-82000000D01*
G75*
G02*
X124250000Y-81750002I0J249998D01*
G01*
G37*
G36*
G01*
X121125000Y-81750002D02*
X121125000Y-80449998D01*
G75*
G02*
X121374998Y-80200000I249998J0D01*
G01*
X122200002Y-80200000D01*
G75*
G02*
X122450000Y-80449998I0J-249998D01*
G01*
X122450000Y-81750002D01*
G75*
G02*
X122200002Y-82000000I-249998J0D01*
G01*
X121374998Y-82000000D01*
G75*
G02*
X121125000Y-81750002I0J249998D01*
G01*
G37*
D10*
X129400000Y-87500000D03*
X132900000Y-87500000D03*
G36*
G01*
X154374999Y-73400000D02*
X155625001Y-73400000D01*
G75*
G02*
X155875000Y-73649999I0J-249999D01*
G01*
X155875000Y-74450001D01*
G75*
G02*
X155625001Y-74700000I-249999J0D01*
G01*
X154374999Y-74700000D01*
G75*
G02*
X154125000Y-74450001I0J249999D01*
G01*
X154125000Y-73649999D01*
G75*
G02*
X154374999Y-73400000I249999J0D01*
G01*
G37*
G36*
G01*
X154374999Y-70300000D02*
X155625001Y-70300000D01*
G75*
G02*
X155875000Y-70549999I0J-249999D01*
G01*
X155875000Y-71350001D01*
G75*
G02*
X155625001Y-71600000I-249999J0D01*
G01*
X154374999Y-71600000D01*
G75*
G02*
X154125000Y-71350001I0J249999D01*
G01*
X154125000Y-70549999D01*
G75*
G02*
X154374999Y-70300000I249999J0D01*
G01*
G37*
G36*
G01*
X138562500Y-60874999D02*
X138562500Y-62125001D01*
G75*
G02*
X138312501Y-62375000I-249999J0D01*
G01*
X137512499Y-62375000D01*
G75*
G02*
X137262500Y-62125001I0J249999D01*
G01*
X137262500Y-60874999D01*
G75*
G02*
X137512499Y-60625000I249999J0D01*
G01*
X138312501Y-60625000D01*
G75*
G02*
X138562500Y-60874999I0J-249999D01*
G01*
G37*
G36*
G01*
X141662500Y-60874999D02*
X141662500Y-62125001D01*
G75*
G02*
X141412501Y-62375000I-249999J0D01*
G01*
X140612499Y-62375000D01*
G75*
G02*
X140362500Y-62125001I0J249999D01*
G01*
X140362500Y-60874999D01*
G75*
G02*
X140612499Y-60625000I249999J0D01*
G01*
X141412501Y-60625000D01*
G75*
G02*
X141662500Y-60874999I0J-249999D01*
G01*
G37*
G36*
G01*
X123137500Y-58874999D02*
X123137500Y-60125001D01*
G75*
G02*
X122887501Y-60375000I-249999J0D01*
G01*
X122087499Y-60375000D01*
G75*
G02*
X121837500Y-60125001I0J249999D01*
G01*
X121837500Y-58874999D01*
G75*
G02*
X122087499Y-58625000I249999J0D01*
G01*
X122887501Y-58625000D01*
G75*
G02*
X123137500Y-58874999I0J-249999D01*
G01*
G37*
G36*
G01*
X126237500Y-58874999D02*
X126237500Y-60125001D01*
G75*
G02*
X125987501Y-60375000I-249999J0D01*
G01*
X125187499Y-60375000D01*
G75*
G02*
X124937500Y-60125001I0J249999D01*
G01*
X124937500Y-58874999D01*
G75*
G02*
X125187499Y-58625000I249999J0D01*
G01*
X125987501Y-58625000D01*
G75*
G02*
X126237500Y-58874999I0J-249999D01*
G01*
G37*
G36*
G01*
X130600000Y-79625001D02*
X130600000Y-78374999D01*
G75*
G02*
X130849999Y-78125000I249999J0D01*
G01*
X131650001Y-78125000D01*
G75*
G02*
X131900000Y-78374999I0J-249999D01*
G01*
X131900000Y-79625001D01*
G75*
G02*
X131650001Y-79875000I-249999J0D01*
G01*
X130849999Y-79875000D01*
G75*
G02*
X130600000Y-79625001I0J249999D01*
G01*
G37*
G36*
G01*
X127500000Y-79625001D02*
X127500000Y-78374999D01*
G75*
G02*
X127749999Y-78125000I249999J0D01*
G01*
X128550001Y-78125000D01*
G75*
G02*
X128800000Y-78374999I0J-249999D01*
G01*
X128800000Y-79625001D01*
G75*
G02*
X128550001Y-79875000I-249999J0D01*
G01*
X127749999Y-79875000D01*
G75*
G02*
X127500000Y-79625001I0J249999D01*
G01*
G37*
G36*
G01*
X170825001Y-95050000D02*
X169574999Y-95050000D01*
G75*
G02*
X169325000Y-94800001I0J249999D01*
G01*
X169325000Y-93999999D01*
G75*
G02*
X169574999Y-93750000I249999J0D01*
G01*
X170825001Y-93750000D01*
G75*
G02*
X171075000Y-93999999I0J-249999D01*
G01*
X171075000Y-94800001D01*
G75*
G02*
X170825001Y-95050000I-249999J0D01*
G01*
G37*
G36*
G01*
X170825001Y-98150000D02*
X169574999Y-98150000D01*
G75*
G02*
X169325000Y-97900001I0J249999D01*
G01*
X169325000Y-97099999D01*
G75*
G02*
X169574999Y-96850000I249999J0D01*
G01*
X170825001Y-96850000D01*
G75*
G02*
X171075000Y-97099999I0J-249999D01*
G01*
X171075000Y-97900001D01*
G75*
G02*
X170825001Y-98150000I-249999J0D01*
G01*
G37*
G36*
G01*
X167850000Y-102174999D02*
X167850000Y-103425001D01*
G75*
G02*
X167600001Y-103675000I-249999J0D01*
G01*
X166799999Y-103675000D01*
G75*
G02*
X166550000Y-103425001I0J249999D01*
G01*
X166550000Y-102174999D01*
G75*
G02*
X166799999Y-101925000I249999J0D01*
G01*
X167600001Y-101925000D01*
G75*
G02*
X167850000Y-102174999I0J-249999D01*
G01*
G37*
G36*
G01*
X170950000Y-102174999D02*
X170950000Y-103425001D01*
G75*
G02*
X170700001Y-103675000I-249999J0D01*
G01*
X169899999Y-103675000D01*
G75*
G02*
X169650000Y-103425001I0J249999D01*
G01*
X169650000Y-102174999D01*
G75*
G02*
X169899999Y-101925000I249999J0D01*
G01*
X170700001Y-101925000D01*
G75*
G02*
X170950000Y-102174999I0J-249999D01*
G01*
G37*
G36*
G01*
X164800000Y-95874999D02*
X164800000Y-97125001D01*
G75*
G02*
X164550001Y-97375000I-249999J0D01*
G01*
X163749999Y-97375000D01*
G75*
G02*
X163500000Y-97125001I0J249999D01*
G01*
X163500000Y-95874999D01*
G75*
G02*
X163749999Y-95625000I249999J0D01*
G01*
X164550001Y-95625000D01*
G75*
G02*
X164800000Y-95874999I0J-249999D01*
G01*
G37*
G36*
G01*
X167900000Y-95874999D02*
X167900000Y-97125001D01*
G75*
G02*
X167650001Y-97375000I-249999J0D01*
G01*
X166849999Y-97375000D01*
G75*
G02*
X166600000Y-97125001I0J249999D01*
G01*
X166600000Y-95874999D01*
G75*
G02*
X166849999Y-95625000I249999J0D01*
G01*
X167650001Y-95625000D01*
G75*
G02*
X167900000Y-95874999I0J-249999D01*
G01*
G37*
G36*
G01*
X128374999Y-112362500D02*
X129625001Y-112362500D01*
G75*
G02*
X129875000Y-112612499I0J-249999D01*
G01*
X129875000Y-113412501D01*
G75*
G02*
X129625001Y-113662500I-249999J0D01*
G01*
X128374999Y-113662500D01*
G75*
G02*
X128125000Y-113412501I0J249999D01*
G01*
X128125000Y-112612499D01*
G75*
G02*
X128374999Y-112362500I249999J0D01*
G01*
G37*
G36*
G01*
X128374999Y-109262500D02*
X129625001Y-109262500D01*
G75*
G02*
X129875000Y-109512499I0J-249999D01*
G01*
X129875000Y-110312501D01*
G75*
G02*
X129625001Y-110562500I-249999J0D01*
G01*
X128374999Y-110562500D01*
G75*
G02*
X128125000Y-110312501I0J249999D01*
G01*
X128125000Y-109512499D01*
G75*
G02*
X128374999Y-109262500I249999J0D01*
G01*
G37*
G36*
G01*
X128374999Y-102362500D02*
X129625001Y-102362500D01*
G75*
G02*
X129875000Y-102612499I0J-249999D01*
G01*
X129875000Y-103412501D01*
G75*
G02*
X129625001Y-103662500I-249999J0D01*
G01*
X128374999Y-103662500D01*
G75*
G02*
X128125000Y-103412501I0J249999D01*
G01*
X128125000Y-102612499D01*
G75*
G02*
X128374999Y-102362500I249999J0D01*
G01*
G37*
G36*
G01*
X128374999Y-99262500D02*
X129625001Y-99262500D01*
G75*
G02*
X129875000Y-99512499I0J-249999D01*
G01*
X129875000Y-100312501D01*
G75*
G02*
X129625001Y-100562500I-249999J0D01*
G01*
X128374999Y-100562500D01*
G75*
G02*
X128125000Y-100312501I0J249999D01*
G01*
X128125000Y-99512499D01*
G75*
G02*
X128374999Y-99262500I249999J0D01*
G01*
G37*
G36*
G01*
X127625001Y-95562500D02*
X126374999Y-95562500D01*
G75*
G02*
X126125000Y-95312501I0J249999D01*
G01*
X126125000Y-94512499D01*
G75*
G02*
X126374999Y-94262500I249999J0D01*
G01*
X127625001Y-94262500D01*
G75*
G02*
X127875000Y-94512499I0J-249999D01*
G01*
X127875000Y-95312501D01*
G75*
G02*
X127625001Y-95562500I-249999J0D01*
G01*
G37*
G36*
G01*
X127625001Y-98662500D02*
X126374999Y-98662500D01*
G75*
G02*
X126125000Y-98412501I0J249999D01*
G01*
X126125000Y-97612499D01*
G75*
G02*
X126374999Y-97362500I249999J0D01*
G01*
X127625001Y-97362500D01*
G75*
G02*
X127875000Y-97612499I0J-249999D01*
G01*
X127875000Y-98412501D01*
G75*
G02*
X127625001Y-98662500I-249999J0D01*
G01*
G37*
G36*
G01*
X144300000Y-103774999D02*
X144300000Y-105025001D01*
G75*
G02*
X144050001Y-105275000I-249999J0D01*
G01*
X143249999Y-105275000D01*
G75*
G02*
X143000000Y-105025001I0J249999D01*
G01*
X143000000Y-103774999D01*
G75*
G02*
X143249999Y-103525000I249999J0D01*
G01*
X144050001Y-103525000D01*
G75*
G02*
X144300000Y-103774999I0J-249999D01*
G01*
G37*
G36*
G01*
X147400000Y-103774999D02*
X147400000Y-105025001D01*
G75*
G02*
X147150001Y-105275000I-249999J0D01*
G01*
X146349999Y-105275000D01*
G75*
G02*
X146100000Y-105025001I0J249999D01*
G01*
X146100000Y-103774999D01*
G75*
G02*
X146349999Y-103525000I249999J0D01*
G01*
X147150001Y-103525000D01*
G75*
G02*
X147400000Y-103774999I0J-249999D01*
G01*
G37*
G36*
G01*
X159600000Y-76524999D02*
X159600000Y-77775001D01*
G75*
G02*
X159350001Y-78025000I-249999J0D01*
G01*
X158549999Y-78025000D01*
G75*
G02*
X158300000Y-77775001I0J249999D01*
G01*
X158300000Y-76524999D01*
G75*
G02*
X158549999Y-76275000I249999J0D01*
G01*
X159350001Y-76275000D01*
G75*
G02*
X159600000Y-76524999I0J-249999D01*
G01*
G37*
G36*
G01*
X162700000Y-76524999D02*
X162700000Y-77775001D01*
G75*
G02*
X162450001Y-78025000I-249999J0D01*
G01*
X161649999Y-78025000D01*
G75*
G02*
X161400000Y-77775001I0J249999D01*
G01*
X161400000Y-76524999D01*
G75*
G02*
X161649999Y-76275000I249999J0D01*
G01*
X162450001Y-76275000D01*
G75*
G02*
X162700000Y-76524999I0J-249999D01*
G01*
G37*
G36*
G01*
X168874999Y-80400000D02*
X170125001Y-80400000D01*
G75*
G02*
X170375000Y-80649999I0J-249999D01*
G01*
X170375000Y-81450001D01*
G75*
G02*
X170125001Y-81700000I-249999J0D01*
G01*
X168874999Y-81700000D01*
G75*
G02*
X168625000Y-81450001I0J249999D01*
G01*
X168625000Y-80649999D01*
G75*
G02*
X168874999Y-80400000I249999J0D01*
G01*
G37*
G36*
G01*
X168874999Y-77300000D02*
X170125001Y-77300000D01*
G75*
G02*
X170375000Y-77549999I0J-249999D01*
G01*
X170375000Y-78350001D01*
G75*
G02*
X170125001Y-78600000I-249999J0D01*
G01*
X168874999Y-78600000D01*
G75*
G02*
X168625000Y-78350001I0J249999D01*
G01*
X168625000Y-77549999D01*
G75*
G02*
X168874999Y-77300000I249999J0D01*
G01*
G37*
G36*
G01*
X161400000Y-81875001D02*
X161400000Y-80624999D01*
G75*
G02*
X161649999Y-80375000I249999J0D01*
G01*
X162450001Y-80375000D01*
G75*
G02*
X162700000Y-80624999I0J-249999D01*
G01*
X162700000Y-81875001D01*
G75*
G02*
X162450001Y-82125000I-249999J0D01*
G01*
X161649999Y-82125000D01*
G75*
G02*
X161400000Y-81875001I0J249999D01*
G01*
G37*
G36*
G01*
X158300000Y-81875001D02*
X158300000Y-80624999D01*
G75*
G02*
X158549999Y-80375000I249999J0D01*
G01*
X159350001Y-80375000D01*
G75*
G02*
X159600000Y-80624999I0J-249999D01*
G01*
X159600000Y-81875001D01*
G75*
G02*
X159350001Y-82125000I-249999J0D01*
G01*
X158549999Y-82125000D01*
G75*
G02*
X158300000Y-81875001I0J249999D01*
G01*
G37*
G36*
G01*
X167900000Y-99374999D02*
X167900000Y-100625001D01*
G75*
G02*
X167650001Y-100875000I-249999J0D01*
G01*
X166849999Y-100875000D01*
G75*
G02*
X166600000Y-100625001I0J249999D01*
G01*
X166600000Y-99374999D01*
G75*
G02*
X166849999Y-99125000I249999J0D01*
G01*
X167650001Y-99125000D01*
G75*
G02*
X167900000Y-99374999I0J-249999D01*
G01*
G37*
G36*
G01*
X171000000Y-99374999D02*
X171000000Y-100625001D01*
G75*
G02*
X170750001Y-100875000I-249999J0D01*
G01*
X169949999Y-100875000D01*
G75*
G02*
X169700000Y-100625001I0J249999D01*
G01*
X169700000Y-99374999D01*
G75*
G02*
X169949999Y-99125000I249999J0D01*
G01*
X170750001Y-99125000D01*
G75*
G02*
X171000000Y-99374999I0J-249999D01*
G01*
G37*
G36*
G01*
X144300000Y-106249998D02*
X144300000Y-107550002D01*
G75*
G02*
X144050002Y-107800000I-249998J0D01*
G01*
X143224998Y-107800000D01*
G75*
G02*
X142975000Y-107550002I0J249998D01*
G01*
X142975000Y-106249998D01*
G75*
G02*
X143224998Y-106000000I249998J0D01*
G01*
X144050002Y-106000000D01*
G75*
G02*
X144300000Y-106249998I0J-249998D01*
G01*
G37*
G36*
G01*
X147425000Y-106249998D02*
X147425000Y-107550002D01*
G75*
G02*
X147175002Y-107800000I-249998J0D01*
G01*
X146349998Y-107800000D01*
G75*
G02*
X146100000Y-107550002I0J249998D01*
G01*
X146100000Y-106249998D01*
G75*
G02*
X146349998Y-106000000I249998J0D01*
G01*
X147175002Y-106000000D01*
G75*
G02*
X147425000Y-106249998I0J-249998D01*
G01*
G37*
G36*
G01*
X133922500Y-65850002D02*
X133922500Y-64549998D01*
G75*
G02*
X134172498Y-64300000I249998J0D01*
G01*
X134997502Y-64300000D01*
G75*
G02*
X135247500Y-64549998I0J-249998D01*
G01*
X135247500Y-65850002D01*
G75*
G02*
X134997502Y-66100000I-249998J0D01*
G01*
X134172498Y-66100000D01*
G75*
G02*
X133922500Y-65850002I0J249998D01*
G01*
G37*
G36*
G01*
X130797500Y-65850002D02*
X130797500Y-64549998D01*
G75*
G02*
X131047498Y-64300000I249998J0D01*
G01*
X131872502Y-64300000D01*
G75*
G02*
X132122500Y-64549998I0J-249998D01*
G01*
X132122500Y-65850002D01*
G75*
G02*
X131872502Y-66100000I-249998J0D01*
G01*
X131047498Y-66100000D01*
G75*
G02*
X130797500Y-65850002I0J249998D01*
G01*
G37*
G36*
G01*
X133875000Y-61150002D02*
X133875000Y-59849998D01*
G75*
G02*
X134124998Y-59600000I249998J0D01*
G01*
X134950002Y-59600000D01*
G75*
G02*
X135200000Y-59849998I0J-249998D01*
G01*
X135200000Y-61150002D01*
G75*
G02*
X134950002Y-61400000I-249998J0D01*
G01*
X134124998Y-61400000D01*
G75*
G02*
X133875000Y-61150002I0J249998D01*
G01*
G37*
G36*
G01*
X130750000Y-61150002D02*
X130750000Y-59849998D01*
G75*
G02*
X130999998Y-59600000I249998J0D01*
G01*
X131825002Y-59600000D01*
G75*
G02*
X132075000Y-59849998I0J-249998D01*
G01*
X132075000Y-61150002D01*
G75*
G02*
X131825002Y-61400000I-249998J0D01*
G01*
X130999998Y-61400000D01*
G75*
G02*
X130750000Y-61150002I0J249998D01*
G01*
G37*
G36*
G01*
X123625000Y-112349998D02*
X123625000Y-113650002D01*
G75*
G02*
X123375002Y-113900000I-249998J0D01*
G01*
X122549998Y-113900000D01*
G75*
G02*
X122300000Y-113650002I0J249998D01*
G01*
X122300000Y-112349998D01*
G75*
G02*
X122549998Y-112100000I249998J0D01*
G01*
X123375002Y-112100000D01*
G75*
G02*
X123625000Y-112349998I0J-249998D01*
G01*
G37*
G36*
G01*
X126750000Y-112349998D02*
X126750000Y-113650002D01*
G75*
G02*
X126500002Y-113900000I-249998J0D01*
G01*
X125674998Y-113900000D01*
G75*
G02*
X125425000Y-113650002I0J249998D01*
G01*
X125425000Y-112349998D01*
G75*
G02*
X125674998Y-112100000I249998J0D01*
G01*
X126500002Y-112100000D01*
G75*
G02*
X126750000Y-112349998I0J-249998D01*
G01*
G37*
G36*
G01*
X127075000Y-89849998D02*
X127075000Y-91150002D01*
G75*
G02*
X126825002Y-91400000I-249998J0D01*
G01*
X125999998Y-91400000D01*
G75*
G02*
X125750000Y-91150002I0J249998D01*
G01*
X125750000Y-89849998D01*
G75*
G02*
X125999998Y-89600000I249998J0D01*
G01*
X126825002Y-89600000D01*
G75*
G02*
X127075000Y-89849998I0J-249998D01*
G01*
G37*
G36*
G01*
X130200000Y-89849998D02*
X130200000Y-91150002D01*
G75*
G02*
X129950002Y-91400000I-249998J0D01*
G01*
X129124998Y-91400000D01*
G75*
G02*
X128875000Y-91150002I0J249998D01*
G01*
X128875000Y-89849998D01*
G75*
G02*
X129124998Y-89600000I249998J0D01*
G01*
X129950002Y-89600000D01*
G75*
G02*
X130200000Y-89849998I0J-249998D01*
G01*
G37*
D11*
X160000000Y-70350000D03*
D12*
X161300000Y-74300000D03*
X158700000Y-74300000D03*
G36*
G01*
X162190000Y-85487500D02*
X161890000Y-85487500D01*
G75*
G02*
X161740000Y-85337500I0J150000D01*
G01*
X161740000Y-83662500D01*
G75*
G02*
X161890000Y-83512500I150000J0D01*
G01*
X162190000Y-83512500D01*
G75*
G02*
X162340000Y-83662500I0J-150000D01*
G01*
X162340000Y-85337500D01*
G75*
G02*
X162190000Y-85487500I-150000J0D01*
G01*
G37*
G36*
G01*
X163460000Y-85487500D02*
X163160000Y-85487500D01*
G75*
G02*
X163010000Y-85337500I0J150000D01*
G01*
X163010000Y-83662500D01*
G75*
G02*
X163160000Y-83512500I150000J0D01*
G01*
X163460000Y-83512500D01*
G75*
G02*
X163610000Y-83662500I0J-150000D01*
G01*
X163610000Y-85337500D01*
G75*
G02*
X163460000Y-85487500I-150000J0D01*
G01*
G37*
G36*
G01*
X164730000Y-85487500D02*
X164430000Y-85487500D01*
G75*
G02*
X164280000Y-85337500I0J150000D01*
G01*
X164280000Y-83662500D01*
G75*
G02*
X164430000Y-83512500I150000J0D01*
G01*
X164730000Y-83512500D01*
G75*
G02*
X164880000Y-83662500I0J-150000D01*
G01*
X164880000Y-85337500D01*
G75*
G02*
X164730000Y-85487500I-150000J0D01*
G01*
G37*
G36*
G01*
X166000000Y-85487500D02*
X165700000Y-85487500D01*
G75*
G02*
X165550000Y-85337500I0J150000D01*
G01*
X165550000Y-83662500D01*
G75*
G02*
X165700000Y-83512500I150000J0D01*
G01*
X166000000Y-83512500D01*
G75*
G02*
X166150000Y-83662500I0J-150000D01*
G01*
X166150000Y-85337500D01*
G75*
G02*
X166000000Y-85487500I-150000J0D01*
G01*
G37*
G36*
G01*
X167270000Y-85487500D02*
X166970000Y-85487500D01*
G75*
G02*
X166820000Y-85337500I0J150000D01*
G01*
X166820000Y-83662500D01*
G75*
G02*
X166970000Y-83512500I150000J0D01*
G01*
X167270000Y-83512500D01*
G75*
G02*
X167420000Y-83662500I0J-150000D01*
G01*
X167420000Y-85337500D01*
G75*
G02*
X167270000Y-85487500I-150000J0D01*
G01*
G37*
G36*
G01*
X168540000Y-85487500D02*
X168240000Y-85487500D01*
G75*
G02*
X168090000Y-85337500I0J150000D01*
G01*
X168090000Y-83662500D01*
G75*
G02*
X168240000Y-83512500I150000J0D01*
G01*
X168540000Y-83512500D01*
G75*
G02*
X168690000Y-83662500I0J-150000D01*
G01*
X168690000Y-85337500D01*
G75*
G02*
X168540000Y-85487500I-150000J0D01*
G01*
G37*
G36*
G01*
X169810000Y-85487500D02*
X169510000Y-85487500D01*
G75*
G02*
X169360000Y-85337500I0J150000D01*
G01*
X169360000Y-83662500D01*
G75*
G02*
X169510000Y-83512500I150000J0D01*
G01*
X169810000Y-83512500D01*
G75*
G02*
X169960000Y-83662500I0J-150000D01*
G01*
X169960000Y-85337500D01*
G75*
G02*
X169810000Y-85487500I-150000J0D01*
G01*
G37*
G36*
G01*
X169810000Y-92412500D02*
X169510000Y-92412500D01*
G75*
G02*
X169360000Y-92262500I0J150000D01*
G01*
X169360000Y-90587500D01*
G75*
G02*
X169510000Y-90437500I150000J0D01*
G01*
X169810000Y-90437500D01*
G75*
G02*
X169960000Y-90587500I0J-150000D01*
G01*
X169960000Y-92262500D01*
G75*
G02*
X169810000Y-92412500I-150000J0D01*
G01*
G37*
G36*
G01*
X168540000Y-92412500D02*
X168240000Y-92412500D01*
G75*
G02*
X168090000Y-92262500I0J150000D01*
G01*
X168090000Y-90587500D01*
G75*
G02*
X168240000Y-90437500I150000J0D01*
G01*
X168540000Y-90437500D01*
G75*
G02*
X168690000Y-90587500I0J-150000D01*
G01*
X168690000Y-92262500D01*
G75*
G02*
X168540000Y-92412500I-150000J0D01*
G01*
G37*
G36*
G01*
X167270000Y-92412500D02*
X166970000Y-92412500D01*
G75*
G02*
X166820000Y-92262500I0J150000D01*
G01*
X166820000Y-90587500D01*
G75*
G02*
X166970000Y-90437500I150000J0D01*
G01*
X167270000Y-90437500D01*
G75*
G02*
X167420000Y-90587500I0J-150000D01*
G01*
X167420000Y-92262500D01*
G75*
G02*
X167270000Y-92412500I-150000J0D01*
G01*
G37*
G36*
G01*
X166000000Y-92412500D02*
X165700000Y-92412500D01*
G75*
G02*
X165550000Y-92262500I0J150000D01*
G01*
X165550000Y-90587500D01*
G75*
G02*
X165700000Y-90437500I150000J0D01*
G01*
X166000000Y-90437500D01*
G75*
G02*
X166150000Y-90587500I0J-150000D01*
G01*
X166150000Y-92262500D01*
G75*
G02*
X166000000Y-92412500I-150000J0D01*
G01*
G37*
G36*
G01*
X164730000Y-92412500D02*
X164430000Y-92412500D01*
G75*
G02*
X164280000Y-92262500I0J150000D01*
G01*
X164280000Y-90587500D01*
G75*
G02*
X164430000Y-90437500I150000J0D01*
G01*
X164730000Y-90437500D01*
G75*
G02*
X164880000Y-90587500I0J-150000D01*
G01*
X164880000Y-92262500D01*
G75*
G02*
X164730000Y-92412500I-150000J0D01*
G01*
G37*
G36*
G01*
X163460000Y-92412500D02*
X163160000Y-92412500D01*
G75*
G02*
X163010000Y-92262500I0J150000D01*
G01*
X163010000Y-90587500D01*
G75*
G02*
X163160000Y-90437500I150000J0D01*
G01*
X163460000Y-90437500D01*
G75*
G02*
X163610000Y-90587500I0J-150000D01*
G01*
X163610000Y-92262500D01*
G75*
G02*
X163460000Y-92412500I-150000J0D01*
G01*
G37*
G36*
G01*
X162190000Y-92412500D02*
X161890000Y-92412500D01*
G75*
G02*
X161740000Y-92262500I0J150000D01*
G01*
X161740000Y-90587500D01*
G75*
G02*
X161890000Y-90437500I150000J0D01*
G01*
X162190000Y-90437500D01*
G75*
G02*
X162340000Y-90587500I0J-150000D01*
G01*
X162340000Y-92262500D01*
G75*
G02*
X162190000Y-92412500I-150000J0D01*
G01*
G37*
G36*
G01*
X138437500Y-103760000D02*
X138437500Y-103460000D01*
G75*
G02*
X138587500Y-103310000I150000J0D01*
G01*
X140262500Y-103310000D01*
G75*
G02*
X140412500Y-103460000I0J-150000D01*
G01*
X140412500Y-103760000D01*
G75*
G02*
X140262500Y-103910000I-150000J0D01*
G01*
X138587500Y-103910000D01*
G75*
G02*
X138437500Y-103760000I0J150000D01*
G01*
G37*
G36*
G01*
X138437500Y-105030000D02*
X138437500Y-104730000D01*
G75*
G02*
X138587500Y-104580000I150000J0D01*
G01*
X140262500Y-104580000D01*
G75*
G02*
X140412500Y-104730000I0J-150000D01*
G01*
X140412500Y-105030000D01*
G75*
G02*
X140262500Y-105180000I-150000J0D01*
G01*
X138587500Y-105180000D01*
G75*
G02*
X138437500Y-105030000I0J150000D01*
G01*
G37*
G36*
G01*
X138437500Y-106300000D02*
X138437500Y-106000000D01*
G75*
G02*
X138587500Y-105850000I150000J0D01*
G01*
X140262500Y-105850000D01*
G75*
G02*
X140412500Y-106000000I0J-150000D01*
G01*
X140412500Y-106300000D01*
G75*
G02*
X140262500Y-106450000I-150000J0D01*
G01*
X138587500Y-106450000D01*
G75*
G02*
X138437500Y-106300000I0J150000D01*
G01*
G37*
G36*
G01*
X138437500Y-107570000D02*
X138437500Y-107270000D01*
G75*
G02*
X138587500Y-107120000I150000J0D01*
G01*
X140262500Y-107120000D01*
G75*
G02*
X140412500Y-107270000I0J-150000D01*
G01*
X140412500Y-107570000D01*
G75*
G02*
X140262500Y-107720000I-150000J0D01*
G01*
X138587500Y-107720000D01*
G75*
G02*
X138437500Y-107570000I0J150000D01*
G01*
G37*
G36*
G01*
X138437500Y-108840000D02*
X138437500Y-108540000D01*
G75*
G02*
X138587500Y-108390000I150000J0D01*
G01*
X140262500Y-108390000D01*
G75*
G02*
X140412500Y-108540000I0J-150000D01*
G01*
X140412500Y-108840000D01*
G75*
G02*
X140262500Y-108990000I-150000J0D01*
G01*
X138587500Y-108990000D01*
G75*
G02*
X138437500Y-108840000I0J150000D01*
G01*
G37*
G36*
G01*
X138437500Y-110110000D02*
X138437500Y-109810000D01*
G75*
G02*
X138587500Y-109660000I150000J0D01*
G01*
X140262500Y-109660000D01*
G75*
G02*
X140412500Y-109810000I0J-150000D01*
G01*
X140412500Y-110110000D01*
G75*
G02*
X140262500Y-110260000I-150000J0D01*
G01*
X138587500Y-110260000D01*
G75*
G02*
X138437500Y-110110000I0J150000D01*
G01*
G37*
G36*
G01*
X138437500Y-111380000D02*
X138437500Y-111080000D01*
G75*
G02*
X138587500Y-110930000I150000J0D01*
G01*
X140262500Y-110930000D01*
G75*
G02*
X140412500Y-111080000I0J-150000D01*
G01*
X140412500Y-111380000D01*
G75*
G02*
X140262500Y-111530000I-150000J0D01*
G01*
X138587500Y-111530000D01*
G75*
G02*
X138437500Y-111380000I0J150000D01*
G01*
G37*
G36*
G01*
X138437500Y-112650000D02*
X138437500Y-112350000D01*
G75*
G02*
X138587500Y-112200000I150000J0D01*
G01*
X140262500Y-112200000D01*
G75*
G02*
X140412500Y-112350000I0J-150000D01*
G01*
X140412500Y-112650000D01*
G75*
G02*
X140262500Y-112800000I-150000J0D01*
G01*
X138587500Y-112800000D01*
G75*
G02*
X138437500Y-112650000I0J150000D01*
G01*
G37*
G36*
G01*
X131512500Y-112650000D02*
X131512500Y-112350000D01*
G75*
G02*
X131662500Y-112200000I150000J0D01*
G01*
X133337500Y-112200000D01*
G75*
G02*
X133487500Y-112350000I0J-150000D01*
G01*
X133487500Y-112650000D01*
G75*
G02*
X133337500Y-112800000I-150000J0D01*
G01*
X131662500Y-112800000D01*
G75*
G02*
X131512500Y-112650000I0J150000D01*
G01*
G37*
G36*
G01*
X131512500Y-111380000D02*
X131512500Y-111080000D01*
G75*
G02*
X131662500Y-110930000I150000J0D01*
G01*
X133337500Y-110930000D01*
G75*
G02*
X133487500Y-111080000I0J-150000D01*
G01*
X133487500Y-111380000D01*
G75*
G02*
X133337500Y-111530000I-150000J0D01*
G01*
X131662500Y-111530000D01*
G75*
G02*
X131512500Y-111380000I0J150000D01*
G01*
G37*
G36*
G01*
X131512500Y-110110000D02*
X131512500Y-109810000D01*
G75*
G02*
X131662500Y-109660000I150000J0D01*
G01*
X133337500Y-109660000D01*
G75*
G02*
X133487500Y-109810000I0J-150000D01*
G01*
X133487500Y-110110000D01*
G75*
G02*
X133337500Y-110260000I-150000J0D01*
G01*
X131662500Y-110260000D01*
G75*
G02*
X131512500Y-110110000I0J150000D01*
G01*
G37*
G36*
G01*
X131512500Y-108840000D02*
X131512500Y-108540000D01*
G75*
G02*
X131662500Y-108390000I150000J0D01*
G01*
X133337500Y-108390000D01*
G75*
G02*
X133487500Y-108540000I0J-150000D01*
G01*
X133487500Y-108840000D01*
G75*
G02*
X133337500Y-108990000I-150000J0D01*
G01*
X131662500Y-108990000D01*
G75*
G02*
X131512500Y-108840000I0J150000D01*
G01*
G37*
G36*
G01*
X131512500Y-107570000D02*
X131512500Y-107270000D01*
G75*
G02*
X131662500Y-107120000I150000J0D01*
G01*
X133337500Y-107120000D01*
G75*
G02*
X133487500Y-107270000I0J-150000D01*
G01*
X133487500Y-107570000D01*
G75*
G02*
X133337500Y-107720000I-150000J0D01*
G01*
X131662500Y-107720000D01*
G75*
G02*
X131512500Y-107570000I0J150000D01*
G01*
G37*
G36*
G01*
X131512500Y-106300000D02*
X131512500Y-106000000D01*
G75*
G02*
X131662500Y-105850000I150000J0D01*
G01*
X133337500Y-105850000D01*
G75*
G02*
X133487500Y-106000000I0J-150000D01*
G01*
X133487500Y-106300000D01*
G75*
G02*
X133337500Y-106450000I-150000J0D01*
G01*
X131662500Y-106450000D01*
G75*
G02*
X131512500Y-106300000I0J150000D01*
G01*
G37*
G36*
G01*
X131512500Y-105030000D02*
X131512500Y-104730000D01*
G75*
G02*
X131662500Y-104580000I150000J0D01*
G01*
X133337500Y-104580000D01*
G75*
G02*
X133487500Y-104730000I0J-150000D01*
G01*
X133487500Y-105030000D01*
G75*
G02*
X133337500Y-105180000I-150000J0D01*
G01*
X131662500Y-105180000D01*
G75*
G02*
X131512500Y-105030000I0J150000D01*
G01*
G37*
G36*
G01*
X131512500Y-103760000D02*
X131512500Y-103460000D01*
G75*
G02*
X131662500Y-103310000I150000J0D01*
G01*
X133337500Y-103310000D01*
G75*
G02*
X133487500Y-103460000I0J-150000D01*
G01*
X133487500Y-103760000D01*
G75*
G02*
X133337500Y-103910000I-150000J0D01*
G01*
X131662500Y-103910000D01*
G75*
G02*
X131512500Y-103760000I0J150000D01*
G01*
G37*
G36*
G01*
X130700000Y-82950000D02*
X130700000Y-84050000D01*
G75*
G02*
X130450000Y-84300000I-250000J0D01*
G01*
X128350000Y-84300000D01*
G75*
G02*
X128100000Y-84050000I0J250000D01*
G01*
X128100000Y-82950000D01*
G75*
G02*
X128350000Y-82700000I250000J0D01*
G01*
X130450000Y-82700000D01*
G75*
G02*
X130700000Y-82950000I0J-250000D01*
G01*
G37*
G36*
G01*
X134300000Y-82950000D02*
X134300000Y-84050000D01*
G75*
G02*
X134050000Y-84300000I-250000J0D01*
G01*
X131950000Y-84300000D01*
G75*
G02*
X131700000Y-84050000I0J250000D01*
G01*
X131700000Y-82950000D01*
G75*
G02*
X131950000Y-82700000I250000J0D01*
G01*
X134050000Y-82700000D01*
G75*
G02*
X134300000Y-82950000I0J-250000D01*
G01*
G37*
G36*
G01*
X148800000Y-72050000D02*
X148800000Y-70950000D01*
G75*
G02*
X149050000Y-70700000I250000J0D01*
G01*
X151150000Y-70700000D01*
G75*
G02*
X151400000Y-70950000I0J-250000D01*
G01*
X151400000Y-72050000D01*
G75*
G02*
X151150000Y-72300000I-250000J0D01*
G01*
X149050000Y-72300000D01*
G75*
G02*
X148800000Y-72050000I0J250000D01*
G01*
G37*
G36*
G01*
X145200000Y-72050000D02*
X145200000Y-70950000D01*
G75*
G02*
X145450000Y-70700000I250000J0D01*
G01*
X147550000Y-70700000D01*
G75*
G02*
X147800000Y-70950000I0J-250000D01*
G01*
X147800000Y-72050000D01*
G75*
G02*
X147550000Y-72300000I-250000J0D01*
G01*
X145450000Y-72300000D01*
G75*
G02*
X145200000Y-72050000I0J250000D01*
G01*
G37*
G36*
G01*
X123550000Y-64000000D02*
X122450000Y-64000000D01*
G75*
G02*
X122200000Y-63750000I0J250000D01*
G01*
X122200000Y-61650000D01*
G75*
G02*
X122450000Y-61400000I250000J0D01*
G01*
X123550000Y-61400000D01*
G75*
G02*
X123800000Y-61650000I0J-250000D01*
G01*
X123800000Y-63750000D01*
G75*
G02*
X123550000Y-64000000I-250000J0D01*
G01*
G37*
G36*
G01*
X123550000Y-67600000D02*
X122450000Y-67600000D01*
G75*
G02*
X122200000Y-67350000I0J250000D01*
G01*
X122200000Y-65250000D01*
G75*
G02*
X122450000Y-65000000I250000J0D01*
G01*
X123550000Y-65000000D01*
G75*
G02*
X123800000Y-65250000I0J-250000D01*
G01*
X123800000Y-67350000D01*
G75*
G02*
X123550000Y-67600000I-250000J0D01*
G01*
G37*
G36*
G01*
X140300000Y-75750000D02*
X140300000Y-74650000D01*
G75*
G02*
X140550000Y-74400000I250000J0D01*
G01*
X142650000Y-74400000D01*
G75*
G02*
X142900000Y-74650000I0J-250000D01*
G01*
X142900000Y-75750000D01*
G75*
G02*
X142650000Y-76000000I-250000J0D01*
G01*
X140550000Y-76000000D01*
G75*
G02*
X140300000Y-75750000I0J250000D01*
G01*
G37*
G36*
G01*
X136700000Y-75750000D02*
X136700000Y-74650000D01*
G75*
G02*
X136950000Y-74400000I250000J0D01*
G01*
X139050000Y-74400000D01*
G75*
G02*
X139300000Y-74650000I0J-250000D01*
G01*
X139300000Y-75750000D01*
G75*
G02*
X139050000Y-76000000I-250000J0D01*
G01*
X136950000Y-76000000D01*
G75*
G02*
X136700000Y-75750000I0J250000D01*
G01*
G37*
G36*
G01*
X126350000Y-71600000D02*
X125250000Y-71600000D01*
G75*
G02*
X125000000Y-71350000I0J250000D01*
G01*
X125000000Y-69250000D01*
G75*
G02*
X125250000Y-69000000I250000J0D01*
G01*
X126350000Y-69000000D01*
G75*
G02*
X126600000Y-69250000I0J-250000D01*
G01*
X126600000Y-71350000D01*
G75*
G02*
X126350000Y-71600000I-250000J0D01*
G01*
G37*
G36*
G01*
X126350000Y-75200000D02*
X125250000Y-75200000D01*
G75*
G02*
X125000000Y-74950000I0J250000D01*
G01*
X125000000Y-72850000D01*
G75*
G02*
X125250000Y-72600000I250000J0D01*
G01*
X126350000Y-72600000D01*
G75*
G02*
X126600000Y-72850000I0J-250000D01*
G01*
X126600000Y-74950000D01*
G75*
G02*
X126350000Y-75200000I-250000J0D01*
G01*
G37*
G36*
G01*
X123550000Y-96500000D02*
X122450000Y-96500000D01*
G75*
G02*
X122200000Y-96250000I0J250000D01*
G01*
X122200000Y-94150000D01*
G75*
G02*
X122450000Y-93900000I250000J0D01*
G01*
X123550000Y-93900000D01*
G75*
G02*
X123800000Y-94150000I0J-250000D01*
G01*
X123800000Y-96250000D01*
G75*
G02*
X123550000Y-96500000I-250000J0D01*
G01*
G37*
G36*
G01*
X123550000Y-100100000D02*
X122450000Y-100100000D01*
G75*
G02*
X122200000Y-99850000I0J250000D01*
G01*
X122200000Y-97750000D01*
G75*
G02*
X122450000Y-97500000I250000J0D01*
G01*
X123550000Y-97500000D01*
G75*
G02*
X123800000Y-97750000I0J-250000D01*
G01*
X123800000Y-99850000D01*
G75*
G02*
X123550000Y-100100000I-250000J0D01*
G01*
G37*
G36*
G01*
X123750000Y-86150000D02*
X122650000Y-86150000D01*
G75*
G02*
X122400000Y-85900000I0J250000D01*
G01*
X122400000Y-83800000D01*
G75*
G02*
X122650000Y-83550000I250000J0D01*
G01*
X123750000Y-83550000D01*
G75*
G02*
X124000000Y-83800000I0J-250000D01*
G01*
X124000000Y-85900000D01*
G75*
G02*
X123750000Y-86150000I-250000J0D01*
G01*
G37*
G36*
G01*
X123750000Y-89750000D02*
X122650000Y-89750000D01*
G75*
G02*
X122400000Y-89500000I0J250000D01*
G01*
X122400000Y-87400000D01*
G75*
G02*
X122650000Y-87150000I250000J0D01*
G01*
X123750000Y-87150000D01*
G75*
G02*
X124000000Y-87400000I0J-250000D01*
G01*
X124000000Y-89500000D01*
G75*
G02*
X123750000Y-89750000I-250000J0D01*
G01*
G37*
M02*
