G04 #@! TF.GenerationSoftware,KiCad,Pcbnew,5.1.10-88a1d61d58~88~ubuntu18.04.1*
G04 #@! TF.CreationDate,2024-08-03T23:10:31-04:00*
G04 #@! TF.ProjectId,238-capstan,3233382d-6361-4707-9374-616e2e6b6963,rev?*
G04 #@! TF.SameCoordinates,Original*
G04 #@! TF.FileFunction,Paste,Top*
G04 #@! TF.FilePolarity,Positive*
%FSLAX46Y46*%
G04 Gerber Fmt 4.6, Leading zero omitted, Abs format (unit mm)*
G04 Created by KiCad (PCBNEW 5.1.10-88a1d61d58~88~ubuntu18.04.1) date 2024-08-03 23:10:31*
%MOMM*%
%LPD*%
G01*
G04 APERTURE LIST*
%ADD10R,1.300000X1.700000*%
%ADD11R,1.600000X1.500000*%
%ADD12R,1.200000X1.200000*%
G04 APERTURE END LIST*
D10*
X129400000Y-87500000D03*
X132900000Y-87500000D03*
G36*
G01*
X154375000Y-72437500D02*
X155625000Y-72437500D01*
G75*
G02*
X155875000Y-72687500I0J-250000D01*
G01*
X155875000Y-73487500D01*
G75*
G02*
X155625000Y-73737500I-250000J0D01*
G01*
X154375000Y-73737500D01*
G75*
G02*
X154125000Y-73487500I0J250000D01*
G01*
X154125000Y-72687500D01*
G75*
G02*
X154375000Y-72437500I250000J0D01*
G01*
G37*
G36*
G01*
X154375000Y-69337500D02*
X155625000Y-69337500D01*
G75*
G02*
X155875000Y-69587500I0J-250000D01*
G01*
X155875000Y-70387500D01*
G75*
G02*
X155625000Y-70637500I-250000J0D01*
G01*
X154375000Y-70637500D01*
G75*
G02*
X154125000Y-70387500I0J250000D01*
G01*
X154125000Y-69587500D01*
G75*
G02*
X154375000Y-69337500I250000J0D01*
G01*
G37*
G36*
G01*
X138562500Y-60875000D02*
X138562500Y-62125000D01*
G75*
G02*
X138312500Y-62375000I-250000J0D01*
G01*
X137512500Y-62375000D01*
G75*
G02*
X137262500Y-62125000I0J250000D01*
G01*
X137262500Y-60875000D01*
G75*
G02*
X137512500Y-60625000I250000J0D01*
G01*
X138312500Y-60625000D01*
G75*
G02*
X138562500Y-60875000I0J-250000D01*
G01*
G37*
G36*
G01*
X141662500Y-60875000D02*
X141662500Y-62125000D01*
G75*
G02*
X141412500Y-62375000I-250000J0D01*
G01*
X140612500Y-62375000D01*
G75*
G02*
X140362500Y-62125000I0J250000D01*
G01*
X140362500Y-60875000D01*
G75*
G02*
X140612500Y-60625000I250000J0D01*
G01*
X141412500Y-60625000D01*
G75*
G02*
X141662500Y-60875000I0J-250000D01*
G01*
G37*
G36*
G01*
X123137500Y-58875000D02*
X123137500Y-60125000D01*
G75*
G02*
X122887500Y-60375000I-250000J0D01*
G01*
X122087500Y-60375000D01*
G75*
G02*
X121837500Y-60125000I0J250000D01*
G01*
X121837500Y-58875000D01*
G75*
G02*
X122087500Y-58625000I250000J0D01*
G01*
X122887500Y-58625000D01*
G75*
G02*
X123137500Y-58875000I0J-250000D01*
G01*
G37*
G36*
G01*
X126237500Y-58875000D02*
X126237500Y-60125000D01*
G75*
G02*
X125987500Y-60375000I-250000J0D01*
G01*
X125187500Y-60375000D01*
G75*
G02*
X124937500Y-60125000I0J250000D01*
G01*
X124937500Y-58875000D01*
G75*
G02*
X125187500Y-58625000I250000J0D01*
G01*
X125987500Y-58625000D01*
G75*
G02*
X126237500Y-58875000I0J-250000D01*
G01*
G37*
G36*
G01*
X131862500Y-79625000D02*
X131862500Y-78375000D01*
G75*
G02*
X132112500Y-78125000I250000J0D01*
G01*
X132912500Y-78125000D01*
G75*
G02*
X133162500Y-78375000I0J-250000D01*
G01*
X133162500Y-79625000D01*
G75*
G02*
X132912500Y-79875000I-250000J0D01*
G01*
X132112500Y-79875000D01*
G75*
G02*
X131862500Y-79625000I0J250000D01*
G01*
G37*
G36*
G01*
X128762500Y-79625000D02*
X128762500Y-78375000D01*
G75*
G02*
X129012500Y-78125000I250000J0D01*
G01*
X129812500Y-78125000D01*
G75*
G02*
X130062500Y-78375000I0J-250000D01*
G01*
X130062500Y-79625000D01*
G75*
G02*
X129812500Y-79875000I-250000J0D01*
G01*
X129012500Y-79875000D01*
G75*
G02*
X128762500Y-79625000I0J250000D01*
G01*
G37*
G36*
G01*
X170825000Y-95650000D02*
X169575000Y-95650000D01*
G75*
G02*
X169325000Y-95400000I0J250000D01*
G01*
X169325000Y-94600000D01*
G75*
G02*
X169575000Y-94350000I250000J0D01*
G01*
X170825000Y-94350000D01*
G75*
G02*
X171075000Y-94600000I0J-250000D01*
G01*
X171075000Y-95400000D01*
G75*
G02*
X170825000Y-95650000I-250000J0D01*
G01*
G37*
G36*
G01*
X170825000Y-98750000D02*
X169575000Y-98750000D01*
G75*
G02*
X169325000Y-98500000I0J250000D01*
G01*
X169325000Y-97700000D01*
G75*
G02*
X169575000Y-97450000I250000J0D01*
G01*
X170825000Y-97450000D01*
G75*
G02*
X171075000Y-97700000I0J-250000D01*
G01*
X171075000Y-98500000D01*
G75*
G02*
X170825000Y-98750000I-250000J0D01*
G01*
G37*
G36*
G01*
X164650000Y-105375000D02*
X164650000Y-106625000D01*
G75*
G02*
X164400000Y-106875000I-250000J0D01*
G01*
X163600000Y-106875000D01*
G75*
G02*
X163350000Y-106625000I0J250000D01*
G01*
X163350000Y-105375000D01*
G75*
G02*
X163600000Y-105125000I250000J0D01*
G01*
X164400000Y-105125000D01*
G75*
G02*
X164650000Y-105375000I0J-250000D01*
G01*
G37*
G36*
G01*
X167750000Y-105375000D02*
X167750000Y-106625000D01*
G75*
G02*
X167500000Y-106875000I-250000J0D01*
G01*
X166700000Y-106875000D01*
G75*
G02*
X166450000Y-106625000I0J250000D01*
G01*
X166450000Y-105375000D01*
G75*
G02*
X166700000Y-105125000I250000J0D01*
G01*
X167500000Y-105125000D01*
G75*
G02*
X167750000Y-105375000I0J-250000D01*
G01*
G37*
G36*
G01*
X157637500Y-106375000D02*
X157637500Y-107625000D01*
G75*
G02*
X157387500Y-107875000I-250000J0D01*
G01*
X156587500Y-107875000D01*
G75*
G02*
X156337500Y-107625000I0J250000D01*
G01*
X156337500Y-106375000D01*
G75*
G02*
X156587500Y-106125000I250000J0D01*
G01*
X157387500Y-106125000D01*
G75*
G02*
X157637500Y-106375000I0J-250000D01*
G01*
G37*
G36*
G01*
X160737500Y-106375000D02*
X160737500Y-107625000D01*
G75*
G02*
X160487500Y-107875000I-250000J0D01*
G01*
X159687500Y-107875000D01*
G75*
G02*
X159437500Y-107625000I0J250000D01*
G01*
X159437500Y-106375000D01*
G75*
G02*
X159687500Y-106125000I250000J0D01*
G01*
X160487500Y-106125000D01*
G75*
G02*
X160737500Y-106375000I0J-250000D01*
G01*
G37*
G36*
G01*
X128375000Y-112362500D02*
X129625000Y-112362500D01*
G75*
G02*
X129875000Y-112612500I0J-250000D01*
G01*
X129875000Y-113412500D01*
G75*
G02*
X129625000Y-113662500I-250000J0D01*
G01*
X128375000Y-113662500D01*
G75*
G02*
X128125000Y-113412500I0J250000D01*
G01*
X128125000Y-112612500D01*
G75*
G02*
X128375000Y-112362500I250000J0D01*
G01*
G37*
G36*
G01*
X128375000Y-109262500D02*
X129625000Y-109262500D01*
G75*
G02*
X129875000Y-109512500I0J-250000D01*
G01*
X129875000Y-110312500D01*
G75*
G02*
X129625000Y-110562500I-250000J0D01*
G01*
X128375000Y-110562500D01*
G75*
G02*
X128125000Y-110312500I0J250000D01*
G01*
X128125000Y-109512500D01*
G75*
G02*
X128375000Y-109262500I250000J0D01*
G01*
G37*
G36*
G01*
X128375000Y-102362500D02*
X129625000Y-102362500D01*
G75*
G02*
X129875000Y-102612500I0J-250000D01*
G01*
X129875000Y-103412500D01*
G75*
G02*
X129625000Y-103662500I-250000J0D01*
G01*
X128375000Y-103662500D01*
G75*
G02*
X128125000Y-103412500I0J250000D01*
G01*
X128125000Y-102612500D01*
G75*
G02*
X128375000Y-102362500I250000J0D01*
G01*
G37*
G36*
G01*
X128375000Y-99262500D02*
X129625000Y-99262500D01*
G75*
G02*
X129875000Y-99512500I0J-250000D01*
G01*
X129875000Y-100312500D01*
G75*
G02*
X129625000Y-100562500I-250000J0D01*
G01*
X128375000Y-100562500D01*
G75*
G02*
X128125000Y-100312500I0J250000D01*
G01*
X128125000Y-99512500D01*
G75*
G02*
X128375000Y-99262500I250000J0D01*
G01*
G37*
G36*
G01*
X127625000Y-95562500D02*
X126375000Y-95562500D01*
G75*
G02*
X126125000Y-95312500I0J250000D01*
G01*
X126125000Y-94512500D01*
G75*
G02*
X126375000Y-94262500I250000J0D01*
G01*
X127625000Y-94262500D01*
G75*
G02*
X127875000Y-94512500I0J-250000D01*
G01*
X127875000Y-95312500D01*
G75*
G02*
X127625000Y-95562500I-250000J0D01*
G01*
G37*
G36*
G01*
X127625000Y-98662500D02*
X126375000Y-98662500D01*
G75*
G02*
X126125000Y-98412500I0J250000D01*
G01*
X126125000Y-97612500D01*
G75*
G02*
X126375000Y-97362500I250000J0D01*
G01*
X127625000Y-97362500D01*
G75*
G02*
X127875000Y-97612500I0J-250000D01*
G01*
X127875000Y-98412500D01*
G75*
G02*
X127625000Y-98662500I-250000J0D01*
G01*
G37*
G36*
G01*
X144300000Y-103775000D02*
X144300000Y-105025000D01*
G75*
G02*
X144050000Y-105275000I-250000J0D01*
G01*
X143250000Y-105275000D01*
G75*
G02*
X143000000Y-105025000I0J250000D01*
G01*
X143000000Y-103775000D01*
G75*
G02*
X143250000Y-103525000I250000J0D01*
G01*
X144050000Y-103525000D01*
G75*
G02*
X144300000Y-103775000I0J-250000D01*
G01*
G37*
G36*
G01*
X147400000Y-103775000D02*
X147400000Y-105025000D01*
G75*
G02*
X147150000Y-105275000I-250000J0D01*
G01*
X146350000Y-105275000D01*
G75*
G02*
X146100000Y-105025000I0J250000D01*
G01*
X146100000Y-103775000D01*
G75*
G02*
X146350000Y-103525000I250000J0D01*
G01*
X147150000Y-103525000D01*
G75*
G02*
X147400000Y-103775000I0J-250000D01*
G01*
G37*
G36*
G01*
X161125000Y-77812500D02*
X159875000Y-77812500D01*
G75*
G02*
X159625000Y-77562500I0J250000D01*
G01*
X159625000Y-76762500D01*
G75*
G02*
X159875000Y-76512500I250000J0D01*
G01*
X161125000Y-76512500D01*
G75*
G02*
X161375000Y-76762500I0J-250000D01*
G01*
X161375000Y-77562500D01*
G75*
G02*
X161125000Y-77812500I-250000J0D01*
G01*
G37*
G36*
G01*
X161125000Y-80912500D02*
X159875000Y-80912500D01*
G75*
G02*
X159625000Y-80662500I0J250000D01*
G01*
X159625000Y-79862500D01*
G75*
G02*
X159875000Y-79612500I250000J0D01*
G01*
X161125000Y-79612500D01*
G75*
G02*
X161375000Y-79862500I0J-250000D01*
G01*
X161375000Y-80662500D01*
G75*
G02*
X161125000Y-80912500I-250000J0D01*
G01*
G37*
G36*
G01*
X168875000Y-80400000D02*
X170125000Y-80400000D01*
G75*
G02*
X170375000Y-80650000I0J-250000D01*
G01*
X170375000Y-81450000D01*
G75*
G02*
X170125000Y-81700000I-250000J0D01*
G01*
X168875000Y-81700000D01*
G75*
G02*
X168625000Y-81450000I0J250000D01*
G01*
X168625000Y-80650000D01*
G75*
G02*
X168875000Y-80400000I250000J0D01*
G01*
G37*
G36*
G01*
X168875000Y-77300000D02*
X170125000Y-77300000D01*
G75*
G02*
X170375000Y-77550000I0J-250000D01*
G01*
X170375000Y-78350000D01*
G75*
G02*
X170125000Y-78600000I-250000J0D01*
G01*
X168875000Y-78600000D01*
G75*
G02*
X168625000Y-78350000I0J250000D01*
G01*
X168625000Y-77550000D01*
G75*
G02*
X168875000Y-77300000I250000J0D01*
G01*
G37*
G36*
G01*
X160050000Y-83875000D02*
X160050000Y-82625000D01*
G75*
G02*
X160300000Y-82375000I250000J0D01*
G01*
X161100000Y-82375000D01*
G75*
G02*
X161350000Y-82625000I0J-250000D01*
G01*
X161350000Y-83875000D01*
G75*
G02*
X161100000Y-84125000I-250000J0D01*
G01*
X160300000Y-84125000D01*
G75*
G02*
X160050000Y-83875000I0J250000D01*
G01*
G37*
G36*
G01*
X156950000Y-83875000D02*
X156950000Y-82625000D01*
G75*
G02*
X157200000Y-82375000I250000J0D01*
G01*
X158000000Y-82375000D01*
G75*
G02*
X158250000Y-82625000I0J-250000D01*
G01*
X158250000Y-83875000D01*
G75*
G02*
X158000000Y-84125000I-250000J0D01*
G01*
X157200000Y-84125000D01*
G75*
G02*
X156950000Y-83875000I0J250000D01*
G01*
G37*
G36*
G01*
X168062500Y-101875000D02*
X168062500Y-103125000D01*
G75*
G02*
X167812500Y-103375000I-250000J0D01*
G01*
X167012500Y-103375000D01*
G75*
G02*
X166762500Y-103125000I0J250000D01*
G01*
X166762500Y-101875000D01*
G75*
G02*
X167012500Y-101625000I250000J0D01*
G01*
X167812500Y-101625000D01*
G75*
G02*
X168062500Y-101875000I0J-250000D01*
G01*
G37*
G36*
G01*
X171162500Y-101875000D02*
X171162500Y-103125000D01*
G75*
G02*
X170912500Y-103375000I-250000J0D01*
G01*
X170112500Y-103375000D01*
G75*
G02*
X169862500Y-103125000I0J250000D01*
G01*
X169862500Y-101875000D01*
G75*
G02*
X170112500Y-101625000I250000J0D01*
G01*
X170912500Y-101625000D01*
G75*
G02*
X171162500Y-101875000I0J-250000D01*
G01*
G37*
G36*
G01*
X144300000Y-106249999D02*
X144300000Y-107550001D01*
G75*
G02*
X144050001Y-107800000I-249999J0D01*
G01*
X143224999Y-107800000D01*
G75*
G02*
X142975000Y-107550001I0J249999D01*
G01*
X142975000Y-106249999D01*
G75*
G02*
X143224999Y-106000000I249999J0D01*
G01*
X144050001Y-106000000D01*
G75*
G02*
X144300000Y-106249999I0J-249999D01*
G01*
G37*
G36*
G01*
X147425000Y-106249999D02*
X147425000Y-107550001D01*
G75*
G02*
X147175001Y-107800000I-249999J0D01*
G01*
X146349999Y-107800000D01*
G75*
G02*
X146100000Y-107550001I0J249999D01*
G01*
X146100000Y-106249999D01*
G75*
G02*
X146349999Y-106000000I249999J0D01*
G01*
X147175001Y-106000000D01*
G75*
G02*
X147425000Y-106249999I0J-249999D01*
G01*
G37*
G36*
G01*
X133922500Y-65850001D02*
X133922500Y-64549999D01*
G75*
G02*
X134172499Y-64300000I249999J0D01*
G01*
X134997501Y-64300000D01*
G75*
G02*
X135247500Y-64549999I0J-249999D01*
G01*
X135247500Y-65850001D01*
G75*
G02*
X134997501Y-66100000I-249999J0D01*
G01*
X134172499Y-66100000D01*
G75*
G02*
X133922500Y-65850001I0J249999D01*
G01*
G37*
G36*
G01*
X130797500Y-65850001D02*
X130797500Y-64549999D01*
G75*
G02*
X131047499Y-64300000I249999J0D01*
G01*
X131872501Y-64300000D01*
G75*
G02*
X132122500Y-64549999I0J-249999D01*
G01*
X132122500Y-65850001D01*
G75*
G02*
X131872501Y-66100000I-249999J0D01*
G01*
X131047499Y-66100000D01*
G75*
G02*
X130797500Y-65850001I0J249999D01*
G01*
G37*
G36*
G01*
X133875000Y-61150001D02*
X133875000Y-59849999D01*
G75*
G02*
X134124999Y-59600000I249999J0D01*
G01*
X134950001Y-59600000D01*
G75*
G02*
X135200000Y-59849999I0J-249999D01*
G01*
X135200000Y-61150001D01*
G75*
G02*
X134950001Y-61400000I-249999J0D01*
G01*
X134124999Y-61400000D01*
G75*
G02*
X133875000Y-61150001I0J249999D01*
G01*
G37*
G36*
G01*
X130750000Y-61150001D02*
X130750000Y-59849999D01*
G75*
G02*
X130999999Y-59600000I249999J0D01*
G01*
X131825001Y-59600000D01*
G75*
G02*
X132075000Y-59849999I0J-249999D01*
G01*
X132075000Y-61150001D01*
G75*
G02*
X131825001Y-61400000I-249999J0D01*
G01*
X130999999Y-61400000D01*
G75*
G02*
X130750000Y-61150001I0J249999D01*
G01*
G37*
G36*
G01*
X123625000Y-112349999D02*
X123625000Y-113650001D01*
G75*
G02*
X123375001Y-113900000I-249999J0D01*
G01*
X122549999Y-113900000D01*
G75*
G02*
X122300000Y-113650001I0J249999D01*
G01*
X122300000Y-112349999D01*
G75*
G02*
X122549999Y-112100000I249999J0D01*
G01*
X123375001Y-112100000D01*
G75*
G02*
X123625000Y-112349999I0J-249999D01*
G01*
G37*
G36*
G01*
X126750000Y-112349999D02*
X126750000Y-113650001D01*
G75*
G02*
X126500001Y-113900000I-249999J0D01*
G01*
X125674999Y-113900000D01*
G75*
G02*
X125425000Y-113650001I0J249999D01*
G01*
X125425000Y-112349999D01*
G75*
G02*
X125674999Y-112100000I249999J0D01*
G01*
X126500001Y-112100000D01*
G75*
G02*
X126750000Y-112349999I0J-249999D01*
G01*
G37*
G36*
G01*
X126375000Y-79650001D02*
X126375000Y-78349999D01*
G75*
G02*
X126624999Y-78100000I249999J0D01*
G01*
X127450001Y-78100000D01*
G75*
G02*
X127700000Y-78349999I0J-249999D01*
G01*
X127700000Y-79650001D01*
G75*
G02*
X127450001Y-79900000I-249999J0D01*
G01*
X126624999Y-79900000D01*
G75*
G02*
X126375000Y-79650001I0J249999D01*
G01*
G37*
G36*
G01*
X123250000Y-79650001D02*
X123250000Y-78349999D01*
G75*
G02*
X123499999Y-78100000I249999J0D01*
G01*
X124325001Y-78100000D01*
G75*
G02*
X124575000Y-78349999I0J-249999D01*
G01*
X124575000Y-79650001D01*
G75*
G02*
X124325001Y-79900000I-249999J0D01*
G01*
X123499999Y-79900000D01*
G75*
G02*
X123250000Y-79650001I0J249999D01*
G01*
G37*
G36*
G01*
X127075000Y-89849999D02*
X127075000Y-91150001D01*
G75*
G02*
X126825001Y-91400000I-249999J0D01*
G01*
X125999999Y-91400000D01*
G75*
G02*
X125750000Y-91150001I0J249999D01*
G01*
X125750000Y-89849999D01*
G75*
G02*
X125999999Y-89600000I249999J0D01*
G01*
X126825001Y-89600000D01*
G75*
G02*
X127075000Y-89849999I0J-249999D01*
G01*
G37*
G36*
G01*
X130200000Y-89849999D02*
X130200000Y-91150001D01*
G75*
G02*
X129950001Y-91400000I-249999J0D01*
G01*
X129124999Y-91400000D01*
G75*
G02*
X128875000Y-91150001I0J249999D01*
G01*
X128875000Y-89849999D01*
G75*
G02*
X129124999Y-89600000I249999J0D01*
G01*
X129950001Y-89600000D01*
G75*
G02*
X130200000Y-89849999I0J-249999D01*
G01*
G37*
D11*
X160000000Y-70750000D03*
D12*
X161000000Y-74000000D03*
X159000000Y-74000000D03*
G36*
G01*
X163340000Y-85487500D02*
X163040000Y-85487500D01*
G75*
G02*
X162890000Y-85337500I0J150000D01*
G01*
X162890000Y-83662500D01*
G75*
G02*
X163040000Y-83512500I150000J0D01*
G01*
X163340000Y-83512500D01*
G75*
G02*
X163490000Y-83662500I0J-150000D01*
G01*
X163490000Y-85337500D01*
G75*
G02*
X163340000Y-85487500I-150000J0D01*
G01*
G37*
G36*
G01*
X164610000Y-85487500D02*
X164310000Y-85487500D01*
G75*
G02*
X164160000Y-85337500I0J150000D01*
G01*
X164160000Y-83662500D01*
G75*
G02*
X164310000Y-83512500I150000J0D01*
G01*
X164610000Y-83512500D01*
G75*
G02*
X164760000Y-83662500I0J-150000D01*
G01*
X164760000Y-85337500D01*
G75*
G02*
X164610000Y-85487500I-150000J0D01*
G01*
G37*
G36*
G01*
X165880000Y-85487500D02*
X165580000Y-85487500D01*
G75*
G02*
X165430000Y-85337500I0J150000D01*
G01*
X165430000Y-83662500D01*
G75*
G02*
X165580000Y-83512500I150000J0D01*
G01*
X165880000Y-83512500D01*
G75*
G02*
X166030000Y-83662500I0J-150000D01*
G01*
X166030000Y-85337500D01*
G75*
G02*
X165880000Y-85487500I-150000J0D01*
G01*
G37*
G36*
G01*
X167150000Y-85487500D02*
X166850000Y-85487500D01*
G75*
G02*
X166700000Y-85337500I0J150000D01*
G01*
X166700000Y-83662500D01*
G75*
G02*
X166850000Y-83512500I150000J0D01*
G01*
X167150000Y-83512500D01*
G75*
G02*
X167300000Y-83662500I0J-150000D01*
G01*
X167300000Y-85337500D01*
G75*
G02*
X167150000Y-85487500I-150000J0D01*
G01*
G37*
G36*
G01*
X168420000Y-85487500D02*
X168120000Y-85487500D01*
G75*
G02*
X167970000Y-85337500I0J150000D01*
G01*
X167970000Y-83662500D01*
G75*
G02*
X168120000Y-83512500I150000J0D01*
G01*
X168420000Y-83512500D01*
G75*
G02*
X168570000Y-83662500I0J-150000D01*
G01*
X168570000Y-85337500D01*
G75*
G02*
X168420000Y-85487500I-150000J0D01*
G01*
G37*
G36*
G01*
X169690000Y-85487500D02*
X169390000Y-85487500D01*
G75*
G02*
X169240000Y-85337500I0J150000D01*
G01*
X169240000Y-83662500D01*
G75*
G02*
X169390000Y-83512500I150000J0D01*
G01*
X169690000Y-83512500D01*
G75*
G02*
X169840000Y-83662500I0J-150000D01*
G01*
X169840000Y-85337500D01*
G75*
G02*
X169690000Y-85487500I-150000J0D01*
G01*
G37*
G36*
G01*
X170960000Y-85487500D02*
X170660000Y-85487500D01*
G75*
G02*
X170510000Y-85337500I0J150000D01*
G01*
X170510000Y-83662500D01*
G75*
G02*
X170660000Y-83512500I150000J0D01*
G01*
X170960000Y-83512500D01*
G75*
G02*
X171110000Y-83662500I0J-150000D01*
G01*
X171110000Y-85337500D01*
G75*
G02*
X170960000Y-85487500I-150000J0D01*
G01*
G37*
G36*
G01*
X170960000Y-92412500D02*
X170660000Y-92412500D01*
G75*
G02*
X170510000Y-92262500I0J150000D01*
G01*
X170510000Y-90587500D01*
G75*
G02*
X170660000Y-90437500I150000J0D01*
G01*
X170960000Y-90437500D01*
G75*
G02*
X171110000Y-90587500I0J-150000D01*
G01*
X171110000Y-92262500D01*
G75*
G02*
X170960000Y-92412500I-150000J0D01*
G01*
G37*
G36*
G01*
X169690000Y-92412500D02*
X169390000Y-92412500D01*
G75*
G02*
X169240000Y-92262500I0J150000D01*
G01*
X169240000Y-90587500D01*
G75*
G02*
X169390000Y-90437500I150000J0D01*
G01*
X169690000Y-90437500D01*
G75*
G02*
X169840000Y-90587500I0J-150000D01*
G01*
X169840000Y-92262500D01*
G75*
G02*
X169690000Y-92412500I-150000J0D01*
G01*
G37*
G36*
G01*
X168420000Y-92412500D02*
X168120000Y-92412500D01*
G75*
G02*
X167970000Y-92262500I0J150000D01*
G01*
X167970000Y-90587500D01*
G75*
G02*
X168120000Y-90437500I150000J0D01*
G01*
X168420000Y-90437500D01*
G75*
G02*
X168570000Y-90587500I0J-150000D01*
G01*
X168570000Y-92262500D01*
G75*
G02*
X168420000Y-92412500I-150000J0D01*
G01*
G37*
G36*
G01*
X167150000Y-92412500D02*
X166850000Y-92412500D01*
G75*
G02*
X166700000Y-92262500I0J150000D01*
G01*
X166700000Y-90587500D01*
G75*
G02*
X166850000Y-90437500I150000J0D01*
G01*
X167150000Y-90437500D01*
G75*
G02*
X167300000Y-90587500I0J-150000D01*
G01*
X167300000Y-92262500D01*
G75*
G02*
X167150000Y-92412500I-150000J0D01*
G01*
G37*
G36*
G01*
X165880000Y-92412500D02*
X165580000Y-92412500D01*
G75*
G02*
X165430000Y-92262500I0J150000D01*
G01*
X165430000Y-90587500D01*
G75*
G02*
X165580000Y-90437500I150000J0D01*
G01*
X165880000Y-90437500D01*
G75*
G02*
X166030000Y-90587500I0J-150000D01*
G01*
X166030000Y-92262500D01*
G75*
G02*
X165880000Y-92412500I-150000J0D01*
G01*
G37*
G36*
G01*
X164610000Y-92412500D02*
X164310000Y-92412500D01*
G75*
G02*
X164160000Y-92262500I0J150000D01*
G01*
X164160000Y-90587500D01*
G75*
G02*
X164310000Y-90437500I150000J0D01*
G01*
X164610000Y-90437500D01*
G75*
G02*
X164760000Y-90587500I0J-150000D01*
G01*
X164760000Y-92262500D01*
G75*
G02*
X164610000Y-92412500I-150000J0D01*
G01*
G37*
G36*
G01*
X163340000Y-92412500D02*
X163040000Y-92412500D01*
G75*
G02*
X162890000Y-92262500I0J150000D01*
G01*
X162890000Y-90587500D01*
G75*
G02*
X163040000Y-90437500I150000J0D01*
G01*
X163340000Y-90437500D01*
G75*
G02*
X163490000Y-90587500I0J-150000D01*
G01*
X163490000Y-92262500D01*
G75*
G02*
X163340000Y-92412500I-150000J0D01*
G01*
G37*
G36*
G01*
X138437500Y-103760000D02*
X138437500Y-103460000D01*
G75*
G02*
X138587500Y-103310000I150000J0D01*
G01*
X140262500Y-103310000D01*
G75*
G02*
X140412500Y-103460000I0J-150000D01*
G01*
X140412500Y-103760000D01*
G75*
G02*
X140262500Y-103910000I-150000J0D01*
G01*
X138587500Y-103910000D01*
G75*
G02*
X138437500Y-103760000I0J150000D01*
G01*
G37*
G36*
G01*
X138437500Y-105030000D02*
X138437500Y-104730000D01*
G75*
G02*
X138587500Y-104580000I150000J0D01*
G01*
X140262500Y-104580000D01*
G75*
G02*
X140412500Y-104730000I0J-150000D01*
G01*
X140412500Y-105030000D01*
G75*
G02*
X140262500Y-105180000I-150000J0D01*
G01*
X138587500Y-105180000D01*
G75*
G02*
X138437500Y-105030000I0J150000D01*
G01*
G37*
G36*
G01*
X138437500Y-106300000D02*
X138437500Y-106000000D01*
G75*
G02*
X138587500Y-105850000I150000J0D01*
G01*
X140262500Y-105850000D01*
G75*
G02*
X140412500Y-106000000I0J-150000D01*
G01*
X140412500Y-106300000D01*
G75*
G02*
X140262500Y-106450000I-150000J0D01*
G01*
X138587500Y-106450000D01*
G75*
G02*
X138437500Y-106300000I0J150000D01*
G01*
G37*
G36*
G01*
X138437500Y-107570000D02*
X138437500Y-107270000D01*
G75*
G02*
X138587500Y-107120000I150000J0D01*
G01*
X140262500Y-107120000D01*
G75*
G02*
X140412500Y-107270000I0J-150000D01*
G01*
X140412500Y-107570000D01*
G75*
G02*
X140262500Y-107720000I-150000J0D01*
G01*
X138587500Y-107720000D01*
G75*
G02*
X138437500Y-107570000I0J150000D01*
G01*
G37*
G36*
G01*
X138437500Y-108840000D02*
X138437500Y-108540000D01*
G75*
G02*
X138587500Y-108390000I150000J0D01*
G01*
X140262500Y-108390000D01*
G75*
G02*
X140412500Y-108540000I0J-150000D01*
G01*
X140412500Y-108840000D01*
G75*
G02*
X140262500Y-108990000I-150000J0D01*
G01*
X138587500Y-108990000D01*
G75*
G02*
X138437500Y-108840000I0J150000D01*
G01*
G37*
G36*
G01*
X138437500Y-110110000D02*
X138437500Y-109810000D01*
G75*
G02*
X138587500Y-109660000I150000J0D01*
G01*
X140262500Y-109660000D01*
G75*
G02*
X140412500Y-109810000I0J-150000D01*
G01*
X140412500Y-110110000D01*
G75*
G02*
X140262500Y-110260000I-150000J0D01*
G01*
X138587500Y-110260000D01*
G75*
G02*
X138437500Y-110110000I0J150000D01*
G01*
G37*
G36*
G01*
X138437500Y-111380000D02*
X138437500Y-111080000D01*
G75*
G02*
X138587500Y-110930000I150000J0D01*
G01*
X140262500Y-110930000D01*
G75*
G02*
X140412500Y-111080000I0J-150000D01*
G01*
X140412500Y-111380000D01*
G75*
G02*
X140262500Y-111530000I-150000J0D01*
G01*
X138587500Y-111530000D01*
G75*
G02*
X138437500Y-111380000I0J150000D01*
G01*
G37*
G36*
G01*
X138437500Y-112650000D02*
X138437500Y-112350000D01*
G75*
G02*
X138587500Y-112200000I150000J0D01*
G01*
X140262500Y-112200000D01*
G75*
G02*
X140412500Y-112350000I0J-150000D01*
G01*
X140412500Y-112650000D01*
G75*
G02*
X140262500Y-112800000I-150000J0D01*
G01*
X138587500Y-112800000D01*
G75*
G02*
X138437500Y-112650000I0J150000D01*
G01*
G37*
G36*
G01*
X131512500Y-112650000D02*
X131512500Y-112350000D01*
G75*
G02*
X131662500Y-112200000I150000J0D01*
G01*
X133337500Y-112200000D01*
G75*
G02*
X133487500Y-112350000I0J-150000D01*
G01*
X133487500Y-112650000D01*
G75*
G02*
X133337500Y-112800000I-150000J0D01*
G01*
X131662500Y-112800000D01*
G75*
G02*
X131512500Y-112650000I0J150000D01*
G01*
G37*
G36*
G01*
X131512500Y-111380000D02*
X131512500Y-111080000D01*
G75*
G02*
X131662500Y-110930000I150000J0D01*
G01*
X133337500Y-110930000D01*
G75*
G02*
X133487500Y-111080000I0J-150000D01*
G01*
X133487500Y-111380000D01*
G75*
G02*
X133337500Y-111530000I-150000J0D01*
G01*
X131662500Y-111530000D01*
G75*
G02*
X131512500Y-111380000I0J150000D01*
G01*
G37*
G36*
G01*
X131512500Y-110110000D02*
X131512500Y-109810000D01*
G75*
G02*
X131662500Y-109660000I150000J0D01*
G01*
X133337500Y-109660000D01*
G75*
G02*
X133487500Y-109810000I0J-150000D01*
G01*
X133487500Y-110110000D01*
G75*
G02*
X133337500Y-110260000I-150000J0D01*
G01*
X131662500Y-110260000D01*
G75*
G02*
X131512500Y-110110000I0J150000D01*
G01*
G37*
G36*
G01*
X131512500Y-108840000D02*
X131512500Y-108540000D01*
G75*
G02*
X131662500Y-108390000I150000J0D01*
G01*
X133337500Y-108390000D01*
G75*
G02*
X133487500Y-108540000I0J-150000D01*
G01*
X133487500Y-108840000D01*
G75*
G02*
X133337500Y-108990000I-150000J0D01*
G01*
X131662500Y-108990000D01*
G75*
G02*
X131512500Y-108840000I0J150000D01*
G01*
G37*
G36*
G01*
X131512500Y-107570000D02*
X131512500Y-107270000D01*
G75*
G02*
X131662500Y-107120000I150000J0D01*
G01*
X133337500Y-107120000D01*
G75*
G02*
X133487500Y-107270000I0J-150000D01*
G01*
X133487500Y-107570000D01*
G75*
G02*
X133337500Y-107720000I-150000J0D01*
G01*
X131662500Y-107720000D01*
G75*
G02*
X131512500Y-107570000I0J150000D01*
G01*
G37*
G36*
G01*
X131512500Y-106300000D02*
X131512500Y-106000000D01*
G75*
G02*
X131662500Y-105850000I150000J0D01*
G01*
X133337500Y-105850000D01*
G75*
G02*
X133487500Y-106000000I0J-150000D01*
G01*
X133487500Y-106300000D01*
G75*
G02*
X133337500Y-106450000I-150000J0D01*
G01*
X131662500Y-106450000D01*
G75*
G02*
X131512500Y-106300000I0J150000D01*
G01*
G37*
G36*
G01*
X131512500Y-105030000D02*
X131512500Y-104730000D01*
G75*
G02*
X131662500Y-104580000I150000J0D01*
G01*
X133337500Y-104580000D01*
G75*
G02*
X133487500Y-104730000I0J-150000D01*
G01*
X133487500Y-105030000D01*
G75*
G02*
X133337500Y-105180000I-150000J0D01*
G01*
X131662500Y-105180000D01*
G75*
G02*
X131512500Y-105030000I0J150000D01*
G01*
G37*
G36*
G01*
X131512500Y-103760000D02*
X131512500Y-103460000D01*
G75*
G02*
X131662500Y-103310000I150000J0D01*
G01*
X133337500Y-103310000D01*
G75*
G02*
X133487500Y-103460000I0J-150000D01*
G01*
X133487500Y-103760000D01*
G75*
G02*
X133337500Y-103910000I-150000J0D01*
G01*
X131662500Y-103910000D01*
G75*
G02*
X131512500Y-103760000I0J150000D01*
G01*
G37*
G36*
G01*
X130700000Y-82950000D02*
X130700000Y-84050000D01*
G75*
G02*
X130450000Y-84300000I-250000J0D01*
G01*
X128350000Y-84300000D01*
G75*
G02*
X128100000Y-84050000I0J250000D01*
G01*
X128100000Y-82950000D01*
G75*
G02*
X128350000Y-82700000I250000J0D01*
G01*
X130450000Y-82700000D01*
G75*
G02*
X130700000Y-82950000I0J-250000D01*
G01*
G37*
G36*
G01*
X134300000Y-82950000D02*
X134300000Y-84050000D01*
G75*
G02*
X134050000Y-84300000I-250000J0D01*
G01*
X131950000Y-84300000D01*
G75*
G02*
X131700000Y-84050000I0J250000D01*
G01*
X131700000Y-82950000D01*
G75*
G02*
X131950000Y-82700000I250000J0D01*
G01*
X134050000Y-82700000D01*
G75*
G02*
X134300000Y-82950000I0J-250000D01*
G01*
G37*
G36*
G01*
X148800000Y-72050000D02*
X148800000Y-70950000D01*
G75*
G02*
X149050000Y-70700000I250000J0D01*
G01*
X151150000Y-70700000D01*
G75*
G02*
X151400000Y-70950000I0J-250000D01*
G01*
X151400000Y-72050000D01*
G75*
G02*
X151150000Y-72300000I-250000J0D01*
G01*
X149050000Y-72300000D01*
G75*
G02*
X148800000Y-72050000I0J250000D01*
G01*
G37*
G36*
G01*
X145200000Y-72050000D02*
X145200000Y-70950000D01*
G75*
G02*
X145450000Y-70700000I250000J0D01*
G01*
X147550000Y-70700000D01*
G75*
G02*
X147800000Y-70950000I0J-250000D01*
G01*
X147800000Y-72050000D01*
G75*
G02*
X147550000Y-72300000I-250000J0D01*
G01*
X145450000Y-72300000D01*
G75*
G02*
X145200000Y-72050000I0J250000D01*
G01*
G37*
G36*
G01*
X123550000Y-64000000D02*
X122450000Y-64000000D01*
G75*
G02*
X122200000Y-63750000I0J250000D01*
G01*
X122200000Y-61650000D01*
G75*
G02*
X122450000Y-61400000I250000J0D01*
G01*
X123550000Y-61400000D01*
G75*
G02*
X123800000Y-61650000I0J-250000D01*
G01*
X123800000Y-63750000D01*
G75*
G02*
X123550000Y-64000000I-250000J0D01*
G01*
G37*
G36*
G01*
X123550000Y-67600000D02*
X122450000Y-67600000D01*
G75*
G02*
X122200000Y-67350000I0J250000D01*
G01*
X122200000Y-65250000D01*
G75*
G02*
X122450000Y-65000000I250000J0D01*
G01*
X123550000Y-65000000D01*
G75*
G02*
X123800000Y-65250000I0J-250000D01*
G01*
X123800000Y-67350000D01*
G75*
G02*
X123550000Y-67600000I-250000J0D01*
G01*
G37*
G36*
G01*
X140300000Y-75750000D02*
X140300000Y-74650000D01*
G75*
G02*
X140550000Y-74400000I250000J0D01*
G01*
X142650000Y-74400000D01*
G75*
G02*
X142900000Y-74650000I0J-250000D01*
G01*
X142900000Y-75750000D01*
G75*
G02*
X142650000Y-76000000I-250000J0D01*
G01*
X140550000Y-76000000D01*
G75*
G02*
X140300000Y-75750000I0J250000D01*
G01*
G37*
G36*
G01*
X136700000Y-75750000D02*
X136700000Y-74650000D01*
G75*
G02*
X136950000Y-74400000I250000J0D01*
G01*
X139050000Y-74400000D01*
G75*
G02*
X139300000Y-74650000I0J-250000D01*
G01*
X139300000Y-75750000D01*
G75*
G02*
X139050000Y-76000000I-250000J0D01*
G01*
X136950000Y-76000000D01*
G75*
G02*
X136700000Y-75750000I0J250000D01*
G01*
G37*
G36*
G01*
X126350000Y-71600000D02*
X125250000Y-71600000D01*
G75*
G02*
X125000000Y-71350000I0J250000D01*
G01*
X125000000Y-69250000D01*
G75*
G02*
X125250000Y-69000000I250000J0D01*
G01*
X126350000Y-69000000D01*
G75*
G02*
X126600000Y-69250000I0J-250000D01*
G01*
X126600000Y-71350000D01*
G75*
G02*
X126350000Y-71600000I-250000J0D01*
G01*
G37*
G36*
G01*
X126350000Y-75200000D02*
X125250000Y-75200000D01*
G75*
G02*
X125000000Y-74950000I0J250000D01*
G01*
X125000000Y-72850000D01*
G75*
G02*
X125250000Y-72600000I250000J0D01*
G01*
X126350000Y-72600000D01*
G75*
G02*
X126600000Y-72850000I0J-250000D01*
G01*
X126600000Y-74950000D01*
G75*
G02*
X126350000Y-75200000I-250000J0D01*
G01*
G37*
G36*
G01*
X123550000Y-96500000D02*
X122450000Y-96500000D01*
G75*
G02*
X122200000Y-96250000I0J250000D01*
G01*
X122200000Y-94150000D01*
G75*
G02*
X122450000Y-93900000I250000J0D01*
G01*
X123550000Y-93900000D01*
G75*
G02*
X123800000Y-94150000I0J-250000D01*
G01*
X123800000Y-96250000D01*
G75*
G02*
X123550000Y-96500000I-250000J0D01*
G01*
G37*
G36*
G01*
X123550000Y-100100000D02*
X122450000Y-100100000D01*
G75*
G02*
X122200000Y-99850000I0J250000D01*
G01*
X122200000Y-97750000D01*
G75*
G02*
X122450000Y-97500000I250000J0D01*
G01*
X123550000Y-97500000D01*
G75*
G02*
X123800000Y-97750000I0J-250000D01*
G01*
X123800000Y-99850000D01*
G75*
G02*
X123550000Y-100100000I-250000J0D01*
G01*
G37*
G36*
G01*
X123750000Y-86150000D02*
X122650000Y-86150000D01*
G75*
G02*
X122400000Y-85900000I0J250000D01*
G01*
X122400000Y-83800000D01*
G75*
G02*
X122650000Y-83550000I250000J0D01*
G01*
X123750000Y-83550000D01*
G75*
G02*
X124000000Y-83800000I0J-250000D01*
G01*
X124000000Y-85900000D01*
G75*
G02*
X123750000Y-86150000I-250000J0D01*
G01*
G37*
G36*
G01*
X123750000Y-89750000D02*
X122650000Y-89750000D01*
G75*
G02*
X122400000Y-89500000I0J250000D01*
G01*
X122400000Y-87400000D01*
G75*
G02*
X122650000Y-87150000I250000J0D01*
G01*
X123750000Y-87150000D01*
G75*
G02*
X124000000Y-87400000I0J-250000D01*
G01*
X124000000Y-89500000D01*
G75*
G02*
X123750000Y-89750000I-250000J0D01*
G01*
G37*
M02*
