G04 #@! TF.GenerationSoftware,KiCad,Pcbnew,5.1.10-88a1d61d58~88~ubuntu18.04.1*
G04 #@! TF.CreationDate,2024-08-03T23:10:31-04:00*
G04 #@! TF.ProjectId,238-capstan,3233382d-6361-4707-9374-616e2e6b6963,rev?*
G04 #@! TF.SameCoordinates,Original*
G04 #@! TF.FileFunction,Legend,Top*
G04 #@! TF.FilePolarity,Positive*
%FSLAX46Y46*%
G04 Gerber Fmt 4.6, Leading zero omitted, Abs format (unit mm)*
G04 Created by KiCad (PCBNEW 5.1.10-88a1d61d58~88~ubuntu18.04.1) date 2024-08-03 23:10:31*
%MOMM*%
%LPD*%
G01*
G04 APERTURE LIST*
%ADD10C,0.150000*%
%ADD11C,0.120000*%
%ADD12O,2.500000X2.000000*%
%ADD13R,1.300000X1.700000*%
%ADD14C,2.100000*%
%ADD15C,2.500000*%
%ADD16R,1.600000X1.500000*%
%ADD17R,1.200000X1.200000*%
%ADD18C,0.100000*%
%ADD19O,1.700000X2.100000*%
%ADD20R,1.700000X2.100000*%
%ADD21R,2.500000X2.500000*%
G04 APERTURE END LIST*
D10*
X128469047Y-52377380D02*
X128469047Y-51377380D01*
X128469047Y-52329761D02*
X128373809Y-52377380D01*
X128183333Y-52377380D01*
X128088095Y-52329761D01*
X128040476Y-52282142D01*
X127992857Y-52186904D01*
X127992857Y-51901190D01*
X128040476Y-51805952D01*
X128088095Y-51758333D01*
X128183333Y-51710714D01*
X128373809Y-51710714D01*
X128469047Y-51758333D01*
X129326190Y-52329761D02*
X129230952Y-52377380D01*
X129040476Y-52377380D01*
X128945238Y-52329761D01*
X128897619Y-52234523D01*
X128897619Y-51853571D01*
X128945238Y-51758333D01*
X129040476Y-51710714D01*
X129230952Y-51710714D01*
X129326190Y-51758333D01*
X129373809Y-51853571D01*
X129373809Y-51948809D01*
X128897619Y-52044047D01*
X129802380Y-51710714D02*
X129802380Y-52377380D01*
X129802380Y-51805952D02*
X129850000Y-51758333D01*
X129945238Y-51710714D01*
X130088095Y-51710714D01*
X130183333Y-51758333D01*
X130230952Y-51853571D01*
X130230952Y-52377380D01*
X130707142Y-52377380D02*
X130707142Y-51710714D01*
X130707142Y-51377380D02*
X130659523Y-51425000D01*
X130707142Y-51472619D01*
X130754761Y-51425000D01*
X130707142Y-51377380D01*
X130707142Y-51472619D01*
X131135714Y-52329761D02*
X131230952Y-52377380D01*
X131421428Y-52377380D01*
X131516666Y-52329761D01*
X131564285Y-52234523D01*
X131564285Y-52186904D01*
X131516666Y-52091666D01*
X131421428Y-52044047D01*
X131278571Y-52044047D01*
X131183333Y-51996428D01*
X131135714Y-51901190D01*
X131135714Y-51853571D01*
X131183333Y-51758333D01*
X131278571Y-51710714D01*
X131421428Y-51710714D01*
X131516666Y-51758333D01*
X132611904Y-51901190D02*
X132564285Y-51853571D01*
X132469047Y-51805952D01*
X132373809Y-51805952D01*
X132278571Y-51853571D01*
X132230952Y-51901190D01*
X132183333Y-51996428D01*
X132183333Y-52091666D01*
X132230952Y-52186904D01*
X132278571Y-52234523D01*
X132373809Y-52282142D01*
X132469047Y-52282142D01*
X132564285Y-52234523D01*
X132611904Y-52186904D01*
X132611904Y-51805952D02*
X132611904Y-52186904D01*
X132659523Y-52234523D01*
X132707142Y-52234523D01*
X132802380Y-52186904D01*
X132850000Y-52091666D01*
X132850000Y-51853571D01*
X132754761Y-51710714D01*
X132611904Y-51615476D01*
X132421428Y-51567857D01*
X132230952Y-51615476D01*
X132088095Y-51710714D01*
X131992857Y-51853571D01*
X131945238Y-52044047D01*
X131992857Y-52234523D01*
X132088095Y-52377380D01*
X132230952Y-52472619D01*
X132421428Y-52520238D01*
X132611904Y-52472619D01*
X132754761Y-52377380D01*
X133230952Y-51472619D02*
X133278571Y-51425000D01*
X133373809Y-51377380D01*
X133611904Y-51377380D01*
X133707142Y-51425000D01*
X133754761Y-51472619D01*
X133802380Y-51567857D01*
X133802380Y-51663095D01*
X133754761Y-51805952D01*
X133183333Y-52377380D01*
X133802380Y-52377380D01*
X134135714Y-51377380D02*
X134754761Y-51377380D01*
X134421428Y-51758333D01*
X134564285Y-51758333D01*
X134659523Y-51805952D01*
X134707142Y-51853571D01*
X134754761Y-51948809D01*
X134754761Y-52186904D01*
X134707142Y-52282142D01*
X134659523Y-52329761D01*
X134564285Y-52377380D01*
X134278571Y-52377380D01*
X134183333Y-52329761D01*
X134135714Y-52282142D01*
X135326190Y-51805952D02*
X135230952Y-51758333D01*
X135183333Y-51710714D01*
X135135714Y-51615476D01*
X135135714Y-51567857D01*
X135183333Y-51472619D01*
X135230952Y-51425000D01*
X135326190Y-51377380D01*
X135516666Y-51377380D01*
X135611904Y-51425000D01*
X135659523Y-51472619D01*
X135707142Y-51567857D01*
X135707142Y-51615476D01*
X135659523Y-51710714D01*
X135611904Y-51758333D01*
X135516666Y-51805952D01*
X135326190Y-51805952D01*
X135230952Y-51853571D01*
X135183333Y-51901190D01*
X135135714Y-51996428D01*
X135135714Y-52186904D01*
X135183333Y-52282142D01*
X135230952Y-52329761D01*
X135326190Y-52377380D01*
X135516666Y-52377380D01*
X135611904Y-52329761D01*
X135659523Y-52282142D01*
X135707142Y-52186904D01*
X135707142Y-51996428D01*
X135659523Y-51901190D01*
X135611904Y-51853571D01*
X135516666Y-51805952D01*
X136135714Y-51710714D02*
X136135714Y-52710714D01*
X136135714Y-51758333D02*
X136230952Y-51710714D01*
X136421428Y-51710714D01*
X136516666Y-51758333D01*
X136564285Y-51805952D01*
X136611904Y-51901190D01*
X136611904Y-52186904D01*
X136564285Y-52282142D01*
X136516666Y-52329761D01*
X136421428Y-52377380D01*
X136230952Y-52377380D01*
X136135714Y-52329761D01*
X137040476Y-52377380D02*
X137040476Y-51710714D01*
X137040476Y-51901190D02*
X137088095Y-51805952D01*
X137135714Y-51758333D01*
X137230952Y-51710714D01*
X137326190Y-51710714D01*
X137802380Y-52377380D02*
X137707142Y-52329761D01*
X137659523Y-52282142D01*
X137611904Y-52186904D01*
X137611904Y-51901190D01*
X137659523Y-51805952D01*
X137707142Y-51758333D01*
X137802380Y-51710714D01*
X137945238Y-51710714D01*
X138040476Y-51758333D01*
X138088095Y-51805952D01*
X138135714Y-51901190D01*
X138135714Y-52186904D01*
X138088095Y-52282142D01*
X138040476Y-52329761D01*
X137945238Y-52377380D01*
X137802380Y-52377380D01*
X138564285Y-52282142D02*
X138611904Y-52329761D01*
X138564285Y-52377380D01*
X138516666Y-52329761D01*
X138564285Y-52282142D01*
X138564285Y-52377380D01*
X139469047Y-52329761D02*
X139373809Y-52377380D01*
X139183333Y-52377380D01*
X139088095Y-52329761D01*
X139040476Y-52282142D01*
X138992857Y-52186904D01*
X138992857Y-51901190D01*
X139040476Y-51805952D01*
X139088095Y-51758333D01*
X139183333Y-51710714D01*
X139373809Y-51710714D01*
X139469047Y-51758333D01*
X140040476Y-52377380D02*
X139945238Y-52329761D01*
X139897619Y-52282142D01*
X139850000Y-52186904D01*
X139850000Y-51901190D01*
X139897619Y-51805952D01*
X139945238Y-51758333D01*
X140040476Y-51710714D01*
X140183333Y-51710714D01*
X140278571Y-51758333D01*
X140326190Y-51805952D01*
X140373809Y-51901190D01*
X140373809Y-52186904D01*
X140326190Y-52282142D01*
X140278571Y-52329761D01*
X140183333Y-52377380D01*
X140040476Y-52377380D01*
X140802380Y-52377380D02*
X140802380Y-51710714D01*
X140802380Y-51805952D02*
X140850000Y-51758333D01*
X140945238Y-51710714D01*
X141088095Y-51710714D01*
X141183333Y-51758333D01*
X141230952Y-51853571D01*
X141230952Y-52377380D01*
X141230952Y-51853571D02*
X141278571Y-51758333D01*
X141373809Y-51710714D01*
X141516666Y-51710714D01*
X141611904Y-51758333D01*
X141659523Y-51853571D01*
X141659523Y-52377380D01*
X129564285Y-53360714D02*
X129802380Y-54027380D01*
X130040476Y-53360714D01*
X130373809Y-53122619D02*
X130421428Y-53075000D01*
X130516666Y-53027380D01*
X130754761Y-53027380D01*
X130850000Y-53075000D01*
X130897619Y-53122619D01*
X130945238Y-53217857D01*
X130945238Y-53313095D01*
X130897619Y-53455952D01*
X130326190Y-54027380D01*
X130945238Y-54027380D01*
X131564285Y-53027380D02*
X131659523Y-53027380D01*
X131754761Y-53075000D01*
X131802380Y-53122619D01*
X131850000Y-53217857D01*
X131897619Y-53408333D01*
X131897619Y-53646428D01*
X131850000Y-53836904D01*
X131802380Y-53932142D01*
X131754761Y-53979761D01*
X131659523Y-54027380D01*
X131564285Y-54027380D01*
X131469047Y-53979761D01*
X131421428Y-53932142D01*
X131373809Y-53836904D01*
X131326190Y-53646428D01*
X131326190Y-53408333D01*
X131373809Y-53217857D01*
X131421428Y-53122619D01*
X131469047Y-53075000D01*
X131564285Y-53027380D01*
X132278571Y-53122619D02*
X132326190Y-53075000D01*
X132421428Y-53027380D01*
X132659523Y-53027380D01*
X132754761Y-53075000D01*
X132802380Y-53122619D01*
X132850000Y-53217857D01*
X132850000Y-53313095D01*
X132802380Y-53455952D01*
X132230952Y-54027380D01*
X132850000Y-54027380D01*
X133707142Y-53360714D02*
X133707142Y-54027380D01*
X133469047Y-52979761D02*
X133230952Y-53694047D01*
X133850000Y-53694047D01*
X134230952Y-53646428D02*
X134992857Y-53646428D01*
X135659523Y-53027380D02*
X135754761Y-53027380D01*
X135850000Y-53075000D01*
X135897619Y-53122619D01*
X135945238Y-53217857D01*
X135992857Y-53408333D01*
X135992857Y-53646428D01*
X135945238Y-53836904D01*
X135897619Y-53932142D01*
X135850000Y-53979761D01*
X135754761Y-54027380D01*
X135659523Y-54027380D01*
X135564285Y-53979761D01*
X135516666Y-53932142D01*
X135469047Y-53836904D01*
X135421428Y-53646428D01*
X135421428Y-53408333D01*
X135469047Y-53217857D01*
X135516666Y-53122619D01*
X135564285Y-53075000D01*
X135659523Y-53027380D01*
X136564285Y-53455952D02*
X136469047Y-53408333D01*
X136421428Y-53360714D01*
X136373809Y-53265476D01*
X136373809Y-53217857D01*
X136421428Y-53122619D01*
X136469047Y-53075000D01*
X136564285Y-53027380D01*
X136754761Y-53027380D01*
X136850000Y-53075000D01*
X136897619Y-53122619D01*
X136945238Y-53217857D01*
X136945238Y-53265476D01*
X136897619Y-53360714D01*
X136850000Y-53408333D01*
X136754761Y-53455952D01*
X136564285Y-53455952D01*
X136469047Y-53503571D01*
X136421428Y-53551190D01*
X136373809Y-53646428D01*
X136373809Y-53836904D01*
X136421428Y-53932142D01*
X136469047Y-53979761D01*
X136564285Y-54027380D01*
X136754761Y-54027380D01*
X136850000Y-53979761D01*
X136897619Y-53932142D01*
X136945238Y-53836904D01*
X136945238Y-53646428D01*
X136897619Y-53551190D01*
X136850000Y-53503571D01*
X136754761Y-53455952D01*
X137373809Y-53646428D02*
X138135714Y-53646428D01*
X138802380Y-53027380D02*
X138897619Y-53027380D01*
X138992857Y-53075000D01*
X139040476Y-53122619D01*
X139088095Y-53217857D01*
X139135714Y-53408333D01*
X139135714Y-53646428D01*
X139088095Y-53836904D01*
X139040476Y-53932142D01*
X138992857Y-53979761D01*
X138897619Y-54027380D01*
X138802380Y-54027380D01*
X138707142Y-53979761D01*
X138659523Y-53932142D01*
X138611904Y-53836904D01*
X138564285Y-53646428D01*
X138564285Y-53408333D01*
X138611904Y-53217857D01*
X138659523Y-53122619D01*
X138707142Y-53075000D01*
X138802380Y-53027380D01*
X139469047Y-53027380D02*
X140088095Y-53027380D01*
X139754761Y-53408333D01*
X139897619Y-53408333D01*
X139992857Y-53455952D01*
X140040476Y-53503571D01*
X140088095Y-53598809D01*
X140088095Y-53836904D01*
X140040476Y-53932142D01*
X139992857Y-53979761D01*
X139897619Y-54027380D01*
X139611904Y-54027380D01*
X139516666Y-53979761D01*
X139469047Y-53932142D01*
X161430952Y-113802380D02*
X161430952Y-114516666D01*
X161383333Y-114659523D01*
X161288095Y-114754761D01*
X161145238Y-114802380D01*
X161050000Y-114802380D01*
X162383333Y-114802380D02*
X161907142Y-114802380D01*
X161907142Y-113802380D01*
X163288095Y-114707142D02*
X163240476Y-114754761D01*
X163097619Y-114802380D01*
X163002380Y-114802380D01*
X162859523Y-114754761D01*
X162764285Y-114659523D01*
X162716666Y-114564285D01*
X162669047Y-114373809D01*
X162669047Y-114230952D01*
X162716666Y-114040476D01*
X162764285Y-113945238D01*
X162859523Y-113850000D01*
X163002380Y-113802380D01*
X163097619Y-113802380D01*
X163240476Y-113850000D01*
X163288095Y-113897619D01*
X164002380Y-113802380D02*
X164002380Y-114516666D01*
X163954761Y-114659523D01*
X163859523Y-114754761D01*
X163716666Y-114802380D01*
X163621428Y-114802380D01*
X164954761Y-114802380D02*
X164478571Y-114802380D01*
X164478571Y-113802380D01*
X165859523Y-114707142D02*
X165811904Y-114754761D01*
X165669047Y-114802380D01*
X165573809Y-114802380D01*
X165430952Y-114754761D01*
X165335714Y-114659523D01*
X165288095Y-114564285D01*
X165240476Y-114373809D01*
X165240476Y-114230952D01*
X165288095Y-114040476D01*
X165335714Y-113945238D01*
X165430952Y-113850000D01*
X165573809Y-113802380D01*
X165669047Y-113802380D01*
X165811904Y-113850000D01*
X165859523Y-113897619D01*
X166573809Y-113802380D02*
X166573809Y-114516666D01*
X166526190Y-114659523D01*
X166430952Y-114754761D01*
X166288095Y-114802380D01*
X166192857Y-114802380D01*
X167526190Y-114802380D02*
X167050000Y-114802380D01*
X167050000Y-113802380D01*
X168430952Y-114707142D02*
X168383333Y-114754761D01*
X168240476Y-114802380D01*
X168145238Y-114802380D01*
X168002380Y-114754761D01*
X167907142Y-114659523D01*
X167859523Y-114564285D01*
X167811904Y-114373809D01*
X167811904Y-114230952D01*
X167859523Y-114040476D01*
X167907142Y-113945238D01*
X168002380Y-113850000D01*
X168145238Y-113802380D01*
X168240476Y-113802380D01*
X168383333Y-113850000D01*
X168430952Y-113897619D01*
X169145238Y-113802380D02*
X169145238Y-114516666D01*
X169097619Y-114659523D01*
X169002380Y-114754761D01*
X168859523Y-114802380D01*
X168764285Y-114802380D01*
X170097619Y-114802380D02*
X169621428Y-114802380D01*
X169621428Y-113802380D01*
X171002380Y-114707142D02*
X170954761Y-114754761D01*
X170811904Y-114802380D01*
X170716666Y-114802380D01*
X170573809Y-114754761D01*
X170478571Y-114659523D01*
X170430952Y-114564285D01*
X170383333Y-114373809D01*
X170383333Y-114230952D01*
X170430952Y-114040476D01*
X170478571Y-113945238D01*
X170573809Y-113850000D01*
X170716666Y-113802380D01*
X170811904Y-113802380D01*
X170954761Y-113850000D01*
X171002380Y-113897619D01*
D11*
X129400000Y-88500000D02*
X133700000Y-88500000D01*
X133700000Y-88500000D02*
X133700000Y-86500000D01*
X133700000Y-86500000D02*
X129400000Y-86500000D01*
X155910000Y-70810436D02*
X155910000Y-72264564D01*
X154090000Y-70810436D02*
X154090000Y-72264564D01*
X140189564Y-62410000D02*
X138735436Y-62410000D01*
X140189564Y-60590000D02*
X138735436Y-60590000D01*
X124764564Y-60410000D02*
X123310436Y-60410000D01*
X124764564Y-58590000D02*
X123310436Y-58590000D01*
X130235436Y-78090000D02*
X131689564Y-78090000D01*
X130235436Y-79910000D02*
X131689564Y-79910000D01*
X169290000Y-97277064D02*
X169290000Y-95822936D01*
X171110000Y-97277064D02*
X171110000Y-95822936D01*
X166277064Y-106910000D02*
X164822936Y-106910000D01*
X166277064Y-105090000D02*
X164822936Y-105090000D01*
X159264564Y-107910000D02*
X157810436Y-107910000D01*
X159264564Y-106090000D02*
X157810436Y-106090000D01*
X129910000Y-110735436D02*
X129910000Y-112189564D01*
X128090000Y-110735436D02*
X128090000Y-112189564D01*
X129910000Y-100735436D02*
X129910000Y-102189564D01*
X128090000Y-100735436D02*
X128090000Y-102189564D01*
X126090000Y-97189564D02*
X126090000Y-95735436D01*
X127910000Y-97189564D02*
X127910000Y-95735436D01*
X145927064Y-105310000D02*
X144472936Y-105310000D01*
X145927064Y-103490000D02*
X144472936Y-103490000D01*
X159590000Y-79439564D02*
X159590000Y-77985436D01*
X161410000Y-79439564D02*
X161410000Y-77985436D01*
X170410000Y-78772936D02*
X170410000Y-80227064D01*
X168590000Y-78772936D02*
X168590000Y-80227064D01*
X158422936Y-82340000D02*
X159877064Y-82340000D01*
X158422936Y-84160000D02*
X159877064Y-84160000D01*
X169689564Y-103410000D02*
X168235436Y-103410000D01*
X169689564Y-101590000D02*
X168235436Y-101590000D01*
X145911252Y-107810000D02*
X144488748Y-107810000D01*
X145911252Y-105990000D02*
X144488748Y-105990000D01*
X132311248Y-64290000D02*
X133733752Y-64290000D01*
X132311248Y-66110000D02*
X133733752Y-66110000D01*
X132263748Y-59590000D02*
X133686252Y-59590000D01*
X132263748Y-61410000D02*
X133686252Y-61410000D01*
X125236252Y-113910000D02*
X123813748Y-113910000D01*
X125236252Y-112090000D02*
X123813748Y-112090000D01*
X124763748Y-78090000D02*
X126186252Y-78090000D01*
X124763748Y-79910000D02*
X126186252Y-79910000D01*
X128686252Y-91410000D02*
X127263748Y-91410000D01*
X128686252Y-89590000D02*
X127263748Y-89590000D01*
X145026060Y-98814609D02*
G75*
G03*
X145026060Y-98814609I-1450000J0D01*
G01*
X149450000Y-100000000D02*
G75*
G03*
X149450000Y-100000000I-1450000J0D01*
G01*
X153873940Y-81185391D02*
G75*
G03*
X153873940Y-81185391I-1450000J0D01*
G01*
X149450000Y-80000000D02*
G75*
G03*
X149450000Y-80000000I-1450000J0D01*
G01*
X139950000Y-92280000D02*
G75*
G03*
X139950000Y-92280000I-1450000J0D01*
G01*
X139950000Y-87700000D02*
G75*
G03*
X139950000Y-87700000I-1450000J0D01*
G01*
X158950000Y-87900000D02*
G75*
G03*
X158950000Y-87900000I-1450000J0D01*
G01*
X158950000Y-92480000D02*
G75*
G03*
X158950000Y-92480000I-1450000J0D01*
G01*
X159800000Y-74300000D02*
X160200000Y-74300000D01*
X158400000Y-73200000D02*
X158400000Y-70300000D01*
X158400000Y-70300000D02*
X159000000Y-70300000D01*
X161600000Y-73200000D02*
X161600000Y-70300000D01*
X161600000Y-70300000D02*
X161000000Y-70300000D01*
X158200000Y-74100000D02*
X158200000Y-74800000D01*
X158200000Y-74800000D02*
X158900000Y-74800000D01*
X165950000Y-76500000D02*
G75*
G03*
X165950000Y-76500000I-1450000J0D01*
G01*
X130450000Y-106500000D02*
G75*
G03*
X130450000Y-106500000I-1450000J0D01*
G01*
X164950000Y-78600000D02*
G75*
G02*
X165650000Y-79300000I0J-700000D01*
G01*
X163650000Y-79300000D02*
G75*
G02*
X164350000Y-78600000I700000J0D01*
G01*
X164350000Y-81400000D02*
G75*
G02*
X163650000Y-80700000I0J700000D01*
G01*
X165650000Y-80700000D02*
G75*
G02*
X164950000Y-81400000I-700000J0D01*
G01*
X164350000Y-78600000D02*
X164950000Y-78600000D01*
X163650000Y-80700000D02*
X163650000Y-79300000D01*
X164950000Y-81400000D02*
X164350000Y-81400000D01*
X165650000Y-79300000D02*
X165650000Y-80700000D01*
X153200000Y-107400000D02*
G75*
G02*
X152500000Y-106700000I0J700000D01*
G01*
X154500000Y-106700000D02*
G75*
G02*
X153800000Y-107400000I-700000J0D01*
G01*
X153800000Y-104600000D02*
G75*
G02*
X154500000Y-105300000I0J-700000D01*
G01*
X152500000Y-105300000D02*
G75*
G02*
X153200000Y-104600000I700000J0D01*
G01*
X153800000Y-107400000D02*
X153200000Y-107400000D01*
X154500000Y-105300000D02*
X154500000Y-106700000D01*
X153200000Y-104600000D02*
X153800000Y-104600000D01*
X152500000Y-106700000D02*
X152500000Y-105300000D01*
X143200000Y-113400000D02*
G75*
G02*
X142500000Y-112700000I0J700000D01*
G01*
X144500000Y-112700000D02*
G75*
G02*
X143800000Y-113400000I-700000J0D01*
G01*
X143800000Y-110600000D02*
G75*
G02*
X144500000Y-111300000I0J-700000D01*
G01*
X142500000Y-111300000D02*
G75*
G02*
X143200000Y-110600000I700000J0D01*
G01*
X143800000Y-113400000D02*
X143200000Y-113400000D01*
X144500000Y-111300000D02*
X144500000Y-112700000D01*
X143200000Y-110600000D02*
X143800000Y-110600000D01*
X142500000Y-112700000D02*
X142500000Y-111300000D01*
X150770000Y-57830000D02*
X150770000Y-55170000D01*
X122770000Y-57830000D02*
X150770000Y-57830000D01*
X122770000Y-55170000D02*
X150770000Y-55170000D01*
X122770000Y-57830000D02*
X122770000Y-55170000D01*
X121500000Y-57830000D02*
X120170000Y-57830000D01*
X120170000Y-57830000D02*
X120170000Y-56500000D01*
X172210000Y-87962500D02*
X172210000Y-85202500D01*
X172210000Y-85202500D02*
X171370000Y-85202500D01*
X172210000Y-87962500D02*
X172210000Y-90722500D01*
X172210000Y-90722500D02*
X171370000Y-90722500D01*
X161790000Y-87962500D02*
X161790000Y-85202500D01*
X161790000Y-85202500D02*
X162630000Y-85202500D01*
X161790000Y-87962500D02*
X161790000Y-90722500D01*
X161790000Y-90722500D02*
X162630000Y-90722500D01*
X162630000Y-90722500D02*
X162630000Y-92412500D01*
X135962500Y-113265000D02*
X138722500Y-113265000D01*
X138722500Y-113265000D02*
X138722500Y-113060000D01*
X135962500Y-113265000D02*
X133202500Y-113265000D01*
X133202500Y-113265000D02*
X133202500Y-113060000D01*
X135962500Y-102845000D02*
X138722500Y-102845000D01*
X138722500Y-102845000D02*
X138722500Y-103050000D01*
X135962500Y-102845000D02*
X133202500Y-102845000D01*
X133202500Y-102845000D02*
X133202500Y-103050000D01*
X133202500Y-103050000D02*
X131512500Y-103050000D01*
X128940000Y-81240000D02*
X128940000Y-82440000D01*
X128940000Y-85760000D02*
X128940000Y-84560000D01*
X132395563Y-85760000D02*
X128940000Y-85760000D01*
X132395563Y-81240000D02*
X128940000Y-81240000D01*
X133460000Y-82304437D02*
X133460000Y-82440000D01*
X133460000Y-84695563D02*
X133460000Y-84560000D01*
X133460000Y-84695563D02*
X132395563Y-85760000D01*
X133460000Y-82304437D02*
X132395563Y-81240000D01*
X134200000Y-85060000D02*
X133700000Y-85060000D01*
X133950000Y-85310000D02*
X133950000Y-84810000D01*
X150560000Y-73760000D02*
X150560000Y-72560000D01*
X150560000Y-69240000D02*
X150560000Y-70440000D01*
X147104437Y-69240000D02*
X150560000Y-69240000D01*
X147104437Y-73760000D02*
X150560000Y-73760000D01*
X146040000Y-72695563D02*
X146040000Y-72560000D01*
X146040000Y-70304437D02*
X146040000Y-70440000D01*
X146040000Y-70304437D02*
X147104437Y-69240000D01*
X146040000Y-72695563D02*
X147104437Y-73760000D01*
X145300000Y-69940000D02*
X145800000Y-69940000D01*
X145550000Y-69690000D02*
X145550000Y-70190000D01*
X125260000Y-62240000D02*
X124060000Y-62240000D01*
X120740000Y-62240000D02*
X121940000Y-62240000D01*
X120740000Y-65695563D02*
X120740000Y-62240000D01*
X125260000Y-65695563D02*
X125260000Y-62240000D01*
X124195563Y-66760000D02*
X124060000Y-66760000D01*
X121804437Y-66760000D02*
X121940000Y-66760000D01*
X121804437Y-66760000D02*
X120740000Y-65695563D01*
X124195563Y-66760000D02*
X125260000Y-65695563D01*
X121440000Y-67500000D02*
X121440000Y-67000000D01*
X121190000Y-67250000D02*
X121690000Y-67250000D01*
X142060000Y-77460000D02*
X142060000Y-76260000D01*
X142060000Y-72940000D02*
X142060000Y-74140000D01*
X138604437Y-72940000D02*
X142060000Y-72940000D01*
X138604437Y-77460000D02*
X142060000Y-77460000D01*
X137540000Y-76395563D02*
X137540000Y-76260000D01*
X137540000Y-74004437D02*
X137540000Y-74140000D01*
X137540000Y-74004437D02*
X138604437Y-72940000D01*
X137540000Y-76395563D02*
X138604437Y-77460000D01*
X136800000Y-73640000D02*
X137300000Y-73640000D01*
X137050000Y-73390000D02*
X137050000Y-73890000D01*
X128060000Y-69840000D02*
X126860000Y-69840000D01*
X123540000Y-69840000D02*
X124740000Y-69840000D01*
X123540000Y-73295563D02*
X123540000Y-69840000D01*
X128060000Y-73295563D02*
X128060000Y-69840000D01*
X126995563Y-74360000D02*
X126860000Y-74360000D01*
X124604437Y-74360000D02*
X124740000Y-74360000D01*
X124604437Y-74360000D02*
X123540000Y-73295563D01*
X126995563Y-74360000D02*
X128060000Y-73295563D01*
X124240000Y-75100000D02*
X124240000Y-74600000D01*
X123990000Y-74850000D02*
X124490000Y-74850000D01*
X125260000Y-94740000D02*
X124060000Y-94740000D01*
X120740000Y-94740000D02*
X121940000Y-94740000D01*
X120740000Y-98195563D02*
X120740000Y-94740000D01*
X125260000Y-98195563D02*
X125260000Y-94740000D01*
X124195563Y-99260000D02*
X124060000Y-99260000D01*
X121804437Y-99260000D02*
X121940000Y-99260000D01*
X121804437Y-99260000D02*
X120740000Y-98195563D01*
X124195563Y-99260000D02*
X125260000Y-98195563D01*
X121440000Y-100000000D02*
X121440000Y-99500000D01*
X121190000Y-99750000D02*
X121690000Y-99750000D01*
X125460000Y-84390000D02*
X124260000Y-84390000D01*
X120940000Y-84390000D02*
X122140000Y-84390000D01*
X120940000Y-87845563D02*
X120940000Y-84390000D01*
X125460000Y-87845563D02*
X125460000Y-84390000D01*
X124395563Y-88910000D02*
X124260000Y-88910000D01*
X122004437Y-88910000D02*
X122140000Y-88910000D01*
X122004437Y-88910000D02*
X120940000Y-87845563D01*
X124395563Y-88910000D02*
X125460000Y-87845563D01*
X121640000Y-89650000D02*
X121640000Y-89150000D01*
X121390000Y-89400000D02*
X121890000Y-89400000D01*
X149450000Y-108550000D02*
X149450000Y-111450000D01*
X149450000Y-111450000D02*
X146550000Y-111450000D01*
X146550000Y-111450000D02*
X146550000Y-108550000D01*
X146550000Y-108550000D02*
X149450000Y-108550000D01*
X146550000Y-113550000D02*
X149450000Y-113550000D01*
X146550000Y-116450000D02*
X146550000Y-113550000D01*
X149450000Y-113550000D02*
X149450000Y-116450000D01*
X149450000Y-116450000D02*
X146550000Y-116450000D01*
X149500000Y-110000000D02*
X151500000Y-110000000D01*
X149500000Y-115000000D02*
X151500000Y-115000000D01*
X151500000Y-110200000D02*
X151500000Y-115200000D01*
X151500000Y-116000000D02*
X151500000Y-115200000D01*
X151500000Y-116000000D02*
X158000000Y-116000000D01*
X158000000Y-116000000D02*
X158000000Y-109000000D01*
X158000000Y-109000000D02*
X151500000Y-109000000D01*
X151500000Y-109000000D02*
X151500000Y-110200000D01*
X161550000Y-103950000D02*
X161550000Y-101050000D01*
X161550000Y-101050000D02*
X164450000Y-101050000D01*
X164450000Y-101050000D02*
X164450000Y-103950000D01*
X164450000Y-103950000D02*
X161550000Y-103950000D01*
X164450000Y-99450000D02*
X161550000Y-99450000D01*
X164450000Y-96550000D02*
X164450000Y-99450000D01*
X161550000Y-99450000D02*
X161550000Y-96550000D01*
X161550000Y-96550000D02*
X164450000Y-96550000D01*
X161500000Y-102500000D02*
X159500000Y-102500000D01*
X161500000Y-98000000D02*
X159500000Y-98000000D01*
X159500000Y-102500000D02*
X159500000Y-98000000D01*
X159500000Y-98000000D02*
X159500000Y-97500000D01*
X159500000Y-97500000D02*
X153000000Y-97500000D01*
X153000000Y-97500000D02*
X153000000Y-103000000D01*
X153000000Y-103000000D02*
X159500000Y-103000000D01*
X159500000Y-103000000D02*
X159500000Y-102500000D01*
D10*
X121800000Y-71580952D02*
X121752380Y-71676190D01*
X121752380Y-71819047D01*
X121800000Y-71961904D01*
X121895238Y-72057142D01*
X121990476Y-72104761D01*
X122180952Y-72152380D01*
X122323809Y-72152380D01*
X122514285Y-72104761D01*
X122609523Y-72057142D01*
X122704761Y-71961904D01*
X122752380Y-71819047D01*
X122752380Y-71723809D01*
X122704761Y-71580952D01*
X122657142Y-71533333D01*
X122323809Y-71533333D01*
X122323809Y-71723809D01*
X122752380Y-71104761D02*
X121752380Y-71104761D01*
X122752380Y-70533333D01*
X121752380Y-70533333D01*
X122752380Y-70057142D02*
X121752380Y-70057142D01*
X121752380Y-69819047D01*
X121800000Y-69676190D01*
X121895238Y-69580952D01*
X121990476Y-69533333D01*
X122180952Y-69485714D01*
X122323809Y-69485714D01*
X122514285Y-69533333D01*
X122609523Y-69580952D01*
X122704761Y-69676190D01*
X122752380Y-69819047D01*
X122752380Y-70057142D01*
X122371428Y-69057142D02*
X122371428Y-68295238D01*
X122752380Y-68676190D02*
X121990476Y-68676190D01*
X172988095Y-94452380D02*
X172988095Y-93452380D01*
X173369047Y-93452380D01*
X173464285Y-93500000D01*
X173511904Y-93547619D01*
X173559523Y-93642857D01*
X173559523Y-93785714D01*
X173511904Y-93880952D01*
X173464285Y-93928571D01*
X173369047Y-93976190D01*
X172988095Y-93976190D01*
X174559523Y-94357142D02*
X174511904Y-94404761D01*
X174369047Y-94452380D01*
X174273809Y-94452380D01*
X174130952Y-94404761D01*
X174035714Y-94309523D01*
X173988095Y-94214285D01*
X173940476Y-94023809D01*
X173940476Y-93880952D01*
X173988095Y-93690476D01*
X174035714Y-93595238D01*
X174130952Y-93500000D01*
X174273809Y-93452380D01*
X174369047Y-93452380D01*
X174511904Y-93500000D01*
X174559523Y-93547619D01*
X173126190Y-104185714D02*
X173126190Y-104852380D01*
X172888095Y-103804761D02*
X172650000Y-104519047D01*
X173269047Y-104519047D01*
X173650000Y-104757142D02*
X173697619Y-104804761D01*
X173650000Y-104852380D01*
X173602380Y-104804761D01*
X173650000Y-104757142D01*
X173650000Y-104852380D01*
X174269047Y-104280952D02*
X174173809Y-104233333D01*
X174126190Y-104185714D01*
X174078571Y-104090476D01*
X174078571Y-104042857D01*
X174126190Y-103947619D01*
X174173809Y-103900000D01*
X174269047Y-103852380D01*
X174459523Y-103852380D01*
X174554761Y-103900000D01*
X174602380Y-103947619D01*
X174650000Y-104042857D01*
X174650000Y-104090476D01*
X174602380Y-104185714D01*
X174554761Y-104233333D01*
X174459523Y-104280952D01*
X174269047Y-104280952D01*
X174173809Y-104328571D01*
X174126190Y-104376190D01*
X174078571Y-104471428D01*
X174078571Y-104661904D01*
X174126190Y-104757142D01*
X174173809Y-104804761D01*
X174269047Y-104852380D01*
X174459523Y-104852380D01*
X174554761Y-104804761D01*
X174602380Y-104757142D01*
X174650000Y-104661904D01*
X174650000Y-104471428D01*
X174602380Y-104376190D01*
X174554761Y-104328571D01*
X174459523Y-104280952D01*
X172795238Y-95802380D02*
X172985714Y-95802380D01*
X173080952Y-95754761D01*
X173128571Y-95707142D01*
X173223809Y-95564285D01*
X173271428Y-95373809D01*
X173271428Y-94992857D01*
X173223809Y-94897619D01*
X173176190Y-94850000D01*
X173080952Y-94802380D01*
X172890476Y-94802380D01*
X172795238Y-94850000D01*
X172747619Y-94897619D01*
X172700000Y-94992857D01*
X172700000Y-95230952D01*
X172747619Y-95326190D01*
X172795238Y-95373809D01*
X172890476Y-95421428D01*
X173080952Y-95421428D01*
X173176190Y-95373809D01*
X173223809Y-95326190D01*
X173271428Y-95230952D01*
X173700000Y-95707142D02*
X173747619Y-95754761D01*
X173700000Y-95802380D01*
X173652380Y-95754761D01*
X173700000Y-95707142D01*
X173700000Y-95802380D01*
X174604761Y-94802380D02*
X174414285Y-94802380D01*
X174319047Y-94850000D01*
X174271428Y-94897619D01*
X174176190Y-95040476D01*
X174128571Y-95230952D01*
X174128571Y-95611904D01*
X174176190Y-95707142D01*
X174223809Y-95754761D01*
X174319047Y-95802380D01*
X174509523Y-95802380D01*
X174604761Y-95754761D01*
X174652380Y-95707142D01*
X174700000Y-95611904D01*
X174700000Y-95373809D01*
X174652380Y-95278571D01*
X174604761Y-95230952D01*
X174509523Y-95183333D01*
X174319047Y-95183333D01*
X174223809Y-95230952D01*
X174176190Y-95278571D01*
X174128571Y-95373809D01*
X119178571Y-77057142D02*
X119178571Y-77390476D01*
X119702380Y-77390476D02*
X118702380Y-77390476D01*
X118702380Y-76914285D01*
X118750000Y-76009523D02*
X118702380Y-76104761D01*
X118702380Y-76247619D01*
X118750000Y-76390476D01*
X118845238Y-76485714D01*
X118940476Y-76533333D01*
X119130952Y-76580952D01*
X119273809Y-76580952D01*
X119464285Y-76533333D01*
X119559523Y-76485714D01*
X119654761Y-76390476D01*
X119702380Y-76247619D01*
X119702380Y-76152380D01*
X119654761Y-76009523D01*
X119607142Y-75961904D01*
X119273809Y-75961904D01*
X119273809Y-76152380D01*
X172509523Y-81457142D02*
X172461904Y-81504761D01*
X172319047Y-81552380D01*
X172223809Y-81552380D01*
X172080952Y-81504761D01*
X171985714Y-81409523D01*
X171938095Y-81314285D01*
X171890476Y-81123809D01*
X171890476Y-80980952D01*
X171938095Y-80790476D01*
X171985714Y-80695238D01*
X172080952Y-80600000D01*
X172223809Y-80552380D01*
X172319047Y-80552380D01*
X172461904Y-80600000D01*
X172509523Y-80647619D01*
X172938095Y-81552380D02*
X172938095Y-80552380D01*
X173509523Y-81552380D01*
X173509523Y-80552380D01*
X174509523Y-81552380D02*
X173938095Y-81552380D01*
X174223809Y-81552380D02*
X174223809Y-80552380D01*
X174128571Y-80695238D01*
X174033333Y-80790476D01*
X173938095Y-80838095D01*
X130340476Y-88952380D02*
X131007142Y-88952380D01*
X130340476Y-89952380D01*
X131007142Y-89952380D01*
X131911904Y-89952380D02*
X131340476Y-89952380D01*
X131626190Y-89952380D02*
X131626190Y-88952380D01*
X131530952Y-89095238D01*
X131435714Y-89190476D01*
X131340476Y-89238095D01*
X154357142Y-68802380D02*
X154023809Y-68326190D01*
X153785714Y-68802380D02*
X153785714Y-67802380D01*
X154166666Y-67802380D01*
X154261904Y-67850000D01*
X154309523Y-67897619D01*
X154357142Y-67992857D01*
X154357142Y-68135714D01*
X154309523Y-68230952D01*
X154261904Y-68278571D01*
X154166666Y-68326190D01*
X153785714Y-68326190D01*
X155309523Y-68802380D02*
X154738095Y-68802380D01*
X155023809Y-68802380D02*
X155023809Y-67802380D01*
X154928571Y-67945238D01*
X154833333Y-68040476D01*
X154738095Y-68088095D01*
X156166666Y-68135714D02*
X156166666Y-68802380D01*
X155928571Y-67754761D02*
X155690476Y-68469047D01*
X156309523Y-68469047D01*
X138819642Y-63772380D02*
X138486309Y-63296190D01*
X138248214Y-63772380D02*
X138248214Y-62772380D01*
X138629166Y-62772380D01*
X138724404Y-62820000D01*
X138772023Y-62867619D01*
X138819642Y-62962857D01*
X138819642Y-63105714D01*
X138772023Y-63200952D01*
X138724404Y-63248571D01*
X138629166Y-63296190D01*
X138248214Y-63296190D01*
X139772023Y-63772380D02*
X139200595Y-63772380D01*
X139486309Y-63772380D02*
X139486309Y-62772380D01*
X139391071Y-62915238D01*
X139295833Y-63010476D01*
X139200595Y-63058095D01*
X140105357Y-62772380D02*
X140724404Y-62772380D01*
X140391071Y-63153333D01*
X140533928Y-63153333D01*
X140629166Y-63200952D01*
X140676785Y-63248571D01*
X140724404Y-63343809D01*
X140724404Y-63581904D01*
X140676785Y-63677142D01*
X140629166Y-63724761D01*
X140533928Y-63772380D01*
X140248214Y-63772380D01*
X140152976Y-63724761D01*
X140105357Y-63677142D01*
X127457142Y-59852380D02*
X127123809Y-59376190D01*
X126885714Y-59852380D02*
X126885714Y-58852380D01*
X127266666Y-58852380D01*
X127361904Y-58900000D01*
X127409523Y-58947619D01*
X127457142Y-59042857D01*
X127457142Y-59185714D01*
X127409523Y-59280952D01*
X127361904Y-59328571D01*
X127266666Y-59376190D01*
X126885714Y-59376190D01*
X128409523Y-59852380D02*
X127838095Y-59852380D01*
X128123809Y-59852380D02*
X128123809Y-58852380D01*
X128028571Y-58995238D01*
X127933333Y-59090476D01*
X127838095Y-59138095D01*
X128790476Y-58947619D02*
X128838095Y-58900000D01*
X128933333Y-58852380D01*
X129171428Y-58852380D01*
X129266666Y-58900000D01*
X129314285Y-58947619D01*
X129361904Y-59042857D01*
X129361904Y-59138095D01*
X129314285Y-59280952D01*
X128742857Y-59852380D01*
X129361904Y-59852380D01*
X134457142Y-79352380D02*
X134123809Y-78876190D01*
X133885714Y-79352380D02*
X133885714Y-78352380D01*
X134266666Y-78352380D01*
X134361904Y-78400000D01*
X134409523Y-78447619D01*
X134457142Y-78542857D01*
X134457142Y-78685714D01*
X134409523Y-78780952D01*
X134361904Y-78828571D01*
X134266666Y-78876190D01*
X133885714Y-78876190D01*
X135409523Y-79352380D02*
X134838095Y-79352380D01*
X135123809Y-79352380D02*
X135123809Y-78352380D01*
X135028571Y-78495238D01*
X134933333Y-78590476D01*
X134838095Y-78638095D01*
X136361904Y-79352380D02*
X135790476Y-79352380D01*
X136076190Y-79352380D02*
X136076190Y-78352380D01*
X135980952Y-78495238D01*
X135885714Y-78590476D01*
X135790476Y-78638095D01*
X167883333Y-97102380D02*
X167550000Y-96626190D01*
X167311904Y-97102380D02*
X167311904Y-96102380D01*
X167692857Y-96102380D01*
X167788095Y-96150000D01*
X167835714Y-96197619D01*
X167883333Y-96292857D01*
X167883333Y-96435714D01*
X167835714Y-96530952D01*
X167788095Y-96578571D01*
X167692857Y-96626190D01*
X167311904Y-96626190D01*
X168359523Y-97102380D02*
X168550000Y-97102380D01*
X168645238Y-97054761D01*
X168692857Y-97007142D01*
X168788095Y-96864285D01*
X168835714Y-96673809D01*
X168835714Y-96292857D01*
X168788095Y-96197619D01*
X168740476Y-96150000D01*
X168645238Y-96102380D01*
X168454761Y-96102380D01*
X168359523Y-96150000D01*
X168311904Y-96197619D01*
X168264285Y-96292857D01*
X168264285Y-96530952D01*
X168311904Y-96626190D01*
X168359523Y-96673809D01*
X168454761Y-96721428D01*
X168645238Y-96721428D01*
X168740476Y-96673809D01*
X168788095Y-96626190D01*
X168835714Y-96530952D01*
X165383333Y-108272380D02*
X165050000Y-107796190D01*
X164811904Y-108272380D02*
X164811904Y-107272380D01*
X165192857Y-107272380D01*
X165288095Y-107320000D01*
X165335714Y-107367619D01*
X165383333Y-107462857D01*
X165383333Y-107605714D01*
X165335714Y-107700952D01*
X165288095Y-107748571D01*
X165192857Y-107796190D01*
X164811904Y-107796190D01*
X165954761Y-107700952D02*
X165859523Y-107653333D01*
X165811904Y-107605714D01*
X165764285Y-107510476D01*
X165764285Y-107462857D01*
X165811904Y-107367619D01*
X165859523Y-107320000D01*
X165954761Y-107272380D01*
X166145238Y-107272380D01*
X166240476Y-107320000D01*
X166288095Y-107367619D01*
X166335714Y-107462857D01*
X166335714Y-107510476D01*
X166288095Y-107605714D01*
X166240476Y-107653333D01*
X166145238Y-107700952D01*
X165954761Y-107700952D01*
X165859523Y-107748571D01*
X165811904Y-107796190D01*
X165764285Y-107891428D01*
X165764285Y-108081904D01*
X165811904Y-108177142D01*
X165859523Y-108224761D01*
X165954761Y-108272380D01*
X166145238Y-108272380D01*
X166240476Y-108224761D01*
X166288095Y-108177142D01*
X166335714Y-108081904D01*
X166335714Y-107891428D01*
X166288095Y-107796190D01*
X166240476Y-107748571D01*
X166145238Y-107700952D01*
X158633333Y-105452380D02*
X158300000Y-104976190D01*
X158061904Y-105452380D02*
X158061904Y-104452380D01*
X158442857Y-104452380D01*
X158538095Y-104500000D01*
X158585714Y-104547619D01*
X158633333Y-104642857D01*
X158633333Y-104785714D01*
X158585714Y-104880952D01*
X158538095Y-104928571D01*
X158442857Y-104976190D01*
X158061904Y-104976190D01*
X158966666Y-104452380D02*
X159633333Y-104452380D01*
X159204761Y-105452380D01*
X129233333Y-115302380D02*
X128900000Y-114826190D01*
X128661904Y-115302380D02*
X128661904Y-114302380D01*
X129042857Y-114302380D01*
X129138095Y-114350000D01*
X129185714Y-114397619D01*
X129233333Y-114492857D01*
X129233333Y-114635714D01*
X129185714Y-114730952D01*
X129138095Y-114778571D01*
X129042857Y-114826190D01*
X128661904Y-114826190D01*
X130090476Y-114302380D02*
X129900000Y-114302380D01*
X129804761Y-114350000D01*
X129757142Y-114397619D01*
X129661904Y-114540476D01*
X129614285Y-114730952D01*
X129614285Y-115111904D01*
X129661904Y-115207142D01*
X129709523Y-115254761D01*
X129804761Y-115302380D01*
X129995238Y-115302380D01*
X130090476Y-115254761D01*
X130138095Y-115207142D01*
X130185714Y-115111904D01*
X130185714Y-114873809D01*
X130138095Y-114778571D01*
X130090476Y-114730952D01*
X129995238Y-114683333D01*
X129804761Y-114683333D01*
X129709523Y-114730952D01*
X129661904Y-114778571D01*
X129614285Y-114873809D01*
X131133333Y-101452380D02*
X130800000Y-100976190D01*
X130561904Y-101452380D02*
X130561904Y-100452380D01*
X130942857Y-100452380D01*
X131038095Y-100500000D01*
X131085714Y-100547619D01*
X131133333Y-100642857D01*
X131133333Y-100785714D01*
X131085714Y-100880952D01*
X131038095Y-100928571D01*
X130942857Y-100976190D01*
X130561904Y-100976190D01*
X132038095Y-100452380D02*
X131561904Y-100452380D01*
X131514285Y-100928571D01*
X131561904Y-100880952D01*
X131657142Y-100833333D01*
X131895238Y-100833333D01*
X131990476Y-100880952D01*
X132038095Y-100928571D01*
X132085714Y-101023809D01*
X132085714Y-101261904D01*
X132038095Y-101357142D01*
X131990476Y-101404761D01*
X131895238Y-101452380D01*
X131657142Y-101452380D01*
X131561904Y-101404761D01*
X131514285Y-101357142D01*
X129183333Y-96602380D02*
X128850000Y-96126190D01*
X128611904Y-96602380D02*
X128611904Y-95602380D01*
X128992857Y-95602380D01*
X129088095Y-95650000D01*
X129135714Y-95697619D01*
X129183333Y-95792857D01*
X129183333Y-95935714D01*
X129135714Y-96030952D01*
X129088095Y-96078571D01*
X128992857Y-96126190D01*
X128611904Y-96126190D01*
X130040476Y-95935714D02*
X130040476Y-96602380D01*
X129802380Y-95554761D02*
X129564285Y-96269047D01*
X130183333Y-96269047D01*
X144883333Y-102802380D02*
X144550000Y-102326190D01*
X144311904Y-102802380D02*
X144311904Y-101802380D01*
X144692857Y-101802380D01*
X144788095Y-101850000D01*
X144835714Y-101897619D01*
X144883333Y-101992857D01*
X144883333Y-102135714D01*
X144835714Y-102230952D01*
X144788095Y-102278571D01*
X144692857Y-102326190D01*
X144311904Y-102326190D01*
X145216666Y-101802380D02*
X145835714Y-101802380D01*
X145502380Y-102183333D01*
X145645238Y-102183333D01*
X145740476Y-102230952D01*
X145788095Y-102278571D01*
X145835714Y-102373809D01*
X145835714Y-102611904D01*
X145788095Y-102707142D01*
X145740476Y-102754761D01*
X145645238Y-102802380D01*
X145359523Y-102802380D01*
X145264285Y-102754761D01*
X145216666Y-102707142D01*
X158283333Y-79102380D02*
X157950000Y-78626190D01*
X157711904Y-79102380D02*
X157711904Y-78102380D01*
X158092857Y-78102380D01*
X158188095Y-78150000D01*
X158235714Y-78197619D01*
X158283333Y-78292857D01*
X158283333Y-78435714D01*
X158235714Y-78530952D01*
X158188095Y-78578571D01*
X158092857Y-78626190D01*
X157711904Y-78626190D01*
X158664285Y-78197619D02*
X158711904Y-78150000D01*
X158807142Y-78102380D01*
X159045238Y-78102380D01*
X159140476Y-78150000D01*
X159188095Y-78197619D01*
X159235714Y-78292857D01*
X159235714Y-78388095D01*
X159188095Y-78530952D01*
X158616666Y-79102380D01*
X159235714Y-79102380D01*
X168783333Y-76702380D02*
X168450000Y-76226190D01*
X168211904Y-76702380D02*
X168211904Y-75702380D01*
X168592857Y-75702380D01*
X168688095Y-75750000D01*
X168735714Y-75797619D01*
X168783333Y-75892857D01*
X168783333Y-76035714D01*
X168735714Y-76130952D01*
X168688095Y-76178571D01*
X168592857Y-76226190D01*
X168211904Y-76226190D01*
X169735714Y-76702380D02*
X169164285Y-76702380D01*
X169450000Y-76702380D02*
X169450000Y-75702380D01*
X169354761Y-75845238D01*
X169259523Y-75940476D01*
X169164285Y-75988095D01*
X158816666Y-84502380D02*
X158816666Y-85216666D01*
X158769047Y-85359523D01*
X158673809Y-85454761D01*
X158530952Y-85502380D01*
X158435714Y-85502380D01*
X159245238Y-84597619D02*
X159292857Y-84550000D01*
X159388095Y-84502380D01*
X159626190Y-84502380D01*
X159721428Y-84550000D01*
X159769047Y-84597619D01*
X159816666Y-84692857D01*
X159816666Y-84788095D01*
X159769047Y-84930952D01*
X159197619Y-85502380D01*
X159816666Y-85502380D01*
X168629166Y-103772380D02*
X168629166Y-104486666D01*
X168581547Y-104629523D01*
X168486309Y-104724761D01*
X168343452Y-104772380D01*
X168248214Y-104772380D01*
X169629166Y-104772380D02*
X169057738Y-104772380D01*
X169343452Y-104772380D02*
X169343452Y-103772380D01*
X169248214Y-103915238D01*
X169152976Y-104010476D01*
X169057738Y-104058095D01*
X144057142Y-109307142D02*
X144009523Y-109354761D01*
X143866666Y-109402380D01*
X143771428Y-109402380D01*
X143628571Y-109354761D01*
X143533333Y-109259523D01*
X143485714Y-109164285D01*
X143438095Y-108973809D01*
X143438095Y-108830952D01*
X143485714Y-108640476D01*
X143533333Y-108545238D01*
X143628571Y-108450000D01*
X143771428Y-108402380D01*
X143866666Y-108402380D01*
X144009523Y-108450000D01*
X144057142Y-108497619D01*
X145009523Y-109402380D02*
X144438095Y-109402380D01*
X144723809Y-109402380D02*
X144723809Y-108402380D01*
X144628571Y-108545238D01*
X144533333Y-108640476D01*
X144438095Y-108688095D01*
X145866666Y-108402380D02*
X145676190Y-108402380D01*
X145580952Y-108450000D01*
X145533333Y-108497619D01*
X145438095Y-108640476D01*
X145390476Y-108830952D01*
X145390476Y-109211904D01*
X145438095Y-109307142D01*
X145485714Y-109354761D01*
X145580952Y-109402380D01*
X145771428Y-109402380D01*
X145866666Y-109354761D01*
X145914285Y-109307142D01*
X145961904Y-109211904D01*
X145961904Y-108973809D01*
X145914285Y-108878571D01*
X145866666Y-108830952D01*
X145771428Y-108783333D01*
X145580952Y-108783333D01*
X145485714Y-108830952D01*
X145438095Y-108878571D01*
X145390476Y-108973809D01*
X131357142Y-67657142D02*
X131309523Y-67704761D01*
X131166666Y-67752380D01*
X131071428Y-67752380D01*
X130928571Y-67704761D01*
X130833333Y-67609523D01*
X130785714Y-67514285D01*
X130738095Y-67323809D01*
X130738095Y-67180952D01*
X130785714Y-66990476D01*
X130833333Y-66895238D01*
X130928571Y-66800000D01*
X131071428Y-66752380D01*
X131166666Y-66752380D01*
X131309523Y-66800000D01*
X131357142Y-66847619D01*
X132309523Y-67752380D02*
X131738095Y-67752380D01*
X132023809Y-67752380D02*
X132023809Y-66752380D01*
X131928571Y-66895238D01*
X131833333Y-66990476D01*
X131738095Y-67038095D01*
X133261904Y-67752380D02*
X132690476Y-67752380D01*
X132976190Y-67752380D02*
X132976190Y-66752380D01*
X132880952Y-66895238D01*
X132785714Y-66990476D01*
X132690476Y-67038095D01*
X131457142Y-62857142D02*
X131409523Y-62904761D01*
X131266666Y-62952380D01*
X131171428Y-62952380D01*
X131028571Y-62904761D01*
X130933333Y-62809523D01*
X130885714Y-62714285D01*
X130838095Y-62523809D01*
X130838095Y-62380952D01*
X130885714Y-62190476D01*
X130933333Y-62095238D01*
X131028571Y-62000000D01*
X131171428Y-61952380D01*
X131266666Y-61952380D01*
X131409523Y-62000000D01*
X131457142Y-62047619D01*
X132409523Y-62952380D02*
X131838095Y-62952380D01*
X132123809Y-62952380D02*
X132123809Y-61952380D01*
X132028571Y-62095238D01*
X131933333Y-62190476D01*
X131838095Y-62238095D01*
X133028571Y-61952380D02*
X133123809Y-61952380D01*
X133219047Y-62000000D01*
X133266666Y-62047619D01*
X133314285Y-62142857D01*
X133361904Y-62333333D01*
X133361904Y-62571428D01*
X133314285Y-62761904D01*
X133266666Y-62857142D01*
X133219047Y-62904761D01*
X133123809Y-62952380D01*
X133028571Y-62952380D01*
X132933333Y-62904761D01*
X132885714Y-62857142D01*
X132838095Y-62761904D01*
X132790476Y-62571428D01*
X132790476Y-62333333D01*
X132838095Y-62142857D01*
X132885714Y-62047619D01*
X132933333Y-62000000D01*
X133028571Y-61952380D01*
X124358333Y-115207142D02*
X124310714Y-115254761D01*
X124167857Y-115302380D01*
X124072619Y-115302380D01*
X123929761Y-115254761D01*
X123834523Y-115159523D01*
X123786904Y-115064285D01*
X123739285Y-114873809D01*
X123739285Y-114730952D01*
X123786904Y-114540476D01*
X123834523Y-114445238D01*
X123929761Y-114350000D01*
X124072619Y-114302380D01*
X124167857Y-114302380D01*
X124310714Y-114350000D01*
X124358333Y-114397619D01*
X124929761Y-114730952D02*
X124834523Y-114683333D01*
X124786904Y-114635714D01*
X124739285Y-114540476D01*
X124739285Y-114492857D01*
X124786904Y-114397619D01*
X124834523Y-114350000D01*
X124929761Y-114302380D01*
X125120238Y-114302380D01*
X125215476Y-114350000D01*
X125263095Y-114397619D01*
X125310714Y-114492857D01*
X125310714Y-114540476D01*
X125263095Y-114635714D01*
X125215476Y-114683333D01*
X125120238Y-114730952D01*
X124929761Y-114730952D01*
X124834523Y-114778571D01*
X124786904Y-114826190D01*
X124739285Y-114921428D01*
X124739285Y-115111904D01*
X124786904Y-115207142D01*
X124834523Y-115254761D01*
X124929761Y-115302380D01*
X125120238Y-115302380D01*
X125215476Y-115254761D01*
X125263095Y-115207142D01*
X125310714Y-115111904D01*
X125310714Y-114921428D01*
X125263095Y-114826190D01*
X125215476Y-114778571D01*
X125120238Y-114730952D01*
X125308333Y-77507142D02*
X125260714Y-77554761D01*
X125117857Y-77602380D01*
X125022619Y-77602380D01*
X124879761Y-77554761D01*
X124784523Y-77459523D01*
X124736904Y-77364285D01*
X124689285Y-77173809D01*
X124689285Y-77030952D01*
X124736904Y-76840476D01*
X124784523Y-76745238D01*
X124879761Y-76650000D01*
X125022619Y-76602380D01*
X125117857Y-76602380D01*
X125260714Y-76650000D01*
X125308333Y-76697619D01*
X126165476Y-76602380D02*
X125975000Y-76602380D01*
X125879761Y-76650000D01*
X125832142Y-76697619D01*
X125736904Y-76840476D01*
X125689285Y-77030952D01*
X125689285Y-77411904D01*
X125736904Y-77507142D01*
X125784523Y-77554761D01*
X125879761Y-77602380D01*
X126070238Y-77602380D01*
X126165476Y-77554761D01*
X126213095Y-77507142D01*
X126260714Y-77411904D01*
X126260714Y-77173809D01*
X126213095Y-77078571D01*
X126165476Y-77030952D01*
X126070238Y-76983333D01*
X125879761Y-76983333D01*
X125784523Y-77030952D01*
X125736904Y-77078571D01*
X125689285Y-77173809D01*
X127808333Y-92707142D02*
X127760714Y-92754761D01*
X127617857Y-92802380D01*
X127522619Y-92802380D01*
X127379761Y-92754761D01*
X127284523Y-92659523D01*
X127236904Y-92564285D01*
X127189285Y-92373809D01*
X127189285Y-92230952D01*
X127236904Y-92040476D01*
X127284523Y-91945238D01*
X127379761Y-91850000D01*
X127522619Y-91802380D01*
X127617857Y-91802380D01*
X127760714Y-91850000D01*
X127808333Y-91897619D01*
X128189285Y-91897619D02*
X128236904Y-91850000D01*
X128332142Y-91802380D01*
X128570238Y-91802380D01*
X128665476Y-91850000D01*
X128713095Y-91897619D01*
X128760714Y-91992857D01*
X128760714Y-92088095D01*
X128713095Y-92230952D01*
X128141666Y-92802380D01*
X128760714Y-92802380D01*
X158540476Y-68302380D02*
X158873809Y-69302380D01*
X159207142Y-68302380D01*
X160111904Y-69302380D02*
X159778571Y-68826190D01*
X159540476Y-69302380D02*
X159540476Y-68302380D01*
X159921428Y-68302380D01*
X160016666Y-68350000D01*
X160064285Y-68397619D01*
X160111904Y-68492857D01*
X160111904Y-68635714D01*
X160064285Y-68730952D01*
X160016666Y-68778571D01*
X159921428Y-68826190D01*
X159540476Y-68826190D01*
X161064285Y-69302380D02*
X160492857Y-69302380D01*
X160778571Y-69302380D02*
X160778571Y-68302380D01*
X160683333Y-68445238D01*
X160588095Y-68540476D01*
X160492857Y-68588095D01*
X149745238Y-106452380D02*
X149935714Y-106452380D01*
X150030952Y-106404761D01*
X150078571Y-106357142D01*
X150173809Y-106214285D01*
X150221428Y-106023809D01*
X150221428Y-105642857D01*
X150173809Y-105547619D01*
X150126190Y-105500000D01*
X150030952Y-105452380D01*
X149840476Y-105452380D01*
X149745238Y-105500000D01*
X149697619Y-105547619D01*
X149650000Y-105642857D01*
X149650000Y-105880952D01*
X149697619Y-105976190D01*
X149745238Y-106023809D01*
X149840476Y-106071428D01*
X150030952Y-106071428D01*
X150126190Y-106023809D01*
X150173809Y-105976190D01*
X150221428Y-105880952D01*
X150650000Y-106357142D02*
X150697619Y-106404761D01*
X150650000Y-106452380D01*
X150602380Y-106404761D01*
X150650000Y-106357142D01*
X150650000Y-106452380D01*
X151554761Y-105452380D02*
X151364285Y-105452380D01*
X151269047Y-105500000D01*
X151221428Y-105547619D01*
X151126190Y-105690476D01*
X151078571Y-105880952D01*
X151078571Y-106261904D01*
X151126190Y-106357142D01*
X151173809Y-106404761D01*
X151269047Y-106452380D01*
X151459523Y-106452380D01*
X151554761Y-106404761D01*
X151602380Y-106357142D01*
X151650000Y-106261904D01*
X151650000Y-106023809D01*
X151602380Y-105928571D01*
X151554761Y-105880952D01*
X151459523Y-105833333D01*
X151269047Y-105833333D01*
X151173809Y-105880952D01*
X151126190Y-105928571D01*
X151078571Y-106023809D01*
X143176190Y-114385714D02*
X143176190Y-115052380D01*
X142938095Y-114004761D02*
X142700000Y-114719047D01*
X143319047Y-114719047D01*
X143700000Y-114957142D02*
X143747619Y-115004761D01*
X143700000Y-115052380D01*
X143652380Y-115004761D01*
X143700000Y-114957142D01*
X143700000Y-115052380D01*
X144319047Y-114480952D02*
X144223809Y-114433333D01*
X144176190Y-114385714D01*
X144128571Y-114290476D01*
X144128571Y-114242857D01*
X144176190Y-114147619D01*
X144223809Y-114100000D01*
X144319047Y-114052380D01*
X144509523Y-114052380D01*
X144604761Y-114100000D01*
X144652380Y-114147619D01*
X144700000Y-114242857D01*
X144700000Y-114290476D01*
X144652380Y-114385714D01*
X144604761Y-114433333D01*
X144509523Y-114480952D01*
X144319047Y-114480952D01*
X144223809Y-114528571D01*
X144176190Y-114576190D01*
X144128571Y-114671428D01*
X144128571Y-114861904D01*
X144176190Y-114957142D01*
X144223809Y-115004761D01*
X144319047Y-115052380D01*
X144509523Y-115052380D01*
X144604761Y-115004761D01*
X144652380Y-114957142D01*
X144700000Y-114861904D01*
X144700000Y-114671428D01*
X144652380Y-114576190D01*
X144604761Y-114528571D01*
X144509523Y-114480952D01*
X121523809Y-54452380D02*
X121523809Y-53452380D01*
X122571428Y-54357142D02*
X122523809Y-54404761D01*
X122380952Y-54452380D01*
X122285714Y-54452380D01*
X122142857Y-54404761D01*
X122047619Y-54309523D01*
X122000000Y-54214285D01*
X121952380Y-54023809D01*
X121952380Y-53880952D01*
X122000000Y-53690476D01*
X122047619Y-53595238D01*
X122142857Y-53500000D01*
X122285714Y-53452380D01*
X122380952Y-53452380D01*
X122523809Y-53500000D01*
X122571428Y-53547619D01*
X122904761Y-53452380D02*
X123523809Y-53452380D01*
X123190476Y-53833333D01*
X123333333Y-53833333D01*
X123428571Y-53880952D01*
X123476190Y-53928571D01*
X123523809Y-54023809D01*
X123523809Y-54261904D01*
X123476190Y-54357142D01*
X123428571Y-54404761D01*
X123333333Y-54452380D01*
X123047619Y-54452380D01*
X122952380Y-54404761D01*
X122904761Y-54357142D01*
X163023809Y-94202380D02*
X163023809Y-93202380D01*
X164071428Y-94107142D02*
X164023809Y-94154761D01*
X163880952Y-94202380D01*
X163785714Y-94202380D01*
X163642857Y-94154761D01*
X163547619Y-94059523D01*
X163500000Y-93964285D01*
X163452380Y-93773809D01*
X163452380Y-93630952D01*
X163500000Y-93440476D01*
X163547619Y-93345238D01*
X163642857Y-93250000D01*
X163785714Y-93202380D01*
X163880952Y-93202380D01*
X164023809Y-93250000D01*
X164071428Y-93297619D01*
X164452380Y-93297619D02*
X164500000Y-93250000D01*
X164595238Y-93202380D01*
X164833333Y-93202380D01*
X164928571Y-93250000D01*
X164976190Y-93297619D01*
X165023809Y-93392857D01*
X165023809Y-93488095D01*
X164976190Y-93630952D01*
X164404761Y-94202380D01*
X165023809Y-94202380D01*
X134998809Y-101927380D02*
X134998809Y-100927380D01*
X136046428Y-101832142D02*
X135998809Y-101879761D01*
X135855952Y-101927380D01*
X135760714Y-101927380D01*
X135617857Y-101879761D01*
X135522619Y-101784523D01*
X135475000Y-101689285D01*
X135427380Y-101498809D01*
X135427380Y-101355952D01*
X135475000Y-101165476D01*
X135522619Y-101070238D01*
X135617857Y-100975000D01*
X135760714Y-100927380D01*
X135855952Y-100927380D01*
X135998809Y-100975000D01*
X136046428Y-101022619D01*
X136998809Y-101927380D02*
X136427380Y-101927380D01*
X136713095Y-101927380D02*
X136713095Y-100927380D01*
X136617857Y-101070238D01*
X136522619Y-101165476D01*
X136427380Y-101213095D01*
X135532142Y-83732142D02*
X135484523Y-83779761D01*
X135341666Y-83827380D01*
X135246428Y-83827380D01*
X135103571Y-83779761D01*
X135008333Y-83684523D01*
X134960714Y-83589285D01*
X134913095Y-83398809D01*
X134913095Y-83255952D01*
X134960714Y-83065476D01*
X135008333Y-82970238D01*
X135103571Y-82875000D01*
X135246428Y-82827380D01*
X135341666Y-82827380D01*
X135484523Y-82875000D01*
X135532142Y-82922619D01*
X136484523Y-83827380D02*
X135913095Y-83827380D01*
X136198809Y-83827380D02*
X136198809Y-82827380D01*
X136103571Y-82970238D01*
X136008333Y-83065476D01*
X135913095Y-83113095D01*
X137389285Y-82827380D02*
X136913095Y-82827380D01*
X136865476Y-83303571D01*
X136913095Y-83255952D01*
X137008333Y-83208333D01*
X137246428Y-83208333D01*
X137341666Y-83255952D01*
X137389285Y-83303571D01*
X137436904Y-83398809D01*
X137436904Y-83636904D01*
X137389285Y-83732142D01*
X137341666Y-83779761D01*
X137246428Y-83827380D01*
X137008333Y-83827380D01*
X136913095Y-83779761D01*
X136865476Y-83732142D01*
X148732142Y-75282142D02*
X148684523Y-75329761D01*
X148541666Y-75377380D01*
X148446428Y-75377380D01*
X148303571Y-75329761D01*
X148208333Y-75234523D01*
X148160714Y-75139285D01*
X148113095Y-74948809D01*
X148113095Y-74805952D01*
X148160714Y-74615476D01*
X148208333Y-74520238D01*
X148303571Y-74425000D01*
X148446428Y-74377380D01*
X148541666Y-74377380D01*
X148684523Y-74425000D01*
X148732142Y-74472619D01*
X149684523Y-75377380D02*
X149113095Y-75377380D01*
X149398809Y-75377380D02*
X149398809Y-74377380D01*
X149303571Y-74520238D01*
X149208333Y-74615476D01*
X149113095Y-74663095D01*
X150541666Y-74710714D02*
X150541666Y-75377380D01*
X150303571Y-74329761D02*
X150065476Y-75044047D01*
X150684523Y-75044047D01*
X126457142Y-63857142D02*
X126409523Y-63904761D01*
X126266666Y-63952380D01*
X126171428Y-63952380D01*
X126028571Y-63904761D01*
X125933333Y-63809523D01*
X125885714Y-63714285D01*
X125838095Y-63523809D01*
X125838095Y-63380952D01*
X125885714Y-63190476D01*
X125933333Y-63095238D01*
X126028571Y-63000000D01*
X126171428Y-62952380D01*
X126266666Y-62952380D01*
X126409523Y-63000000D01*
X126457142Y-63047619D01*
X127409523Y-63952380D02*
X126838095Y-63952380D01*
X127123809Y-63952380D02*
X127123809Y-62952380D01*
X127028571Y-63095238D01*
X126933333Y-63190476D01*
X126838095Y-63238095D01*
X127742857Y-62952380D02*
X128361904Y-62952380D01*
X128028571Y-63333333D01*
X128171428Y-63333333D01*
X128266666Y-63380952D01*
X128314285Y-63428571D01*
X128361904Y-63523809D01*
X128361904Y-63761904D01*
X128314285Y-63857142D01*
X128266666Y-63904761D01*
X128171428Y-63952380D01*
X127885714Y-63952380D01*
X127790476Y-63904761D01*
X127742857Y-63857142D01*
X140032142Y-78932142D02*
X139984523Y-78979761D01*
X139841666Y-79027380D01*
X139746428Y-79027380D01*
X139603571Y-78979761D01*
X139508333Y-78884523D01*
X139460714Y-78789285D01*
X139413095Y-78598809D01*
X139413095Y-78455952D01*
X139460714Y-78265476D01*
X139508333Y-78170238D01*
X139603571Y-78075000D01*
X139746428Y-78027380D01*
X139841666Y-78027380D01*
X139984523Y-78075000D01*
X140032142Y-78122619D01*
X140984523Y-79027380D02*
X140413095Y-79027380D01*
X140698809Y-79027380D02*
X140698809Y-78027380D01*
X140603571Y-78170238D01*
X140508333Y-78265476D01*
X140413095Y-78313095D01*
X141365476Y-78122619D02*
X141413095Y-78075000D01*
X141508333Y-78027380D01*
X141746428Y-78027380D01*
X141841666Y-78075000D01*
X141889285Y-78122619D01*
X141936904Y-78217857D01*
X141936904Y-78313095D01*
X141889285Y-78455952D01*
X141317857Y-79027380D01*
X141936904Y-79027380D01*
X128133333Y-69057142D02*
X128085714Y-69104761D01*
X127942857Y-69152380D01*
X127847619Y-69152380D01*
X127704761Y-69104761D01*
X127609523Y-69009523D01*
X127561904Y-68914285D01*
X127514285Y-68723809D01*
X127514285Y-68580952D01*
X127561904Y-68390476D01*
X127609523Y-68295238D01*
X127704761Y-68200000D01*
X127847619Y-68152380D01*
X127942857Y-68152380D01*
X128085714Y-68200000D01*
X128133333Y-68247619D01*
X128609523Y-69152380D02*
X128800000Y-69152380D01*
X128895238Y-69104761D01*
X128942857Y-69057142D01*
X129038095Y-68914285D01*
X129085714Y-68723809D01*
X129085714Y-68342857D01*
X129038095Y-68247619D01*
X128990476Y-68200000D01*
X128895238Y-68152380D01*
X128704761Y-68152380D01*
X128609523Y-68200000D01*
X128561904Y-68247619D01*
X128514285Y-68342857D01*
X128514285Y-68580952D01*
X128561904Y-68676190D01*
X128609523Y-68723809D01*
X128704761Y-68771428D01*
X128895238Y-68771428D01*
X128990476Y-68723809D01*
X129038095Y-68676190D01*
X129085714Y-68580952D01*
X121433333Y-101982142D02*
X121385714Y-102029761D01*
X121242857Y-102077380D01*
X121147619Y-102077380D01*
X121004761Y-102029761D01*
X120909523Y-101934523D01*
X120861904Y-101839285D01*
X120814285Y-101648809D01*
X120814285Y-101505952D01*
X120861904Y-101315476D01*
X120909523Y-101220238D01*
X121004761Y-101125000D01*
X121147619Y-101077380D01*
X121242857Y-101077380D01*
X121385714Y-101125000D01*
X121433333Y-101172619D01*
X121766666Y-101077380D02*
X122433333Y-101077380D01*
X122004761Y-102077380D01*
X121208333Y-91657142D02*
X121160714Y-91704761D01*
X121017857Y-91752380D01*
X120922619Y-91752380D01*
X120779761Y-91704761D01*
X120684523Y-91609523D01*
X120636904Y-91514285D01*
X120589285Y-91323809D01*
X120589285Y-91180952D01*
X120636904Y-90990476D01*
X120684523Y-90895238D01*
X120779761Y-90800000D01*
X120922619Y-90752380D01*
X121017857Y-90752380D01*
X121160714Y-90800000D01*
X121208333Y-90847619D01*
X122113095Y-90752380D02*
X121636904Y-90752380D01*
X121589285Y-91228571D01*
X121636904Y-91180952D01*
X121732142Y-91133333D01*
X121970238Y-91133333D01*
X122065476Y-91180952D01*
X122113095Y-91228571D01*
X122160714Y-91323809D01*
X122160714Y-91561904D01*
X122113095Y-91657142D01*
X122065476Y-91704761D01*
X121970238Y-91752380D01*
X121732142Y-91752380D01*
X121636904Y-91704761D01*
X121589285Y-91657142D01*
X159983333Y-110407142D02*
X159935714Y-110454761D01*
X159792857Y-110502380D01*
X159697619Y-110502380D01*
X159554761Y-110454761D01*
X159459523Y-110359523D01*
X159411904Y-110264285D01*
X159364285Y-110073809D01*
X159364285Y-109930952D01*
X159411904Y-109740476D01*
X159459523Y-109645238D01*
X159554761Y-109550000D01*
X159697619Y-109502380D01*
X159792857Y-109502380D01*
X159935714Y-109550000D01*
X159983333Y-109597619D01*
X160840476Y-109835714D02*
X160840476Y-110502380D01*
X160602380Y-109454761D02*
X160364285Y-110169047D01*
X160983333Y-110169047D01*
X158683333Y-96557142D02*
X158635714Y-96604761D01*
X158492857Y-96652380D01*
X158397619Y-96652380D01*
X158254761Y-96604761D01*
X158159523Y-96509523D01*
X158111904Y-96414285D01*
X158064285Y-96223809D01*
X158064285Y-96080952D01*
X158111904Y-95890476D01*
X158159523Y-95795238D01*
X158254761Y-95700000D01*
X158397619Y-95652380D01*
X158492857Y-95652380D01*
X158635714Y-95700000D01*
X158683333Y-95747619D01*
X159016666Y-95652380D02*
X159635714Y-95652380D01*
X159302380Y-96033333D01*
X159445238Y-96033333D01*
X159540476Y-96080952D01*
X159588095Y-96128571D01*
X159635714Y-96223809D01*
X159635714Y-96461904D01*
X159588095Y-96557142D01*
X159540476Y-96604761D01*
X159445238Y-96652380D01*
X159159523Y-96652380D01*
X159064285Y-96604761D01*
X159016666Y-96557142D01*
%LPC*%
D12*
X120000000Y-68960000D03*
X120000000Y-71500000D03*
X173700000Y-102430000D03*
X173700000Y-99890000D03*
X173700000Y-97350000D03*
X121200000Y-78000000D03*
X121200000Y-75460000D03*
X173700000Y-83100000D03*
X173700000Y-85640000D03*
X173700000Y-88180000D03*
G36*
G01*
X174950000Y-90220000D02*
X174950000Y-91220000D01*
G75*
G02*
X174450000Y-91720000I-500000J0D01*
G01*
X172950000Y-91720000D01*
G75*
G02*
X172450000Y-91220000I0J500000D01*
G01*
X172450000Y-90220000D01*
G75*
G02*
X172950000Y-89720000I500000J0D01*
G01*
X174450000Y-89720000D01*
G75*
G02*
X174950000Y-90220000I0J-500000D01*
G01*
G37*
D13*
X129400000Y-87500000D03*
X132900000Y-87500000D03*
D14*
X165500000Y-110500000D03*
X156700000Y-65000000D03*
X125000000Y-103500000D03*
G36*
G01*
X154375000Y-72437500D02*
X155625000Y-72437500D01*
G75*
G02*
X155875000Y-72687500I0J-250000D01*
G01*
X155875000Y-73487500D01*
G75*
G02*
X155625000Y-73737500I-250000J0D01*
G01*
X154375000Y-73737500D01*
G75*
G02*
X154125000Y-73487500I0J250000D01*
G01*
X154125000Y-72687500D01*
G75*
G02*
X154375000Y-72437500I250000J0D01*
G01*
G37*
G36*
G01*
X154375000Y-69337500D02*
X155625000Y-69337500D01*
G75*
G02*
X155875000Y-69587500I0J-250000D01*
G01*
X155875000Y-70387500D01*
G75*
G02*
X155625000Y-70637500I-250000J0D01*
G01*
X154375000Y-70637500D01*
G75*
G02*
X154125000Y-70387500I0J250000D01*
G01*
X154125000Y-69587500D01*
G75*
G02*
X154375000Y-69337500I250000J0D01*
G01*
G37*
G36*
G01*
X138562500Y-60875000D02*
X138562500Y-62125000D01*
G75*
G02*
X138312500Y-62375000I-250000J0D01*
G01*
X137512500Y-62375000D01*
G75*
G02*
X137262500Y-62125000I0J250000D01*
G01*
X137262500Y-60875000D01*
G75*
G02*
X137512500Y-60625000I250000J0D01*
G01*
X138312500Y-60625000D01*
G75*
G02*
X138562500Y-60875000I0J-250000D01*
G01*
G37*
G36*
G01*
X141662500Y-60875000D02*
X141662500Y-62125000D01*
G75*
G02*
X141412500Y-62375000I-250000J0D01*
G01*
X140612500Y-62375000D01*
G75*
G02*
X140362500Y-62125000I0J250000D01*
G01*
X140362500Y-60875000D01*
G75*
G02*
X140612500Y-60625000I250000J0D01*
G01*
X141412500Y-60625000D01*
G75*
G02*
X141662500Y-60875000I0J-250000D01*
G01*
G37*
G36*
G01*
X123137500Y-58875000D02*
X123137500Y-60125000D01*
G75*
G02*
X122887500Y-60375000I-250000J0D01*
G01*
X122087500Y-60375000D01*
G75*
G02*
X121837500Y-60125000I0J250000D01*
G01*
X121837500Y-58875000D01*
G75*
G02*
X122087500Y-58625000I250000J0D01*
G01*
X122887500Y-58625000D01*
G75*
G02*
X123137500Y-58875000I0J-250000D01*
G01*
G37*
G36*
G01*
X126237500Y-58875000D02*
X126237500Y-60125000D01*
G75*
G02*
X125987500Y-60375000I-250000J0D01*
G01*
X125187500Y-60375000D01*
G75*
G02*
X124937500Y-60125000I0J250000D01*
G01*
X124937500Y-58875000D01*
G75*
G02*
X125187500Y-58625000I250000J0D01*
G01*
X125987500Y-58625000D01*
G75*
G02*
X126237500Y-58875000I0J-250000D01*
G01*
G37*
G36*
G01*
X131862500Y-79625000D02*
X131862500Y-78375000D01*
G75*
G02*
X132112500Y-78125000I250000J0D01*
G01*
X132912500Y-78125000D01*
G75*
G02*
X133162500Y-78375000I0J-250000D01*
G01*
X133162500Y-79625000D01*
G75*
G02*
X132912500Y-79875000I-250000J0D01*
G01*
X132112500Y-79875000D01*
G75*
G02*
X131862500Y-79625000I0J250000D01*
G01*
G37*
G36*
G01*
X128762500Y-79625000D02*
X128762500Y-78375000D01*
G75*
G02*
X129012500Y-78125000I250000J0D01*
G01*
X129812500Y-78125000D01*
G75*
G02*
X130062500Y-78375000I0J-250000D01*
G01*
X130062500Y-79625000D01*
G75*
G02*
X129812500Y-79875000I-250000J0D01*
G01*
X129012500Y-79875000D01*
G75*
G02*
X128762500Y-79625000I0J250000D01*
G01*
G37*
G36*
G01*
X170825000Y-95650000D02*
X169575000Y-95650000D01*
G75*
G02*
X169325000Y-95400000I0J250000D01*
G01*
X169325000Y-94600000D01*
G75*
G02*
X169575000Y-94350000I250000J0D01*
G01*
X170825000Y-94350000D01*
G75*
G02*
X171075000Y-94600000I0J-250000D01*
G01*
X171075000Y-95400000D01*
G75*
G02*
X170825000Y-95650000I-250000J0D01*
G01*
G37*
G36*
G01*
X170825000Y-98750000D02*
X169575000Y-98750000D01*
G75*
G02*
X169325000Y-98500000I0J250000D01*
G01*
X169325000Y-97700000D01*
G75*
G02*
X169575000Y-97450000I250000J0D01*
G01*
X170825000Y-97450000D01*
G75*
G02*
X171075000Y-97700000I0J-250000D01*
G01*
X171075000Y-98500000D01*
G75*
G02*
X170825000Y-98750000I-250000J0D01*
G01*
G37*
G36*
G01*
X164650000Y-105375000D02*
X164650000Y-106625000D01*
G75*
G02*
X164400000Y-106875000I-250000J0D01*
G01*
X163600000Y-106875000D01*
G75*
G02*
X163350000Y-106625000I0J250000D01*
G01*
X163350000Y-105375000D01*
G75*
G02*
X163600000Y-105125000I250000J0D01*
G01*
X164400000Y-105125000D01*
G75*
G02*
X164650000Y-105375000I0J-250000D01*
G01*
G37*
G36*
G01*
X167750000Y-105375000D02*
X167750000Y-106625000D01*
G75*
G02*
X167500000Y-106875000I-250000J0D01*
G01*
X166700000Y-106875000D01*
G75*
G02*
X166450000Y-106625000I0J250000D01*
G01*
X166450000Y-105375000D01*
G75*
G02*
X166700000Y-105125000I250000J0D01*
G01*
X167500000Y-105125000D01*
G75*
G02*
X167750000Y-105375000I0J-250000D01*
G01*
G37*
G36*
G01*
X157637500Y-106375000D02*
X157637500Y-107625000D01*
G75*
G02*
X157387500Y-107875000I-250000J0D01*
G01*
X156587500Y-107875000D01*
G75*
G02*
X156337500Y-107625000I0J250000D01*
G01*
X156337500Y-106375000D01*
G75*
G02*
X156587500Y-106125000I250000J0D01*
G01*
X157387500Y-106125000D01*
G75*
G02*
X157637500Y-106375000I0J-250000D01*
G01*
G37*
G36*
G01*
X160737500Y-106375000D02*
X160737500Y-107625000D01*
G75*
G02*
X160487500Y-107875000I-250000J0D01*
G01*
X159687500Y-107875000D01*
G75*
G02*
X159437500Y-107625000I0J250000D01*
G01*
X159437500Y-106375000D01*
G75*
G02*
X159687500Y-106125000I250000J0D01*
G01*
X160487500Y-106125000D01*
G75*
G02*
X160737500Y-106375000I0J-250000D01*
G01*
G37*
G36*
G01*
X128375000Y-112362500D02*
X129625000Y-112362500D01*
G75*
G02*
X129875000Y-112612500I0J-250000D01*
G01*
X129875000Y-113412500D01*
G75*
G02*
X129625000Y-113662500I-250000J0D01*
G01*
X128375000Y-113662500D01*
G75*
G02*
X128125000Y-113412500I0J250000D01*
G01*
X128125000Y-112612500D01*
G75*
G02*
X128375000Y-112362500I250000J0D01*
G01*
G37*
G36*
G01*
X128375000Y-109262500D02*
X129625000Y-109262500D01*
G75*
G02*
X129875000Y-109512500I0J-250000D01*
G01*
X129875000Y-110312500D01*
G75*
G02*
X129625000Y-110562500I-250000J0D01*
G01*
X128375000Y-110562500D01*
G75*
G02*
X128125000Y-110312500I0J250000D01*
G01*
X128125000Y-109512500D01*
G75*
G02*
X128375000Y-109262500I250000J0D01*
G01*
G37*
G36*
G01*
X128375000Y-102362500D02*
X129625000Y-102362500D01*
G75*
G02*
X129875000Y-102612500I0J-250000D01*
G01*
X129875000Y-103412500D01*
G75*
G02*
X129625000Y-103662500I-250000J0D01*
G01*
X128375000Y-103662500D01*
G75*
G02*
X128125000Y-103412500I0J250000D01*
G01*
X128125000Y-102612500D01*
G75*
G02*
X128375000Y-102362500I250000J0D01*
G01*
G37*
G36*
G01*
X128375000Y-99262500D02*
X129625000Y-99262500D01*
G75*
G02*
X129875000Y-99512500I0J-250000D01*
G01*
X129875000Y-100312500D01*
G75*
G02*
X129625000Y-100562500I-250000J0D01*
G01*
X128375000Y-100562500D01*
G75*
G02*
X128125000Y-100312500I0J250000D01*
G01*
X128125000Y-99512500D01*
G75*
G02*
X128375000Y-99262500I250000J0D01*
G01*
G37*
G36*
G01*
X127625000Y-95562500D02*
X126375000Y-95562500D01*
G75*
G02*
X126125000Y-95312500I0J250000D01*
G01*
X126125000Y-94512500D01*
G75*
G02*
X126375000Y-94262500I250000J0D01*
G01*
X127625000Y-94262500D01*
G75*
G02*
X127875000Y-94512500I0J-250000D01*
G01*
X127875000Y-95312500D01*
G75*
G02*
X127625000Y-95562500I-250000J0D01*
G01*
G37*
G36*
G01*
X127625000Y-98662500D02*
X126375000Y-98662500D01*
G75*
G02*
X126125000Y-98412500I0J250000D01*
G01*
X126125000Y-97612500D01*
G75*
G02*
X126375000Y-97362500I250000J0D01*
G01*
X127625000Y-97362500D01*
G75*
G02*
X127875000Y-97612500I0J-250000D01*
G01*
X127875000Y-98412500D01*
G75*
G02*
X127625000Y-98662500I-250000J0D01*
G01*
G37*
G36*
G01*
X144300000Y-103775000D02*
X144300000Y-105025000D01*
G75*
G02*
X144050000Y-105275000I-250000J0D01*
G01*
X143250000Y-105275000D01*
G75*
G02*
X143000000Y-105025000I0J250000D01*
G01*
X143000000Y-103775000D01*
G75*
G02*
X143250000Y-103525000I250000J0D01*
G01*
X144050000Y-103525000D01*
G75*
G02*
X144300000Y-103775000I0J-250000D01*
G01*
G37*
G36*
G01*
X147400000Y-103775000D02*
X147400000Y-105025000D01*
G75*
G02*
X147150000Y-105275000I-250000J0D01*
G01*
X146350000Y-105275000D01*
G75*
G02*
X146100000Y-105025000I0J250000D01*
G01*
X146100000Y-103775000D01*
G75*
G02*
X146350000Y-103525000I250000J0D01*
G01*
X147150000Y-103525000D01*
G75*
G02*
X147400000Y-103775000I0J-250000D01*
G01*
G37*
G36*
G01*
X161125000Y-77812500D02*
X159875000Y-77812500D01*
G75*
G02*
X159625000Y-77562500I0J250000D01*
G01*
X159625000Y-76762500D01*
G75*
G02*
X159875000Y-76512500I250000J0D01*
G01*
X161125000Y-76512500D01*
G75*
G02*
X161375000Y-76762500I0J-250000D01*
G01*
X161375000Y-77562500D01*
G75*
G02*
X161125000Y-77812500I-250000J0D01*
G01*
G37*
G36*
G01*
X161125000Y-80912500D02*
X159875000Y-80912500D01*
G75*
G02*
X159625000Y-80662500I0J250000D01*
G01*
X159625000Y-79862500D01*
G75*
G02*
X159875000Y-79612500I250000J0D01*
G01*
X161125000Y-79612500D01*
G75*
G02*
X161375000Y-79862500I0J-250000D01*
G01*
X161375000Y-80662500D01*
G75*
G02*
X161125000Y-80912500I-250000J0D01*
G01*
G37*
G36*
G01*
X168875000Y-80400000D02*
X170125000Y-80400000D01*
G75*
G02*
X170375000Y-80650000I0J-250000D01*
G01*
X170375000Y-81450000D01*
G75*
G02*
X170125000Y-81700000I-250000J0D01*
G01*
X168875000Y-81700000D01*
G75*
G02*
X168625000Y-81450000I0J250000D01*
G01*
X168625000Y-80650000D01*
G75*
G02*
X168875000Y-80400000I250000J0D01*
G01*
G37*
G36*
G01*
X168875000Y-77300000D02*
X170125000Y-77300000D01*
G75*
G02*
X170375000Y-77550000I0J-250000D01*
G01*
X170375000Y-78350000D01*
G75*
G02*
X170125000Y-78600000I-250000J0D01*
G01*
X168875000Y-78600000D01*
G75*
G02*
X168625000Y-78350000I0J250000D01*
G01*
X168625000Y-77550000D01*
G75*
G02*
X168875000Y-77300000I250000J0D01*
G01*
G37*
G36*
G01*
X160050000Y-83875000D02*
X160050000Y-82625000D01*
G75*
G02*
X160300000Y-82375000I250000J0D01*
G01*
X161100000Y-82375000D01*
G75*
G02*
X161350000Y-82625000I0J-250000D01*
G01*
X161350000Y-83875000D01*
G75*
G02*
X161100000Y-84125000I-250000J0D01*
G01*
X160300000Y-84125000D01*
G75*
G02*
X160050000Y-83875000I0J250000D01*
G01*
G37*
G36*
G01*
X156950000Y-83875000D02*
X156950000Y-82625000D01*
G75*
G02*
X157200000Y-82375000I250000J0D01*
G01*
X158000000Y-82375000D01*
G75*
G02*
X158250000Y-82625000I0J-250000D01*
G01*
X158250000Y-83875000D01*
G75*
G02*
X158000000Y-84125000I-250000J0D01*
G01*
X157200000Y-84125000D01*
G75*
G02*
X156950000Y-83875000I0J250000D01*
G01*
G37*
G36*
G01*
X168062500Y-101875000D02*
X168062500Y-103125000D01*
G75*
G02*
X167812500Y-103375000I-250000J0D01*
G01*
X167012500Y-103375000D01*
G75*
G02*
X166762500Y-103125000I0J250000D01*
G01*
X166762500Y-101875000D01*
G75*
G02*
X167012500Y-101625000I250000J0D01*
G01*
X167812500Y-101625000D01*
G75*
G02*
X168062500Y-101875000I0J-250000D01*
G01*
G37*
G36*
G01*
X171162500Y-101875000D02*
X171162500Y-103125000D01*
G75*
G02*
X170912500Y-103375000I-250000J0D01*
G01*
X170112500Y-103375000D01*
G75*
G02*
X169862500Y-103125000I0J250000D01*
G01*
X169862500Y-101875000D01*
G75*
G02*
X170112500Y-101625000I250000J0D01*
G01*
X170912500Y-101625000D01*
G75*
G02*
X171162500Y-101875000I0J-250000D01*
G01*
G37*
G36*
G01*
X144300000Y-106249999D02*
X144300000Y-107550001D01*
G75*
G02*
X144050001Y-107800000I-249999J0D01*
G01*
X143224999Y-107800000D01*
G75*
G02*
X142975000Y-107550001I0J249999D01*
G01*
X142975000Y-106249999D01*
G75*
G02*
X143224999Y-106000000I249999J0D01*
G01*
X144050001Y-106000000D01*
G75*
G02*
X144300000Y-106249999I0J-249999D01*
G01*
G37*
G36*
G01*
X147425000Y-106249999D02*
X147425000Y-107550001D01*
G75*
G02*
X147175001Y-107800000I-249999J0D01*
G01*
X146349999Y-107800000D01*
G75*
G02*
X146100000Y-107550001I0J249999D01*
G01*
X146100000Y-106249999D01*
G75*
G02*
X146349999Y-106000000I249999J0D01*
G01*
X147175001Y-106000000D01*
G75*
G02*
X147425000Y-106249999I0J-249999D01*
G01*
G37*
G36*
G01*
X133922500Y-65850001D02*
X133922500Y-64549999D01*
G75*
G02*
X134172499Y-64300000I249999J0D01*
G01*
X134997501Y-64300000D01*
G75*
G02*
X135247500Y-64549999I0J-249999D01*
G01*
X135247500Y-65850001D01*
G75*
G02*
X134997501Y-66100000I-249999J0D01*
G01*
X134172499Y-66100000D01*
G75*
G02*
X133922500Y-65850001I0J249999D01*
G01*
G37*
G36*
G01*
X130797500Y-65850001D02*
X130797500Y-64549999D01*
G75*
G02*
X131047499Y-64300000I249999J0D01*
G01*
X131872501Y-64300000D01*
G75*
G02*
X132122500Y-64549999I0J-249999D01*
G01*
X132122500Y-65850001D01*
G75*
G02*
X131872501Y-66100000I-249999J0D01*
G01*
X131047499Y-66100000D01*
G75*
G02*
X130797500Y-65850001I0J249999D01*
G01*
G37*
G36*
G01*
X133875000Y-61150001D02*
X133875000Y-59849999D01*
G75*
G02*
X134124999Y-59600000I249999J0D01*
G01*
X134950001Y-59600000D01*
G75*
G02*
X135200000Y-59849999I0J-249999D01*
G01*
X135200000Y-61150001D01*
G75*
G02*
X134950001Y-61400000I-249999J0D01*
G01*
X134124999Y-61400000D01*
G75*
G02*
X133875000Y-61150001I0J249999D01*
G01*
G37*
G36*
G01*
X130750000Y-61150001D02*
X130750000Y-59849999D01*
G75*
G02*
X130999999Y-59600000I249999J0D01*
G01*
X131825001Y-59600000D01*
G75*
G02*
X132075000Y-59849999I0J-249999D01*
G01*
X132075000Y-61150001D01*
G75*
G02*
X131825001Y-61400000I-249999J0D01*
G01*
X130999999Y-61400000D01*
G75*
G02*
X130750000Y-61150001I0J249999D01*
G01*
G37*
G36*
G01*
X123625000Y-112349999D02*
X123625000Y-113650001D01*
G75*
G02*
X123375001Y-113900000I-249999J0D01*
G01*
X122549999Y-113900000D01*
G75*
G02*
X122300000Y-113650001I0J249999D01*
G01*
X122300000Y-112349999D01*
G75*
G02*
X122549999Y-112100000I249999J0D01*
G01*
X123375001Y-112100000D01*
G75*
G02*
X123625000Y-112349999I0J-249999D01*
G01*
G37*
G36*
G01*
X126750000Y-112349999D02*
X126750000Y-113650001D01*
G75*
G02*
X126500001Y-113900000I-249999J0D01*
G01*
X125674999Y-113900000D01*
G75*
G02*
X125425000Y-113650001I0J249999D01*
G01*
X125425000Y-112349999D01*
G75*
G02*
X125674999Y-112100000I249999J0D01*
G01*
X126500001Y-112100000D01*
G75*
G02*
X126750000Y-112349999I0J-249999D01*
G01*
G37*
G36*
G01*
X126375000Y-79650001D02*
X126375000Y-78349999D01*
G75*
G02*
X126624999Y-78100000I249999J0D01*
G01*
X127450001Y-78100000D01*
G75*
G02*
X127700000Y-78349999I0J-249999D01*
G01*
X127700000Y-79650001D01*
G75*
G02*
X127450001Y-79900000I-249999J0D01*
G01*
X126624999Y-79900000D01*
G75*
G02*
X126375000Y-79650001I0J249999D01*
G01*
G37*
G36*
G01*
X123250000Y-79650001D02*
X123250000Y-78349999D01*
G75*
G02*
X123499999Y-78100000I249999J0D01*
G01*
X124325001Y-78100000D01*
G75*
G02*
X124575000Y-78349999I0J-249999D01*
G01*
X124575000Y-79650001D01*
G75*
G02*
X124325001Y-79900000I-249999J0D01*
G01*
X123499999Y-79900000D01*
G75*
G02*
X123250000Y-79650001I0J249999D01*
G01*
G37*
G36*
G01*
X127075000Y-89849999D02*
X127075000Y-91150001D01*
G75*
G02*
X126825001Y-91400000I-249999J0D01*
G01*
X125999999Y-91400000D01*
G75*
G02*
X125750000Y-91150001I0J249999D01*
G01*
X125750000Y-89849999D01*
G75*
G02*
X125999999Y-89600000I249999J0D01*
G01*
X126825001Y-89600000D01*
G75*
G02*
X127075000Y-89849999I0J-249999D01*
G01*
G37*
G36*
G01*
X130200000Y-89849999D02*
X130200000Y-91150001D01*
G75*
G02*
X129950001Y-91400000I-249999J0D01*
G01*
X129124999Y-91400000D01*
G75*
G02*
X128875000Y-91150001I0J249999D01*
G01*
X128875000Y-89849999D01*
G75*
G02*
X129124999Y-89600000I249999J0D01*
G01*
X129950001Y-89600000D01*
G75*
G02*
X130200000Y-89849999I0J-249999D01*
G01*
G37*
D15*
X143576060Y-98814609D03*
X148000000Y-100000000D03*
X152423940Y-81185391D03*
X148000000Y-80000000D03*
X138500000Y-92280000D03*
X138500000Y-87700000D03*
X157500000Y-87900000D03*
X157500000Y-92480000D03*
D16*
X160000000Y-70750000D03*
D17*
X161000000Y-74000000D03*
X159000000Y-74000000D03*
D15*
X164500000Y-76500000D03*
X129000000Y-106500000D03*
D18*
G36*
X165399398Y-80650000D02*
G01*
X165399398Y-80674534D01*
X165394588Y-80723365D01*
X165385016Y-80771490D01*
X165370772Y-80818445D01*
X165351995Y-80863778D01*
X165328864Y-80907051D01*
X165301604Y-80947850D01*
X165270476Y-80985779D01*
X165235779Y-81020476D01*
X165197850Y-81051604D01*
X165157051Y-81078864D01*
X165113778Y-81101995D01*
X165068445Y-81120772D01*
X165021490Y-81135016D01*
X164973365Y-81144588D01*
X164924534Y-81149398D01*
X164900000Y-81149398D01*
X164900000Y-81150000D01*
X164400000Y-81150000D01*
X164400000Y-81149398D01*
X164375466Y-81149398D01*
X164326635Y-81144588D01*
X164278510Y-81135016D01*
X164231555Y-81120772D01*
X164186222Y-81101995D01*
X164142949Y-81078864D01*
X164102150Y-81051604D01*
X164064221Y-81020476D01*
X164029524Y-80985779D01*
X163998396Y-80947850D01*
X163971136Y-80907051D01*
X163948005Y-80863778D01*
X163929228Y-80818445D01*
X163914984Y-80771490D01*
X163905412Y-80723365D01*
X163900602Y-80674534D01*
X163900602Y-80650000D01*
X163900000Y-80650000D01*
X163900000Y-80150000D01*
X165400000Y-80150000D01*
X165400000Y-80650000D01*
X165399398Y-80650000D01*
G37*
G36*
X163900000Y-79850000D02*
G01*
X163900000Y-79350000D01*
X163900602Y-79350000D01*
X163900602Y-79325466D01*
X163905412Y-79276635D01*
X163914984Y-79228510D01*
X163929228Y-79181555D01*
X163948005Y-79136222D01*
X163971136Y-79092949D01*
X163998396Y-79052150D01*
X164029524Y-79014221D01*
X164064221Y-78979524D01*
X164102150Y-78948396D01*
X164142949Y-78921136D01*
X164186222Y-78898005D01*
X164231555Y-78879228D01*
X164278510Y-78864984D01*
X164326635Y-78855412D01*
X164375466Y-78850602D01*
X164400000Y-78850602D01*
X164400000Y-78850000D01*
X164900000Y-78850000D01*
X164900000Y-78850602D01*
X164924534Y-78850602D01*
X164973365Y-78855412D01*
X165021490Y-78864984D01*
X165068445Y-78879228D01*
X165113778Y-78898005D01*
X165157051Y-78921136D01*
X165197850Y-78948396D01*
X165235779Y-78979524D01*
X165270476Y-79014221D01*
X165301604Y-79052150D01*
X165328864Y-79092949D01*
X165351995Y-79136222D01*
X165370772Y-79181555D01*
X165385016Y-79228510D01*
X165394588Y-79276635D01*
X165399398Y-79325466D01*
X165399398Y-79350000D01*
X165400000Y-79350000D01*
X165400000Y-79850000D01*
X163900000Y-79850000D01*
G37*
G36*
X152750602Y-105350000D02*
G01*
X152750602Y-105325466D01*
X152755412Y-105276635D01*
X152764984Y-105228510D01*
X152779228Y-105181555D01*
X152798005Y-105136222D01*
X152821136Y-105092949D01*
X152848396Y-105052150D01*
X152879524Y-105014221D01*
X152914221Y-104979524D01*
X152952150Y-104948396D01*
X152992949Y-104921136D01*
X153036222Y-104898005D01*
X153081555Y-104879228D01*
X153128510Y-104864984D01*
X153176635Y-104855412D01*
X153225466Y-104850602D01*
X153250000Y-104850602D01*
X153250000Y-104850000D01*
X153750000Y-104850000D01*
X153750000Y-104850602D01*
X153774534Y-104850602D01*
X153823365Y-104855412D01*
X153871490Y-104864984D01*
X153918445Y-104879228D01*
X153963778Y-104898005D01*
X154007051Y-104921136D01*
X154047850Y-104948396D01*
X154085779Y-104979524D01*
X154120476Y-105014221D01*
X154151604Y-105052150D01*
X154178864Y-105092949D01*
X154201995Y-105136222D01*
X154220772Y-105181555D01*
X154235016Y-105228510D01*
X154244588Y-105276635D01*
X154249398Y-105325466D01*
X154249398Y-105350000D01*
X154250000Y-105350000D01*
X154250000Y-105850000D01*
X152750000Y-105850000D01*
X152750000Y-105350000D01*
X152750602Y-105350000D01*
G37*
G36*
X154250000Y-106150000D02*
G01*
X154250000Y-106650000D01*
X154249398Y-106650000D01*
X154249398Y-106674534D01*
X154244588Y-106723365D01*
X154235016Y-106771490D01*
X154220772Y-106818445D01*
X154201995Y-106863778D01*
X154178864Y-106907051D01*
X154151604Y-106947850D01*
X154120476Y-106985779D01*
X154085779Y-107020476D01*
X154047850Y-107051604D01*
X154007051Y-107078864D01*
X153963778Y-107101995D01*
X153918445Y-107120772D01*
X153871490Y-107135016D01*
X153823365Y-107144588D01*
X153774534Y-107149398D01*
X153750000Y-107149398D01*
X153750000Y-107150000D01*
X153250000Y-107150000D01*
X153250000Y-107149398D01*
X153225466Y-107149398D01*
X153176635Y-107144588D01*
X153128510Y-107135016D01*
X153081555Y-107120772D01*
X153036222Y-107101995D01*
X152992949Y-107078864D01*
X152952150Y-107051604D01*
X152914221Y-107020476D01*
X152879524Y-106985779D01*
X152848396Y-106947850D01*
X152821136Y-106907051D01*
X152798005Y-106863778D01*
X152779228Y-106818445D01*
X152764984Y-106771490D01*
X152755412Y-106723365D01*
X152750602Y-106674534D01*
X152750602Y-106650000D01*
X152750000Y-106650000D01*
X152750000Y-106150000D01*
X154250000Y-106150000D01*
G37*
G36*
X142750602Y-111350000D02*
G01*
X142750602Y-111325466D01*
X142755412Y-111276635D01*
X142764984Y-111228510D01*
X142779228Y-111181555D01*
X142798005Y-111136222D01*
X142821136Y-111092949D01*
X142848396Y-111052150D01*
X142879524Y-111014221D01*
X142914221Y-110979524D01*
X142952150Y-110948396D01*
X142992949Y-110921136D01*
X143036222Y-110898005D01*
X143081555Y-110879228D01*
X143128510Y-110864984D01*
X143176635Y-110855412D01*
X143225466Y-110850602D01*
X143250000Y-110850602D01*
X143250000Y-110850000D01*
X143750000Y-110850000D01*
X143750000Y-110850602D01*
X143774534Y-110850602D01*
X143823365Y-110855412D01*
X143871490Y-110864984D01*
X143918445Y-110879228D01*
X143963778Y-110898005D01*
X144007051Y-110921136D01*
X144047850Y-110948396D01*
X144085779Y-110979524D01*
X144120476Y-111014221D01*
X144151604Y-111052150D01*
X144178864Y-111092949D01*
X144201995Y-111136222D01*
X144220772Y-111181555D01*
X144235016Y-111228510D01*
X144244588Y-111276635D01*
X144249398Y-111325466D01*
X144249398Y-111350000D01*
X144250000Y-111350000D01*
X144250000Y-111850000D01*
X142750000Y-111850000D01*
X142750000Y-111350000D01*
X142750602Y-111350000D01*
G37*
G36*
X144250000Y-112150000D02*
G01*
X144250000Y-112650000D01*
X144249398Y-112650000D01*
X144249398Y-112674534D01*
X144244588Y-112723365D01*
X144235016Y-112771490D01*
X144220772Y-112818445D01*
X144201995Y-112863778D01*
X144178864Y-112907051D01*
X144151604Y-112947850D01*
X144120476Y-112985779D01*
X144085779Y-113020476D01*
X144047850Y-113051604D01*
X144007051Y-113078864D01*
X143963778Y-113101995D01*
X143918445Y-113120772D01*
X143871490Y-113135016D01*
X143823365Y-113144588D01*
X143774534Y-113149398D01*
X143750000Y-113149398D01*
X143750000Y-113150000D01*
X143250000Y-113150000D01*
X143250000Y-113149398D01*
X143225466Y-113149398D01*
X143176635Y-113144588D01*
X143128510Y-113135016D01*
X143081555Y-113120772D01*
X143036222Y-113101995D01*
X142992949Y-113078864D01*
X142952150Y-113051604D01*
X142914221Y-113020476D01*
X142879524Y-112985779D01*
X142848396Y-112947850D01*
X142821136Y-112907051D01*
X142798005Y-112863778D01*
X142779228Y-112818445D01*
X142764984Y-112771490D01*
X142755412Y-112723365D01*
X142750602Y-112674534D01*
X142750602Y-112650000D01*
X142750000Y-112650000D01*
X142750000Y-112150000D01*
X144250000Y-112150000D01*
G37*
D19*
X149440000Y-56500000D03*
X146900000Y-56500000D03*
X144360000Y-56500000D03*
X141820000Y-56500000D03*
X139280000Y-56500000D03*
X136740000Y-56500000D03*
X134200000Y-56500000D03*
X131660000Y-56500000D03*
X129120000Y-56500000D03*
X126580000Y-56500000D03*
X124040000Y-56500000D03*
D20*
X121500000Y-56500000D03*
G36*
G01*
X163340000Y-85487500D02*
X163040000Y-85487500D01*
G75*
G02*
X162890000Y-85337500I0J150000D01*
G01*
X162890000Y-83662500D01*
G75*
G02*
X163040000Y-83512500I150000J0D01*
G01*
X163340000Y-83512500D01*
G75*
G02*
X163490000Y-83662500I0J-150000D01*
G01*
X163490000Y-85337500D01*
G75*
G02*
X163340000Y-85487500I-150000J0D01*
G01*
G37*
G36*
G01*
X164610000Y-85487500D02*
X164310000Y-85487500D01*
G75*
G02*
X164160000Y-85337500I0J150000D01*
G01*
X164160000Y-83662500D01*
G75*
G02*
X164310000Y-83512500I150000J0D01*
G01*
X164610000Y-83512500D01*
G75*
G02*
X164760000Y-83662500I0J-150000D01*
G01*
X164760000Y-85337500D01*
G75*
G02*
X164610000Y-85487500I-150000J0D01*
G01*
G37*
G36*
G01*
X165880000Y-85487500D02*
X165580000Y-85487500D01*
G75*
G02*
X165430000Y-85337500I0J150000D01*
G01*
X165430000Y-83662500D01*
G75*
G02*
X165580000Y-83512500I150000J0D01*
G01*
X165880000Y-83512500D01*
G75*
G02*
X166030000Y-83662500I0J-150000D01*
G01*
X166030000Y-85337500D01*
G75*
G02*
X165880000Y-85487500I-150000J0D01*
G01*
G37*
G36*
G01*
X167150000Y-85487500D02*
X166850000Y-85487500D01*
G75*
G02*
X166700000Y-85337500I0J150000D01*
G01*
X166700000Y-83662500D01*
G75*
G02*
X166850000Y-83512500I150000J0D01*
G01*
X167150000Y-83512500D01*
G75*
G02*
X167300000Y-83662500I0J-150000D01*
G01*
X167300000Y-85337500D01*
G75*
G02*
X167150000Y-85487500I-150000J0D01*
G01*
G37*
G36*
G01*
X168420000Y-85487500D02*
X168120000Y-85487500D01*
G75*
G02*
X167970000Y-85337500I0J150000D01*
G01*
X167970000Y-83662500D01*
G75*
G02*
X168120000Y-83512500I150000J0D01*
G01*
X168420000Y-83512500D01*
G75*
G02*
X168570000Y-83662500I0J-150000D01*
G01*
X168570000Y-85337500D01*
G75*
G02*
X168420000Y-85487500I-150000J0D01*
G01*
G37*
G36*
G01*
X169690000Y-85487500D02*
X169390000Y-85487500D01*
G75*
G02*
X169240000Y-85337500I0J150000D01*
G01*
X169240000Y-83662500D01*
G75*
G02*
X169390000Y-83512500I150000J0D01*
G01*
X169690000Y-83512500D01*
G75*
G02*
X169840000Y-83662500I0J-150000D01*
G01*
X169840000Y-85337500D01*
G75*
G02*
X169690000Y-85487500I-150000J0D01*
G01*
G37*
G36*
G01*
X170960000Y-85487500D02*
X170660000Y-85487500D01*
G75*
G02*
X170510000Y-85337500I0J150000D01*
G01*
X170510000Y-83662500D01*
G75*
G02*
X170660000Y-83512500I150000J0D01*
G01*
X170960000Y-83512500D01*
G75*
G02*
X171110000Y-83662500I0J-150000D01*
G01*
X171110000Y-85337500D01*
G75*
G02*
X170960000Y-85487500I-150000J0D01*
G01*
G37*
G36*
G01*
X170960000Y-92412500D02*
X170660000Y-92412500D01*
G75*
G02*
X170510000Y-92262500I0J150000D01*
G01*
X170510000Y-90587500D01*
G75*
G02*
X170660000Y-90437500I150000J0D01*
G01*
X170960000Y-90437500D01*
G75*
G02*
X171110000Y-90587500I0J-150000D01*
G01*
X171110000Y-92262500D01*
G75*
G02*
X170960000Y-92412500I-150000J0D01*
G01*
G37*
G36*
G01*
X169690000Y-92412500D02*
X169390000Y-92412500D01*
G75*
G02*
X169240000Y-92262500I0J150000D01*
G01*
X169240000Y-90587500D01*
G75*
G02*
X169390000Y-90437500I150000J0D01*
G01*
X169690000Y-90437500D01*
G75*
G02*
X169840000Y-90587500I0J-150000D01*
G01*
X169840000Y-92262500D01*
G75*
G02*
X169690000Y-92412500I-150000J0D01*
G01*
G37*
G36*
G01*
X168420000Y-92412500D02*
X168120000Y-92412500D01*
G75*
G02*
X167970000Y-92262500I0J150000D01*
G01*
X167970000Y-90587500D01*
G75*
G02*
X168120000Y-90437500I150000J0D01*
G01*
X168420000Y-90437500D01*
G75*
G02*
X168570000Y-90587500I0J-150000D01*
G01*
X168570000Y-92262500D01*
G75*
G02*
X168420000Y-92412500I-150000J0D01*
G01*
G37*
G36*
G01*
X167150000Y-92412500D02*
X166850000Y-92412500D01*
G75*
G02*
X166700000Y-92262500I0J150000D01*
G01*
X166700000Y-90587500D01*
G75*
G02*
X166850000Y-90437500I150000J0D01*
G01*
X167150000Y-90437500D01*
G75*
G02*
X167300000Y-90587500I0J-150000D01*
G01*
X167300000Y-92262500D01*
G75*
G02*
X167150000Y-92412500I-150000J0D01*
G01*
G37*
G36*
G01*
X165880000Y-92412500D02*
X165580000Y-92412500D01*
G75*
G02*
X165430000Y-92262500I0J150000D01*
G01*
X165430000Y-90587500D01*
G75*
G02*
X165580000Y-90437500I150000J0D01*
G01*
X165880000Y-90437500D01*
G75*
G02*
X166030000Y-90587500I0J-150000D01*
G01*
X166030000Y-92262500D01*
G75*
G02*
X165880000Y-92412500I-150000J0D01*
G01*
G37*
G36*
G01*
X164610000Y-92412500D02*
X164310000Y-92412500D01*
G75*
G02*
X164160000Y-92262500I0J150000D01*
G01*
X164160000Y-90587500D01*
G75*
G02*
X164310000Y-90437500I150000J0D01*
G01*
X164610000Y-90437500D01*
G75*
G02*
X164760000Y-90587500I0J-150000D01*
G01*
X164760000Y-92262500D01*
G75*
G02*
X164610000Y-92412500I-150000J0D01*
G01*
G37*
G36*
G01*
X163340000Y-92412500D02*
X163040000Y-92412500D01*
G75*
G02*
X162890000Y-92262500I0J150000D01*
G01*
X162890000Y-90587500D01*
G75*
G02*
X163040000Y-90437500I150000J0D01*
G01*
X163340000Y-90437500D01*
G75*
G02*
X163490000Y-90587500I0J-150000D01*
G01*
X163490000Y-92262500D01*
G75*
G02*
X163340000Y-92412500I-150000J0D01*
G01*
G37*
G36*
G01*
X138437500Y-103760000D02*
X138437500Y-103460000D01*
G75*
G02*
X138587500Y-103310000I150000J0D01*
G01*
X140262500Y-103310000D01*
G75*
G02*
X140412500Y-103460000I0J-150000D01*
G01*
X140412500Y-103760000D01*
G75*
G02*
X140262500Y-103910000I-150000J0D01*
G01*
X138587500Y-103910000D01*
G75*
G02*
X138437500Y-103760000I0J150000D01*
G01*
G37*
G36*
G01*
X138437500Y-105030000D02*
X138437500Y-104730000D01*
G75*
G02*
X138587500Y-104580000I150000J0D01*
G01*
X140262500Y-104580000D01*
G75*
G02*
X140412500Y-104730000I0J-150000D01*
G01*
X140412500Y-105030000D01*
G75*
G02*
X140262500Y-105180000I-150000J0D01*
G01*
X138587500Y-105180000D01*
G75*
G02*
X138437500Y-105030000I0J150000D01*
G01*
G37*
G36*
G01*
X138437500Y-106300000D02*
X138437500Y-106000000D01*
G75*
G02*
X138587500Y-105850000I150000J0D01*
G01*
X140262500Y-105850000D01*
G75*
G02*
X140412500Y-106000000I0J-150000D01*
G01*
X140412500Y-106300000D01*
G75*
G02*
X140262500Y-106450000I-150000J0D01*
G01*
X138587500Y-106450000D01*
G75*
G02*
X138437500Y-106300000I0J150000D01*
G01*
G37*
G36*
G01*
X138437500Y-107570000D02*
X138437500Y-107270000D01*
G75*
G02*
X138587500Y-107120000I150000J0D01*
G01*
X140262500Y-107120000D01*
G75*
G02*
X140412500Y-107270000I0J-150000D01*
G01*
X140412500Y-107570000D01*
G75*
G02*
X140262500Y-107720000I-150000J0D01*
G01*
X138587500Y-107720000D01*
G75*
G02*
X138437500Y-107570000I0J150000D01*
G01*
G37*
G36*
G01*
X138437500Y-108840000D02*
X138437500Y-108540000D01*
G75*
G02*
X138587500Y-108390000I150000J0D01*
G01*
X140262500Y-108390000D01*
G75*
G02*
X140412500Y-108540000I0J-150000D01*
G01*
X140412500Y-108840000D01*
G75*
G02*
X140262500Y-108990000I-150000J0D01*
G01*
X138587500Y-108990000D01*
G75*
G02*
X138437500Y-108840000I0J150000D01*
G01*
G37*
G36*
G01*
X138437500Y-110110000D02*
X138437500Y-109810000D01*
G75*
G02*
X138587500Y-109660000I150000J0D01*
G01*
X140262500Y-109660000D01*
G75*
G02*
X140412500Y-109810000I0J-150000D01*
G01*
X140412500Y-110110000D01*
G75*
G02*
X140262500Y-110260000I-150000J0D01*
G01*
X138587500Y-110260000D01*
G75*
G02*
X138437500Y-110110000I0J150000D01*
G01*
G37*
G36*
G01*
X138437500Y-111380000D02*
X138437500Y-111080000D01*
G75*
G02*
X138587500Y-110930000I150000J0D01*
G01*
X140262500Y-110930000D01*
G75*
G02*
X140412500Y-111080000I0J-150000D01*
G01*
X140412500Y-111380000D01*
G75*
G02*
X140262500Y-111530000I-150000J0D01*
G01*
X138587500Y-111530000D01*
G75*
G02*
X138437500Y-111380000I0J150000D01*
G01*
G37*
G36*
G01*
X138437500Y-112650000D02*
X138437500Y-112350000D01*
G75*
G02*
X138587500Y-112200000I150000J0D01*
G01*
X140262500Y-112200000D01*
G75*
G02*
X140412500Y-112350000I0J-150000D01*
G01*
X140412500Y-112650000D01*
G75*
G02*
X140262500Y-112800000I-150000J0D01*
G01*
X138587500Y-112800000D01*
G75*
G02*
X138437500Y-112650000I0J150000D01*
G01*
G37*
G36*
G01*
X131512500Y-112650000D02*
X131512500Y-112350000D01*
G75*
G02*
X131662500Y-112200000I150000J0D01*
G01*
X133337500Y-112200000D01*
G75*
G02*
X133487500Y-112350000I0J-150000D01*
G01*
X133487500Y-112650000D01*
G75*
G02*
X133337500Y-112800000I-150000J0D01*
G01*
X131662500Y-112800000D01*
G75*
G02*
X131512500Y-112650000I0J150000D01*
G01*
G37*
G36*
G01*
X131512500Y-111380000D02*
X131512500Y-111080000D01*
G75*
G02*
X131662500Y-110930000I150000J0D01*
G01*
X133337500Y-110930000D01*
G75*
G02*
X133487500Y-111080000I0J-150000D01*
G01*
X133487500Y-111380000D01*
G75*
G02*
X133337500Y-111530000I-150000J0D01*
G01*
X131662500Y-111530000D01*
G75*
G02*
X131512500Y-111380000I0J150000D01*
G01*
G37*
G36*
G01*
X131512500Y-110110000D02*
X131512500Y-109810000D01*
G75*
G02*
X131662500Y-109660000I150000J0D01*
G01*
X133337500Y-109660000D01*
G75*
G02*
X133487500Y-109810000I0J-150000D01*
G01*
X133487500Y-110110000D01*
G75*
G02*
X133337500Y-110260000I-150000J0D01*
G01*
X131662500Y-110260000D01*
G75*
G02*
X131512500Y-110110000I0J150000D01*
G01*
G37*
G36*
G01*
X131512500Y-108840000D02*
X131512500Y-108540000D01*
G75*
G02*
X131662500Y-108390000I150000J0D01*
G01*
X133337500Y-108390000D01*
G75*
G02*
X133487500Y-108540000I0J-150000D01*
G01*
X133487500Y-108840000D01*
G75*
G02*
X133337500Y-108990000I-150000J0D01*
G01*
X131662500Y-108990000D01*
G75*
G02*
X131512500Y-108840000I0J150000D01*
G01*
G37*
G36*
G01*
X131512500Y-107570000D02*
X131512500Y-107270000D01*
G75*
G02*
X131662500Y-107120000I150000J0D01*
G01*
X133337500Y-107120000D01*
G75*
G02*
X133487500Y-107270000I0J-150000D01*
G01*
X133487500Y-107570000D01*
G75*
G02*
X133337500Y-107720000I-150000J0D01*
G01*
X131662500Y-107720000D01*
G75*
G02*
X131512500Y-107570000I0J150000D01*
G01*
G37*
G36*
G01*
X131512500Y-106300000D02*
X131512500Y-106000000D01*
G75*
G02*
X131662500Y-105850000I150000J0D01*
G01*
X133337500Y-105850000D01*
G75*
G02*
X133487500Y-106000000I0J-150000D01*
G01*
X133487500Y-106300000D01*
G75*
G02*
X133337500Y-106450000I-150000J0D01*
G01*
X131662500Y-106450000D01*
G75*
G02*
X131512500Y-106300000I0J150000D01*
G01*
G37*
G36*
G01*
X131512500Y-105030000D02*
X131512500Y-104730000D01*
G75*
G02*
X131662500Y-104580000I150000J0D01*
G01*
X133337500Y-104580000D01*
G75*
G02*
X133487500Y-104730000I0J-150000D01*
G01*
X133487500Y-105030000D01*
G75*
G02*
X133337500Y-105180000I-150000J0D01*
G01*
X131662500Y-105180000D01*
G75*
G02*
X131512500Y-105030000I0J150000D01*
G01*
G37*
G36*
G01*
X131512500Y-103760000D02*
X131512500Y-103460000D01*
G75*
G02*
X131662500Y-103310000I150000J0D01*
G01*
X133337500Y-103310000D01*
G75*
G02*
X133487500Y-103460000I0J-150000D01*
G01*
X133487500Y-103760000D01*
G75*
G02*
X133337500Y-103910000I-150000J0D01*
G01*
X131662500Y-103910000D01*
G75*
G02*
X131512500Y-103760000I0J150000D01*
G01*
G37*
G36*
G01*
X133242641Y-71818019D02*
X133242641Y-71818019D01*
G75*
G02*
X132358757Y-71818019I-441942J441942D01*
G01*
X132181981Y-71641243D01*
G75*
G02*
X132181981Y-70757359I441942J441942D01*
G01*
X132181981Y-70757359D01*
G75*
G02*
X133065865Y-70757359I441942J-441942D01*
G01*
X133242641Y-70934135D01*
G75*
G02*
X133242641Y-71818019I-441942J-441942D01*
G01*
G37*
G36*
G01*
X132005204Y-73055456D02*
X132005204Y-73055456D01*
G75*
G02*
X131121320Y-73055456I-441942J441942D01*
G01*
X130944544Y-72878680D01*
G75*
G02*
X130944544Y-71994796I441942J441942D01*
G01*
X130944544Y-71994796D01*
G75*
G02*
X131828428Y-71994796I441942J-441942D01*
G01*
X132005204Y-72171572D01*
G75*
G02*
X132005204Y-73055456I-441942J-441942D01*
G01*
G37*
G36*
G01*
X130767767Y-74292893D02*
X130767767Y-74292893D01*
G75*
G02*
X129883883Y-74292893I-441942J441942D01*
G01*
X129707107Y-74116117D01*
G75*
G02*
X129707107Y-73232233I441942J441942D01*
G01*
X129707107Y-73232233D01*
G75*
G02*
X130590991Y-73232233I441942J-441942D01*
G01*
X130767767Y-73409009D01*
G75*
G02*
X130767767Y-74292893I-441942J-441942D01*
G01*
G37*
D18*
G36*
X129972272Y-75088388D02*
G01*
X129088388Y-75972272D01*
X128027728Y-74911612D01*
X128911612Y-74027728D01*
X129972272Y-75088388D01*
G37*
G36*
G01*
X141075079Y-67460984D02*
X141075079Y-67460984D01*
G75*
G02*
X140244501Y-67158678I-264136J566442D01*
G01*
X140138847Y-66932102D01*
G75*
G02*
X140441153Y-66101524I566442J264136D01*
G01*
X140441153Y-66101524D01*
G75*
G02*
X141271731Y-66403830I264136J-566442D01*
G01*
X141377385Y-66630406D01*
G75*
G02*
X141075079Y-67460984I-566442J-264136D01*
G01*
G37*
G36*
G01*
X139489040Y-68200566D02*
X139489040Y-68200566D01*
G75*
G02*
X138658462Y-67898260I-264136J566442D01*
G01*
X138552808Y-67671684D01*
G75*
G02*
X138855114Y-66841106I566442J264136D01*
G01*
X138855114Y-66841106D01*
G75*
G02*
X139685692Y-67143412I264136J-566442D01*
G01*
X139791346Y-67369988D01*
G75*
G02*
X139489040Y-68200566I-566442J-264136D01*
G01*
G37*
G36*
G01*
X137903002Y-68940148D02*
X137903002Y-68940148D01*
G75*
G02*
X137072424Y-68637842I-264136J566442D01*
G01*
X136966770Y-68411266D01*
G75*
G02*
X137269076Y-67580688I566442J264136D01*
G01*
X137269076Y-67580688D01*
G75*
G02*
X138099654Y-67882994I264136J-566442D01*
G01*
X138205308Y-68109570D01*
G75*
G02*
X137903002Y-68940148I-566442J-264136D01*
G01*
G37*
G36*
X136883406Y-69415594D02*
G01*
X135750521Y-69943867D01*
X135116594Y-68584406D01*
X136249479Y-68056133D01*
X136883406Y-69415594D01*
G37*
G36*
G01*
X130700000Y-82950000D02*
X130700000Y-84050000D01*
G75*
G02*
X130450000Y-84300000I-250000J0D01*
G01*
X128350000Y-84300000D01*
G75*
G02*
X128100000Y-84050000I0J250000D01*
G01*
X128100000Y-82950000D01*
G75*
G02*
X128350000Y-82700000I250000J0D01*
G01*
X130450000Y-82700000D01*
G75*
G02*
X130700000Y-82950000I0J-250000D01*
G01*
G37*
G36*
G01*
X134300000Y-82950000D02*
X134300000Y-84050000D01*
G75*
G02*
X134050000Y-84300000I-250000J0D01*
G01*
X131950000Y-84300000D01*
G75*
G02*
X131700000Y-84050000I0J250000D01*
G01*
X131700000Y-82950000D01*
G75*
G02*
X131950000Y-82700000I250000J0D01*
G01*
X134050000Y-82700000D01*
G75*
G02*
X134300000Y-82950000I0J-250000D01*
G01*
G37*
G36*
G01*
X148800000Y-72050000D02*
X148800000Y-70950000D01*
G75*
G02*
X149050000Y-70700000I250000J0D01*
G01*
X151150000Y-70700000D01*
G75*
G02*
X151400000Y-70950000I0J-250000D01*
G01*
X151400000Y-72050000D01*
G75*
G02*
X151150000Y-72300000I-250000J0D01*
G01*
X149050000Y-72300000D01*
G75*
G02*
X148800000Y-72050000I0J250000D01*
G01*
G37*
G36*
G01*
X145200000Y-72050000D02*
X145200000Y-70950000D01*
G75*
G02*
X145450000Y-70700000I250000J0D01*
G01*
X147550000Y-70700000D01*
G75*
G02*
X147800000Y-70950000I0J-250000D01*
G01*
X147800000Y-72050000D01*
G75*
G02*
X147550000Y-72300000I-250000J0D01*
G01*
X145450000Y-72300000D01*
G75*
G02*
X145200000Y-72050000I0J250000D01*
G01*
G37*
G36*
G01*
X123550000Y-64000000D02*
X122450000Y-64000000D01*
G75*
G02*
X122200000Y-63750000I0J250000D01*
G01*
X122200000Y-61650000D01*
G75*
G02*
X122450000Y-61400000I250000J0D01*
G01*
X123550000Y-61400000D01*
G75*
G02*
X123800000Y-61650000I0J-250000D01*
G01*
X123800000Y-63750000D01*
G75*
G02*
X123550000Y-64000000I-250000J0D01*
G01*
G37*
G36*
G01*
X123550000Y-67600000D02*
X122450000Y-67600000D01*
G75*
G02*
X122200000Y-67350000I0J250000D01*
G01*
X122200000Y-65250000D01*
G75*
G02*
X122450000Y-65000000I250000J0D01*
G01*
X123550000Y-65000000D01*
G75*
G02*
X123800000Y-65250000I0J-250000D01*
G01*
X123800000Y-67350000D01*
G75*
G02*
X123550000Y-67600000I-250000J0D01*
G01*
G37*
G36*
G01*
X140300000Y-75750000D02*
X140300000Y-74650000D01*
G75*
G02*
X140550000Y-74400000I250000J0D01*
G01*
X142650000Y-74400000D01*
G75*
G02*
X142900000Y-74650000I0J-250000D01*
G01*
X142900000Y-75750000D01*
G75*
G02*
X142650000Y-76000000I-250000J0D01*
G01*
X140550000Y-76000000D01*
G75*
G02*
X140300000Y-75750000I0J250000D01*
G01*
G37*
G36*
G01*
X136700000Y-75750000D02*
X136700000Y-74650000D01*
G75*
G02*
X136950000Y-74400000I250000J0D01*
G01*
X139050000Y-74400000D01*
G75*
G02*
X139300000Y-74650000I0J-250000D01*
G01*
X139300000Y-75750000D01*
G75*
G02*
X139050000Y-76000000I-250000J0D01*
G01*
X136950000Y-76000000D01*
G75*
G02*
X136700000Y-75750000I0J250000D01*
G01*
G37*
G36*
G01*
X126350000Y-71600000D02*
X125250000Y-71600000D01*
G75*
G02*
X125000000Y-71350000I0J250000D01*
G01*
X125000000Y-69250000D01*
G75*
G02*
X125250000Y-69000000I250000J0D01*
G01*
X126350000Y-69000000D01*
G75*
G02*
X126600000Y-69250000I0J-250000D01*
G01*
X126600000Y-71350000D01*
G75*
G02*
X126350000Y-71600000I-250000J0D01*
G01*
G37*
G36*
G01*
X126350000Y-75200000D02*
X125250000Y-75200000D01*
G75*
G02*
X125000000Y-74950000I0J250000D01*
G01*
X125000000Y-72850000D01*
G75*
G02*
X125250000Y-72600000I250000J0D01*
G01*
X126350000Y-72600000D01*
G75*
G02*
X126600000Y-72850000I0J-250000D01*
G01*
X126600000Y-74950000D01*
G75*
G02*
X126350000Y-75200000I-250000J0D01*
G01*
G37*
G36*
G01*
X123550000Y-96500000D02*
X122450000Y-96500000D01*
G75*
G02*
X122200000Y-96250000I0J250000D01*
G01*
X122200000Y-94150000D01*
G75*
G02*
X122450000Y-93900000I250000J0D01*
G01*
X123550000Y-93900000D01*
G75*
G02*
X123800000Y-94150000I0J-250000D01*
G01*
X123800000Y-96250000D01*
G75*
G02*
X123550000Y-96500000I-250000J0D01*
G01*
G37*
G36*
G01*
X123550000Y-100100000D02*
X122450000Y-100100000D01*
G75*
G02*
X122200000Y-99850000I0J250000D01*
G01*
X122200000Y-97750000D01*
G75*
G02*
X122450000Y-97500000I250000J0D01*
G01*
X123550000Y-97500000D01*
G75*
G02*
X123800000Y-97750000I0J-250000D01*
G01*
X123800000Y-99850000D01*
G75*
G02*
X123550000Y-100100000I-250000J0D01*
G01*
G37*
G36*
G01*
X123750000Y-86150000D02*
X122650000Y-86150000D01*
G75*
G02*
X122400000Y-85900000I0J250000D01*
G01*
X122400000Y-83800000D01*
G75*
G02*
X122650000Y-83550000I250000J0D01*
G01*
X123750000Y-83550000D01*
G75*
G02*
X124000000Y-83800000I0J-250000D01*
G01*
X124000000Y-85900000D01*
G75*
G02*
X123750000Y-86150000I-250000J0D01*
G01*
G37*
G36*
G01*
X123750000Y-89750000D02*
X122650000Y-89750000D01*
G75*
G02*
X122400000Y-89500000I0J250000D01*
G01*
X122400000Y-87400000D01*
G75*
G02*
X122650000Y-87150000I250000J0D01*
G01*
X123750000Y-87150000D01*
G75*
G02*
X124000000Y-87400000I0J-250000D01*
G01*
X124000000Y-89500000D01*
G75*
G02*
X123750000Y-89750000I-250000J0D01*
G01*
G37*
D21*
X148000000Y-115000000D03*
X148000000Y-110000000D03*
X163000000Y-98000000D03*
X163000000Y-102500000D03*
M02*
