G04 #@! TF.GenerationSoftware,KiCad,Pcbnew,5.1.10-88a1d61d58~88~ubuntu18.04.1*
G04 #@! TF.CreationDate,2024-08-15T14:25:57-04:00*
G04 #@! TF.ProjectId,238-capstan,3233382d-6361-4707-9374-616e2e6b6963,rev?*
G04 #@! TF.SameCoordinates,Original*
G04 #@! TF.FileFunction,Copper,L1,Top*
G04 #@! TF.FilePolarity,Positive*
%FSLAX46Y46*%
G04 Gerber Fmt 4.6, Leading zero omitted, Abs format (unit mm)*
G04 Created by KiCad (PCBNEW 5.1.10-88a1d61d58~88~ubuntu18.04.1) date 2024-08-15 14:25:57*
%MOMM*%
%LPD*%
G01*
G04 APERTURE LIST*
G04 #@! TA.AperFunction,ComponentPad*
%ADD10O,2.500000X2.000000*%
G04 #@! TD*
G04 #@! TA.AperFunction,SMDPad,CuDef*
%ADD11R,1.300000X1.700000*%
G04 #@! TD*
G04 #@! TA.AperFunction,SMDPad,CuDef*
%ADD12C,2.500000*%
G04 #@! TD*
G04 #@! TA.AperFunction,SMDPad,CuDef*
%ADD13R,1.600000X2.300000*%
G04 #@! TD*
G04 #@! TA.AperFunction,SMDPad,CuDef*
%ADD14R,1.200000X1.800000*%
G04 #@! TD*
G04 #@! TA.AperFunction,SMDPad,CuDef*
%ADD15C,0.100000*%
G04 #@! TD*
G04 #@! TA.AperFunction,ComponentPad*
%ADD16O,1.700000X2.100000*%
G04 #@! TD*
G04 #@! TA.AperFunction,ComponentPad*
%ADD17R,1.700000X2.100000*%
G04 #@! TD*
G04 #@! TA.AperFunction,ComponentPad*
%ADD18C,0.100000*%
G04 #@! TD*
G04 #@! TA.AperFunction,SMDPad,CuDef*
%ADD19R,2.500000X2.500000*%
G04 #@! TD*
G04 #@! TA.AperFunction,Conductor*
%ADD20C,1.000000*%
G04 #@! TD*
G04 #@! TA.AperFunction,Conductor*
%ADD21C,0.500000*%
G04 #@! TD*
G04 #@! TA.AperFunction,Conductor*
%ADD22C,0.250000*%
G04 #@! TD*
G04 #@! TA.AperFunction,Conductor*
%ADD23C,0.254000*%
G04 #@! TD*
G04 #@! TA.AperFunction,Conductor*
%ADD24C,0.100000*%
G04 #@! TD*
G04 APERTURE END LIST*
G04 #@! TA.AperFunction,SMDPad,CuDef*
G36*
G01*
X124250000Y-81750002D02*
X124250000Y-80449998D01*
G75*
G02*
X124499998Y-80200000I249998J0D01*
G01*
X125325002Y-80200000D01*
G75*
G02*
X125575000Y-80449998I0J-249998D01*
G01*
X125575000Y-81750002D01*
G75*
G02*
X125325002Y-82000000I-249998J0D01*
G01*
X124499998Y-82000000D01*
G75*
G02*
X124250000Y-81750002I0J249998D01*
G01*
G37*
G04 #@! TD.AperFunction*
G04 #@! TA.AperFunction,SMDPad,CuDef*
G36*
G01*
X121125000Y-81750002D02*
X121125000Y-80449998D01*
G75*
G02*
X121374998Y-80200000I249998J0D01*
G01*
X122200002Y-80200000D01*
G75*
G02*
X122450000Y-80449998I0J-249998D01*
G01*
X122450000Y-81750002D01*
G75*
G02*
X122200002Y-82000000I-249998J0D01*
G01*
X121374998Y-82000000D01*
G75*
G02*
X121125000Y-81750002I0J249998D01*
G01*
G37*
G04 #@! TD.AperFunction*
D10*
X120000000Y-68960000D03*
X120000000Y-71500000D03*
X174200000Y-102430000D03*
X174200000Y-99890000D03*
X174200000Y-97350000D03*
X121200000Y-78000000D03*
X121200000Y-75460000D03*
X174200000Y-83600000D03*
X174200000Y-86140000D03*
X174200000Y-88680000D03*
G04 #@! TA.AperFunction,ComponentPad*
G36*
G01*
X175450000Y-90720000D02*
X175450000Y-91720000D01*
G75*
G02*
X174950000Y-92220000I-500000J0D01*
G01*
X173450000Y-92220000D01*
G75*
G02*
X172950000Y-91720000I0J500000D01*
G01*
X172950000Y-90720000D01*
G75*
G02*
X173450000Y-90220000I500000J0D01*
G01*
X174950000Y-90220000D01*
G75*
G02*
X175450000Y-90720000I0J-500000D01*
G01*
G37*
G04 #@! TD.AperFunction*
D11*
X129400000Y-87500000D03*
X132900000Y-87500000D03*
G04 #@! TA.AperFunction,SMDPad,CuDef*
G36*
G01*
X154374999Y-73400000D02*
X155625001Y-73400000D01*
G75*
G02*
X155875000Y-73649999I0J-249999D01*
G01*
X155875000Y-74450001D01*
G75*
G02*
X155625001Y-74700000I-249999J0D01*
G01*
X154374999Y-74700000D01*
G75*
G02*
X154125000Y-74450001I0J249999D01*
G01*
X154125000Y-73649999D01*
G75*
G02*
X154374999Y-73400000I249999J0D01*
G01*
G37*
G04 #@! TD.AperFunction*
G04 #@! TA.AperFunction,SMDPad,CuDef*
G36*
G01*
X154374999Y-70300000D02*
X155625001Y-70300000D01*
G75*
G02*
X155875000Y-70549999I0J-249999D01*
G01*
X155875000Y-71350001D01*
G75*
G02*
X155625001Y-71600000I-249999J0D01*
G01*
X154374999Y-71600000D01*
G75*
G02*
X154125000Y-71350001I0J249999D01*
G01*
X154125000Y-70549999D01*
G75*
G02*
X154374999Y-70300000I249999J0D01*
G01*
G37*
G04 #@! TD.AperFunction*
G04 #@! TA.AperFunction,SMDPad,CuDef*
G36*
G01*
X138562500Y-60874999D02*
X138562500Y-62125001D01*
G75*
G02*
X138312501Y-62375000I-249999J0D01*
G01*
X137512499Y-62375000D01*
G75*
G02*
X137262500Y-62125001I0J249999D01*
G01*
X137262500Y-60874999D01*
G75*
G02*
X137512499Y-60625000I249999J0D01*
G01*
X138312501Y-60625000D01*
G75*
G02*
X138562500Y-60874999I0J-249999D01*
G01*
G37*
G04 #@! TD.AperFunction*
G04 #@! TA.AperFunction,SMDPad,CuDef*
G36*
G01*
X141662500Y-60874999D02*
X141662500Y-62125001D01*
G75*
G02*
X141412501Y-62375000I-249999J0D01*
G01*
X140612499Y-62375000D01*
G75*
G02*
X140362500Y-62125001I0J249999D01*
G01*
X140362500Y-60874999D01*
G75*
G02*
X140612499Y-60625000I249999J0D01*
G01*
X141412501Y-60625000D01*
G75*
G02*
X141662500Y-60874999I0J-249999D01*
G01*
G37*
G04 #@! TD.AperFunction*
G04 #@! TA.AperFunction,SMDPad,CuDef*
G36*
G01*
X123137500Y-58874999D02*
X123137500Y-60125001D01*
G75*
G02*
X122887501Y-60375000I-249999J0D01*
G01*
X122087499Y-60375000D01*
G75*
G02*
X121837500Y-60125001I0J249999D01*
G01*
X121837500Y-58874999D01*
G75*
G02*
X122087499Y-58625000I249999J0D01*
G01*
X122887501Y-58625000D01*
G75*
G02*
X123137500Y-58874999I0J-249999D01*
G01*
G37*
G04 #@! TD.AperFunction*
G04 #@! TA.AperFunction,SMDPad,CuDef*
G36*
G01*
X126237500Y-58874999D02*
X126237500Y-60125001D01*
G75*
G02*
X125987501Y-60375000I-249999J0D01*
G01*
X125187499Y-60375000D01*
G75*
G02*
X124937500Y-60125001I0J249999D01*
G01*
X124937500Y-58874999D01*
G75*
G02*
X125187499Y-58625000I249999J0D01*
G01*
X125987501Y-58625000D01*
G75*
G02*
X126237500Y-58874999I0J-249999D01*
G01*
G37*
G04 #@! TD.AperFunction*
G04 #@! TA.AperFunction,SMDPad,CuDef*
G36*
G01*
X130600000Y-79625001D02*
X130600000Y-78374999D01*
G75*
G02*
X130849999Y-78125000I249999J0D01*
G01*
X131650001Y-78125000D01*
G75*
G02*
X131900000Y-78374999I0J-249999D01*
G01*
X131900000Y-79625001D01*
G75*
G02*
X131650001Y-79875000I-249999J0D01*
G01*
X130849999Y-79875000D01*
G75*
G02*
X130600000Y-79625001I0J249999D01*
G01*
G37*
G04 #@! TD.AperFunction*
G04 #@! TA.AperFunction,SMDPad,CuDef*
G36*
G01*
X127500000Y-79625001D02*
X127500000Y-78374999D01*
G75*
G02*
X127749999Y-78125000I249999J0D01*
G01*
X128550001Y-78125000D01*
G75*
G02*
X128800000Y-78374999I0J-249999D01*
G01*
X128800000Y-79625001D01*
G75*
G02*
X128550001Y-79875000I-249999J0D01*
G01*
X127749999Y-79875000D01*
G75*
G02*
X127500000Y-79625001I0J249999D01*
G01*
G37*
G04 #@! TD.AperFunction*
G04 #@! TA.AperFunction,SMDPad,CuDef*
G36*
G01*
X170825001Y-95050000D02*
X169574999Y-95050000D01*
G75*
G02*
X169325000Y-94800001I0J249999D01*
G01*
X169325000Y-93999999D01*
G75*
G02*
X169574999Y-93750000I249999J0D01*
G01*
X170825001Y-93750000D01*
G75*
G02*
X171075000Y-93999999I0J-249999D01*
G01*
X171075000Y-94800001D01*
G75*
G02*
X170825001Y-95050000I-249999J0D01*
G01*
G37*
G04 #@! TD.AperFunction*
G04 #@! TA.AperFunction,SMDPad,CuDef*
G36*
G01*
X170825001Y-98150000D02*
X169574999Y-98150000D01*
G75*
G02*
X169325000Y-97900001I0J249999D01*
G01*
X169325000Y-97099999D01*
G75*
G02*
X169574999Y-96850000I249999J0D01*
G01*
X170825001Y-96850000D01*
G75*
G02*
X171075000Y-97099999I0J-249999D01*
G01*
X171075000Y-97900001D01*
G75*
G02*
X170825001Y-98150000I-249999J0D01*
G01*
G37*
G04 #@! TD.AperFunction*
G04 #@! TA.AperFunction,SMDPad,CuDef*
G36*
G01*
X167850000Y-102174999D02*
X167850000Y-103425001D01*
G75*
G02*
X167600001Y-103675000I-249999J0D01*
G01*
X166799999Y-103675000D01*
G75*
G02*
X166550000Y-103425001I0J249999D01*
G01*
X166550000Y-102174999D01*
G75*
G02*
X166799999Y-101925000I249999J0D01*
G01*
X167600001Y-101925000D01*
G75*
G02*
X167850000Y-102174999I0J-249999D01*
G01*
G37*
G04 #@! TD.AperFunction*
G04 #@! TA.AperFunction,SMDPad,CuDef*
G36*
G01*
X170950000Y-102174999D02*
X170950000Y-103425001D01*
G75*
G02*
X170700001Y-103675000I-249999J0D01*
G01*
X169899999Y-103675000D01*
G75*
G02*
X169650000Y-103425001I0J249999D01*
G01*
X169650000Y-102174999D01*
G75*
G02*
X169899999Y-101925000I249999J0D01*
G01*
X170700001Y-101925000D01*
G75*
G02*
X170950000Y-102174999I0J-249999D01*
G01*
G37*
G04 #@! TD.AperFunction*
G04 #@! TA.AperFunction,SMDPad,CuDef*
G36*
G01*
X164800000Y-95874999D02*
X164800000Y-97125001D01*
G75*
G02*
X164550001Y-97375000I-249999J0D01*
G01*
X163749999Y-97375000D01*
G75*
G02*
X163500000Y-97125001I0J249999D01*
G01*
X163500000Y-95874999D01*
G75*
G02*
X163749999Y-95625000I249999J0D01*
G01*
X164550001Y-95625000D01*
G75*
G02*
X164800000Y-95874999I0J-249999D01*
G01*
G37*
G04 #@! TD.AperFunction*
G04 #@! TA.AperFunction,SMDPad,CuDef*
G36*
G01*
X167900000Y-95874999D02*
X167900000Y-97125001D01*
G75*
G02*
X167650001Y-97375000I-249999J0D01*
G01*
X166849999Y-97375000D01*
G75*
G02*
X166600000Y-97125001I0J249999D01*
G01*
X166600000Y-95874999D01*
G75*
G02*
X166849999Y-95625000I249999J0D01*
G01*
X167650001Y-95625000D01*
G75*
G02*
X167900000Y-95874999I0J-249999D01*
G01*
G37*
G04 #@! TD.AperFunction*
G04 #@! TA.AperFunction,SMDPad,CuDef*
G36*
G01*
X128374999Y-112362500D02*
X129625001Y-112362500D01*
G75*
G02*
X129875000Y-112612499I0J-249999D01*
G01*
X129875000Y-113412501D01*
G75*
G02*
X129625001Y-113662500I-249999J0D01*
G01*
X128374999Y-113662500D01*
G75*
G02*
X128125000Y-113412501I0J249999D01*
G01*
X128125000Y-112612499D01*
G75*
G02*
X128374999Y-112362500I249999J0D01*
G01*
G37*
G04 #@! TD.AperFunction*
G04 #@! TA.AperFunction,SMDPad,CuDef*
G36*
G01*
X128374999Y-109262500D02*
X129625001Y-109262500D01*
G75*
G02*
X129875000Y-109512499I0J-249999D01*
G01*
X129875000Y-110312501D01*
G75*
G02*
X129625001Y-110562500I-249999J0D01*
G01*
X128374999Y-110562500D01*
G75*
G02*
X128125000Y-110312501I0J249999D01*
G01*
X128125000Y-109512499D01*
G75*
G02*
X128374999Y-109262500I249999J0D01*
G01*
G37*
G04 #@! TD.AperFunction*
G04 #@! TA.AperFunction,SMDPad,CuDef*
G36*
G01*
X128374999Y-102362500D02*
X129625001Y-102362500D01*
G75*
G02*
X129875000Y-102612499I0J-249999D01*
G01*
X129875000Y-103412501D01*
G75*
G02*
X129625001Y-103662500I-249999J0D01*
G01*
X128374999Y-103662500D01*
G75*
G02*
X128125000Y-103412501I0J249999D01*
G01*
X128125000Y-102612499D01*
G75*
G02*
X128374999Y-102362500I249999J0D01*
G01*
G37*
G04 #@! TD.AperFunction*
G04 #@! TA.AperFunction,SMDPad,CuDef*
G36*
G01*
X128374999Y-99262500D02*
X129625001Y-99262500D01*
G75*
G02*
X129875000Y-99512499I0J-249999D01*
G01*
X129875000Y-100312501D01*
G75*
G02*
X129625001Y-100562500I-249999J0D01*
G01*
X128374999Y-100562500D01*
G75*
G02*
X128125000Y-100312501I0J249999D01*
G01*
X128125000Y-99512499D01*
G75*
G02*
X128374999Y-99262500I249999J0D01*
G01*
G37*
G04 #@! TD.AperFunction*
G04 #@! TA.AperFunction,SMDPad,CuDef*
G36*
G01*
X127625001Y-95562500D02*
X126374999Y-95562500D01*
G75*
G02*
X126125000Y-95312501I0J249999D01*
G01*
X126125000Y-94512499D01*
G75*
G02*
X126374999Y-94262500I249999J0D01*
G01*
X127625001Y-94262500D01*
G75*
G02*
X127875000Y-94512499I0J-249999D01*
G01*
X127875000Y-95312501D01*
G75*
G02*
X127625001Y-95562500I-249999J0D01*
G01*
G37*
G04 #@! TD.AperFunction*
G04 #@! TA.AperFunction,SMDPad,CuDef*
G36*
G01*
X127625001Y-98662500D02*
X126374999Y-98662500D01*
G75*
G02*
X126125000Y-98412501I0J249999D01*
G01*
X126125000Y-97612499D01*
G75*
G02*
X126374999Y-97362500I249999J0D01*
G01*
X127625001Y-97362500D01*
G75*
G02*
X127875000Y-97612499I0J-249999D01*
G01*
X127875000Y-98412501D01*
G75*
G02*
X127625001Y-98662500I-249999J0D01*
G01*
G37*
G04 #@! TD.AperFunction*
G04 #@! TA.AperFunction,SMDPad,CuDef*
G36*
G01*
X144300000Y-103774999D02*
X144300000Y-105025001D01*
G75*
G02*
X144050001Y-105275000I-249999J0D01*
G01*
X143249999Y-105275000D01*
G75*
G02*
X143000000Y-105025001I0J249999D01*
G01*
X143000000Y-103774999D01*
G75*
G02*
X143249999Y-103525000I249999J0D01*
G01*
X144050001Y-103525000D01*
G75*
G02*
X144300000Y-103774999I0J-249999D01*
G01*
G37*
G04 #@! TD.AperFunction*
G04 #@! TA.AperFunction,SMDPad,CuDef*
G36*
G01*
X147400000Y-103774999D02*
X147400000Y-105025001D01*
G75*
G02*
X147150001Y-105275000I-249999J0D01*
G01*
X146349999Y-105275000D01*
G75*
G02*
X146100000Y-105025001I0J249999D01*
G01*
X146100000Y-103774999D01*
G75*
G02*
X146349999Y-103525000I249999J0D01*
G01*
X147150001Y-103525000D01*
G75*
G02*
X147400000Y-103774999I0J-249999D01*
G01*
G37*
G04 #@! TD.AperFunction*
G04 #@! TA.AperFunction,SMDPad,CuDef*
G36*
G01*
X159600000Y-76524999D02*
X159600000Y-77775001D01*
G75*
G02*
X159350001Y-78025000I-249999J0D01*
G01*
X158549999Y-78025000D01*
G75*
G02*
X158300000Y-77775001I0J249999D01*
G01*
X158300000Y-76524999D01*
G75*
G02*
X158549999Y-76275000I249999J0D01*
G01*
X159350001Y-76275000D01*
G75*
G02*
X159600000Y-76524999I0J-249999D01*
G01*
G37*
G04 #@! TD.AperFunction*
G04 #@! TA.AperFunction,SMDPad,CuDef*
G36*
G01*
X162700000Y-76524999D02*
X162700000Y-77775001D01*
G75*
G02*
X162450001Y-78025000I-249999J0D01*
G01*
X161649999Y-78025000D01*
G75*
G02*
X161400000Y-77775001I0J249999D01*
G01*
X161400000Y-76524999D01*
G75*
G02*
X161649999Y-76275000I249999J0D01*
G01*
X162450001Y-76275000D01*
G75*
G02*
X162700000Y-76524999I0J-249999D01*
G01*
G37*
G04 #@! TD.AperFunction*
G04 #@! TA.AperFunction,SMDPad,CuDef*
G36*
G01*
X168874999Y-80400000D02*
X170125001Y-80400000D01*
G75*
G02*
X170375000Y-80649999I0J-249999D01*
G01*
X170375000Y-81450001D01*
G75*
G02*
X170125001Y-81700000I-249999J0D01*
G01*
X168874999Y-81700000D01*
G75*
G02*
X168625000Y-81450001I0J249999D01*
G01*
X168625000Y-80649999D01*
G75*
G02*
X168874999Y-80400000I249999J0D01*
G01*
G37*
G04 #@! TD.AperFunction*
G04 #@! TA.AperFunction,SMDPad,CuDef*
G36*
G01*
X168874999Y-77300000D02*
X170125001Y-77300000D01*
G75*
G02*
X170375000Y-77549999I0J-249999D01*
G01*
X170375000Y-78350001D01*
G75*
G02*
X170125001Y-78600000I-249999J0D01*
G01*
X168874999Y-78600000D01*
G75*
G02*
X168625000Y-78350001I0J249999D01*
G01*
X168625000Y-77549999D01*
G75*
G02*
X168874999Y-77300000I249999J0D01*
G01*
G37*
G04 #@! TD.AperFunction*
G04 #@! TA.AperFunction,SMDPad,CuDef*
G36*
G01*
X161400000Y-81875001D02*
X161400000Y-80624999D01*
G75*
G02*
X161649999Y-80375000I249999J0D01*
G01*
X162450001Y-80375000D01*
G75*
G02*
X162700000Y-80624999I0J-249999D01*
G01*
X162700000Y-81875001D01*
G75*
G02*
X162450001Y-82125000I-249999J0D01*
G01*
X161649999Y-82125000D01*
G75*
G02*
X161400000Y-81875001I0J249999D01*
G01*
G37*
G04 #@! TD.AperFunction*
G04 #@! TA.AperFunction,SMDPad,CuDef*
G36*
G01*
X158300000Y-81875001D02*
X158300000Y-80624999D01*
G75*
G02*
X158549999Y-80375000I249999J0D01*
G01*
X159350001Y-80375000D01*
G75*
G02*
X159600000Y-80624999I0J-249999D01*
G01*
X159600000Y-81875001D01*
G75*
G02*
X159350001Y-82125000I-249999J0D01*
G01*
X158549999Y-82125000D01*
G75*
G02*
X158300000Y-81875001I0J249999D01*
G01*
G37*
G04 #@! TD.AperFunction*
G04 #@! TA.AperFunction,SMDPad,CuDef*
G36*
G01*
X167900000Y-99374999D02*
X167900000Y-100625001D01*
G75*
G02*
X167650001Y-100875000I-249999J0D01*
G01*
X166849999Y-100875000D01*
G75*
G02*
X166600000Y-100625001I0J249999D01*
G01*
X166600000Y-99374999D01*
G75*
G02*
X166849999Y-99125000I249999J0D01*
G01*
X167650001Y-99125000D01*
G75*
G02*
X167900000Y-99374999I0J-249999D01*
G01*
G37*
G04 #@! TD.AperFunction*
G04 #@! TA.AperFunction,SMDPad,CuDef*
G36*
G01*
X171000000Y-99374999D02*
X171000000Y-100625001D01*
G75*
G02*
X170750001Y-100875000I-249999J0D01*
G01*
X169949999Y-100875000D01*
G75*
G02*
X169700000Y-100625001I0J249999D01*
G01*
X169700000Y-99374999D01*
G75*
G02*
X169949999Y-99125000I249999J0D01*
G01*
X170750001Y-99125000D01*
G75*
G02*
X171000000Y-99374999I0J-249999D01*
G01*
G37*
G04 #@! TD.AperFunction*
G04 #@! TA.AperFunction,SMDPad,CuDef*
G36*
G01*
X144300000Y-106249998D02*
X144300000Y-107550002D01*
G75*
G02*
X144050002Y-107800000I-249998J0D01*
G01*
X143224998Y-107800000D01*
G75*
G02*
X142975000Y-107550002I0J249998D01*
G01*
X142975000Y-106249998D01*
G75*
G02*
X143224998Y-106000000I249998J0D01*
G01*
X144050002Y-106000000D01*
G75*
G02*
X144300000Y-106249998I0J-249998D01*
G01*
G37*
G04 #@! TD.AperFunction*
G04 #@! TA.AperFunction,SMDPad,CuDef*
G36*
G01*
X147425000Y-106249998D02*
X147425000Y-107550002D01*
G75*
G02*
X147175002Y-107800000I-249998J0D01*
G01*
X146349998Y-107800000D01*
G75*
G02*
X146100000Y-107550002I0J249998D01*
G01*
X146100000Y-106249998D01*
G75*
G02*
X146349998Y-106000000I249998J0D01*
G01*
X147175002Y-106000000D01*
G75*
G02*
X147425000Y-106249998I0J-249998D01*
G01*
G37*
G04 #@! TD.AperFunction*
G04 #@! TA.AperFunction,SMDPad,CuDef*
G36*
G01*
X133922500Y-65850002D02*
X133922500Y-64549998D01*
G75*
G02*
X134172498Y-64300000I249998J0D01*
G01*
X134997502Y-64300000D01*
G75*
G02*
X135247500Y-64549998I0J-249998D01*
G01*
X135247500Y-65850002D01*
G75*
G02*
X134997502Y-66100000I-249998J0D01*
G01*
X134172498Y-66100000D01*
G75*
G02*
X133922500Y-65850002I0J249998D01*
G01*
G37*
G04 #@! TD.AperFunction*
G04 #@! TA.AperFunction,SMDPad,CuDef*
G36*
G01*
X130797500Y-65850002D02*
X130797500Y-64549998D01*
G75*
G02*
X131047498Y-64300000I249998J0D01*
G01*
X131872502Y-64300000D01*
G75*
G02*
X132122500Y-64549998I0J-249998D01*
G01*
X132122500Y-65850002D01*
G75*
G02*
X131872502Y-66100000I-249998J0D01*
G01*
X131047498Y-66100000D01*
G75*
G02*
X130797500Y-65850002I0J249998D01*
G01*
G37*
G04 #@! TD.AperFunction*
G04 #@! TA.AperFunction,SMDPad,CuDef*
G36*
G01*
X133875000Y-61150002D02*
X133875000Y-59849998D01*
G75*
G02*
X134124998Y-59600000I249998J0D01*
G01*
X134950002Y-59600000D01*
G75*
G02*
X135200000Y-59849998I0J-249998D01*
G01*
X135200000Y-61150002D01*
G75*
G02*
X134950002Y-61400000I-249998J0D01*
G01*
X134124998Y-61400000D01*
G75*
G02*
X133875000Y-61150002I0J249998D01*
G01*
G37*
G04 #@! TD.AperFunction*
G04 #@! TA.AperFunction,SMDPad,CuDef*
G36*
G01*
X130750000Y-61150002D02*
X130750000Y-59849998D01*
G75*
G02*
X130999998Y-59600000I249998J0D01*
G01*
X131825002Y-59600000D01*
G75*
G02*
X132075000Y-59849998I0J-249998D01*
G01*
X132075000Y-61150002D01*
G75*
G02*
X131825002Y-61400000I-249998J0D01*
G01*
X130999998Y-61400000D01*
G75*
G02*
X130750000Y-61150002I0J249998D01*
G01*
G37*
G04 #@! TD.AperFunction*
G04 #@! TA.AperFunction,SMDPad,CuDef*
G36*
G01*
X123625000Y-112349998D02*
X123625000Y-113650002D01*
G75*
G02*
X123375002Y-113900000I-249998J0D01*
G01*
X122549998Y-113900000D01*
G75*
G02*
X122300000Y-113650002I0J249998D01*
G01*
X122300000Y-112349998D01*
G75*
G02*
X122549998Y-112100000I249998J0D01*
G01*
X123375002Y-112100000D01*
G75*
G02*
X123625000Y-112349998I0J-249998D01*
G01*
G37*
G04 #@! TD.AperFunction*
G04 #@! TA.AperFunction,SMDPad,CuDef*
G36*
G01*
X126750000Y-112349998D02*
X126750000Y-113650002D01*
G75*
G02*
X126500002Y-113900000I-249998J0D01*
G01*
X125674998Y-113900000D01*
G75*
G02*
X125425000Y-113650002I0J249998D01*
G01*
X125425000Y-112349998D01*
G75*
G02*
X125674998Y-112100000I249998J0D01*
G01*
X126500002Y-112100000D01*
G75*
G02*
X126750000Y-112349998I0J-249998D01*
G01*
G37*
G04 #@! TD.AperFunction*
G04 #@! TA.AperFunction,SMDPad,CuDef*
G36*
G01*
X127075000Y-89849998D02*
X127075000Y-91150002D01*
G75*
G02*
X126825002Y-91400000I-249998J0D01*
G01*
X125999998Y-91400000D01*
G75*
G02*
X125750000Y-91150002I0J249998D01*
G01*
X125750000Y-89849998D01*
G75*
G02*
X125999998Y-89600000I249998J0D01*
G01*
X126825002Y-89600000D01*
G75*
G02*
X127075000Y-89849998I0J-249998D01*
G01*
G37*
G04 #@! TD.AperFunction*
G04 #@! TA.AperFunction,SMDPad,CuDef*
G36*
G01*
X130200000Y-89849998D02*
X130200000Y-91150002D01*
G75*
G02*
X129950002Y-91400000I-249998J0D01*
G01*
X129124998Y-91400000D01*
G75*
G02*
X128875000Y-91150002I0J249998D01*
G01*
X128875000Y-89849998D01*
G75*
G02*
X129124998Y-89600000I249998J0D01*
G01*
X129950002Y-89600000D01*
G75*
G02*
X130200000Y-89849998I0J-249998D01*
G01*
G37*
G04 #@! TD.AperFunction*
D12*
X143576060Y-98814609D03*
X148000000Y-100000000D03*
X152423940Y-81185391D03*
X148000000Y-80000000D03*
X138500000Y-92280000D03*
X138500000Y-87700000D03*
X157500000Y-87900000D03*
X157500000Y-92480000D03*
D13*
X160000000Y-70350000D03*
D14*
X161300000Y-74300000D03*
X158700000Y-74300000D03*
D12*
X165750000Y-76150000D03*
X129000000Y-106500000D03*
G04 #@! TA.AperFunction,SMDPad,CuDef*
D15*
G36*
X166449398Y-80950000D02*
G01*
X166449398Y-80974534D01*
X166444588Y-81023365D01*
X166435016Y-81071490D01*
X166420772Y-81118445D01*
X166401995Y-81163778D01*
X166378864Y-81207051D01*
X166351604Y-81247850D01*
X166320476Y-81285779D01*
X166285779Y-81320476D01*
X166247850Y-81351604D01*
X166207051Y-81378864D01*
X166163778Y-81401995D01*
X166118445Y-81420772D01*
X166071490Y-81435016D01*
X166023365Y-81444588D01*
X165974534Y-81449398D01*
X165950000Y-81449398D01*
X165950000Y-81450000D01*
X165450000Y-81450000D01*
X165450000Y-81449398D01*
X165425466Y-81449398D01*
X165376635Y-81444588D01*
X165328510Y-81435016D01*
X165281555Y-81420772D01*
X165236222Y-81401995D01*
X165192949Y-81378864D01*
X165152150Y-81351604D01*
X165114221Y-81320476D01*
X165079524Y-81285779D01*
X165048396Y-81247850D01*
X165021136Y-81207051D01*
X164998005Y-81163778D01*
X164979228Y-81118445D01*
X164964984Y-81071490D01*
X164955412Y-81023365D01*
X164950602Y-80974534D01*
X164950602Y-80950000D01*
X164950000Y-80950000D01*
X164950000Y-80450000D01*
X166450000Y-80450000D01*
X166450000Y-80950000D01*
X166449398Y-80950000D01*
G37*
G04 #@! TD.AperFunction*
G04 #@! TA.AperFunction,SMDPad,CuDef*
G36*
X164950000Y-80150000D02*
G01*
X164950000Y-79650000D01*
X164950602Y-79650000D01*
X164950602Y-79625466D01*
X164955412Y-79576635D01*
X164964984Y-79528510D01*
X164979228Y-79481555D01*
X164998005Y-79436222D01*
X165021136Y-79392949D01*
X165048396Y-79352150D01*
X165079524Y-79314221D01*
X165114221Y-79279524D01*
X165152150Y-79248396D01*
X165192949Y-79221136D01*
X165236222Y-79198005D01*
X165281555Y-79179228D01*
X165328510Y-79164984D01*
X165376635Y-79155412D01*
X165425466Y-79150602D01*
X165450000Y-79150602D01*
X165450000Y-79150000D01*
X165950000Y-79150000D01*
X165950000Y-79150602D01*
X165974534Y-79150602D01*
X166023365Y-79155412D01*
X166071490Y-79164984D01*
X166118445Y-79179228D01*
X166163778Y-79198005D01*
X166207051Y-79221136D01*
X166247850Y-79248396D01*
X166285779Y-79279524D01*
X166320476Y-79314221D01*
X166351604Y-79352150D01*
X166378864Y-79392949D01*
X166401995Y-79436222D01*
X166420772Y-79481555D01*
X166435016Y-79528510D01*
X166444588Y-79576635D01*
X166449398Y-79625466D01*
X166449398Y-79650000D01*
X166450000Y-79650000D01*
X166450000Y-80150000D01*
X164950000Y-80150000D01*
G37*
G04 #@! TD.AperFunction*
G04 #@! TA.AperFunction,SMDPad,CuDef*
G36*
X160250602Y-96650000D02*
G01*
X160250602Y-96625466D01*
X160255412Y-96576635D01*
X160264984Y-96528510D01*
X160279228Y-96481555D01*
X160298005Y-96436222D01*
X160321136Y-96392949D01*
X160348396Y-96352150D01*
X160379524Y-96314221D01*
X160414221Y-96279524D01*
X160452150Y-96248396D01*
X160492949Y-96221136D01*
X160536222Y-96198005D01*
X160581555Y-96179228D01*
X160628510Y-96164984D01*
X160676635Y-96155412D01*
X160725466Y-96150602D01*
X160750000Y-96150602D01*
X160750000Y-96150000D01*
X161250000Y-96150000D01*
X161250000Y-96150602D01*
X161274534Y-96150602D01*
X161323365Y-96155412D01*
X161371490Y-96164984D01*
X161418445Y-96179228D01*
X161463778Y-96198005D01*
X161507051Y-96221136D01*
X161547850Y-96248396D01*
X161585779Y-96279524D01*
X161620476Y-96314221D01*
X161651604Y-96352150D01*
X161678864Y-96392949D01*
X161701995Y-96436222D01*
X161720772Y-96481555D01*
X161735016Y-96528510D01*
X161744588Y-96576635D01*
X161749398Y-96625466D01*
X161749398Y-96650000D01*
X161750000Y-96650000D01*
X161750000Y-97150000D01*
X160250000Y-97150000D01*
X160250000Y-96650000D01*
X160250602Y-96650000D01*
G37*
G04 #@! TD.AperFunction*
G04 #@! TA.AperFunction,SMDPad,CuDef*
G36*
X161750000Y-97450000D02*
G01*
X161750000Y-97950000D01*
X161749398Y-97950000D01*
X161749398Y-97974534D01*
X161744588Y-98023365D01*
X161735016Y-98071490D01*
X161720772Y-98118445D01*
X161701995Y-98163778D01*
X161678864Y-98207051D01*
X161651604Y-98247850D01*
X161620476Y-98285779D01*
X161585779Y-98320476D01*
X161547850Y-98351604D01*
X161507051Y-98378864D01*
X161463778Y-98401995D01*
X161418445Y-98420772D01*
X161371490Y-98435016D01*
X161323365Y-98444588D01*
X161274534Y-98449398D01*
X161250000Y-98449398D01*
X161250000Y-98450000D01*
X160750000Y-98450000D01*
X160750000Y-98449398D01*
X160725466Y-98449398D01*
X160676635Y-98444588D01*
X160628510Y-98435016D01*
X160581555Y-98420772D01*
X160536222Y-98401995D01*
X160492949Y-98378864D01*
X160452150Y-98351604D01*
X160414221Y-98320476D01*
X160379524Y-98285779D01*
X160348396Y-98247850D01*
X160321136Y-98207051D01*
X160298005Y-98163778D01*
X160279228Y-98118445D01*
X160264984Y-98071490D01*
X160255412Y-98023365D01*
X160250602Y-97974534D01*
X160250602Y-97950000D01*
X160250000Y-97950000D01*
X160250000Y-97450000D01*
X161750000Y-97450000D01*
G37*
G04 #@! TD.AperFunction*
G04 #@! TA.AperFunction,SMDPad,CuDef*
G36*
X142750602Y-111350000D02*
G01*
X142750602Y-111325466D01*
X142755412Y-111276635D01*
X142764984Y-111228510D01*
X142779228Y-111181555D01*
X142798005Y-111136222D01*
X142821136Y-111092949D01*
X142848396Y-111052150D01*
X142879524Y-111014221D01*
X142914221Y-110979524D01*
X142952150Y-110948396D01*
X142992949Y-110921136D01*
X143036222Y-110898005D01*
X143081555Y-110879228D01*
X143128510Y-110864984D01*
X143176635Y-110855412D01*
X143225466Y-110850602D01*
X143250000Y-110850602D01*
X143250000Y-110850000D01*
X143750000Y-110850000D01*
X143750000Y-110850602D01*
X143774534Y-110850602D01*
X143823365Y-110855412D01*
X143871490Y-110864984D01*
X143918445Y-110879228D01*
X143963778Y-110898005D01*
X144007051Y-110921136D01*
X144047850Y-110948396D01*
X144085779Y-110979524D01*
X144120476Y-111014221D01*
X144151604Y-111052150D01*
X144178864Y-111092949D01*
X144201995Y-111136222D01*
X144220772Y-111181555D01*
X144235016Y-111228510D01*
X144244588Y-111276635D01*
X144249398Y-111325466D01*
X144249398Y-111350000D01*
X144250000Y-111350000D01*
X144250000Y-111850000D01*
X142750000Y-111850000D01*
X142750000Y-111350000D01*
X142750602Y-111350000D01*
G37*
G04 #@! TD.AperFunction*
G04 #@! TA.AperFunction,SMDPad,CuDef*
G36*
X144250000Y-112150000D02*
G01*
X144250000Y-112650000D01*
X144249398Y-112650000D01*
X144249398Y-112674534D01*
X144244588Y-112723365D01*
X144235016Y-112771490D01*
X144220772Y-112818445D01*
X144201995Y-112863778D01*
X144178864Y-112907051D01*
X144151604Y-112947850D01*
X144120476Y-112985779D01*
X144085779Y-113020476D01*
X144047850Y-113051604D01*
X144007051Y-113078864D01*
X143963778Y-113101995D01*
X143918445Y-113120772D01*
X143871490Y-113135016D01*
X143823365Y-113144588D01*
X143774534Y-113149398D01*
X143750000Y-113149398D01*
X143750000Y-113150000D01*
X143250000Y-113150000D01*
X143250000Y-113149398D01*
X143225466Y-113149398D01*
X143176635Y-113144588D01*
X143128510Y-113135016D01*
X143081555Y-113120772D01*
X143036222Y-113101995D01*
X142992949Y-113078864D01*
X142952150Y-113051604D01*
X142914221Y-113020476D01*
X142879524Y-112985779D01*
X142848396Y-112947850D01*
X142821136Y-112907051D01*
X142798005Y-112863778D01*
X142779228Y-112818445D01*
X142764984Y-112771490D01*
X142755412Y-112723365D01*
X142750602Y-112674534D01*
X142750602Y-112650000D01*
X142750000Y-112650000D01*
X142750000Y-112150000D01*
X144250000Y-112150000D01*
G37*
G04 #@! TD.AperFunction*
D16*
X149440000Y-56500000D03*
X146900000Y-56500000D03*
X144360000Y-56500000D03*
X141820000Y-56500000D03*
X139280000Y-56500000D03*
X136740000Y-56500000D03*
X134200000Y-56500000D03*
X131660000Y-56500000D03*
X129120000Y-56500000D03*
X126580000Y-56500000D03*
X124040000Y-56500000D03*
D17*
X121500000Y-56500000D03*
G04 #@! TA.AperFunction,SMDPad,CuDef*
G36*
G01*
X162190000Y-85487500D02*
X161890000Y-85487500D01*
G75*
G02*
X161740000Y-85337500I0J150000D01*
G01*
X161740000Y-83662500D01*
G75*
G02*
X161890000Y-83512500I150000J0D01*
G01*
X162190000Y-83512500D01*
G75*
G02*
X162340000Y-83662500I0J-150000D01*
G01*
X162340000Y-85337500D01*
G75*
G02*
X162190000Y-85487500I-150000J0D01*
G01*
G37*
G04 #@! TD.AperFunction*
G04 #@! TA.AperFunction,SMDPad,CuDef*
G36*
G01*
X163460000Y-85487500D02*
X163160000Y-85487500D01*
G75*
G02*
X163010000Y-85337500I0J150000D01*
G01*
X163010000Y-83662500D01*
G75*
G02*
X163160000Y-83512500I150000J0D01*
G01*
X163460000Y-83512500D01*
G75*
G02*
X163610000Y-83662500I0J-150000D01*
G01*
X163610000Y-85337500D01*
G75*
G02*
X163460000Y-85487500I-150000J0D01*
G01*
G37*
G04 #@! TD.AperFunction*
G04 #@! TA.AperFunction,SMDPad,CuDef*
G36*
G01*
X164730000Y-85487500D02*
X164430000Y-85487500D01*
G75*
G02*
X164280000Y-85337500I0J150000D01*
G01*
X164280000Y-83662500D01*
G75*
G02*
X164430000Y-83512500I150000J0D01*
G01*
X164730000Y-83512500D01*
G75*
G02*
X164880000Y-83662500I0J-150000D01*
G01*
X164880000Y-85337500D01*
G75*
G02*
X164730000Y-85487500I-150000J0D01*
G01*
G37*
G04 #@! TD.AperFunction*
G04 #@! TA.AperFunction,SMDPad,CuDef*
G36*
G01*
X166000000Y-85487500D02*
X165700000Y-85487500D01*
G75*
G02*
X165550000Y-85337500I0J150000D01*
G01*
X165550000Y-83662500D01*
G75*
G02*
X165700000Y-83512500I150000J0D01*
G01*
X166000000Y-83512500D01*
G75*
G02*
X166150000Y-83662500I0J-150000D01*
G01*
X166150000Y-85337500D01*
G75*
G02*
X166000000Y-85487500I-150000J0D01*
G01*
G37*
G04 #@! TD.AperFunction*
G04 #@! TA.AperFunction,SMDPad,CuDef*
G36*
G01*
X167270000Y-85487500D02*
X166970000Y-85487500D01*
G75*
G02*
X166820000Y-85337500I0J150000D01*
G01*
X166820000Y-83662500D01*
G75*
G02*
X166970000Y-83512500I150000J0D01*
G01*
X167270000Y-83512500D01*
G75*
G02*
X167420000Y-83662500I0J-150000D01*
G01*
X167420000Y-85337500D01*
G75*
G02*
X167270000Y-85487500I-150000J0D01*
G01*
G37*
G04 #@! TD.AperFunction*
G04 #@! TA.AperFunction,SMDPad,CuDef*
G36*
G01*
X168540000Y-85487500D02*
X168240000Y-85487500D01*
G75*
G02*
X168090000Y-85337500I0J150000D01*
G01*
X168090000Y-83662500D01*
G75*
G02*
X168240000Y-83512500I150000J0D01*
G01*
X168540000Y-83512500D01*
G75*
G02*
X168690000Y-83662500I0J-150000D01*
G01*
X168690000Y-85337500D01*
G75*
G02*
X168540000Y-85487500I-150000J0D01*
G01*
G37*
G04 #@! TD.AperFunction*
G04 #@! TA.AperFunction,SMDPad,CuDef*
G36*
G01*
X169810000Y-85487500D02*
X169510000Y-85487500D01*
G75*
G02*
X169360000Y-85337500I0J150000D01*
G01*
X169360000Y-83662500D01*
G75*
G02*
X169510000Y-83512500I150000J0D01*
G01*
X169810000Y-83512500D01*
G75*
G02*
X169960000Y-83662500I0J-150000D01*
G01*
X169960000Y-85337500D01*
G75*
G02*
X169810000Y-85487500I-150000J0D01*
G01*
G37*
G04 #@! TD.AperFunction*
G04 #@! TA.AperFunction,SMDPad,CuDef*
G36*
G01*
X169810000Y-92412500D02*
X169510000Y-92412500D01*
G75*
G02*
X169360000Y-92262500I0J150000D01*
G01*
X169360000Y-90587500D01*
G75*
G02*
X169510000Y-90437500I150000J0D01*
G01*
X169810000Y-90437500D01*
G75*
G02*
X169960000Y-90587500I0J-150000D01*
G01*
X169960000Y-92262500D01*
G75*
G02*
X169810000Y-92412500I-150000J0D01*
G01*
G37*
G04 #@! TD.AperFunction*
G04 #@! TA.AperFunction,SMDPad,CuDef*
G36*
G01*
X168540000Y-92412500D02*
X168240000Y-92412500D01*
G75*
G02*
X168090000Y-92262500I0J150000D01*
G01*
X168090000Y-90587500D01*
G75*
G02*
X168240000Y-90437500I150000J0D01*
G01*
X168540000Y-90437500D01*
G75*
G02*
X168690000Y-90587500I0J-150000D01*
G01*
X168690000Y-92262500D01*
G75*
G02*
X168540000Y-92412500I-150000J0D01*
G01*
G37*
G04 #@! TD.AperFunction*
G04 #@! TA.AperFunction,SMDPad,CuDef*
G36*
G01*
X167270000Y-92412500D02*
X166970000Y-92412500D01*
G75*
G02*
X166820000Y-92262500I0J150000D01*
G01*
X166820000Y-90587500D01*
G75*
G02*
X166970000Y-90437500I150000J0D01*
G01*
X167270000Y-90437500D01*
G75*
G02*
X167420000Y-90587500I0J-150000D01*
G01*
X167420000Y-92262500D01*
G75*
G02*
X167270000Y-92412500I-150000J0D01*
G01*
G37*
G04 #@! TD.AperFunction*
G04 #@! TA.AperFunction,SMDPad,CuDef*
G36*
G01*
X166000000Y-92412500D02*
X165700000Y-92412500D01*
G75*
G02*
X165550000Y-92262500I0J150000D01*
G01*
X165550000Y-90587500D01*
G75*
G02*
X165700000Y-90437500I150000J0D01*
G01*
X166000000Y-90437500D01*
G75*
G02*
X166150000Y-90587500I0J-150000D01*
G01*
X166150000Y-92262500D01*
G75*
G02*
X166000000Y-92412500I-150000J0D01*
G01*
G37*
G04 #@! TD.AperFunction*
G04 #@! TA.AperFunction,SMDPad,CuDef*
G36*
G01*
X164730000Y-92412500D02*
X164430000Y-92412500D01*
G75*
G02*
X164280000Y-92262500I0J150000D01*
G01*
X164280000Y-90587500D01*
G75*
G02*
X164430000Y-90437500I150000J0D01*
G01*
X164730000Y-90437500D01*
G75*
G02*
X164880000Y-90587500I0J-150000D01*
G01*
X164880000Y-92262500D01*
G75*
G02*
X164730000Y-92412500I-150000J0D01*
G01*
G37*
G04 #@! TD.AperFunction*
G04 #@! TA.AperFunction,SMDPad,CuDef*
G36*
G01*
X163460000Y-92412500D02*
X163160000Y-92412500D01*
G75*
G02*
X163010000Y-92262500I0J150000D01*
G01*
X163010000Y-90587500D01*
G75*
G02*
X163160000Y-90437500I150000J0D01*
G01*
X163460000Y-90437500D01*
G75*
G02*
X163610000Y-90587500I0J-150000D01*
G01*
X163610000Y-92262500D01*
G75*
G02*
X163460000Y-92412500I-150000J0D01*
G01*
G37*
G04 #@! TD.AperFunction*
G04 #@! TA.AperFunction,SMDPad,CuDef*
G36*
G01*
X162190000Y-92412500D02*
X161890000Y-92412500D01*
G75*
G02*
X161740000Y-92262500I0J150000D01*
G01*
X161740000Y-90587500D01*
G75*
G02*
X161890000Y-90437500I150000J0D01*
G01*
X162190000Y-90437500D01*
G75*
G02*
X162340000Y-90587500I0J-150000D01*
G01*
X162340000Y-92262500D01*
G75*
G02*
X162190000Y-92412500I-150000J0D01*
G01*
G37*
G04 #@! TD.AperFunction*
G04 #@! TA.AperFunction,SMDPad,CuDef*
G36*
G01*
X138437500Y-103760000D02*
X138437500Y-103460000D01*
G75*
G02*
X138587500Y-103310000I150000J0D01*
G01*
X140262500Y-103310000D01*
G75*
G02*
X140412500Y-103460000I0J-150000D01*
G01*
X140412500Y-103760000D01*
G75*
G02*
X140262500Y-103910000I-150000J0D01*
G01*
X138587500Y-103910000D01*
G75*
G02*
X138437500Y-103760000I0J150000D01*
G01*
G37*
G04 #@! TD.AperFunction*
G04 #@! TA.AperFunction,SMDPad,CuDef*
G36*
G01*
X138437500Y-105030000D02*
X138437500Y-104730000D01*
G75*
G02*
X138587500Y-104580000I150000J0D01*
G01*
X140262500Y-104580000D01*
G75*
G02*
X140412500Y-104730000I0J-150000D01*
G01*
X140412500Y-105030000D01*
G75*
G02*
X140262500Y-105180000I-150000J0D01*
G01*
X138587500Y-105180000D01*
G75*
G02*
X138437500Y-105030000I0J150000D01*
G01*
G37*
G04 #@! TD.AperFunction*
G04 #@! TA.AperFunction,SMDPad,CuDef*
G36*
G01*
X138437500Y-106300000D02*
X138437500Y-106000000D01*
G75*
G02*
X138587500Y-105850000I150000J0D01*
G01*
X140262500Y-105850000D01*
G75*
G02*
X140412500Y-106000000I0J-150000D01*
G01*
X140412500Y-106300000D01*
G75*
G02*
X140262500Y-106450000I-150000J0D01*
G01*
X138587500Y-106450000D01*
G75*
G02*
X138437500Y-106300000I0J150000D01*
G01*
G37*
G04 #@! TD.AperFunction*
G04 #@! TA.AperFunction,SMDPad,CuDef*
G36*
G01*
X138437500Y-107570000D02*
X138437500Y-107270000D01*
G75*
G02*
X138587500Y-107120000I150000J0D01*
G01*
X140262500Y-107120000D01*
G75*
G02*
X140412500Y-107270000I0J-150000D01*
G01*
X140412500Y-107570000D01*
G75*
G02*
X140262500Y-107720000I-150000J0D01*
G01*
X138587500Y-107720000D01*
G75*
G02*
X138437500Y-107570000I0J150000D01*
G01*
G37*
G04 #@! TD.AperFunction*
G04 #@! TA.AperFunction,SMDPad,CuDef*
G36*
G01*
X138437500Y-108840000D02*
X138437500Y-108540000D01*
G75*
G02*
X138587500Y-108390000I150000J0D01*
G01*
X140262500Y-108390000D01*
G75*
G02*
X140412500Y-108540000I0J-150000D01*
G01*
X140412500Y-108840000D01*
G75*
G02*
X140262500Y-108990000I-150000J0D01*
G01*
X138587500Y-108990000D01*
G75*
G02*
X138437500Y-108840000I0J150000D01*
G01*
G37*
G04 #@! TD.AperFunction*
G04 #@! TA.AperFunction,SMDPad,CuDef*
G36*
G01*
X138437500Y-110110000D02*
X138437500Y-109810000D01*
G75*
G02*
X138587500Y-109660000I150000J0D01*
G01*
X140262500Y-109660000D01*
G75*
G02*
X140412500Y-109810000I0J-150000D01*
G01*
X140412500Y-110110000D01*
G75*
G02*
X140262500Y-110260000I-150000J0D01*
G01*
X138587500Y-110260000D01*
G75*
G02*
X138437500Y-110110000I0J150000D01*
G01*
G37*
G04 #@! TD.AperFunction*
G04 #@! TA.AperFunction,SMDPad,CuDef*
G36*
G01*
X138437500Y-111380000D02*
X138437500Y-111080000D01*
G75*
G02*
X138587500Y-110930000I150000J0D01*
G01*
X140262500Y-110930000D01*
G75*
G02*
X140412500Y-111080000I0J-150000D01*
G01*
X140412500Y-111380000D01*
G75*
G02*
X140262500Y-111530000I-150000J0D01*
G01*
X138587500Y-111530000D01*
G75*
G02*
X138437500Y-111380000I0J150000D01*
G01*
G37*
G04 #@! TD.AperFunction*
G04 #@! TA.AperFunction,SMDPad,CuDef*
G36*
G01*
X138437500Y-112650000D02*
X138437500Y-112350000D01*
G75*
G02*
X138587500Y-112200000I150000J0D01*
G01*
X140262500Y-112200000D01*
G75*
G02*
X140412500Y-112350000I0J-150000D01*
G01*
X140412500Y-112650000D01*
G75*
G02*
X140262500Y-112800000I-150000J0D01*
G01*
X138587500Y-112800000D01*
G75*
G02*
X138437500Y-112650000I0J150000D01*
G01*
G37*
G04 #@! TD.AperFunction*
G04 #@! TA.AperFunction,SMDPad,CuDef*
G36*
G01*
X131512500Y-112650000D02*
X131512500Y-112350000D01*
G75*
G02*
X131662500Y-112200000I150000J0D01*
G01*
X133337500Y-112200000D01*
G75*
G02*
X133487500Y-112350000I0J-150000D01*
G01*
X133487500Y-112650000D01*
G75*
G02*
X133337500Y-112800000I-150000J0D01*
G01*
X131662500Y-112800000D01*
G75*
G02*
X131512500Y-112650000I0J150000D01*
G01*
G37*
G04 #@! TD.AperFunction*
G04 #@! TA.AperFunction,SMDPad,CuDef*
G36*
G01*
X131512500Y-111380000D02*
X131512500Y-111080000D01*
G75*
G02*
X131662500Y-110930000I150000J0D01*
G01*
X133337500Y-110930000D01*
G75*
G02*
X133487500Y-111080000I0J-150000D01*
G01*
X133487500Y-111380000D01*
G75*
G02*
X133337500Y-111530000I-150000J0D01*
G01*
X131662500Y-111530000D01*
G75*
G02*
X131512500Y-111380000I0J150000D01*
G01*
G37*
G04 #@! TD.AperFunction*
G04 #@! TA.AperFunction,SMDPad,CuDef*
G36*
G01*
X131512500Y-110110000D02*
X131512500Y-109810000D01*
G75*
G02*
X131662500Y-109660000I150000J0D01*
G01*
X133337500Y-109660000D01*
G75*
G02*
X133487500Y-109810000I0J-150000D01*
G01*
X133487500Y-110110000D01*
G75*
G02*
X133337500Y-110260000I-150000J0D01*
G01*
X131662500Y-110260000D01*
G75*
G02*
X131512500Y-110110000I0J150000D01*
G01*
G37*
G04 #@! TD.AperFunction*
G04 #@! TA.AperFunction,SMDPad,CuDef*
G36*
G01*
X131512500Y-108840000D02*
X131512500Y-108540000D01*
G75*
G02*
X131662500Y-108390000I150000J0D01*
G01*
X133337500Y-108390000D01*
G75*
G02*
X133487500Y-108540000I0J-150000D01*
G01*
X133487500Y-108840000D01*
G75*
G02*
X133337500Y-108990000I-150000J0D01*
G01*
X131662500Y-108990000D01*
G75*
G02*
X131512500Y-108840000I0J150000D01*
G01*
G37*
G04 #@! TD.AperFunction*
G04 #@! TA.AperFunction,SMDPad,CuDef*
G36*
G01*
X131512500Y-107570000D02*
X131512500Y-107270000D01*
G75*
G02*
X131662500Y-107120000I150000J0D01*
G01*
X133337500Y-107120000D01*
G75*
G02*
X133487500Y-107270000I0J-150000D01*
G01*
X133487500Y-107570000D01*
G75*
G02*
X133337500Y-107720000I-150000J0D01*
G01*
X131662500Y-107720000D01*
G75*
G02*
X131512500Y-107570000I0J150000D01*
G01*
G37*
G04 #@! TD.AperFunction*
G04 #@! TA.AperFunction,SMDPad,CuDef*
G36*
G01*
X131512500Y-106300000D02*
X131512500Y-106000000D01*
G75*
G02*
X131662500Y-105850000I150000J0D01*
G01*
X133337500Y-105850000D01*
G75*
G02*
X133487500Y-106000000I0J-150000D01*
G01*
X133487500Y-106300000D01*
G75*
G02*
X133337500Y-106450000I-150000J0D01*
G01*
X131662500Y-106450000D01*
G75*
G02*
X131512500Y-106300000I0J150000D01*
G01*
G37*
G04 #@! TD.AperFunction*
G04 #@! TA.AperFunction,SMDPad,CuDef*
G36*
G01*
X131512500Y-105030000D02*
X131512500Y-104730000D01*
G75*
G02*
X131662500Y-104580000I150000J0D01*
G01*
X133337500Y-104580000D01*
G75*
G02*
X133487500Y-104730000I0J-150000D01*
G01*
X133487500Y-105030000D01*
G75*
G02*
X133337500Y-105180000I-150000J0D01*
G01*
X131662500Y-105180000D01*
G75*
G02*
X131512500Y-105030000I0J150000D01*
G01*
G37*
G04 #@! TD.AperFunction*
G04 #@! TA.AperFunction,SMDPad,CuDef*
G36*
G01*
X131512500Y-103760000D02*
X131512500Y-103460000D01*
G75*
G02*
X131662500Y-103310000I150000J0D01*
G01*
X133337500Y-103310000D01*
G75*
G02*
X133487500Y-103460000I0J-150000D01*
G01*
X133487500Y-103760000D01*
G75*
G02*
X133337500Y-103910000I-150000J0D01*
G01*
X131662500Y-103910000D01*
G75*
G02*
X131512500Y-103760000I0J150000D01*
G01*
G37*
G04 #@! TD.AperFunction*
G04 #@! TA.AperFunction,ComponentPad*
G36*
G01*
X133242641Y-71818019D02*
X133242641Y-71818019D01*
G75*
G02*
X132358757Y-71818019I-441942J441942D01*
G01*
X132181981Y-71641243D01*
G75*
G02*
X132181981Y-70757359I441942J441942D01*
G01*
X132181981Y-70757359D01*
G75*
G02*
X133065865Y-70757359I441942J-441942D01*
G01*
X133242641Y-70934135D01*
G75*
G02*
X133242641Y-71818019I-441942J-441942D01*
G01*
G37*
G04 #@! TD.AperFunction*
G04 #@! TA.AperFunction,ComponentPad*
G36*
G01*
X132005204Y-73055456D02*
X132005204Y-73055456D01*
G75*
G02*
X131121320Y-73055456I-441942J441942D01*
G01*
X130944544Y-72878680D01*
G75*
G02*
X130944544Y-71994796I441942J441942D01*
G01*
X130944544Y-71994796D01*
G75*
G02*
X131828428Y-71994796I441942J-441942D01*
G01*
X132005204Y-72171572D01*
G75*
G02*
X132005204Y-73055456I-441942J-441942D01*
G01*
G37*
G04 #@! TD.AperFunction*
G04 #@! TA.AperFunction,ComponentPad*
G36*
G01*
X130767767Y-74292893D02*
X130767767Y-74292893D01*
G75*
G02*
X129883883Y-74292893I-441942J441942D01*
G01*
X129707107Y-74116117D01*
G75*
G02*
X129707107Y-73232233I441942J441942D01*
G01*
X129707107Y-73232233D01*
G75*
G02*
X130590991Y-73232233I441942J-441942D01*
G01*
X130767767Y-73409009D01*
G75*
G02*
X130767767Y-74292893I-441942J-441942D01*
G01*
G37*
G04 #@! TD.AperFunction*
G04 #@! TA.AperFunction,ComponentPad*
D18*
G36*
X129972272Y-75088388D02*
G01*
X129088388Y-75972272D01*
X128027728Y-74911612D01*
X128911612Y-74027728D01*
X129972272Y-75088388D01*
G37*
G04 #@! TD.AperFunction*
G04 #@! TA.AperFunction,ComponentPad*
G36*
G01*
X141075079Y-67460984D02*
X141075079Y-67460984D01*
G75*
G02*
X140244501Y-67158678I-264136J566442D01*
G01*
X140138847Y-66932102D01*
G75*
G02*
X140441153Y-66101524I566442J264136D01*
G01*
X140441153Y-66101524D01*
G75*
G02*
X141271731Y-66403830I264136J-566442D01*
G01*
X141377385Y-66630406D01*
G75*
G02*
X141075079Y-67460984I-566442J-264136D01*
G01*
G37*
G04 #@! TD.AperFunction*
G04 #@! TA.AperFunction,ComponentPad*
G36*
G01*
X139489040Y-68200566D02*
X139489040Y-68200566D01*
G75*
G02*
X138658462Y-67898260I-264136J566442D01*
G01*
X138552808Y-67671684D01*
G75*
G02*
X138855114Y-66841106I566442J264136D01*
G01*
X138855114Y-66841106D01*
G75*
G02*
X139685692Y-67143412I264136J-566442D01*
G01*
X139791346Y-67369988D01*
G75*
G02*
X139489040Y-68200566I-566442J-264136D01*
G01*
G37*
G04 #@! TD.AperFunction*
G04 #@! TA.AperFunction,ComponentPad*
G36*
G01*
X137903002Y-68940148D02*
X137903002Y-68940148D01*
G75*
G02*
X137072424Y-68637842I-264136J566442D01*
G01*
X136966770Y-68411266D01*
G75*
G02*
X137269076Y-67580688I566442J264136D01*
G01*
X137269076Y-67580688D01*
G75*
G02*
X138099654Y-67882994I264136J-566442D01*
G01*
X138205308Y-68109570D01*
G75*
G02*
X137903002Y-68940148I-566442J-264136D01*
G01*
G37*
G04 #@! TD.AperFunction*
G04 #@! TA.AperFunction,ComponentPad*
G36*
X136883406Y-69415594D02*
G01*
X135750521Y-69943867D01*
X135116594Y-68584406D01*
X136249479Y-68056133D01*
X136883406Y-69415594D01*
G37*
G04 #@! TD.AperFunction*
G04 #@! TA.AperFunction,SMDPad,CuDef*
G36*
G01*
X130700000Y-82950000D02*
X130700000Y-84050000D01*
G75*
G02*
X130450000Y-84300000I-250000J0D01*
G01*
X128350000Y-84300000D01*
G75*
G02*
X128100000Y-84050000I0J250000D01*
G01*
X128100000Y-82950000D01*
G75*
G02*
X128350000Y-82700000I250000J0D01*
G01*
X130450000Y-82700000D01*
G75*
G02*
X130700000Y-82950000I0J-250000D01*
G01*
G37*
G04 #@! TD.AperFunction*
G04 #@! TA.AperFunction,SMDPad,CuDef*
G36*
G01*
X134300000Y-82950000D02*
X134300000Y-84050000D01*
G75*
G02*
X134050000Y-84300000I-250000J0D01*
G01*
X131950000Y-84300000D01*
G75*
G02*
X131700000Y-84050000I0J250000D01*
G01*
X131700000Y-82950000D01*
G75*
G02*
X131950000Y-82700000I250000J0D01*
G01*
X134050000Y-82700000D01*
G75*
G02*
X134300000Y-82950000I0J-250000D01*
G01*
G37*
G04 #@! TD.AperFunction*
G04 #@! TA.AperFunction,SMDPad,CuDef*
G36*
G01*
X148800000Y-72050000D02*
X148800000Y-70950000D01*
G75*
G02*
X149050000Y-70700000I250000J0D01*
G01*
X151150000Y-70700000D01*
G75*
G02*
X151400000Y-70950000I0J-250000D01*
G01*
X151400000Y-72050000D01*
G75*
G02*
X151150000Y-72300000I-250000J0D01*
G01*
X149050000Y-72300000D01*
G75*
G02*
X148800000Y-72050000I0J250000D01*
G01*
G37*
G04 #@! TD.AperFunction*
G04 #@! TA.AperFunction,SMDPad,CuDef*
G36*
G01*
X145200000Y-72050000D02*
X145200000Y-70950000D01*
G75*
G02*
X145450000Y-70700000I250000J0D01*
G01*
X147550000Y-70700000D01*
G75*
G02*
X147800000Y-70950000I0J-250000D01*
G01*
X147800000Y-72050000D01*
G75*
G02*
X147550000Y-72300000I-250000J0D01*
G01*
X145450000Y-72300000D01*
G75*
G02*
X145200000Y-72050000I0J250000D01*
G01*
G37*
G04 #@! TD.AperFunction*
G04 #@! TA.AperFunction,SMDPad,CuDef*
G36*
G01*
X123550000Y-64000000D02*
X122450000Y-64000000D01*
G75*
G02*
X122200000Y-63750000I0J250000D01*
G01*
X122200000Y-61650000D01*
G75*
G02*
X122450000Y-61400000I250000J0D01*
G01*
X123550000Y-61400000D01*
G75*
G02*
X123800000Y-61650000I0J-250000D01*
G01*
X123800000Y-63750000D01*
G75*
G02*
X123550000Y-64000000I-250000J0D01*
G01*
G37*
G04 #@! TD.AperFunction*
G04 #@! TA.AperFunction,SMDPad,CuDef*
G36*
G01*
X123550000Y-67600000D02*
X122450000Y-67600000D01*
G75*
G02*
X122200000Y-67350000I0J250000D01*
G01*
X122200000Y-65250000D01*
G75*
G02*
X122450000Y-65000000I250000J0D01*
G01*
X123550000Y-65000000D01*
G75*
G02*
X123800000Y-65250000I0J-250000D01*
G01*
X123800000Y-67350000D01*
G75*
G02*
X123550000Y-67600000I-250000J0D01*
G01*
G37*
G04 #@! TD.AperFunction*
G04 #@! TA.AperFunction,SMDPad,CuDef*
G36*
G01*
X140300000Y-75750000D02*
X140300000Y-74650000D01*
G75*
G02*
X140550000Y-74400000I250000J0D01*
G01*
X142650000Y-74400000D01*
G75*
G02*
X142900000Y-74650000I0J-250000D01*
G01*
X142900000Y-75750000D01*
G75*
G02*
X142650000Y-76000000I-250000J0D01*
G01*
X140550000Y-76000000D01*
G75*
G02*
X140300000Y-75750000I0J250000D01*
G01*
G37*
G04 #@! TD.AperFunction*
G04 #@! TA.AperFunction,SMDPad,CuDef*
G36*
G01*
X136700000Y-75750000D02*
X136700000Y-74650000D01*
G75*
G02*
X136950000Y-74400000I250000J0D01*
G01*
X139050000Y-74400000D01*
G75*
G02*
X139300000Y-74650000I0J-250000D01*
G01*
X139300000Y-75750000D01*
G75*
G02*
X139050000Y-76000000I-250000J0D01*
G01*
X136950000Y-76000000D01*
G75*
G02*
X136700000Y-75750000I0J250000D01*
G01*
G37*
G04 #@! TD.AperFunction*
G04 #@! TA.AperFunction,SMDPad,CuDef*
G36*
G01*
X126350000Y-71600000D02*
X125250000Y-71600000D01*
G75*
G02*
X125000000Y-71350000I0J250000D01*
G01*
X125000000Y-69250000D01*
G75*
G02*
X125250000Y-69000000I250000J0D01*
G01*
X126350000Y-69000000D01*
G75*
G02*
X126600000Y-69250000I0J-250000D01*
G01*
X126600000Y-71350000D01*
G75*
G02*
X126350000Y-71600000I-250000J0D01*
G01*
G37*
G04 #@! TD.AperFunction*
G04 #@! TA.AperFunction,SMDPad,CuDef*
G36*
G01*
X126350000Y-75200000D02*
X125250000Y-75200000D01*
G75*
G02*
X125000000Y-74950000I0J250000D01*
G01*
X125000000Y-72850000D01*
G75*
G02*
X125250000Y-72600000I250000J0D01*
G01*
X126350000Y-72600000D01*
G75*
G02*
X126600000Y-72850000I0J-250000D01*
G01*
X126600000Y-74950000D01*
G75*
G02*
X126350000Y-75200000I-250000J0D01*
G01*
G37*
G04 #@! TD.AperFunction*
G04 #@! TA.AperFunction,SMDPad,CuDef*
G36*
G01*
X123550000Y-96500000D02*
X122450000Y-96500000D01*
G75*
G02*
X122200000Y-96250000I0J250000D01*
G01*
X122200000Y-94150000D01*
G75*
G02*
X122450000Y-93900000I250000J0D01*
G01*
X123550000Y-93900000D01*
G75*
G02*
X123800000Y-94150000I0J-250000D01*
G01*
X123800000Y-96250000D01*
G75*
G02*
X123550000Y-96500000I-250000J0D01*
G01*
G37*
G04 #@! TD.AperFunction*
G04 #@! TA.AperFunction,SMDPad,CuDef*
G36*
G01*
X123550000Y-100100000D02*
X122450000Y-100100000D01*
G75*
G02*
X122200000Y-99850000I0J250000D01*
G01*
X122200000Y-97750000D01*
G75*
G02*
X122450000Y-97500000I250000J0D01*
G01*
X123550000Y-97500000D01*
G75*
G02*
X123800000Y-97750000I0J-250000D01*
G01*
X123800000Y-99850000D01*
G75*
G02*
X123550000Y-100100000I-250000J0D01*
G01*
G37*
G04 #@! TD.AperFunction*
G04 #@! TA.AperFunction,SMDPad,CuDef*
G36*
G01*
X123750000Y-86150000D02*
X122650000Y-86150000D01*
G75*
G02*
X122400000Y-85900000I0J250000D01*
G01*
X122400000Y-83800000D01*
G75*
G02*
X122650000Y-83550000I250000J0D01*
G01*
X123750000Y-83550000D01*
G75*
G02*
X124000000Y-83800000I0J-250000D01*
G01*
X124000000Y-85900000D01*
G75*
G02*
X123750000Y-86150000I-250000J0D01*
G01*
G37*
G04 #@! TD.AperFunction*
G04 #@! TA.AperFunction,SMDPad,CuDef*
G36*
G01*
X123750000Y-89750000D02*
X122650000Y-89750000D01*
G75*
G02*
X122400000Y-89500000I0J250000D01*
G01*
X122400000Y-87400000D01*
G75*
G02*
X122650000Y-87150000I250000J0D01*
G01*
X123750000Y-87150000D01*
G75*
G02*
X124000000Y-87400000I0J-250000D01*
G01*
X124000000Y-89500000D01*
G75*
G02*
X123750000Y-89750000I-250000J0D01*
G01*
G37*
G04 #@! TD.AperFunction*
D19*
X148000000Y-115000000D03*
X148000000Y-110000000D03*
X160800000Y-101700000D03*
X160800000Y-106200000D03*
D20*
X120800000Y-95200000D02*
X123000000Y-95200000D01*
X121000000Y-75460000D02*
X120960000Y-75460000D01*
X120000000Y-74500000D02*
X120000000Y-71500000D01*
X120960000Y-75460000D02*
X120000000Y-74500000D01*
X129400000Y-87400000D02*
X129500000Y-87500000D01*
X129400000Y-83500000D02*
X129400000Y-87400000D01*
X129500000Y-87500000D02*
X127500000Y-87500000D01*
X126500000Y-88500000D02*
X126500000Y-90500000D01*
X121000000Y-57500000D02*
X121500000Y-57000000D01*
X122575000Y-59500000D02*
X121000000Y-59500000D01*
X121000000Y-59500000D02*
X121000000Y-57500000D01*
X123050000Y-114550000D02*
X123050000Y-113000000D01*
X123500000Y-115000000D02*
X123050000Y-114550000D01*
X148000000Y-115000000D02*
X123500000Y-115000000D01*
D21*
X168390000Y-91425000D02*
X169660000Y-91425000D01*
D20*
X121450000Y-62700000D02*
X121000000Y-62250000D01*
X121000000Y-62250000D02*
X121000000Y-59500000D01*
X123000000Y-62700000D02*
X121450000Y-62700000D01*
X119500000Y-95200000D02*
X120800000Y-95200000D01*
X119500000Y-112000000D02*
X119500000Y-95200000D01*
X120500000Y-113000000D02*
X119500000Y-112000000D01*
X123050000Y-113000000D02*
X120500000Y-113000000D01*
X119000000Y-76000000D02*
X119540000Y-75460000D01*
X119540000Y-75460000D02*
X121000000Y-75460000D01*
X119000000Y-84300000D02*
X119000000Y-76000000D01*
X119500000Y-84800000D02*
X119000000Y-84300000D01*
X121000000Y-75460000D02*
X122460000Y-75460000D01*
X119500000Y-95200000D02*
X119500000Y-86600000D01*
X119500000Y-86600000D02*
X119500000Y-84800000D01*
X127000000Y-88000000D02*
X126500000Y-88500000D01*
X127500000Y-87500000D02*
X127000000Y-88000000D01*
D21*
X125650000Y-86650000D02*
X127000000Y-88000000D01*
X119550000Y-86650000D02*
X125650000Y-86650000D01*
X119500000Y-86600000D02*
X119550000Y-86650000D01*
X129000000Y-97500000D02*
X132500000Y-101000000D01*
X129000000Y-94100000D02*
X129000000Y-97500000D01*
X128300000Y-93400000D02*
X129000000Y-94100000D01*
X124800000Y-93400000D02*
X128300000Y-93400000D01*
X123000000Y-95200000D02*
X124800000Y-93400000D01*
D20*
X125800000Y-70300000D02*
X124900000Y-70300000D01*
X122460000Y-72740000D02*
X122460000Y-75460000D01*
X124900000Y-70300000D02*
X122460000Y-72740000D01*
X123850000Y-62700000D02*
X123000000Y-62700000D01*
X125000000Y-63850000D02*
X123850000Y-62700000D01*
X125000000Y-67700000D02*
X125000000Y-63850000D01*
X121200000Y-71500000D02*
X125000000Y-67700000D01*
X120000000Y-71500000D02*
X121200000Y-71500000D01*
X122460000Y-75460000D02*
X124050000Y-77050000D01*
X124912500Y-77912500D02*
X124050000Y-77050000D01*
X124912500Y-81100000D02*
X124912500Y-77912500D01*
X150900000Y-115000000D02*
X148000000Y-115000000D01*
X159700000Y-106200000D02*
X150900000Y-115000000D01*
X160800000Y-106200000D02*
X159700000Y-106200000D01*
X132500000Y-101000000D02*
X132500000Y-103400000D01*
D21*
X166700000Y-106200000D02*
X160800000Y-106200000D01*
X168600000Y-104300000D02*
X166700000Y-106200000D01*
X168600000Y-95000000D02*
X168600000Y-104300000D01*
X168400000Y-94800000D02*
X168600000Y-95000000D01*
X168400000Y-93650000D02*
X168400000Y-94800000D01*
X168390000Y-92960000D02*
X168390000Y-91425000D01*
X168250000Y-93500000D02*
X168390000Y-93640000D01*
X168390000Y-93640000D02*
X168390000Y-92960000D01*
X166350000Y-93500000D02*
X168250000Y-93500000D01*
X165850000Y-93000000D02*
X166350000Y-93500000D01*
X165850000Y-91425000D02*
X165850000Y-93000000D01*
X136000000Y-101100000D02*
X136000000Y-106500000D01*
X131000000Y-96100000D02*
X136000000Y-101100000D01*
X131000000Y-93000000D02*
X131000000Y-96100000D01*
X136920000Y-107420000D02*
X139425000Y-107420000D01*
X129450000Y-91450000D02*
X131000000Y-93000000D01*
X136000000Y-106500000D02*
X136920000Y-107420000D01*
X129450000Y-90500000D02*
X129450000Y-91450000D01*
X121787500Y-81100000D02*
X121787500Y-79687500D01*
X121200000Y-79100000D02*
X121787500Y-79687500D01*
X121200000Y-78000000D02*
X121200000Y-79100000D01*
X121787500Y-81100000D02*
X121787500Y-82637500D01*
X121787500Y-83437500D02*
X121787500Y-82637500D01*
X123200000Y-84850000D02*
X121787500Y-83437500D01*
X134120000Y-104880000D02*
X132500000Y-104880000D01*
X134800000Y-101400000D02*
X134800000Y-104200000D01*
X130000000Y-96600000D02*
X134800000Y-101400000D01*
X130000000Y-93500000D02*
X130000000Y-96600000D01*
X128800000Y-92300000D02*
X130000000Y-93500000D01*
X134800000Y-104200000D02*
X134120000Y-104880000D01*
X123200000Y-90700000D02*
X124800000Y-92300000D01*
X124800000Y-92300000D02*
X128800000Y-92300000D01*
X123200000Y-88450000D02*
X123200000Y-90700000D01*
X125500000Y-95000000D02*
X127000000Y-95000000D01*
X125000000Y-95500000D02*
X125500000Y-95000000D01*
X125000000Y-98000000D02*
X125000000Y-95500000D01*
X124200000Y-98800000D02*
X125000000Y-98000000D01*
X123000000Y-98800000D02*
X124200000Y-98800000D01*
X128925000Y-113000000D02*
X129000000Y-112925000D01*
X126000000Y-113000000D02*
X128925000Y-113000000D01*
X129000000Y-112925000D02*
X130075000Y-112925000D01*
X130075000Y-112925000D02*
X130500000Y-112500000D01*
X130500000Y-112500000D02*
X130500000Y-109500000D01*
X131310000Y-108690000D02*
X132500000Y-108690000D01*
X130500000Y-109500000D02*
X131310000Y-108690000D01*
X125800000Y-75500000D02*
X125800000Y-73900000D01*
X128150000Y-77850000D02*
X125800000Y-75500000D01*
X128150000Y-79000000D02*
X128150000Y-77850000D01*
X124000000Y-60400000D02*
X124000000Y-56500000D01*
X126200000Y-66100000D02*
X126200000Y-62600000D01*
X127700000Y-67600000D02*
X126200000Y-66100000D01*
X126200000Y-62600000D02*
X124000000Y-60400000D01*
X127700000Y-73000000D02*
X127700000Y-67600000D01*
X126800000Y-73900000D02*
X127700000Y-73000000D01*
X125800000Y-73900000D02*
X126800000Y-73900000D01*
D22*
X130400000Y-58450020D02*
X130400000Y-55350000D01*
X133500000Y-54750000D02*
X134200000Y-55450000D01*
X134200000Y-55450000D02*
X134200000Y-56500000D01*
X130400000Y-55350000D02*
X131000000Y-54750000D01*
X131000000Y-54750000D02*
X133500000Y-54750000D01*
D21*
X130237437Y-73777437D02*
X130237437Y-73762563D01*
X132160000Y-74700000D02*
X131160000Y-74700000D01*
X134860000Y-70900000D02*
X134860000Y-72000000D01*
X134060000Y-70100000D02*
X134860000Y-70900000D01*
X131160000Y-74700000D02*
X130237437Y-73777437D01*
X134860000Y-72000000D02*
X132160000Y-74700000D01*
X134060000Y-67900000D02*
X134060000Y-70100000D01*
X134585000Y-67375000D02*
X134060000Y-67900000D01*
X134585000Y-65200000D02*
X134585000Y-67375000D01*
X130100000Y-58750020D02*
X130400000Y-58450020D01*
X130100000Y-62100000D02*
X130100000Y-58750020D01*
X131400000Y-63400000D02*
X130100000Y-62100000D01*
X134200000Y-63400000D02*
X131400000Y-63400000D01*
X134585000Y-63785000D02*
X134200000Y-63400000D01*
X134585000Y-65200000D02*
X134585000Y-63785000D01*
X134450000Y-56750000D02*
X134200000Y-56500000D01*
X134450000Y-60500000D02*
X134450000Y-56750000D01*
X136300000Y-61050000D02*
X135750000Y-60500000D01*
X136300000Y-62600000D02*
X136300000Y-61050000D01*
X139700000Y-65600000D02*
X139300000Y-65600000D01*
X135750000Y-60500000D02*
X134450000Y-60500000D01*
X140758116Y-66658116D02*
X139700000Y-65600000D01*
X139300000Y-65600000D02*
X136300000Y-62600000D01*
X140758116Y-66781254D02*
X140758116Y-66658116D01*
X131500000Y-65240000D02*
X131460000Y-65200000D01*
X131500000Y-70075378D02*
X131500000Y-65240000D01*
X132712311Y-71287689D02*
X131500000Y-70075378D01*
X130500000Y-65200000D02*
X131460000Y-65200000D01*
X129100000Y-63800000D02*
X130500000Y-65200000D01*
X129100000Y-56520000D02*
X129100000Y-63800000D01*
X129120000Y-56500000D02*
X129100000Y-56520000D01*
X131500000Y-61750000D02*
X131500000Y-58750000D01*
X132160000Y-62410000D02*
X131500000Y-61750000D01*
X134610000Y-62410000D02*
X132160000Y-62410000D01*
X136300000Y-64100000D02*
X134610000Y-62410000D01*
X136300000Y-66963961D02*
X136300000Y-64100000D01*
X131660000Y-58590000D02*
X131660000Y-56500000D01*
X131500000Y-58750000D02*
X131660000Y-58590000D01*
X137586039Y-68250000D02*
X136300000Y-66963961D01*
X152423940Y-79223940D02*
X148400000Y-75200000D01*
X148400000Y-75200000D02*
X141600000Y-75200000D01*
X152423940Y-81185391D02*
X152423940Y-79223940D01*
X141820000Y-57000000D02*
X141820000Y-56500000D01*
X144700000Y-59880000D02*
X141820000Y-57000000D01*
X144700000Y-68800000D02*
X144700000Y-59880000D01*
X141600000Y-71900000D02*
X144700000Y-68800000D01*
X141600000Y-75200000D02*
X141600000Y-71900000D01*
X139280000Y-57000000D02*
X139280000Y-56500000D01*
X141280000Y-59000000D02*
X139280000Y-57000000D01*
X143500000Y-60604002D02*
X141895998Y-59000000D01*
X143500000Y-68200000D02*
X143500000Y-60604002D01*
X138000000Y-82500000D02*
X138000000Y-73700000D01*
X138000000Y-73700000D02*
X143500000Y-68200000D01*
X135000000Y-85500000D02*
X138000000Y-82500000D01*
X141895998Y-59000000D02*
X141280000Y-59000000D01*
X135000000Y-94500000D02*
X135000000Y-85500000D01*
X141500000Y-101000000D02*
X135000000Y-94500000D01*
X147000000Y-101000000D02*
X141500000Y-101000000D01*
X148000000Y-100000000D02*
X147000000Y-101000000D01*
D20*
X120300000Y-66300000D02*
X123000000Y-66300000D01*
X120000000Y-66000000D02*
X120300000Y-66300000D01*
X120000000Y-68960000D02*
X120000000Y-66000000D01*
X144360000Y-52000000D02*
X144360000Y-57000000D01*
X142000000Y-52000000D02*
X144360000Y-52000000D01*
X122000000Y-52000000D02*
X142000000Y-52000000D01*
X119000000Y-55000000D02*
X122000000Y-52000000D01*
X119000000Y-65000000D02*
X119000000Y-55000000D01*
X120300000Y-66300000D02*
X119000000Y-65000000D01*
X155000000Y-69500000D02*
X155000000Y-70900000D01*
X149948003Y-64448003D02*
X155000000Y-69500000D01*
X149945881Y-64276901D02*
X149945881Y-64289944D01*
X149659061Y-63982698D02*
X149659521Y-63997998D01*
X149570788Y-63877906D02*
X149570693Y-63893218D01*
X149485723Y-63785270D02*
X149570788Y-63877906D01*
X149255094Y-63443942D02*
X149329581Y-63545278D01*
X149257405Y-63428805D02*
X149255094Y-63443942D01*
X149186647Y-63324831D02*
X149257405Y-63428805D01*
X149189506Y-63309791D02*
X149186647Y-63324831D01*
X149122570Y-63203317D02*
X149189506Y-63309791D01*
X149125973Y-63188391D02*
X149122570Y-63203317D01*
X149062949Y-63079561D02*
X149125973Y-63188391D01*
X149066892Y-63064765D02*
X149062949Y-63079561D01*
X149007859Y-62953711D02*
X149066892Y-63064765D01*
X149486374Y-63769972D02*
X149485723Y-63785270D01*
X148917095Y-62682163D02*
X148911566Y-62696443D01*
X149012337Y-62939069D02*
X149007859Y-62953711D01*
X148762514Y-62015657D02*
X148754496Y-62028704D01*
X148957377Y-62825948D02*
X149012337Y-62939069D01*
X148737770Y-61892345D02*
X148762514Y-62015657D01*
X149570693Y-63893218D02*
X149659061Y-63982698D01*
X148734945Y-61743052D02*
X148726004Y-61755479D01*
X148719215Y-61618275D02*
X148734945Y-61743052D01*
X148728602Y-61606180D02*
X148719215Y-61618275D01*
X148717413Y-61480914D02*
X148728602Y-61606180D01*
X148727232Y-61469169D02*
X148717413Y-61480914D01*
X148720599Y-61343580D02*
X148727232Y-61469169D01*
X148728774Y-61206442D02*
X148730841Y-61332195D01*
X148739420Y-61195440D02*
X148728774Y-61206442D01*
X148794836Y-60788318D02*
X148783059Y-60798095D01*
X149948003Y-64292066D02*
X149948003Y-64448003D01*
X148823124Y-60654249D02*
X148810993Y-60663597D01*
X148870489Y-62565351D02*
X148917095Y-62682163D01*
X150202757Y-58507108D02*
X150187456Y-58506596D01*
X149684880Y-58973458D02*
X149610045Y-59074538D01*
X149976310Y-58682320D02*
X149890928Y-58774663D01*
X150645157Y-58203352D02*
X150541831Y-58275050D01*
X148730841Y-61332195D02*
X148720599Y-61343580D01*
X147900000Y-52000000D02*
X151500000Y-55600000D01*
X148876532Y-62551283D02*
X148870489Y-62565351D01*
X150297673Y-58424599D02*
X150202757Y-58507108D01*
X148754496Y-62028704D02*
X148783701Y-62151031D01*
X151156448Y-57974437D02*
X151141935Y-57969563D01*
X149700021Y-58971200D02*
X149684880Y-58973458D01*
X148834199Y-62432857D02*
X148876532Y-62551283D01*
X150312948Y-58425667D02*
X150297673Y-58424599D01*
X151271025Y-57922577D02*
X151156448Y-57974437D01*
X149848303Y-64197556D02*
X149945881Y-64276901D01*
X148840749Y-62419019D02*
X148834199Y-62432857D01*
X148771440Y-60923324D02*
X148760020Y-60933528D01*
X150410797Y-58346659D02*
X150312948Y-58425667D01*
X148810993Y-60663597D02*
X148794836Y-60788318D01*
X151285354Y-57927976D02*
X151271025Y-57922577D01*
X149846734Y-64182332D02*
X149848303Y-64197556D01*
X148783059Y-60798095D02*
X148771440Y-60923324D01*
X150426021Y-58348280D02*
X150410797Y-58346659D01*
X149875661Y-58775817D02*
X149793689Y-58871199D01*
X150541831Y-58275050D02*
X150526675Y-58272877D01*
X149890928Y-58774663D02*
X149875661Y-58775817D01*
X150766088Y-58138175D02*
X150660226Y-58206074D01*
X150781045Y-58141442D02*
X150766088Y-58138175D01*
X150660226Y-58206074D02*
X150645157Y-58203352D01*
X142000000Y-52000000D02*
X147900000Y-52000000D01*
X148752957Y-61059094D02*
X148741919Y-61069702D01*
X149036323Y-60004116D02*
X149022709Y-60011117D01*
X150889302Y-58077432D02*
X150781045Y-58141442D01*
X150187456Y-58506596D02*
X150095596Y-58592500D01*
X149404729Y-63674308D02*
X149486374Y-63769972D01*
X151029317Y-58025549D02*
X151014635Y-58021204D01*
X149610045Y-59074538D02*
X149594990Y-59077346D01*
X148962382Y-62811483D02*
X148957377Y-62825948D01*
X148746253Y-61879602D02*
X148737770Y-61892345D01*
X149991609Y-58681721D02*
X149976310Y-58682320D01*
X149793689Y-58871199D02*
X149778474Y-58872906D01*
X149778474Y-58872906D02*
X149700021Y-58971200D01*
X150095596Y-58592500D02*
X150080284Y-58592543D01*
X149594990Y-59077346D02*
X149523875Y-59181077D01*
X148911566Y-62696443D02*
X148962382Y-62811483D01*
X148726004Y-61755479D02*
X148746253Y-61879602D01*
X150080284Y-58592543D02*
X149991609Y-58681721D01*
X149523875Y-59181077D02*
X149508935Y-59184429D01*
X149508935Y-59184429D02*
X149441637Y-59290670D01*
X151014635Y-58021204D02*
X150904129Y-58081240D01*
X149441637Y-59290670D02*
X149426832Y-59294561D01*
X149329581Y-63545278D02*
X149327821Y-63560488D01*
X150904129Y-58081240D02*
X150889302Y-58077432D01*
X149426832Y-59294561D02*
X149363432Y-59403180D01*
X149327821Y-63560488D02*
X149405935Y-63659047D01*
X149363432Y-59403180D02*
X149348774Y-59407608D01*
X150526675Y-58272877D02*
X150426021Y-58348280D01*
X149227894Y-59633136D02*
X149205229Y-59641823D01*
X149405935Y-63659047D02*
X149404729Y-63674308D01*
X151141935Y-57969563D02*
X151029317Y-58025549D01*
X149348774Y-59407608D02*
X149227894Y-59633136D01*
X148760020Y-60933528D02*
X148752957Y-61059094D01*
X149079062Y-59885838D02*
X149036323Y-60004116D01*
X148894199Y-60389634D02*
X148881422Y-60398077D01*
X149205229Y-59641823D02*
X149154019Y-59756688D01*
X149659521Y-63997998D02*
X149751087Y-64084218D01*
X148783701Y-62151031D02*
X148776164Y-62164357D01*
X148984291Y-60130874D02*
X148970936Y-60138367D01*
X148881422Y-60398077D02*
X148856257Y-60521294D01*
X149154019Y-59756688D02*
X149139933Y-59762682D01*
X149751087Y-64084218D02*
X149752103Y-64099500D01*
X148776164Y-62164357D02*
X148809791Y-62285542D01*
X151500000Y-55600000D02*
X151500000Y-57782050D01*
X148970936Y-60138367D02*
X148936894Y-60259436D01*
X148856257Y-60521294D02*
X148843801Y-60530191D01*
X149139933Y-59762682D02*
X149092925Y-59879334D01*
X148741919Y-61069702D02*
X148739420Y-61195440D01*
X149022709Y-60011117D02*
X148984291Y-60130874D01*
X149092925Y-59879334D02*
X149079062Y-59885838D01*
X149752103Y-64099500D02*
X149846734Y-64182332D01*
X148809791Y-62285542D02*
X148802743Y-62299133D01*
X151500000Y-57782050D02*
X151401739Y-57880311D01*
X148936894Y-60259436D02*
X148923825Y-60267405D01*
X149945881Y-64289944D02*
X149948003Y-64292066D01*
X148843801Y-60530191D02*
X148823124Y-60654249D01*
X148802743Y-62299133D02*
X148840749Y-62419019D01*
X151401739Y-57880311D02*
X151285354Y-57927976D01*
X148923825Y-60267405D02*
X148894199Y-60389634D01*
D21*
X147100000Y-59340000D02*
X149440000Y-57000000D01*
X147100000Y-67200000D02*
X147100000Y-59340000D01*
X150100000Y-70200000D02*
X147100000Y-67200000D01*
X150100000Y-71500000D02*
X150100000Y-70200000D01*
X150100000Y-73450000D02*
X150100000Y-71500000D01*
X157500000Y-80850000D02*
X150100000Y-73450000D01*
X157500000Y-87920000D02*
X157500000Y-80850000D01*
X146900000Y-58100000D02*
X146900000Y-57000000D01*
X145900000Y-59100000D02*
X146900000Y-58100000D01*
X145900000Y-69150000D02*
X145900000Y-59100000D01*
X146500000Y-69750000D02*
X145900000Y-69150000D01*
X146500000Y-71500000D02*
X146500000Y-69750000D01*
X151500000Y-76500000D02*
X146500000Y-71500000D01*
X154900000Y-79900000D02*
X151500000Y-76500000D01*
X154900000Y-82614802D02*
X154900000Y-79900000D01*
X151400000Y-83600000D02*
X153914802Y-83600000D01*
X150300000Y-82500000D02*
X151400000Y-83600000D01*
X143400000Y-82500000D02*
X150300000Y-82500000D01*
X153914802Y-83600000D02*
X154900000Y-82614802D01*
X138500000Y-87400000D02*
X143400000Y-82500000D01*
X138500000Y-87700000D02*
X138500000Y-87400000D01*
D20*
X133000000Y-87300000D02*
X132800000Y-87500000D01*
X133000000Y-83500000D02*
X133000000Y-87300000D01*
X133500000Y-95150000D02*
X139500000Y-101150000D01*
X133500000Y-89500000D02*
X133500000Y-95150000D01*
X132800000Y-88800000D02*
X133500000Y-89500000D01*
X132800000Y-87500000D02*
X132800000Y-88800000D01*
X140325000Y-101975000D02*
X139500000Y-101150000D01*
X139425000Y-102875000D02*
X140325000Y-101975000D01*
X139425000Y-103400000D02*
X139425000Y-102875000D01*
X159800000Y-93700000D02*
X159800000Y-86800000D01*
X158950000Y-85950000D02*
X158950000Y-81250000D01*
X159800000Y-86800000D02*
X158950000Y-85950000D01*
X151000000Y-102500000D02*
X159800000Y-93700000D01*
X140850000Y-102500000D02*
X151000000Y-102500000D01*
X139500000Y-101150000D02*
X140850000Y-102500000D01*
X155000000Y-76300000D02*
X155000000Y-74100000D01*
X158950000Y-80250000D02*
X155000000Y-76300000D01*
X158950000Y-81250000D02*
X158950000Y-80250000D01*
D21*
X141950000Y-106150000D02*
X139425000Y-106150000D01*
X142700000Y-106900000D02*
X141950000Y-106150000D01*
X143637500Y-106900000D02*
X142700000Y-106900000D01*
X146750000Y-104400000D02*
X146750000Y-106850000D01*
X146762500Y-106862500D02*
X146750000Y-106850000D01*
X146762500Y-106900000D02*
X146762500Y-106862500D01*
X173100000Y-83600000D02*
X174200000Y-83600000D01*
X172400000Y-82900000D02*
X173100000Y-83600000D01*
X172400000Y-79800000D02*
X172400000Y-82900000D01*
X170550000Y-77950000D02*
X172400000Y-79800000D01*
X169500000Y-77950000D02*
X170550000Y-77950000D01*
X160000000Y-71800000D02*
X160000000Y-70300000D01*
X161300000Y-74300000D02*
X161300000Y-73100000D01*
X163400000Y-74300000D02*
X161300000Y-74300000D01*
X163700000Y-74000000D02*
X163400000Y-74300000D01*
X167100000Y-74000000D02*
X163700000Y-74000000D01*
X169500000Y-76400000D02*
X167100000Y-74000000D01*
X161300000Y-73100000D02*
X160000000Y-71800000D01*
X169500000Y-77950000D02*
X169500000Y-76400000D01*
X162050000Y-77150000D02*
X163450000Y-77150000D01*
X164450000Y-76150000D02*
X163450000Y-77150000D01*
X165750000Y-76150000D02*
X164450000Y-76150000D01*
X165700000Y-79650000D02*
X165700000Y-78650000D01*
X165750000Y-78600000D02*
X165700000Y-78650000D01*
X165750000Y-76150000D02*
X165750000Y-78600000D01*
X170700000Y-79650000D02*
X165700000Y-79650000D01*
X171300000Y-80250000D02*
X170700000Y-79650000D01*
X171300000Y-85000000D02*
X171300000Y-80250000D01*
X172400000Y-86100000D02*
X171300000Y-85000000D01*
X174160000Y-86100000D02*
X172400000Y-86100000D01*
X174200000Y-86140000D02*
X174160000Y-86100000D01*
X169660000Y-84500000D02*
X168390000Y-84500000D01*
X168390000Y-84500000D02*
X167120000Y-84500000D01*
X167120000Y-84500000D02*
X165850000Y-84500000D01*
X162040000Y-85990000D02*
X162040000Y-84500000D01*
X165350000Y-86500000D02*
X162550000Y-86500000D01*
X162550000Y-86500000D02*
X162040000Y-85990000D01*
X165850000Y-86000000D02*
X165350000Y-86500000D01*
X165850000Y-84500000D02*
X165850000Y-86000000D01*
X162050000Y-84490000D02*
X162040000Y-84500000D01*
X162050000Y-83250000D02*
X162050000Y-84490000D01*
X169660000Y-84500000D02*
X169660000Y-83060000D01*
X162050000Y-81250000D02*
X162050000Y-83250000D01*
X169500000Y-82900000D02*
X169500000Y-81050000D01*
X169660000Y-83060000D02*
X169500000Y-82900000D01*
X169660000Y-86060000D02*
X169660000Y-84500000D01*
X172300000Y-88700000D02*
X169660000Y-86060000D01*
X174180000Y-88700000D02*
X172300000Y-88700000D01*
X174200000Y-88680000D02*
X174180000Y-88700000D01*
X128100000Y-58800000D02*
X127850000Y-58550000D01*
X129900000Y-66210035D02*
X128100000Y-64410035D01*
X129900000Y-70950252D02*
X129900000Y-66210035D01*
X128100000Y-64410035D02*
X128100000Y-58800000D01*
X131474874Y-72525126D02*
X129900000Y-70950252D01*
D22*
X138000000Y-60250000D02*
X138000000Y-61500000D01*
X135500000Y-55250000D02*
X135500000Y-57750000D01*
X134250000Y-54000000D02*
X135500000Y-55250000D01*
X135500000Y-57750000D02*
X138000000Y-60250000D01*
X128750000Y-54000000D02*
X134250000Y-54000000D01*
X127850000Y-54900000D02*
X128750000Y-54000000D01*
X127850000Y-54900000D02*
X127850000Y-58550000D01*
D21*
X140500000Y-68750000D02*
X139250000Y-67500000D01*
X141250000Y-68750000D02*
X140500000Y-68750000D01*
X142300000Y-67700000D02*
X141250000Y-68750000D01*
X142300000Y-65800000D02*
X142300000Y-67700000D01*
X138000000Y-61500000D02*
X142300000Y-65800000D01*
X129000000Y-75000000D02*
X130000000Y-76000000D01*
X130000000Y-76000000D02*
X132500000Y-76000000D01*
X136000000Y-72500000D02*
X136000000Y-69000000D01*
X132500000Y-76000000D02*
X136000000Y-72500000D01*
X127199989Y-61199989D02*
X125500000Y-59500000D01*
X127199989Y-65299989D02*
X127199989Y-61199989D01*
X128800000Y-66900000D02*
X127199989Y-65299989D01*
X128800000Y-74800000D02*
X128800000Y-66900000D01*
X129000000Y-75000000D02*
X128800000Y-74800000D01*
X140620000Y-104880000D02*
X139425000Y-104880000D01*
X141920000Y-104880000D02*
X140620000Y-104880000D01*
X142400000Y-104400000D02*
X141920000Y-104880000D01*
X143650000Y-104400000D02*
X142400000Y-104400000D01*
X137880000Y-104880000D02*
X139425000Y-104880000D01*
X137200000Y-104200000D02*
X137880000Y-104880000D01*
X132000000Y-95600000D02*
X137200000Y-100800000D01*
X132000000Y-90500000D02*
X132000000Y-95600000D01*
X137200000Y-100800000D02*
X137200000Y-104200000D01*
X131249990Y-89749990D02*
X132000000Y-90500000D01*
X131249990Y-82250010D02*
X131249990Y-89749990D01*
X131250000Y-82250000D02*
X131249990Y-82250010D01*
X131250000Y-79000000D02*
X131250000Y-82250000D01*
X142350000Y-111350000D02*
X143500000Y-111350000D01*
X140960000Y-109960000D02*
X142350000Y-111350000D01*
X139425000Y-109960000D02*
X140960000Y-109960000D01*
X162500000Y-103500000D02*
X162800000Y-103200000D01*
X151600000Y-105100000D02*
X153200000Y-103500000D01*
X153200000Y-103500000D02*
X162500000Y-103500000D01*
X151600000Y-110500000D02*
X151600000Y-105100000D01*
X150000000Y-112100000D02*
X151600000Y-110500000D01*
X146300000Y-112100000D02*
X150000000Y-112100000D01*
X145550000Y-111350000D02*
X146300000Y-112100000D01*
X143500000Y-111350000D02*
X145550000Y-111350000D01*
X164150000Y-101850000D02*
X162800000Y-103200000D01*
X164150000Y-98200000D02*
X164150000Y-101850000D01*
X164150000Y-96500000D02*
X164150000Y-98200000D01*
X162650000Y-98000000D02*
X161100000Y-98000000D01*
X164150000Y-96500000D02*
X162650000Y-98000000D01*
X145550000Y-112650000D02*
X143500000Y-112650000D01*
X152700000Y-110900000D02*
X150400000Y-113200000D01*
X152700000Y-105700000D02*
X152700000Y-110900000D01*
X146100000Y-113200000D02*
X145550000Y-112650000D01*
X154100000Y-104300000D02*
X152700000Y-105700000D01*
X165700000Y-94800000D02*
X165700000Y-102800000D01*
X165300000Y-94400000D02*
X165700000Y-94800000D01*
X150400000Y-113200000D02*
X146100000Y-113200000D01*
X163200000Y-104300000D02*
X154100000Y-104300000D01*
X164700000Y-102800000D02*
X163200000Y-104300000D01*
X165700000Y-102800000D02*
X164700000Y-102800000D01*
X164580000Y-91425000D02*
X164600000Y-91445000D01*
X167200000Y-102800000D02*
X165700000Y-102800000D01*
X143400000Y-112750000D02*
X143500000Y-112650000D01*
X141750000Y-112750000D02*
X143400000Y-112750000D01*
X141000000Y-113500000D02*
X141750000Y-112750000D01*
X137850000Y-113500000D02*
X141000000Y-113500000D01*
X137325000Y-112975000D02*
X137850000Y-113500000D01*
X137325000Y-111225000D02*
X137325000Y-112975000D01*
X136060000Y-109960000D02*
X137325000Y-111225000D01*
X132500000Y-109960000D02*
X136060000Y-109960000D01*
X164580000Y-93680000D02*
X165300000Y-94400000D01*
X164580000Y-91425000D02*
X164580000Y-93680000D01*
X129000000Y-102925000D02*
X129000000Y-106500000D01*
X129000000Y-110000000D02*
X129000000Y-106500000D01*
X129920000Y-107420000D02*
X129000000Y-106500000D01*
X132500000Y-107420000D02*
X129920000Y-107420000D01*
X129000000Y-100000000D02*
X130000000Y-100000000D01*
X130000000Y-100000000D02*
X131000000Y-101000000D01*
X131000000Y-101000000D02*
X131000000Y-104000000D01*
X132500000Y-106150000D02*
X131650000Y-106150000D01*
X131000000Y-105500000D02*
X131000000Y-104000000D01*
X131650000Y-106150000D02*
X131000000Y-105500000D01*
X127500000Y-100000000D02*
X129000000Y-100000000D01*
X127000000Y-99500000D02*
X127500000Y-100000000D01*
X127000000Y-97925000D02*
X127000000Y-99500000D01*
X163310000Y-90240000D02*
X163310000Y-91425000D01*
X166450000Y-89600000D02*
X163950000Y-89600000D01*
X167120000Y-90270000D02*
X166450000Y-89600000D01*
X163950000Y-89600000D02*
X163310000Y-90240000D01*
X167120000Y-91425000D02*
X167120000Y-90270000D01*
X161000000Y-95950000D02*
X161000000Y-96600000D01*
X162040000Y-94910000D02*
X161875000Y-95075000D01*
X162040000Y-91425000D02*
X162040000Y-94910000D01*
X161875000Y-95075000D02*
X161000000Y-95950000D01*
X162040000Y-89310000D02*
X162040000Y-91425000D01*
X162750000Y-88600000D02*
X162040000Y-89310000D01*
X169200000Y-88600000D02*
X162750000Y-88600000D01*
X170700000Y-90100000D02*
X169200000Y-88600000D01*
X170700000Y-93100000D02*
X170700000Y-90100000D01*
X170200000Y-93600000D02*
X170700000Y-93100000D01*
X170200000Y-94300000D02*
X170200000Y-93600000D01*
X141012500Y-61500000D02*
X141012500Y-60512500D01*
X141012500Y-60512500D02*
X139750000Y-59250000D01*
X139750000Y-59250000D02*
X138250000Y-59250000D01*
X138250000Y-59250000D02*
X136750000Y-57750000D01*
X136750000Y-57750000D02*
X136750000Y-56500000D01*
D22*
X136750000Y-54750000D02*
X136750000Y-56500000D01*
X135250000Y-53250000D02*
X136750000Y-54750000D01*
X128250000Y-53250000D02*
X135250000Y-53250000D01*
X126580000Y-54920000D02*
X128250000Y-53250000D01*
X126580000Y-56500000D02*
X126580000Y-54920000D01*
D21*
X167250000Y-96500000D02*
X167250000Y-97750000D01*
X167250000Y-100000000D02*
X167250000Y-97750000D01*
X173700000Y-99890000D02*
X172110000Y-99890000D01*
X172000000Y-100000000D02*
X172110000Y-99890000D01*
X170350000Y-100000000D02*
X172000000Y-100000000D01*
X173700000Y-102430000D02*
X172130000Y-102430000D01*
X171760000Y-102800000D02*
X172130000Y-102430000D01*
X170300000Y-102800000D02*
X171760000Y-102800000D01*
X170200000Y-97500000D02*
X171400000Y-97500000D01*
X171550000Y-97350000D02*
X171400000Y-97500000D01*
X173700000Y-97350000D02*
X171550000Y-97350000D01*
X159000000Y-75800000D02*
X158900000Y-75800000D01*
X159000000Y-75800000D02*
X159000000Y-77150000D01*
X158900000Y-75800000D02*
X158700000Y-75600000D01*
X158700000Y-75600000D02*
X158700000Y-74300000D01*
X152500000Y-97500000D02*
X157500000Y-92500000D01*
X145600000Y-97500000D02*
X152500000Y-97500000D01*
X144600000Y-96500000D02*
X145600000Y-97500000D01*
X142500000Y-96500000D02*
X144600000Y-96500000D01*
X138500000Y-92500000D02*
X142500000Y-96500000D01*
X138500000Y-92280000D02*
X138500000Y-92500000D01*
X142500000Y-80000000D02*
X148000000Y-80000000D01*
X136000000Y-86500000D02*
X142500000Y-80000000D01*
X136000000Y-93500000D02*
X136000000Y-86500000D01*
X141185199Y-98685199D02*
X136000000Y-93500000D01*
X143093097Y-98685199D02*
X141185199Y-98685199D01*
X143222507Y-98814609D02*
X143093097Y-98685199D01*
X143576060Y-98814609D02*
X143222507Y-98814609D01*
X142500000Y-110000000D02*
X145000000Y-110000000D01*
X141190000Y-108690000D02*
X142500000Y-110000000D01*
X145000000Y-110000000D02*
X148000000Y-110000000D01*
X139425000Y-108690000D02*
X141190000Y-108690000D01*
X157000000Y-101700000D02*
X160800000Y-101700000D01*
X153500000Y-101700000D02*
X157000000Y-101700000D01*
X150500000Y-104700000D02*
X153500000Y-101700000D01*
X150500000Y-108900000D02*
X150500000Y-104700000D01*
X149400000Y-110000000D02*
X150500000Y-108900000D01*
X148000000Y-110000000D02*
X149400000Y-110000000D01*
X161000000Y-94200000D02*
X161000000Y-87700000D01*
X159200000Y-96000000D02*
X161000000Y-94200000D01*
X159200000Y-98650000D02*
X159200000Y-96000000D01*
X160800000Y-100250000D02*
X159200000Y-98650000D01*
X160800000Y-101700000D02*
X160800000Y-100250000D01*
X161000000Y-85200000D02*
X161000000Y-87700000D01*
X160500000Y-84700000D02*
X161000000Y-85200000D01*
X160500000Y-80000000D02*
X160500000Y-84700000D01*
X161150000Y-79350000D02*
X160500000Y-80000000D01*
X163150000Y-79350000D02*
X161150000Y-79350000D01*
X164750000Y-80950000D02*
X163150000Y-79350000D01*
X165700000Y-80950000D02*
X164750000Y-80950000D01*
X161100000Y-87600000D02*
X161000000Y-87700000D01*
X169800000Y-87600000D02*
X161100000Y-87600000D01*
X173400000Y-91200000D02*
X169800000Y-87600000D01*
X174180000Y-91200000D02*
X173400000Y-91200000D01*
X174200000Y-91220000D02*
X174180000Y-91200000D01*
D23*
X126815001Y-67966580D02*
X126815001Y-68373000D01*
X126712420Y-68373000D01*
X126600000Y-68361928D01*
X126085750Y-68365000D01*
X126077750Y-68373000D01*
X125522250Y-68373000D01*
X125514250Y-68365000D01*
X125000000Y-68361928D01*
X124875518Y-68374188D01*
X124755820Y-68410498D01*
X124645506Y-68469463D01*
X124548815Y-68548815D01*
X124469463Y-68645506D01*
X124410498Y-68755820D01*
X124374188Y-68875518D01*
X124361928Y-69000000D01*
X124362795Y-69286413D01*
X121754656Y-71698942D01*
X121720777Y-71627000D01*
X120127000Y-71627000D01*
X120127000Y-72981016D01*
X120385030Y-73138819D01*
X120702153Y-73080987D01*
X121001900Y-72962398D01*
X121272752Y-72787610D01*
X121273000Y-72787370D01*
X121273000Y-74500000D01*
X121275440Y-74524776D01*
X121282667Y-74548601D01*
X121294403Y-74570557D01*
X121310197Y-74589803D01*
X121327000Y-74603592D01*
X121327000Y-75333000D01*
X122920777Y-75333000D01*
X123040124Y-75079566D01*
X123015744Y-74957602D01*
X122887646Y-74661794D01*
X122704300Y-74396660D01*
X122472752Y-74172390D01*
X122201900Y-73997602D01*
X122027000Y-73928406D01*
X122027000Y-72504664D01*
X124507653Y-70156903D01*
X124523750Y-70173000D01*
X125673000Y-70173000D01*
X125673000Y-69927000D01*
X125927000Y-69927000D01*
X125927000Y-70173000D01*
X125947000Y-70173000D01*
X125947000Y-70427000D01*
X125927000Y-70427000D01*
X125927000Y-70447000D01*
X125673000Y-70447000D01*
X125673000Y-70427000D01*
X124523750Y-70427000D01*
X124365000Y-70585750D01*
X124361928Y-71600000D01*
X124374188Y-71724482D01*
X124410498Y-71844180D01*
X124469463Y-71954494D01*
X124548815Y-72051185D01*
X124645506Y-72130537D01*
X124698813Y-72159031D01*
X124622038Y-72222038D01*
X124511595Y-72356614D01*
X124429528Y-72510150D01*
X124378992Y-72676746D01*
X124361928Y-72850000D01*
X124361928Y-74950000D01*
X124378992Y-75123254D01*
X124429528Y-75289850D01*
X124511595Y-75443386D01*
X124622038Y-75577962D01*
X124756614Y-75688405D01*
X124910150Y-75770472D01*
X124961996Y-75786199D01*
X124978411Y-75840312D01*
X125060589Y-75994058D01*
X125171183Y-76128817D01*
X125204956Y-76156534D01*
X125673000Y-76624578D01*
X125673000Y-79571580D01*
X125575000Y-79561928D01*
X125198250Y-79565000D01*
X125039500Y-79723750D01*
X125039500Y-80973000D01*
X125059500Y-80973000D01*
X125059500Y-81227000D01*
X125039500Y-81227000D01*
X125039500Y-81247000D01*
X124785500Y-81247000D01*
X124785500Y-81227000D01*
X123773750Y-81227000D01*
X123615000Y-81385750D01*
X123611928Y-82000000D01*
X123624188Y-82124482D01*
X123633691Y-82155809D01*
X122979922Y-82165714D01*
X123020472Y-82089852D01*
X123071008Y-81923256D01*
X123088072Y-81750002D01*
X123088072Y-80449998D01*
X123071008Y-80276744D01*
X123047729Y-80200000D01*
X123611928Y-80200000D01*
X123615000Y-80814250D01*
X123773750Y-80973000D01*
X124785500Y-80973000D01*
X124785500Y-79723750D01*
X124626750Y-79565000D01*
X124250000Y-79561928D01*
X124125518Y-79574188D01*
X124005820Y-79610498D01*
X123895506Y-79669463D01*
X123798815Y-79748815D01*
X123719463Y-79845506D01*
X123660498Y-79955820D01*
X123624188Y-80075518D01*
X123611928Y-80200000D01*
X123047729Y-80200000D01*
X123020472Y-80110148D01*
X122938405Y-79956613D01*
X122827962Y-79822038D01*
X122693387Y-79711595D01*
X122675357Y-79701958D01*
X122676781Y-79687499D01*
X122672500Y-79644033D01*
X122672500Y-79644023D01*
X122659695Y-79514010D01*
X122609089Y-79347187D01*
X122540980Y-79219763D01*
X122611714Y-79161714D01*
X122816031Y-78912752D01*
X122967852Y-78628715D01*
X123061343Y-78320516D01*
X123092911Y-78000000D01*
X123061343Y-77679484D01*
X122967852Y-77371285D01*
X122816031Y-77087248D01*
X122611714Y-76838286D01*
X122485812Y-76734961D01*
X122704300Y-76523340D01*
X122887646Y-76258206D01*
X123015744Y-75962398D01*
X123040124Y-75840434D01*
X122920777Y-75587000D01*
X121327000Y-75587000D01*
X121327000Y-75607000D01*
X121073000Y-75607000D01*
X121073000Y-75587000D01*
X119479223Y-75587000D01*
X119359876Y-75840434D01*
X119384256Y-75962398D01*
X119512354Y-76258206D01*
X119695700Y-76523340D01*
X119914188Y-76734961D01*
X119788286Y-76838286D01*
X119583969Y-77087248D01*
X119432148Y-77371285D01*
X119338657Y-77679484D01*
X119307089Y-78000000D01*
X119338657Y-78320516D01*
X119432148Y-78628715D01*
X119583969Y-78912752D01*
X119788286Y-79161714D01*
X120037248Y-79366031D01*
X120321285Y-79517852D01*
X120438932Y-79553540D01*
X120460590Y-79594059D01*
X120543468Y-79695046D01*
X120543471Y-79695049D01*
X120571184Y-79728817D01*
X120604952Y-79756530D01*
X120712520Y-79864098D01*
X120636595Y-79956613D01*
X120554528Y-80110148D01*
X120503992Y-80276744D01*
X120486928Y-80449998D01*
X120486928Y-81750002D01*
X120503992Y-81923256D01*
X120554528Y-82089852D01*
X120636595Y-82243387D01*
X120747038Y-82377962D01*
X120881613Y-82488405D01*
X120902501Y-82499570D01*
X120902501Y-82594013D01*
X120902500Y-82594023D01*
X120902500Y-83394031D01*
X120898219Y-83437500D01*
X120902500Y-83480969D01*
X120902500Y-83480976D01*
X120907212Y-83528817D01*
X120915305Y-83610990D01*
X120917373Y-83617806D01*
X120965911Y-83777812D01*
X121048089Y-83931558D01*
X121158683Y-84066317D01*
X121192456Y-84094034D01*
X121761928Y-84663506D01*
X121761928Y-85900000D01*
X121778992Y-86073254D01*
X121829528Y-86239850D01*
X121911595Y-86393386D01*
X122022038Y-86527962D01*
X122156614Y-86638405D01*
X122178307Y-86650000D01*
X122156614Y-86661595D01*
X122022038Y-86772038D01*
X121911595Y-86906614D01*
X121829528Y-87060150D01*
X121778992Y-87226746D01*
X121761928Y-87400000D01*
X121761928Y-89500000D01*
X121778992Y-89673254D01*
X121829528Y-89839850D01*
X121911595Y-89993386D01*
X122022038Y-90127962D01*
X122156614Y-90238405D01*
X122310150Y-90320472D01*
X122315001Y-90321943D01*
X122315001Y-90656521D01*
X122310719Y-90700000D01*
X122327805Y-90873490D01*
X122378412Y-91040313D01*
X122460590Y-91194059D01*
X122543468Y-91295046D01*
X122543471Y-91295049D01*
X122571184Y-91328817D01*
X122604951Y-91356529D01*
X124143470Y-92895049D01*
X124171183Y-92928817D01*
X124204951Y-92956530D01*
X124204953Y-92956532D01*
X124294271Y-93029834D01*
X124305941Y-93039411D01*
X124459687Y-93121589D01*
X124626510Y-93172195D01*
X124756523Y-93185000D01*
X124756531Y-93185000D01*
X124800000Y-93189281D01*
X124843469Y-93185000D01*
X128433422Y-93185000D01*
X129115000Y-93866579D01*
X129115001Y-96556521D01*
X129110719Y-96600000D01*
X129127805Y-96773490D01*
X129178412Y-96940313D01*
X129260590Y-97094059D01*
X129343468Y-97195046D01*
X129343471Y-97195049D01*
X129371184Y-97228817D01*
X129404952Y-97256530D01*
X133915000Y-101766579D01*
X133915001Y-102839378D01*
X133841994Y-102779463D01*
X133731680Y-102720498D01*
X133611982Y-102684188D01*
X133487500Y-102671928D01*
X132785750Y-102675000D01*
X132627000Y-102833750D01*
X132627000Y-103483000D01*
X132647000Y-103483000D01*
X132647000Y-103737000D01*
X132627000Y-103737000D01*
X132627000Y-103757000D01*
X132373000Y-103757000D01*
X132373000Y-103737000D01*
X132353000Y-103737000D01*
X132353000Y-103483000D01*
X132373000Y-103483000D01*
X132373000Y-102833750D01*
X132214250Y-102675000D01*
X131885000Y-102673559D01*
X131885000Y-101043468D01*
X131889281Y-101000000D01*
X131885000Y-100956531D01*
X131885000Y-100956523D01*
X131872195Y-100826510D01*
X131856569Y-100775000D01*
X131821589Y-100659686D01*
X131739411Y-100505941D01*
X131656532Y-100404953D01*
X131656530Y-100404951D01*
X131628817Y-100371183D01*
X131595050Y-100343471D01*
X130656532Y-99404954D01*
X130628817Y-99371183D01*
X130494059Y-99260589D01*
X130467908Y-99246611D01*
X130445472Y-99172649D01*
X130363405Y-99019113D01*
X130252962Y-98884538D01*
X130118387Y-98774095D01*
X129964851Y-98692028D01*
X129798255Y-98641492D01*
X129625001Y-98624428D01*
X128484277Y-98624428D01*
X128496008Y-98585755D01*
X128513072Y-98412501D01*
X128513072Y-97612499D01*
X128496008Y-97439245D01*
X128445472Y-97272649D01*
X128363405Y-97119113D01*
X128252962Y-96984538D01*
X128118387Y-96874095D01*
X127964851Y-96792028D01*
X127798255Y-96741492D01*
X127625001Y-96724428D01*
X126374999Y-96724428D01*
X126201745Y-96741492D01*
X126035149Y-96792028D01*
X125885000Y-96872285D01*
X125885000Y-96052715D01*
X126035149Y-96132972D01*
X126201745Y-96183508D01*
X126374999Y-96200572D01*
X127625001Y-96200572D01*
X127798255Y-96183508D01*
X127964851Y-96132972D01*
X128118387Y-96050905D01*
X128252962Y-95940462D01*
X128363405Y-95805887D01*
X128445472Y-95652351D01*
X128496008Y-95485755D01*
X128513072Y-95312501D01*
X128513072Y-94512499D01*
X128496008Y-94339245D01*
X128445472Y-94172649D01*
X128363405Y-94019113D01*
X128252962Y-93884538D01*
X128118387Y-93774095D01*
X127964851Y-93692028D01*
X127798255Y-93641492D01*
X127625001Y-93624428D01*
X126374999Y-93624428D01*
X126201745Y-93641492D01*
X126035149Y-93692028D01*
X125881613Y-93774095D01*
X125747038Y-93884538D01*
X125636595Y-94019113D01*
X125585342Y-94115000D01*
X125543469Y-94115000D01*
X125500000Y-94110719D01*
X125456531Y-94115000D01*
X125456523Y-94115000D01*
X125326510Y-94127805D01*
X125159687Y-94178411D01*
X125005941Y-94260589D01*
X124871183Y-94371183D01*
X124843466Y-94404956D01*
X124435306Y-94813116D01*
X124438072Y-93900000D01*
X124425812Y-93775518D01*
X124389502Y-93655820D01*
X124330537Y-93545506D01*
X124251185Y-93448815D01*
X124154494Y-93369463D01*
X124044180Y-93310498D01*
X123924482Y-93274188D01*
X123800000Y-93261928D01*
X123285750Y-93265000D01*
X123127000Y-93423750D01*
X123127000Y-95073000D01*
X123147000Y-95073000D01*
X123147000Y-95327000D01*
X123127000Y-95327000D01*
X123127000Y-95347000D01*
X122873000Y-95347000D01*
X122873000Y-95327000D01*
X121723750Y-95327000D01*
X121565000Y-95485750D01*
X121561928Y-96500000D01*
X121574188Y-96624482D01*
X121610498Y-96744180D01*
X121669463Y-96854494D01*
X121748815Y-96951185D01*
X121845506Y-97030537D01*
X121898813Y-97059031D01*
X121822038Y-97122038D01*
X121711595Y-97256614D01*
X121629528Y-97410150D01*
X121578992Y-97576746D01*
X121561928Y-97750000D01*
X121561928Y-99850000D01*
X121578992Y-100023254D01*
X121629528Y-100189850D01*
X121711595Y-100343386D01*
X121822038Y-100477962D01*
X121956614Y-100588405D01*
X122110150Y-100670472D01*
X122276746Y-100721008D01*
X122450000Y-100738072D01*
X123550000Y-100738072D01*
X123723254Y-100721008D01*
X123889850Y-100670472D01*
X124043386Y-100588405D01*
X124177962Y-100477962D01*
X124288405Y-100343386D01*
X124370472Y-100189850D01*
X124421008Y-100023254D01*
X124438072Y-99850000D01*
X124438072Y-99652604D01*
X124540313Y-99621589D01*
X124694059Y-99539411D01*
X124828817Y-99428817D01*
X124856534Y-99395044D01*
X125541657Y-98709922D01*
X125554528Y-98752351D01*
X125636595Y-98905887D01*
X125747038Y-99040462D01*
X125881613Y-99150905D01*
X126035149Y-99232972D01*
X126115001Y-99257195D01*
X126115001Y-99456521D01*
X126110719Y-99500000D01*
X126127805Y-99673490D01*
X126178412Y-99840313D01*
X126260590Y-99994059D01*
X126343468Y-100095046D01*
X126343471Y-100095049D01*
X126371184Y-100128817D01*
X126404952Y-100156530D01*
X126843466Y-100595044D01*
X126871183Y-100628817D01*
X127005941Y-100739411D01*
X127159687Y-100821589D01*
X127326510Y-100872195D01*
X127456523Y-100885000D01*
X127456531Y-100885000D01*
X127500000Y-100889281D01*
X127543469Y-100885000D01*
X127701521Y-100885000D01*
X127747038Y-100940462D01*
X127881613Y-101050905D01*
X128035149Y-101132972D01*
X128201745Y-101183508D01*
X128374999Y-101200572D01*
X129625001Y-101200572D01*
X129798255Y-101183508D01*
X129900818Y-101152396D01*
X130115000Y-101366579D01*
X130115000Y-101872285D01*
X129964851Y-101792028D01*
X129798255Y-101741492D01*
X129625001Y-101724428D01*
X128374999Y-101724428D01*
X128201745Y-101741492D01*
X128035149Y-101792028D01*
X127881613Y-101874095D01*
X127747038Y-101984538D01*
X127636595Y-102119113D01*
X127554528Y-102272649D01*
X127503992Y-102439245D01*
X127495192Y-102528588D01*
X127372327Y-102231965D01*
X127079362Y-101793512D01*
X126706488Y-101420638D01*
X126268035Y-101127673D01*
X125780852Y-100925875D01*
X125263662Y-100823000D01*
X124736338Y-100823000D01*
X124219148Y-100925875D01*
X123731965Y-101127673D01*
X123293512Y-101420638D01*
X122920638Y-101793512D01*
X122627673Y-102231965D01*
X122425875Y-102719148D01*
X122323000Y-103236338D01*
X122323000Y-103763662D01*
X122425875Y-104280852D01*
X122627673Y-104768035D01*
X122912098Y-105193708D01*
X122765260Y-105254530D01*
X122165433Y-105655322D01*
X121655322Y-106165433D01*
X121254530Y-106765260D01*
X120978460Y-107431752D01*
X120837720Y-108139297D01*
X120837720Y-108860703D01*
X120978460Y-109568248D01*
X121254530Y-110234740D01*
X121655322Y-110834567D01*
X122165433Y-111344678D01*
X122341415Y-111462266D01*
X122300000Y-111461928D01*
X122175518Y-111474188D01*
X122055820Y-111510498D01*
X121945506Y-111569463D01*
X121848815Y-111648815D01*
X121769463Y-111745506D01*
X121710498Y-111855820D01*
X121674188Y-111975518D01*
X121661928Y-112100000D01*
X121665000Y-112714250D01*
X121823750Y-112873000D01*
X122835500Y-112873000D01*
X122835500Y-112853000D01*
X123089500Y-112853000D01*
X123089500Y-112873000D01*
X124101250Y-112873000D01*
X124260000Y-112714250D01*
X124262761Y-112162280D01*
X124808380Y-112162280D01*
X124803992Y-112176744D01*
X124786928Y-112349998D01*
X124786928Y-113650002D01*
X124803992Y-113823256D01*
X124854528Y-113989852D01*
X124936595Y-114143387D01*
X125047038Y-114277962D01*
X125181613Y-114388405D01*
X125335148Y-114470472D01*
X125501744Y-114521008D01*
X125674998Y-114538072D01*
X126500002Y-114538072D01*
X126673256Y-114521008D01*
X126839852Y-114470472D01*
X126993387Y-114388405D01*
X127127962Y-114277962D01*
X127238405Y-114143387D01*
X127320472Y-113989852D01*
X127352278Y-113885000D01*
X127625431Y-113885000D01*
X127636595Y-113905887D01*
X127747038Y-114040462D01*
X127881613Y-114150905D01*
X128035149Y-114232972D01*
X128201745Y-114283508D01*
X128374999Y-114300572D01*
X129625001Y-114300572D01*
X129798255Y-114283508D01*
X129964851Y-114232972D01*
X130118387Y-114150905D01*
X130252962Y-114040462D01*
X130363405Y-113905887D01*
X130445472Y-113752351D01*
X130453394Y-113726234D01*
X130569059Y-113664411D01*
X130703817Y-113553817D01*
X130731534Y-113520044D01*
X131077788Y-113173790D01*
X131105249Y-113207251D01*
X131224671Y-113305258D01*
X131360918Y-113378084D01*
X131508755Y-113422929D01*
X131662500Y-113438072D01*
X133337500Y-113438072D01*
X133491245Y-113422929D01*
X133639082Y-113378084D01*
X133775329Y-113305258D01*
X133894751Y-113207251D01*
X133992758Y-113087829D01*
X134065584Y-112951582D01*
X134110429Y-112803745D01*
X134125572Y-112650000D01*
X134125572Y-112350000D01*
X134110429Y-112196255D01*
X134065584Y-112048418D01*
X133992758Y-111912171D01*
X133954046Y-111865000D01*
X133992758Y-111817829D01*
X134065584Y-111681582D01*
X134110429Y-111533745D01*
X134125572Y-111380000D01*
X134125572Y-111080000D01*
X134110429Y-110926255D01*
X134085781Y-110845000D01*
X135693422Y-110845000D01*
X136440000Y-111591579D01*
X136440001Y-112931521D01*
X136435719Y-112975000D01*
X136452805Y-113148490D01*
X136503412Y-113315313D01*
X136585590Y-113469059D01*
X136668468Y-113570046D01*
X136668471Y-113570049D01*
X136696184Y-113603817D01*
X136729952Y-113631530D01*
X137193466Y-114095044D01*
X137221183Y-114128817D01*
X137355941Y-114239411D01*
X137509687Y-114321589D01*
X137676510Y-114372195D01*
X137806523Y-114385000D01*
X137806533Y-114385000D01*
X137849999Y-114389281D01*
X137893465Y-114385000D01*
X140956531Y-114385000D01*
X141000000Y-114389281D01*
X141043469Y-114385000D01*
X141043477Y-114385000D01*
X141173490Y-114372195D01*
X141340313Y-114321589D01*
X141494059Y-114239411D01*
X141628817Y-114128817D01*
X141656534Y-114095044D01*
X142116579Y-113635000D01*
X142685068Y-113635000D01*
X142770125Y-113680464D01*
X142860681Y-113717973D01*
X142980377Y-113754282D01*
X143076510Y-113773404D01*
X143200991Y-113785664D01*
X143225550Y-113785664D01*
X143250000Y-113788072D01*
X143750000Y-113788072D01*
X143774450Y-113785664D01*
X143799009Y-113785664D01*
X143923490Y-113773404D01*
X144019623Y-113754282D01*
X144139319Y-113717973D01*
X144229875Y-113680464D01*
X144340192Y-113621498D01*
X144421691Y-113567042D01*
X144460734Y-113535000D01*
X145183422Y-113535000D01*
X145443466Y-113795044D01*
X145471183Y-113828817D01*
X145605941Y-113939411D01*
X145759687Y-114021589D01*
X145926510Y-114072195D01*
X146056523Y-114085000D01*
X146056533Y-114085000D01*
X146099999Y-114089281D01*
X146113005Y-114088000D01*
X146115000Y-114714250D01*
X146273750Y-114873000D01*
X147873000Y-114873000D01*
X147873000Y-114853000D01*
X148127000Y-114853000D01*
X148127000Y-114873000D01*
X149726250Y-114873000D01*
X149885000Y-114714250D01*
X149887005Y-114085000D01*
X150356531Y-114085000D01*
X150400000Y-114089281D01*
X150443469Y-114085000D01*
X150443477Y-114085000D01*
X150573490Y-114072195D01*
X150740313Y-114021589D01*
X150894059Y-113939411D01*
X151028817Y-113828817D01*
X151056534Y-113795044D01*
X153295049Y-111556530D01*
X153328817Y-111528817D01*
X153357244Y-111494180D01*
X153435775Y-111398489D01*
X153439411Y-111394059D01*
X153521589Y-111240313D01*
X153572195Y-111073490D01*
X153585000Y-110943477D01*
X153585000Y-110943467D01*
X153589281Y-110900001D01*
X153585000Y-110856535D01*
X153585000Y-110236338D01*
X162823000Y-110236338D01*
X162823000Y-110763662D01*
X162925875Y-111280852D01*
X163127673Y-111768035D01*
X163420638Y-112206488D01*
X163793512Y-112579362D01*
X164231965Y-112872327D01*
X164719148Y-113074125D01*
X165236338Y-113177000D01*
X165763662Y-113177000D01*
X166280852Y-113074125D01*
X166768035Y-112872327D01*
X167206488Y-112579362D01*
X167579362Y-112206488D01*
X167872327Y-111768035D01*
X168074125Y-111280852D01*
X168177000Y-110763662D01*
X168177000Y-110236338D01*
X168104761Y-109873165D01*
X168254530Y-110234740D01*
X168655322Y-110834567D01*
X169165433Y-111344678D01*
X169765260Y-111745470D01*
X170431752Y-112021540D01*
X171139297Y-112162280D01*
X171860703Y-112162280D01*
X172568248Y-112021540D01*
X173234740Y-111745470D01*
X173834567Y-111344678D01*
X174344678Y-110834567D01*
X174745470Y-110234740D01*
X175021540Y-109568248D01*
X175162280Y-108860703D01*
X175162280Y-108139297D01*
X175021540Y-107431752D01*
X174745470Y-106765260D01*
X174344678Y-106165433D01*
X173834567Y-105655322D01*
X173234740Y-105254530D01*
X172568248Y-104978460D01*
X171860703Y-104837720D01*
X171139297Y-104837720D01*
X170431752Y-104978460D01*
X169765260Y-105254530D01*
X169165433Y-105655322D01*
X168655322Y-106165433D01*
X168254530Y-106765260D01*
X167978460Y-107431752D01*
X167837720Y-108139297D01*
X167837720Y-108860703D01*
X167947824Y-109414230D01*
X167872327Y-109231965D01*
X167579362Y-108793512D01*
X167206488Y-108420638D01*
X166768035Y-108127673D01*
X166280852Y-107925875D01*
X165763662Y-107823000D01*
X165236338Y-107823000D01*
X164719148Y-107925875D01*
X164231965Y-108127673D01*
X163793512Y-108420638D01*
X163420638Y-108793512D01*
X163127673Y-109231965D01*
X162925875Y-109719148D01*
X162823000Y-110236338D01*
X153585000Y-110236338D01*
X153585000Y-107450000D01*
X158911928Y-107450000D01*
X158924188Y-107574482D01*
X158960498Y-107694180D01*
X159019463Y-107804494D01*
X159098815Y-107901185D01*
X159195506Y-107980537D01*
X159305820Y-108039502D01*
X159425518Y-108075812D01*
X159550000Y-108088072D01*
X160514250Y-108085000D01*
X160673000Y-107926250D01*
X160673000Y-106327000D01*
X160927000Y-106327000D01*
X160927000Y-107926250D01*
X161085750Y-108085000D01*
X162050000Y-108088072D01*
X162174482Y-108075812D01*
X162294180Y-108039502D01*
X162404494Y-107980537D01*
X162501185Y-107901185D01*
X162580537Y-107804494D01*
X162639502Y-107694180D01*
X162675812Y-107574482D01*
X162688072Y-107450000D01*
X162685000Y-106485750D01*
X162526250Y-106327000D01*
X160927000Y-106327000D01*
X160673000Y-106327000D01*
X159073750Y-106327000D01*
X158915000Y-106485750D01*
X158911928Y-107450000D01*
X153585000Y-107450000D01*
X153585000Y-106066578D01*
X154466579Y-105185000D01*
X158912677Y-105185000D01*
X158915000Y-105914250D01*
X159073750Y-106073000D01*
X160673000Y-106073000D01*
X160673000Y-106053000D01*
X160927000Y-106053000D01*
X160927000Y-106073000D01*
X162526250Y-106073000D01*
X162685000Y-105914250D01*
X162687323Y-105185000D01*
X163156531Y-105185000D01*
X163200000Y-105189281D01*
X163243469Y-105185000D01*
X163243477Y-105185000D01*
X163373490Y-105172195D01*
X163540313Y-105121589D01*
X163694059Y-105039411D01*
X163828817Y-104928817D01*
X163856534Y-104895044D01*
X165066579Y-103685000D01*
X165656524Y-103685000D01*
X165700000Y-103689282D01*
X165743477Y-103685000D01*
X165955306Y-103685000D01*
X165979528Y-103764851D01*
X166061595Y-103918387D01*
X166172038Y-104052962D01*
X166306613Y-104163405D01*
X166460149Y-104245472D01*
X166626745Y-104296008D01*
X166799999Y-104313072D01*
X167600001Y-104313072D01*
X167773255Y-104296008D01*
X167939851Y-104245472D01*
X168093387Y-104163405D01*
X168227962Y-104052962D01*
X168338405Y-103918387D01*
X168420472Y-103764851D01*
X168471008Y-103598255D01*
X168488072Y-103425001D01*
X168488072Y-102174999D01*
X168471008Y-102001745D01*
X168420472Y-101835149D01*
X168338405Y-101681613D01*
X168227962Y-101547038D01*
X168093387Y-101436595D01*
X168049923Y-101413363D01*
X168143387Y-101363405D01*
X168277962Y-101252962D01*
X168388405Y-101118387D01*
X168470472Y-100964851D01*
X168521008Y-100798255D01*
X168538072Y-100625001D01*
X168538072Y-99374999D01*
X168521008Y-99201745D01*
X168470472Y-99035149D01*
X168388405Y-98881613D01*
X168277962Y-98747038D01*
X168143387Y-98636595D01*
X168135000Y-98632112D01*
X168135000Y-97867888D01*
X168143387Y-97863405D01*
X168277962Y-97752962D01*
X168388405Y-97618387D01*
X168470472Y-97464851D01*
X168521008Y-97298255D01*
X168538072Y-97125001D01*
X168538072Y-95874999D01*
X168521008Y-95701745D01*
X168470472Y-95535149D01*
X168388405Y-95381613D01*
X168277962Y-95247038D01*
X168143387Y-95136595D01*
X167989851Y-95054528D01*
X167823255Y-95003992D01*
X167650001Y-94986928D01*
X166849999Y-94986928D01*
X166676745Y-95003992D01*
X166585000Y-95031822D01*
X166585000Y-94843465D01*
X166589281Y-94799999D01*
X166585000Y-94756533D01*
X166585000Y-94756523D01*
X166572195Y-94626510D01*
X166521589Y-94459687D01*
X166439411Y-94305941D01*
X166328817Y-94171183D01*
X166295045Y-94143467D01*
X165956537Y-93804959D01*
X165956532Y-93804953D01*
X165465000Y-93313422D01*
X165465000Y-93042201D01*
X165550000Y-93050572D01*
X165564250Y-93047500D01*
X165723000Y-92888750D01*
X165723000Y-91552000D01*
X165703000Y-91552000D01*
X165703000Y-91298000D01*
X165723000Y-91298000D01*
X165723000Y-91278000D01*
X165977000Y-91278000D01*
X165977000Y-91298000D01*
X165997000Y-91298000D01*
X165997000Y-91552000D01*
X165977000Y-91552000D01*
X165977000Y-92888750D01*
X166135750Y-93047500D01*
X166150000Y-93050572D01*
X166274482Y-93038312D01*
X166394180Y-93002002D01*
X166504494Y-92943037D01*
X166534064Y-92918770D01*
X166668418Y-92990584D01*
X166816255Y-93035429D01*
X166970000Y-93050572D01*
X167270000Y-93050572D01*
X167423745Y-93035429D01*
X167571582Y-92990584D01*
X167705936Y-92918770D01*
X167735506Y-92943037D01*
X167845820Y-93002002D01*
X167965518Y-93038312D01*
X168090000Y-93050572D01*
X168104250Y-93047500D01*
X168263000Y-92888750D01*
X168263000Y-91552000D01*
X168243000Y-91552000D01*
X168243000Y-91298000D01*
X168263000Y-91298000D01*
X168263000Y-89961250D01*
X168104250Y-89802500D01*
X168090000Y-89799428D01*
X167965518Y-89811688D01*
X167890656Y-89834397D01*
X167859411Y-89775941D01*
X167807396Y-89712561D01*
X167776532Y-89674953D01*
X167776530Y-89674951D01*
X167748817Y-89641183D01*
X167715049Y-89613470D01*
X167586579Y-89485000D01*
X168833422Y-89485000D01*
X169177660Y-89829239D01*
X169115820Y-89847998D01*
X169025000Y-89896543D01*
X168934180Y-89847998D01*
X168814482Y-89811688D01*
X168690000Y-89799428D01*
X168675750Y-89802500D01*
X168517000Y-89961250D01*
X168517000Y-91298000D01*
X169533000Y-91298000D01*
X169533000Y-91278000D01*
X169787000Y-91278000D01*
X169787000Y-91298000D01*
X169807000Y-91298000D01*
X169807000Y-91552000D01*
X169787000Y-91552000D01*
X169787000Y-91572000D01*
X169533000Y-91572000D01*
X169533000Y-91552000D01*
X168517000Y-91552000D01*
X168517000Y-92888750D01*
X168675750Y-93047500D01*
X168690000Y-93050572D01*
X168814482Y-93038312D01*
X168934180Y-93002002D01*
X169025000Y-92953457D01*
X169115820Y-93002002D01*
X169235518Y-93038312D01*
X169360000Y-93050572D01*
X169374250Y-93047500D01*
X169532998Y-92888752D01*
X169532998Y-93017712D01*
X169465466Y-93100000D01*
X169460590Y-93105941D01*
X169450854Y-93124155D01*
X169401745Y-93128992D01*
X169235149Y-93179528D01*
X169081613Y-93261595D01*
X168947038Y-93372038D01*
X168836595Y-93506613D01*
X168754528Y-93660149D01*
X168703992Y-93826745D01*
X168686928Y-93999999D01*
X168686928Y-94800001D01*
X168703992Y-94973255D01*
X168754528Y-95139851D01*
X168836595Y-95293387D01*
X168947038Y-95427962D01*
X169081613Y-95538405D01*
X169235149Y-95620472D01*
X169401745Y-95671008D01*
X169574999Y-95688072D01*
X170825001Y-95688072D01*
X170998255Y-95671008D01*
X171164851Y-95620472D01*
X171318387Y-95538405D01*
X171452962Y-95427962D01*
X171563405Y-95293387D01*
X171645472Y-95139851D01*
X171696008Y-94973255D01*
X171713072Y-94800001D01*
X171713072Y-93999999D01*
X171696008Y-93826745D01*
X171645472Y-93660149D01*
X171563405Y-93506613D01*
X171516621Y-93449607D01*
X171521589Y-93440313D01*
X171572195Y-93273490D01*
X171585000Y-93143477D01*
X171585000Y-93143469D01*
X171589281Y-93100000D01*
X171585000Y-93056531D01*
X171585000Y-90636579D01*
X172311928Y-91363507D01*
X172311928Y-91720000D01*
X172333796Y-91942027D01*
X172398559Y-92155521D01*
X172503728Y-92352279D01*
X172645262Y-92524738D01*
X172817721Y-92666272D01*
X173014479Y-92771441D01*
X173227973Y-92836204D01*
X173450000Y-92858072D01*
X174950000Y-92858072D01*
X175172027Y-92836204D01*
X175340001Y-92785250D01*
X175340001Y-95971808D01*
X175078715Y-95832148D01*
X174770516Y-95738657D01*
X174530322Y-95715000D01*
X173869678Y-95715000D01*
X173629484Y-95738657D01*
X173321285Y-95832148D01*
X173037248Y-95983969D01*
X172788286Y-96188286D01*
X172583969Y-96437248D01*
X172569135Y-96465000D01*
X171593466Y-96465000D01*
X171549999Y-96460719D01*
X171506533Y-96465000D01*
X171506523Y-96465000D01*
X171451044Y-96470464D01*
X171318387Y-96361595D01*
X171164851Y-96279528D01*
X170998255Y-96228992D01*
X170825001Y-96211928D01*
X169574999Y-96211928D01*
X169401745Y-96228992D01*
X169235149Y-96279528D01*
X169081613Y-96361595D01*
X168947038Y-96472038D01*
X168836595Y-96606613D01*
X168754528Y-96760149D01*
X168703992Y-96926745D01*
X168686928Y-97099999D01*
X168686928Y-97900001D01*
X168703992Y-98073255D01*
X168754528Y-98239851D01*
X168836595Y-98393387D01*
X168947038Y-98527962D01*
X169081613Y-98638405D01*
X169235149Y-98720472D01*
X169322224Y-98746886D01*
X169322038Y-98747038D01*
X169211595Y-98881613D01*
X169129528Y-99035149D01*
X169078992Y-99201745D01*
X169061928Y-99374999D01*
X169061928Y-100625001D01*
X169078992Y-100798255D01*
X169129528Y-100964851D01*
X169211595Y-101118387D01*
X169322038Y-101252962D01*
X169456613Y-101363405D01*
X169500077Y-101386637D01*
X169406613Y-101436595D01*
X169272038Y-101547038D01*
X169161595Y-101681613D01*
X169079528Y-101835149D01*
X169028992Y-102001745D01*
X169011928Y-102174999D01*
X169011928Y-103425001D01*
X169028992Y-103598255D01*
X169079528Y-103764851D01*
X169161595Y-103918387D01*
X169272038Y-104052962D01*
X169406613Y-104163405D01*
X169560149Y-104245472D01*
X169726745Y-104296008D01*
X169899999Y-104313072D01*
X170700001Y-104313072D01*
X170873255Y-104296008D01*
X171039851Y-104245472D01*
X171193387Y-104163405D01*
X171327962Y-104052962D01*
X171438405Y-103918387D01*
X171520472Y-103764851D01*
X171544694Y-103685000D01*
X171716531Y-103685000D01*
X171760000Y-103689281D01*
X171803469Y-103685000D01*
X171803477Y-103685000D01*
X171933490Y-103672195D01*
X172100313Y-103621589D01*
X172254059Y-103539411D01*
X172388817Y-103428817D01*
X172416534Y-103395044D01*
X172496578Y-103315000D01*
X172569135Y-103315000D01*
X172583969Y-103342752D01*
X172788286Y-103591714D01*
X173037248Y-103796031D01*
X173321285Y-103947852D01*
X173629484Y-104041343D01*
X173869678Y-104065000D01*
X174530322Y-104065000D01*
X174770516Y-104041343D01*
X175078715Y-103947852D01*
X175340000Y-103808192D01*
X175340000Y-111970608D01*
X175268827Y-112768083D01*
X175065344Y-113511890D01*
X174733363Y-114207904D01*
X174283374Y-114834130D01*
X173729597Y-115370777D01*
X173089549Y-115800871D01*
X172383447Y-116110829D01*
X171628543Y-116292065D01*
X170975793Y-116340000D01*
X149879208Y-116340000D01*
X149888072Y-116250000D01*
X149885000Y-115285750D01*
X149726250Y-115127000D01*
X148127000Y-115127000D01*
X148127000Y-115147000D01*
X147873000Y-115147000D01*
X147873000Y-115127000D01*
X146273750Y-115127000D01*
X146115000Y-115285750D01*
X146111928Y-116250000D01*
X146120792Y-116340000D01*
X123029392Y-116340000D01*
X122231917Y-116268827D01*
X121488110Y-116065344D01*
X120792096Y-115733363D01*
X120165870Y-115283374D01*
X119629223Y-114729597D01*
X119199129Y-114089549D01*
X119115923Y-113900000D01*
X121661928Y-113900000D01*
X121674188Y-114024482D01*
X121710498Y-114144180D01*
X121769463Y-114254494D01*
X121848815Y-114351185D01*
X121945506Y-114430537D01*
X122055820Y-114489502D01*
X122175518Y-114525812D01*
X122300000Y-114538072D01*
X122676750Y-114535000D01*
X122835500Y-114376250D01*
X122835500Y-113127000D01*
X123089500Y-113127000D01*
X123089500Y-114376250D01*
X123248250Y-114535000D01*
X123625000Y-114538072D01*
X123749482Y-114525812D01*
X123869180Y-114489502D01*
X123979494Y-114430537D01*
X124076185Y-114351185D01*
X124155537Y-114254494D01*
X124214502Y-114144180D01*
X124250812Y-114024482D01*
X124263072Y-113900000D01*
X124260000Y-113285750D01*
X124101250Y-113127000D01*
X123089500Y-113127000D01*
X122835500Y-113127000D01*
X121823750Y-113127000D01*
X121665000Y-113285750D01*
X121661928Y-113900000D01*
X119115923Y-113900000D01*
X118889171Y-113383447D01*
X118707935Y-112628543D01*
X118660000Y-111975793D01*
X118660000Y-93900000D01*
X121561928Y-93900000D01*
X121565000Y-94914250D01*
X121723750Y-95073000D01*
X122873000Y-95073000D01*
X122873000Y-93423750D01*
X122714250Y-93265000D01*
X122200000Y-93261928D01*
X122075518Y-93274188D01*
X121955820Y-93310498D01*
X121845506Y-93369463D01*
X121748815Y-93448815D01*
X121669463Y-93545506D01*
X121610498Y-93655820D01*
X121574188Y-93775518D01*
X121561928Y-93900000D01*
X118660000Y-93900000D01*
X118660000Y-75079566D01*
X119359876Y-75079566D01*
X119479223Y-75333000D01*
X121073000Y-75333000D01*
X121073000Y-73978984D01*
X120814970Y-73821181D01*
X120497847Y-73879013D01*
X120198100Y-73997602D01*
X119927248Y-74172390D01*
X119695700Y-74396660D01*
X119512354Y-74661794D01*
X119384256Y-74957602D01*
X119359876Y-75079566D01*
X118660000Y-75079566D01*
X118660000Y-72722476D01*
X118727248Y-72787610D01*
X118998100Y-72962398D01*
X119297847Y-73080987D01*
X119614970Y-73138819D01*
X119873000Y-72981016D01*
X119873000Y-71627000D01*
X119853000Y-71627000D01*
X119853000Y-71373000D01*
X119873000Y-71373000D01*
X119873000Y-71353000D01*
X120127000Y-71353000D01*
X120127000Y-71373000D01*
X121720777Y-71373000D01*
X121840124Y-71119566D01*
X121815744Y-70997602D01*
X121687646Y-70701794D01*
X121635924Y-70627000D01*
X122000000Y-70627000D01*
X122024776Y-70624560D01*
X122048601Y-70617333D01*
X122070557Y-70605597D01*
X122089803Y-70589803D01*
X125252606Y-67427000D01*
X126275421Y-67427000D01*
X126815001Y-67966580D01*
G04 #@! TA.AperFunction,Conductor*
D24*
G36*
X126815001Y-67966580D02*
G01*
X126815001Y-68373000D01*
X126712420Y-68373000D01*
X126600000Y-68361928D01*
X126085750Y-68365000D01*
X126077750Y-68373000D01*
X125522250Y-68373000D01*
X125514250Y-68365000D01*
X125000000Y-68361928D01*
X124875518Y-68374188D01*
X124755820Y-68410498D01*
X124645506Y-68469463D01*
X124548815Y-68548815D01*
X124469463Y-68645506D01*
X124410498Y-68755820D01*
X124374188Y-68875518D01*
X124361928Y-69000000D01*
X124362795Y-69286413D01*
X121754656Y-71698942D01*
X121720777Y-71627000D01*
X120127000Y-71627000D01*
X120127000Y-72981016D01*
X120385030Y-73138819D01*
X120702153Y-73080987D01*
X121001900Y-72962398D01*
X121272752Y-72787610D01*
X121273000Y-72787370D01*
X121273000Y-74500000D01*
X121275440Y-74524776D01*
X121282667Y-74548601D01*
X121294403Y-74570557D01*
X121310197Y-74589803D01*
X121327000Y-74603592D01*
X121327000Y-75333000D01*
X122920777Y-75333000D01*
X123040124Y-75079566D01*
X123015744Y-74957602D01*
X122887646Y-74661794D01*
X122704300Y-74396660D01*
X122472752Y-74172390D01*
X122201900Y-73997602D01*
X122027000Y-73928406D01*
X122027000Y-72504664D01*
X124507653Y-70156903D01*
X124523750Y-70173000D01*
X125673000Y-70173000D01*
X125673000Y-69927000D01*
X125927000Y-69927000D01*
X125927000Y-70173000D01*
X125947000Y-70173000D01*
X125947000Y-70427000D01*
X125927000Y-70427000D01*
X125927000Y-70447000D01*
X125673000Y-70447000D01*
X125673000Y-70427000D01*
X124523750Y-70427000D01*
X124365000Y-70585750D01*
X124361928Y-71600000D01*
X124374188Y-71724482D01*
X124410498Y-71844180D01*
X124469463Y-71954494D01*
X124548815Y-72051185D01*
X124645506Y-72130537D01*
X124698813Y-72159031D01*
X124622038Y-72222038D01*
X124511595Y-72356614D01*
X124429528Y-72510150D01*
X124378992Y-72676746D01*
X124361928Y-72850000D01*
X124361928Y-74950000D01*
X124378992Y-75123254D01*
X124429528Y-75289850D01*
X124511595Y-75443386D01*
X124622038Y-75577962D01*
X124756614Y-75688405D01*
X124910150Y-75770472D01*
X124961996Y-75786199D01*
X124978411Y-75840312D01*
X125060589Y-75994058D01*
X125171183Y-76128817D01*
X125204956Y-76156534D01*
X125673000Y-76624578D01*
X125673000Y-79571580D01*
X125575000Y-79561928D01*
X125198250Y-79565000D01*
X125039500Y-79723750D01*
X125039500Y-80973000D01*
X125059500Y-80973000D01*
X125059500Y-81227000D01*
X125039500Y-81227000D01*
X125039500Y-81247000D01*
X124785500Y-81247000D01*
X124785500Y-81227000D01*
X123773750Y-81227000D01*
X123615000Y-81385750D01*
X123611928Y-82000000D01*
X123624188Y-82124482D01*
X123633691Y-82155809D01*
X122979922Y-82165714D01*
X123020472Y-82089852D01*
X123071008Y-81923256D01*
X123088072Y-81750002D01*
X123088072Y-80449998D01*
X123071008Y-80276744D01*
X123047729Y-80200000D01*
X123611928Y-80200000D01*
X123615000Y-80814250D01*
X123773750Y-80973000D01*
X124785500Y-80973000D01*
X124785500Y-79723750D01*
X124626750Y-79565000D01*
X124250000Y-79561928D01*
X124125518Y-79574188D01*
X124005820Y-79610498D01*
X123895506Y-79669463D01*
X123798815Y-79748815D01*
X123719463Y-79845506D01*
X123660498Y-79955820D01*
X123624188Y-80075518D01*
X123611928Y-80200000D01*
X123047729Y-80200000D01*
X123020472Y-80110148D01*
X122938405Y-79956613D01*
X122827962Y-79822038D01*
X122693387Y-79711595D01*
X122675357Y-79701958D01*
X122676781Y-79687499D01*
X122672500Y-79644033D01*
X122672500Y-79644023D01*
X122659695Y-79514010D01*
X122609089Y-79347187D01*
X122540980Y-79219763D01*
X122611714Y-79161714D01*
X122816031Y-78912752D01*
X122967852Y-78628715D01*
X123061343Y-78320516D01*
X123092911Y-78000000D01*
X123061343Y-77679484D01*
X122967852Y-77371285D01*
X122816031Y-77087248D01*
X122611714Y-76838286D01*
X122485812Y-76734961D01*
X122704300Y-76523340D01*
X122887646Y-76258206D01*
X123015744Y-75962398D01*
X123040124Y-75840434D01*
X122920777Y-75587000D01*
X121327000Y-75587000D01*
X121327000Y-75607000D01*
X121073000Y-75607000D01*
X121073000Y-75587000D01*
X119479223Y-75587000D01*
X119359876Y-75840434D01*
X119384256Y-75962398D01*
X119512354Y-76258206D01*
X119695700Y-76523340D01*
X119914188Y-76734961D01*
X119788286Y-76838286D01*
X119583969Y-77087248D01*
X119432148Y-77371285D01*
X119338657Y-77679484D01*
X119307089Y-78000000D01*
X119338657Y-78320516D01*
X119432148Y-78628715D01*
X119583969Y-78912752D01*
X119788286Y-79161714D01*
X120037248Y-79366031D01*
X120321285Y-79517852D01*
X120438932Y-79553540D01*
X120460590Y-79594059D01*
X120543468Y-79695046D01*
X120543471Y-79695049D01*
X120571184Y-79728817D01*
X120604952Y-79756530D01*
X120712520Y-79864098D01*
X120636595Y-79956613D01*
X120554528Y-80110148D01*
X120503992Y-80276744D01*
X120486928Y-80449998D01*
X120486928Y-81750002D01*
X120503992Y-81923256D01*
X120554528Y-82089852D01*
X120636595Y-82243387D01*
X120747038Y-82377962D01*
X120881613Y-82488405D01*
X120902501Y-82499570D01*
X120902501Y-82594013D01*
X120902500Y-82594023D01*
X120902500Y-83394031D01*
X120898219Y-83437500D01*
X120902500Y-83480969D01*
X120902500Y-83480976D01*
X120907212Y-83528817D01*
X120915305Y-83610990D01*
X120917373Y-83617806D01*
X120965911Y-83777812D01*
X121048089Y-83931558D01*
X121158683Y-84066317D01*
X121192456Y-84094034D01*
X121761928Y-84663506D01*
X121761928Y-85900000D01*
X121778992Y-86073254D01*
X121829528Y-86239850D01*
X121911595Y-86393386D01*
X122022038Y-86527962D01*
X122156614Y-86638405D01*
X122178307Y-86650000D01*
X122156614Y-86661595D01*
X122022038Y-86772038D01*
X121911595Y-86906614D01*
X121829528Y-87060150D01*
X121778992Y-87226746D01*
X121761928Y-87400000D01*
X121761928Y-89500000D01*
X121778992Y-89673254D01*
X121829528Y-89839850D01*
X121911595Y-89993386D01*
X122022038Y-90127962D01*
X122156614Y-90238405D01*
X122310150Y-90320472D01*
X122315001Y-90321943D01*
X122315001Y-90656521D01*
X122310719Y-90700000D01*
X122327805Y-90873490D01*
X122378412Y-91040313D01*
X122460590Y-91194059D01*
X122543468Y-91295046D01*
X122543471Y-91295049D01*
X122571184Y-91328817D01*
X122604951Y-91356529D01*
X124143470Y-92895049D01*
X124171183Y-92928817D01*
X124204951Y-92956530D01*
X124204953Y-92956532D01*
X124294271Y-93029834D01*
X124305941Y-93039411D01*
X124459687Y-93121589D01*
X124626510Y-93172195D01*
X124756523Y-93185000D01*
X124756531Y-93185000D01*
X124800000Y-93189281D01*
X124843469Y-93185000D01*
X128433422Y-93185000D01*
X129115000Y-93866579D01*
X129115001Y-96556521D01*
X129110719Y-96600000D01*
X129127805Y-96773490D01*
X129178412Y-96940313D01*
X129260590Y-97094059D01*
X129343468Y-97195046D01*
X129343471Y-97195049D01*
X129371184Y-97228817D01*
X129404952Y-97256530D01*
X133915000Y-101766579D01*
X133915001Y-102839378D01*
X133841994Y-102779463D01*
X133731680Y-102720498D01*
X133611982Y-102684188D01*
X133487500Y-102671928D01*
X132785750Y-102675000D01*
X132627000Y-102833750D01*
X132627000Y-103483000D01*
X132647000Y-103483000D01*
X132647000Y-103737000D01*
X132627000Y-103737000D01*
X132627000Y-103757000D01*
X132373000Y-103757000D01*
X132373000Y-103737000D01*
X132353000Y-103737000D01*
X132353000Y-103483000D01*
X132373000Y-103483000D01*
X132373000Y-102833750D01*
X132214250Y-102675000D01*
X131885000Y-102673559D01*
X131885000Y-101043468D01*
X131889281Y-101000000D01*
X131885000Y-100956531D01*
X131885000Y-100956523D01*
X131872195Y-100826510D01*
X131856569Y-100775000D01*
X131821589Y-100659686D01*
X131739411Y-100505941D01*
X131656532Y-100404953D01*
X131656530Y-100404951D01*
X131628817Y-100371183D01*
X131595050Y-100343471D01*
X130656532Y-99404954D01*
X130628817Y-99371183D01*
X130494059Y-99260589D01*
X130467908Y-99246611D01*
X130445472Y-99172649D01*
X130363405Y-99019113D01*
X130252962Y-98884538D01*
X130118387Y-98774095D01*
X129964851Y-98692028D01*
X129798255Y-98641492D01*
X129625001Y-98624428D01*
X128484277Y-98624428D01*
X128496008Y-98585755D01*
X128513072Y-98412501D01*
X128513072Y-97612499D01*
X128496008Y-97439245D01*
X128445472Y-97272649D01*
X128363405Y-97119113D01*
X128252962Y-96984538D01*
X128118387Y-96874095D01*
X127964851Y-96792028D01*
X127798255Y-96741492D01*
X127625001Y-96724428D01*
X126374999Y-96724428D01*
X126201745Y-96741492D01*
X126035149Y-96792028D01*
X125885000Y-96872285D01*
X125885000Y-96052715D01*
X126035149Y-96132972D01*
X126201745Y-96183508D01*
X126374999Y-96200572D01*
X127625001Y-96200572D01*
X127798255Y-96183508D01*
X127964851Y-96132972D01*
X128118387Y-96050905D01*
X128252962Y-95940462D01*
X128363405Y-95805887D01*
X128445472Y-95652351D01*
X128496008Y-95485755D01*
X128513072Y-95312501D01*
X128513072Y-94512499D01*
X128496008Y-94339245D01*
X128445472Y-94172649D01*
X128363405Y-94019113D01*
X128252962Y-93884538D01*
X128118387Y-93774095D01*
X127964851Y-93692028D01*
X127798255Y-93641492D01*
X127625001Y-93624428D01*
X126374999Y-93624428D01*
X126201745Y-93641492D01*
X126035149Y-93692028D01*
X125881613Y-93774095D01*
X125747038Y-93884538D01*
X125636595Y-94019113D01*
X125585342Y-94115000D01*
X125543469Y-94115000D01*
X125500000Y-94110719D01*
X125456531Y-94115000D01*
X125456523Y-94115000D01*
X125326510Y-94127805D01*
X125159687Y-94178411D01*
X125005941Y-94260589D01*
X124871183Y-94371183D01*
X124843466Y-94404956D01*
X124435306Y-94813116D01*
X124438072Y-93900000D01*
X124425812Y-93775518D01*
X124389502Y-93655820D01*
X124330537Y-93545506D01*
X124251185Y-93448815D01*
X124154494Y-93369463D01*
X124044180Y-93310498D01*
X123924482Y-93274188D01*
X123800000Y-93261928D01*
X123285750Y-93265000D01*
X123127000Y-93423750D01*
X123127000Y-95073000D01*
X123147000Y-95073000D01*
X123147000Y-95327000D01*
X123127000Y-95327000D01*
X123127000Y-95347000D01*
X122873000Y-95347000D01*
X122873000Y-95327000D01*
X121723750Y-95327000D01*
X121565000Y-95485750D01*
X121561928Y-96500000D01*
X121574188Y-96624482D01*
X121610498Y-96744180D01*
X121669463Y-96854494D01*
X121748815Y-96951185D01*
X121845506Y-97030537D01*
X121898813Y-97059031D01*
X121822038Y-97122038D01*
X121711595Y-97256614D01*
X121629528Y-97410150D01*
X121578992Y-97576746D01*
X121561928Y-97750000D01*
X121561928Y-99850000D01*
X121578992Y-100023254D01*
X121629528Y-100189850D01*
X121711595Y-100343386D01*
X121822038Y-100477962D01*
X121956614Y-100588405D01*
X122110150Y-100670472D01*
X122276746Y-100721008D01*
X122450000Y-100738072D01*
X123550000Y-100738072D01*
X123723254Y-100721008D01*
X123889850Y-100670472D01*
X124043386Y-100588405D01*
X124177962Y-100477962D01*
X124288405Y-100343386D01*
X124370472Y-100189850D01*
X124421008Y-100023254D01*
X124438072Y-99850000D01*
X124438072Y-99652604D01*
X124540313Y-99621589D01*
X124694059Y-99539411D01*
X124828817Y-99428817D01*
X124856534Y-99395044D01*
X125541657Y-98709922D01*
X125554528Y-98752351D01*
X125636595Y-98905887D01*
X125747038Y-99040462D01*
X125881613Y-99150905D01*
X126035149Y-99232972D01*
X126115001Y-99257195D01*
X126115001Y-99456521D01*
X126110719Y-99500000D01*
X126127805Y-99673490D01*
X126178412Y-99840313D01*
X126260590Y-99994059D01*
X126343468Y-100095046D01*
X126343471Y-100095049D01*
X126371184Y-100128817D01*
X126404952Y-100156530D01*
X126843466Y-100595044D01*
X126871183Y-100628817D01*
X127005941Y-100739411D01*
X127159687Y-100821589D01*
X127326510Y-100872195D01*
X127456523Y-100885000D01*
X127456531Y-100885000D01*
X127500000Y-100889281D01*
X127543469Y-100885000D01*
X127701521Y-100885000D01*
X127747038Y-100940462D01*
X127881613Y-101050905D01*
X128035149Y-101132972D01*
X128201745Y-101183508D01*
X128374999Y-101200572D01*
X129625001Y-101200572D01*
X129798255Y-101183508D01*
X129900818Y-101152396D01*
X130115000Y-101366579D01*
X130115000Y-101872285D01*
X129964851Y-101792028D01*
X129798255Y-101741492D01*
X129625001Y-101724428D01*
X128374999Y-101724428D01*
X128201745Y-101741492D01*
X128035149Y-101792028D01*
X127881613Y-101874095D01*
X127747038Y-101984538D01*
X127636595Y-102119113D01*
X127554528Y-102272649D01*
X127503992Y-102439245D01*
X127495192Y-102528588D01*
X127372327Y-102231965D01*
X127079362Y-101793512D01*
X126706488Y-101420638D01*
X126268035Y-101127673D01*
X125780852Y-100925875D01*
X125263662Y-100823000D01*
X124736338Y-100823000D01*
X124219148Y-100925875D01*
X123731965Y-101127673D01*
X123293512Y-101420638D01*
X122920638Y-101793512D01*
X122627673Y-102231965D01*
X122425875Y-102719148D01*
X122323000Y-103236338D01*
X122323000Y-103763662D01*
X122425875Y-104280852D01*
X122627673Y-104768035D01*
X122912098Y-105193708D01*
X122765260Y-105254530D01*
X122165433Y-105655322D01*
X121655322Y-106165433D01*
X121254530Y-106765260D01*
X120978460Y-107431752D01*
X120837720Y-108139297D01*
X120837720Y-108860703D01*
X120978460Y-109568248D01*
X121254530Y-110234740D01*
X121655322Y-110834567D01*
X122165433Y-111344678D01*
X122341415Y-111462266D01*
X122300000Y-111461928D01*
X122175518Y-111474188D01*
X122055820Y-111510498D01*
X121945506Y-111569463D01*
X121848815Y-111648815D01*
X121769463Y-111745506D01*
X121710498Y-111855820D01*
X121674188Y-111975518D01*
X121661928Y-112100000D01*
X121665000Y-112714250D01*
X121823750Y-112873000D01*
X122835500Y-112873000D01*
X122835500Y-112853000D01*
X123089500Y-112853000D01*
X123089500Y-112873000D01*
X124101250Y-112873000D01*
X124260000Y-112714250D01*
X124262761Y-112162280D01*
X124808380Y-112162280D01*
X124803992Y-112176744D01*
X124786928Y-112349998D01*
X124786928Y-113650002D01*
X124803992Y-113823256D01*
X124854528Y-113989852D01*
X124936595Y-114143387D01*
X125047038Y-114277962D01*
X125181613Y-114388405D01*
X125335148Y-114470472D01*
X125501744Y-114521008D01*
X125674998Y-114538072D01*
X126500002Y-114538072D01*
X126673256Y-114521008D01*
X126839852Y-114470472D01*
X126993387Y-114388405D01*
X127127962Y-114277962D01*
X127238405Y-114143387D01*
X127320472Y-113989852D01*
X127352278Y-113885000D01*
X127625431Y-113885000D01*
X127636595Y-113905887D01*
X127747038Y-114040462D01*
X127881613Y-114150905D01*
X128035149Y-114232972D01*
X128201745Y-114283508D01*
X128374999Y-114300572D01*
X129625001Y-114300572D01*
X129798255Y-114283508D01*
X129964851Y-114232972D01*
X130118387Y-114150905D01*
X130252962Y-114040462D01*
X130363405Y-113905887D01*
X130445472Y-113752351D01*
X130453394Y-113726234D01*
X130569059Y-113664411D01*
X130703817Y-113553817D01*
X130731534Y-113520044D01*
X131077788Y-113173790D01*
X131105249Y-113207251D01*
X131224671Y-113305258D01*
X131360918Y-113378084D01*
X131508755Y-113422929D01*
X131662500Y-113438072D01*
X133337500Y-113438072D01*
X133491245Y-113422929D01*
X133639082Y-113378084D01*
X133775329Y-113305258D01*
X133894751Y-113207251D01*
X133992758Y-113087829D01*
X134065584Y-112951582D01*
X134110429Y-112803745D01*
X134125572Y-112650000D01*
X134125572Y-112350000D01*
X134110429Y-112196255D01*
X134065584Y-112048418D01*
X133992758Y-111912171D01*
X133954046Y-111865000D01*
X133992758Y-111817829D01*
X134065584Y-111681582D01*
X134110429Y-111533745D01*
X134125572Y-111380000D01*
X134125572Y-111080000D01*
X134110429Y-110926255D01*
X134085781Y-110845000D01*
X135693422Y-110845000D01*
X136440000Y-111591579D01*
X136440001Y-112931521D01*
X136435719Y-112975000D01*
X136452805Y-113148490D01*
X136503412Y-113315313D01*
X136585590Y-113469059D01*
X136668468Y-113570046D01*
X136668471Y-113570049D01*
X136696184Y-113603817D01*
X136729952Y-113631530D01*
X137193466Y-114095044D01*
X137221183Y-114128817D01*
X137355941Y-114239411D01*
X137509687Y-114321589D01*
X137676510Y-114372195D01*
X137806523Y-114385000D01*
X137806533Y-114385000D01*
X137849999Y-114389281D01*
X137893465Y-114385000D01*
X140956531Y-114385000D01*
X141000000Y-114389281D01*
X141043469Y-114385000D01*
X141043477Y-114385000D01*
X141173490Y-114372195D01*
X141340313Y-114321589D01*
X141494059Y-114239411D01*
X141628817Y-114128817D01*
X141656534Y-114095044D01*
X142116579Y-113635000D01*
X142685068Y-113635000D01*
X142770125Y-113680464D01*
X142860681Y-113717973D01*
X142980377Y-113754282D01*
X143076510Y-113773404D01*
X143200991Y-113785664D01*
X143225550Y-113785664D01*
X143250000Y-113788072D01*
X143750000Y-113788072D01*
X143774450Y-113785664D01*
X143799009Y-113785664D01*
X143923490Y-113773404D01*
X144019623Y-113754282D01*
X144139319Y-113717973D01*
X144229875Y-113680464D01*
X144340192Y-113621498D01*
X144421691Y-113567042D01*
X144460734Y-113535000D01*
X145183422Y-113535000D01*
X145443466Y-113795044D01*
X145471183Y-113828817D01*
X145605941Y-113939411D01*
X145759687Y-114021589D01*
X145926510Y-114072195D01*
X146056523Y-114085000D01*
X146056533Y-114085000D01*
X146099999Y-114089281D01*
X146113005Y-114088000D01*
X146115000Y-114714250D01*
X146273750Y-114873000D01*
X147873000Y-114873000D01*
X147873000Y-114853000D01*
X148127000Y-114853000D01*
X148127000Y-114873000D01*
X149726250Y-114873000D01*
X149885000Y-114714250D01*
X149887005Y-114085000D01*
X150356531Y-114085000D01*
X150400000Y-114089281D01*
X150443469Y-114085000D01*
X150443477Y-114085000D01*
X150573490Y-114072195D01*
X150740313Y-114021589D01*
X150894059Y-113939411D01*
X151028817Y-113828817D01*
X151056534Y-113795044D01*
X153295049Y-111556530D01*
X153328817Y-111528817D01*
X153357244Y-111494180D01*
X153435775Y-111398489D01*
X153439411Y-111394059D01*
X153521589Y-111240313D01*
X153572195Y-111073490D01*
X153585000Y-110943477D01*
X153585000Y-110943467D01*
X153589281Y-110900001D01*
X153585000Y-110856535D01*
X153585000Y-110236338D01*
X162823000Y-110236338D01*
X162823000Y-110763662D01*
X162925875Y-111280852D01*
X163127673Y-111768035D01*
X163420638Y-112206488D01*
X163793512Y-112579362D01*
X164231965Y-112872327D01*
X164719148Y-113074125D01*
X165236338Y-113177000D01*
X165763662Y-113177000D01*
X166280852Y-113074125D01*
X166768035Y-112872327D01*
X167206488Y-112579362D01*
X167579362Y-112206488D01*
X167872327Y-111768035D01*
X168074125Y-111280852D01*
X168177000Y-110763662D01*
X168177000Y-110236338D01*
X168104761Y-109873165D01*
X168254530Y-110234740D01*
X168655322Y-110834567D01*
X169165433Y-111344678D01*
X169765260Y-111745470D01*
X170431752Y-112021540D01*
X171139297Y-112162280D01*
X171860703Y-112162280D01*
X172568248Y-112021540D01*
X173234740Y-111745470D01*
X173834567Y-111344678D01*
X174344678Y-110834567D01*
X174745470Y-110234740D01*
X175021540Y-109568248D01*
X175162280Y-108860703D01*
X175162280Y-108139297D01*
X175021540Y-107431752D01*
X174745470Y-106765260D01*
X174344678Y-106165433D01*
X173834567Y-105655322D01*
X173234740Y-105254530D01*
X172568248Y-104978460D01*
X171860703Y-104837720D01*
X171139297Y-104837720D01*
X170431752Y-104978460D01*
X169765260Y-105254530D01*
X169165433Y-105655322D01*
X168655322Y-106165433D01*
X168254530Y-106765260D01*
X167978460Y-107431752D01*
X167837720Y-108139297D01*
X167837720Y-108860703D01*
X167947824Y-109414230D01*
X167872327Y-109231965D01*
X167579362Y-108793512D01*
X167206488Y-108420638D01*
X166768035Y-108127673D01*
X166280852Y-107925875D01*
X165763662Y-107823000D01*
X165236338Y-107823000D01*
X164719148Y-107925875D01*
X164231965Y-108127673D01*
X163793512Y-108420638D01*
X163420638Y-108793512D01*
X163127673Y-109231965D01*
X162925875Y-109719148D01*
X162823000Y-110236338D01*
X153585000Y-110236338D01*
X153585000Y-107450000D01*
X158911928Y-107450000D01*
X158924188Y-107574482D01*
X158960498Y-107694180D01*
X159019463Y-107804494D01*
X159098815Y-107901185D01*
X159195506Y-107980537D01*
X159305820Y-108039502D01*
X159425518Y-108075812D01*
X159550000Y-108088072D01*
X160514250Y-108085000D01*
X160673000Y-107926250D01*
X160673000Y-106327000D01*
X160927000Y-106327000D01*
X160927000Y-107926250D01*
X161085750Y-108085000D01*
X162050000Y-108088072D01*
X162174482Y-108075812D01*
X162294180Y-108039502D01*
X162404494Y-107980537D01*
X162501185Y-107901185D01*
X162580537Y-107804494D01*
X162639502Y-107694180D01*
X162675812Y-107574482D01*
X162688072Y-107450000D01*
X162685000Y-106485750D01*
X162526250Y-106327000D01*
X160927000Y-106327000D01*
X160673000Y-106327000D01*
X159073750Y-106327000D01*
X158915000Y-106485750D01*
X158911928Y-107450000D01*
X153585000Y-107450000D01*
X153585000Y-106066578D01*
X154466579Y-105185000D01*
X158912677Y-105185000D01*
X158915000Y-105914250D01*
X159073750Y-106073000D01*
X160673000Y-106073000D01*
X160673000Y-106053000D01*
X160927000Y-106053000D01*
X160927000Y-106073000D01*
X162526250Y-106073000D01*
X162685000Y-105914250D01*
X162687323Y-105185000D01*
X163156531Y-105185000D01*
X163200000Y-105189281D01*
X163243469Y-105185000D01*
X163243477Y-105185000D01*
X163373490Y-105172195D01*
X163540313Y-105121589D01*
X163694059Y-105039411D01*
X163828817Y-104928817D01*
X163856534Y-104895044D01*
X165066579Y-103685000D01*
X165656524Y-103685000D01*
X165700000Y-103689282D01*
X165743477Y-103685000D01*
X165955306Y-103685000D01*
X165979528Y-103764851D01*
X166061595Y-103918387D01*
X166172038Y-104052962D01*
X166306613Y-104163405D01*
X166460149Y-104245472D01*
X166626745Y-104296008D01*
X166799999Y-104313072D01*
X167600001Y-104313072D01*
X167773255Y-104296008D01*
X167939851Y-104245472D01*
X168093387Y-104163405D01*
X168227962Y-104052962D01*
X168338405Y-103918387D01*
X168420472Y-103764851D01*
X168471008Y-103598255D01*
X168488072Y-103425001D01*
X168488072Y-102174999D01*
X168471008Y-102001745D01*
X168420472Y-101835149D01*
X168338405Y-101681613D01*
X168227962Y-101547038D01*
X168093387Y-101436595D01*
X168049923Y-101413363D01*
X168143387Y-101363405D01*
X168277962Y-101252962D01*
X168388405Y-101118387D01*
X168470472Y-100964851D01*
X168521008Y-100798255D01*
X168538072Y-100625001D01*
X168538072Y-99374999D01*
X168521008Y-99201745D01*
X168470472Y-99035149D01*
X168388405Y-98881613D01*
X168277962Y-98747038D01*
X168143387Y-98636595D01*
X168135000Y-98632112D01*
X168135000Y-97867888D01*
X168143387Y-97863405D01*
X168277962Y-97752962D01*
X168388405Y-97618387D01*
X168470472Y-97464851D01*
X168521008Y-97298255D01*
X168538072Y-97125001D01*
X168538072Y-95874999D01*
X168521008Y-95701745D01*
X168470472Y-95535149D01*
X168388405Y-95381613D01*
X168277962Y-95247038D01*
X168143387Y-95136595D01*
X167989851Y-95054528D01*
X167823255Y-95003992D01*
X167650001Y-94986928D01*
X166849999Y-94986928D01*
X166676745Y-95003992D01*
X166585000Y-95031822D01*
X166585000Y-94843465D01*
X166589281Y-94799999D01*
X166585000Y-94756533D01*
X166585000Y-94756523D01*
X166572195Y-94626510D01*
X166521589Y-94459687D01*
X166439411Y-94305941D01*
X166328817Y-94171183D01*
X166295045Y-94143467D01*
X165956537Y-93804959D01*
X165956532Y-93804953D01*
X165465000Y-93313422D01*
X165465000Y-93042201D01*
X165550000Y-93050572D01*
X165564250Y-93047500D01*
X165723000Y-92888750D01*
X165723000Y-91552000D01*
X165703000Y-91552000D01*
X165703000Y-91298000D01*
X165723000Y-91298000D01*
X165723000Y-91278000D01*
X165977000Y-91278000D01*
X165977000Y-91298000D01*
X165997000Y-91298000D01*
X165997000Y-91552000D01*
X165977000Y-91552000D01*
X165977000Y-92888750D01*
X166135750Y-93047500D01*
X166150000Y-93050572D01*
X166274482Y-93038312D01*
X166394180Y-93002002D01*
X166504494Y-92943037D01*
X166534064Y-92918770D01*
X166668418Y-92990584D01*
X166816255Y-93035429D01*
X166970000Y-93050572D01*
X167270000Y-93050572D01*
X167423745Y-93035429D01*
X167571582Y-92990584D01*
X167705936Y-92918770D01*
X167735506Y-92943037D01*
X167845820Y-93002002D01*
X167965518Y-93038312D01*
X168090000Y-93050572D01*
X168104250Y-93047500D01*
X168263000Y-92888750D01*
X168263000Y-91552000D01*
X168243000Y-91552000D01*
X168243000Y-91298000D01*
X168263000Y-91298000D01*
X168263000Y-89961250D01*
X168104250Y-89802500D01*
X168090000Y-89799428D01*
X167965518Y-89811688D01*
X167890656Y-89834397D01*
X167859411Y-89775941D01*
X167807396Y-89712561D01*
X167776532Y-89674953D01*
X167776530Y-89674951D01*
X167748817Y-89641183D01*
X167715049Y-89613470D01*
X167586579Y-89485000D01*
X168833422Y-89485000D01*
X169177660Y-89829239D01*
X169115820Y-89847998D01*
X169025000Y-89896543D01*
X168934180Y-89847998D01*
X168814482Y-89811688D01*
X168690000Y-89799428D01*
X168675750Y-89802500D01*
X168517000Y-89961250D01*
X168517000Y-91298000D01*
X169533000Y-91298000D01*
X169533000Y-91278000D01*
X169787000Y-91278000D01*
X169787000Y-91298000D01*
X169807000Y-91298000D01*
X169807000Y-91552000D01*
X169787000Y-91552000D01*
X169787000Y-91572000D01*
X169533000Y-91572000D01*
X169533000Y-91552000D01*
X168517000Y-91552000D01*
X168517000Y-92888750D01*
X168675750Y-93047500D01*
X168690000Y-93050572D01*
X168814482Y-93038312D01*
X168934180Y-93002002D01*
X169025000Y-92953457D01*
X169115820Y-93002002D01*
X169235518Y-93038312D01*
X169360000Y-93050572D01*
X169374250Y-93047500D01*
X169532998Y-92888752D01*
X169532998Y-93017712D01*
X169465466Y-93100000D01*
X169460590Y-93105941D01*
X169450854Y-93124155D01*
X169401745Y-93128992D01*
X169235149Y-93179528D01*
X169081613Y-93261595D01*
X168947038Y-93372038D01*
X168836595Y-93506613D01*
X168754528Y-93660149D01*
X168703992Y-93826745D01*
X168686928Y-93999999D01*
X168686928Y-94800001D01*
X168703992Y-94973255D01*
X168754528Y-95139851D01*
X168836595Y-95293387D01*
X168947038Y-95427962D01*
X169081613Y-95538405D01*
X169235149Y-95620472D01*
X169401745Y-95671008D01*
X169574999Y-95688072D01*
X170825001Y-95688072D01*
X170998255Y-95671008D01*
X171164851Y-95620472D01*
X171318387Y-95538405D01*
X171452962Y-95427962D01*
X171563405Y-95293387D01*
X171645472Y-95139851D01*
X171696008Y-94973255D01*
X171713072Y-94800001D01*
X171713072Y-93999999D01*
X171696008Y-93826745D01*
X171645472Y-93660149D01*
X171563405Y-93506613D01*
X171516621Y-93449607D01*
X171521589Y-93440313D01*
X171572195Y-93273490D01*
X171585000Y-93143477D01*
X171585000Y-93143469D01*
X171589281Y-93100000D01*
X171585000Y-93056531D01*
X171585000Y-90636579D01*
X172311928Y-91363507D01*
X172311928Y-91720000D01*
X172333796Y-91942027D01*
X172398559Y-92155521D01*
X172503728Y-92352279D01*
X172645262Y-92524738D01*
X172817721Y-92666272D01*
X173014479Y-92771441D01*
X173227973Y-92836204D01*
X173450000Y-92858072D01*
X174950000Y-92858072D01*
X175172027Y-92836204D01*
X175340001Y-92785250D01*
X175340001Y-95971808D01*
X175078715Y-95832148D01*
X174770516Y-95738657D01*
X174530322Y-95715000D01*
X173869678Y-95715000D01*
X173629484Y-95738657D01*
X173321285Y-95832148D01*
X173037248Y-95983969D01*
X172788286Y-96188286D01*
X172583969Y-96437248D01*
X172569135Y-96465000D01*
X171593466Y-96465000D01*
X171549999Y-96460719D01*
X171506533Y-96465000D01*
X171506523Y-96465000D01*
X171451044Y-96470464D01*
X171318387Y-96361595D01*
X171164851Y-96279528D01*
X170998255Y-96228992D01*
X170825001Y-96211928D01*
X169574999Y-96211928D01*
X169401745Y-96228992D01*
X169235149Y-96279528D01*
X169081613Y-96361595D01*
X168947038Y-96472038D01*
X168836595Y-96606613D01*
X168754528Y-96760149D01*
X168703992Y-96926745D01*
X168686928Y-97099999D01*
X168686928Y-97900001D01*
X168703992Y-98073255D01*
X168754528Y-98239851D01*
X168836595Y-98393387D01*
X168947038Y-98527962D01*
X169081613Y-98638405D01*
X169235149Y-98720472D01*
X169322224Y-98746886D01*
X169322038Y-98747038D01*
X169211595Y-98881613D01*
X169129528Y-99035149D01*
X169078992Y-99201745D01*
X169061928Y-99374999D01*
X169061928Y-100625001D01*
X169078992Y-100798255D01*
X169129528Y-100964851D01*
X169211595Y-101118387D01*
X169322038Y-101252962D01*
X169456613Y-101363405D01*
X169500077Y-101386637D01*
X169406613Y-101436595D01*
X169272038Y-101547038D01*
X169161595Y-101681613D01*
X169079528Y-101835149D01*
X169028992Y-102001745D01*
X169011928Y-102174999D01*
X169011928Y-103425001D01*
X169028992Y-103598255D01*
X169079528Y-103764851D01*
X169161595Y-103918387D01*
X169272038Y-104052962D01*
X169406613Y-104163405D01*
X169560149Y-104245472D01*
X169726745Y-104296008D01*
X169899999Y-104313072D01*
X170700001Y-104313072D01*
X170873255Y-104296008D01*
X171039851Y-104245472D01*
X171193387Y-104163405D01*
X171327962Y-104052962D01*
X171438405Y-103918387D01*
X171520472Y-103764851D01*
X171544694Y-103685000D01*
X171716531Y-103685000D01*
X171760000Y-103689281D01*
X171803469Y-103685000D01*
X171803477Y-103685000D01*
X171933490Y-103672195D01*
X172100313Y-103621589D01*
X172254059Y-103539411D01*
X172388817Y-103428817D01*
X172416534Y-103395044D01*
X172496578Y-103315000D01*
X172569135Y-103315000D01*
X172583969Y-103342752D01*
X172788286Y-103591714D01*
X173037248Y-103796031D01*
X173321285Y-103947852D01*
X173629484Y-104041343D01*
X173869678Y-104065000D01*
X174530322Y-104065000D01*
X174770516Y-104041343D01*
X175078715Y-103947852D01*
X175340000Y-103808192D01*
X175340000Y-111970608D01*
X175268827Y-112768083D01*
X175065344Y-113511890D01*
X174733363Y-114207904D01*
X174283374Y-114834130D01*
X173729597Y-115370777D01*
X173089549Y-115800871D01*
X172383447Y-116110829D01*
X171628543Y-116292065D01*
X170975793Y-116340000D01*
X149879208Y-116340000D01*
X149888072Y-116250000D01*
X149885000Y-115285750D01*
X149726250Y-115127000D01*
X148127000Y-115127000D01*
X148127000Y-115147000D01*
X147873000Y-115147000D01*
X147873000Y-115127000D01*
X146273750Y-115127000D01*
X146115000Y-115285750D01*
X146111928Y-116250000D01*
X146120792Y-116340000D01*
X123029392Y-116340000D01*
X122231917Y-116268827D01*
X121488110Y-116065344D01*
X120792096Y-115733363D01*
X120165870Y-115283374D01*
X119629223Y-114729597D01*
X119199129Y-114089549D01*
X119115923Y-113900000D01*
X121661928Y-113900000D01*
X121674188Y-114024482D01*
X121710498Y-114144180D01*
X121769463Y-114254494D01*
X121848815Y-114351185D01*
X121945506Y-114430537D01*
X122055820Y-114489502D01*
X122175518Y-114525812D01*
X122300000Y-114538072D01*
X122676750Y-114535000D01*
X122835500Y-114376250D01*
X122835500Y-113127000D01*
X123089500Y-113127000D01*
X123089500Y-114376250D01*
X123248250Y-114535000D01*
X123625000Y-114538072D01*
X123749482Y-114525812D01*
X123869180Y-114489502D01*
X123979494Y-114430537D01*
X124076185Y-114351185D01*
X124155537Y-114254494D01*
X124214502Y-114144180D01*
X124250812Y-114024482D01*
X124263072Y-113900000D01*
X124260000Y-113285750D01*
X124101250Y-113127000D01*
X123089500Y-113127000D01*
X122835500Y-113127000D01*
X121823750Y-113127000D01*
X121665000Y-113285750D01*
X121661928Y-113900000D01*
X119115923Y-113900000D01*
X118889171Y-113383447D01*
X118707935Y-112628543D01*
X118660000Y-111975793D01*
X118660000Y-93900000D01*
X121561928Y-93900000D01*
X121565000Y-94914250D01*
X121723750Y-95073000D01*
X122873000Y-95073000D01*
X122873000Y-93423750D01*
X122714250Y-93265000D01*
X122200000Y-93261928D01*
X122075518Y-93274188D01*
X121955820Y-93310498D01*
X121845506Y-93369463D01*
X121748815Y-93448815D01*
X121669463Y-93545506D01*
X121610498Y-93655820D01*
X121574188Y-93775518D01*
X121561928Y-93900000D01*
X118660000Y-93900000D01*
X118660000Y-75079566D01*
X119359876Y-75079566D01*
X119479223Y-75333000D01*
X121073000Y-75333000D01*
X121073000Y-73978984D01*
X120814970Y-73821181D01*
X120497847Y-73879013D01*
X120198100Y-73997602D01*
X119927248Y-74172390D01*
X119695700Y-74396660D01*
X119512354Y-74661794D01*
X119384256Y-74957602D01*
X119359876Y-75079566D01*
X118660000Y-75079566D01*
X118660000Y-72722476D01*
X118727248Y-72787610D01*
X118998100Y-72962398D01*
X119297847Y-73080987D01*
X119614970Y-73138819D01*
X119873000Y-72981016D01*
X119873000Y-71627000D01*
X119853000Y-71627000D01*
X119853000Y-71373000D01*
X119873000Y-71373000D01*
X119873000Y-71353000D01*
X120127000Y-71353000D01*
X120127000Y-71373000D01*
X121720777Y-71373000D01*
X121840124Y-71119566D01*
X121815744Y-70997602D01*
X121687646Y-70701794D01*
X121635924Y-70627000D01*
X122000000Y-70627000D01*
X122024776Y-70624560D01*
X122048601Y-70617333D01*
X122070557Y-70605597D01*
X122089803Y-70589803D01*
X125252606Y-67427000D01*
X126275421Y-67427000D01*
X126815001Y-67966580D01*
G37*
G04 #@! TD.AperFunction*
D23*
X137474858Y-72973564D02*
X137404952Y-73043470D01*
X137371184Y-73071183D01*
X137343471Y-73104951D01*
X137343468Y-73104954D01*
X137260590Y-73205941D01*
X137178412Y-73359687D01*
X137127805Y-73526510D01*
X137110719Y-73700000D01*
X137115001Y-73743479D01*
X137115001Y-73761928D01*
X136950000Y-73761928D01*
X136776746Y-73778992D01*
X136610150Y-73829528D01*
X136456614Y-73911595D01*
X136322038Y-74022038D01*
X136211595Y-74156614D01*
X136129528Y-74310150D01*
X136078992Y-74476746D01*
X136061928Y-74650000D01*
X136061928Y-75750000D01*
X136078992Y-75923254D01*
X136129528Y-76089850D01*
X136211595Y-76243386D01*
X136322038Y-76377962D01*
X136456614Y-76488405D01*
X136610150Y-76570472D01*
X136776746Y-76621008D01*
X136950000Y-76638072D01*
X137115001Y-76638072D01*
X137115000Y-82133421D01*
X134875654Y-84372768D01*
X134921008Y-84223254D01*
X134938072Y-84050000D01*
X134938072Y-82950000D01*
X134921008Y-82776746D01*
X134870472Y-82610150D01*
X134788405Y-82456614D01*
X134677962Y-82322038D01*
X134543386Y-82211595D01*
X134389850Y-82129528D01*
X134223254Y-82078992D01*
X134050000Y-82061928D01*
X132135000Y-82061928D01*
X132135000Y-80367888D01*
X132143387Y-80363405D01*
X132277962Y-80252962D01*
X132388405Y-80118387D01*
X132470472Y-79964851D01*
X132521008Y-79798255D01*
X132538072Y-79625001D01*
X132538072Y-78374999D01*
X132521008Y-78201745D01*
X132470472Y-78035149D01*
X132388405Y-77881613D01*
X132277962Y-77747038D01*
X132143387Y-77636595D01*
X131989851Y-77554528D01*
X131823255Y-77503992D01*
X131650001Y-77486928D01*
X130849999Y-77486928D01*
X130676745Y-77503992D01*
X130510149Y-77554528D01*
X130356613Y-77636595D01*
X130222038Y-77747038D01*
X130111595Y-77881613D01*
X130029528Y-78035149D01*
X129978992Y-78201745D01*
X129961928Y-78374999D01*
X129961928Y-79625001D01*
X129978992Y-79798255D01*
X130029528Y-79964851D01*
X130111595Y-80118387D01*
X130222038Y-80252962D01*
X130356613Y-80363405D01*
X130365000Y-80367888D01*
X130365001Y-82062943D01*
X129685750Y-82065000D01*
X129527000Y-82223750D01*
X129527000Y-83373000D01*
X129547000Y-83373000D01*
X129547000Y-83627000D01*
X129527000Y-83627000D01*
X129527000Y-84776250D01*
X129685750Y-84935000D01*
X130364990Y-84937057D01*
X130364991Y-86098348D01*
X130294180Y-86060498D01*
X130174482Y-86024188D01*
X130050000Y-86011928D01*
X129685750Y-86015000D01*
X129527000Y-86173750D01*
X129527000Y-87373000D01*
X129547000Y-87373000D01*
X129547000Y-87627000D01*
X129527000Y-87627000D01*
X129527000Y-87647000D01*
X129273000Y-87647000D01*
X129273000Y-87627000D01*
X128273750Y-87627000D01*
X128115000Y-87785750D01*
X128111928Y-88350000D01*
X128124188Y-88474482D01*
X128160498Y-88594180D01*
X128219463Y-88704494D01*
X128298815Y-88801185D01*
X128395506Y-88880537D01*
X128505820Y-88939502D01*
X128625518Y-88975812D01*
X128750000Y-88988072D01*
X128926724Y-88986582D01*
X128785148Y-89029528D01*
X128631613Y-89111595D01*
X128497038Y-89222038D01*
X128386595Y-89356613D01*
X128304528Y-89510148D01*
X128253992Y-89676744D01*
X128236928Y-89849998D01*
X128236928Y-91150002D01*
X128253992Y-91323256D01*
X128281822Y-91415000D01*
X127711595Y-91415000D01*
X127713072Y-91400000D01*
X127710000Y-90785750D01*
X127551250Y-90627000D01*
X126539500Y-90627000D01*
X126539500Y-90647000D01*
X126285500Y-90647000D01*
X126285500Y-90627000D01*
X125273750Y-90627000D01*
X125115000Y-90785750D01*
X125112125Y-91360547D01*
X124085000Y-90333422D01*
X124085000Y-90321943D01*
X124089850Y-90320472D01*
X124243386Y-90238405D01*
X124377962Y-90127962D01*
X124488405Y-89993386D01*
X124570472Y-89839850D01*
X124621008Y-89673254D01*
X124628222Y-89600000D01*
X125111928Y-89600000D01*
X125115000Y-90214250D01*
X125273750Y-90373000D01*
X126285500Y-90373000D01*
X126285500Y-89123750D01*
X126539500Y-89123750D01*
X126539500Y-90373000D01*
X127551250Y-90373000D01*
X127710000Y-90214250D01*
X127713072Y-89600000D01*
X127700812Y-89475518D01*
X127664502Y-89355820D01*
X127605537Y-89245506D01*
X127526185Y-89148815D01*
X127429494Y-89069463D01*
X127319180Y-89010498D01*
X127199482Y-88974188D01*
X127075000Y-88961928D01*
X126698250Y-88965000D01*
X126539500Y-89123750D01*
X126285500Y-89123750D01*
X126126750Y-88965000D01*
X125750000Y-88961928D01*
X125625518Y-88974188D01*
X125505820Y-89010498D01*
X125395506Y-89069463D01*
X125298815Y-89148815D01*
X125219463Y-89245506D01*
X125160498Y-89355820D01*
X125124188Y-89475518D01*
X125111928Y-89600000D01*
X124628222Y-89600000D01*
X124638072Y-89500000D01*
X124638072Y-87400000D01*
X124621008Y-87226746D01*
X124570472Y-87060150D01*
X124488405Y-86906614D01*
X124377962Y-86772038D01*
X124243386Y-86661595D01*
X124221693Y-86650000D01*
X128111928Y-86650000D01*
X128115000Y-87214250D01*
X128273750Y-87373000D01*
X129273000Y-87373000D01*
X129273000Y-86173750D01*
X129114250Y-86015000D01*
X128750000Y-86011928D01*
X128625518Y-86024188D01*
X128505820Y-86060498D01*
X128395506Y-86119463D01*
X128298815Y-86198815D01*
X128219463Y-86295506D01*
X128160498Y-86405820D01*
X128124188Y-86525518D01*
X128111928Y-86650000D01*
X124221693Y-86650000D01*
X124243386Y-86638405D01*
X124377962Y-86527962D01*
X124488405Y-86393386D01*
X124570472Y-86239850D01*
X124621008Y-86073254D01*
X124638072Y-85900000D01*
X124638072Y-84300000D01*
X127461928Y-84300000D01*
X127474188Y-84424482D01*
X127510498Y-84544180D01*
X127569463Y-84654494D01*
X127648815Y-84751185D01*
X127745506Y-84830537D01*
X127855820Y-84889502D01*
X127975518Y-84925812D01*
X128100000Y-84938072D01*
X129114250Y-84935000D01*
X129273000Y-84776250D01*
X129273000Y-83627000D01*
X127623750Y-83627000D01*
X127465000Y-83785750D01*
X127461928Y-84300000D01*
X124638072Y-84300000D01*
X124638072Y-83800000D01*
X124621008Y-83626746D01*
X124570472Y-83460150D01*
X124488405Y-83306614D01*
X124377962Y-83172038D01*
X124243386Y-83061595D01*
X124089850Y-82979528D01*
X123923254Y-82928992D01*
X123750000Y-82911928D01*
X122672500Y-82911928D01*
X122672500Y-82827000D01*
X126300000Y-82827000D01*
X126324776Y-82824560D01*
X126348601Y-82817333D01*
X126370557Y-82805597D01*
X126389803Y-82789803D01*
X126405597Y-82770557D01*
X126417333Y-82748601D01*
X126424560Y-82724776D01*
X126427000Y-82700000D01*
X127461928Y-82700000D01*
X127465000Y-83214250D01*
X127623750Y-83373000D01*
X129273000Y-83373000D01*
X129273000Y-82223750D01*
X129114250Y-82065000D01*
X128100000Y-82061928D01*
X127975518Y-82074188D01*
X127855820Y-82110498D01*
X127745506Y-82169463D01*
X127648815Y-82248815D01*
X127569463Y-82345506D01*
X127510498Y-82455820D01*
X127474188Y-82575518D01*
X127461928Y-82700000D01*
X126427000Y-82700000D01*
X126427000Y-77378579D01*
X126983185Y-77934764D01*
X126929528Y-78035149D01*
X126878992Y-78201745D01*
X126861928Y-78374999D01*
X126861928Y-79625001D01*
X126878992Y-79798255D01*
X126929528Y-79964851D01*
X127011595Y-80118387D01*
X127122038Y-80252962D01*
X127256613Y-80363405D01*
X127410149Y-80445472D01*
X127576745Y-80496008D01*
X127749999Y-80513072D01*
X128550001Y-80513072D01*
X128723255Y-80496008D01*
X128889851Y-80445472D01*
X129043387Y-80363405D01*
X129177962Y-80252962D01*
X129288405Y-80118387D01*
X129370472Y-79964851D01*
X129421008Y-79798255D01*
X129438072Y-79625001D01*
X129438072Y-78374999D01*
X129421008Y-78201745D01*
X129370472Y-78035149D01*
X129288405Y-77881613D01*
X129177962Y-77747038D01*
X129043387Y-77636595D01*
X129003642Y-77615351D01*
X128971589Y-77509687D01*
X128889411Y-77355941D01*
X128860886Y-77321183D01*
X128806532Y-77254953D01*
X128806530Y-77254951D01*
X128778817Y-77221183D01*
X128745049Y-77193470D01*
X127046286Y-75494708D01*
X127088405Y-75443386D01*
X127170472Y-75289850D01*
X127221008Y-75123254D01*
X127238072Y-74950000D01*
X127238072Y-74669336D01*
X127294059Y-74639411D01*
X127428817Y-74528817D01*
X127456534Y-74495044D01*
X127915000Y-74036578D01*
X127915000Y-74121970D01*
X127576543Y-74460427D01*
X127497191Y-74557118D01*
X127438226Y-74667432D01*
X127401916Y-74787130D01*
X127389656Y-74911612D01*
X127401916Y-75036094D01*
X127438226Y-75155792D01*
X127497191Y-75266106D01*
X127576543Y-75362797D01*
X128637203Y-76423457D01*
X128733894Y-76502809D01*
X128844208Y-76561774D01*
X128963906Y-76598084D01*
X129088388Y-76610344D01*
X129212870Y-76598084D01*
X129315402Y-76566981D01*
X129343470Y-76595049D01*
X129371183Y-76628817D01*
X129404951Y-76656530D01*
X129404953Y-76656532D01*
X129505941Y-76739411D01*
X129659686Y-76821589D01*
X129826510Y-76872195D01*
X129956523Y-76885000D01*
X129956531Y-76885000D01*
X130000000Y-76889281D01*
X130043469Y-76885000D01*
X132456531Y-76885000D01*
X132500000Y-76889281D01*
X132543469Y-76885000D01*
X132543477Y-76885000D01*
X132673490Y-76872195D01*
X132840313Y-76821589D01*
X132994059Y-76739411D01*
X133128817Y-76628817D01*
X133156534Y-76595044D01*
X136595050Y-73156529D01*
X136628817Y-73128817D01*
X136668071Y-73080987D01*
X136739410Y-72994060D01*
X136739411Y-72994059D01*
X136821589Y-72840313D01*
X136872195Y-72673490D01*
X136885000Y-72543477D01*
X136885000Y-72543467D01*
X136888900Y-72503868D01*
X137474858Y-72973564D01*
G04 #@! TA.AperFunction,Conductor*
D24*
G36*
X137474858Y-72973564D02*
G01*
X137404952Y-73043470D01*
X137371184Y-73071183D01*
X137343471Y-73104951D01*
X137343468Y-73104954D01*
X137260590Y-73205941D01*
X137178412Y-73359687D01*
X137127805Y-73526510D01*
X137110719Y-73700000D01*
X137115001Y-73743479D01*
X137115001Y-73761928D01*
X136950000Y-73761928D01*
X136776746Y-73778992D01*
X136610150Y-73829528D01*
X136456614Y-73911595D01*
X136322038Y-74022038D01*
X136211595Y-74156614D01*
X136129528Y-74310150D01*
X136078992Y-74476746D01*
X136061928Y-74650000D01*
X136061928Y-75750000D01*
X136078992Y-75923254D01*
X136129528Y-76089850D01*
X136211595Y-76243386D01*
X136322038Y-76377962D01*
X136456614Y-76488405D01*
X136610150Y-76570472D01*
X136776746Y-76621008D01*
X136950000Y-76638072D01*
X137115001Y-76638072D01*
X137115000Y-82133421D01*
X134875654Y-84372768D01*
X134921008Y-84223254D01*
X134938072Y-84050000D01*
X134938072Y-82950000D01*
X134921008Y-82776746D01*
X134870472Y-82610150D01*
X134788405Y-82456614D01*
X134677962Y-82322038D01*
X134543386Y-82211595D01*
X134389850Y-82129528D01*
X134223254Y-82078992D01*
X134050000Y-82061928D01*
X132135000Y-82061928D01*
X132135000Y-80367888D01*
X132143387Y-80363405D01*
X132277962Y-80252962D01*
X132388405Y-80118387D01*
X132470472Y-79964851D01*
X132521008Y-79798255D01*
X132538072Y-79625001D01*
X132538072Y-78374999D01*
X132521008Y-78201745D01*
X132470472Y-78035149D01*
X132388405Y-77881613D01*
X132277962Y-77747038D01*
X132143387Y-77636595D01*
X131989851Y-77554528D01*
X131823255Y-77503992D01*
X131650001Y-77486928D01*
X130849999Y-77486928D01*
X130676745Y-77503992D01*
X130510149Y-77554528D01*
X130356613Y-77636595D01*
X130222038Y-77747038D01*
X130111595Y-77881613D01*
X130029528Y-78035149D01*
X129978992Y-78201745D01*
X129961928Y-78374999D01*
X129961928Y-79625001D01*
X129978992Y-79798255D01*
X130029528Y-79964851D01*
X130111595Y-80118387D01*
X130222038Y-80252962D01*
X130356613Y-80363405D01*
X130365000Y-80367888D01*
X130365001Y-82062943D01*
X129685750Y-82065000D01*
X129527000Y-82223750D01*
X129527000Y-83373000D01*
X129547000Y-83373000D01*
X129547000Y-83627000D01*
X129527000Y-83627000D01*
X129527000Y-84776250D01*
X129685750Y-84935000D01*
X130364990Y-84937057D01*
X130364991Y-86098348D01*
X130294180Y-86060498D01*
X130174482Y-86024188D01*
X130050000Y-86011928D01*
X129685750Y-86015000D01*
X129527000Y-86173750D01*
X129527000Y-87373000D01*
X129547000Y-87373000D01*
X129547000Y-87627000D01*
X129527000Y-87627000D01*
X129527000Y-87647000D01*
X129273000Y-87647000D01*
X129273000Y-87627000D01*
X128273750Y-87627000D01*
X128115000Y-87785750D01*
X128111928Y-88350000D01*
X128124188Y-88474482D01*
X128160498Y-88594180D01*
X128219463Y-88704494D01*
X128298815Y-88801185D01*
X128395506Y-88880537D01*
X128505820Y-88939502D01*
X128625518Y-88975812D01*
X128750000Y-88988072D01*
X128926724Y-88986582D01*
X128785148Y-89029528D01*
X128631613Y-89111595D01*
X128497038Y-89222038D01*
X128386595Y-89356613D01*
X128304528Y-89510148D01*
X128253992Y-89676744D01*
X128236928Y-89849998D01*
X128236928Y-91150002D01*
X128253992Y-91323256D01*
X128281822Y-91415000D01*
X127711595Y-91415000D01*
X127713072Y-91400000D01*
X127710000Y-90785750D01*
X127551250Y-90627000D01*
X126539500Y-90627000D01*
X126539500Y-90647000D01*
X126285500Y-90647000D01*
X126285500Y-90627000D01*
X125273750Y-90627000D01*
X125115000Y-90785750D01*
X125112125Y-91360547D01*
X124085000Y-90333422D01*
X124085000Y-90321943D01*
X124089850Y-90320472D01*
X124243386Y-90238405D01*
X124377962Y-90127962D01*
X124488405Y-89993386D01*
X124570472Y-89839850D01*
X124621008Y-89673254D01*
X124628222Y-89600000D01*
X125111928Y-89600000D01*
X125115000Y-90214250D01*
X125273750Y-90373000D01*
X126285500Y-90373000D01*
X126285500Y-89123750D01*
X126539500Y-89123750D01*
X126539500Y-90373000D01*
X127551250Y-90373000D01*
X127710000Y-90214250D01*
X127713072Y-89600000D01*
X127700812Y-89475518D01*
X127664502Y-89355820D01*
X127605537Y-89245506D01*
X127526185Y-89148815D01*
X127429494Y-89069463D01*
X127319180Y-89010498D01*
X127199482Y-88974188D01*
X127075000Y-88961928D01*
X126698250Y-88965000D01*
X126539500Y-89123750D01*
X126285500Y-89123750D01*
X126126750Y-88965000D01*
X125750000Y-88961928D01*
X125625518Y-88974188D01*
X125505820Y-89010498D01*
X125395506Y-89069463D01*
X125298815Y-89148815D01*
X125219463Y-89245506D01*
X125160498Y-89355820D01*
X125124188Y-89475518D01*
X125111928Y-89600000D01*
X124628222Y-89600000D01*
X124638072Y-89500000D01*
X124638072Y-87400000D01*
X124621008Y-87226746D01*
X124570472Y-87060150D01*
X124488405Y-86906614D01*
X124377962Y-86772038D01*
X124243386Y-86661595D01*
X124221693Y-86650000D01*
X128111928Y-86650000D01*
X128115000Y-87214250D01*
X128273750Y-87373000D01*
X129273000Y-87373000D01*
X129273000Y-86173750D01*
X129114250Y-86015000D01*
X128750000Y-86011928D01*
X128625518Y-86024188D01*
X128505820Y-86060498D01*
X128395506Y-86119463D01*
X128298815Y-86198815D01*
X128219463Y-86295506D01*
X128160498Y-86405820D01*
X128124188Y-86525518D01*
X128111928Y-86650000D01*
X124221693Y-86650000D01*
X124243386Y-86638405D01*
X124377962Y-86527962D01*
X124488405Y-86393386D01*
X124570472Y-86239850D01*
X124621008Y-86073254D01*
X124638072Y-85900000D01*
X124638072Y-84300000D01*
X127461928Y-84300000D01*
X127474188Y-84424482D01*
X127510498Y-84544180D01*
X127569463Y-84654494D01*
X127648815Y-84751185D01*
X127745506Y-84830537D01*
X127855820Y-84889502D01*
X127975518Y-84925812D01*
X128100000Y-84938072D01*
X129114250Y-84935000D01*
X129273000Y-84776250D01*
X129273000Y-83627000D01*
X127623750Y-83627000D01*
X127465000Y-83785750D01*
X127461928Y-84300000D01*
X124638072Y-84300000D01*
X124638072Y-83800000D01*
X124621008Y-83626746D01*
X124570472Y-83460150D01*
X124488405Y-83306614D01*
X124377962Y-83172038D01*
X124243386Y-83061595D01*
X124089850Y-82979528D01*
X123923254Y-82928992D01*
X123750000Y-82911928D01*
X122672500Y-82911928D01*
X122672500Y-82827000D01*
X126300000Y-82827000D01*
X126324776Y-82824560D01*
X126348601Y-82817333D01*
X126370557Y-82805597D01*
X126389803Y-82789803D01*
X126405597Y-82770557D01*
X126417333Y-82748601D01*
X126424560Y-82724776D01*
X126427000Y-82700000D01*
X127461928Y-82700000D01*
X127465000Y-83214250D01*
X127623750Y-83373000D01*
X129273000Y-83373000D01*
X129273000Y-82223750D01*
X129114250Y-82065000D01*
X128100000Y-82061928D01*
X127975518Y-82074188D01*
X127855820Y-82110498D01*
X127745506Y-82169463D01*
X127648815Y-82248815D01*
X127569463Y-82345506D01*
X127510498Y-82455820D01*
X127474188Y-82575518D01*
X127461928Y-82700000D01*
X126427000Y-82700000D01*
X126427000Y-77378579D01*
X126983185Y-77934764D01*
X126929528Y-78035149D01*
X126878992Y-78201745D01*
X126861928Y-78374999D01*
X126861928Y-79625001D01*
X126878992Y-79798255D01*
X126929528Y-79964851D01*
X127011595Y-80118387D01*
X127122038Y-80252962D01*
X127256613Y-80363405D01*
X127410149Y-80445472D01*
X127576745Y-80496008D01*
X127749999Y-80513072D01*
X128550001Y-80513072D01*
X128723255Y-80496008D01*
X128889851Y-80445472D01*
X129043387Y-80363405D01*
X129177962Y-80252962D01*
X129288405Y-80118387D01*
X129370472Y-79964851D01*
X129421008Y-79798255D01*
X129438072Y-79625001D01*
X129438072Y-78374999D01*
X129421008Y-78201745D01*
X129370472Y-78035149D01*
X129288405Y-77881613D01*
X129177962Y-77747038D01*
X129043387Y-77636595D01*
X129003642Y-77615351D01*
X128971589Y-77509687D01*
X128889411Y-77355941D01*
X128860886Y-77321183D01*
X128806532Y-77254953D01*
X128806530Y-77254951D01*
X128778817Y-77221183D01*
X128745049Y-77193470D01*
X127046286Y-75494708D01*
X127088405Y-75443386D01*
X127170472Y-75289850D01*
X127221008Y-75123254D01*
X127238072Y-74950000D01*
X127238072Y-74669336D01*
X127294059Y-74639411D01*
X127428817Y-74528817D01*
X127456534Y-74495044D01*
X127915000Y-74036578D01*
X127915000Y-74121970D01*
X127576543Y-74460427D01*
X127497191Y-74557118D01*
X127438226Y-74667432D01*
X127401916Y-74787130D01*
X127389656Y-74911612D01*
X127401916Y-75036094D01*
X127438226Y-75155792D01*
X127497191Y-75266106D01*
X127576543Y-75362797D01*
X128637203Y-76423457D01*
X128733894Y-76502809D01*
X128844208Y-76561774D01*
X128963906Y-76598084D01*
X129088388Y-76610344D01*
X129212870Y-76598084D01*
X129315402Y-76566981D01*
X129343470Y-76595049D01*
X129371183Y-76628817D01*
X129404951Y-76656530D01*
X129404953Y-76656532D01*
X129505941Y-76739411D01*
X129659686Y-76821589D01*
X129826510Y-76872195D01*
X129956523Y-76885000D01*
X129956531Y-76885000D01*
X130000000Y-76889281D01*
X130043469Y-76885000D01*
X132456531Y-76885000D01*
X132500000Y-76889281D01*
X132543469Y-76885000D01*
X132543477Y-76885000D01*
X132673490Y-76872195D01*
X132840313Y-76821589D01*
X132994059Y-76739411D01*
X133128817Y-76628817D01*
X133156534Y-76595044D01*
X136595050Y-73156529D01*
X136628817Y-73128817D01*
X136668071Y-73080987D01*
X136739410Y-72994060D01*
X136739411Y-72994059D01*
X136821589Y-72840313D01*
X136872195Y-72673490D01*
X136885000Y-72543477D01*
X136885000Y-72543467D01*
X136888900Y-72503868D01*
X137474858Y-72973564D01*
G37*
G04 #@! TD.AperFunction*
D23*
X154397616Y-58313831D02*
X154254247Y-58218035D01*
X153580260Y-57938860D01*
X152864759Y-57796538D01*
X152135241Y-57796538D01*
X151419740Y-57938860D01*
X150745753Y-58218035D01*
X150139181Y-58623334D01*
X149623334Y-59139181D01*
X149218035Y-59745753D01*
X148938860Y-60419740D01*
X148796538Y-61135241D01*
X148796538Y-61864759D01*
X148938860Y-62580260D01*
X149218035Y-63254247D01*
X149623334Y-63860819D01*
X150139181Y-64376666D01*
X150745753Y-64781965D01*
X151419740Y-65061140D01*
X152135241Y-65203462D01*
X152864759Y-65203462D01*
X153580260Y-65061140D01*
X154254247Y-64781965D01*
X154323072Y-64735978D01*
X154323000Y-64736338D01*
X154323000Y-65263662D01*
X154425875Y-65780852D01*
X154627673Y-66268035D01*
X154920638Y-66706488D01*
X155293512Y-67079362D01*
X155731965Y-67372327D01*
X156219148Y-67574125D01*
X156736338Y-67677000D01*
X157263662Y-67677000D01*
X157780852Y-67574125D01*
X158268035Y-67372327D01*
X158706488Y-67079362D01*
X159079362Y-66706488D01*
X159372327Y-66268035D01*
X159574125Y-65780852D01*
X159677000Y-65263662D01*
X159677000Y-64736338D01*
X159576878Y-64232988D01*
X167391046Y-73163466D01*
X167273490Y-73127805D01*
X167143477Y-73115000D01*
X167143469Y-73115000D01*
X167100000Y-73110719D01*
X167056531Y-73115000D01*
X163743466Y-73115000D01*
X163699999Y-73110719D01*
X163656533Y-73115000D01*
X163656523Y-73115000D01*
X163526510Y-73127805D01*
X163359687Y-73178411D01*
X163205941Y-73260589D01*
X163071183Y-73371183D01*
X163043466Y-73404956D01*
X163033422Y-73415000D01*
X162538072Y-73415000D01*
X162538072Y-73400000D01*
X162525812Y-73275518D01*
X162489502Y-73155820D01*
X162430537Y-73045506D01*
X162351185Y-72948815D01*
X162254494Y-72869463D01*
X162144180Y-72810498D01*
X162136275Y-72808100D01*
X162121589Y-72759686D01*
X162039411Y-72605941D01*
X161956532Y-72504953D01*
X161956530Y-72504951D01*
X161928817Y-72471183D01*
X161895049Y-72443470D01*
X161319510Y-71867931D01*
X161330537Y-71854494D01*
X161389502Y-71744180D01*
X161425812Y-71624482D01*
X161438072Y-71500000D01*
X161438072Y-69200000D01*
X161425812Y-69075518D01*
X161389502Y-68955820D01*
X161330537Y-68845506D01*
X161251185Y-68748815D01*
X161154494Y-68669463D01*
X161044180Y-68610498D01*
X160924482Y-68574188D01*
X160800000Y-68561928D01*
X159200000Y-68561928D01*
X159075518Y-68574188D01*
X158955820Y-68610498D01*
X158845506Y-68669463D01*
X158748815Y-68748815D01*
X158669463Y-68845506D01*
X158610498Y-68955820D01*
X158574188Y-69075518D01*
X158561928Y-69200000D01*
X158561928Y-71500000D01*
X158574188Y-71624482D01*
X158610498Y-71744180D01*
X158669463Y-71854494D01*
X158748815Y-71951185D01*
X158845506Y-72030537D01*
X158955820Y-72089502D01*
X159075518Y-72125812D01*
X159177046Y-72135811D01*
X159178411Y-72140312D01*
X159260589Y-72294058D01*
X159371183Y-72428817D01*
X159404956Y-72456534D01*
X160109042Y-73160620D01*
X160074188Y-73275518D01*
X160061928Y-73400000D01*
X160061928Y-75200000D01*
X160074188Y-75324482D01*
X160110498Y-75444180D01*
X160169463Y-75554494D01*
X160248815Y-75651185D01*
X160345506Y-75730537D01*
X160455820Y-75789502D01*
X160575518Y-75825812D01*
X160700000Y-75838072D01*
X161093888Y-75838072D01*
X161022038Y-75897038D01*
X160911595Y-76031613D01*
X160829528Y-76185149D01*
X160778992Y-76351745D01*
X160761928Y-76524999D01*
X160761928Y-77775001D01*
X160778992Y-77948255D01*
X160829528Y-78114851D01*
X160911595Y-78268387D01*
X161022038Y-78402962D01*
X161098584Y-78465782D01*
X160976510Y-78477805D01*
X160809687Y-78528411D01*
X160695563Y-78589411D01*
X160655941Y-78610589D01*
X160554953Y-78693468D01*
X160554951Y-78693470D01*
X160521183Y-78721183D01*
X160493470Y-78754951D01*
X159904956Y-79343466D01*
X159871183Y-79371183D01*
X159784121Y-79477269D01*
X159756449Y-79443551D01*
X159713146Y-79408013D01*
X158968205Y-78663072D01*
X159350001Y-78663072D01*
X159523255Y-78646008D01*
X159689851Y-78595472D01*
X159843387Y-78513405D01*
X159977962Y-78402962D01*
X160088405Y-78268387D01*
X160170472Y-78114851D01*
X160221008Y-77948255D01*
X160238072Y-77775001D01*
X160238072Y-76524999D01*
X160221008Y-76351745D01*
X160170472Y-76185149D01*
X160088405Y-76031613D01*
X159977962Y-75897038D01*
X159887071Y-75822446D01*
X159889282Y-75800000D01*
X159875463Y-75659686D01*
X159872195Y-75626510D01*
X159843176Y-75530849D01*
X159889502Y-75444180D01*
X159925812Y-75324482D01*
X159938072Y-75200000D01*
X159938072Y-73400000D01*
X159925812Y-73275518D01*
X159889502Y-73155820D01*
X159830537Y-73045506D01*
X159751185Y-72948815D01*
X159654494Y-72869463D01*
X159544180Y-72810498D01*
X159424482Y-72774188D01*
X159300000Y-72761928D01*
X158100000Y-72761928D01*
X157975518Y-72774188D01*
X157855820Y-72810498D01*
X157745506Y-72869463D01*
X157648815Y-72948815D01*
X157569463Y-73045506D01*
X157510498Y-73155820D01*
X157474188Y-73275518D01*
X157461928Y-73400000D01*
X157461928Y-75200000D01*
X157474188Y-75324482D01*
X157510498Y-75444180D01*
X157569463Y-75554494D01*
X157648815Y-75651185D01*
X157745506Y-75730537D01*
X157828181Y-75774728D01*
X157834344Y-75795046D01*
X157878411Y-75940312D01*
X157881611Y-75946299D01*
X157811595Y-76031613D01*
X157729528Y-76185149D01*
X157678992Y-76351745D01*
X157661928Y-76524999D01*
X157661928Y-77356796D01*
X156135000Y-75829869D01*
X156135000Y-75174771D01*
X156252962Y-75077962D01*
X156363405Y-74943387D01*
X156445472Y-74789851D01*
X156496008Y-74623255D01*
X156513072Y-74450001D01*
X156513072Y-73649999D01*
X156496008Y-73476745D01*
X156445472Y-73310149D01*
X156363405Y-73156613D01*
X156252962Y-73022038D01*
X156118387Y-72911595D01*
X155964851Y-72829528D01*
X155798255Y-72778992D01*
X155625001Y-72761928D01*
X154374999Y-72761928D01*
X154201745Y-72778992D01*
X154035149Y-72829528D01*
X153881613Y-72911595D01*
X153747038Y-73022038D01*
X153636595Y-73156613D01*
X153554528Y-73310149D01*
X153503992Y-73476745D01*
X153486928Y-73649999D01*
X153486928Y-74450001D01*
X153503992Y-74623255D01*
X153554528Y-74789851D01*
X153636595Y-74943387D01*
X153747038Y-75077962D01*
X153865001Y-75174771D01*
X153865000Y-75963422D01*
X150985000Y-73083422D01*
X150985000Y-72938072D01*
X151150000Y-72938072D01*
X151323254Y-72921008D01*
X151489850Y-72870472D01*
X151643386Y-72788405D01*
X151777962Y-72677962D01*
X151888405Y-72543386D01*
X151970472Y-72389850D01*
X152021008Y-72223254D01*
X152038072Y-72050000D01*
X152038072Y-71600000D01*
X153486928Y-71600000D01*
X153499188Y-71724482D01*
X153535498Y-71844180D01*
X153594463Y-71954494D01*
X153673815Y-72051185D01*
X153770506Y-72130537D01*
X153880820Y-72189502D01*
X154000518Y-72225812D01*
X154125000Y-72238072D01*
X154714250Y-72235000D01*
X154873000Y-72076250D01*
X154873000Y-71077000D01*
X155127000Y-71077000D01*
X155127000Y-72076250D01*
X155285750Y-72235000D01*
X155875000Y-72238072D01*
X155999482Y-72225812D01*
X156119180Y-72189502D01*
X156229494Y-72130537D01*
X156326185Y-72051185D01*
X156405537Y-71954494D01*
X156464502Y-71844180D01*
X156500812Y-71724482D01*
X156513072Y-71600000D01*
X156510000Y-71235750D01*
X156351250Y-71077000D01*
X155127000Y-71077000D01*
X154873000Y-71077000D01*
X153648750Y-71077000D01*
X153490000Y-71235750D01*
X153486928Y-71600000D01*
X152038072Y-71600000D01*
X152038072Y-70950000D01*
X152021008Y-70776746D01*
X151970472Y-70610150D01*
X151888405Y-70456614D01*
X151777962Y-70322038D01*
X151751109Y-70300000D01*
X153486928Y-70300000D01*
X153490000Y-70664250D01*
X153648750Y-70823000D01*
X154873000Y-70823000D01*
X154873000Y-69823750D01*
X155127000Y-69823750D01*
X155127000Y-70823000D01*
X156351250Y-70823000D01*
X156510000Y-70664250D01*
X156513072Y-70300000D01*
X156500812Y-70175518D01*
X156464502Y-70055820D01*
X156405537Y-69945506D01*
X156326185Y-69848815D01*
X156229494Y-69769463D01*
X156119180Y-69710498D01*
X155999482Y-69674188D01*
X155875000Y-69661928D01*
X155285750Y-69665000D01*
X155127000Y-69823750D01*
X154873000Y-69823750D01*
X154714250Y-69665000D01*
X154125000Y-69661928D01*
X154000518Y-69674188D01*
X153880820Y-69710498D01*
X153770506Y-69769463D01*
X153673815Y-69848815D01*
X153594463Y-69945506D01*
X153535498Y-70055820D01*
X153499188Y-70175518D01*
X153486928Y-70300000D01*
X151751109Y-70300000D01*
X151643386Y-70211595D01*
X151489850Y-70129528D01*
X151323254Y-70078992D01*
X151150000Y-70061928D01*
X150975683Y-70061928D01*
X150972195Y-70026510D01*
X150970886Y-70022195D01*
X150921589Y-69859686D01*
X150839411Y-69705941D01*
X150756532Y-69604953D01*
X150756530Y-69604951D01*
X150728817Y-69571183D01*
X150695049Y-69543470D01*
X147985000Y-66833422D01*
X147985000Y-59706578D01*
X149505883Y-58185696D01*
X149731111Y-58163513D01*
X150011034Y-58078599D01*
X150269014Y-57940706D01*
X150495134Y-57755134D01*
X150680706Y-57529014D01*
X150818599Y-57271033D01*
X150903513Y-56991110D01*
X150925000Y-56772949D01*
X150925000Y-56227050D01*
X150903513Y-56008889D01*
X150818599Y-55728966D01*
X150680706Y-55470986D01*
X150495134Y-55244866D01*
X150269013Y-55059294D01*
X150011033Y-54921401D01*
X149731110Y-54836487D01*
X149440000Y-54807815D01*
X149148889Y-54836487D01*
X148868966Y-54921401D01*
X148610986Y-55059294D01*
X148384866Y-55244866D01*
X148199294Y-55470987D01*
X148170000Y-55525792D01*
X148140706Y-55470986D01*
X147955134Y-55244866D01*
X147729013Y-55059294D01*
X147471033Y-54921401D01*
X147191110Y-54836487D01*
X146900000Y-54807815D01*
X146608889Y-54836487D01*
X146328966Y-54921401D01*
X146070986Y-55059294D01*
X145844866Y-55244866D01*
X145659294Y-55470987D01*
X145628577Y-55528455D01*
X145502311Y-55343471D01*
X145293752Y-55138997D01*
X145049310Y-54979139D01*
X144778378Y-54870041D01*
X144716890Y-54858524D01*
X144487000Y-54979845D01*
X144487000Y-56373000D01*
X144507000Y-56373000D01*
X144507000Y-56627000D01*
X144487000Y-56627000D01*
X144487000Y-58020155D01*
X144716890Y-58141476D01*
X144778378Y-58129959D01*
X145049310Y-58020861D01*
X145293752Y-57861003D01*
X145502311Y-57656529D01*
X145628576Y-57471545D01*
X145659294Y-57529014D01*
X145844866Y-57755134D01*
X145926386Y-57822035D01*
X145304951Y-58443471D01*
X145271184Y-58471183D01*
X145243471Y-58504951D01*
X145243468Y-58504954D01*
X145160590Y-58605941D01*
X145078412Y-58759687D01*
X145027805Y-58926510D01*
X145025141Y-58953562D01*
X144140532Y-58068954D01*
X144233000Y-58020155D01*
X144233000Y-56627000D01*
X144213000Y-56627000D01*
X144213000Y-56373000D01*
X144233000Y-56373000D01*
X144233000Y-54979845D01*
X144003110Y-54858524D01*
X143941622Y-54870041D01*
X143670690Y-54979139D01*
X143426248Y-55138997D01*
X143217689Y-55343471D01*
X143091424Y-55528455D01*
X143060706Y-55470986D01*
X142875134Y-55244866D01*
X142649013Y-55059294D01*
X142391033Y-54921401D01*
X142111110Y-54836487D01*
X141820000Y-54807815D01*
X141528889Y-54836487D01*
X141248966Y-54921401D01*
X140990986Y-55059294D01*
X140764866Y-55244866D01*
X140579294Y-55470987D01*
X140550000Y-55525792D01*
X140520706Y-55470986D01*
X140335134Y-55244866D01*
X140109013Y-55059294D01*
X139851033Y-54921401D01*
X139571110Y-54836487D01*
X139280000Y-54807815D01*
X138988889Y-54836487D01*
X138708966Y-54921401D01*
X138450986Y-55059294D01*
X138224866Y-55244866D01*
X138039294Y-55470987D01*
X138010000Y-55525792D01*
X137980706Y-55470986D01*
X137795134Y-55244866D01*
X137569013Y-55059294D01*
X137510000Y-55027751D01*
X137510000Y-54787322D01*
X137513676Y-54749999D01*
X137510000Y-54712676D01*
X137510000Y-54712667D01*
X137499003Y-54601014D01*
X137455546Y-54457753D01*
X137384974Y-54325724D01*
X137290001Y-54209999D01*
X137261003Y-54186201D01*
X135813804Y-52739003D01*
X135790001Y-52709999D01*
X135674276Y-52615026D01*
X135542247Y-52544454D01*
X135398986Y-52500997D01*
X135287333Y-52490000D01*
X135287322Y-52490000D01*
X135250000Y-52486324D01*
X135212678Y-52490000D01*
X128287325Y-52490000D01*
X128250000Y-52486324D01*
X128212675Y-52490000D01*
X128212667Y-52490000D01*
X128101014Y-52500997D01*
X127957753Y-52544454D01*
X127825724Y-52615026D01*
X127709999Y-52709999D01*
X127686201Y-52738997D01*
X126068998Y-54356201D01*
X126040000Y-54379999D01*
X126016202Y-54408997D01*
X126016201Y-54408998D01*
X125945026Y-54495724D01*
X125874454Y-54627754D01*
X125863950Y-54662384D01*
X125830998Y-54771014D01*
X125821971Y-54862667D01*
X125816324Y-54920000D01*
X125820001Y-54957332D01*
X125820001Y-55022405D01*
X125750986Y-55059294D01*
X125524866Y-55244866D01*
X125339294Y-55470987D01*
X125310000Y-55525792D01*
X125280706Y-55470986D01*
X125095134Y-55244866D01*
X124869013Y-55059294D01*
X124611033Y-54921401D01*
X124331110Y-54836487D01*
X124040000Y-54807815D01*
X123748889Y-54836487D01*
X123468966Y-54921401D01*
X123210986Y-55059294D01*
X122984866Y-55244866D01*
X122960393Y-55274687D01*
X122939502Y-55205820D01*
X122880537Y-55095506D01*
X122801185Y-54998815D01*
X122704494Y-54919463D01*
X122594180Y-54860498D01*
X122474482Y-54824188D01*
X122350000Y-54811928D01*
X120650000Y-54811928D01*
X120525518Y-54824188D01*
X120405820Y-54860498D01*
X120295506Y-54919463D01*
X120198815Y-54998815D01*
X120119463Y-55095506D01*
X120060498Y-55205820D01*
X120024188Y-55325518D01*
X120011928Y-55450000D01*
X120011928Y-56940818D01*
X119946324Y-57063554D01*
X119881423Y-57277502D01*
X119859509Y-57500000D01*
X119865001Y-57555761D01*
X119865000Y-59444248D01*
X119859509Y-59500000D01*
X119865001Y-59555761D01*
X119865000Y-62194248D01*
X119859509Y-62250000D01*
X119865000Y-62305751D01*
X119881423Y-62472498D01*
X119946324Y-62686446D01*
X120051716Y-62883623D01*
X120193551Y-63056449D01*
X120236865Y-63091996D01*
X120608004Y-63463135D01*
X120643551Y-63506449D01*
X120816377Y-63648284D01*
X121006676Y-63750000D01*
X121013553Y-63753676D01*
X121227501Y-63818577D01*
X121449999Y-63840491D01*
X121505751Y-63835000D01*
X121570300Y-63835000D01*
X121578992Y-63923254D01*
X121629528Y-64089850D01*
X121711595Y-64243386D01*
X121822038Y-64377962D01*
X121898813Y-64440969D01*
X121845506Y-64469463D01*
X121748815Y-64548815D01*
X121669463Y-64645506D01*
X121610498Y-64755820D01*
X121574188Y-64875518D01*
X121561928Y-65000000D01*
X121565000Y-66014250D01*
X121723750Y-66173000D01*
X122873000Y-66173000D01*
X122873000Y-66153000D01*
X123127000Y-66153000D01*
X123127000Y-66173000D01*
X123147000Y-66173000D01*
X123147000Y-66427000D01*
X123127000Y-66427000D01*
X123127000Y-66447000D01*
X122873000Y-66447000D01*
X122873000Y-66427000D01*
X121723750Y-66427000D01*
X121565000Y-66585750D01*
X121561928Y-67600000D01*
X121574188Y-67724482D01*
X121610498Y-67844180D01*
X121669463Y-67954494D01*
X121748815Y-68051185D01*
X121845506Y-68130537D01*
X121955820Y-68189502D01*
X122075518Y-68225812D01*
X122200000Y-68238072D01*
X122714250Y-68235000D01*
X122872998Y-68076252D01*
X122872998Y-68221870D01*
X121812690Y-69282178D01*
X121720777Y-69087000D01*
X120127000Y-69087000D01*
X120127000Y-69107000D01*
X119873000Y-69107000D01*
X119873000Y-69087000D01*
X119853000Y-69087000D01*
X119853000Y-68833000D01*
X119873000Y-68833000D01*
X119873000Y-67478984D01*
X120127000Y-67478984D01*
X120127000Y-68833000D01*
X121720777Y-68833000D01*
X121840124Y-68579566D01*
X121815744Y-68457602D01*
X121687646Y-68161794D01*
X121504300Y-67896660D01*
X121272752Y-67672390D01*
X121001900Y-67497602D01*
X120702153Y-67379013D01*
X120385030Y-67321181D01*
X120127000Y-67478984D01*
X119873000Y-67478984D01*
X119614970Y-67321181D01*
X119297847Y-67379013D01*
X118998100Y-67497602D01*
X118727248Y-67672390D01*
X118660000Y-67737524D01*
X118660000Y-55029392D01*
X118731173Y-54231917D01*
X118934656Y-53488109D01*
X119266638Y-52792095D01*
X119716626Y-52165870D01*
X120270403Y-51629223D01*
X120910451Y-51199129D01*
X121616553Y-50889171D01*
X122371457Y-50707935D01*
X123024207Y-50660000D01*
X147700514Y-50660000D01*
X154397616Y-58313831D01*
G04 #@! TA.AperFunction,Conductor*
D24*
G36*
X154397616Y-58313831D02*
G01*
X154254247Y-58218035D01*
X153580260Y-57938860D01*
X152864759Y-57796538D01*
X152135241Y-57796538D01*
X151419740Y-57938860D01*
X150745753Y-58218035D01*
X150139181Y-58623334D01*
X149623334Y-59139181D01*
X149218035Y-59745753D01*
X148938860Y-60419740D01*
X148796538Y-61135241D01*
X148796538Y-61864759D01*
X148938860Y-62580260D01*
X149218035Y-63254247D01*
X149623334Y-63860819D01*
X150139181Y-64376666D01*
X150745753Y-64781965D01*
X151419740Y-65061140D01*
X152135241Y-65203462D01*
X152864759Y-65203462D01*
X153580260Y-65061140D01*
X154254247Y-64781965D01*
X154323072Y-64735978D01*
X154323000Y-64736338D01*
X154323000Y-65263662D01*
X154425875Y-65780852D01*
X154627673Y-66268035D01*
X154920638Y-66706488D01*
X155293512Y-67079362D01*
X155731965Y-67372327D01*
X156219148Y-67574125D01*
X156736338Y-67677000D01*
X157263662Y-67677000D01*
X157780852Y-67574125D01*
X158268035Y-67372327D01*
X158706488Y-67079362D01*
X159079362Y-66706488D01*
X159372327Y-66268035D01*
X159574125Y-65780852D01*
X159677000Y-65263662D01*
X159677000Y-64736338D01*
X159576878Y-64232988D01*
X167391046Y-73163466D01*
X167273490Y-73127805D01*
X167143477Y-73115000D01*
X167143469Y-73115000D01*
X167100000Y-73110719D01*
X167056531Y-73115000D01*
X163743466Y-73115000D01*
X163699999Y-73110719D01*
X163656533Y-73115000D01*
X163656523Y-73115000D01*
X163526510Y-73127805D01*
X163359687Y-73178411D01*
X163205941Y-73260589D01*
X163071183Y-73371183D01*
X163043466Y-73404956D01*
X163033422Y-73415000D01*
X162538072Y-73415000D01*
X162538072Y-73400000D01*
X162525812Y-73275518D01*
X162489502Y-73155820D01*
X162430537Y-73045506D01*
X162351185Y-72948815D01*
X162254494Y-72869463D01*
X162144180Y-72810498D01*
X162136275Y-72808100D01*
X162121589Y-72759686D01*
X162039411Y-72605941D01*
X161956532Y-72504953D01*
X161956530Y-72504951D01*
X161928817Y-72471183D01*
X161895049Y-72443470D01*
X161319510Y-71867931D01*
X161330537Y-71854494D01*
X161389502Y-71744180D01*
X161425812Y-71624482D01*
X161438072Y-71500000D01*
X161438072Y-69200000D01*
X161425812Y-69075518D01*
X161389502Y-68955820D01*
X161330537Y-68845506D01*
X161251185Y-68748815D01*
X161154494Y-68669463D01*
X161044180Y-68610498D01*
X160924482Y-68574188D01*
X160800000Y-68561928D01*
X159200000Y-68561928D01*
X159075518Y-68574188D01*
X158955820Y-68610498D01*
X158845506Y-68669463D01*
X158748815Y-68748815D01*
X158669463Y-68845506D01*
X158610498Y-68955820D01*
X158574188Y-69075518D01*
X158561928Y-69200000D01*
X158561928Y-71500000D01*
X158574188Y-71624482D01*
X158610498Y-71744180D01*
X158669463Y-71854494D01*
X158748815Y-71951185D01*
X158845506Y-72030537D01*
X158955820Y-72089502D01*
X159075518Y-72125812D01*
X159177046Y-72135811D01*
X159178411Y-72140312D01*
X159260589Y-72294058D01*
X159371183Y-72428817D01*
X159404956Y-72456534D01*
X160109042Y-73160620D01*
X160074188Y-73275518D01*
X160061928Y-73400000D01*
X160061928Y-75200000D01*
X160074188Y-75324482D01*
X160110498Y-75444180D01*
X160169463Y-75554494D01*
X160248815Y-75651185D01*
X160345506Y-75730537D01*
X160455820Y-75789502D01*
X160575518Y-75825812D01*
X160700000Y-75838072D01*
X161093888Y-75838072D01*
X161022038Y-75897038D01*
X160911595Y-76031613D01*
X160829528Y-76185149D01*
X160778992Y-76351745D01*
X160761928Y-76524999D01*
X160761928Y-77775001D01*
X160778992Y-77948255D01*
X160829528Y-78114851D01*
X160911595Y-78268387D01*
X161022038Y-78402962D01*
X161098584Y-78465782D01*
X160976510Y-78477805D01*
X160809687Y-78528411D01*
X160695563Y-78589411D01*
X160655941Y-78610589D01*
X160554953Y-78693468D01*
X160554951Y-78693470D01*
X160521183Y-78721183D01*
X160493470Y-78754951D01*
X159904956Y-79343466D01*
X159871183Y-79371183D01*
X159784121Y-79477269D01*
X159756449Y-79443551D01*
X159713146Y-79408013D01*
X158968205Y-78663072D01*
X159350001Y-78663072D01*
X159523255Y-78646008D01*
X159689851Y-78595472D01*
X159843387Y-78513405D01*
X159977962Y-78402962D01*
X160088405Y-78268387D01*
X160170472Y-78114851D01*
X160221008Y-77948255D01*
X160238072Y-77775001D01*
X160238072Y-76524999D01*
X160221008Y-76351745D01*
X160170472Y-76185149D01*
X160088405Y-76031613D01*
X159977962Y-75897038D01*
X159887071Y-75822446D01*
X159889282Y-75800000D01*
X159875463Y-75659686D01*
X159872195Y-75626510D01*
X159843176Y-75530849D01*
X159889502Y-75444180D01*
X159925812Y-75324482D01*
X159938072Y-75200000D01*
X159938072Y-73400000D01*
X159925812Y-73275518D01*
X159889502Y-73155820D01*
X159830537Y-73045506D01*
X159751185Y-72948815D01*
X159654494Y-72869463D01*
X159544180Y-72810498D01*
X159424482Y-72774188D01*
X159300000Y-72761928D01*
X158100000Y-72761928D01*
X157975518Y-72774188D01*
X157855820Y-72810498D01*
X157745506Y-72869463D01*
X157648815Y-72948815D01*
X157569463Y-73045506D01*
X157510498Y-73155820D01*
X157474188Y-73275518D01*
X157461928Y-73400000D01*
X157461928Y-75200000D01*
X157474188Y-75324482D01*
X157510498Y-75444180D01*
X157569463Y-75554494D01*
X157648815Y-75651185D01*
X157745506Y-75730537D01*
X157828181Y-75774728D01*
X157834344Y-75795046D01*
X157878411Y-75940312D01*
X157881611Y-75946299D01*
X157811595Y-76031613D01*
X157729528Y-76185149D01*
X157678992Y-76351745D01*
X157661928Y-76524999D01*
X157661928Y-77356796D01*
X156135000Y-75829869D01*
X156135000Y-75174771D01*
X156252962Y-75077962D01*
X156363405Y-74943387D01*
X156445472Y-74789851D01*
X156496008Y-74623255D01*
X156513072Y-74450001D01*
X156513072Y-73649999D01*
X156496008Y-73476745D01*
X156445472Y-73310149D01*
X156363405Y-73156613D01*
X156252962Y-73022038D01*
X156118387Y-72911595D01*
X155964851Y-72829528D01*
X155798255Y-72778992D01*
X155625001Y-72761928D01*
X154374999Y-72761928D01*
X154201745Y-72778992D01*
X154035149Y-72829528D01*
X153881613Y-72911595D01*
X153747038Y-73022038D01*
X153636595Y-73156613D01*
X153554528Y-73310149D01*
X153503992Y-73476745D01*
X153486928Y-73649999D01*
X153486928Y-74450001D01*
X153503992Y-74623255D01*
X153554528Y-74789851D01*
X153636595Y-74943387D01*
X153747038Y-75077962D01*
X153865001Y-75174771D01*
X153865000Y-75963422D01*
X150985000Y-73083422D01*
X150985000Y-72938072D01*
X151150000Y-72938072D01*
X151323254Y-72921008D01*
X151489850Y-72870472D01*
X151643386Y-72788405D01*
X151777962Y-72677962D01*
X151888405Y-72543386D01*
X151970472Y-72389850D01*
X152021008Y-72223254D01*
X152038072Y-72050000D01*
X152038072Y-71600000D01*
X153486928Y-71600000D01*
X153499188Y-71724482D01*
X153535498Y-71844180D01*
X153594463Y-71954494D01*
X153673815Y-72051185D01*
X153770506Y-72130537D01*
X153880820Y-72189502D01*
X154000518Y-72225812D01*
X154125000Y-72238072D01*
X154714250Y-72235000D01*
X154873000Y-72076250D01*
X154873000Y-71077000D01*
X155127000Y-71077000D01*
X155127000Y-72076250D01*
X155285750Y-72235000D01*
X155875000Y-72238072D01*
X155999482Y-72225812D01*
X156119180Y-72189502D01*
X156229494Y-72130537D01*
X156326185Y-72051185D01*
X156405537Y-71954494D01*
X156464502Y-71844180D01*
X156500812Y-71724482D01*
X156513072Y-71600000D01*
X156510000Y-71235750D01*
X156351250Y-71077000D01*
X155127000Y-71077000D01*
X154873000Y-71077000D01*
X153648750Y-71077000D01*
X153490000Y-71235750D01*
X153486928Y-71600000D01*
X152038072Y-71600000D01*
X152038072Y-70950000D01*
X152021008Y-70776746D01*
X151970472Y-70610150D01*
X151888405Y-70456614D01*
X151777962Y-70322038D01*
X151751109Y-70300000D01*
X153486928Y-70300000D01*
X153490000Y-70664250D01*
X153648750Y-70823000D01*
X154873000Y-70823000D01*
X154873000Y-69823750D01*
X155127000Y-69823750D01*
X155127000Y-70823000D01*
X156351250Y-70823000D01*
X156510000Y-70664250D01*
X156513072Y-70300000D01*
X156500812Y-70175518D01*
X156464502Y-70055820D01*
X156405537Y-69945506D01*
X156326185Y-69848815D01*
X156229494Y-69769463D01*
X156119180Y-69710498D01*
X155999482Y-69674188D01*
X155875000Y-69661928D01*
X155285750Y-69665000D01*
X155127000Y-69823750D01*
X154873000Y-69823750D01*
X154714250Y-69665000D01*
X154125000Y-69661928D01*
X154000518Y-69674188D01*
X153880820Y-69710498D01*
X153770506Y-69769463D01*
X153673815Y-69848815D01*
X153594463Y-69945506D01*
X153535498Y-70055820D01*
X153499188Y-70175518D01*
X153486928Y-70300000D01*
X151751109Y-70300000D01*
X151643386Y-70211595D01*
X151489850Y-70129528D01*
X151323254Y-70078992D01*
X151150000Y-70061928D01*
X150975683Y-70061928D01*
X150972195Y-70026510D01*
X150970886Y-70022195D01*
X150921589Y-69859686D01*
X150839411Y-69705941D01*
X150756532Y-69604953D01*
X150756530Y-69604951D01*
X150728817Y-69571183D01*
X150695049Y-69543470D01*
X147985000Y-66833422D01*
X147985000Y-59706578D01*
X149505883Y-58185696D01*
X149731111Y-58163513D01*
X150011034Y-58078599D01*
X150269014Y-57940706D01*
X150495134Y-57755134D01*
X150680706Y-57529014D01*
X150818599Y-57271033D01*
X150903513Y-56991110D01*
X150925000Y-56772949D01*
X150925000Y-56227050D01*
X150903513Y-56008889D01*
X150818599Y-55728966D01*
X150680706Y-55470986D01*
X150495134Y-55244866D01*
X150269013Y-55059294D01*
X150011033Y-54921401D01*
X149731110Y-54836487D01*
X149440000Y-54807815D01*
X149148889Y-54836487D01*
X148868966Y-54921401D01*
X148610986Y-55059294D01*
X148384866Y-55244866D01*
X148199294Y-55470987D01*
X148170000Y-55525792D01*
X148140706Y-55470986D01*
X147955134Y-55244866D01*
X147729013Y-55059294D01*
X147471033Y-54921401D01*
X147191110Y-54836487D01*
X146900000Y-54807815D01*
X146608889Y-54836487D01*
X146328966Y-54921401D01*
X146070986Y-55059294D01*
X145844866Y-55244866D01*
X145659294Y-55470987D01*
X145628577Y-55528455D01*
X145502311Y-55343471D01*
X145293752Y-55138997D01*
X145049310Y-54979139D01*
X144778378Y-54870041D01*
X144716890Y-54858524D01*
X144487000Y-54979845D01*
X144487000Y-56373000D01*
X144507000Y-56373000D01*
X144507000Y-56627000D01*
X144487000Y-56627000D01*
X144487000Y-58020155D01*
X144716890Y-58141476D01*
X144778378Y-58129959D01*
X145049310Y-58020861D01*
X145293752Y-57861003D01*
X145502311Y-57656529D01*
X145628576Y-57471545D01*
X145659294Y-57529014D01*
X145844866Y-57755134D01*
X145926386Y-57822035D01*
X145304951Y-58443471D01*
X145271184Y-58471183D01*
X145243471Y-58504951D01*
X145243468Y-58504954D01*
X145160590Y-58605941D01*
X145078412Y-58759687D01*
X145027805Y-58926510D01*
X145025141Y-58953562D01*
X144140532Y-58068954D01*
X144233000Y-58020155D01*
X144233000Y-56627000D01*
X144213000Y-56627000D01*
X144213000Y-56373000D01*
X144233000Y-56373000D01*
X144233000Y-54979845D01*
X144003110Y-54858524D01*
X143941622Y-54870041D01*
X143670690Y-54979139D01*
X143426248Y-55138997D01*
X143217689Y-55343471D01*
X143091424Y-55528455D01*
X143060706Y-55470986D01*
X142875134Y-55244866D01*
X142649013Y-55059294D01*
X142391033Y-54921401D01*
X142111110Y-54836487D01*
X141820000Y-54807815D01*
X141528889Y-54836487D01*
X141248966Y-54921401D01*
X140990986Y-55059294D01*
X140764866Y-55244866D01*
X140579294Y-55470987D01*
X140550000Y-55525792D01*
X140520706Y-55470986D01*
X140335134Y-55244866D01*
X140109013Y-55059294D01*
X139851033Y-54921401D01*
X139571110Y-54836487D01*
X139280000Y-54807815D01*
X138988889Y-54836487D01*
X138708966Y-54921401D01*
X138450986Y-55059294D01*
X138224866Y-55244866D01*
X138039294Y-55470987D01*
X138010000Y-55525792D01*
X137980706Y-55470986D01*
X137795134Y-55244866D01*
X137569013Y-55059294D01*
X137510000Y-55027751D01*
X137510000Y-54787322D01*
X137513676Y-54749999D01*
X137510000Y-54712676D01*
X137510000Y-54712667D01*
X137499003Y-54601014D01*
X137455546Y-54457753D01*
X137384974Y-54325724D01*
X137290001Y-54209999D01*
X137261003Y-54186201D01*
X135813804Y-52739003D01*
X135790001Y-52709999D01*
X135674276Y-52615026D01*
X135542247Y-52544454D01*
X135398986Y-52500997D01*
X135287333Y-52490000D01*
X135287322Y-52490000D01*
X135250000Y-52486324D01*
X135212678Y-52490000D01*
X128287325Y-52490000D01*
X128250000Y-52486324D01*
X128212675Y-52490000D01*
X128212667Y-52490000D01*
X128101014Y-52500997D01*
X127957753Y-52544454D01*
X127825724Y-52615026D01*
X127709999Y-52709999D01*
X127686201Y-52738997D01*
X126068998Y-54356201D01*
X126040000Y-54379999D01*
X126016202Y-54408997D01*
X126016201Y-54408998D01*
X125945026Y-54495724D01*
X125874454Y-54627754D01*
X125863950Y-54662384D01*
X125830998Y-54771014D01*
X125821971Y-54862667D01*
X125816324Y-54920000D01*
X125820001Y-54957332D01*
X125820001Y-55022405D01*
X125750986Y-55059294D01*
X125524866Y-55244866D01*
X125339294Y-55470987D01*
X125310000Y-55525792D01*
X125280706Y-55470986D01*
X125095134Y-55244866D01*
X124869013Y-55059294D01*
X124611033Y-54921401D01*
X124331110Y-54836487D01*
X124040000Y-54807815D01*
X123748889Y-54836487D01*
X123468966Y-54921401D01*
X123210986Y-55059294D01*
X122984866Y-55244866D01*
X122960393Y-55274687D01*
X122939502Y-55205820D01*
X122880537Y-55095506D01*
X122801185Y-54998815D01*
X122704494Y-54919463D01*
X122594180Y-54860498D01*
X122474482Y-54824188D01*
X122350000Y-54811928D01*
X120650000Y-54811928D01*
X120525518Y-54824188D01*
X120405820Y-54860498D01*
X120295506Y-54919463D01*
X120198815Y-54998815D01*
X120119463Y-55095506D01*
X120060498Y-55205820D01*
X120024188Y-55325518D01*
X120011928Y-55450000D01*
X120011928Y-56940818D01*
X119946324Y-57063554D01*
X119881423Y-57277502D01*
X119859509Y-57500000D01*
X119865001Y-57555761D01*
X119865000Y-59444248D01*
X119859509Y-59500000D01*
X119865001Y-59555761D01*
X119865000Y-62194248D01*
X119859509Y-62250000D01*
X119865000Y-62305751D01*
X119881423Y-62472498D01*
X119946324Y-62686446D01*
X120051716Y-62883623D01*
X120193551Y-63056449D01*
X120236865Y-63091996D01*
X120608004Y-63463135D01*
X120643551Y-63506449D01*
X120816377Y-63648284D01*
X121006676Y-63750000D01*
X121013553Y-63753676D01*
X121227501Y-63818577D01*
X121449999Y-63840491D01*
X121505751Y-63835000D01*
X121570300Y-63835000D01*
X121578992Y-63923254D01*
X121629528Y-64089850D01*
X121711595Y-64243386D01*
X121822038Y-64377962D01*
X121898813Y-64440969D01*
X121845506Y-64469463D01*
X121748815Y-64548815D01*
X121669463Y-64645506D01*
X121610498Y-64755820D01*
X121574188Y-64875518D01*
X121561928Y-65000000D01*
X121565000Y-66014250D01*
X121723750Y-66173000D01*
X122873000Y-66173000D01*
X122873000Y-66153000D01*
X123127000Y-66153000D01*
X123127000Y-66173000D01*
X123147000Y-66173000D01*
X123147000Y-66427000D01*
X123127000Y-66427000D01*
X123127000Y-66447000D01*
X122873000Y-66447000D01*
X122873000Y-66427000D01*
X121723750Y-66427000D01*
X121565000Y-66585750D01*
X121561928Y-67600000D01*
X121574188Y-67724482D01*
X121610498Y-67844180D01*
X121669463Y-67954494D01*
X121748815Y-68051185D01*
X121845506Y-68130537D01*
X121955820Y-68189502D01*
X122075518Y-68225812D01*
X122200000Y-68238072D01*
X122714250Y-68235000D01*
X122872998Y-68076252D01*
X122872998Y-68221870D01*
X121812690Y-69282178D01*
X121720777Y-69087000D01*
X120127000Y-69087000D01*
X120127000Y-69107000D01*
X119873000Y-69107000D01*
X119873000Y-69087000D01*
X119853000Y-69087000D01*
X119853000Y-68833000D01*
X119873000Y-68833000D01*
X119873000Y-67478984D01*
X120127000Y-67478984D01*
X120127000Y-68833000D01*
X121720777Y-68833000D01*
X121840124Y-68579566D01*
X121815744Y-68457602D01*
X121687646Y-68161794D01*
X121504300Y-67896660D01*
X121272752Y-67672390D01*
X121001900Y-67497602D01*
X120702153Y-67379013D01*
X120385030Y-67321181D01*
X120127000Y-67478984D01*
X119873000Y-67478984D01*
X119614970Y-67321181D01*
X119297847Y-67379013D01*
X118998100Y-67497602D01*
X118727248Y-67672390D01*
X118660000Y-67737524D01*
X118660000Y-55029392D01*
X118731173Y-54231917D01*
X118934656Y-53488109D01*
X119266638Y-52792095D01*
X119716626Y-52165870D01*
X120270403Y-51629223D01*
X120910451Y-51199129D01*
X121616553Y-50889171D01*
X122371457Y-50707935D01*
X123024207Y-50660000D01*
X147700514Y-50660000D01*
X154397616Y-58313831D01*
G37*
G04 #@! TD.AperFunction*
M02*
