M48
; DRILL file {KiCad 5.1.7-a382d34a8~87~ubuntu18.04.1} date Sat Oct 31 20:20:52 2020
; FORMAT={-:-/ absolute / inch / decimal}
; #@! TF.CreationDate,2020-10-31T20:20:52-04:00
; #@! TF.GenerationSoftware,Kicad,Pcbnew,5.1.7-a382d34a8~87~ubuntu18.04.1
FMAT,2
INCH
T1C0.0157
T2C0.0394
%
G90
G05
T1
X-2.9213Y-0.622
X-2.9016Y-0.0787
X-2.9016Y-0.3579
X-2.7165Y-0.4055
X-2.6181Y-0.1417
X-2.5551Y-0.1417
X-2.4094Y-0.0236
X-2.3268Y-0.9921
X-2.2717Y-0.1772
X-2.1929Y-0.5984
X-2.0669Y-0.4291
X-2.063Y-0.626
X-1.9449Y-0.3976
X-1.9213Y-0.5512
X-1.9016Y-0.6181
X-1.8701Y-0.2126
X-1.8228Y-0.7283
X-1.7968Y-0.0094
X-1.6181Y-0.3071
X-1.6181Y-0.3583
X-1.6176Y-0.4115
X-1.6063Y-0.5157
X-1.5984Y-0.1102
X-1.5787Y-0.7087
X-1.5354Y-0.0591
X-1.5039Y-0.6772
X-1.4528Y-0.3346
X-1.4528Y-0.4724
X-1.4144Y-0.5955
X-1.4134Y-0.378
X-1.3228Y-0.6614
X-1.2677Y-0.9921
X-1.2638Y-0.7913
X-1.2126Y-0.2913
X-1.2032Y-0.0251
X-1.139Y-0.7535
X-1.1159Y-0.472
X-1.1063Y-0.2165
X-0.7953Y-0.4488
X-0.7102Y-0.0251
X-0.622Y-0.9016
X-0.4508Y-0.2185
X-0.3295Y-0.9016
X-0.241Y-0.0251
X-0.0591Y-0.2638
T2
X-2.739Y-0.9917
X-2.639Y-0.9917
X-2.539Y-0.9917
X-2.439Y-0.9917
X-1.139Y-0.9917
X-1.039Y-0.9917
X-0.939Y-0.9917
X-0.839Y-0.9917
X-0.739Y-0.9917
X-0.639Y-0.9917
X-0.539Y-0.9917
X-0.439Y-0.9917
X-0.339Y-0.9917
X-0.239Y-0.9917
X-0.139Y-0.9917
T0
M30
