%TF.GenerationSoftware,KiCad,Pcbnew,5.1.7-a382d34a8~87~ubuntu18.04.1*%
%TF.CreationDate,2020-10-31T20:21:00-04:00*%
%TF.ProjectId,DolbyS_NR_HIC,446f6c62-7953-45f4-9e52-5f4849432e6b,rev?*%
%TF.SameCoordinates,PXc65d400PY5d75c80*%
%TF.FileFunction,Copper,L1,Top*%
%TF.FilePolarity,Positive*%
%FSLAX46Y46*%
G04 Gerber Fmt 4.6, Leading zero omitted, Abs format (unit mm)*
G04 Created by KiCad (PCBNEW 5.1.7-a382d34a8~87~ubuntu18.04.1) date 2020-10-31 20:21:00*
%MOMM*%
%LPD*%
G01*
G04 APERTURE LIST*
%TA.AperFunction,Profile*%
%ADD10C,0.100000*%
%TD*%
%TA.AperFunction,ComponentPad*%
%ADD11R,1.700000X1.700000*%
%TD*%
%TA.AperFunction,ComponentPad*%
%ADD12O,1.700000X1.700000*%
%TD*%
%TA.AperFunction,ViaPad*%
%ADD13C,0.800000*%
%TD*%
%TA.AperFunction,Conductor*%
%ADD14C,1.016000*%
%TD*%
%TA.AperFunction,Conductor*%
%ADD15C,0.254000*%
%TD*%
%TA.AperFunction,Conductor*%
%ADD16C,0.508000*%
%TD*%
%TA.AperFunction,Conductor*%
%ADD17C,0.150000*%
%TD*%
G04 APERTURE END LIST*
D10*
X-76000000Y-27000000D02*
X-76000000Y1000000D01*
X0Y-27000000D02*
X-76000000Y-27000000D01*
X0Y1000000D02*
X0Y-27000000D01*
X-76000000Y1000000D02*
X0Y1000000D01*
D11*
%TO.P,J1,1*%
%TO.N,GND*%
X-69570000Y-25190000D03*
D12*
%TO.P,J1,2*%
%TO.N,VEE*%
X-67030000Y-25190000D03*
%TO.P,J1,3*%
%TO.N,VCC*%
X-64490000Y-25190000D03*
%TO.P,J1,4*%
%TO.N,Net-(J1-Pad4)*%
X-61950000Y-25190000D03*
%TO.P,J1,17*%
%TO.N,GND*%
X-28930000Y-25190000D03*
%TO.P,J1,18*%
%TO.N,Net-(J1-Pad18)*%
X-26390000Y-25190000D03*
%TO.P,J1,19*%
%TO.N,/ENC_OUT*%
X-23850000Y-25190000D03*
%TO.P,J1,20*%
%TO.N,GND*%
X-21310000Y-25190000D03*
%TO.P,J1,21*%
%TO.N,/ENC_FB*%
X-18770000Y-25190000D03*
%TO.P,J1,22*%
%TO.N,/ENC_IN*%
X-16230000Y-25190000D03*
%TO.P,J1,23*%
%TO.N,/DEC_FB*%
X-13690000Y-25190000D03*
%TO.P,J1,24*%
%TO.N,/SEL*%
X-11150000Y-25190000D03*
%TO.P,J1,25*%
%TO.N,/DEC_IN*%
X-8610000Y-25190000D03*
%TO.P,J1,26*%
%TO.N,/DEC_OUT*%
X-6070000Y-25190000D03*
%TO.P,J1,27*%
%TO.N,GND*%
X-3530000Y-25190000D03*
%TD*%
%TO.P,U1,48*%
%TO.N,Net-(C20-Pad1)*%
%TA.AperFunction,SMDPad,CuDef*%
G36*
G01*
X-32500000Y-8625000D02*
X-32500000Y-8375000D01*
G75*
G02*
X-32375000Y-8250000I125000J0D01*
G01*
X-29825000Y-8250000D01*
G75*
G02*
X-29700000Y-8375000I0J-125000D01*
G01*
X-29700000Y-8625000D01*
G75*
G02*
X-29825000Y-8750000I-125000J0D01*
G01*
X-32375000Y-8750000D01*
G75*
G02*
X-32500000Y-8625000I0J125000D01*
G01*
G37*
%TD.AperFunction*%
%TO.P,U1,47*%
%TO.N,Net-(C18-Pad1)*%
%TA.AperFunction,SMDPad,CuDef*%
G36*
G01*
X-32500000Y-9425000D02*
X-32500000Y-9175000D01*
G75*
G02*
X-32375000Y-9050000I125000J0D01*
G01*
X-29825000Y-9050000D01*
G75*
G02*
X-29700000Y-9175000I0J-125000D01*
G01*
X-29700000Y-9425000D01*
G75*
G02*
X-29825000Y-9550000I-125000J0D01*
G01*
X-32375000Y-9550000D01*
G75*
G02*
X-32500000Y-9425000I0J125000D01*
G01*
G37*
%TD.AperFunction*%
%TO.P,U1,38*%
%TO.N,Net-(R17-Pad1)*%
%TA.AperFunction,SMDPad,CuDef*%
G36*
G01*
X-32500000Y-16625000D02*
X-32500000Y-16375000D01*
G75*
G02*
X-32375000Y-16250000I125000J0D01*
G01*
X-29825000Y-16250000D01*
G75*
G02*
X-29700000Y-16375000I0J-125000D01*
G01*
X-29700000Y-16625000D01*
G75*
G02*
X-29825000Y-16750000I-125000J0D01*
G01*
X-32375000Y-16750000D01*
G75*
G02*
X-32500000Y-16625000I0J125000D01*
G01*
G37*
%TD.AperFunction*%
%TO.P,U1,40*%
%TO.N,Net-(C13-Pad1)*%
%TA.AperFunction,SMDPad,CuDef*%
G36*
G01*
X-32500000Y-15025000D02*
X-32500000Y-14775000D01*
G75*
G02*
X-32375000Y-14650000I125000J0D01*
G01*
X-29825000Y-14650000D01*
G75*
G02*
X-29700000Y-14775000I0J-125000D01*
G01*
X-29700000Y-15025000D01*
G75*
G02*
X-29825000Y-15150000I-125000J0D01*
G01*
X-32375000Y-15150000D01*
G75*
G02*
X-32500000Y-15025000I0J125000D01*
G01*
G37*
%TD.AperFunction*%
%TO.P,U1,37*%
%TO.N,Net-(C8-Pad2)*%
%TA.AperFunction,SMDPad,CuDef*%
G36*
G01*
X-32500000Y-17425000D02*
X-32500000Y-17175000D01*
G75*
G02*
X-32375000Y-17050000I125000J0D01*
G01*
X-29825000Y-17050000D01*
G75*
G02*
X-29700000Y-17175000I0J-125000D01*
G01*
X-29700000Y-17425000D01*
G75*
G02*
X-29825000Y-17550000I-125000J0D01*
G01*
X-32375000Y-17550000D01*
G75*
G02*
X-32500000Y-17425000I0J125000D01*
G01*
G37*
%TD.AperFunction*%
%TO.P,U1,44*%
%TO.N,Net-(C7-Pad1)*%
%TA.AperFunction,SMDPad,CuDef*%
G36*
G01*
X-32500000Y-11825000D02*
X-32500000Y-11575000D01*
G75*
G02*
X-32375000Y-11450000I125000J0D01*
G01*
X-29825000Y-11450000D01*
G75*
G02*
X-29700000Y-11575000I0J-125000D01*
G01*
X-29700000Y-11825000D01*
G75*
G02*
X-29825000Y-11950000I-125000J0D01*
G01*
X-32375000Y-11950000D01*
G75*
G02*
X-32500000Y-11825000I0J125000D01*
G01*
G37*
%TD.AperFunction*%
%TO.P,U1,43*%
%TO.N,Net-(C5-Pad1)*%
%TA.AperFunction,SMDPad,CuDef*%
G36*
G01*
X-32500000Y-12625000D02*
X-32500000Y-12375000D01*
G75*
G02*
X-32375000Y-12250000I125000J0D01*
G01*
X-29825000Y-12250000D01*
G75*
G02*
X-29700000Y-12375000I0J-125000D01*
G01*
X-29700000Y-12625000D01*
G75*
G02*
X-29825000Y-12750000I-125000J0D01*
G01*
X-32375000Y-12750000D01*
G75*
G02*
X-32500000Y-12625000I0J125000D01*
G01*
G37*
%TD.AperFunction*%
%TO.P,U1,41*%
%TO.N,Net-(C10-Pad1)*%
%TA.AperFunction,SMDPad,CuDef*%
G36*
G01*
X-32500000Y-14225000D02*
X-32500000Y-13975000D01*
G75*
G02*
X-32375000Y-13850000I125000J0D01*
G01*
X-29825000Y-13850000D01*
G75*
G02*
X-29700000Y-13975000I0J-125000D01*
G01*
X-29700000Y-14225000D01*
G75*
G02*
X-29825000Y-14350000I-125000J0D01*
G01*
X-32375000Y-14350000D01*
G75*
G02*
X-32500000Y-14225000I0J125000D01*
G01*
G37*
%TD.AperFunction*%
%TO.P,U1,46*%
%TO.N,Net-(C16-Pad1)*%
%TA.AperFunction,SMDPad,CuDef*%
G36*
G01*
X-32500000Y-10225000D02*
X-32500000Y-9975000D01*
G75*
G02*
X-32375000Y-9850000I125000J0D01*
G01*
X-29825000Y-9850000D01*
G75*
G02*
X-29700000Y-9975000I0J-125000D01*
G01*
X-29700000Y-10225000D01*
G75*
G02*
X-29825000Y-10350000I-125000J0D01*
G01*
X-32375000Y-10350000D01*
G75*
G02*
X-32500000Y-10225000I0J125000D01*
G01*
G37*
%TD.AperFunction*%
%TO.P,U1,39*%
%TO.N,Net-(R28-Pad1)*%
%TA.AperFunction,SMDPad,CuDef*%
G36*
G01*
X-32500000Y-15825000D02*
X-32500000Y-15575000D01*
G75*
G02*
X-32375000Y-15450000I125000J0D01*
G01*
X-29825000Y-15450000D01*
G75*
G02*
X-29700000Y-15575000I0J-125000D01*
G01*
X-29700000Y-15825000D01*
G75*
G02*
X-29825000Y-15950000I-125000J0D01*
G01*
X-32375000Y-15950000D01*
G75*
G02*
X-32500000Y-15825000I0J125000D01*
G01*
G37*
%TD.AperFunction*%
%TO.P,U1,42*%
%TO.N,Net-(C6-Pad1)*%
%TA.AperFunction,SMDPad,CuDef*%
G36*
G01*
X-32500000Y-13425000D02*
X-32500000Y-13175000D01*
G75*
G02*
X-32375000Y-13050000I125000J0D01*
G01*
X-29825000Y-13050000D01*
G75*
G02*
X-29700000Y-13175000I0J-125000D01*
G01*
X-29700000Y-13425000D01*
G75*
G02*
X-29825000Y-13550000I-125000J0D01*
G01*
X-32375000Y-13550000D01*
G75*
G02*
X-32500000Y-13425000I0J125000D01*
G01*
G37*
%TD.AperFunction*%
%TO.P,U1,45*%
%TO.N,Net-(R52-Pad1)*%
%TA.AperFunction,SMDPad,CuDef*%
G36*
G01*
X-32500000Y-11025000D02*
X-32500000Y-10775000D01*
G75*
G02*
X-32375000Y-10650000I125000J0D01*
G01*
X-29825000Y-10650000D01*
G75*
G02*
X-29700000Y-10775000I0J-125000D01*
G01*
X-29700000Y-11025000D01*
G75*
G02*
X-29825000Y-11150000I-125000J0D01*
G01*
X-32375000Y-11150000D01*
G75*
G02*
X-32500000Y-11025000I0J125000D01*
G01*
G37*
%TD.AperFunction*%
%TO.P,U1,36*%
%TO.N,Net-(C21-Pad1)*%
%TA.AperFunction,SMDPad,CuDef*%
G36*
G01*
X-34325000Y-19000000D02*
X-34075000Y-19000000D01*
G75*
G02*
X-33950000Y-19125000I0J-125000D01*
G01*
X-33950000Y-21675000D01*
G75*
G02*
X-34075000Y-21800000I-125000J0D01*
G01*
X-34325000Y-21800000D01*
G75*
G02*
X-34450000Y-21675000I0J125000D01*
G01*
X-34450000Y-19125000D01*
G75*
G02*
X-34325000Y-19000000I125000J0D01*
G01*
G37*
%TD.AperFunction*%
%TO.P,U1,35*%
%TO.N,Net-(C25-Pad1)*%
%TA.AperFunction,SMDPad,CuDef*%
G36*
G01*
X-35125000Y-19000000D02*
X-34875000Y-19000000D01*
G75*
G02*
X-34750000Y-19125000I0J-125000D01*
G01*
X-34750000Y-21675000D01*
G75*
G02*
X-34875000Y-21800000I-125000J0D01*
G01*
X-35125000Y-21800000D01*
G75*
G02*
X-35250000Y-21675000I0J125000D01*
G01*
X-35250000Y-19125000D01*
G75*
G02*
X-35125000Y-19000000I125000J0D01*
G01*
G37*
%TD.AperFunction*%
%TO.P,U1,26*%
%TO.N,Net-(C40-Pad1)*%
%TA.AperFunction,SMDPad,CuDef*%
G36*
G01*
X-42325000Y-19000000D02*
X-42075000Y-19000000D01*
G75*
G02*
X-41950000Y-19125000I0J-125000D01*
G01*
X-41950000Y-21675000D01*
G75*
G02*
X-42075000Y-21800000I-125000J0D01*
G01*
X-42325000Y-21800000D01*
G75*
G02*
X-42450000Y-21675000I0J125000D01*
G01*
X-42450000Y-19125000D01*
G75*
G02*
X-42325000Y-19000000I125000J0D01*
G01*
G37*
%TD.AperFunction*%
%TO.P,U1,28*%
%TO.N,/Dolby S Encoder/N2*%
%TA.AperFunction,SMDPad,CuDef*%
G36*
G01*
X-40725000Y-19000000D02*
X-40475000Y-19000000D01*
G75*
G02*
X-40350000Y-19125000I0J-125000D01*
G01*
X-40350000Y-21675000D01*
G75*
G02*
X-40475000Y-21800000I-125000J0D01*
G01*
X-40725000Y-21800000D01*
G75*
G02*
X-40850000Y-21675000I0J125000D01*
G01*
X-40850000Y-19125000D01*
G75*
G02*
X-40725000Y-19000000I125000J0D01*
G01*
G37*
%TD.AperFunction*%
%TO.P,U1,25*%
%TO.N,Net-(R45-Pad1)*%
%TA.AperFunction,SMDPad,CuDef*%
G36*
G01*
X-43125000Y-19000000D02*
X-42875000Y-19000000D01*
G75*
G02*
X-42750000Y-19125000I0J-125000D01*
G01*
X-42750000Y-21675000D01*
G75*
G02*
X-42875000Y-21800000I-125000J0D01*
G01*
X-43125000Y-21800000D01*
G75*
G02*
X-43250000Y-21675000I0J125000D01*
G01*
X-43250000Y-19125000D01*
G75*
G02*
X-43125000Y-19000000I125000J0D01*
G01*
G37*
%TD.AperFunction*%
%TO.P,U1,32*%
%TO.N,Net-(C29-Pad1)*%
%TA.AperFunction,SMDPad,CuDef*%
G36*
G01*
X-37525000Y-19000000D02*
X-37275000Y-19000000D01*
G75*
G02*
X-37150000Y-19125000I0J-125000D01*
G01*
X-37150000Y-21675000D01*
G75*
G02*
X-37275000Y-21800000I-125000J0D01*
G01*
X-37525000Y-21800000D01*
G75*
G02*
X-37650000Y-21675000I0J125000D01*
G01*
X-37650000Y-19125000D01*
G75*
G02*
X-37525000Y-19000000I125000J0D01*
G01*
G37*
%TD.AperFunction*%
%TO.P,U1,31*%
%TO.N,Net-(C33-Pad2)*%
%TA.AperFunction,SMDPad,CuDef*%
G36*
G01*
X-38325000Y-19000000D02*
X-38075000Y-19000000D01*
G75*
G02*
X-37950000Y-19125000I0J-125000D01*
G01*
X-37950000Y-21675000D01*
G75*
G02*
X-38075000Y-21800000I-125000J0D01*
G01*
X-38325000Y-21800000D01*
G75*
G02*
X-38450000Y-21675000I0J125000D01*
G01*
X-38450000Y-19125000D01*
G75*
G02*
X-38325000Y-19000000I125000J0D01*
G01*
G37*
%TD.AperFunction*%
%TO.P,U1,29*%
%TO.N,/Dolby S Encoder/N2*%
%TA.AperFunction,SMDPad,CuDef*%
G36*
G01*
X-39925000Y-19000000D02*
X-39675000Y-19000000D01*
G75*
G02*
X-39550000Y-19125000I0J-125000D01*
G01*
X-39550000Y-21675000D01*
G75*
G02*
X-39675000Y-21800000I-125000J0D01*
G01*
X-39925000Y-21800000D01*
G75*
G02*
X-40050000Y-21675000I0J125000D01*
G01*
X-40050000Y-19125000D01*
G75*
G02*
X-39925000Y-19000000I125000J0D01*
G01*
G37*
%TD.AperFunction*%
%TO.P,U1,34*%
%TO.N,Net-(R21-Pad1)*%
%TA.AperFunction,SMDPad,CuDef*%
G36*
G01*
X-35925000Y-19000000D02*
X-35675000Y-19000000D01*
G75*
G02*
X-35550000Y-19125000I0J-125000D01*
G01*
X-35550000Y-21675000D01*
G75*
G02*
X-35675000Y-21800000I-125000J0D01*
G01*
X-35925000Y-21800000D01*
G75*
G02*
X-36050000Y-21675000I0J125000D01*
G01*
X-36050000Y-19125000D01*
G75*
G02*
X-35925000Y-19000000I125000J0D01*
G01*
G37*
%TD.AperFunction*%
%TO.P,U1,27*%
%TO.N,Net-(R43-Pad1)*%
%TA.AperFunction,SMDPad,CuDef*%
G36*
G01*
X-41525000Y-19000000D02*
X-41275000Y-19000000D01*
G75*
G02*
X-41150000Y-19125000I0J-125000D01*
G01*
X-41150000Y-21675000D01*
G75*
G02*
X-41275000Y-21800000I-125000J0D01*
G01*
X-41525000Y-21800000D01*
G75*
G02*
X-41650000Y-21675000I0J125000D01*
G01*
X-41650000Y-19125000D01*
G75*
G02*
X-41525000Y-19000000I125000J0D01*
G01*
G37*
%TD.AperFunction*%
%TO.P,U1,30*%
%TO.N,Net-(C33-Pad1)*%
%TA.AperFunction,SMDPad,CuDef*%
G36*
G01*
X-39125000Y-19000000D02*
X-38875000Y-19000000D01*
G75*
G02*
X-38750000Y-19125000I0J-125000D01*
G01*
X-38750000Y-21675000D01*
G75*
G02*
X-38875000Y-21800000I-125000J0D01*
G01*
X-39125000Y-21800000D01*
G75*
G02*
X-39250000Y-21675000I0J125000D01*
G01*
X-39250000Y-19125000D01*
G75*
G02*
X-39125000Y-19000000I125000J0D01*
G01*
G37*
%TD.AperFunction*%
%TO.P,U1,33*%
%TO.N,/ENC_OUT*%
%TA.AperFunction,SMDPad,CuDef*%
G36*
G01*
X-36725000Y-19000000D02*
X-36475000Y-19000000D01*
G75*
G02*
X-36350000Y-19125000I0J-125000D01*
G01*
X-36350000Y-21675000D01*
G75*
G02*
X-36475000Y-21800000I-125000J0D01*
G01*
X-36725000Y-21800000D01*
G75*
G02*
X-36850000Y-21675000I0J125000D01*
G01*
X-36850000Y-19125000D01*
G75*
G02*
X-36725000Y-19000000I125000J0D01*
G01*
G37*
%TD.AperFunction*%
%TO.P,U1,13*%
%TO.N,Net-(R46-Pad2)*%
%TA.AperFunction,SMDPad,CuDef*%
G36*
G01*
X-47500000Y-8625000D02*
X-47500000Y-8375000D01*
G75*
G02*
X-47375000Y-8250000I125000J0D01*
G01*
X-44825000Y-8250000D01*
G75*
G02*
X-44700000Y-8375000I0J-125000D01*
G01*
X-44700000Y-8625000D01*
G75*
G02*
X-44825000Y-8750000I-125000J0D01*
G01*
X-47375000Y-8750000D01*
G75*
G02*
X-47500000Y-8625000I0J125000D01*
G01*
G37*
%TD.AperFunction*%
%TO.P,U1,14*%
%TO.N,Net-(U1-Pad14)*%
%TA.AperFunction,SMDPad,CuDef*%
G36*
G01*
X-47500000Y-9425000D02*
X-47500000Y-9175000D01*
G75*
G02*
X-47375000Y-9050000I125000J0D01*
G01*
X-44825000Y-9050000D01*
G75*
G02*
X-44700000Y-9175000I0J-125000D01*
G01*
X-44700000Y-9425000D01*
G75*
G02*
X-44825000Y-9550000I-125000J0D01*
G01*
X-47375000Y-9550000D01*
G75*
G02*
X-47500000Y-9425000I0J125000D01*
G01*
G37*
%TD.AperFunction*%
%TO.P,U1,23*%
%TO.N,Net-(R47-Pad2)*%
%TA.AperFunction,SMDPad,CuDef*%
G36*
G01*
X-47500000Y-16625000D02*
X-47500000Y-16375000D01*
G75*
G02*
X-47375000Y-16250000I125000J0D01*
G01*
X-44825000Y-16250000D01*
G75*
G02*
X-44700000Y-16375000I0J-125000D01*
G01*
X-44700000Y-16625000D01*
G75*
G02*
X-44825000Y-16750000I-125000J0D01*
G01*
X-47375000Y-16750000D01*
G75*
G02*
X-47500000Y-16625000I0J125000D01*
G01*
G37*
%TD.AperFunction*%
%TO.P,U1,21*%
%TO.N,Net-(R50-Pad2)*%
%TA.AperFunction,SMDPad,CuDef*%
G36*
G01*
X-47500000Y-15025000D02*
X-47500000Y-14775000D01*
G75*
G02*
X-47375000Y-14650000I125000J0D01*
G01*
X-44825000Y-14650000D01*
G75*
G02*
X-44700000Y-14775000I0J-125000D01*
G01*
X-44700000Y-15025000D01*
G75*
G02*
X-44825000Y-15150000I-125000J0D01*
G01*
X-47375000Y-15150000D01*
G75*
G02*
X-47500000Y-15025000I0J125000D01*
G01*
G37*
%TD.AperFunction*%
%TO.P,U1,24*%
%TO.N,Net-(C44-Pad1)*%
%TA.AperFunction,SMDPad,CuDef*%
G36*
G01*
X-47500000Y-17425000D02*
X-47500000Y-17175000D01*
G75*
G02*
X-47375000Y-17050000I125000J0D01*
G01*
X-44825000Y-17050000D01*
G75*
G02*
X-44700000Y-17175000I0J-125000D01*
G01*
X-44700000Y-17425000D01*
G75*
G02*
X-44825000Y-17550000I-125000J0D01*
G01*
X-47375000Y-17550000D01*
G75*
G02*
X-47500000Y-17425000I0J125000D01*
G01*
G37*
%TD.AperFunction*%
%TO.P,U1,17*%
%TO.N,GND*%
%TA.AperFunction,SMDPad,CuDef*%
G36*
G01*
X-47500000Y-11825000D02*
X-47500000Y-11575000D01*
G75*
G02*
X-47375000Y-11450000I125000J0D01*
G01*
X-44825000Y-11450000D01*
G75*
G02*
X-44700000Y-11575000I0J-125000D01*
G01*
X-44700000Y-11825000D01*
G75*
G02*
X-44825000Y-11950000I-125000J0D01*
G01*
X-47375000Y-11950000D01*
G75*
G02*
X-47500000Y-11825000I0J125000D01*
G01*
G37*
%TD.AperFunction*%
%TO.P,U1,18*%
%TO.N,VEE*%
%TA.AperFunction,SMDPad,CuDef*%
G36*
G01*
X-47500000Y-12625000D02*
X-47500000Y-12375000D01*
G75*
G02*
X-47375000Y-12250000I125000J0D01*
G01*
X-44825000Y-12250000D01*
G75*
G02*
X-44700000Y-12375000I0J-125000D01*
G01*
X-44700000Y-12625000D01*
G75*
G02*
X-44825000Y-12750000I-125000J0D01*
G01*
X-47375000Y-12750000D01*
G75*
G02*
X-47500000Y-12625000I0J125000D01*
G01*
G37*
%TD.AperFunction*%
%TO.P,U1,20*%
%TO.N,Net-(R51-Pad2)*%
%TA.AperFunction,SMDPad,CuDef*%
G36*
G01*
X-47500000Y-14225000D02*
X-47500000Y-13975000D01*
G75*
G02*
X-47375000Y-13850000I125000J0D01*
G01*
X-44825000Y-13850000D01*
G75*
G02*
X-44700000Y-13975000I0J-125000D01*
G01*
X-44700000Y-14225000D01*
G75*
G02*
X-44825000Y-14350000I-125000J0D01*
G01*
X-47375000Y-14350000D01*
G75*
G02*
X-47500000Y-14225000I0J125000D01*
G01*
G37*
%TD.AperFunction*%
%TO.P,U1,15*%
%TO.N,Net-(R48-Pad2)*%
%TA.AperFunction,SMDPad,CuDef*%
G36*
G01*
X-47500000Y-10225000D02*
X-47500000Y-9975000D01*
G75*
G02*
X-47375000Y-9850000I125000J0D01*
G01*
X-44825000Y-9850000D01*
G75*
G02*
X-44700000Y-9975000I0J-125000D01*
G01*
X-44700000Y-10225000D01*
G75*
G02*
X-44825000Y-10350000I-125000J0D01*
G01*
X-47375000Y-10350000D01*
G75*
G02*
X-47500000Y-10225000I0J125000D01*
G01*
G37*
%TD.AperFunction*%
%TO.P,U1,22*%
%TO.N,Net-(R49-Pad2)*%
%TA.AperFunction,SMDPad,CuDef*%
G36*
G01*
X-47500000Y-15825000D02*
X-47500000Y-15575000D01*
G75*
G02*
X-47375000Y-15450000I125000J0D01*
G01*
X-44825000Y-15450000D01*
G75*
G02*
X-44700000Y-15575000I0J-125000D01*
G01*
X-44700000Y-15825000D01*
G75*
G02*
X-44825000Y-15950000I-125000J0D01*
G01*
X-47375000Y-15950000D01*
G75*
G02*
X-47500000Y-15825000I0J125000D01*
G01*
G37*
%TD.AperFunction*%
%TO.P,U1,19*%
%TO.N,VCC*%
%TA.AperFunction,SMDPad,CuDef*%
G36*
G01*
X-47500000Y-13425000D02*
X-47500000Y-13175000D01*
G75*
G02*
X-47375000Y-13050000I125000J0D01*
G01*
X-44825000Y-13050000D01*
G75*
G02*
X-44700000Y-13175000I0J-125000D01*
G01*
X-44700000Y-13425000D01*
G75*
G02*
X-44825000Y-13550000I-125000J0D01*
G01*
X-47375000Y-13550000D01*
G75*
G02*
X-47500000Y-13425000I0J125000D01*
G01*
G37*
%TD.AperFunction*%
%TO.P,U1,16*%
%TO.N,Net-(C48-Pad1)*%
%TA.AperFunction,SMDPad,CuDef*%
G36*
G01*
X-47500000Y-11025000D02*
X-47500000Y-10775000D01*
G75*
G02*
X-47375000Y-10650000I125000J0D01*
G01*
X-44825000Y-10650000D01*
G75*
G02*
X-44700000Y-10775000I0J-125000D01*
G01*
X-44700000Y-11025000D01*
G75*
G02*
X-44825000Y-11150000I-125000J0D01*
G01*
X-47375000Y-11150000D01*
G75*
G02*
X-47500000Y-11025000I0J125000D01*
G01*
G37*
%TD.AperFunction*%
%TO.P,U1,12*%
%TO.N,Net-(C41-Pad1)*%
%TA.AperFunction,SMDPad,CuDef*%
G36*
G01*
X-43125000Y-4000000D02*
X-42875000Y-4000000D01*
G75*
G02*
X-42750000Y-4125000I0J-125000D01*
G01*
X-42750000Y-6675000D01*
G75*
G02*
X-42875000Y-6800000I-125000J0D01*
G01*
X-43125000Y-6800000D01*
G75*
G02*
X-43250000Y-6675000I0J125000D01*
G01*
X-43250000Y-4125000D01*
G75*
G02*
X-43125000Y-4000000I125000J0D01*
G01*
G37*
%TD.AperFunction*%
%TO.P,U1,11*%
%TO.N,Net-(R44-Pad2)*%
%TA.AperFunction,SMDPad,CuDef*%
G36*
G01*
X-42325000Y-4000000D02*
X-42075000Y-4000000D01*
G75*
G02*
X-41950000Y-4125000I0J-125000D01*
G01*
X-41950000Y-6675000D01*
G75*
G02*
X-42075000Y-6800000I-125000J0D01*
G01*
X-42325000Y-6800000D01*
G75*
G02*
X-42450000Y-6675000I0J125000D01*
G01*
X-42450000Y-4125000D01*
G75*
G02*
X-42325000Y-4000000I125000J0D01*
G01*
G37*
%TD.AperFunction*%
%TO.P,U1,10*%
%TO.N,Net-(R42-Pad2)*%
%TA.AperFunction,SMDPad,CuDef*%
G36*
G01*
X-41525000Y-4000000D02*
X-41275000Y-4000000D01*
G75*
G02*
X-41150000Y-4125000I0J-125000D01*
G01*
X-41150000Y-6675000D01*
G75*
G02*
X-41275000Y-6800000I-125000J0D01*
G01*
X-41525000Y-6800000D01*
G75*
G02*
X-41650000Y-6675000I0J125000D01*
G01*
X-41650000Y-4125000D01*
G75*
G02*
X-41525000Y-4000000I125000J0D01*
G01*
G37*
%TD.AperFunction*%
%TO.P,U1,9*%
%TO.N,Net-(R40-Pad2)*%
%TA.AperFunction,SMDPad,CuDef*%
G36*
G01*
X-40725000Y-4000000D02*
X-40475000Y-4000000D01*
G75*
G02*
X-40350000Y-4125000I0J-125000D01*
G01*
X-40350000Y-6675000D01*
G75*
G02*
X-40475000Y-6800000I-125000J0D01*
G01*
X-40725000Y-6800000D01*
G75*
G02*
X-40850000Y-6675000I0J125000D01*
G01*
X-40850000Y-4125000D01*
G75*
G02*
X-40725000Y-4000000I125000J0D01*
G01*
G37*
%TD.AperFunction*%
%TO.P,U1,8*%
%TO.N,Net-(R38-Pad2)*%
%TA.AperFunction,SMDPad,CuDef*%
G36*
G01*
X-39925000Y-4000000D02*
X-39675000Y-4000000D01*
G75*
G02*
X-39550000Y-4125000I0J-125000D01*
G01*
X-39550000Y-6675000D01*
G75*
G02*
X-39675000Y-6800000I-125000J0D01*
G01*
X-39925000Y-6800000D01*
G75*
G02*
X-40050000Y-6675000I0J125000D01*
G01*
X-40050000Y-4125000D01*
G75*
G02*
X-39925000Y-4000000I125000J0D01*
G01*
G37*
%TD.AperFunction*%
%TO.P,U1,7*%
%TO.N,/Dolby S Encoder/N1*%
%TA.AperFunction,SMDPad,CuDef*%
G36*
G01*
X-39125000Y-4000000D02*
X-38875000Y-4000000D01*
G75*
G02*
X-38750000Y-4125000I0J-125000D01*
G01*
X-38750000Y-6675000D01*
G75*
G02*
X-38875000Y-6800000I-125000J0D01*
G01*
X-39125000Y-6800000D01*
G75*
G02*
X-39250000Y-6675000I0J125000D01*
G01*
X-39250000Y-4125000D01*
G75*
G02*
X-39125000Y-4000000I125000J0D01*
G01*
G37*
%TD.AperFunction*%
%TO.P,U1,6*%
%TA.AperFunction,SMDPad,CuDef*%
G36*
G01*
X-38325000Y-4000000D02*
X-38075000Y-4000000D01*
G75*
G02*
X-37950000Y-4125000I0J-125000D01*
G01*
X-37950000Y-6675000D01*
G75*
G02*
X-38075000Y-6800000I-125000J0D01*
G01*
X-38325000Y-6800000D01*
G75*
G02*
X-38450000Y-6675000I0J125000D01*
G01*
X-38450000Y-4125000D01*
G75*
G02*
X-38325000Y-4000000I125000J0D01*
G01*
G37*
%TD.AperFunction*%
%TO.P,U1,5*%
%TO.N,Net-(C28-Pad2)*%
%TA.AperFunction,SMDPad,CuDef*%
G36*
G01*
X-37525000Y-4000000D02*
X-37275000Y-4000000D01*
G75*
G02*
X-37150000Y-4125000I0J-125000D01*
G01*
X-37150000Y-6675000D01*
G75*
G02*
X-37275000Y-6800000I-125000J0D01*
G01*
X-37525000Y-6800000D01*
G75*
G02*
X-37650000Y-6675000I0J125000D01*
G01*
X-37650000Y-4125000D01*
G75*
G02*
X-37525000Y-4000000I125000J0D01*
G01*
G37*
%TD.AperFunction*%
%TO.P,U1,4*%
%TO.N,Net-(C28-Pad1)*%
%TA.AperFunction,SMDPad,CuDef*%
G36*
G01*
X-36725000Y-4000000D02*
X-36475000Y-4000000D01*
G75*
G02*
X-36350000Y-4125000I0J-125000D01*
G01*
X-36350000Y-6675000D01*
G75*
G02*
X-36475000Y-6800000I-125000J0D01*
G01*
X-36725000Y-6800000D01*
G75*
G02*
X-36850000Y-6675000I0J125000D01*
G01*
X-36850000Y-4125000D01*
G75*
G02*
X-36725000Y-4000000I125000J0D01*
G01*
G37*
%TD.AperFunction*%
%TO.P,U1,3*%
%TO.N,Net-(C27-Pad1)*%
%TA.AperFunction,SMDPad,CuDef*%
G36*
G01*
X-35925000Y-4000000D02*
X-35675000Y-4000000D01*
G75*
G02*
X-35550000Y-4125000I0J-125000D01*
G01*
X-35550000Y-6675000D01*
G75*
G02*
X-35675000Y-6800000I-125000J0D01*
G01*
X-35925000Y-6800000D01*
G75*
G02*
X-36050000Y-6675000I0J125000D01*
G01*
X-36050000Y-4125000D01*
G75*
G02*
X-35925000Y-4000000I125000J0D01*
G01*
G37*
%TD.AperFunction*%
%TO.P,U1,2*%
%TO.N,Net-(R25-Pad1)*%
%TA.AperFunction,SMDPad,CuDef*%
G36*
G01*
X-35125000Y-4000000D02*
X-34875000Y-4000000D01*
G75*
G02*
X-34750000Y-4125000I0J-125000D01*
G01*
X-34750000Y-6675000D01*
G75*
G02*
X-34875000Y-6800000I-125000J0D01*
G01*
X-35125000Y-6800000D01*
G75*
G02*
X-35250000Y-6675000I0J125000D01*
G01*
X-35250000Y-4125000D01*
G75*
G02*
X-35125000Y-4000000I125000J0D01*
G01*
G37*
%TD.AperFunction*%
%TO.P,U1,1*%
%TO.N,Net-(C23-Pad1)*%
%TA.AperFunction,SMDPad,CuDef*%
G36*
G01*
X-34325000Y-4000000D02*
X-34075000Y-4000000D01*
G75*
G02*
X-33950000Y-4125000I0J-125000D01*
G01*
X-33950000Y-6675000D01*
G75*
G02*
X-34075000Y-6800000I-125000J0D01*
G01*
X-34325000Y-6800000D01*
G75*
G02*
X-34450000Y-6675000I0J125000D01*
G01*
X-34450000Y-4125000D01*
G75*
G02*
X-34325000Y-4000000I125000J0D01*
G01*
G37*
%TD.AperFunction*%
%TD*%
%TO.P,R50,2*%
%TO.N,Net-(R50-Pad2)*%
%TA.AperFunction,SMDPad,CuDef*%
G36*
G01*
X-51350001Y-13400000D02*
X-50449999Y-13400000D01*
G75*
G02*
X-50200000Y-13649999I0J-249999D01*
G01*
X-50200000Y-14350001D01*
G75*
G02*
X-50449999Y-14600000I-249999J0D01*
G01*
X-51350001Y-14600000D01*
G75*
G02*
X-51600000Y-14350001I0J249999D01*
G01*
X-51600000Y-13649999D01*
G75*
G02*
X-51350001Y-13400000I249999J0D01*
G01*
G37*
%TD.AperFunction*%
%TO.P,R50,1*%
%TO.N,GND*%
%TA.AperFunction,SMDPad,CuDef*%
G36*
G01*
X-51350001Y-11400000D02*
X-50449999Y-11400000D01*
G75*
G02*
X-50200000Y-11649999I0J-249999D01*
G01*
X-50200000Y-12350001D01*
G75*
G02*
X-50449999Y-12600000I-249999J0D01*
G01*
X-51350001Y-12600000D01*
G75*
G02*
X-51600000Y-12350001I0J249999D01*
G01*
X-51600000Y-11649999D01*
G75*
G02*
X-51350001Y-11400000I249999J0D01*
G01*
G37*
%TD.AperFunction*%
%TD*%
%TO.P,R43,2*%
%TO.N,Net-(C38-Pad1)*%
%TA.AperFunction,SMDPad,CuDef*%
G36*
G01*
X-53749999Y-12550000D02*
X-54650001Y-12550000D01*
G75*
G02*
X-54900000Y-12300001I0J249999D01*
G01*
X-54900000Y-11599999D01*
G75*
G02*
X-54650001Y-11350000I249999J0D01*
G01*
X-53749999Y-11350000D01*
G75*
G02*
X-53500000Y-11599999I0J-249999D01*
G01*
X-53500000Y-12300001D01*
G75*
G02*
X-53749999Y-12550000I-249999J0D01*
G01*
G37*
%TD.AperFunction*%
%TO.P,R43,1*%
%TO.N,Net-(R43-Pad1)*%
%TA.AperFunction,SMDPad,CuDef*%
G36*
G01*
X-53749999Y-14550000D02*
X-54650001Y-14550000D01*
G75*
G02*
X-54900000Y-14300001I0J249999D01*
G01*
X-54900000Y-13599999D01*
G75*
G02*
X-54650001Y-13350000I249999J0D01*
G01*
X-53749999Y-13350000D01*
G75*
G02*
X-53500000Y-13599999I0J-249999D01*
G01*
X-53500000Y-14300001D01*
G75*
G02*
X-53749999Y-14550000I-249999J0D01*
G01*
G37*
%TD.AperFunction*%
%TD*%
%TO.P,R41,2*%
%TO.N,GND*%
%TA.AperFunction,SMDPad,CuDef*%
G36*
G01*
X-57049999Y-7600000D02*
X-57950001Y-7600000D01*
G75*
G02*
X-58200000Y-7350001I0J249999D01*
G01*
X-58200000Y-6649999D01*
G75*
G02*
X-57950001Y-6400000I249999J0D01*
G01*
X-57049999Y-6400000D01*
G75*
G02*
X-56800000Y-6649999I0J-249999D01*
G01*
X-56800000Y-7350001D01*
G75*
G02*
X-57049999Y-7600000I-249999J0D01*
G01*
G37*
%TD.AperFunction*%
%TO.P,R41,1*%
%TO.N,/Dolby S Encoder/N2*%
%TA.AperFunction,SMDPad,CuDef*%
G36*
G01*
X-57049999Y-9600000D02*
X-57950001Y-9600000D01*
G75*
G02*
X-58200000Y-9350001I0J249999D01*
G01*
X-58200000Y-8649999D01*
G75*
G02*
X-57950001Y-8400000I249999J0D01*
G01*
X-57049999Y-8400000D01*
G75*
G02*
X-56800000Y-8649999I0J-249999D01*
G01*
X-56800000Y-9350001D01*
G75*
G02*
X-57049999Y-9600000I-249999J0D01*
G01*
G37*
%TD.AperFunction*%
%TD*%
%TO.P,R37,2*%
%TO.N,Net-(C34-Pad1)*%
%TA.AperFunction,SMDPad,CuDef*%
G36*
G01*
X-57049999Y-12600000D02*
X-57950001Y-12600000D01*
G75*
G02*
X-58200000Y-12350001I0J249999D01*
G01*
X-58200000Y-11649999D01*
G75*
G02*
X-57950001Y-11400000I249999J0D01*
G01*
X-57049999Y-11400000D01*
G75*
G02*
X-56800000Y-11649999I0J-249999D01*
G01*
X-56800000Y-12350001D01*
G75*
G02*
X-57049999Y-12600000I-249999J0D01*
G01*
G37*
%TD.AperFunction*%
%TO.P,R37,1*%
%TO.N,/Dolby S Encoder/N2*%
%TA.AperFunction,SMDPad,CuDef*%
G36*
G01*
X-57049999Y-14600000D02*
X-57950001Y-14600000D01*
G75*
G02*
X-58200000Y-14350001I0J249999D01*
G01*
X-58200000Y-13649999D01*
G75*
G02*
X-57950001Y-13400000I249999J0D01*
G01*
X-57049999Y-13400000D01*
G75*
G02*
X-56800000Y-13649999I0J-249999D01*
G01*
X-56800000Y-14350001D01*
G75*
G02*
X-57049999Y-14600000I-249999J0D01*
G01*
G37*
%TD.AperFunction*%
%TD*%
%TO.P,R36,2*%
%TO.N,/Dolby S Encoder/N1*%
%TA.AperFunction,SMDPad,CuDef*%
G36*
G01*
X-29650001Y-3400000D02*
X-28749999Y-3400000D01*
G75*
G02*
X-28500000Y-3649999I0J-249999D01*
G01*
X-28500000Y-4350001D01*
G75*
G02*
X-28749999Y-4600000I-249999J0D01*
G01*
X-29650001Y-4600000D01*
G75*
G02*
X-29900000Y-4350001I0J249999D01*
G01*
X-29900000Y-3649999D01*
G75*
G02*
X-29650001Y-3400000I249999J0D01*
G01*
G37*
%TD.AperFunction*%
%TO.P,R36,1*%
%TO.N,GND*%
%TA.AperFunction,SMDPad,CuDef*%
G36*
G01*
X-29650001Y-1400000D02*
X-28749999Y-1400000D01*
G75*
G02*
X-28500000Y-1649999I0J-249999D01*
G01*
X-28500000Y-2350001D01*
G75*
G02*
X-28749999Y-2600000I-249999J0D01*
G01*
X-29650001Y-2600000D01*
G75*
G02*
X-29900000Y-2350001I0J249999D01*
G01*
X-29900000Y-1649999D01*
G75*
G02*
X-29650001Y-1400000I249999J0D01*
G01*
G37*
%TD.AperFunction*%
%TD*%
%TO.P,R35,2*%
%TO.N,Net-(C33-Pad2)*%
%TA.AperFunction,SMDPad,CuDef*%
G36*
G01*
X-61250001Y-18400000D02*
X-60349999Y-18400000D01*
G75*
G02*
X-60100000Y-18649999I0J-249999D01*
G01*
X-60100000Y-19350001D01*
G75*
G02*
X-60349999Y-19600000I-249999J0D01*
G01*
X-61250001Y-19600000D01*
G75*
G02*
X-61500000Y-19350001I0J249999D01*
G01*
X-61500000Y-18649999D01*
G75*
G02*
X-61250001Y-18400000I249999J0D01*
G01*
G37*
%TD.AperFunction*%
%TO.P,R35,1*%
%TO.N,Net-(C33-Pad1)*%
%TA.AperFunction,SMDPad,CuDef*%
G36*
G01*
X-61250001Y-16400000D02*
X-60349999Y-16400000D01*
G75*
G02*
X-60100000Y-16649999I0J-249999D01*
G01*
X-60100000Y-17350001D01*
G75*
G02*
X-60349999Y-17600000I-249999J0D01*
G01*
X-61250001Y-17600000D01*
G75*
G02*
X-61500000Y-17350001I0J249999D01*
G01*
X-61500000Y-16649999D01*
G75*
G02*
X-61250001Y-16400000I249999J0D01*
G01*
G37*
%TD.AperFunction*%
%TD*%
%TO.P,R34,2*%
%TO.N,Net-(C30-Pad1)*%
%TA.AperFunction,SMDPad,CuDef*%
G36*
G01*
X-60349999Y-12600000D02*
X-61250001Y-12600000D01*
G75*
G02*
X-61500000Y-12350001I0J249999D01*
G01*
X-61500000Y-11649999D01*
G75*
G02*
X-61250001Y-11400000I249999J0D01*
G01*
X-60349999Y-11400000D01*
G75*
G02*
X-60100000Y-11649999I0J-249999D01*
G01*
X-60100000Y-12350001D01*
G75*
G02*
X-60349999Y-12600000I-249999J0D01*
G01*
G37*
%TD.AperFunction*%
%TO.P,R34,1*%
%TO.N,Net-(C33-Pad2)*%
%TA.AperFunction,SMDPad,CuDef*%
G36*
G01*
X-60349999Y-14600000D02*
X-61250001Y-14600000D01*
G75*
G02*
X-61500000Y-14350001I0J249999D01*
G01*
X-61500000Y-13649999D01*
G75*
G02*
X-61250001Y-13400000I249999J0D01*
G01*
X-60349999Y-13400000D01*
G75*
G02*
X-60100000Y-13649999I0J-249999D01*
G01*
X-60100000Y-14350001D01*
G75*
G02*
X-60349999Y-14600000I-249999J0D01*
G01*
G37*
%TD.AperFunction*%
%TD*%
%TO.P,R31,2*%
%TO.N,Net-(C30-Pad2)*%
%TA.AperFunction,SMDPad,CuDef*%
G36*
G01*
X-63649999Y-17600000D02*
X-64550001Y-17600000D01*
G75*
G02*
X-64800000Y-17350001I0J249999D01*
G01*
X-64800000Y-16649999D01*
G75*
G02*
X-64550001Y-16400000I249999J0D01*
G01*
X-63649999Y-16400000D01*
G75*
G02*
X-63400000Y-16649999I0J-249999D01*
G01*
X-63400000Y-17350001D01*
G75*
G02*
X-63649999Y-17600000I-249999J0D01*
G01*
G37*
%TD.AperFunction*%
%TO.P,R31,1*%
%TO.N,Net-(C29-Pad1)*%
%TA.AperFunction,SMDPad,CuDef*%
G36*
G01*
X-63649999Y-19600000D02*
X-64550001Y-19600000D01*
G75*
G02*
X-64800000Y-19350001I0J249999D01*
G01*
X-64800000Y-18649999D01*
G75*
G02*
X-64550001Y-18400000I249999J0D01*
G01*
X-63649999Y-18400000D01*
G75*
G02*
X-63400000Y-18649999I0J-249999D01*
G01*
X-63400000Y-19350001D01*
G75*
G02*
X-63649999Y-19600000I-249999J0D01*
G01*
G37*
%TD.AperFunction*%
%TD*%
%TO.P,R30,2*%
%TO.N,Net-(C25-Pad2)*%
%TA.AperFunction,SMDPad,CuDef*%
G36*
G01*
X-66949999Y-12600000D02*
X-67850001Y-12600000D01*
G75*
G02*
X-68100000Y-12350001I0J249999D01*
G01*
X-68100000Y-11649999D01*
G75*
G02*
X-67850001Y-11400000I249999J0D01*
G01*
X-66949999Y-11400000D01*
G75*
G02*
X-66700000Y-11649999I0J-249999D01*
G01*
X-66700000Y-12350001D01*
G75*
G02*
X-66949999Y-12600000I-249999J0D01*
G01*
G37*
%TD.AperFunction*%
%TO.P,R30,1*%
%TO.N,Net-(C30-Pad2)*%
%TA.AperFunction,SMDPad,CuDef*%
G36*
G01*
X-66949999Y-14600000D02*
X-67850001Y-14600000D01*
G75*
G02*
X-68100000Y-14350001I0J249999D01*
G01*
X-68100000Y-13649999D01*
G75*
G02*
X-67850001Y-13400000I249999J0D01*
G01*
X-66949999Y-13400000D01*
G75*
G02*
X-66700000Y-13649999I0J-249999D01*
G01*
X-66700000Y-14350001D01*
G75*
G02*
X-66949999Y-14600000I-249999J0D01*
G01*
G37*
%TD.AperFunction*%
%TD*%
%TO.P,R27,2*%
%TO.N,Net-(C25-Pad2)*%
%TA.AperFunction,SMDPad,CuDef*%
G36*
G01*
X-67850001Y-8400000D02*
X-66949999Y-8400000D01*
G75*
G02*
X-66700000Y-8649999I0J-249999D01*
G01*
X-66700000Y-9350001D01*
G75*
G02*
X-66949999Y-9600000I-249999J0D01*
G01*
X-67850001Y-9600000D01*
G75*
G02*
X-68100000Y-9350001I0J249999D01*
G01*
X-68100000Y-8649999D01*
G75*
G02*
X-67850001Y-8400000I249999J0D01*
G01*
G37*
%TD.AperFunction*%
%TO.P,R27,1*%
%TO.N,GND*%
%TA.AperFunction,SMDPad,CuDef*%
G36*
G01*
X-67850001Y-6400000D02*
X-66949999Y-6400000D01*
G75*
G02*
X-66700000Y-6649999I0J-249999D01*
G01*
X-66700000Y-7350001D01*
G75*
G02*
X-66949999Y-7600000I-249999J0D01*
G01*
X-67850001Y-7600000D01*
G75*
G02*
X-68100000Y-7350001I0J249999D01*
G01*
X-68100000Y-6649999D01*
G75*
G02*
X-67850001Y-6400000I249999J0D01*
G01*
G37*
%TD.AperFunction*%
%TD*%
%TO.P,R25,2*%
%TO.N,Net-(C26-Pad1)*%
%TA.AperFunction,SMDPad,CuDef*%
G36*
G01*
X-15000001Y-3400000D02*
X-14099999Y-3400000D01*
G75*
G02*
X-13850000Y-3649999I0J-249999D01*
G01*
X-13850000Y-4350001D01*
G75*
G02*
X-14099999Y-4600000I-249999J0D01*
G01*
X-15000001Y-4600000D01*
G75*
G02*
X-15250000Y-4350001I0J249999D01*
G01*
X-15250000Y-3649999D01*
G75*
G02*
X-15000001Y-3400000I249999J0D01*
G01*
G37*
%TD.AperFunction*%
%TO.P,R25,1*%
%TO.N,Net-(R25-Pad1)*%
%TA.AperFunction,SMDPad,CuDef*%
G36*
G01*
X-15000001Y-1400000D02*
X-14099999Y-1400000D01*
G75*
G02*
X-13850000Y-1649999I0J-249999D01*
G01*
X-13850000Y-2350001D01*
G75*
G02*
X-14099999Y-2600000I-249999J0D01*
G01*
X-15000001Y-2600000D01*
G75*
G02*
X-15250000Y-2350001I0J249999D01*
G01*
X-15250000Y-1649999D01*
G75*
G02*
X-15000001Y-1400000I249999J0D01*
G01*
G37*
%TD.AperFunction*%
%TD*%
%TO.P,R23,2*%
%TO.N,Net-(C22-Pad1)*%
%TA.AperFunction,SMDPad,CuDef*%
G36*
G01*
X-66949999Y-17600000D02*
X-67850001Y-17600000D01*
G75*
G02*
X-68100000Y-17350001I0J249999D01*
G01*
X-68100000Y-16649999D01*
G75*
G02*
X-67850001Y-16400000I249999J0D01*
G01*
X-66949999Y-16400000D01*
G75*
G02*
X-66700000Y-16649999I0J-249999D01*
G01*
X-66700000Y-17350001D01*
G75*
G02*
X-66949999Y-17600000I-249999J0D01*
G01*
G37*
%TD.AperFunction*%
%TO.P,R23,1*%
%TO.N,Net-(R21-Pad1)*%
%TA.AperFunction,SMDPad,CuDef*%
G36*
G01*
X-66949999Y-19600000D02*
X-67850001Y-19600000D01*
G75*
G02*
X-68100000Y-19350001I0J249999D01*
G01*
X-68100000Y-18649999D01*
G75*
G02*
X-67850001Y-18400000I249999J0D01*
G01*
X-66949999Y-18400000D01*
G75*
G02*
X-66700000Y-18649999I0J-249999D01*
G01*
X-66700000Y-19350001D01*
G75*
G02*
X-66949999Y-19600000I-249999J0D01*
G01*
G37*
%TD.AperFunction*%
%TD*%
%TO.P,R22,2*%
%TO.N,Net-(C25-Pad1)*%
%TA.AperFunction,SMDPad,CuDef*%
G36*
G01*
X-71150001Y-18400000D02*
X-70249999Y-18400000D01*
G75*
G02*
X-70000000Y-18649999I0J-249999D01*
G01*
X-70000000Y-19350001D01*
G75*
G02*
X-70249999Y-19600000I-249999J0D01*
G01*
X-71150001Y-19600000D01*
G75*
G02*
X-71400000Y-19350001I0J249999D01*
G01*
X-71400000Y-18649999D01*
G75*
G02*
X-71150001Y-18400000I249999J0D01*
G01*
G37*
%TD.AperFunction*%
%TO.P,R22,1*%
%TO.N,Net-(R21-Pad1)*%
%TA.AperFunction,SMDPad,CuDef*%
G36*
G01*
X-71150001Y-16400000D02*
X-70249999Y-16400000D01*
G75*
G02*
X-70000000Y-16649999I0J-249999D01*
G01*
X-70000000Y-17350001D01*
G75*
G02*
X-70249999Y-17600000I-249999J0D01*
G01*
X-71150001Y-17600000D01*
G75*
G02*
X-71400000Y-17350001I0J249999D01*
G01*
X-71400000Y-16649999D01*
G75*
G02*
X-71150001Y-16400000I249999J0D01*
G01*
G37*
%TD.AperFunction*%
%TD*%
%TO.P,R21,2*%
%TO.N,GND*%
%TA.AperFunction,SMDPad,CuDef*%
G36*
G01*
X-70249999Y-7600000D02*
X-71150001Y-7600000D01*
G75*
G02*
X-71400000Y-7350001I0J249999D01*
G01*
X-71400000Y-6649999D01*
G75*
G02*
X-71150001Y-6400000I249999J0D01*
G01*
X-70249999Y-6400000D01*
G75*
G02*
X-70000000Y-6649999I0J-249999D01*
G01*
X-70000000Y-7350001D01*
G75*
G02*
X-70249999Y-7600000I-249999J0D01*
G01*
G37*
%TD.AperFunction*%
%TO.P,R21,1*%
%TO.N,Net-(R21-Pad1)*%
%TA.AperFunction,SMDPad,CuDef*%
G36*
G01*
X-70249999Y-9600000D02*
X-71150001Y-9600000D01*
G75*
G02*
X-71400000Y-9350001I0J249999D01*
G01*
X-71400000Y-8649999D01*
G75*
G02*
X-71150001Y-8400000I249999J0D01*
G01*
X-70249999Y-8400000D01*
G75*
G02*
X-70000000Y-8649999I0J-249999D01*
G01*
X-70000000Y-9350001D01*
G75*
G02*
X-70249999Y-9600000I-249999J0D01*
G01*
G37*
%TD.AperFunction*%
%TD*%
%TO.P,R18,2*%
%TO.N,GND*%
%TA.AperFunction,SMDPad,CuDef*%
G36*
G01*
X-25449999Y-2600000D02*
X-26350001Y-2600000D01*
G75*
G02*
X-26600000Y-2350001I0J249999D01*
G01*
X-26600000Y-1649999D01*
G75*
G02*
X-26350001Y-1400000I249999J0D01*
G01*
X-25449999Y-1400000D01*
G75*
G02*
X-25200000Y-1649999I0J-249999D01*
G01*
X-25200000Y-2350001D01*
G75*
G02*
X-25449999Y-2600000I-249999J0D01*
G01*
G37*
%TD.AperFunction*%
%TO.P,R18,1*%
%TO.N,Net-(C18-Pad1)*%
%TA.AperFunction,SMDPad,CuDef*%
G36*
G01*
X-25449999Y-4600000D02*
X-26350001Y-4600000D01*
G75*
G02*
X-26600000Y-4350001I0J249999D01*
G01*
X-26600000Y-3649999D01*
G75*
G02*
X-26350001Y-3400000I249999J0D01*
G01*
X-25449999Y-3400000D01*
G75*
G02*
X-25200000Y-3649999I0J-249999D01*
G01*
X-25200000Y-4350001D01*
G75*
G02*
X-25449999Y-4600000I-249999J0D01*
G01*
G37*
%TD.AperFunction*%
%TD*%
%TO.P,R17,2*%
%TO.N,Net-(C8-Pad2)*%
%TA.AperFunction,SMDPad,CuDef*%
G36*
G01*
X-14950001Y-13400000D02*
X-14049999Y-13400000D01*
G75*
G02*
X-13800000Y-13649999I0J-249999D01*
G01*
X-13800000Y-14350001D01*
G75*
G02*
X-14049999Y-14600000I-249999J0D01*
G01*
X-14950001Y-14600000D01*
G75*
G02*
X-15200000Y-14350001I0J249999D01*
G01*
X-15200000Y-13649999D01*
G75*
G02*
X-14950001Y-13400000I249999J0D01*
G01*
G37*
%TD.AperFunction*%
%TO.P,R17,1*%
%TO.N,Net-(R17-Pad1)*%
%TA.AperFunction,SMDPad,CuDef*%
G36*
G01*
X-14950001Y-11400000D02*
X-14049999Y-11400000D01*
G75*
G02*
X-13800000Y-11649999I0J-249999D01*
G01*
X-13800000Y-12350001D01*
G75*
G02*
X-14049999Y-12600000I-249999J0D01*
G01*
X-14950001Y-12600000D01*
G75*
G02*
X-15200000Y-12350001I0J249999D01*
G01*
X-15200000Y-11649999D01*
G75*
G02*
X-14950001Y-11400000I249999J0D01*
G01*
G37*
%TD.AperFunction*%
%TD*%
%TO.P,R13,2*%
%TO.N,Net-(C8-Pad2)*%
%TA.AperFunction,SMDPad,CuDef*%
G36*
G01*
X-10799999Y-12600000D02*
X-11700001Y-12600000D01*
G75*
G02*
X-11950000Y-12350001I0J249999D01*
G01*
X-11950000Y-11649999D01*
G75*
G02*
X-11700001Y-11400000I249999J0D01*
G01*
X-10799999Y-11400000D01*
G75*
G02*
X-10550000Y-11649999I0J-249999D01*
G01*
X-10550000Y-12350001D01*
G75*
G02*
X-10799999Y-12600000I-249999J0D01*
G01*
G37*
%TD.AperFunction*%
%TO.P,R13,1*%
%TO.N,Net-(C15-Pad1)*%
%TA.AperFunction,SMDPad,CuDef*%
G36*
G01*
X-10799999Y-14600000D02*
X-11700001Y-14600000D01*
G75*
G02*
X-11950000Y-14350001I0J249999D01*
G01*
X-11950000Y-13649999D01*
G75*
G02*
X-11700001Y-13400000I249999J0D01*
G01*
X-10799999Y-13400000D01*
G75*
G02*
X-10550000Y-13649999I0J-249999D01*
G01*
X-10550000Y-14350001D01*
G75*
G02*
X-10799999Y-14600000I-249999J0D01*
G01*
G37*
%TD.AperFunction*%
%TD*%
%TO.P,R12,2*%
%TO.N,Net-(C14-Pad1)*%
%TA.AperFunction,SMDPad,CuDef*%
G36*
G01*
X-8300001Y-13400000D02*
X-7399999Y-13400000D01*
G75*
G02*
X-7150000Y-13649999I0J-249999D01*
G01*
X-7150000Y-14350001D01*
G75*
G02*
X-7399999Y-14600000I-249999J0D01*
G01*
X-8300001Y-14600000D01*
G75*
G02*
X-8550000Y-14350001I0J249999D01*
G01*
X-8550000Y-13649999D01*
G75*
G02*
X-8300001Y-13400000I249999J0D01*
G01*
G37*
%TD.AperFunction*%
%TO.P,R12,1*%
%TO.N,Net-(C15-Pad1)*%
%TA.AperFunction,SMDPad,CuDef*%
G36*
G01*
X-8300001Y-11400000D02*
X-7399999Y-11400000D01*
G75*
G02*
X-7150000Y-11649999I0J-249999D01*
G01*
X-7150000Y-12350001D01*
G75*
G02*
X-7399999Y-12600000I-249999J0D01*
G01*
X-8300001Y-12600000D01*
G75*
G02*
X-8550000Y-12350001I0J249999D01*
G01*
X-8550000Y-11649999D01*
G75*
G02*
X-8300001Y-11400000I249999J0D01*
G01*
G37*
%TD.AperFunction*%
%TD*%
%TO.P,R11,2*%
%TO.N,Net-(C14-Pad1)*%
%TA.AperFunction,SMDPad,CuDef*%
G36*
G01*
X-19800001Y-18400000D02*
X-18899999Y-18400000D01*
G75*
G02*
X-18650000Y-18649999I0J-249999D01*
G01*
X-18650000Y-19350001D01*
G75*
G02*
X-18899999Y-19600000I-249999J0D01*
G01*
X-19800001Y-19600000D01*
G75*
G02*
X-20050000Y-19350001I0J249999D01*
G01*
X-20050000Y-18649999D01*
G75*
G02*
X-19800001Y-18400000I249999J0D01*
G01*
G37*
%TD.AperFunction*%
%TO.P,R11,1*%
%TO.N,Net-(C13-Pad2)*%
%TA.AperFunction,SMDPad,CuDef*%
G36*
G01*
X-19800001Y-16400000D02*
X-18899999Y-16400000D01*
G75*
G02*
X-18650000Y-16649999I0J-249999D01*
G01*
X-18650000Y-17350001D01*
G75*
G02*
X-18899999Y-17600000I-249999J0D01*
G01*
X-19800001Y-17600000D01*
G75*
G02*
X-20050000Y-17350001I0J249999D01*
G01*
X-20050000Y-16649999D01*
G75*
G02*
X-19800001Y-16400000I249999J0D01*
G01*
G37*
%TD.AperFunction*%
%TD*%
%TO.P,R9,2*%
%TO.N,Net-(C8-Pad1)*%
%TA.AperFunction,SMDPad,CuDef*%
G36*
G01*
X-4900001Y-3400000D02*
X-3999999Y-3400000D01*
G75*
G02*
X-3750000Y-3649999I0J-249999D01*
G01*
X-3750000Y-4350001D01*
G75*
G02*
X-3999999Y-4600000I-249999J0D01*
G01*
X-4900001Y-4600000D01*
G75*
G02*
X-5150000Y-4350001I0J249999D01*
G01*
X-5150000Y-3649999D01*
G75*
G02*
X-4900001Y-3400000I249999J0D01*
G01*
G37*
%TD.AperFunction*%
%TO.P,R9,1*%
%TO.N,GND*%
%TA.AperFunction,SMDPad,CuDef*%
G36*
G01*
X-4900001Y-1400000D02*
X-3999999Y-1400000D01*
G75*
G02*
X-3750000Y-1649999I0J-249999D01*
G01*
X-3750000Y-2350001D01*
G75*
G02*
X-3999999Y-2600000I-249999J0D01*
G01*
X-4900001Y-2600000D01*
G75*
G02*
X-5150000Y-2350001I0J249999D01*
G01*
X-5150000Y-1649999D01*
G75*
G02*
X-4900001Y-1400000I249999J0D01*
G01*
G37*
%TD.AperFunction*%
%TD*%
%TO.P,R7,2*%
%TO.N,Net-(C8-Pad1)*%
%TA.AperFunction,SMDPad,CuDef*%
G36*
G01*
X-10699999Y-7600000D02*
X-11600001Y-7600000D01*
G75*
G02*
X-11850000Y-7350001I0J249999D01*
G01*
X-11850000Y-6649999D01*
G75*
G02*
X-11600001Y-6400000I249999J0D01*
G01*
X-10699999Y-6400000D01*
G75*
G02*
X-10450000Y-6649999I0J-249999D01*
G01*
X-10450000Y-7350001D01*
G75*
G02*
X-10699999Y-7600000I-249999J0D01*
G01*
G37*
%TD.AperFunction*%
%TO.P,R7,1*%
%TO.N,Net-(C10-Pad2)*%
%TA.AperFunction,SMDPad,CuDef*%
G36*
G01*
X-10699999Y-9600000D02*
X-11600001Y-9600000D01*
G75*
G02*
X-11850000Y-9350001I0J249999D01*
G01*
X-11850000Y-8649999D01*
G75*
G02*
X-11600001Y-8400000I249999J0D01*
G01*
X-10699999Y-8400000D01*
G75*
G02*
X-10450000Y-8649999I0J-249999D01*
G01*
X-10450000Y-9350001D01*
G75*
G02*
X-10699999Y-9600000I-249999J0D01*
G01*
G37*
%TD.AperFunction*%
%TD*%
%TO.P,R6,2*%
%TO.N,Net-(C8-Pad2)*%
%TA.AperFunction,SMDPad,CuDef*%
G36*
G01*
X-8500001Y-8400000D02*
X-7599999Y-8400000D01*
G75*
G02*
X-7350000Y-8649999I0J-249999D01*
G01*
X-7350000Y-9350001D01*
G75*
G02*
X-7599999Y-9600000I-249999J0D01*
G01*
X-8500001Y-9600000D01*
G75*
G02*
X-8750000Y-9350001I0J249999D01*
G01*
X-8750000Y-8649999D01*
G75*
G02*
X-8500001Y-8400000I249999J0D01*
G01*
G37*
%TD.AperFunction*%
%TO.P,R6,1*%
%TO.N,Net-(C6-Pad2)*%
%TA.AperFunction,SMDPad,CuDef*%
G36*
G01*
X-8500001Y-6400000D02*
X-7599999Y-6400000D01*
G75*
G02*
X-7350000Y-6649999I0J-249999D01*
G01*
X-7350000Y-7350001D01*
G75*
G02*
X-7599999Y-7600000I-249999J0D01*
G01*
X-8500001Y-7600000D01*
G75*
G02*
X-8750000Y-7350001I0J249999D01*
G01*
X-8750000Y-6649999D01*
G75*
G02*
X-8500001Y-6400000I249999J0D01*
G01*
G37*
%TD.AperFunction*%
%TD*%
%TO.P,C40,2*%
%TO.N,VEE*%
%TA.AperFunction,SMDPad,CuDef*%
G36*
G01*
X-50425000Y-17587500D02*
X-51375000Y-17587500D01*
G75*
G02*
X-51625000Y-17337500I0J250000D01*
G01*
X-51625000Y-16662500D01*
G75*
G02*
X-51375000Y-16412500I250000J0D01*
G01*
X-50425000Y-16412500D01*
G75*
G02*
X-50175000Y-16662500I0J-250000D01*
G01*
X-50175000Y-17337500D01*
G75*
G02*
X-50425000Y-17587500I-250000J0D01*
G01*
G37*
%TD.AperFunction*%
%TO.P,C40,1*%
%TO.N,Net-(C40-Pad1)*%
%TA.AperFunction,SMDPad,CuDef*%
G36*
G01*
X-50425000Y-19662500D02*
X-51375000Y-19662500D01*
G75*
G02*
X-51625000Y-19412500I0J250000D01*
G01*
X-51625000Y-18737500D01*
G75*
G02*
X-51375000Y-18487500I250000J0D01*
G01*
X-50425000Y-18487500D01*
G75*
G02*
X-50175000Y-18737500I0J-250000D01*
G01*
X-50175000Y-19412500D01*
G75*
G02*
X-50425000Y-19662500I-250000J0D01*
G01*
G37*
%TD.AperFunction*%
%TD*%
%TO.P,C38,2*%
%TO.N,GND*%
%TA.AperFunction,SMDPad,CuDef*%
G36*
G01*
X-50525000Y-7587500D02*
X-51475000Y-7587500D01*
G75*
G02*
X-51725000Y-7337500I0J250000D01*
G01*
X-51725000Y-6662500D01*
G75*
G02*
X-51475000Y-6412500I250000J0D01*
G01*
X-50525000Y-6412500D01*
G75*
G02*
X-50275000Y-6662500I0J-250000D01*
G01*
X-50275000Y-7337500D01*
G75*
G02*
X-50525000Y-7587500I-250000J0D01*
G01*
G37*
%TD.AperFunction*%
%TO.P,C38,1*%
%TO.N,Net-(C38-Pad1)*%
%TA.AperFunction,SMDPad,CuDef*%
G36*
G01*
X-50525000Y-9662500D02*
X-51475000Y-9662500D01*
G75*
G02*
X-51725000Y-9412500I0J250000D01*
G01*
X-51725000Y-8737500D01*
G75*
G02*
X-51475000Y-8487500I250000J0D01*
G01*
X-50525000Y-8487500D01*
G75*
G02*
X-50275000Y-8737500I0J-250000D01*
G01*
X-50275000Y-9412500D01*
G75*
G02*
X-50525000Y-9662500I-250000J0D01*
G01*
G37*
%TD.AperFunction*%
%TD*%
%TO.P,C34,2*%
%TO.N,GND*%
%TA.AperFunction,SMDPad,CuDef*%
G36*
G01*
X-53725000Y-7587500D02*
X-54675000Y-7587500D01*
G75*
G02*
X-54925000Y-7337500I0J250000D01*
G01*
X-54925000Y-6662500D01*
G75*
G02*
X-54675000Y-6412500I250000J0D01*
G01*
X-53725000Y-6412500D01*
G75*
G02*
X-53475000Y-6662500I0J-250000D01*
G01*
X-53475000Y-7337500D01*
G75*
G02*
X-53725000Y-7587500I-250000J0D01*
G01*
G37*
%TD.AperFunction*%
%TO.P,C34,1*%
%TO.N,Net-(C34-Pad1)*%
%TA.AperFunction,SMDPad,CuDef*%
G36*
G01*
X-53725000Y-9662500D02*
X-54675000Y-9662500D01*
G75*
G02*
X-54925000Y-9412500I0J250000D01*
G01*
X-54925000Y-8737500D01*
G75*
G02*
X-54675000Y-8487500I250000J0D01*
G01*
X-53725000Y-8487500D01*
G75*
G02*
X-53475000Y-8737500I0J-250000D01*
G01*
X-53475000Y-9412500D01*
G75*
G02*
X-53725000Y-9662500I-250000J0D01*
G01*
G37*
%TD.AperFunction*%
%TD*%
%TO.P,C33,2*%
%TO.N,Net-(C33-Pad2)*%
%TA.AperFunction,SMDPad,CuDef*%
G36*
G01*
X-57975000Y-18487500D02*
X-57025000Y-18487500D01*
G75*
G02*
X-56775000Y-18737500I0J-250000D01*
G01*
X-56775000Y-19412500D01*
G75*
G02*
X-57025000Y-19662500I-250000J0D01*
G01*
X-57975000Y-19662500D01*
G75*
G02*
X-58225000Y-19412500I0J250000D01*
G01*
X-58225000Y-18737500D01*
G75*
G02*
X-57975000Y-18487500I250000J0D01*
G01*
G37*
%TD.AperFunction*%
%TO.P,C33,1*%
%TO.N,Net-(C33-Pad1)*%
%TA.AperFunction,SMDPad,CuDef*%
G36*
G01*
X-57975000Y-16412500D02*
X-57025000Y-16412500D01*
G75*
G02*
X-56775000Y-16662500I0J-250000D01*
G01*
X-56775000Y-17337500D01*
G75*
G02*
X-57025000Y-17587500I-250000J0D01*
G01*
X-57975000Y-17587500D01*
G75*
G02*
X-58225000Y-17337500I0J250000D01*
G01*
X-58225000Y-16662500D01*
G75*
G02*
X-57975000Y-16412500I250000J0D01*
G01*
G37*
%TD.AperFunction*%
%TD*%
%TO.P,C30,2*%
%TO.N,Net-(C30-Pad2)*%
%TA.AperFunction,SMDPad,CuDef*%
G36*
G01*
X-64575000Y-13487500D02*
X-63625000Y-13487500D01*
G75*
G02*
X-63375000Y-13737500I0J-250000D01*
G01*
X-63375000Y-14412500D01*
G75*
G02*
X-63625000Y-14662500I-250000J0D01*
G01*
X-64575000Y-14662500D01*
G75*
G02*
X-64825000Y-14412500I0J250000D01*
G01*
X-64825000Y-13737500D01*
G75*
G02*
X-64575000Y-13487500I250000J0D01*
G01*
G37*
%TD.AperFunction*%
%TO.P,C30,1*%
%TO.N,Net-(C30-Pad1)*%
%TA.AperFunction,SMDPad,CuDef*%
G36*
G01*
X-64575000Y-11412500D02*
X-63625000Y-11412500D01*
G75*
G02*
X-63375000Y-11662500I0J-250000D01*
G01*
X-63375000Y-12337500D01*
G75*
G02*
X-63625000Y-12587500I-250000J0D01*
G01*
X-64575000Y-12587500D01*
G75*
G02*
X-64825000Y-12337500I0J250000D01*
G01*
X-64825000Y-11662500D01*
G75*
G02*
X-64575000Y-11412500I250000J0D01*
G01*
G37*
%TD.AperFunction*%
%TD*%
%TO.P,C29,2*%
%TO.N,GND*%
%TA.AperFunction,SMDPad,CuDef*%
G36*
G01*
X-60325000Y-7587500D02*
X-61275000Y-7587500D01*
G75*
G02*
X-61525000Y-7337500I0J250000D01*
G01*
X-61525000Y-6662500D01*
G75*
G02*
X-61275000Y-6412500I250000J0D01*
G01*
X-60325000Y-6412500D01*
G75*
G02*
X-60075000Y-6662500I0J-250000D01*
G01*
X-60075000Y-7337500D01*
G75*
G02*
X-60325000Y-7587500I-250000J0D01*
G01*
G37*
%TD.AperFunction*%
%TO.P,C29,1*%
%TO.N,Net-(C29-Pad1)*%
%TA.AperFunction,SMDPad,CuDef*%
G36*
G01*
X-60325000Y-9662500D02*
X-61275000Y-9662500D01*
G75*
G02*
X-61525000Y-9412500I0J250000D01*
G01*
X-61525000Y-8737500D01*
G75*
G02*
X-61275000Y-8487500I250000J0D01*
G01*
X-60325000Y-8487500D01*
G75*
G02*
X-60075000Y-8737500I0J-250000D01*
G01*
X-60075000Y-9412500D01*
G75*
G02*
X-60325000Y-9662500I-250000J0D01*
G01*
G37*
%TD.AperFunction*%
%TD*%
%TO.P,C26,2*%
%TO.N,VEE*%
%TA.AperFunction,SMDPad,CuDef*%
G36*
G01*
X-19725000Y-7150000D02*
X-17875000Y-7150000D01*
G75*
G02*
X-17625000Y-7400000I0J-250000D01*
G01*
X-17625000Y-8400000D01*
G75*
G02*
X-17875000Y-8650000I-250000J0D01*
G01*
X-19725000Y-8650000D01*
G75*
G02*
X-19975000Y-8400000I0J250000D01*
G01*
X-19975000Y-7400000D01*
G75*
G02*
X-19725000Y-7150000I250000J0D01*
G01*
G37*
%TD.AperFunction*%
%TO.P,C26,1*%
%TO.N,Net-(C26-Pad1)*%
%TA.AperFunction,SMDPad,CuDef*%
G36*
G01*
X-19725000Y-3900000D02*
X-17875000Y-3900000D01*
G75*
G02*
X-17625000Y-4150000I0J-250000D01*
G01*
X-17625000Y-5150000D01*
G75*
G02*
X-17875000Y-5400000I-250000J0D01*
G01*
X-19725000Y-5400000D01*
G75*
G02*
X-19975000Y-5150000I0J250000D01*
G01*
X-19975000Y-4150000D01*
G75*
G02*
X-19725000Y-3900000I250000J0D01*
G01*
G37*
%TD.AperFunction*%
%TD*%
%TO.P,C25,2*%
%TO.N,Net-(C25-Pad2)*%
%TA.AperFunction,SMDPad,CuDef*%
G36*
G01*
X-70225000Y-12587500D02*
X-71175000Y-12587500D01*
G75*
G02*
X-71425000Y-12337500I0J250000D01*
G01*
X-71425000Y-11662500D01*
G75*
G02*
X-71175000Y-11412500I250000J0D01*
G01*
X-70225000Y-11412500D01*
G75*
G02*
X-69975000Y-11662500I0J-250000D01*
G01*
X-69975000Y-12337500D01*
G75*
G02*
X-70225000Y-12587500I-250000J0D01*
G01*
G37*
%TD.AperFunction*%
%TO.P,C25,1*%
%TO.N,Net-(C25-Pad1)*%
%TA.AperFunction,SMDPad,CuDef*%
G36*
G01*
X-70225000Y-14662500D02*
X-71175000Y-14662500D01*
G75*
G02*
X-71425000Y-14412500I0J250000D01*
G01*
X-71425000Y-13737500D01*
G75*
G02*
X-71175000Y-13487500I250000J0D01*
G01*
X-70225000Y-13487500D01*
G75*
G02*
X-69975000Y-13737500I0J-250000D01*
G01*
X-69975000Y-14412500D01*
G75*
G02*
X-70225000Y-14662500I-250000J0D01*
G01*
G37*
%TD.AperFunction*%
%TD*%
%TO.P,C22,2*%
%TO.N,GND*%
%TA.AperFunction,SMDPad,CuDef*%
G36*
G01*
X-63625000Y-7587500D02*
X-64575000Y-7587500D01*
G75*
G02*
X-64825000Y-7337500I0J250000D01*
G01*
X-64825000Y-6662500D01*
G75*
G02*
X-64575000Y-6412500I250000J0D01*
G01*
X-63625000Y-6412500D01*
G75*
G02*
X-63375000Y-6662500I0J-250000D01*
G01*
X-63375000Y-7337500D01*
G75*
G02*
X-63625000Y-7587500I-250000J0D01*
G01*
G37*
%TD.AperFunction*%
%TO.P,C22,1*%
%TO.N,Net-(C22-Pad1)*%
%TA.AperFunction,SMDPad,CuDef*%
G36*
G01*
X-63625000Y-9662500D02*
X-64575000Y-9662500D01*
G75*
G02*
X-64825000Y-9412500I0J250000D01*
G01*
X-64825000Y-8737500D01*
G75*
G02*
X-64575000Y-8487500I250000J0D01*
G01*
X-63625000Y-8487500D01*
G75*
G02*
X-63375000Y-8737500I0J-250000D01*
G01*
X-63375000Y-9412500D01*
G75*
G02*
X-63625000Y-9662500I-250000J0D01*
G01*
G37*
%TD.AperFunction*%
%TD*%
%TO.P,C18,2*%
%TO.N,GND*%
%TA.AperFunction,SMDPad,CuDef*%
G36*
G01*
X-22225000Y-2587500D02*
X-23175000Y-2587500D01*
G75*
G02*
X-23425000Y-2337500I0J250000D01*
G01*
X-23425000Y-1662500D01*
G75*
G02*
X-23175000Y-1412500I250000J0D01*
G01*
X-22225000Y-1412500D01*
G75*
G02*
X-21975000Y-1662500I0J-250000D01*
G01*
X-21975000Y-2337500D01*
G75*
G02*
X-22225000Y-2587500I-250000J0D01*
G01*
G37*
%TD.AperFunction*%
%TO.P,C18,1*%
%TO.N,Net-(C18-Pad1)*%
%TA.AperFunction,SMDPad,CuDef*%
G36*
G01*
X-22225000Y-4662500D02*
X-23175000Y-4662500D01*
G75*
G02*
X-23425000Y-4412500I0J250000D01*
G01*
X-23425000Y-3737500D01*
G75*
G02*
X-23175000Y-3487500I250000J0D01*
G01*
X-22225000Y-3487500D01*
G75*
G02*
X-21975000Y-3737500I0J-250000D01*
G01*
X-21975000Y-4412500D01*
G75*
G02*
X-22225000Y-4662500I-250000J0D01*
G01*
G37*
%TD.AperFunction*%
%TD*%
%TO.P,C16,2*%
%TO.N,VEE*%
%TA.AperFunction,SMDPad,CuDef*%
G36*
G01*
X-24650000Y-9300000D02*
X-23550000Y-9300000D01*
G75*
G02*
X-23300000Y-9550000I0J-250000D01*
G01*
X-23300000Y-11650000D01*
G75*
G02*
X-23550000Y-11900000I-250000J0D01*
G01*
X-24650000Y-11900000D01*
G75*
G02*
X-24900000Y-11650000I0J250000D01*
G01*
X-24900000Y-9550000D01*
G75*
G02*
X-24650000Y-9300000I250000J0D01*
G01*
G37*
%TD.AperFunction*%
%TO.P,C16,1*%
%TO.N,Net-(C16-Pad1)*%
%TA.AperFunction,SMDPad,CuDef*%
G36*
G01*
X-24650000Y-5700000D02*
X-23550000Y-5700000D01*
G75*
G02*
X-23300000Y-5950000I0J-250000D01*
G01*
X-23300000Y-8050000D01*
G75*
G02*
X-23550000Y-8300000I-250000J0D01*
G01*
X-24650000Y-8300000D01*
G75*
G02*
X-24900000Y-8050000I0J250000D01*
G01*
X-24900000Y-5950000D01*
G75*
G02*
X-24650000Y-5700000I250000J0D01*
G01*
G37*
%TD.AperFunction*%
%TD*%
%TO.P,C15,2*%
%TO.N,GND*%
%TA.AperFunction,SMDPad,CuDef*%
G36*
G01*
X-11900001Y-19462500D02*
X-10599999Y-19462500D01*
G75*
G02*
X-10350000Y-19712499I0J-249999D01*
G01*
X-10350000Y-20537501D01*
G75*
G02*
X-10599999Y-20787500I-249999J0D01*
G01*
X-11900001Y-20787500D01*
G75*
G02*
X-12150000Y-20537501I0J249999D01*
G01*
X-12150000Y-19712499D01*
G75*
G02*
X-11900001Y-19462500I249999J0D01*
G01*
G37*
%TD.AperFunction*%
%TO.P,C15,1*%
%TO.N,Net-(C15-Pad1)*%
%TA.AperFunction,SMDPad,CuDef*%
G36*
G01*
X-11900001Y-16337500D02*
X-10599999Y-16337500D01*
G75*
G02*
X-10350000Y-16587499I0J-249999D01*
G01*
X-10350000Y-17412501D01*
G75*
G02*
X-10599999Y-17662500I-249999J0D01*
G01*
X-11900001Y-17662500D01*
G75*
G02*
X-12150000Y-17412501I0J249999D01*
G01*
X-12150000Y-16587499D01*
G75*
G02*
X-11900001Y-16337500I249999J0D01*
G01*
G37*
%TD.AperFunction*%
%TD*%
%TO.P,C14,2*%
%TO.N,GND*%
%TA.AperFunction,SMDPad,CuDef*%
G36*
G01*
X-8325000Y-18487500D02*
X-7375000Y-18487500D01*
G75*
G02*
X-7125000Y-18737500I0J-250000D01*
G01*
X-7125000Y-19412500D01*
G75*
G02*
X-7375000Y-19662500I-250000J0D01*
G01*
X-8325000Y-19662500D01*
G75*
G02*
X-8575000Y-19412500I0J250000D01*
G01*
X-8575000Y-18737500D01*
G75*
G02*
X-8325000Y-18487500I250000J0D01*
G01*
G37*
%TD.AperFunction*%
%TO.P,C14,1*%
%TO.N,Net-(C14-Pad1)*%
%TA.AperFunction,SMDPad,CuDef*%
G36*
G01*
X-8325000Y-16412500D02*
X-7375000Y-16412500D01*
G75*
G02*
X-7125000Y-16662500I0J-250000D01*
G01*
X-7125000Y-17337500D01*
G75*
G02*
X-7375000Y-17587500I-250000J0D01*
G01*
X-8325000Y-17587500D01*
G75*
G02*
X-8575000Y-17337500I0J250000D01*
G01*
X-8575000Y-16662500D01*
G75*
G02*
X-8325000Y-16412500I250000J0D01*
G01*
G37*
%TD.AperFunction*%
%TD*%
%TO.P,C13,2*%
%TO.N,Net-(C13-Pad2)*%
%TA.AperFunction,SMDPad,CuDef*%
G36*
G01*
X-24650000Y-17200000D02*
X-23550000Y-17200000D01*
G75*
G02*
X-23300000Y-17450000I0J-250000D01*
G01*
X-23300000Y-19550000D01*
G75*
G02*
X-23550000Y-19800000I-250000J0D01*
G01*
X-24650000Y-19800000D01*
G75*
G02*
X-24900000Y-19550000I0J250000D01*
G01*
X-24900000Y-17450000D01*
G75*
G02*
X-24650000Y-17200000I250000J0D01*
G01*
G37*
%TD.AperFunction*%
%TO.P,C13,1*%
%TO.N,Net-(C13-Pad1)*%
%TA.AperFunction,SMDPad,CuDef*%
G36*
G01*
X-24650000Y-13600000D02*
X-23550000Y-13600000D01*
G75*
G02*
X-23300000Y-13850000I0J-250000D01*
G01*
X-23300000Y-15950000D01*
G75*
G02*
X-23550000Y-16200000I-250000J0D01*
G01*
X-24650000Y-16200000D01*
G75*
G02*
X-24900000Y-15950000I0J250000D01*
G01*
X-24900000Y-13850000D01*
G75*
G02*
X-24650000Y-13600000I250000J0D01*
G01*
G37*
%TD.AperFunction*%
%TD*%
%TO.P,C10,2*%
%TO.N,Net-(C10-Pad2)*%
%TA.AperFunction,SMDPad,CuDef*%
G36*
G01*
X-14025000Y-7587500D02*
X-14975000Y-7587500D01*
G75*
G02*
X-15225000Y-7337500I0J250000D01*
G01*
X-15225000Y-6662500D01*
G75*
G02*
X-14975000Y-6412500I250000J0D01*
G01*
X-14025000Y-6412500D01*
G75*
G02*
X-13775000Y-6662500I0J-250000D01*
G01*
X-13775000Y-7337500D01*
G75*
G02*
X-14025000Y-7587500I-250000J0D01*
G01*
G37*
%TD.AperFunction*%
%TO.P,C10,1*%
%TO.N,Net-(C10-Pad1)*%
%TA.AperFunction,SMDPad,CuDef*%
G36*
G01*
X-14025000Y-9662500D02*
X-14975000Y-9662500D01*
G75*
G02*
X-15225000Y-9412500I0J250000D01*
G01*
X-15225000Y-8737500D01*
G75*
G02*
X-14975000Y-8487500I250000J0D01*
G01*
X-14025000Y-8487500D01*
G75*
G02*
X-13775000Y-8737500I0J-250000D01*
G01*
X-13775000Y-9412500D01*
G75*
G02*
X-14025000Y-9662500I-250000J0D01*
G01*
G37*
%TD.AperFunction*%
%TD*%
%TO.P,C8,2*%
%TO.N,Net-(C8-Pad2)*%
%TA.AperFunction,SMDPad,CuDef*%
G36*
G01*
X-5100001Y-9462500D02*
X-3799999Y-9462500D01*
G75*
G02*
X-3550000Y-9712499I0J-249999D01*
G01*
X-3550000Y-10537501D01*
G75*
G02*
X-3799999Y-10787500I-249999J0D01*
G01*
X-5100001Y-10787500D01*
G75*
G02*
X-5350000Y-10537501I0J249999D01*
G01*
X-5350000Y-9712499D01*
G75*
G02*
X-5100001Y-9462500I249999J0D01*
G01*
G37*
%TD.AperFunction*%
%TO.P,C8,1*%
%TO.N,Net-(C8-Pad1)*%
%TA.AperFunction,SMDPad,CuDef*%
G36*
G01*
X-5100001Y-6337500D02*
X-3799999Y-6337500D01*
G75*
G02*
X-3550000Y-6587499I0J-249999D01*
G01*
X-3550000Y-7412501D01*
G75*
G02*
X-3799999Y-7662500I-249999J0D01*
G01*
X-5100001Y-7662500D01*
G75*
G02*
X-5350000Y-7412501I0J249999D01*
G01*
X-5350000Y-6587499D01*
G75*
G02*
X-5100001Y-6337500I249999J0D01*
G01*
G37*
%TD.AperFunction*%
%TD*%
%TO.P,C6,2*%
%TO.N,Net-(C6-Pad2)*%
%TA.AperFunction,SMDPad,CuDef*%
G36*
G01*
X-11725000Y-3487500D02*
X-10775000Y-3487500D01*
G75*
G02*
X-10525000Y-3737500I0J-250000D01*
G01*
X-10525000Y-4412500D01*
G75*
G02*
X-10775000Y-4662500I-250000J0D01*
G01*
X-11725000Y-4662500D01*
G75*
G02*
X-11975000Y-4412500I0J250000D01*
G01*
X-11975000Y-3737500D01*
G75*
G02*
X-11725000Y-3487500I250000J0D01*
G01*
G37*
%TD.AperFunction*%
%TO.P,C6,1*%
%TO.N,Net-(C6-Pad1)*%
%TA.AperFunction,SMDPad,CuDef*%
G36*
G01*
X-11725000Y-1412500D02*
X-10775000Y-1412500D01*
G75*
G02*
X-10525000Y-1662500I0J-250000D01*
G01*
X-10525000Y-2337500D01*
G75*
G02*
X-10775000Y-2587500I-250000J0D01*
G01*
X-11725000Y-2587500D01*
G75*
G02*
X-11975000Y-2337500I0J250000D01*
G01*
X-11975000Y-1662500D01*
G75*
G02*
X-11725000Y-1412500I250000J0D01*
G01*
G37*
%TD.AperFunction*%
%TD*%
D13*
%TO.N,GND*%
X-35925000Y-15125000D03*
X-6122008Y-637990D03*
X-28930000Y-19140002D03*
X-30562010Y-637990D03*
X-18037990Y-637990D03*
X-59100000Y-25200000D03*
X-32200000Y-25200000D03*
X-73699998Y-9090042D03*
X-73700000Y-2000000D03*
X-40800000Y-13100000D03*
X-61200000Y-600000D03*
X-45637991Y-237991D03*
X-1500000Y-6700000D03*
X-74200000Y-15800000D03*
%TO.N,VCC*%
X-40100000Y-18000001D03*
%TO.N,VEE*%
X-11450000Y-5550000D03*
X-41087184Y-10451577D03*
X-20200000Y-11400000D03*
X-38199996Y-17200000D03*
%TO.N,Net-(C5-Pad1)*%
X-28342761Y-11988245D03*
%TO.N,Net-(C7-Pad1)*%
X-36900000Y-12000000D03*
%TO.N,Net-(C20-Pad1)*%
X-30800000Y-7400000D03*
%TO.N,Net-(C23-Pad1)*%
X-36900000Y-8500000D03*
%TO.N,Net-(C27-Pad1)*%
X-28100000Y-5500000D03*
%TO.N,Net-(C28-Pad2)*%
X-41100000Y-7800000D03*
%TO.N,Net-(C28-Pad1)*%
X-41099996Y-9100000D03*
%TO.N,Net-(C41-Pad1)*%
X-47500014Y-5400000D03*
%TO.N,Net-(C44-Pad1)*%
X-46300000Y-18500000D03*
%TO.N,Net-(C48-Pad1)*%
X-52500010Y-10900000D03*
%TO.N,Net-(Q3-Pad1)*%
X-8369990Y-22900000D03*
X-15800000Y-22900000D03*
%TO.N,Net-(R28-Pad1)*%
X-33600000Y-16800000D03*
%TO.N,/Dolby S Encoder/N1*%
X-39000000Y-1500000D03*
%TO.N,Net-(R38-Pad2)*%
X-66500000Y-3600000D03*
%TO.N,Net-(R40-Pad2)*%
X-40600000Y-2800000D03*
%TO.N,Net-(R42-Pad2)*%
X-64900000Y-3600000D03*
%TO.N,Net-(R44-Pad2)*%
X-57700004Y-4500000D03*
%TO.N,Net-(R45-Pad1)*%
X-55700000Y-15200000D03*
%TO.N,Net-(R46-Pad2)*%
X-69000000Y-10300000D03*
%TO.N,Net-(R47-Pad2)*%
X-52399994Y-15900000D03*
%TO.N,Net-(R48-Pad2)*%
X-49400000Y-10100000D03*
%TO.N,Net-(R49-Pad2)*%
X-48300004Y-15700000D03*
%TO.N,Net-(R51-Pad2)*%
X-48800000Y-14000000D03*
%TO.N,Net-(R52-Pad1)*%
X-35900000Y-9600000D03*
%TO.N,Net-(C21-Pad1)*%
X-32100000Y-20100000D03*
%TD*%
D14*
%TO.N,GND*%
X-16245000Y-20125000D02*
X-21310000Y-25190000D01*
X-11250000Y-20125000D02*
X-16245000Y-20125000D01*
X-5325000Y-19075000D02*
X-7850000Y-19075000D01*
X-2787990Y-16537990D02*
X-5325000Y-19075000D01*
X-2787990Y-2962010D02*
X-2787990Y-16537990D01*
X-4450000Y-2000000D02*
X-3750000Y-2000000D01*
X-3750000Y-2000000D02*
X-2787990Y-2962010D01*
X-9925000Y-20125000D02*
X-11250000Y-20125000D01*
X-7850000Y-19075000D02*
X-7875000Y-19100000D01*
X-8900000Y-19100000D02*
X-9925000Y-20125000D01*
X-7875000Y-19100000D02*
X-8900000Y-19100000D01*
X-22700000Y-2000000D02*
X-25900000Y-2000000D01*
X-25900000Y-2000000D02*
X-29200000Y-2000000D01*
D15*
X-50600000Y-11700000D02*
X-46100000Y-11700000D01*
X-50900000Y-12000000D02*
X-50600000Y-11700000D01*
D14*
X-4450000Y-2000000D02*
X-4759998Y-2000000D01*
X-4759998Y-2000000D02*
X-6122008Y-637990D01*
X-22700000Y-1412500D02*
X-21925490Y-637990D01*
X-21925490Y-637990D02*
X-18037990Y-637990D01*
X-22700000Y-2000000D02*
X-22700000Y-1412500D01*
X-28930000Y-25190000D02*
X-28930000Y-19140002D01*
X-3530000Y-25190000D02*
X-3530000Y-23395000D01*
X-3530000Y-23395000D02*
X-7850000Y-19075000D01*
X-50999998Y-6999998D02*
X-51000000Y-7000000D01*
X-51000000Y-7000000D02*
X-54200000Y-7000000D01*
X-54200000Y-7000000D02*
X-57500000Y-7000000D01*
X-67400000Y-7000000D02*
X-70700000Y-7000000D01*
X-18037990Y-637990D02*
X-6122008Y-637990D01*
X-64100000Y-7000000D02*
X-64162002Y-7062002D01*
X-64162002Y-7062002D02*
X-67337998Y-7062002D01*
X-67337998Y-7062002D02*
X-67400000Y-7000000D01*
D16*
X-43700000Y-11700000D02*
X-43400000Y-11400000D01*
X-46100000Y-11700000D02*
X-43700000Y-11700000D01*
D14*
X-60800000Y-7000000D02*
X-57500000Y-7000000D01*
X-64100000Y-7000000D02*
X-60800000Y-7000000D01*
X-70700000Y-7000000D02*
X-71609956Y-7000000D01*
X-71609956Y-7000000D02*
X-73699998Y-9090042D01*
X-44137998Y-7362002D02*
X-48157762Y-7362002D01*
X-48157762Y-7362002D02*
X-48519764Y-7000000D01*
X-48519764Y-7000000D02*
X-51000000Y-7000000D01*
X-43400000Y-11400000D02*
X-43400000Y-8100000D01*
X-43400000Y-8100000D02*
X-44137998Y-7362002D01*
X-42500000Y-11400000D02*
X-40800000Y-13100000D01*
X-43400000Y-11400000D02*
X-42500000Y-11400000D01*
X-74200000Y-9590044D02*
X-73699998Y-9090042D01*
X-74200000Y-22426000D02*
X-74200000Y-15800000D01*
X-69570000Y-25190000D02*
X-71436000Y-25190000D01*
X-71436000Y-25190000D02*
X-74200000Y-22426000D01*
X-74200000Y-15800000D02*
X-74200000Y-9590044D01*
D16*
%TO.N,VCC*%
X-40100000Y-17500000D02*
X-40100000Y-18000001D01*
X-46100000Y-13300000D02*
X-44300000Y-13300000D01*
X-44300000Y-13300000D02*
X-40100000Y-17500000D01*
%TO.N,VEE*%
X-16450000Y-5550000D02*
X-11450000Y-5550000D01*
X-18800000Y-7900000D02*
X-16450000Y-5550000D01*
X-24100000Y-10600000D02*
X-21000000Y-10600000D01*
X-21000000Y-10600000D02*
X-20200000Y-11400000D01*
X-18800000Y-7900000D02*
X-18800000Y-10000000D01*
X-18800000Y-10000000D02*
X-20200000Y-11400000D01*
D15*
X-52600000Y-17000000D02*
X-50900000Y-17000000D01*
X-53400000Y-16200000D02*
X-52600000Y-17000000D01*
X-53400000Y-15400000D02*
X-53400000Y-16200000D01*
X-46100000Y-12500000D02*
X-47500000Y-12500000D01*
X-47500000Y-12500000D02*
X-48018990Y-13018990D01*
X-48018990Y-13018990D02*
X-51818990Y-13018990D01*
X-51818990Y-13018990D02*
X-52600000Y-13800000D01*
X-52600000Y-13800000D02*
X-52600000Y-14600000D01*
X-52600000Y-14600000D02*
X-53400000Y-15400000D01*
D16*
X-38199996Y-13338765D02*
X-38199996Y-17200000D01*
X-41087184Y-10451577D02*
X-38199996Y-13338765D01*
X-38800000Y-17200000D02*
X-38199996Y-17200000D01*
X-46100000Y-12500000D02*
X-43500000Y-12500000D01*
X-43500000Y-12500000D02*
X-38800000Y-17200000D01*
D15*
%TO.N,Net-(C5-Pad1)*%
X-28854516Y-12500000D02*
X-28342761Y-11988245D01*
X-31100000Y-12500000D02*
X-28854516Y-12500000D01*
%TO.N,Net-(C6-Pad2)*%
X-11250000Y-4075000D02*
X-9775000Y-4075000D01*
X-8050000Y-5800000D02*
X-8050000Y-7000000D01*
X-9775000Y-4075000D02*
X-8050000Y-5800000D01*
%TO.N,Net-(C6-Pad1)*%
X-31068999Y-13268999D02*
X-31100000Y-13300000D01*
X-28068999Y-13268999D02*
X-31068999Y-13268999D01*
X-26500000Y-11700000D02*
X-28068999Y-13268999D01*
X-26500000Y-10000000D02*
X-26500000Y-11700000D01*
X-23169634Y-8800000D02*
X-25300000Y-8800000D01*
X-12500000Y-2000000D02*
X-13518990Y-3018990D01*
X-13518990Y-3018990D02*
X-20118990Y-3018990D01*
X-11250000Y-2000000D02*
X-12500000Y-2000000D01*
X-20118990Y-3018990D02*
X-21100000Y-4000000D01*
X-25300000Y-8800000D02*
X-26500000Y-10000000D01*
X-21100000Y-4000000D02*
X-21100000Y-6730366D01*
X-21100000Y-6730366D02*
X-23169634Y-8800000D01*
%TO.N,Net-(C7-Pad1)*%
X-31100000Y-11700000D02*
X-36600000Y-11700000D01*
X-36600000Y-11700000D02*
X-36900000Y-12000000D01*
%TO.N,Net-(C8-Pad2)*%
X-6925000Y-10125000D02*
X-8050000Y-9000000D01*
X-4450000Y-10125000D02*
X-6925000Y-10125000D01*
X-8250000Y-9000000D02*
X-11250000Y-12000000D01*
X-8050000Y-9000000D02*
X-8250000Y-9000000D01*
X-13900000Y-14000000D02*
X-14500000Y-14000000D01*
X-11250000Y-12000000D02*
X-11900000Y-12000000D01*
X-11900000Y-12000000D02*
X-13900000Y-14000000D01*
X-14500000Y-14200000D02*
X-14500000Y-14000000D01*
X-28200000Y-17300000D02*
X-25100000Y-20400000D01*
X-31100000Y-17300000D02*
X-28200000Y-17300000D01*
X-23000000Y-20400000D02*
X-20581010Y-17981010D01*
X-25100000Y-20400000D02*
X-23000000Y-20400000D01*
X-20581010Y-17981010D02*
X-18281010Y-17981010D01*
X-18281010Y-17981010D02*
X-14500000Y-14200000D01*
%TO.N,Net-(C8-Pad1)*%
X-4450000Y-7000000D02*
X-4450000Y-4000000D01*
X-10131010Y-8018990D02*
X-11150000Y-7000000D01*
X-5468990Y-8018990D02*
X-10131010Y-8018990D01*
X-4450000Y-7000000D02*
X-5468990Y-8018990D01*
%TO.N,Net-(C10-Pad2)*%
X-13800000Y-7000000D02*
X-14500000Y-7000000D01*
X-11150000Y-9000000D02*
X-11800000Y-9000000D01*
X-11800000Y-9000000D02*
X-13800000Y-7000000D01*
%TO.N,Net-(C10-Pad1)*%
X-26010979Y-12710979D02*
X-19110979Y-12710979D01*
X-15475000Y-9075000D02*
X-14500000Y-9075000D01*
X-19110979Y-12710979D02*
X-15475000Y-9075000D01*
X-31100000Y-14100000D02*
X-27400000Y-14100000D01*
X-27400000Y-14100000D02*
X-26010979Y-12710979D01*
%TO.N,Net-(C13-Pad2)*%
X-21150000Y-17000000D02*
X-19350000Y-17000000D01*
X-24100000Y-18500000D02*
X-22650000Y-18500000D01*
X-22650000Y-18500000D02*
X-21150000Y-17000000D01*
%TO.N,Net-(C13-Pad1)*%
X-31100000Y-14900000D02*
X-24100000Y-14900000D01*
%TO.N,Net-(C14-Pad1)*%
X-7850000Y-14000000D02*
X-7850000Y-17000000D01*
X-10057250Y-19000000D02*
X-8057250Y-17000000D01*
X-8057250Y-17000000D02*
X-7850000Y-17000000D01*
X-19350000Y-19000000D02*
X-10057250Y-19000000D01*
%TO.N,Net-(C15-Pad1)*%
X-11250000Y-14000000D02*
X-11250000Y-17000000D01*
X-10475000Y-14000000D02*
X-11250000Y-14000000D01*
X-7850000Y-12000000D02*
X-8475000Y-12000000D01*
X-8475000Y-12000000D02*
X-10475000Y-14000000D01*
%TO.N,Net-(C16-Pad1)*%
X-25100000Y-7000000D02*
X-24100000Y-7000000D01*
X-31100000Y-10100000D02*
X-28200000Y-10100000D01*
X-28200000Y-10100000D02*
X-25100000Y-7000000D01*
%TO.N,Net-(C18-Pad1)*%
X-25825000Y-4075000D02*
X-25900000Y-4000000D01*
X-22700000Y-4075000D02*
X-25825000Y-4075000D01*
X-25900000Y-4000000D02*
X-25900000Y-6100000D01*
X-29100000Y-9300000D02*
X-31100000Y-9300000D01*
X-25900000Y-6100000D02*
X-29100000Y-9300000D01*
%TO.N,Net-(C20-Pad1)*%
X-30800000Y-8200000D02*
X-30800000Y-7400000D01*
X-31100000Y-8500000D02*
X-30800000Y-8200000D01*
%TO.N,Net-(C22-Pad1)*%
X-64675000Y-9075000D02*
X-64100000Y-9075000D01*
X-66100000Y-12600000D02*
X-66100000Y-10500000D01*
X-67400000Y-17000000D02*
X-68100000Y-17000000D01*
X-68100000Y-17000000D02*
X-68800000Y-16300000D01*
X-68800000Y-16300000D02*
X-68800000Y-13603807D01*
X-68196193Y-13000000D02*
X-66500000Y-13000000D01*
X-68800000Y-13603807D02*
X-68196193Y-13000000D01*
X-66100000Y-10500000D02*
X-64675000Y-9075000D01*
X-66500000Y-13000000D02*
X-66100000Y-12600000D01*
%TO.N,Net-(C23-Pad1)*%
X-34200000Y-5400000D02*
X-34200000Y-6800000D01*
X-34200000Y-6800000D02*
X-35900000Y-8500000D01*
X-35900000Y-8500000D02*
X-36900000Y-8500000D01*
%TO.N,Net-(C25-Pad2)*%
X-70700000Y-12000000D02*
X-67400000Y-12000000D01*
X-67400000Y-12000000D02*
X-67400000Y-9000000D01*
%TO.N,Net-(C25-Pad1)*%
X-35000000Y-22400000D02*
X-35000000Y-20400000D01*
X-37900000Y-25300000D02*
X-35000000Y-22400000D01*
X-53000000Y-25300000D02*
X-37900000Y-25300000D01*
X-56200000Y-22100000D02*
X-53000000Y-25300000D01*
X-70700000Y-19000000D02*
X-67600000Y-22100000D01*
X-67600000Y-22100000D02*
X-56200000Y-22100000D01*
X-70875000Y-14075000D02*
X-70700000Y-14075000D01*
X-72200000Y-15400000D02*
X-70875000Y-14075000D01*
X-70700000Y-19000000D02*
X-71000000Y-19000000D01*
X-72200000Y-17800000D02*
X-72200000Y-15400000D01*
X-71000000Y-19000000D02*
X-72200000Y-17800000D01*
%TO.N,Net-(C26-Pad1)*%
X-18150000Y-4000000D02*
X-18800000Y-4650000D01*
X-14550000Y-4000000D02*
X-18150000Y-4000000D01*
%TO.N,Net-(C27-Pad1)*%
X-35800000Y-5400000D02*
X-35800000Y-3600000D01*
X-34900000Y-2700000D02*
X-32950000Y-2700000D01*
X-35800000Y-3600000D02*
X-34900000Y-2700000D01*
X-32950000Y-2700000D02*
X-30150000Y-5500000D01*
X-30150000Y-5500000D02*
X-28100000Y-5500000D01*
%TO.N,Net-(C28-Pad2)*%
X-37400000Y-5400000D02*
X-37400000Y-6800000D01*
X-38400000Y-7800000D02*
X-41100000Y-7800000D01*
X-37400000Y-6800000D02*
X-38400000Y-7800000D01*
%TO.N,Net-(C28-Pad1)*%
X-38900000Y-9100000D02*
X-41099996Y-9100000D01*
X-36600000Y-6800000D02*
X-38900000Y-9100000D01*
X-36600000Y-5400000D02*
X-36600000Y-6800000D01*
%TO.N,Net-(C29-Pad1)*%
X-63900000Y-18900000D02*
X-63700000Y-18900000D01*
X-39200000Y-24100000D02*
X-37400000Y-22300000D01*
X-52100000Y-24100000D02*
X-39200000Y-24100000D01*
X-55500000Y-20700000D02*
X-52100000Y-24100000D01*
X-64100000Y-19000000D02*
X-62400000Y-20700000D01*
X-37400000Y-22300000D02*
X-37400000Y-20400000D01*
X-62400000Y-20700000D02*
X-55500000Y-20700000D01*
X-64600000Y-10500000D02*
X-62225000Y-10500000D01*
X-65500000Y-11400000D02*
X-64600000Y-10500000D01*
X-62800000Y-17700000D02*
X-62800000Y-13400000D01*
X-64100000Y-19000000D02*
X-62800000Y-17700000D01*
X-62800000Y-13400000D02*
X-63200000Y-13000000D01*
X-63200000Y-13000000D02*
X-65100000Y-13000000D01*
X-65500000Y-12600000D02*
X-65500000Y-11400000D01*
X-62225000Y-10500000D02*
X-60800000Y-9075000D01*
X-65100000Y-13000000D02*
X-65500000Y-12600000D01*
%TO.N,Net-(C30-Pad2)*%
X-64100000Y-17000000D02*
X-64100000Y-14075000D01*
X-67325000Y-14075000D02*
X-67400000Y-14000000D01*
X-64100000Y-14075000D02*
X-67325000Y-14075000D01*
%TO.N,Net-(C30-Pad1)*%
X-64100000Y-12000000D02*
X-60800000Y-12000000D01*
%TO.N,Net-(C33-Pad2)*%
X-60725000Y-19075000D02*
X-60800000Y-19000000D01*
X-57500000Y-19075000D02*
X-60725000Y-19075000D01*
X-38200000Y-22100000D02*
X-38200000Y-20400000D01*
X-39600000Y-23500000D02*
X-38200000Y-22100000D01*
X-51650000Y-23500000D02*
X-39600000Y-23500000D01*
X-57500000Y-19075000D02*
X-56075000Y-19075000D01*
X-56075000Y-19075000D02*
X-51650000Y-23500000D01*
X-60800000Y-14988970D02*
X-60800000Y-14000000D01*
X-62200000Y-16388970D02*
X-60800000Y-14988970D01*
X-62200000Y-18450000D02*
X-62200000Y-16388970D01*
X-60800000Y-19000000D02*
X-61650000Y-19000000D01*
X-61650000Y-19000000D02*
X-62200000Y-18450000D01*
%TO.N,Net-(C33-Pad1)*%
X-60800000Y-17000000D02*
X-57500000Y-17000000D01*
X-40000000Y-22900000D02*
X-39000000Y-21900000D01*
X-39000000Y-21900000D02*
X-39000000Y-20400000D01*
X-51300000Y-22900000D02*
X-40000000Y-22900000D01*
X-57500000Y-17000000D02*
X-57200000Y-17000000D01*
X-57200000Y-17000000D02*
X-51300000Y-22900000D01*
%TO.N,Net-(C34-Pad1)*%
X-57500000Y-11650000D02*
X-57500000Y-12000000D01*
X-54200000Y-9075000D02*
X-54925000Y-9075000D01*
X-54925000Y-9075000D02*
X-57500000Y-11650000D01*
%TO.N,Net-(C38-Pad1)*%
X-51930884Y-9075000D02*
X-54200000Y-11344116D01*
X-51000000Y-9075000D02*
X-51930884Y-9075000D01*
X-54200000Y-11344116D02*
X-54200000Y-11950000D01*
%TO.N,Net-(C40-Pad1)*%
X-42200000Y-18800000D02*
X-42200000Y-20400000D01*
X-50900000Y-19662500D02*
X-50262500Y-20300000D01*
X-50262500Y-20300000D02*
X-45300000Y-20300000D01*
X-43500000Y-18500000D02*
X-42500000Y-18500000D01*
X-45300000Y-20300000D02*
X-43500000Y-18500000D01*
X-50900000Y-19075000D02*
X-50900000Y-19662500D01*
X-42500000Y-18500000D02*
X-42200000Y-18800000D01*
%TO.N,Net-(C41-Pad1)*%
X-43000000Y-5400000D02*
X-47500014Y-5400000D01*
%TO.N,Net-(C44-Pad1)*%
X-46100000Y-17300000D02*
X-46100000Y-18300000D01*
X-46100000Y-18300000D02*
X-46300000Y-18500000D01*
%TO.N,Net-(C48-Pad1)*%
X-46100000Y-10900000D02*
X-52500010Y-10900000D01*
%TO.N,/ENC_OUT*%
X-28281002Y-18218998D02*
X-23850000Y-22650000D01*
X-36600000Y-19000000D02*
X-35818998Y-18218998D01*
X-36600000Y-20400000D02*
X-36600000Y-19000000D01*
X-35818998Y-18218998D02*
X-28281002Y-18218998D01*
X-23850000Y-22650000D02*
X-23850000Y-25190000D01*
%TO.N,Net-(Q3-Pad1)*%
X-8935675Y-22900000D02*
X-15800000Y-22900000D01*
X-8369990Y-22900000D02*
X-8935675Y-22900000D01*
%TO.N,Net-(R17-Pad1)*%
X-27200000Y-16500000D02*
X-31100000Y-16500000D01*
X-16300000Y-12000000D02*
X-18800000Y-14500000D01*
X-18800000Y-14500000D02*
X-20000000Y-14500000D01*
X-22200000Y-16700000D02*
X-27000000Y-16700000D01*
X-14500000Y-12000000D02*
X-16300000Y-12000000D01*
X-20000000Y-14500000D02*
X-22200000Y-16700000D01*
X-27000000Y-16700000D02*
X-27200000Y-16500000D01*
%TO.N,Net-(R21-Pad1)*%
X-68700000Y-19000000D02*
X-70700000Y-17000000D01*
X-67400000Y-19000000D02*
X-68700000Y-19000000D01*
X-35800000Y-22300000D02*
X-35800000Y-20400000D01*
X-38200000Y-24700000D02*
X-35800000Y-22300000D01*
X-52600000Y-24700000D02*
X-38200000Y-24700000D01*
X-55900000Y-21400000D02*
X-52600000Y-24700000D01*
X-67400000Y-19000000D02*
X-65000000Y-21400000D01*
X-65000000Y-21400000D02*
X-55900000Y-21400000D01*
X-70700000Y-17000000D02*
X-70400000Y-17000000D01*
X-69400000Y-16000000D02*
X-69400000Y-13500000D01*
X-71800000Y-13000000D02*
X-72200000Y-12600000D01*
X-72200000Y-10500000D02*
X-70700000Y-9000000D01*
X-72200000Y-12600000D02*
X-72200000Y-10500000D01*
X-69400000Y-13500000D02*
X-69900000Y-13000000D01*
X-70400000Y-17000000D02*
X-69400000Y-16000000D01*
X-69900000Y-13000000D02*
X-71800000Y-13000000D01*
%TO.N,Net-(R25-Pad1)*%
X-20995114Y-2000000D02*
X-14550000Y-2000000D01*
X-22014104Y-3018990D02*
X-20995114Y-2000000D01*
X-27100000Y-3507614D02*
X-26611376Y-3018990D01*
X-27100000Y-6000000D02*
X-27100000Y-3507614D01*
X-35000000Y-3800000D02*
X-34600000Y-3400000D01*
X-35000000Y-5400000D02*
X-35000000Y-3800000D01*
X-27781001Y-6681001D02*
X-27100000Y-6000000D01*
X-34600000Y-3400000D02*
X-33400000Y-3400000D01*
X-33400000Y-3400000D02*
X-30118999Y-6681001D01*
X-26611376Y-3018990D02*
X-22014104Y-3018990D01*
X-30118999Y-6681001D02*
X-27781001Y-6681001D01*
%TO.N,Net-(R28-Pad1)*%
X-31100000Y-15700000D02*
X-32500000Y-15700000D01*
X-32500000Y-15700000D02*
X-33600000Y-16800000D01*
%TO.N,/Dolby S Encoder/N1*%
X-38200000Y-5400000D02*
X-39000000Y-5400000D01*
X-39000000Y-5400000D02*
X-39000000Y-1500000D01*
X-38200000Y-4084392D02*
X-38200000Y-5400000D01*
X-36015608Y-1900000D02*
X-38200000Y-4084392D01*
X-32500000Y-1900000D02*
X-36015608Y-1900000D01*
X-29200000Y-4000000D02*
X-30400000Y-4000000D01*
X-30400000Y-4000000D02*
X-32500000Y-1900000D01*
%TO.N,/Dolby S Encoder/N2*%
X-40600000Y-20400000D02*
X-39800000Y-20400000D01*
X-57500000Y-14800000D02*
X-55700000Y-16600000D01*
X-40600000Y-21900000D02*
X-40600000Y-20400000D01*
X-55700000Y-17500000D02*
X-50900000Y-22300000D01*
X-57500000Y-14000000D02*
X-57500000Y-14800000D01*
X-55700000Y-16600000D02*
X-55700000Y-17500000D01*
X-50900000Y-22300000D02*
X-41000000Y-22300000D01*
X-41000000Y-22300000D02*
X-40600000Y-21900000D01*
X-59000000Y-10500000D02*
X-57500000Y-9000000D01*
X-59000000Y-13000000D02*
X-59000000Y-10500000D01*
X-57500000Y-14000000D02*
X-58000000Y-14000000D01*
X-58000000Y-14000000D02*
X-59000000Y-13000000D01*
%TO.N,Net-(R38-Pad2)*%
X-39800000Y-2400000D02*
X-39800000Y-5400000D01*
X-40200000Y-2000000D02*
X-39800000Y-2400000D01*
X-45700000Y-2000000D02*
X-40200000Y-2000000D01*
X-46400000Y-2700000D02*
X-45700000Y-2000000D01*
X-66500000Y-3600000D02*
X-65600000Y-2700000D01*
X-65600000Y-2700000D02*
X-46400000Y-2700000D01*
%TO.N,Net-(R40-Pad2)*%
X-40600000Y-5400000D02*
X-40600000Y-2800000D01*
%TO.N,Net-(R42-Pad2)*%
X-41400000Y-3200000D02*
X-41400000Y-5400000D01*
X-44800000Y-2700000D02*
X-41900000Y-2700000D01*
X-41900000Y-2700000D02*
X-41400000Y-3200000D01*
X-64900000Y-3600000D02*
X-45700000Y-3600000D01*
X-45700000Y-3600000D02*
X-44800000Y-2700000D01*
%TO.N,Net-(R43-Pad1)*%
X-54200000Y-16400000D02*
X-54200000Y-13950000D01*
X-52600000Y-18000000D02*
X-54200000Y-16400000D01*
X-49405884Y-18000000D02*
X-52600000Y-18000000D01*
X-41400000Y-20400000D02*
X-41400000Y-18700000D01*
X-41400000Y-18700000D02*
X-42200000Y-17900000D01*
X-42200000Y-17900000D02*
X-43900000Y-17900000D01*
X-43900000Y-17900000D02*
X-45600000Y-19600000D01*
X-47805884Y-19600000D02*
X-49405884Y-18000000D01*
X-45600000Y-19600000D02*
X-47805884Y-19600000D01*
%TO.N,Net-(R44-Pad2)*%
X-42200000Y-3500000D02*
X-42200000Y-5400000D01*
X-42299999Y-3400001D02*
X-42200000Y-3500000D01*
X-44100001Y-3400001D02*
X-42299999Y-3400001D01*
X-45200000Y-4500000D02*
X-44100001Y-3400001D01*
X-57700004Y-4500000D02*
X-45200000Y-4500000D01*
%TO.N,Net-(R45-Pad1)*%
X-54900000Y-16000000D02*
X-55700000Y-15200000D01*
X-54900000Y-17300000D02*
X-54900000Y-16000000D01*
X-51300000Y-20900000D02*
X-54900000Y-17300000D01*
X-43000000Y-20400000D02*
X-43500000Y-20900000D01*
X-43500000Y-20900000D02*
X-51300000Y-20900000D01*
%TO.N,Net-(R46-Pad2)*%
X-69000000Y-8907614D02*
X-69000000Y-10300000D01*
X-50351124Y-8018990D02*
X-68111376Y-8018990D01*
X-68111376Y-8018990D02*
X-69000000Y-8907614D01*
X-49870114Y-8500000D02*
X-50351124Y-8018990D01*
X-46100000Y-8500000D02*
X-49870114Y-8500000D01*
%TO.N,Net-(R47-Pad2)*%
X-46100000Y-16500000D02*
X-48972557Y-16500000D01*
X-48972557Y-16500000D02*
X-49572557Y-15900000D01*
X-49572557Y-15900000D02*
X-52399994Y-15900000D01*
%TO.N,Net-(R48-Pad2)*%
X-46100000Y-10100000D02*
X-49400000Y-10100000D01*
%TO.N,Net-(R49-Pad2)*%
X-46100000Y-15700000D02*
X-48300004Y-15700000D01*
%TO.N,Net-(R50-Pad2)*%
X-49600000Y-14900000D02*
X-46100000Y-14900000D01*
X-50438998Y-14061002D02*
X-49600000Y-14900000D01*
X-50900000Y-14000000D02*
X-50838998Y-14061002D01*
X-50838998Y-14061002D02*
X-50438998Y-14061002D01*
%TO.N,Net-(R51-Pad2)*%
X-46100000Y-14100000D02*
X-48700000Y-14100000D01*
X-48700000Y-14100000D02*
X-48800000Y-14000000D01*
%TO.N,Net-(R52-Pad1)*%
X-31100000Y-10900000D02*
X-34600000Y-10900000D01*
X-34600000Y-10900000D02*
X-35900000Y-9600000D01*
%TO.N,Net-(C21-Pad1)*%
X-32400000Y-20400000D02*
X-32100000Y-20100000D01*
X-34200000Y-20400000D02*
X-32400000Y-20400000D01*
%TD*%
%TO.N,GND*%
X-684999Y-26315000D02*
X-2566482Y-26315000D01*
X-2529731Y-26287588D01*
X-2334822Y-26071355D01*
X-2185843Y-25821252D01*
X-2088519Y-25546891D01*
X-2209186Y-25317000D01*
X-3403000Y-25317000D01*
X-3403000Y-25337000D01*
X-3657000Y-25337000D01*
X-3657000Y-25317000D01*
X-3677000Y-25317000D01*
X-3677000Y-25063000D01*
X-3657000Y-25063000D01*
X-3657000Y-23869845D01*
X-3403000Y-23869845D01*
X-3403000Y-25063000D01*
X-2209186Y-25063000D01*
X-2088519Y-24833109D01*
X-2185843Y-24558748D01*
X-2334822Y-24308645D01*
X-2529731Y-24092412D01*
X-2763080Y-23918359D01*
X-3025901Y-23793175D01*
X-3173110Y-23748524D01*
X-3403000Y-23869845D01*
X-3657000Y-23869845D01*
X-3886890Y-23748524D01*
X-4034099Y-23793175D01*
X-4296920Y-23918359D01*
X-4530269Y-24092412D01*
X-4725178Y-24308645D01*
X-4794805Y-24425534D01*
X-4916525Y-24243368D01*
X-5123368Y-24036525D01*
X-5366589Y-23874010D01*
X-5636842Y-23762068D01*
X-5923740Y-23705000D01*
X-6216260Y-23705000D01*
X-6503158Y-23762068D01*
X-6773411Y-23874010D01*
X-7016632Y-24036525D01*
X-7223475Y-24243368D01*
X-7340000Y-24417760D01*
X-7456525Y-24243368D01*
X-7663368Y-24036525D01*
X-7906589Y-23874010D01*
X-7961731Y-23851170D01*
X-7879734Y-23817205D01*
X-7710216Y-23703937D01*
X-7566053Y-23559774D01*
X-7452785Y-23390256D01*
X-7374764Y-23201898D01*
X-7334990Y-23001939D01*
X-7334990Y-22798061D01*
X-7374764Y-22598102D01*
X-7452785Y-22409744D01*
X-7566053Y-22240226D01*
X-7710216Y-22096063D01*
X-7879734Y-21982795D01*
X-8068092Y-21904774D01*
X-8268051Y-21865000D01*
X-8471929Y-21865000D01*
X-8671888Y-21904774D01*
X-8860246Y-21982795D01*
X-9029764Y-22096063D01*
X-9071701Y-22138000D01*
X-15098289Y-22138000D01*
X-15140226Y-22096063D01*
X-15309744Y-21982795D01*
X-15498102Y-21904774D01*
X-15698061Y-21865000D01*
X-15901939Y-21865000D01*
X-16101898Y-21904774D01*
X-16290256Y-21982795D01*
X-16459774Y-22096063D01*
X-16603937Y-22240226D01*
X-16717205Y-22409744D01*
X-16795226Y-22598102D01*
X-16835000Y-22798061D01*
X-16835000Y-23001939D01*
X-16795226Y-23201898D01*
X-16717205Y-23390256D01*
X-16603937Y-23559774D01*
X-16459774Y-23703937D01*
X-16439390Y-23717557D01*
X-16663158Y-23762068D01*
X-16933411Y-23874010D01*
X-17176632Y-24036525D01*
X-17383475Y-24243368D01*
X-17500000Y-24417760D01*
X-17616525Y-24243368D01*
X-17823368Y-24036525D01*
X-18066589Y-23874010D01*
X-18336842Y-23762068D01*
X-18623740Y-23705000D01*
X-18916260Y-23705000D01*
X-19203158Y-23762068D01*
X-19473411Y-23874010D01*
X-19716632Y-24036525D01*
X-19923475Y-24243368D01*
X-20045195Y-24425534D01*
X-20114822Y-24308645D01*
X-20309731Y-24092412D01*
X-20543080Y-23918359D01*
X-20805901Y-23793175D01*
X-20953110Y-23748524D01*
X-21183000Y-23869845D01*
X-21183000Y-25063000D01*
X-21163000Y-25063000D01*
X-21163000Y-25317000D01*
X-21183000Y-25317000D01*
X-21183000Y-25337000D01*
X-21437000Y-25337000D01*
X-21437000Y-25317000D01*
X-21457000Y-25317000D01*
X-21457000Y-25063000D01*
X-21437000Y-25063000D01*
X-21437000Y-23869845D01*
X-21666890Y-23748524D01*
X-21814099Y-23793175D01*
X-22076920Y-23918359D01*
X-22310269Y-24092412D01*
X-22505178Y-24308645D01*
X-22574805Y-24425534D01*
X-22696525Y-24243368D01*
X-22903368Y-24036525D01*
X-23088000Y-23913158D01*
X-23088000Y-22687422D01*
X-23084314Y-22649999D01*
X-23088022Y-22612351D01*
X-23099026Y-22500622D01*
X-23142598Y-22356985D01*
X-23213355Y-22224608D01*
X-23308578Y-22108578D01*
X-23337647Y-22084722D01*
X-24260369Y-21162000D01*
X-23037423Y-21162000D01*
X-23000000Y-21165686D01*
X-22962577Y-21162000D01*
X-22962574Y-21162000D01*
X-22850622Y-21150974D01*
X-22706985Y-21107402D01*
X-22574608Y-21036645D01*
X-22458578Y-20941422D01*
X-22434716Y-20912346D01*
X-22309870Y-20787500D01*
X-12788072Y-20787500D01*
X-12775812Y-20911982D01*
X-12739502Y-21031680D01*
X-12680537Y-21141994D01*
X-12601185Y-21238685D01*
X-12504494Y-21318037D01*
X-12394180Y-21377002D01*
X-12274482Y-21413312D01*
X-12150000Y-21425572D01*
X-11535750Y-21422500D01*
X-11377000Y-21263750D01*
X-11377000Y-20252000D01*
X-11123000Y-20252000D01*
X-11123000Y-21263750D01*
X-10964250Y-21422500D01*
X-10350000Y-21425572D01*
X-10225518Y-21413312D01*
X-10105820Y-21377002D01*
X-9995506Y-21318037D01*
X-9898815Y-21238685D01*
X-9819463Y-21141994D01*
X-9760498Y-21031680D01*
X-9724188Y-20911982D01*
X-9711928Y-20787500D01*
X-9715000Y-20410750D01*
X-9873750Y-20252000D01*
X-11123000Y-20252000D01*
X-11377000Y-20252000D01*
X-12626250Y-20252000D01*
X-12785000Y-20410750D01*
X-12788072Y-20787500D01*
X-22309870Y-20787500D01*
X-20688072Y-19165703D01*
X-20688072Y-19350001D01*
X-20671008Y-19523255D01*
X-20620472Y-19689851D01*
X-20538405Y-19843387D01*
X-20427962Y-19977962D01*
X-20293387Y-20088405D01*
X-20139851Y-20170472D01*
X-19973255Y-20221008D01*
X-19800001Y-20238072D01*
X-18899999Y-20238072D01*
X-18726745Y-20221008D01*
X-18560149Y-20170472D01*
X-18406613Y-20088405D01*
X-18272038Y-19977962D01*
X-18161595Y-19843387D01*
X-18118093Y-19762000D01*
X-12785630Y-19762000D01*
X-12785000Y-19839250D01*
X-12626250Y-19998000D01*
X-11377000Y-19998000D01*
X-11377000Y-19978000D01*
X-11123000Y-19978000D01*
X-11123000Y-19998000D01*
X-9873750Y-19998000D01*
X-9715000Y-19839250D01*
X-9713705Y-19680393D01*
X-9631858Y-19636645D01*
X-9515828Y-19541422D01*
X-9491966Y-19512346D01*
X-9181622Y-19202002D01*
X-9051252Y-19202002D01*
X-9210000Y-19360750D01*
X-9213072Y-19662500D01*
X-9200812Y-19786982D01*
X-9164502Y-19906680D01*
X-9105537Y-20016994D01*
X-9026185Y-20113685D01*
X-8929494Y-20193037D01*
X-8819180Y-20252002D01*
X-8699482Y-20288312D01*
X-8575000Y-20300572D01*
X-8135750Y-20297500D01*
X-7977000Y-20138750D01*
X-7977000Y-19202000D01*
X-7723000Y-19202000D01*
X-7723000Y-20138750D01*
X-7564250Y-20297500D01*
X-7125000Y-20300572D01*
X-7000518Y-20288312D01*
X-6880820Y-20252002D01*
X-6770506Y-20193037D01*
X-6673815Y-20113685D01*
X-6594463Y-20016994D01*
X-6535498Y-19906680D01*
X-6499188Y-19786982D01*
X-6486928Y-19662500D01*
X-6490000Y-19360750D01*
X-6648750Y-19202000D01*
X-7723000Y-19202000D01*
X-7977000Y-19202000D01*
X-7997000Y-19202000D01*
X-7997000Y-18948000D01*
X-7977000Y-18948000D01*
X-7977000Y-18928000D01*
X-7723000Y-18928000D01*
X-7723000Y-18948000D01*
X-6648750Y-18948000D01*
X-6490000Y-18789250D01*
X-6486928Y-18487500D01*
X-6499188Y-18363018D01*
X-6535498Y-18243320D01*
X-6594463Y-18133006D01*
X-6673815Y-18036315D01*
X-6753594Y-17970842D01*
X-6747038Y-17965462D01*
X-6636595Y-17830886D01*
X-6554528Y-17677350D01*
X-6503992Y-17510754D01*
X-6486928Y-17337500D01*
X-6486928Y-16662500D01*
X-6503992Y-16489246D01*
X-6554528Y-16322650D01*
X-6636595Y-16169114D01*
X-6747038Y-16034538D01*
X-6881614Y-15924095D01*
X-7035150Y-15842028D01*
X-7088000Y-15825996D01*
X-7088000Y-15178920D01*
X-7060149Y-15170472D01*
X-6906613Y-15088405D01*
X-6772038Y-14977962D01*
X-6661595Y-14843387D01*
X-6579528Y-14689851D01*
X-6528992Y-14523255D01*
X-6511928Y-14350001D01*
X-6511928Y-13649999D01*
X-6528992Y-13476745D01*
X-6579528Y-13310149D01*
X-6661595Y-13156613D01*
X-6772038Y-13022038D01*
X-6798891Y-13000000D01*
X-6772038Y-12977962D01*
X-6661595Y-12843387D01*
X-6579528Y-12689851D01*
X-6528992Y-12523255D01*
X-6511928Y-12350001D01*
X-6511928Y-11649999D01*
X-6528992Y-11476745D01*
X-6579528Y-11310149D01*
X-6661595Y-11156613D01*
X-6772038Y-11022038D01*
X-6906613Y-10911595D01*
X-6950414Y-10888183D01*
X-6925001Y-10890686D01*
X-6887578Y-10887000D01*
X-5915314Y-10887000D01*
X-5838405Y-11030887D01*
X-5727962Y-11165462D01*
X-5593387Y-11275905D01*
X-5439851Y-11357972D01*
X-5273255Y-11408508D01*
X-5100001Y-11425572D01*
X-3799999Y-11425572D01*
X-3626745Y-11408508D01*
X-3460149Y-11357972D01*
X-3306613Y-11275905D01*
X-3172038Y-11165462D01*
X-3061595Y-11030887D01*
X-2979528Y-10877351D01*
X-2928992Y-10710755D01*
X-2911928Y-10537501D01*
X-2911928Y-9712499D01*
X-2928992Y-9539245D01*
X-2979528Y-9372649D01*
X-3061595Y-9219113D01*
X-3172038Y-9084538D01*
X-3306613Y-8974095D01*
X-3460149Y-8892028D01*
X-3626745Y-8841492D01*
X-3799999Y-8824428D01*
X-5100001Y-8824428D01*
X-5273255Y-8841492D01*
X-5439851Y-8892028D01*
X-5593387Y-8974095D01*
X-5727962Y-9084538D01*
X-5838405Y-9219113D01*
X-5915314Y-9363000D01*
X-6609369Y-9363000D01*
X-6711928Y-9260441D01*
X-6711928Y-8780990D01*
X-5506413Y-8780990D01*
X-5468990Y-8784676D01*
X-5431567Y-8780990D01*
X-5431564Y-8780990D01*
X-5319612Y-8769964D01*
X-5175975Y-8726392D01*
X-5043598Y-8655635D01*
X-4927568Y-8560412D01*
X-4903706Y-8531336D01*
X-4672942Y-8300572D01*
X-3799999Y-8300572D01*
X-3626745Y-8283508D01*
X-3460149Y-8232972D01*
X-3306613Y-8150905D01*
X-3172038Y-8040462D01*
X-3061595Y-7905887D01*
X-2979528Y-7752351D01*
X-2928992Y-7585755D01*
X-2911928Y-7412501D01*
X-2911928Y-6587499D01*
X-2928992Y-6414245D01*
X-2979528Y-6247649D01*
X-3061595Y-6094113D01*
X-3172038Y-5959538D01*
X-3306613Y-5849095D01*
X-3460149Y-5767028D01*
X-3626745Y-5716492D01*
X-3688000Y-5710459D01*
X-3688000Y-5178920D01*
X-3660149Y-5170472D01*
X-3506613Y-5088405D01*
X-3372038Y-4977962D01*
X-3261595Y-4843387D01*
X-3179528Y-4689851D01*
X-3128992Y-4523255D01*
X-3111928Y-4350001D01*
X-3111928Y-3649999D01*
X-3128992Y-3476745D01*
X-3179528Y-3310149D01*
X-3261595Y-3156613D01*
X-3328276Y-3075363D01*
X-3298815Y-3051185D01*
X-3219463Y-2954494D01*
X-3160498Y-2844180D01*
X-3124188Y-2724482D01*
X-3111928Y-2600000D01*
X-3115000Y-2285750D01*
X-3273750Y-2127000D01*
X-4323000Y-2127000D01*
X-4323000Y-2147000D01*
X-4577000Y-2147000D01*
X-4577000Y-2127000D01*
X-5626250Y-2127000D01*
X-5785000Y-2285750D01*
X-5788072Y-2600000D01*
X-5775812Y-2724482D01*
X-5739502Y-2844180D01*
X-5680537Y-2954494D01*
X-5601185Y-3051185D01*
X-5571724Y-3075363D01*
X-5638405Y-3156613D01*
X-5720472Y-3310149D01*
X-5771008Y-3476745D01*
X-5788072Y-3649999D01*
X-5788072Y-4350001D01*
X-5771008Y-4523255D01*
X-5720472Y-4689851D01*
X-5638405Y-4843387D01*
X-5527962Y-4977962D01*
X-5393387Y-5088405D01*
X-5239851Y-5170472D01*
X-5211999Y-5178921D01*
X-5212000Y-5710459D01*
X-5273255Y-5716492D01*
X-5439851Y-5767028D01*
X-5593387Y-5849095D01*
X-5727962Y-5959538D01*
X-5838405Y-6094113D01*
X-5920472Y-6247649D01*
X-5971008Y-6414245D01*
X-5988072Y-6587499D01*
X-5988072Y-7256990D01*
X-6711928Y-7256990D01*
X-6711928Y-6649999D01*
X-6728992Y-6476745D01*
X-6779528Y-6310149D01*
X-6861595Y-6156613D01*
X-6972038Y-6022038D01*
X-7106613Y-5911595D01*
X-7260149Y-5829528D01*
X-7286437Y-5821554D01*
X-7284314Y-5799999D01*
X-7291772Y-5724275D01*
X-7299026Y-5650622D01*
X-7342598Y-5506985D01*
X-7413355Y-5374608D01*
X-7508578Y-5258578D01*
X-7537647Y-5234722D01*
X-9209716Y-3562654D01*
X-9233578Y-3533578D01*
X-9349608Y-3438355D01*
X-9481985Y-3367598D01*
X-9625622Y-3324026D01*
X-9737574Y-3313000D01*
X-9737577Y-3313000D01*
X-9775000Y-3309314D01*
X-9812423Y-3313000D01*
X-9999775Y-3313000D01*
X-10036595Y-3244114D01*
X-10147038Y-3109538D01*
X-10234817Y-3037500D01*
X-10147038Y-2965462D01*
X-10036595Y-2830886D01*
X-9954528Y-2677350D01*
X-9903992Y-2510754D01*
X-9886928Y-2337500D01*
X-9886928Y-1662500D01*
X-9903992Y-1489246D01*
X-9931064Y-1400000D01*
X-5788072Y-1400000D01*
X-5785000Y-1714250D01*
X-5626250Y-1873000D01*
X-4577000Y-1873000D01*
X-4577000Y-923750D01*
X-4323000Y-923750D01*
X-4323000Y-1873000D01*
X-3273750Y-1873000D01*
X-3115000Y-1714250D01*
X-3111928Y-1400000D01*
X-3124188Y-1275518D01*
X-3160498Y-1155820D01*
X-3219463Y-1045506D01*
X-3298815Y-948815D01*
X-3395506Y-869463D01*
X-3505820Y-810498D01*
X-3625518Y-774188D01*
X-3750000Y-761928D01*
X-4164250Y-765000D01*
X-4323000Y-923750D01*
X-4577000Y-923750D01*
X-4735750Y-765000D01*
X-5150000Y-761928D01*
X-5274482Y-774188D01*
X-5394180Y-810498D01*
X-5504494Y-869463D01*
X-5601185Y-948815D01*
X-5680537Y-1045506D01*
X-5739502Y-1155820D01*
X-5775812Y-1275518D01*
X-5788072Y-1400000D01*
X-9931064Y-1400000D01*
X-9954528Y-1322650D01*
X-10036595Y-1169114D01*
X-10147038Y-1034538D01*
X-10281614Y-924095D01*
X-10435150Y-842028D01*
X-10601746Y-791492D01*
X-10775000Y-774428D01*
X-11725000Y-774428D01*
X-11898254Y-791492D01*
X-12064850Y-842028D01*
X-12218386Y-924095D01*
X-12352962Y-1034538D01*
X-12463405Y-1169114D01*
X-12498343Y-1234478D01*
X-12500001Y-1234315D01*
X-12537417Y-1238000D01*
X-12537426Y-1238000D01*
X-12649378Y-1249026D01*
X-12793015Y-1292598D01*
X-12925392Y-1363355D01*
X-13041422Y-1458578D01*
X-13065279Y-1487649D01*
X-13213336Y-1635705D01*
X-13228992Y-1476745D01*
X-13279528Y-1310149D01*
X-13361595Y-1156613D01*
X-13472038Y-1022038D01*
X-13606613Y-911595D01*
X-13760149Y-829528D01*
X-13926745Y-778992D01*
X-14099999Y-761928D01*
X-15000001Y-761928D01*
X-15173255Y-778992D01*
X-15339851Y-829528D01*
X-15493387Y-911595D01*
X-15627962Y-1022038D01*
X-15738405Y-1156613D01*
X-15781907Y-1238000D01*
X-20957699Y-1238000D01*
X-20995115Y-1234315D01*
X-21032531Y-1238000D01*
X-21032540Y-1238000D01*
X-21144492Y-1249026D01*
X-21288129Y-1292598D01*
X-21345706Y-1323374D01*
X-21349188Y-1288018D01*
X-21385498Y-1168320D01*
X-21444463Y-1058006D01*
X-21523815Y-961315D01*
X-21620506Y-881963D01*
X-21730820Y-822998D01*
X-21850518Y-786688D01*
X-21975000Y-774428D01*
X-22414250Y-777500D01*
X-22573000Y-936250D01*
X-22573000Y-1873000D01*
X-22553000Y-1873000D01*
X-22553000Y-2127000D01*
X-22573000Y-2127000D01*
X-22573000Y-2147000D01*
X-22827000Y-2147000D01*
X-22827000Y-2127000D01*
X-23901250Y-2127000D01*
X-24031240Y-2256990D01*
X-24593760Y-2256990D01*
X-24723750Y-2127000D01*
X-25773000Y-2127000D01*
X-25773000Y-2147000D01*
X-26027000Y-2147000D01*
X-26027000Y-2127000D01*
X-27076250Y-2127000D01*
X-27235000Y-2285750D01*
X-27237757Y-2567741D01*
X-27612350Y-2942334D01*
X-27641421Y-2966192D01*
X-27665278Y-2995262D01*
X-27665279Y-2995263D01*
X-27736645Y-3082222D01*
X-27807401Y-3214599D01*
X-27850973Y-3358236D01*
X-27865686Y-3507614D01*
X-27861999Y-3545047D01*
X-27861999Y-3649277D01*
X-27878992Y-3476745D01*
X-27929528Y-3310149D01*
X-28011595Y-3156613D01*
X-28078276Y-3075363D01*
X-28048815Y-3051185D01*
X-27969463Y-2954494D01*
X-27910498Y-2844180D01*
X-27874188Y-2724482D01*
X-27861928Y-2600000D01*
X-27865000Y-2285750D01*
X-28023750Y-2127000D01*
X-29073000Y-2127000D01*
X-29073000Y-2147000D01*
X-29327000Y-2147000D01*
X-29327000Y-2127000D01*
X-30376250Y-2127000D01*
X-30535000Y-2285750D01*
X-30538072Y-2600000D01*
X-30525812Y-2724482D01*
X-30494428Y-2827941D01*
X-31922369Y-1400000D01*
X-30538072Y-1400000D01*
X-30535000Y-1714250D01*
X-30376250Y-1873000D01*
X-29327000Y-1873000D01*
X-29327000Y-923750D01*
X-29073000Y-923750D01*
X-29073000Y-1873000D01*
X-28023750Y-1873000D01*
X-27865000Y-1714250D01*
X-27861928Y-1400000D01*
X-27238072Y-1400000D01*
X-27235000Y-1714250D01*
X-27076250Y-1873000D01*
X-26027000Y-1873000D01*
X-26027000Y-923750D01*
X-25773000Y-923750D01*
X-25773000Y-1873000D01*
X-24723750Y-1873000D01*
X-24565000Y-1714250D01*
X-24562051Y-1412500D01*
X-24063072Y-1412500D01*
X-24060000Y-1714250D01*
X-23901250Y-1873000D01*
X-22827000Y-1873000D01*
X-22827000Y-936250D01*
X-22985750Y-777500D01*
X-23425000Y-774428D01*
X-23549482Y-786688D01*
X-23669180Y-822998D01*
X-23779494Y-881963D01*
X-23876185Y-961315D01*
X-23955537Y-1058006D01*
X-24014502Y-1168320D01*
X-24050812Y-1288018D01*
X-24063072Y-1412500D01*
X-24562051Y-1412500D01*
X-24561928Y-1400000D01*
X-24574188Y-1275518D01*
X-24610498Y-1155820D01*
X-24669463Y-1045506D01*
X-24748815Y-948815D01*
X-24845506Y-869463D01*
X-24955820Y-810498D01*
X-25075518Y-774188D01*
X-25200000Y-761928D01*
X-25614250Y-765000D01*
X-25773000Y-923750D01*
X-26027000Y-923750D01*
X-26185750Y-765000D01*
X-26600000Y-761928D01*
X-26724482Y-774188D01*
X-26844180Y-810498D01*
X-26954494Y-869463D01*
X-27051185Y-948815D01*
X-27130537Y-1045506D01*
X-27189502Y-1155820D01*
X-27225812Y-1275518D01*
X-27238072Y-1400000D01*
X-27861928Y-1400000D01*
X-27874188Y-1275518D01*
X-27910498Y-1155820D01*
X-27969463Y-1045506D01*
X-28048815Y-948815D01*
X-28145506Y-869463D01*
X-28255820Y-810498D01*
X-28375518Y-774188D01*
X-28500000Y-761928D01*
X-28914250Y-765000D01*
X-29073000Y-923750D01*
X-29327000Y-923750D01*
X-29485750Y-765000D01*
X-29900000Y-761928D01*
X-30024482Y-774188D01*
X-30144180Y-810498D01*
X-30254494Y-869463D01*
X-30351185Y-948815D01*
X-30430537Y-1045506D01*
X-30489502Y-1155820D01*
X-30525812Y-1275518D01*
X-30538072Y-1400000D01*
X-31922369Y-1400000D01*
X-31934716Y-1387654D01*
X-31958578Y-1358578D01*
X-32074608Y-1263355D01*
X-32206985Y-1192598D01*
X-32350622Y-1149026D01*
X-32462574Y-1138000D01*
X-32462577Y-1138000D01*
X-32500000Y-1134314D01*
X-32537423Y-1138000D01*
X-35978185Y-1138000D01*
X-36015608Y-1134314D01*
X-36053031Y-1138000D01*
X-36053034Y-1138000D01*
X-36164986Y-1149026D01*
X-36308623Y-1192598D01*
X-36318920Y-1198102D01*
X-36441001Y-1263355D01*
X-36523704Y-1331228D01*
X-36557030Y-1358578D01*
X-36580887Y-1387648D01*
X-38238000Y-3044762D01*
X-38238000Y-2201711D01*
X-38196063Y-2159774D01*
X-38082795Y-1990256D01*
X-38004774Y-1801898D01*
X-37965000Y-1601939D01*
X-37965000Y-1398061D01*
X-38004774Y-1198102D01*
X-38082795Y-1009744D01*
X-38196063Y-840226D01*
X-38340226Y-696063D01*
X-38509744Y-582795D01*
X-38698102Y-504774D01*
X-38898061Y-465000D01*
X-39101939Y-465000D01*
X-39301898Y-504774D01*
X-39490256Y-582795D01*
X-39659774Y-696063D01*
X-39803937Y-840226D01*
X-39917205Y-1009744D01*
X-39995226Y-1198102D01*
X-40007931Y-1261976D01*
X-40050622Y-1249026D01*
X-40162574Y-1238000D01*
X-40162577Y-1238000D01*
X-40200000Y-1234314D01*
X-40237423Y-1238000D01*
X-45662585Y-1238000D01*
X-45700001Y-1234315D01*
X-45737417Y-1238000D01*
X-45737426Y-1238000D01*
X-45849378Y-1249026D01*
X-45993015Y-1292598D01*
X-46125392Y-1363355D01*
X-46241422Y-1458578D01*
X-46265280Y-1487649D01*
X-46715630Y-1938000D01*
X-65562578Y-1938000D01*
X-65600001Y-1934314D01*
X-65637424Y-1938000D01*
X-65637426Y-1938000D01*
X-65749378Y-1949026D01*
X-65893015Y-1992598D01*
X-66025392Y-2063355D01*
X-66141422Y-2158578D01*
X-66165279Y-2187649D01*
X-66542631Y-2565000D01*
X-66601939Y-2565000D01*
X-66801898Y-2604774D01*
X-66990256Y-2682795D01*
X-67159774Y-2796063D01*
X-67303937Y-2940226D01*
X-67417205Y-3109744D01*
X-67495226Y-3298102D01*
X-67535000Y-3498061D01*
X-67535000Y-3701939D01*
X-67495226Y-3901898D01*
X-67417205Y-4090256D01*
X-67303937Y-4259774D01*
X-67159774Y-4403937D01*
X-66990256Y-4517205D01*
X-66801898Y-4595226D01*
X-66601939Y-4635000D01*
X-66398061Y-4635000D01*
X-66198102Y-4595226D01*
X-66009744Y-4517205D01*
X-65840226Y-4403937D01*
X-65700000Y-4263711D01*
X-65559774Y-4403937D01*
X-65390256Y-4517205D01*
X-65201898Y-4595226D01*
X-65001939Y-4635000D01*
X-64798061Y-4635000D01*
X-64598102Y-4595226D01*
X-64409744Y-4517205D01*
X-64240226Y-4403937D01*
X-64198289Y-4362000D01*
X-58727831Y-4362000D01*
X-58735004Y-4398061D01*
X-58735004Y-4601939D01*
X-58695230Y-4801898D01*
X-58617209Y-4990256D01*
X-58503941Y-5159774D01*
X-58359778Y-5303937D01*
X-58190260Y-5417205D01*
X-58001902Y-5495226D01*
X-57801943Y-5535000D01*
X-57598065Y-5535000D01*
X-57398106Y-5495226D01*
X-57209748Y-5417205D01*
X-57040230Y-5303937D01*
X-56998293Y-5262000D01*
X-48527841Y-5262000D01*
X-48535014Y-5298061D01*
X-48535014Y-5501939D01*
X-48495240Y-5701898D01*
X-48417219Y-5890256D01*
X-48303951Y-6059774D01*
X-48159788Y-6203937D01*
X-47990270Y-6317205D01*
X-47801912Y-6395226D01*
X-47601953Y-6435000D01*
X-47398075Y-6435000D01*
X-47198116Y-6395226D01*
X-47009758Y-6317205D01*
X-46840240Y-6203937D01*
X-46798303Y-6162000D01*
X-43888072Y-6162000D01*
X-43888072Y-6675000D01*
X-43873410Y-6823868D01*
X-43829987Y-6967015D01*
X-43759471Y-7098940D01*
X-43664573Y-7214573D01*
X-43548940Y-7309471D01*
X-43417015Y-7379987D01*
X-43273868Y-7423410D01*
X-43125000Y-7438072D01*
X-42875000Y-7438072D01*
X-42726132Y-7423410D01*
X-42600000Y-7385148D01*
X-42473868Y-7423410D01*
X-42325000Y-7438072D01*
X-42075000Y-7438072D01*
X-42070163Y-7437596D01*
X-42095226Y-7498102D01*
X-42135000Y-7698061D01*
X-42135000Y-7901939D01*
X-42095226Y-8101898D01*
X-42017205Y-8290256D01*
X-41910466Y-8450003D01*
X-42017201Y-8609744D01*
X-42095222Y-8798102D01*
X-42134996Y-8998061D01*
X-42134996Y-9201939D01*
X-42095222Y-9401898D01*
X-42017201Y-9590256D01*
X-41903933Y-9759774D01*
X-41881512Y-9782195D01*
X-41891121Y-9791803D01*
X-42004389Y-9961321D01*
X-42082410Y-10149679D01*
X-42122184Y-10349638D01*
X-42122184Y-10553516D01*
X-42082410Y-10753475D01*
X-42004389Y-10941833D01*
X-41891121Y-11111351D01*
X-41746958Y-11255514D01*
X-41577440Y-11368782D01*
X-41389082Y-11446803D01*
X-41339289Y-11456707D01*
X-39088996Y-13707000D01*
X-39088995Y-15653769D01*
X-42840501Y-11902264D01*
X-42868341Y-11868341D01*
X-43003709Y-11757247D01*
X-43158149Y-11674697D01*
X-43325726Y-11623864D01*
X-43456333Y-11611000D01*
X-43456340Y-11611000D01*
X-43500000Y-11606700D01*
X-43543660Y-11611000D01*
X-44065000Y-11611000D01*
X-44065000Y-11572998D01*
X-44219748Y-11572998D01*
X-44065000Y-11418250D01*
X-44075366Y-11319739D01*
X-44098476Y-11246015D01*
X-44076590Y-11173868D01*
X-44061928Y-11025000D01*
X-44061928Y-10775000D01*
X-44076590Y-10626132D01*
X-44114852Y-10500000D01*
X-44076590Y-10373868D01*
X-44061928Y-10225000D01*
X-44061928Y-9975000D01*
X-44076590Y-9826132D01*
X-44114852Y-9700000D01*
X-44076590Y-9573868D01*
X-44061928Y-9425000D01*
X-44061928Y-9175000D01*
X-44076590Y-9026132D01*
X-44114852Y-8900000D01*
X-44076590Y-8773868D01*
X-44061928Y-8625000D01*
X-44061928Y-8375000D01*
X-44076590Y-8226132D01*
X-44120013Y-8082985D01*
X-44190529Y-7951060D01*
X-44285427Y-7835427D01*
X-44401060Y-7740529D01*
X-44532985Y-7670013D01*
X-44676132Y-7626590D01*
X-44825000Y-7611928D01*
X-47375000Y-7611928D01*
X-47523868Y-7626590D01*
X-47667015Y-7670013D01*
X-47794209Y-7738000D01*
X-49554484Y-7738000D01*
X-49643030Y-7649454D01*
X-49636928Y-7587500D01*
X-49640000Y-7285750D01*
X-49798750Y-7127000D01*
X-50873000Y-7127000D01*
X-50873000Y-7147000D01*
X-51127000Y-7147000D01*
X-51127000Y-7127000D01*
X-52201250Y-7127000D01*
X-52331240Y-7256990D01*
X-52868760Y-7256990D01*
X-52998750Y-7127000D01*
X-54073000Y-7127000D01*
X-54073000Y-7147000D01*
X-54327000Y-7147000D01*
X-54327000Y-7127000D01*
X-55401250Y-7127000D01*
X-55531240Y-7256990D01*
X-56193760Y-7256990D01*
X-56323750Y-7127000D01*
X-57373000Y-7127000D01*
X-57373000Y-7147000D01*
X-57627000Y-7147000D01*
X-57627000Y-7127000D01*
X-58676250Y-7127000D01*
X-58806240Y-7256990D01*
X-59468760Y-7256990D01*
X-59598750Y-7127000D01*
X-60673000Y-7127000D01*
X-60673000Y-7147000D01*
X-60927000Y-7147000D01*
X-60927000Y-7127000D01*
X-62001250Y-7127000D01*
X-62131240Y-7256990D01*
X-62768760Y-7256990D01*
X-62898750Y-7127000D01*
X-63973000Y-7127000D01*
X-63973000Y-7147000D01*
X-64227000Y-7147000D01*
X-64227000Y-7127000D01*
X-65301250Y-7127000D01*
X-65431240Y-7256990D01*
X-66093760Y-7256990D01*
X-66223750Y-7127000D01*
X-67273000Y-7127000D01*
X-67273000Y-7147000D01*
X-67527000Y-7147000D01*
X-67527000Y-7127000D01*
X-68576250Y-7127000D01*
X-68735000Y-7285750D01*
X-68737757Y-7567740D01*
X-69447166Y-8277150D01*
X-69511595Y-8156613D01*
X-69578276Y-8075363D01*
X-69548815Y-8051185D01*
X-69469463Y-7954494D01*
X-69410498Y-7844180D01*
X-69374188Y-7724482D01*
X-69361928Y-7600000D01*
X-69365000Y-7285750D01*
X-69523750Y-7127000D01*
X-70573000Y-7127000D01*
X-70573000Y-7147000D01*
X-70827000Y-7147000D01*
X-70827000Y-7127000D01*
X-71876250Y-7127000D01*
X-72035000Y-7285750D01*
X-72038072Y-7600000D01*
X-72025812Y-7724482D01*
X-71989502Y-7844180D01*
X-71930537Y-7954494D01*
X-71851185Y-8051185D01*
X-71821724Y-8075363D01*
X-71888405Y-8156613D01*
X-71970472Y-8310149D01*
X-72021008Y-8476745D01*
X-72038072Y-8649999D01*
X-72038072Y-9260442D01*
X-72712351Y-9934721D01*
X-72741421Y-9958578D01*
X-72765278Y-9987648D01*
X-72765279Y-9987649D01*
X-72836645Y-10074608D01*
X-72907401Y-10206985D01*
X-72950973Y-10350622D01*
X-72965686Y-10500000D01*
X-72961999Y-10537433D01*
X-72962000Y-12562576D01*
X-72965686Y-12600000D01*
X-72962000Y-12637423D01*
X-72962000Y-12637425D01*
X-72950974Y-12749377D01*
X-72907402Y-12893014D01*
X-72890095Y-12925393D01*
X-72836645Y-13025392D01*
X-72815477Y-13051185D01*
X-72741422Y-13141422D01*
X-72712346Y-13165284D01*
X-72365284Y-13512346D01*
X-72341422Y-13541422D01*
X-72225392Y-13636645D01*
X-72093015Y-13707402D01*
X-72061062Y-13717095D01*
X-72063072Y-13737500D01*
X-72063072Y-14185441D01*
X-72712351Y-14834721D01*
X-72741421Y-14858578D01*
X-72765278Y-14887648D01*
X-72765279Y-14887649D01*
X-72836645Y-14974608D01*
X-72907401Y-15106985D01*
X-72950973Y-15250622D01*
X-72965686Y-15400000D01*
X-72961999Y-15437433D01*
X-72962000Y-17762577D01*
X-72965686Y-17800000D01*
X-72962000Y-17837423D01*
X-72962000Y-17837425D01*
X-72950974Y-17949377D01*
X-72907402Y-18093014D01*
X-72886746Y-18131659D01*
X-72836645Y-18225392D01*
X-72805489Y-18263355D01*
X-72741422Y-18341422D01*
X-72712346Y-18365284D01*
X-72038072Y-19039559D01*
X-72038072Y-19350001D01*
X-72021008Y-19523255D01*
X-71970472Y-19689851D01*
X-71888405Y-19843387D01*
X-71777962Y-19977962D01*
X-71643387Y-20088405D01*
X-71489851Y-20170472D01*
X-71323255Y-20221008D01*
X-71150001Y-20238072D01*
X-70539558Y-20238072D01*
X-68165280Y-22612351D01*
X-68141422Y-22641422D01*
X-68025392Y-22736645D01*
X-67893015Y-22807402D01*
X-67749378Y-22850974D01*
X-67637426Y-22862000D01*
X-67637424Y-22862000D01*
X-67600001Y-22865686D01*
X-67562578Y-22862000D01*
X-56515630Y-22862000D01*
X-53565279Y-25812352D01*
X-53541422Y-25841422D01*
X-53425392Y-25936645D01*
X-53293015Y-26007402D01*
X-53149378Y-26050974D01*
X-53037426Y-26062000D01*
X-53037424Y-26062000D01*
X-53000001Y-26065686D01*
X-52962578Y-26062000D01*
X-37937423Y-26062000D01*
X-37900000Y-26065686D01*
X-37862577Y-26062000D01*
X-37862574Y-26062000D01*
X-37750622Y-26050974D01*
X-37606985Y-26007402D01*
X-37474608Y-25936645D01*
X-37358578Y-25841422D01*
X-37334716Y-25812346D01*
X-36355479Y-24833109D01*
X-30371481Y-24833109D01*
X-30250814Y-25063000D01*
X-29057000Y-25063000D01*
X-29057000Y-23869845D01*
X-29286890Y-23748524D01*
X-29434099Y-23793175D01*
X-29696920Y-23918359D01*
X-29930269Y-24092412D01*
X-30125178Y-24308645D01*
X-30274157Y-24558748D01*
X-30371481Y-24833109D01*
X-36355479Y-24833109D01*
X-34487647Y-22965278D01*
X-34458578Y-22941422D01*
X-34363355Y-22825392D01*
X-34292598Y-22693015D01*
X-34249026Y-22549378D01*
X-34238064Y-22438072D01*
X-34075000Y-22438072D01*
X-33926132Y-22423410D01*
X-33782985Y-22379987D01*
X-33651060Y-22309471D01*
X-33535427Y-22214573D01*
X-33440529Y-22098940D01*
X-33370013Y-21967015D01*
X-33326590Y-21823868D01*
X-33311928Y-21675000D01*
X-33311928Y-21162000D01*
X-32437423Y-21162000D01*
X-32400000Y-21165686D01*
X-32362577Y-21162000D01*
X-32362574Y-21162000D01*
X-32250622Y-21150974D01*
X-32197963Y-21135000D01*
X-31998061Y-21135000D01*
X-31798102Y-21095226D01*
X-31609744Y-21017205D01*
X-31440226Y-20903937D01*
X-31296063Y-20759774D01*
X-31182795Y-20590256D01*
X-31104774Y-20401898D01*
X-31065000Y-20201939D01*
X-31065000Y-19998061D01*
X-31104774Y-19798102D01*
X-31182795Y-19609744D01*
X-31296063Y-19440226D01*
X-31440226Y-19296063D01*
X-31609744Y-19182795D01*
X-31798102Y-19104774D01*
X-31998061Y-19065000D01*
X-32201939Y-19065000D01*
X-32401898Y-19104774D01*
X-32590256Y-19182795D01*
X-32759774Y-19296063D01*
X-32903937Y-19440226D01*
X-33017205Y-19609744D01*
X-33028909Y-19638000D01*
X-33311928Y-19638000D01*
X-33311928Y-19125000D01*
X-33326111Y-18980998D01*
X-28596632Y-18980998D01*
X-24612000Y-22965631D01*
X-24612000Y-23913158D01*
X-24796632Y-24036525D01*
X-25003475Y-24243368D01*
X-25120000Y-24417760D01*
X-25236525Y-24243368D01*
X-25443368Y-24036525D01*
X-25686589Y-23874010D01*
X-25956842Y-23762068D01*
X-26243740Y-23705000D01*
X-26536260Y-23705000D01*
X-26823158Y-23762068D01*
X-27093411Y-23874010D01*
X-27336632Y-24036525D01*
X-27543475Y-24243368D01*
X-27665195Y-24425534D01*
X-27734822Y-24308645D01*
X-27929731Y-24092412D01*
X-28163080Y-23918359D01*
X-28425901Y-23793175D01*
X-28573110Y-23748524D01*
X-28803000Y-23869845D01*
X-28803000Y-25063000D01*
X-28783000Y-25063000D01*
X-28783000Y-25317000D01*
X-28803000Y-25317000D01*
X-28803000Y-25337000D01*
X-29057000Y-25337000D01*
X-29057000Y-25317000D01*
X-30250814Y-25317000D01*
X-30371481Y-25546891D01*
X-30274157Y-25821252D01*
X-30125178Y-26071355D01*
X-29930269Y-26287588D01*
X-29893518Y-26315000D01*
X-60974893Y-26315000D01*
X-60796525Y-26136632D01*
X-60634010Y-25893411D01*
X-60522068Y-25623158D01*
X-60465000Y-25336260D01*
X-60465000Y-25043740D01*
X-60522068Y-24756842D01*
X-60634010Y-24486589D01*
X-60796525Y-24243368D01*
X-61003368Y-24036525D01*
X-61246589Y-23874010D01*
X-61516842Y-23762068D01*
X-61803740Y-23705000D01*
X-62096260Y-23705000D01*
X-62383158Y-23762068D01*
X-62653411Y-23874010D01*
X-62896632Y-24036525D01*
X-63103475Y-24243368D01*
X-63220000Y-24417760D01*
X-63336525Y-24243368D01*
X-63543368Y-24036525D01*
X-63786589Y-23874010D01*
X-64056842Y-23762068D01*
X-64343740Y-23705000D01*
X-64636260Y-23705000D01*
X-64923158Y-23762068D01*
X-65193411Y-23874010D01*
X-65436632Y-24036525D01*
X-65643475Y-24243368D01*
X-65760000Y-24417760D01*
X-65876525Y-24243368D01*
X-66083368Y-24036525D01*
X-66326589Y-23874010D01*
X-66596842Y-23762068D01*
X-66883740Y-23705000D01*
X-67176260Y-23705000D01*
X-67463158Y-23762068D01*
X-67733411Y-23874010D01*
X-67976632Y-24036525D01*
X-68108487Y-24168380D01*
X-68130498Y-24095820D01*
X-68189463Y-23985506D01*
X-68268815Y-23888815D01*
X-68365506Y-23809463D01*
X-68475820Y-23750498D01*
X-68595518Y-23714188D01*
X-68720000Y-23701928D01*
X-69284250Y-23705000D01*
X-69443000Y-23863750D01*
X-69443000Y-25063000D01*
X-69423000Y-25063000D01*
X-69423000Y-25317000D01*
X-69443000Y-25317000D01*
X-69443000Y-25337000D01*
X-69697000Y-25337000D01*
X-69697000Y-25317000D01*
X-70896250Y-25317000D01*
X-71055000Y-25475750D01*
X-71058072Y-26040000D01*
X-71045812Y-26164482D01*
X-71009502Y-26284180D01*
X-70993028Y-26315000D01*
X-75315000Y-26315000D01*
X-75315000Y-24340000D01*
X-71058072Y-24340000D01*
X-71055000Y-24904250D01*
X-70896250Y-25063000D01*
X-69697000Y-25063000D01*
X-69697000Y-23863750D01*
X-69855750Y-23705000D01*
X-70420000Y-23701928D01*
X-70544482Y-23714188D01*
X-70664180Y-23750498D01*
X-70774494Y-23809463D01*
X-70871185Y-23888815D01*
X-70950537Y-23985506D01*
X-71009502Y-24095820D01*
X-71045812Y-24215518D01*
X-71058072Y-24340000D01*
X-75315000Y-24340000D01*
X-75315000Y-6400000D01*
X-72038072Y-6400000D01*
X-72035000Y-6714250D01*
X-71876250Y-6873000D01*
X-70827000Y-6873000D01*
X-70827000Y-5923750D01*
X-70573000Y-5923750D01*
X-70573000Y-6873000D01*
X-69523750Y-6873000D01*
X-69365000Y-6714250D01*
X-69361928Y-6400000D01*
X-68738072Y-6400000D01*
X-68735000Y-6714250D01*
X-68576250Y-6873000D01*
X-67527000Y-6873000D01*
X-67527000Y-5923750D01*
X-67273000Y-5923750D01*
X-67273000Y-6873000D01*
X-66223750Y-6873000D01*
X-66065000Y-6714250D01*
X-66062051Y-6412500D01*
X-65463072Y-6412500D01*
X-65460000Y-6714250D01*
X-65301250Y-6873000D01*
X-64227000Y-6873000D01*
X-64227000Y-5936250D01*
X-63973000Y-5936250D01*
X-63973000Y-6873000D01*
X-62898750Y-6873000D01*
X-62740000Y-6714250D01*
X-62736928Y-6412500D01*
X-62163072Y-6412500D01*
X-62160000Y-6714250D01*
X-62001250Y-6873000D01*
X-60927000Y-6873000D01*
X-60927000Y-5936250D01*
X-60673000Y-5936250D01*
X-60673000Y-6873000D01*
X-59598750Y-6873000D01*
X-59440000Y-6714250D01*
X-59436928Y-6412500D01*
X-59438159Y-6400000D01*
X-58838072Y-6400000D01*
X-58835000Y-6714250D01*
X-58676250Y-6873000D01*
X-57627000Y-6873000D01*
X-57627000Y-5923750D01*
X-57373000Y-5923750D01*
X-57373000Y-6873000D01*
X-56323750Y-6873000D01*
X-56165000Y-6714250D01*
X-56162051Y-6412500D01*
X-55563072Y-6412500D01*
X-55560000Y-6714250D01*
X-55401250Y-6873000D01*
X-54327000Y-6873000D01*
X-54327000Y-5936250D01*
X-54073000Y-5936250D01*
X-54073000Y-6873000D01*
X-52998750Y-6873000D01*
X-52840000Y-6714250D01*
X-52836928Y-6412500D01*
X-52363072Y-6412500D01*
X-52360000Y-6714250D01*
X-52201250Y-6873000D01*
X-51127000Y-6873000D01*
X-51127000Y-5936250D01*
X-50873000Y-5936250D01*
X-50873000Y-6873000D01*
X-49798750Y-6873000D01*
X-49640000Y-6714250D01*
X-49636928Y-6412500D01*
X-49649188Y-6288018D01*
X-49685498Y-6168320D01*
X-49744463Y-6058006D01*
X-49823815Y-5961315D01*
X-49920506Y-5881963D01*
X-50030820Y-5822998D01*
X-50150518Y-5786688D01*
X-50275000Y-5774428D01*
X-50714250Y-5777500D01*
X-50873000Y-5936250D01*
X-51127000Y-5936250D01*
X-51285750Y-5777500D01*
X-51725000Y-5774428D01*
X-51849482Y-5786688D01*
X-51969180Y-5822998D01*
X-52079494Y-5881963D01*
X-52176185Y-5961315D01*
X-52255537Y-6058006D01*
X-52314502Y-6168320D01*
X-52350812Y-6288018D01*
X-52363072Y-6412500D01*
X-52836928Y-6412500D01*
X-52849188Y-6288018D01*
X-52885498Y-6168320D01*
X-52944463Y-6058006D01*
X-53023815Y-5961315D01*
X-53120506Y-5881963D01*
X-53230820Y-5822998D01*
X-53350518Y-5786688D01*
X-53475000Y-5774428D01*
X-53914250Y-5777500D01*
X-54073000Y-5936250D01*
X-54327000Y-5936250D01*
X-54485750Y-5777500D01*
X-54925000Y-5774428D01*
X-55049482Y-5786688D01*
X-55169180Y-5822998D01*
X-55279494Y-5881963D01*
X-55376185Y-5961315D01*
X-55455537Y-6058006D01*
X-55514502Y-6168320D01*
X-55550812Y-6288018D01*
X-55563072Y-6412500D01*
X-56162051Y-6412500D01*
X-56161928Y-6400000D01*
X-56174188Y-6275518D01*
X-56210498Y-6155820D01*
X-56269463Y-6045506D01*
X-56348815Y-5948815D01*
X-56445506Y-5869463D01*
X-56555820Y-5810498D01*
X-56675518Y-5774188D01*
X-56800000Y-5761928D01*
X-57214250Y-5765000D01*
X-57373000Y-5923750D01*
X-57627000Y-5923750D01*
X-57785750Y-5765000D01*
X-58200000Y-5761928D01*
X-58324482Y-5774188D01*
X-58444180Y-5810498D01*
X-58554494Y-5869463D01*
X-58651185Y-5948815D01*
X-58730537Y-6045506D01*
X-58789502Y-6155820D01*
X-58825812Y-6275518D01*
X-58838072Y-6400000D01*
X-59438159Y-6400000D01*
X-59449188Y-6288018D01*
X-59485498Y-6168320D01*
X-59544463Y-6058006D01*
X-59623815Y-5961315D01*
X-59720506Y-5881963D01*
X-59830820Y-5822998D01*
X-59950518Y-5786688D01*
X-60075000Y-5774428D01*
X-60514250Y-5777500D01*
X-60673000Y-5936250D01*
X-60927000Y-5936250D01*
X-61085750Y-5777500D01*
X-61525000Y-5774428D01*
X-61649482Y-5786688D01*
X-61769180Y-5822998D01*
X-61879494Y-5881963D01*
X-61976185Y-5961315D01*
X-62055537Y-6058006D01*
X-62114502Y-6168320D01*
X-62150812Y-6288018D01*
X-62163072Y-6412500D01*
X-62736928Y-6412500D01*
X-62749188Y-6288018D01*
X-62785498Y-6168320D01*
X-62844463Y-6058006D01*
X-62923815Y-5961315D01*
X-63020506Y-5881963D01*
X-63130820Y-5822998D01*
X-63250518Y-5786688D01*
X-63375000Y-5774428D01*
X-63814250Y-5777500D01*
X-63973000Y-5936250D01*
X-64227000Y-5936250D01*
X-64385750Y-5777500D01*
X-64825000Y-5774428D01*
X-64949482Y-5786688D01*
X-65069180Y-5822998D01*
X-65179494Y-5881963D01*
X-65276185Y-5961315D01*
X-65355537Y-6058006D01*
X-65414502Y-6168320D01*
X-65450812Y-6288018D01*
X-65463072Y-6412500D01*
X-66062051Y-6412500D01*
X-66061928Y-6400000D01*
X-66074188Y-6275518D01*
X-66110498Y-6155820D01*
X-66169463Y-6045506D01*
X-66248815Y-5948815D01*
X-66345506Y-5869463D01*
X-66455820Y-5810498D01*
X-66575518Y-5774188D01*
X-66700000Y-5761928D01*
X-67114250Y-5765000D01*
X-67273000Y-5923750D01*
X-67527000Y-5923750D01*
X-67685750Y-5765000D01*
X-68100000Y-5761928D01*
X-68224482Y-5774188D01*
X-68344180Y-5810498D01*
X-68454494Y-5869463D01*
X-68551185Y-5948815D01*
X-68630537Y-6045506D01*
X-68689502Y-6155820D01*
X-68725812Y-6275518D01*
X-68738072Y-6400000D01*
X-69361928Y-6400000D01*
X-69374188Y-6275518D01*
X-69410498Y-6155820D01*
X-69469463Y-6045506D01*
X-69548815Y-5948815D01*
X-69645506Y-5869463D01*
X-69755820Y-5810498D01*
X-69875518Y-5774188D01*
X-70000000Y-5761928D01*
X-70414250Y-5765000D01*
X-70573000Y-5923750D01*
X-70827000Y-5923750D01*
X-70985750Y-5765000D01*
X-71400000Y-5761928D01*
X-71524482Y-5774188D01*
X-71644180Y-5810498D01*
X-71754494Y-5869463D01*
X-71851185Y-5948815D01*
X-71930537Y-6045506D01*
X-71989502Y-6155820D01*
X-72025812Y-6275518D01*
X-72038072Y-6400000D01*
X-75315000Y-6400000D01*
X-75315000Y315000D01*
X-685000Y315000D01*
X-684999Y-26315000D01*
%TA.AperFunction,Conductor*%
D17*
G36*
X-684999Y-26315000D02*
G01*
X-2566482Y-26315000D01*
X-2529731Y-26287588D01*
X-2334822Y-26071355D01*
X-2185843Y-25821252D01*
X-2088519Y-25546891D01*
X-2209186Y-25317000D01*
X-3403000Y-25317000D01*
X-3403000Y-25337000D01*
X-3657000Y-25337000D01*
X-3657000Y-25317000D01*
X-3677000Y-25317000D01*
X-3677000Y-25063000D01*
X-3657000Y-25063000D01*
X-3657000Y-23869845D01*
X-3403000Y-23869845D01*
X-3403000Y-25063000D01*
X-2209186Y-25063000D01*
X-2088519Y-24833109D01*
X-2185843Y-24558748D01*
X-2334822Y-24308645D01*
X-2529731Y-24092412D01*
X-2763080Y-23918359D01*
X-3025901Y-23793175D01*
X-3173110Y-23748524D01*
X-3403000Y-23869845D01*
X-3657000Y-23869845D01*
X-3886890Y-23748524D01*
X-4034099Y-23793175D01*
X-4296920Y-23918359D01*
X-4530269Y-24092412D01*
X-4725178Y-24308645D01*
X-4794805Y-24425534D01*
X-4916525Y-24243368D01*
X-5123368Y-24036525D01*
X-5366589Y-23874010D01*
X-5636842Y-23762068D01*
X-5923740Y-23705000D01*
X-6216260Y-23705000D01*
X-6503158Y-23762068D01*
X-6773411Y-23874010D01*
X-7016632Y-24036525D01*
X-7223475Y-24243368D01*
X-7340000Y-24417760D01*
X-7456525Y-24243368D01*
X-7663368Y-24036525D01*
X-7906589Y-23874010D01*
X-7961731Y-23851170D01*
X-7879734Y-23817205D01*
X-7710216Y-23703937D01*
X-7566053Y-23559774D01*
X-7452785Y-23390256D01*
X-7374764Y-23201898D01*
X-7334990Y-23001939D01*
X-7334990Y-22798061D01*
X-7374764Y-22598102D01*
X-7452785Y-22409744D01*
X-7566053Y-22240226D01*
X-7710216Y-22096063D01*
X-7879734Y-21982795D01*
X-8068092Y-21904774D01*
X-8268051Y-21865000D01*
X-8471929Y-21865000D01*
X-8671888Y-21904774D01*
X-8860246Y-21982795D01*
X-9029764Y-22096063D01*
X-9071701Y-22138000D01*
X-15098289Y-22138000D01*
X-15140226Y-22096063D01*
X-15309744Y-21982795D01*
X-15498102Y-21904774D01*
X-15698061Y-21865000D01*
X-15901939Y-21865000D01*
X-16101898Y-21904774D01*
X-16290256Y-21982795D01*
X-16459774Y-22096063D01*
X-16603937Y-22240226D01*
X-16717205Y-22409744D01*
X-16795226Y-22598102D01*
X-16835000Y-22798061D01*
X-16835000Y-23001939D01*
X-16795226Y-23201898D01*
X-16717205Y-23390256D01*
X-16603937Y-23559774D01*
X-16459774Y-23703937D01*
X-16439390Y-23717557D01*
X-16663158Y-23762068D01*
X-16933411Y-23874010D01*
X-17176632Y-24036525D01*
X-17383475Y-24243368D01*
X-17500000Y-24417760D01*
X-17616525Y-24243368D01*
X-17823368Y-24036525D01*
X-18066589Y-23874010D01*
X-18336842Y-23762068D01*
X-18623740Y-23705000D01*
X-18916260Y-23705000D01*
X-19203158Y-23762068D01*
X-19473411Y-23874010D01*
X-19716632Y-24036525D01*
X-19923475Y-24243368D01*
X-20045195Y-24425534D01*
X-20114822Y-24308645D01*
X-20309731Y-24092412D01*
X-20543080Y-23918359D01*
X-20805901Y-23793175D01*
X-20953110Y-23748524D01*
X-21183000Y-23869845D01*
X-21183000Y-25063000D01*
X-21163000Y-25063000D01*
X-21163000Y-25317000D01*
X-21183000Y-25317000D01*
X-21183000Y-25337000D01*
X-21437000Y-25337000D01*
X-21437000Y-25317000D01*
X-21457000Y-25317000D01*
X-21457000Y-25063000D01*
X-21437000Y-25063000D01*
X-21437000Y-23869845D01*
X-21666890Y-23748524D01*
X-21814099Y-23793175D01*
X-22076920Y-23918359D01*
X-22310269Y-24092412D01*
X-22505178Y-24308645D01*
X-22574805Y-24425534D01*
X-22696525Y-24243368D01*
X-22903368Y-24036525D01*
X-23088000Y-23913158D01*
X-23088000Y-22687422D01*
X-23084314Y-22649999D01*
X-23088022Y-22612351D01*
X-23099026Y-22500622D01*
X-23142598Y-22356985D01*
X-23213355Y-22224608D01*
X-23308578Y-22108578D01*
X-23337647Y-22084722D01*
X-24260369Y-21162000D01*
X-23037423Y-21162000D01*
X-23000000Y-21165686D01*
X-22962577Y-21162000D01*
X-22962574Y-21162000D01*
X-22850622Y-21150974D01*
X-22706985Y-21107402D01*
X-22574608Y-21036645D01*
X-22458578Y-20941422D01*
X-22434716Y-20912346D01*
X-22309870Y-20787500D01*
X-12788072Y-20787500D01*
X-12775812Y-20911982D01*
X-12739502Y-21031680D01*
X-12680537Y-21141994D01*
X-12601185Y-21238685D01*
X-12504494Y-21318037D01*
X-12394180Y-21377002D01*
X-12274482Y-21413312D01*
X-12150000Y-21425572D01*
X-11535750Y-21422500D01*
X-11377000Y-21263750D01*
X-11377000Y-20252000D01*
X-11123000Y-20252000D01*
X-11123000Y-21263750D01*
X-10964250Y-21422500D01*
X-10350000Y-21425572D01*
X-10225518Y-21413312D01*
X-10105820Y-21377002D01*
X-9995506Y-21318037D01*
X-9898815Y-21238685D01*
X-9819463Y-21141994D01*
X-9760498Y-21031680D01*
X-9724188Y-20911982D01*
X-9711928Y-20787500D01*
X-9715000Y-20410750D01*
X-9873750Y-20252000D01*
X-11123000Y-20252000D01*
X-11377000Y-20252000D01*
X-12626250Y-20252000D01*
X-12785000Y-20410750D01*
X-12788072Y-20787500D01*
X-22309870Y-20787500D01*
X-20688072Y-19165703D01*
X-20688072Y-19350001D01*
X-20671008Y-19523255D01*
X-20620472Y-19689851D01*
X-20538405Y-19843387D01*
X-20427962Y-19977962D01*
X-20293387Y-20088405D01*
X-20139851Y-20170472D01*
X-19973255Y-20221008D01*
X-19800001Y-20238072D01*
X-18899999Y-20238072D01*
X-18726745Y-20221008D01*
X-18560149Y-20170472D01*
X-18406613Y-20088405D01*
X-18272038Y-19977962D01*
X-18161595Y-19843387D01*
X-18118093Y-19762000D01*
X-12785630Y-19762000D01*
X-12785000Y-19839250D01*
X-12626250Y-19998000D01*
X-11377000Y-19998000D01*
X-11377000Y-19978000D01*
X-11123000Y-19978000D01*
X-11123000Y-19998000D01*
X-9873750Y-19998000D01*
X-9715000Y-19839250D01*
X-9713705Y-19680393D01*
X-9631858Y-19636645D01*
X-9515828Y-19541422D01*
X-9491966Y-19512346D01*
X-9181622Y-19202002D01*
X-9051252Y-19202002D01*
X-9210000Y-19360750D01*
X-9213072Y-19662500D01*
X-9200812Y-19786982D01*
X-9164502Y-19906680D01*
X-9105537Y-20016994D01*
X-9026185Y-20113685D01*
X-8929494Y-20193037D01*
X-8819180Y-20252002D01*
X-8699482Y-20288312D01*
X-8575000Y-20300572D01*
X-8135750Y-20297500D01*
X-7977000Y-20138750D01*
X-7977000Y-19202000D01*
X-7723000Y-19202000D01*
X-7723000Y-20138750D01*
X-7564250Y-20297500D01*
X-7125000Y-20300572D01*
X-7000518Y-20288312D01*
X-6880820Y-20252002D01*
X-6770506Y-20193037D01*
X-6673815Y-20113685D01*
X-6594463Y-20016994D01*
X-6535498Y-19906680D01*
X-6499188Y-19786982D01*
X-6486928Y-19662500D01*
X-6490000Y-19360750D01*
X-6648750Y-19202000D01*
X-7723000Y-19202000D01*
X-7977000Y-19202000D01*
X-7997000Y-19202000D01*
X-7997000Y-18948000D01*
X-7977000Y-18948000D01*
X-7977000Y-18928000D01*
X-7723000Y-18928000D01*
X-7723000Y-18948000D01*
X-6648750Y-18948000D01*
X-6490000Y-18789250D01*
X-6486928Y-18487500D01*
X-6499188Y-18363018D01*
X-6535498Y-18243320D01*
X-6594463Y-18133006D01*
X-6673815Y-18036315D01*
X-6753594Y-17970842D01*
X-6747038Y-17965462D01*
X-6636595Y-17830886D01*
X-6554528Y-17677350D01*
X-6503992Y-17510754D01*
X-6486928Y-17337500D01*
X-6486928Y-16662500D01*
X-6503992Y-16489246D01*
X-6554528Y-16322650D01*
X-6636595Y-16169114D01*
X-6747038Y-16034538D01*
X-6881614Y-15924095D01*
X-7035150Y-15842028D01*
X-7088000Y-15825996D01*
X-7088000Y-15178920D01*
X-7060149Y-15170472D01*
X-6906613Y-15088405D01*
X-6772038Y-14977962D01*
X-6661595Y-14843387D01*
X-6579528Y-14689851D01*
X-6528992Y-14523255D01*
X-6511928Y-14350001D01*
X-6511928Y-13649999D01*
X-6528992Y-13476745D01*
X-6579528Y-13310149D01*
X-6661595Y-13156613D01*
X-6772038Y-13022038D01*
X-6798891Y-13000000D01*
X-6772038Y-12977962D01*
X-6661595Y-12843387D01*
X-6579528Y-12689851D01*
X-6528992Y-12523255D01*
X-6511928Y-12350001D01*
X-6511928Y-11649999D01*
X-6528992Y-11476745D01*
X-6579528Y-11310149D01*
X-6661595Y-11156613D01*
X-6772038Y-11022038D01*
X-6906613Y-10911595D01*
X-6950414Y-10888183D01*
X-6925001Y-10890686D01*
X-6887578Y-10887000D01*
X-5915314Y-10887000D01*
X-5838405Y-11030887D01*
X-5727962Y-11165462D01*
X-5593387Y-11275905D01*
X-5439851Y-11357972D01*
X-5273255Y-11408508D01*
X-5100001Y-11425572D01*
X-3799999Y-11425572D01*
X-3626745Y-11408508D01*
X-3460149Y-11357972D01*
X-3306613Y-11275905D01*
X-3172038Y-11165462D01*
X-3061595Y-11030887D01*
X-2979528Y-10877351D01*
X-2928992Y-10710755D01*
X-2911928Y-10537501D01*
X-2911928Y-9712499D01*
X-2928992Y-9539245D01*
X-2979528Y-9372649D01*
X-3061595Y-9219113D01*
X-3172038Y-9084538D01*
X-3306613Y-8974095D01*
X-3460149Y-8892028D01*
X-3626745Y-8841492D01*
X-3799999Y-8824428D01*
X-5100001Y-8824428D01*
X-5273255Y-8841492D01*
X-5439851Y-8892028D01*
X-5593387Y-8974095D01*
X-5727962Y-9084538D01*
X-5838405Y-9219113D01*
X-5915314Y-9363000D01*
X-6609369Y-9363000D01*
X-6711928Y-9260441D01*
X-6711928Y-8780990D01*
X-5506413Y-8780990D01*
X-5468990Y-8784676D01*
X-5431567Y-8780990D01*
X-5431564Y-8780990D01*
X-5319612Y-8769964D01*
X-5175975Y-8726392D01*
X-5043598Y-8655635D01*
X-4927568Y-8560412D01*
X-4903706Y-8531336D01*
X-4672942Y-8300572D01*
X-3799999Y-8300572D01*
X-3626745Y-8283508D01*
X-3460149Y-8232972D01*
X-3306613Y-8150905D01*
X-3172038Y-8040462D01*
X-3061595Y-7905887D01*
X-2979528Y-7752351D01*
X-2928992Y-7585755D01*
X-2911928Y-7412501D01*
X-2911928Y-6587499D01*
X-2928992Y-6414245D01*
X-2979528Y-6247649D01*
X-3061595Y-6094113D01*
X-3172038Y-5959538D01*
X-3306613Y-5849095D01*
X-3460149Y-5767028D01*
X-3626745Y-5716492D01*
X-3688000Y-5710459D01*
X-3688000Y-5178920D01*
X-3660149Y-5170472D01*
X-3506613Y-5088405D01*
X-3372038Y-4977962D01*
X-3261595Y-4843387D01*
X-3179528Y-4689851D01*
X-3128992Y-4523255D01*
X-3111928Y-4350001D01*
X-3111928Y-3649999D01*
X-3128992Y-3476745D01*
X-3179528Y-3310149D01*
X-3261595Y-3156613D01*
X-3328276Y-3075363D01*
X-3298815Y-3051185D01*
X-3219463Y-2954494D01*
X-3160498Y-2844180D01*
X-3124188Y-2724482D01*
X-3111928Y-2600000D01*
X-3115000Y-2285750D01*
X-3273750Y-2127000D01*
X-4323000Y-2127000D01*
X-4323000Y-2147000D01*
X-4577000Y-2147000D01*
X-4577000Y-2127000D01*
X-5626250Y-2127000D01*
X-5785000Y-2285750D01*
X-5788072Y-2600000D01*
X-5775812Y-2724482D01*
X-5739502Y-2844180D01*
X-5680537Y-2954494D01*
X-5601185Y-3051185D01*
X-5571724Y-3075363D01*
X-5638405Y-3156613D01*
X-5720472Y-3310149D01*
X-5771008Y-3476745D01*
X-5788072Y-3649999D01*
X-5788072Y-4350001D01*
X-5771008Y-4523255D01*
X-5720472Y-4689851D01*
X-5638405Y-4843387D01*
X-5527962Y-4977962D01*
X-5393387Y-5088405D01*
X-5239851Y-5170472D01*
X-5211999Y-5178921D01*
X-5212000Y-5710459D01*
X-5273255Y-5716492D01*
X-5439851Y-5767028D01*
X-5593387Y-5849095D01*
X-5727962Y-5959538D01*
X-5838405Y-6094113D01*
X-5920472Y-6247649D01*
X-5971008Y-6414245D01*
X-5988072Y-6587499D01*
X-5988072Y-7256990D01*
X-6711928Y-7256990D01*
X-6711928Y-6649999D01*
X-6728992Y-6476745D01*
X-6779528Y-6310149D01*
X-6861595Y-6156613D01*
X-6972038Y-6022038D01*
X-7106613Y-5911595D01*
X-7260149Y-5829528D01*
X-7286437Y-5821554D01*
X-7284314Y-5799999D01*
X-7291772Y-5724275D01*
X-7299026Y-5650622D01*
X-7342598Y-5506985D01*
X-7413355Y-5374608D01*
X-7508578Y-5258578D01*
X-7537647Y-5234722D01*
X-9209716Y-3562654D01*
X-9233578Y-3533578D01*
X-9349608Y-3438355D01*
X-9481985Y-3367598D01*
X-9625622Y-3324026D01*
X-9737574Y-3313000D01*
X-9737577Y-3313000D01*
X-9775000Y-3309314D01*
X-9812423Y-3313000D01*
X-9999775Y-3313000D01*
X-10036595Y-3244114D01*
X-10147038Y-3109538D01*
X-10234817Y-3037500D01*
X-10147038Y-2965462D01*
X-10036595Y-2830886D01*
X-9954528Y-2677350D01*
X-9903992Y-2510754D01*
X-9886928Y-2337500D01*
X-9886928Y-1662500D01*
X-9903992Y-1489246D01*
X-9931064Y-1400000D01*
X-5788072Y-1400000D01*
X-5785000Y-1714250D01*
X-5626250Y-1873000D01*
X-4577000Y-1873000D01*
X-4577000Y-923750D01*
X-4323000Y-923750D01*
X-4323000Y-1873000D01*
X-3273750Y-1873000D01*
X-3115000Y-1714250D01*
X-3111928Y-1400000D01*
X-3124188Y-1275518D01*
X-3160498Y-1155820D01*
X-3219463Y-1045506D01*
X-3298815Y-948815D01*
X-3395506Y-869463D01*
X-3505820Y-810498D01*
X-3625518Y-774188D01*
X-3750000Y-761928D01*
X-4164250Y-765000D01*
X-4323000Y-923750D01*
X-4577000Y-923750D01*
X-4735750Y-765000D01*
X-5150000Y-761928D01*
X-5274482Y-774188D01*
X-5394180Y-810498D01*
X-5504494Y-869463D01*
X-5601185Y-948815D01*
X-5680537Y-1045506D01*
X-5739502Y-1155820D01*
X-5775812Y-1275518D01*
X-5788072Y-1400000D01*
X-9931064Y-1400000D01*
X-9954528Y-1322650D01*
X-10036595Y-1169114D01*
X-10147038Y-1034538D01*
X-10281614Y-924095D01*
X-10435150Y-842028D01*
X-10601746Y-791492D01*
X-10775000Y-774428D01*
X-11725000Y-774428D01*
X-11898254Y-791492D01*
X-12064850Y-842028D01*
X-12218386Y-924095D01*
X-12352962Y-1034538D01*
X-12463405Y-1169114D01*
X-12498343Y-1234478D01*
X-12500001Y-1234315D01*
X-12537417Y-1238000D01*
X-12537426Y-1238000D01*
X-12649378Y-1249026D01*
X-12793015Y-1292598D01*
X-12925392Y-1363355D01*
X-13041422Y-1458578D01*
X-13065279Y-1487649D01*
X-13213336Y-1635705D01*
X-13228992Y-1476745D01*
X-13279528Y-1310149D01*
X-13361595Y-1156613D01*
X-13472038Y-1022038D01*
X-13606613Y-911595D01*
X-13760149Y-829528D01*
X-13926745Y-778992D01*
X-14099999Y-761928D01*
X-15000001Y-761928D01*
X-15173255Y-778992D01*
X-15339851Y-829528D01*
X-15493387Y-911595D01*
X-15627962Y-1022038D01*
X-15738405Y-1156613D01*
X-15781907Y-1238000D01*
X-20957699Y-1238000D01*
X-20995115Y-1234315D01*
X-21032531Y-1238000D01*
X-21032540Y-1238000D01*
X-21144492Y-1249026D01*
X-21288129Y-1292598D01*
X-21345706Y-1323374D01*
X-21349188Y-1288018D01*
X-21385498Y-1168320D01*
X-21444463Y-1058006D01*
X-21523815Y-961315D01*
X-21620506Y-881963D01*
X-21730820Y-822998D01*
X-21850518Y-786688D01*
X-21975000Y-774428D01*
X-22414250Y-777500D01*
X-22573000Y-936250D01*
X-22573000Y-1873000D01*
X-22553000Y-1873000D01*
X-22553000Y-2127000D01*
X-22573000Y-2127000D01*
X-22573000Y-2147000D01*
X-22827000Y-2147000D01*
X-22827000Y-2127000D01*
X-23901250Y-2127000D01*
X-24031240Y-2256990D01*
X-24593760Y-2256990D01*
X-24723750Y-2127000D01*
X-25773000Y-2127000D01*
X-25773000Y-2147000D01*
X-26027000Y-2147000D01*
X-26027000Y-2127000D01*
X-27076250Y-2127000D01*
X-27235000Y-2285750D01*
X-27237757Y-2567741D01*
X-27612350Y-2942334D01*
X-27641421Y-2966192D01*
X-27665278Y-2995262D01*
X-27665279Y-2995263D01*
X-27736645Y-3082222D01*
X-27807401Y-3214599D01*
X-27850973Y-3358236D01*
X-27865686Y-3507614D01*
X-27861999Y-3545047D01*
X-27861999Y-3649277D01*
X-27878992Y-3476745D01*
X-27929528Y-3310149D01*
X-28011595Y-3156613D01*
X-28078276Y-3075363D01*
X-28048815Y-3051185D01*
X-27969463Y-2954494D01*
X-27910498Y-2844180D01*
X-27874188Y-2724482D01*
X-27861928Y-2600000D01*
X-27865000Y-2285750D01*
X-28023750Y-2127000D01*
X-29073000Y-2127000D01*
X-29073000Y-2147000D01*
X-29327000Y-2147000D01*
X-29327000Y-2127000D01*
X-30376250Y-2127000D01*
X-30535000Y-2285750D01*
X-30538072Y-2600000D01*
X-30525812Y-2724482D01*
X-30494428Y-2827941D01*
X-31922369Y-1400000D01*
X-30538072Y-1400000D01*
X-30535000Y-1714250D01*
X-30376250Y-1873000D01*
X-29327000Y-1873000D01*
X-29327000Y-923750D01*
X-29073000Y-923750D01*
X-29073000Y-1873000D01*
X-28023750Y-1873000D01*
X-27865000Y-1714250D01*
X-27861928Y-1400000D01*
X-27238072Y-1400000D01*
X-27235000Y-1714250D01*
X-27076250Y-1873000D01*
X-26027000Y-1873000D01*
X-26027000Y-923750D01*
X-25773000Y-923750D01*
X-25773000Y-1873000D01*
X-24723750Y-1873000D01*
X-24565000Y-1714250D01*
X-24562051Y-1412500D01*
X-24063072Y-1412500D01*
X-24060000Y-1714250D01*
X-23901250Y-1873000D01*
X-22827000Y-1873000D01*
X-22827000Y-936250D01*
X-22985750Y-777500D01*
X-23425000Y-774428D01*
X-23549482Y-786688D01*
X-23669180Y-822998D01*
X-23779494Y-881963D01*
X-23876185Y-961315D01*
X-23955537Y-1058006D01*
X-24014502Y-1168320D01*
X-24050812Y-1288018D01*
X-24063072Y-1412500D01*
X-24562051Y-1412500D01*
X-24561928Y-1400000D01*
X-24574188Y-1275518D01*
X-24610498Y-1155820D01*
X-24669463Y-1045506D01*
X-24748815Y-948815D01*
X-24845506Y-869463D01*
X-24955820Y-810498D01*
X-25075518Y-774188D01*
X-25200000Y-761928D01*
X-25614250Y-765000D01*
X-25773000Y-923750D01*
X-26027000Y-923750D01*
X-26185750Y-765000D01*
X-26600000Y-761928D01*
X-26724482Y-774188D01*
X-26844180Y-810498D01*
X-26954494Y-869463D01*
X-27051185Y-948815D01*
X-27130537Y-1045506D01*
X-27189502Y-1155820D01*
X-27225812Y-1275518D01*
X-27238072Y-1400000D01*
X-27861928Y-1400000D01*
X-27874188Y-1275518D01*
X-27910498Y-1155820D01*
X-27969463Y-1045506D01*
X-28048815Y-948815D01*
X-28145506Y-869463D01*
X-28255820Y-810498D01*
X-28375518Y-774188D01*
X-28500000Y-761928D01*
X-28914250Y-765000D01*
X-29073000Y-923750D01*
X-29327000Y-923750D01*
X-29485750Y-765000D01*
X-29900000Y-761928D01*
X-30024482Y-774188D01*
X-30144180Y-810498D01*
X-30254494Y-869463D01*
X-30351185Y-948815D01*
X-30430537Y-1045506D01*
X-30489502Y-1155820D01*
X-30525812Y-1275518D01*
X-30538072Y-1400000D01*
X-31922369Y-1400000D01*
X-31934716Y-1387654D01*
X-31958578Y-1358578D01*
X-32074608Y-1263355D01*
X-32206985Y-1192598D01*
X-32350622Y-1149026D01*
X-32462574Y-1138000D01*
X-32462577Y-1138000D01*
X-32500000Y-1134314D01*
X-32537423Y-1138000D01*
X-35978185Y-1138000D01*
X-36015608Y-1134314D01*
X-36053031Y-1138000D01*
X-36053034Y-1138000D01*
X-36164986Y-1149026D01*
X-36308623Y-1192598D01*
X-36318920Y-1198102D01*
X-36441001Y-1263355D01*
X-36523704Y-1331228D01*
X-36557030Y-1358578D01*
X-36580887Y-1387648D01*
X-38238000Y-3044762D01*
X-38238000Y-2201711D01*
X-38196063Y-2159774D01*
X-38082795Y-1990256D01*
X-38004774Y-1801898D01*
X-37965000Y-1601939D01*
X-37965000Y-1398061D01*
X-38004774Y-1198102D01*
X-38082795Y-1009744D01*
X-38196063Y-840226D01*
X-38340226Y-696063D01*
X-38509744Y-582795D01*
X-38698102Y-504774D01*
X-38898061Y-465000D01*
X-39101939Y-465000D01*
X-39301898Y-504774D01*
X-39490256Y-582795D01*
X-39659774Y-696063D01*
X-39803937Y-840226D01*
X-39917205Y-1009744D01*
X-39995226Y-1198102D01*
X-40007931Y-1261976D01*
X-40050622Y-1249026D01*
X-40162574Y-1238000D01*
X-40162577Y-1238000D01*
X-40200000Y-1234314D01*
X-40237423Y-1238000D01*
X-45662585Y-1238000D01*
X-45700001Y-1234315D01*
X-45737417Y-1238000D01*
X-45737426Y-1238000D01*
X-45849378Y-1249026D01*
X-45993015Y-1292598D01*
X-46125392Y-1363355D01*
X-46241422Y-1458578D01*
X-46265280Y-1487649D01*
X-46715630Y-1938000D01*
X-65562578Y-1938000D01*
X-65600001Y-1934314D01*
X-65637424Y-1938000D01*
X-65637426Y-1938000D01*
X-65749378Y-1949026D01*
X-65893015Y-1992598D01*
X-66025392Y-2063355D01*
X-66141422Y-2158578D01*
X-66165279Y-2187649D01*
X-66542631Y-2565000D01*
X-66601939Y-2565000D01*
X-66801898Y-2604774D01*
X-66990256Y-2682795D01*
X-67159774Y-2796063D01*
X-67303937Y-2940226D01*
X-67417205Y-3109744D01*
X-67495226Y-3298102D01*
X-67535000Y-3498061D01*
X-67535000Y-3701939D01*
X-67495226Y-3901898D01*
X-67417205Y-4090256D01*
X-67303937Y-4259774D01*
X-67159774Y-4403937D01*
X-66990256Y-4517205D01*
X-66801898Y-4595226D01*
X-66601939Y-4635000D01*
X-66398061Y-4635000D01*
X-66198102Y-4595226D01*
X-66009744Y-4517205D01*
X-65840226Y-4403937D01*
X-65700000Y-4263711D01*
X-65559774Y-4403937D01*
X-65390256Y-4517205D01*
X-65201898Y-4595226D01*
X-65001939Y-4635000D01*
X-64798061Y-4635000D01*
X-64598102Y-4595226D01*
X-64409744Y-4517205D01*
X-64240226Y-4403937D01*
X-64198289Y-4362000D01*
X-58727831Y-4362000D01*
X-58735004Y-4398061D01*
X-58735004Y-4601939D01*
X-58695230Y-4801898D01*
X-58617209Y-4990256D01*
X-58503941Y-5159774D01*
X-58359778Y-5303937D01*
X-58190260Y-5417205D01*
X-58001902Y-5495226D01*
X-57801943Y-5535000D01*
X-57598065Y-5535000D01*
X-57398106Y-5495226D01*
X-57209748Y-5417205D01*
X-57040230Y-5303937D01*
X-56998293Y-5262000D01*
X-48527841Y-5262000D01*
X-48535014Y-5298061D01*
X-48535014Y-5501939D01*
X-48495240Y-5701898D01*
X-48417219Y-5890256D01*
X-48303951Y-6059774D01*
X-48159788Y-6203937D01*
X-47990270Y-6317205D01*
X-47801912Y-6395226D01*
X-47601953Y-6435000D01*
X-47398075Y-6435000D01*
X-47198116Y-6395226D01*
X-47009758Y-6317205D01*
X-46840240Y-6203937D01*
X-46798303Y-6162000D01*
X-43888072Y-6162000D01*
X-43888072Y-6675000D01*
X-43873410Y-6823868D01*
X-43829987Y-6967015D01*
X-43759471Y-7098940D01*
X-43664573Y-7214573D01*
X-43548940Y-7309471D01*
X-43417015Y-7379987D01*
X-43273868Y-7423410D01*
X-43125000Y-7438072D01*
X-42875000Y-7438072D01*
X-42726132Y-7423410D01*
X-42600000Y-7385148D01*
X-42473868Y-7423410D01*
X-42325000Y-7438072D01*
X-42075000Y-7438072D01*
X-42070163Y-7437596D01*
X-42095226Y-7498102D01*
X-42135000Y-7698061D01*
X-42135000Y-7901939D01*
X-42095226Y-8101898D01*
X-42017205Y-8290256D01*
X-41910466Y-8450003D01*
X-42017201Y-8609744D01*
X-42095222Y-8798102D01*
X-42134996Y-8998061D01*
X-42134996Y-9201939D01*
X-42095222Y-9401898D01*
X-42017201Y-9590256D01*
X-41903933Y-9759774D01*
X-41881512Y-9782195D01*
X-41891121Y-9791803D01*
X-42004389Y-9961321D01*
X-42082410Y-10149679D01*
X-42122184Y-10349638D01*
X-42122184Y-10553516D01*
X-42082410Y-10753475D01*
X-42004389Y-10941833D01*
X-41891121Y-11111351D01*
X-41746958Y-11255514D01*
X-41577440Y-11368782D01*
X-41389082Y-11446803D01*
X-41339289Y-11456707D01*
X-39088996Y-13707000D01*
X-39088995Y-15653769D01*
X-42840501Y-11902264D01*
X-42868341Y-11868341D01*
X-43003709Y-11757247D01*
X-43158149Y-11674697D01*
X-43325726Y-11623864D01*
X-43456333Y-11611000D01*
X-43456340Y-11611000D01*
X-43500000Y-11606700D01*
X-43543660Y-11611000D01*
X-44065000Y-11611000D01*
X-44065000Y-11572998D01*
X-44219748Y-11572998D01*
X-44065000Y-11418250D01*
X-44075366Y-11319739D01*
X-44098476Y-11246015D01*
X-44076590Y-11173868D01*
X-44061928Y-11025000D01*
X-44061928Y-10775000D01*
X-44076590Y-10626132D01*
X-44114852Y-10500000D01*
X-44076590Y-10373868D01*
X-44061928Y-10225000D01*
X-44061928Y-9975000D01*
X-44076590Y-9826132D01*
X-44114852Y-9700000D01*
X-44076590Y-9573868D01*
X-44061928Y-9425000D01*
X-44061928Y-9175000D01*
X-44076590Y-9026132D01*
X-44114852Y-8900000D01*
X-44076590Y-8773868D01*
X-44061928Y-8625000D01*
X-44061928Y-8375000D01*
X-44076590Y-8226132D01*
X-44120013Y-8082985D01*
X-44190529Y-7951060D01*
X-44285427Y-7835427D01*
X-44401060Y-7740529D01*
X-44532985Y-7670013D01*
X-44676132Y-7626590D01*
X-44825000Y-7611928D01*
X-47375000Y-7611928D01*
X-47523868Y-7626590D01*
X-47667015Y-7670013D01*
X-47794209Y-7738000D01*
X-49554484Y-7738000D01*
X-49643030Y-7649454D01*
X-49636928Y-7587500D01*
X-49640000Y-7285750D01*
X-49798750Y-7127000D01*
X-50873000Y-7127000D01*
X-50873000Y-7147000D01*
X-51127000Y-7147000D01*
X-51127000Y-7127000D01*
X-52201250Y-7127000D01*
X-52331240Y-7256990D01*
X-52868760Y-7256990D01*
X-52998750Y-7127000D01*
X-54073000Y-7127000D01*
X-54073000Y-7147000D01*
X-54327000Y-7147000D01*
X-54327000Y-7127000D01*
X-55401250Y-7127000D01*
X-55531240Y-7256990D01*
X-56193760Y-7256990D01*
X-56323750Y-7127000D01*
X-57373000Y-7127000D01*
X-57373000Y-7147000D01*
X-57627000Y-7147000D01*
X-57627000Y-7127000D01*
X-58676250Y-7127000D01*
X-58806240Y-7256990D01*
X-59468760Y-7256990D01*
X-59598750Y-7127000D01*
X-60673000Y-7127000D01*
X-60673000Y-7147000D01*
X-60927000Y-7147000D01*
X-60927000Y-7127000D01*
X-62001250Y-7127000D01*
X-62131240Y-7256990D01*
X-62768760Y-7256990D01*
X-62898750Y-7127000D01*
X-63973000Y-7127000D01*
X-63973000Y-7147000D01*
X-64227000Y-7147000D01*
X-64227000Y-7127000D01*
X-65301250Y-7127000D01*
X-65431240Y-7256990D01*
X-66093760Y-7256990D01*
X-66223750Y-7127000D01*
X-67273000Y-7127000D01*
X-67273000Y-7147000D01*
X-67527000Y-7147000D01*
X-67527000Y-7127000D01*
X-68576250Y-7127000D01*
X-68735000Y-7285750D01*
X-68737757Y-7567740D01*
X-69447166Y-8277150D01*
X-69511595Y-8156613D01*
X-69578276Y-8075363D01*
X-69548815Y-8051185D01*
X-69469463Y-7954494D01*
X-69410498Y-7844180D01*
X-69374188Y-7724482D01*
X-69361928Y-7600000D01*
X-69365000Y-7285750D01*
X-69523750Y-7127000D01*
X-70573000Y-7127000D01*
X-70573000Y-7147000D01*
X-70827000Y-7147000D01*
X-70827000Y-7127000D01*
X-71876250Y-7127000D01*
X-72035000Y-7285750D01*
X-72038072Y-7600000D01*
X-72025812Y-7724482D01*
X-71989502Y-7844180D01*
X-71930537Y-7954494D01*
X-71851185Y-8051185D01*
X-71821724Y-8075363D01*
X-71888405Y-8156613D01*
X-71970472Y-8310149D01*
X-72021008Y-8476745D01*
X-72038072Y-8649999D01*
X-72038072Y-9260442D01*
X-72712351Y-9934721D01*
X-72741421Y-9958578D01*
X-72765278Y-9987648D01*
X-72765279Y-9987649D01*
X-72836645Y-10074608D01*
X-72907401Y-10206985D01*
X-72950973Y-10350622D01*
X-72965686Y-10500000D01*
X-72961999Y-10537433D01*
X-72962000Y-12562576D01*
X-72965686Y-12600000D01*
X-72962000Y-12637423D01*
X-72962000Y-12637425D01*
X-72950974Y-12749377D01*
X-72907402Y-12893014D01*
X-72890095Y-12925393D01*
X-72836645Y-13025392D01*
X-72815477Y-13051185D01*
X-72741422Y-13141422D01*
X-72712346Y-13165284D01*
X-72365284Y-13512346D01*
X-72341422Y-13541422D01*
X-72225392Y-13636645D01*
X-72093015Y-13707402D01*
X-72061062Y-13717095D01*
X-72063072Y-13737500D01*
X-72063072Y-14185441D01*
X-72712351Y-14834721D01*
X-72741421Y-14858578D01*
X-72765278Y-14887648D01*
X-72765279Y-14887649D01*
X-72836645Y-14974608D01*
X-72907401Y-15106985D01*
X-72950973Y-15250622D01*
X-72965686Y-15400000D01*
X-72961999Y-15437433D01*
X-72962000Y-17762577D01*
X-72965686Y-17800000D01*
X-72962000Y-17837423D01*
X-72962000Y-17837425D01*
X-72950974Y-17949377D01*
X-72907402Y-18093014D01*
X-72886746Y-18131659D01*
X-72836645Y-18225392D01*
X-72805489Y-18263355D01*
X-72741422Y-18341422D01*
X-72712346Y-18365284D01*
X-72038072Y-19039559D01*
X-72038072Y-19350001D01*
X-72021008Y-19523255D01*
X-71970472Y-19689851D01*
X-71888405Y-19843387D01*
X-71777962Y-19977962D01*
X-71643387Y-20088405D01*
X-71489851Y-20170472D01*
X-71323255Y-20221008D01*
X-71150001Y-20238072D01*
X-70539558Y-20238072D01*
X-68165280Y-22612351D01*
X-68141422Y-22641422D01*
X-68025392Y-22736645D01*
X-67893015Y-22807402D01*
X-67749378Y-22850974D01*
X-67637426Y-22862000D01*
X-67637424Y-22862000D01*
X-67600001Y-22865686D01*
X-67562578Y-22862000D01*
X-56515630Y-22862000D01*
X-53565279Y-25812352D01*
X-53541422Y-25841422D01*
X-53425392Y-25936645D01*
X-53293015Y-26007402D01*
X-53149378Y-26050974D01*
X-53037426Y-26062000D01*
X-53037424Y-26062000D01*
X-53000001Y-26065686D01*
X-52962578Y-26062000D01*
X-37937423Y-26062000D01*
X-37900000Y-26065686D01*
X-37862577Y-26062000D01*
X-37862574Y-26062000D01*
X-37750622Y-26050974D01*
X-37606985Y-26007402D01*
X-37474608Y-25936645D01*
X-37358578Y-25841422D01*
X-37334716Y-25812346D01*
X-36355479Y-24833109D01*
X-30371481Y-24833109D01*
X-30250814Y-25063000D01*
X-29057000Y-25063000D01*
X-29057000Y-23869845D01*
X-29286890Y-23748524D01*
X-29434099Y-23793175D01*
X-29696920Y-23918359D01*
X-29930269Y-24092412D01*
X-30125178Y-24308645D01*
X-30274157Y-24558748D01*
X-30371481Y-24833109D01*
X-36355479Y-24833109D01*
X-34487647Y-22965278D01*
X-34458578Y-22941422D01*
X-34363355Y-22825392D01*
X-34292598Y-22693015D01*
X-34249026Y-22549378D01*
X-34238064Y-22438072D01*
X-34075000Y-22438072D01*
X-33926132Y-22423410D01*
X-33782985Y-22379987D01*
X-33651060Y-22309471D01*
X-33535427Y-22214573D01*
X-33440529Y-22098940D01*
X-33370013Y-21967015D01*
X-33326590Y-21823868D01*
X-33311928Y-21675000D01*
X-33311928Y-21162000D01*
X-32437423Y-21162000D01*
X-32400000Y-21165686D01*
X-32362577Y-21162000D01*
X-32362574Y-21162000D01*
X-32250622Y-21150974D01*
X-32197963Y-21135000D01*
X-31998061Y-21135000D01*
X-31798102Y-21095226D01*
X-31609744Y-21017205D01*
X-31440226Y-20903937D01*
X-31296063Y-20759774D01*
X-31182795Y-20590256D01*
X-31104774Y-20401898D01*
X-31065000Y-20201939D01*
X-31065000Y-19998061D01*
X-31104774Y-19798102D01*
X-31182795Y-19609744D01*
X-31296063Y-19440226D01*
X-31440226Y-19296063D01*
X-31609744Y-19182795D01*
X-31798102Y-19104774D01*
X-31998061Y-19065000D01*
X-32201939Y-19065000D01*
X-32401898Y-19104774D01*
X-32590256Y-19182795D01*
X-32759774Y-19296063D01*
X-32903937Y-19440226D01*
X-33017205Y-19609744D01*
X-33028909Y-19638000D01*
X-33311928Y-19638000D01*
X-33311928Y-19125000D01*
X-33326111Y-18980998D01*
X-28596632Y-18980998D01*
X-24612000Y-22965631D01*
X-24612000Y-23913158D01*
X-24796632Y-24036525D01*
X-25003475Y-24243368D01*
X-25120000Y-24417760D01*
X-25236525Y-24243368D01*
X-25443368Y-24036525D01*
X-25686589Y-23874010D01*
X-25956842Y-23762068D01*
X-26243740Y-23705000D01*
X-26536260Y-23705000D01*
X-26823158Y-23762068D01*
X-27093411Y-23874010D01*
X-27336632Y-24036525D01*
X-27543475Y-24243368D01*
X-27665195Y-24425534D01*
X-27734822Y-24308645D01*
X-27929731Y-24092412D01*
X-28163080Y-23918359D01*
X-28425901Y-23793175D01*
X-28573110Y-23748524D01*
X-28803000Y-23869845D01*
X-28803000Y-25063000D01*
X-28783000Y-25063000D01*
X-28783000Y-25317000D01*
X-28803000Y-25317000D01*
X-28803000Y-25337000D01*
X-29057000Y-25337000D01*
X-29057000Y-25317000D01*
X-30250814Y-25317000D01*
X-30371481Y-25546891D01*
X-30274157Y-25821252D01*
X-30125178Y-26071355D01*
X-29930269Y-26287588D01*
X-29893518Y-26315000D01*
X-60974893Y-26315000D01*
X-60796525Y-26136632D01*
X-60634010Y-25893411D01*
X-60522068Y-25623158D01*
X-60465000Y-25336260D01*
X-60465000Y-25043740D01*
X-60522068Y-24756842D01*
X-60634010Y-24486589D01*
X-60796525Y-24243368D01*
X-61003368Y-24036525D01*
X-61246589Y-23874010D01*
X-61516842Y-23762068D01*
X-61803740Y-23705000D01*
X-62096260Y-23705000D01*
X-62383158Y-23762068D01*
X-62653411Y-23874010D01*
X-62896632Y-24036525D01*
X-63103475Y-24243368D01*
X-63220000Y-24417760D01*
X-63336525Y-24243368D01*
X-63543368Y-24036525D01*
X-63786589Y-23874010D01*
X-64056842Y-23762068D01*
X-64343740Y-23705000D01*
X-64636260Y-23705000D01*
X-64923158Y-23762068D01*
X-65193411Y-23874010D01*
X-65436632Y-24036525D01*
X-65643475Y-24243368D01*
X-65760000Y-24417760D01*
X-65876525Y-24243368D01*
X-66083368Y-24036525D01*
X-66326589Y-23874010D01*
X-66596842Y-23762068D01*
X-66883740Y-23705000D01*
X-67176260Y-23705000D01*
X-67463158Y-23762068D01*
X-67733411Y-23874010D01*
X-67976632Y-24036525D01*
X-68108487Y-24168380D01*
X-68130498Y-24095820D01*
X-68189463Y-23985506D01*
X-68268815Y-23888815D01*
X-68365506Y-23809463D01*
X-68475820Y-23750498D01*
X-68595518Y-23714188D01*
X-68720000Y-23701928D01*
X-69284250Y-23705000D01*
X-69443000Y-23863750D01*
X-69443000Y-25063000D01*
X-69423000Y-25063000D01*
X-69423000Y-25317000D01*
X-69443000Y-25317000D01*
X-69443000Y-25337000D01*
X-69697000Y-25337000D01*
X-69697000Y-25317000D01*
X-70896250Y-25317000D01*
X-71055000Y-25475750D01*
X-71058072Y-26040000D01*
X-71045812Y-26164482D01*
X-71009502Y-26284180D01*
X-70993028Y-26315000D01*
X-75315000Y-26315000D01*
X-75315000Y-24340000D01*
X-71058072Y-24340000D01*
X-71055000Y-24904250D01*
X-70896250Y-25063000D01*
X-69697000Y-25063000D01*
X-69697000Y-23863750D01*
X-69855750Y-23705000D01*
X-70420000Y-23701928D01*
X-70544482Y-23714188D01*
X-70664180Y-23750498D01*
X-70774494Y-23809463D01*
X-70871185Y-23888815D01*
X-70950537Y-23985506D01*
X-71009502Y-24095820D01*
X-71045812Y-24215518D01*
X-71058072Y-24340000D01*
X-75315000Y-24340000D01*
X-75315000Y-6400000D01*
X-72038072Y-6400000D01*
X-72035000Y-6714250D01*
X-71876250Y-6873000D01*
X-70827000Y-6873000D01*
X-70827000Y-5923750D01*
X-70573000Y-5923750D01*
X-70573000Y-6873000D01*
X-69523750Y-6873000D01*
X-69365000Y-6714250D01*
X-69361928Y-6400000D01*
X-68738072Y-6400000D01*
X-68735000Y-6714250D01*
X-68576250Y-6873000D01*
X-67527000Y-6873000D01*
X-67527000Y-5923750D01*
X-67273000Y-5923750D01*
X-67273000Y-6873000D01*
X-66223750Y-6873000D01*
X-66065000Y-6714250D01*
X-66062051Y-6412500D01*
X-65463072Y-6412500D01*
X-65460000Y-6714250D01*
X-65301250Y-6873000D01*
X-64227000Y-6873000D01*
X-64227000Y-5936250D01*
X-63973000Y-5936250D01*
X-63973000Y-6873000D01*
X-62898750Y-6873000D01*
X-62740000Y-6714250D01*
X-62736928Y-6412500D01*
X-62163072Y-6412500D01*
X-62160000Y-6714250D01*
X-62001250Y-6873000D01*
X-60927000Y-6873000D01*
X-60927000Y-5936250D01*
X-60673000Y-5936250D01*
X-60673000Y-6873000D01*
X-59598750Y-6873000D01*
X-59440000Y-6714250D01*
X-59436928Y-6412500D01*
X-59438159Y-6400000D01*
X-58838072Y-6400000D01*
X-58835000Y-6714250D01*
X-58676250Y-6873000D01*
X-57627000Y-6873000D01*
X-57627000Y-5923750D01*
X-57373000Y-5923750D01*
X-57373000Y-6873000D01*
X-56323750Y-6873000D01*
X-56165000Y-6714250D01*
X-56162051Y-6412500D01*
X-55563072Y-6412500D01*
X-55560000Y-6714250D01*
X-55401250Y-6873000D01*
X-54327000Y-6873000D01*
X-54327000Y-5936250D01*
X-54073000Y-5936250D01*
X-54073000Y-6873000D01*
X-52998750Y-6873000D01*
X-52840000Y-6714250D01*
X-52836928Y-6412500D01*
X-52363072Y-6412500D01*
X-52360000Y-6714250D01*
X-52201250Y-6873000D01*
X-51127000Y-6873000D01*
X-51127000Y-5936250D01*
X-50873000Y-5936250D01*
X-50873000Y-6873000D01*
X-49798750Y-6873000D01*
X-49640000Y-6714250D01*
X-49636928Y-6412500D01*
X-49649188Y-6288018D01*
X-49685498Y-6168320D01*
X-49744463Y-6058006D01*
X-49823815Y-5961315D01*
X-49920506Y-5881963D01*
X-50030820Y-5822998D01*
X-50150518Y-5786688D01*
X-50275000Y-5774428D01*
X-50714250Y-5777500D01*
X-50873000Y-5936250D01*
X-51127000Y-5936250D01*
X-51285750Y-5777500D01*
X-51725000Y-5774428D01*
X-51849482Y-5786688D01*
X-51969180Y-5822998D01*
X-52079494Y-5881963D01*
X-52176185Y-5961315D01*
X-52255537Y-6058006D01*
X-52314502Y-6168320D01*
X-52350812Y-6288018D01*
X-52363072Y-6412500D01*
X-52836928Y-6412500D01*
X-52849188Y-6288018D01*
X-52885498Y-6168320D01*
X-52944463Y-6058006D01*
X-53023815Y-5961315D01*
X-53120506Y-5881963D01*
X-53230820Y-5822998D01*
X-53350518Y-5786688D01*
X-53475000Y-5774428D01*
X-53914250Y-5777500D01*
X-54073000Y-5936250D01*
X-54327000Y-5936250D01*
X-54485750Y-5777500D01*
X-54925000Y-5774428D01*
X-55049482Y-5786688D01*
X-55169180Y-5822998D01*
X-55279494Y-5881963D01*
X-55376185Y-5961315D01*
X-55455537Y-6058006D01*
X-55514502Y-6168320D01*
X-55550812Y-6288018D01*
X-55563072Y-6412500D01*
X-56162051Y-6412500D01*
X-56161928Y-6400000D01*
X-56174188Y-6275518D01*
X-56210498Y-6155820D01*
X-56269463Y-6045506D01*
X-56348815Y-5948815D01*
X-56445506Y-5869463D01*
X-56555820Y-5810498D01*
X-56675518Y-5774188D01*
X-56800000Y-5761928D01*
X-57214250Y-5765000D01*
X-57373000Y-5923750D01*
X-57627000Y-5923750D01*
X-57785750Y-5765000D01*
X-58200000Y-5761928D01*
X-58324482Y-5774188D01*
X-58444180Y-5810498D01*
X-58554494Y-5869463D01*
X-58651185Y-5948815D01*
X-58730537Y-6045506D01*
X-58789502Y-6155820D01*
X-58825812Y-6275518D01*
X-58838072Y-6400000D01*
X-59438159Y-6400000D01*
X-59449188Y-6288018D01*
X-59485498Y-6168320D01*
X-59544463Y-6058006D01*
X-59623815Y-5961315D01*
X-59720506Y-5881963D01*
X-59830820Y-5822998D01*
X-59950518Y-5786688D01*
X-60075000Y-5774428D01*
X-60514250Y-5777500D01*
X-60673000Y-5936250D01*
X-60927000Y-5936250D01*
X-61085750Y-5777500D01*
X-61525000Y-5774428D01*
X-61649482Y-5786688D01*
X-61769180Y-5822998D01*
X-61879494Y-5881963D01*
X-61976185Y-5961315D01*
X-62055537Y-6058006D01*
X-62114502Y-6168320D01*
X-62150812Y-6288018D01*
X-62163072Y-6412500D01*
X-62736928Y-6412500D01*
X-62749188Y-6288018D01*
X-62785498Y-6168320D01*
X-62844463Y-6058006D01*
X-62923815Y-5961315D01*
X-63020506Y-5881963D01*
X-63130820Y-5822998D01*
X-63250518Y-5786688D01*
X-63375000Y-5774428D01*
X-63814250Y-5777500D01*
X-63973000Y-5936250D01*
X-64227000Y-5936250D01*
X-64385750Y-5777500D01*
X-64825000Y-5774428D01*
X-64949482Y-5786688D01*
X-65069180Y-5822998D01*
X-65179494Y-5881963D01*
X-65276185Y-5961315D01*
X-65355537Y-6058006D01*
X-65414502Y-6168320D01*
X-65450812Y-6288018D01*
X-65463072Y-6412500D01*
X-66062051Y-6412500D01*
X-66061928Y-6400000D01*
X-66074188Y-6275518D01*
X-66110498Y-6155820D01*
X-66169463Y-6045506D01*
X-66248815Y-5948815D01*
X-66345506Y-5869463D01*
X-66455820Y-5810498D01*
X-66575518Y-5774188D01*
X-66700000Y-5761928D01*
X-67114250Y-5765000D01*
X-67273000Y-5923750D01*
X-67527000Y-5923750D01*
X-67685750Y-5765000D01*
X-68100000Y-5761928D01*
X-68224482Y-5774188D01*
X-68344180Y-5810498D01*
X-68454494Y-5869463D01*
X-68551185Y-5948815D01*
X-68630537Y-6045506D01*
X-68689502Y-6155820D01*
X-68725812Y-6275518D01*
X-68738072Y-6400000D01*
X-69361928Y-6400000D01*
X-69374188Y-6275518D01*
X-69410498Y-6155820D01*
X-69469463Y-6045506D01*
X-69548815Y-5948815D01*
X-69645506Y-5869463D01*
X-69755820Y-5810498D01*
X-69875518Y-5774188D01*
X-70000000Y-5761928D01*
X-70414250Y-5765000D01*
X-70573000Y-5923750D01*
X-70827000Y-5923750D01*
X-70985750Y-5765000D01*
X-71400000Y-5761928D01*
X-71524482Y-5774188D01*
X-71644180Y-5810498D01*
X-71754494Y-5869463D01*
X-71851185Y-5948815D01*
X-71930537Y-6045506D01*
X-71989502Y-6155820D01*
X-72025812Y-6275518D01*
X-72038072Y-6400000D01*
X-75315000Y-6400000D01*
X-75315000Y315000D01*
X-685000Y315000D01*
X-684999Y-26315000D01*
G37*
%TD.AperFunction*%
D15*
X-33138072Y-12625000D02*
X-33123410Y-12773868D01*
X-33085148Y-12900000D01*
X-33123410Y-13026132D01*
X-33138072Y-13175000D01*
X-33138072Y-13425000D01*
X-33123410Y-13573868D01*
X-33085148Y-13700000D01*
X-33123410Y-13826132D01*
X-33138072Y-13975000D01*
X-33138072Y-14225000D01*
X-33123410Y-14373868D01*
X-33085148Y-14500000D01*
X-33123410Y-14626132D01*
X-33138072Y-14775000D01*
X-33138072Y-15025000D01*
X-33123410Y-15173868D01*
X-33106673Y-15229042D01*
X-33642630Y-15765000D01*
X-33701939Y-15765000D01*
X-33901898Y-15804774D01*
X-34090256Y-15882795D01*
X-34259774Y-15996063D01*
X-34403937Y-16140226D01*
X-34517205Y-16309744D01*
X-34595226Y-16498102D01*
X-34635000Y-16698061D01*
X-34635000Y-16901939D01*
X-34595226Y-17101898D01*
X-34517205Y-17290256D01*
X-34405792Y-17456998D01*
X-35781575Y-17456998D01*
X-35818998Y-17453312D01*
X-35856421Y-17456998D01*
X-35856424Y-17456998D01*
X-35968376Y-17468024D01*
X-36112013Y-17511596D01*
X-36168616Y-17541851D01*
X-36244391Y-17582353D01*
X-36286779Y-17617141D01*
X-36360420Y-17677576D01*
X-36384282Y-17706652D01*
X-37070957Y-18393327D01*
X-37126132Y-18376590D01*
X-37275000Y-18361928D01*
X-37525000Y-18361928D01*
X-37673868Y-18376590D01*
X-37800000Y-18414852D01*
X-37926132Y-18376590D01*
X-38075000Y-18361928D01*
X-38325000Y-18361928D01*
X-38473868Y-18376590D01*
X-38600000Y-18414852D01*
X-38726132Y-18376590D01*
X-38875000Y-18361928D01*
X-39125000Y-18361928D01*
X-39129836Y-18362404D01*
X-39104774Y-18301899D01*
X-39065000Y-18101940D01*
X-39065000Y-18048615D01*
X-39047242Y-18054002D01*
X-38974275Y-18076136D01*
X-38957675Y-18077771D01*
X-38843667Y-18089000D01*
X-38843660Y-18089000D01*
X-38800000Y-18093300D01*
X-38756340Y-18089000D01*
X-38732464Y-18089000D01*
X-38690252Y-18117205D01*
X-38501894Y-18195226D01*
X-38301935Y-18235000D01*
X-38098057Y-18235000D01*
X-37898098Y-18195226D01*
X-37709740Y-18117205D01*
X-37540222Y-18003937D01*
X-37396059Y-17859774D01*
X-37282791Y-17690256D01*
X-37204770Y-17501898D01*
X-37164996Y-17301939D01*
X-37164996Y-17098061D01*
X-37204770Y-16898102D01*
X-37282791Y-16709744D01*
X-37310996Y-16667532D01*
X-37310996Y-13382424D01*
X-37306696Y-13338764D01*
X-37310996Y-13295099D01*
X-37310996Y-13295098D01*
X-37321537Y-13188072D01*
X-37323860Y-13164489D01*
X-37365830Y-13026132D01*
X-37374693Y-12996914D01*
X-37432322Y-12889097D01*
X-37390256Y-12917205D01*
X-37201898Y-12995226D01*
X-37001939Y-13035000D01*
X-36798061Y-13035000D01*
X-36598102Y-12995226D01*
X-36409744Y-12917205D01*
X-36240226Y-12803937D01*
X-36096063Y-12659774D01*
X-35982795Y-12490256D01*
X-35971091Y-12462000D01*
X-33138072Y-12462000D01*
X-33138072Y-12625000D01*
%TA.AperFunction,Conductor*%
D17*
G36*
X-33138072Y-12625000D02*
G01*
X-33123410Y-12773868D01*
X-33085148Y-12900000D01*
X-33123410Y-13026132D01*
X-33138072Y-13175000D01*
X-33138072Y-13425000D01*
X-33123410Y-13573868D01*
X-33085148Y-13700000D01*
X-33123410Y-13826132D01*
X-33138072Y-13975000D01*
X-33138072Y-14225000D01*
X-33123410Y-14373868D01*
X-33085148Y-14500000D01*
X-33123410Y-14626132D01*
X-33138072Y-14775000D01*
X-33138072Y-15025000D01*
X-33123410Y-15173868D01*
X-33106673Y-15229042D01*
X-33642630Y-15765000D01*
X-33701939Y-15765000D01*
X-33901898Y-15804774D01*
X-34090256Y-15882795D01*
X-34259774Y-15996063D01*
X-34403937Y-16140226D01*
X-34517205Y-16309744D01*
X-34595226Y-16498102D01*
X-34635000Y-16698061D01*
X-34635000Y-16901939D01*
X-34595226Y-17101898D01*
X-34517205Y-17290256D01*
X-34405792Y-17456998D01*
X-35781575Y-17456998D01*
X-35818998Y-17453312D01*
X-35856421Y-17456998D01*
X-35856424Y-17456998D01*
X-35968376Y-17468024D01*
X-36112013Y-17511596D01*
X-36168616Y-17541851D01*
X-36244391Y-17582353D01*
X-36286779Y-17617141D01*
X-36360420Y-17677576D01*
X-36384282Y-17706652D01*
X-37070957Y-18393327D01*
X-37126132Y-18376590D01*
X-37275000Y-18361928D01*
X-37525000Y-18361928D01*
X-37673868Y-18376590D01*
X-37800000Y-18414852D01*
X-37926132Y-18376590D01*
X-38075000Y-18361928D01*
X-38325000Y-18361928D01*
X-38473868Y-18376590D01*
X-38600000Y-18414852D01*
X-38726132Y-18376590D01*
X-38875000Y-18361928D01*
X-39125000Y-18361928D01*
X-39129836Y-18362404D01*
X-39104774Y-18301899D01*
X-39065000Y-18101940D01*
X-39065000Y-18048615D01*
X-39047242Y-18054002D01*
X-38974275Y-18076136D01*
X-38957675Y-18077771D01*
X-38843667Y-18089000D01*
X-38843660Y-18089000D01*
X-38800000Y-18093300D01*
X-38756340Y-18089000D01*
X-38732464Y-18089000D01*
X-38690252Y-18117205D01*
X-38501894Y-18195226D01*
X-38301935Y-18235000D01*
X-38098057Y-18235000D01*
X-37898098Y-18195226D01*
X-37709740Y-18117205D01*
X-37540222Y-18003937D01*
X-37396059Y-17859774D01*
X-37282791Y-17690256D01*
X-37204770Y-17501898D01*
X-37164996Y-17301939D01*
X-37164996Y-17098061D01*
X-37204770Y-16898102D01*
X-37282791Y-16709744D01*
X-37310996Y-16667532D01*
X-37310996Y-13382424D01*
X-37306696Y-13338764D01*
X-37310996Y-13295099D01*
X-37310996Y-13295098D01*
X-37321537Y-13188072D01*
X-37323860Y-13164489D01*
X-37365830Y-13026132D01*
X-37374693Y-12996914D01*
X-37432322Y-12889097D01*
X-37390256Y-12917205D01*
X-37201898Y-12995226D01*
X-37001939Y-13035000D01*
X-36798061Y-13035000D01*
X-36598102Y-12995226D01*
X-36409744Y-12917205D01*
X-36240226Y-12803937D01*
X-36096063Y-12659774D01*
X-35982795Y-12490256D01*
X-35971091Y-12462000D01*
X-33138072Y-12462000D01*
X-33138072Y-12625000D01*
G37*
%TD.AperFunction*%
D15*
X-47723116Y-11700000D02*
X-47798940Y-11740529D01*
X-47899431Y-11823000D01*
X-47976250Y-11823000D01*
X-48135000Y-11981750D01*
X-48127800Y-12050170D01*
X-48334620Y-12256990D01*
X-49593760Y-12256990D01*
X-49723750Y-12127000D01*
X-50773000Y-12127000D01*
X-50773000Y-12147000D01*
X-51027000Y-12147000D01*
X-51027000Y-12127000D01*
X-52076250Y-12127000D01*
X-52235000Y-12285750D01*
X-52235900Y-12377811D01*
X-52244383Y-12382345D01*
X-52297881Y-12426250D01*
X-52360412Y-12477568D01*
X-52384270Y-12506639D01*
X-53002068Y-13124437D01*
X-53011595Y-13106613D01*
X-53122038Y-12972038D01*
X-53148891Y-12950000D01*
X-53122038Y-12927962D01*
X-53011595Y-12793387D01*
X-52929528Y-12639851D01*
X-52878992Y-12473255D01*
X-52861928Y-12300001D01*
X-52861928Y-11870365D01*
X-52801908Y-11895226D01*
X-52601949Y-11935000D01*
X-52398071Y-11935000D01*
X-52198112Y-11895226D01*
X-52096227Y-11853023D01*
X-52076250Y-11873000D01*
X-51027000Y-11873000D01*
X-51027000Y-11853000D01*
X-50773000Y-11853000D01*
X-50773000Y-11873000D01*
X-49723750Y-11873000D01*
X-49565000Y-11714250D01*
X-49564489Y-11662000D01*
X-47794209Y-11662000D01*
X-47723116Y-11700000D01*
%TA.AperFunction,Conductor*%
D17*
G36*
X-47723116Y-11700000D02*
G01*
X-47798940Y-11740529D01*
X-47899431Y-11823000D01*
X-47976250Y-11823000D01*
X-48135000Y-11981750D01*
X-48127800Y-12050170D01*
X-48334620Y-12256990D01*
X-49593760Y-12256990D01*
X-49723750Y-12127000D01*
X-50773000Y-12127000D01*
X-50773000Y-12147000D01*
X-51027000Y-12147000D01*
X-51027000Y-12127000D01*
X-52076250Y-12127000D01*
X-52235000Y-12285750D01*
X-52235900Y-12377811D01*
X-52244383Y-12382345D01*
X-52297881Y-12426250D01*
X-52360412Y-12477568D01*
X-52384270Y-12506639D01*
X-53002068Y-13124437D01*
X-53011595Y-13106613D01*
X-53122038Y-12972038D01*
X-53148891Y-12950000D01*
X-53122038Y-12927962D01*
X-53011595Y-12793387D01*
X-52929528Y-12639851D01*
X-52878992Y-12473255D01*
X-52861928Y-12300001D01*
X-52861928Y-11870365D01*
X-52801908Y-11895226D01*
X-52601949Y-11935000D01*
X-52398071Y-11935000D01*
X-52198112Y-11895226D01*
X-52096227Y-11853023D01*
X-52076250Y-11873000D01*
X-51027000Y-11873000D01*
X-51027000Y-11853000D01*
X-50773000Y-11853000D01*
X-50773000Y-11873000D01*
X-49723750Y-11873000D01*
X-49565000Y-11714250D01*
X-49564489Y-11662000D01*
X-47794209Y-11662000D01*
X-47723116Y-11700000D01*
G37*
%TD.AperFunction*%
%TD*%
M02*
