G04 #@! TF.GenerationSoftware,KiCad,Pcbnew,5.1.9-73d0e3b20d~88~ubuntu18.04.1*
G04 #@! TF.CreationDate,2021-01-10T19:17:03-05:00*
G04 #@! TF.ProjectId,DolbyS_NR_HIC,446f6c62-7953-45f4-9e52-5f4849432e6b,2020-11-03*
G04 #@! TF.SameCoordinates,Original*
G04 #@! TF.FileFunction,Legend,Bot*
G04 #@! TF.FilePolarity,Positive*
%FSLAX46Y46*%
G04 Gerber Fmt 4.6, Leading zero omitted, Abs format (unit mm)*
G04 Created by KiCad (PCBNEW 5.1.9-73d0e3b20d~88~ubuntu18.04.1) date 2021-01-10 19:17:03*
%MOMM*%
%LPD*%
G01*
G04 APERTURE LIST*
%ADD10C,0.150000*%
%ADD11C,0.120000*%
G04 APERTURE END LIST*
D10*
X203778690Y-119352380D02*
X203778690Y-120066666D01*
X203826309Y-120209523D01*
X203921547Y-120304761D01*
X204064404Y-120352380D01*
X204159642Y-120352380D01*
X202826309Y-120352380D02*
X203302500Y-120352380D01*
X203302500Y-119352380D01*
X201921547Y-120257142D02*
X201969166Y-120304761D01*
X202112023Y-120352380D01*
X202207261Y-120352380D01*
X202350119Y-120304761D01*
X202445357Y-120209523D01*
X202492976Y-120114285D01*
X202540595Y-119923809D01*
X202540595Y-119780952D01*
X202492976Y-119590476D01*
X202445357Y-119495238D01*
X202350119Y-119400000D01*
X202207261Y-119352380D01*
X202112023Y-119352380D01*
X201969166Y-119400000D01*
X201921547Y-119447619D01*
X201207261Y-119352380D02*
X201207261Y-120066666D01*
X201254880Y-120209523D01*
X201350119Y-120304761D01*
X201492976Y-120352380D01*
X201588214Y-120352380D01*
X200254880Y-120352380D02*
X200731071Y-120352380D01*
X200731071Y-119352380D01*
X199350119Y-120257142D02*
X199397738Y-120304761D01*
X199540595Y-120352380D01*
X199635833Y-120352380D01*
X199778690Y-120304761D01*
X199873928Y-120209523D01*
X199921547Y-120114285D01*
X199969166Y-119923809D01*
X199969166Y-119780952D01*
X199921547Y-119590476D01*
X199873928Y-119495238D01*
X199778690Y-119400000D01*
X199635833Y-119352380D01*
X199540595Y-119352380D01*
X199397738Y-119400000D01*
X199350119Y-119447619D01*
X198635833Y-119352380D02*
X198635833Y-120066666D01*
X198683452Y-120209523D01*
X198778690Y-120304761D01*
X198921547Y-120352380D01*
X199016785Y-120352380D01*
X197683452Y-120352380D02*
X198159642Y-120352380D01*
X198159642Y-119352380D01*
X196778690Y-120257142D02*
X196826309Y-120304761D01*
X196969166Y-120352380D01*
X197064404Y-120352380D01*
X197207261Y-120304761D01*
X197302500Y-120209523D01*
X197350119Y-120114285D01*
X197397738Y-119923809D01*
X197397738Y-119780952D01*
X197350119Y-119590476D01*
X197302500Y-119495238D01*
X197207261Y-119400000D01*
X197064404Y-119352380D01*
X196969166Y-119352380D01*
X196826309Y-119400000D01*
X196778690Y-119447619D01*
X196064404Y-119352380D02*
X196064404Y-120066666D01*
X196112023Y-120209523D01*
X196207261Y-120304761D01*
X196350119Y-120352380D01*
X196445357Y-120352380D01*
X195112023Y-120352380D02*
X195588214Y-120352380D01*
X195588214Y-119352380D01*
X194207261Y-120257142D02*
X194254880Y-120304761D01*
X194397738Y-120352380D01*
X194492976Y-120352380D01*
X194635833Y-120304761D01*
X194731071Y-120209523D01*
X194778690Y-120114285D01*
X194826309Y-119923809D01*
X194826309Y-119780952D01*
X194778690Y-119590476D01*
X194731071Y-119495238D01*
X194635833Y-119400000D01*
X194492976Y-119352380D01*
X194397738Y-119352380D01*
X194254880Y-119400000D01*
X194207261Y-119447619D01*
D11*
X205800000Y-121860000D02*
X205800000Y-124520000D01*
X137096500Y-121856500D02*
X137096500Y-124523500D01*
X147447000Y-121856500D02*
X147447000Y-124523500D01*
X177736500Y-121856500D02*
X177736500Y-124523500D01*
X177736500Y-124523500D02*
X205800000Y-124520000D01*
X205800000Y-121860000D02*
X177736500Y-121856500D01*
X137096500Y-124523500D02*
X147447000Y-124523500D01*
X137096500Y-121856500D02*
X147430000Y-121856500D01*
X138885000Y-114677500D02*
X138885000Y-118762500D01*
X137015000Y-114677500D02*
X138885000Y-114677500D01*
X137015000Y-118762500D02*
X137015000Y-114677500D01*
X153960000Y-100851248D02*
X153960000Y-102273752D01*
X152140000Y-100851248D02*
X152140000Y-102273752D01*
X145910000Y-100851248D02*
X145910000Y-102273752D01*
X144090000Y-100851248D02*
X144090000Y-102273752D01*
X161390000Y-109050000D02*
X161890000Y-109050000D01*
X161640000Y-108800000D02*
X161640000Y-109300000D01*
X164395563Y-109540000D02*
X165460000Y-110604437D01*
X162004437Y-109540000D02*
X160940000Y-110604437D01*
X162004437Y-109540000D02*
X162140000Y-109540000D01*
X164395563Y-109540000D02*
X164260000Y-109540000D01*
X165460000Y-110604437D02*
X165460000Y-114060000D01*
X160940000Y-110604437D02*
X160940000Y-114060000D01*
X160940000Y-114060000D02*
X162140000Y-114060000D01*
X165460000Y-114060000D02*
X164260000Y-114060000D01*
X174535000Y-105772936D02*
X174535000Y-106227064D01*
X173065000Y-105772936D02*
X173065000Y-106227064D01*
X158435000Y-110772936D02*
X158435000Y-111227064D01*
X156965000Y-110772936D02*
X156965000Y-111227064D01*
X153835000Y-105772936D02*
X153835000Y-106227064D01*
X152365000Y-105772936D02*
X152365000Y-106227064D01*
X137905000Y-111227064D02*
X137905000Y-110772936D01*
X139375000Y-111227064D02*
X139375000Y-110772936D01*
X153315000Y-111227064D02*
X153315000Y-110772936D01*
X154785000Y-111227064D02*
X154785000Y-110772936D01*
X134665000Y-111227064D02*
X134665000Y-110772936D01*
X136135000Y-111227064D02*
X136135000Y-110772936D01*
X151525000Y-110772936D02*
X151525000Y-111227064D01*
X150055000Y-110772936D02*
X150055000Y-111227064D01*
X149135000Y-105772936D02*
X149135000Y-106227064D01*
X147665000Y-105772936D02*
X147665000Y-106227064D01*
X145735000Y-105772936D02*
X145735000Y-106227064D01*
X144265000Y-105772936D02*
X144265000Y-106227064D01*
X174535000Y-100772936D02*
X174535000Y-101227064D01*
X173065000Y-100772936D02*
X173065000Y-101227064D01*
X140765000Y-106227064D02*
X140765000Y-105772936D01*
X142235000Y-106227064D02*
X142235000Y-105772936D01*
X164265000Y-101227064D02*
X164265000Y-100772936D01*
X165735000Y-101227064D02*
X165735000Y-100772936D01*
X164265000Y-106227064D02*
X164265000Y-105772936D01*
X165735000Y-106227064D02*
X165735000Y-105772936D01*
X169935000Y-117372936D02*
X169935000Y-117827064D01*
X168465000Y-117372936D02*
X168465000Y-117827064D01*
X181415000Y-106277064D02*
X181415000Y-105822936D01*
X182885000Y-106277064D02*
X182885000Y-105822936D01*
X179385000Y-105772936D02*
X179385000Y-106227064D01*
X177915000Y-105772936D02*
X177915000Y-106227064D01*
X184915000Y-101277064D02*
X184915000Y-100822936D01*
X186385000Y-101277064D02*
X186385000Y-100822936D01*
X200385000Y-112372936D02*
X200385000Y-112827064D01*
X198915000Y-112372936D02*
X198915000Y-112827064D01*
X188465000Y-106227064D02*
X188465000Y-105772936D01*
X189935000Y-106227064D02*
X189935000Y-105772936D01*
X193435000Y-100822936D02*
X193435000Y-101277064D01*
X191965000Y-100822936D02*
X191965000Y-101277064D01*
X200385000Y-100822936D02*
X200385000Y-101277064D01*
X198915000Y-100822936D02*
X198915000Y-101277064D01*
X197035000Y-100822936D02*
X197035000Y-101277064D01*
X195565000Y-100822936D02*
X195565000Y-101277064D01*
X198915000Y-106227064D02*
X198915000Y-105772936D01*
X200385000Y-106227064D02*
X200385000Y-105772936D01*
X173435000Y-110772936D02*
X173435000Y-111227064D01*
X171965000Y-110772936D02*
X171965000Y-111227064D01*
X159360000Y-100888748D02*
X159360000Y-103211252D01*
X155940000Y-100888748D02*
X155940000Y-103211252D01*
X140090000Y-114050000D02*
X140590000Y-114050000D01*
X140340000Y-113800000D02*
X140340000Y-114300000D01*
X143095563Y-114540000D02*
X144160000Y-115604437D01*
X140704437Y-114540000D02*
X139640000Y-115604437D01*
X140704437Y-114540000D02*
X140840000Y-114540000D01*
X143095563Y-114540000D02*
X142960000Y-114540000D01*
X144160000Y-115604437D02*
X144160000Y-119060000D01*
X139640000Y-115604437D02*
X139640000Y-119060000D01*
X139640000Y-119060000D02*
X140840000Y-119060000D01*
X144160000Y-119060000D02*
X142960000Y-119060000D01*
X154985000Y-114677500D02*
X154985000Y-118762500D01*
X153115000Y-114677500D02*
X154985000Y-114677500D01*
X153115000Y-118762500D02*
X153115000Y-114677500D01*
X145640000Y-114050000D02*
X146140000Y-114050000D01*
X145890000Y-113800000D02*
X145890000Y-114300000D01*
X148645563Y-114540000D02*
X149710000Y-115604437D01*
X146254437Y-114540000D02*
X145190000Y-115604437D01*
X146254437Y-114540000D02*
X146390000Y-114540000D01*
X148645563Y-114540000D02*
X148510000Y-114540000D01*
X149710000Y-115604437D02*
X149710000Y-119060000D01*
X145190000Y-115604437D02*
X145190000Y-119060000D01*
X145190000Y-119060000D02*
X146390000Y-119060000D01*
X149710000Y-119060000D02*
X148510000Y-119060000D01*
X136335000Y-114677500D02*
X136335000Y-118762500D01*
X134465000Y-114677500D02*
X136335000Y-114677500D01*
X134465000Y-118762500D02*
X134465000Y-114677500D01*
X152285000Y-114677500D02*
X152285000Y-118762500D01*
X150415000Y-114677500D02*
X152285000Y-114677500D01*
X150415000Y-118762500D02*
X150415000Y-114677500D01*
X156140000Y-114050000D02*
X156640000Y-114050000D01*
X156390000Y-113800000D02*
X156390000Y-114300000D01*
X159145563Y-114540000D02*
X160210000Y-115604437D01*
X156754437Y-114540000D02*
X155690000Y-115604437D01*
X156754437Y-114540000D02*
X156890000Y-114540000D01*
X159145563Y-114540000D02*
X159010000Y-114540000D01*
X160210000Y-115604437D02*
X160210000Y-119060000D01*
X155690000Y-115604437D02*
X155690000Y-119060000D01*
X155690000Y-119060000D02*
X156890000Y-119060000D01*
X160210000Y-119060000D02*
X159010000Y-119060000D01*
X149135000Y-100776248D02*
X149135000Y-101298752D01*
X147665000Y-100776248D02*
X147665000Y-101298752D01*
X138960000Y-100851248D02*
X138960000Y-102273752D01*
X136240000Y-100851248D02*
X136240000Y-102273752D01*
X162535000Y-100776248D02*
X162535000Y-101298752D01*
X161065000Y-100776248D02*
X161065000Y-101298752D01*
X161065000Y-106298752D02*
X161065000Y-105776248D01*
X162535000Y-106298752D02*
X162535000Y-105776248D01*
X181415000Y-101348752D02*
X181415000Y-100826248D01*
X182885000Y-101348752D02*
X182885000Y-100826248D01*
X197010000Y-110140000D02*
X197010000Y-114525000D01*
X193990000Y-110140000D02*
X197010000Y-110140000D01*
X193990000Y-114525000D02*
X193990000Y-110140000D01*
X186385000Y-105776248D02*
X186385000Y-106298752D01*
X184915000Y-105776248D02*
X184915000Y-106298752D01*
X167354000Y-101368000D02*
X167854000Y-101368000D01*
X167604000Y-101118000D02*
X167604000Y-101618000D01*
X170359563Y-101858000D02*
X171424000Y-102922437D01*
X167968437Y-101858000D02*
X166904000Y-102922437D01*
X167968437Y-101858000D02*
X168104000Y-101858000D01*
X170359563Y-101858000D02*
X170224000Y-101858000D01*
X171424000Y-102922437D02*
X171424000Y-106378000D01*
X166904000Y-102922437D02*
X166904000Y-106378000D01*
X166904000Y-106378000D02*
X168104000Y-106378000D01*
X171424000Y-106378000D02*
X170224000Y-106378000D01*
X202065000Y-112898752D02*
X202065000Y-112376248D01*
X203535000Y-112898752D02*
X203535000Y-112376248D01*
X188465000Y-101348752D02*
X188465000Y-100826248D01*
X189935000Y-101348752D02*
X189935000Y-100826248D01*
X203535000Y-105776248D02*
X203535000Y-106298752D01*
X202065000Y-105776248D02*
X202065000Y-106298752D01*
X191790000Y-107273752D02*
X191790000Y-105851248D01*
X193610000Y-107273752D02*
X193610000Y-105851248D01*
X188190000Y-109850000D02*
X188690000Y-109850000D01*
X188440000Y-109600000D02*
X188440000Y-110100000D01*
X191195563Y-110340000D02*
X192260000Y-111404437D01*
X188804437Y-110340000D02*
X187740000Y-111404437D01*
X188804437Y-110340000D02*
X188940000Y-110340000D01*
X191195563Y-110340000D02*
X191060000Y-110340000D01*
X192260000Y-111404437D02*
X192260000Y-114860000D01*
X187740000Y-111404437D02*
X187740000Y-114860000D01*
X187740000Y-114860000D02*
X188940000Y-114860000D01*
X192260000Y-114860000D02*
X191060000Y-114860000D01*
X181990000Y-109850000D02*
X182490000Y-109850000D01*
X182240000Y-109600000D02*
X182240000Y-110100000D01*
X184995563Y-110340000D02*
X186060000Y-111404437D01*
X182604437Y-110340000D02*
X181540000Y-111404437D01*
X182604437Y-110340000D02*
X182740000Y-110340000D01*
X184995563Y-110340000D02*
X184860000Y-110340000D01*
X186060000Y-111404437D02*
X186060000Y-114860000D01*
X181540000Y-111404437D02*
X181540000Y-114860000D01*
X181540000Y-114860000D02*
X182740000Y-114860000D01*
X186060000Y-114860000D02*
X184860000Y-114860000D01*
X195390000Y-107273752D02*
X195390000Y-105851248D01*
X197210000Y-107273752D02*
X197210000Y-105851248D01*
X170160000Y-110851248D02*
X170160000Y-112273752D01*
X168340000Y-110851248D02*
X168340000Y-112273752D01*
X175002500Y-108887500D02*
X175627500Y-108887500D01*
X175315000Y-108575000D02*
X175315000Y-109200000D01*
X178695563Y-109440000D02*
X179760000Y-110504437D01*
X175304437Y-109440000D02*
X174240000Y-110504437D01*
X175304437Y-109440000D02*
X175940000Y-109440000D01*
X178695563Y-109440000D02*
X178060000Y-109440000D01*
X179760000Y-110504437D02*
X179760000Y-114960000D01*
X174240000Y-110504437D02*
X174240000Y-114960000D01*
X174240000Y-114960000D02*
X175940000Y-114960000D01*
X179760000Y-114960000D02*
X178060000Y-114960000D01*
X164865000Y-117823752D02*
X164865000Y-117301248D01*
X166335000Y-117823752D02*
X166335000Y-117301248D01*
X169935000Y-121788748D02*
X169935000Y-122311252D01*
X168465000Y-121788748D02*
X168465000Y-122311252D01*
D10*
X139042857Y-120957142D02*
X139090476Y-121004761D01*
X139233333Y-121052380D01*
X139328571Y-121052380D01*
X139471428Y-121004761D01*
X139566666Y-120909523D01*
X139614285Y-120814285D01*
X139661904Y-120623809D01*
X139661904Y-120480952D01*
X139614285Y-120290476D01*
X139566666Y-120195238D01*
X139471428Y-120100000D01*
X139328571Y-120052380D01*
X139233333Y-120052380D01*
X139090476Y-120100000D01*
X139042857Y-120147619D01*
X138185714Y-120385714D02*
X138185714Y-121052380D01*
X138423809Y-120004761D02*
X138661904Y-120719047D01*
X138042857Y-120719047D01*
X137233333Y-120052380D02*
X137423809Y-120052380D01*
X137519047Y-120100000D01*
X137566666Y-120147619D01*
X137661904Y-120290476D01*
X137709523Y-120480952D01*
X137709523Y-120861904D01*
X137661904Y-120957142D01*
X137614285Y-121004761D01*
X137519047Y-121052380D01*
X137328571Y-121052380D01*
X137233333Y-121004761D01*
X137185714Y-120957142D01*
X137138095Y-120861904D01*
X137138095Y-120623809D01*
X137185714Y-120528571D01*
X137233333Y-120480952D01*
X137328571Y-120433333D01*
X137519047Y-120433333D01*
X137614285Y-120480952D01*
X137661904Y-120528571D01*
X137709523Y-120623809D01*
X151787142Y-100907142D02*
X151834761Y-100859523D01*
X151882380Y-100716666D01*
X151882380Y-100621428D01*
X151834761Y-100478571D01*
X151739523Y-100383333D01*
X151644285Y-100335714D01*
X151453809Y-100288095D01*
X151310952Y-100288095D01*
X151120476Y-100335714D01*
X151025238Y-100383333D01*
X150930000Y-100478571D01*
X150882380Y-100621428D01*
X150882380Y-100716666D01*
X150930000Y-100859523D01*
X150977619Y-100907142D01*
X151215714Y-101764285D02*
X151882380Y-101764285D01*
X150834761Y-101526190D02*
X151549047Y-101288095D01*
X151549047Y-101907142D01*
X150882380Y-102192857D02*
X150882380Y-102859523D01*
X151882380Y-102430952D01*
X143757142Y-100857142D02*
X143804761Y-100809523D01*
X143852380Y-100666666D01*
X143852380Y-100571428D01*
X143804761Y-100428571D01*
X143709523Y-100333333D01*
X143614285Y-100285714D01*
X143423809Y-100238095D01*
X143280952Y-100238095D01*
X143090476Y-100285714D01*
X142995238Y-100333333D01*
X142900000Y-100428571D01*
X142852380Y-100571428D01*
X142852380Y-100666666D01*
X142900000Y-100809523D01*
X142947619Y-100857142D01*
X142852380Y-101190476D02*
X142852380Y-101809523D01*
X143233333Y-101476190D01*
X143233333Y-101619047D01*
X143280952Y-101714285D01*
X143328571Y-101761904D01*
X143423809Y-101809523D01*
X143661904Y-101809523D01*
X143757142Y-101761904D01*
X143804761Y-101714285D01*
X143852380Y-101619047D01*
X143852380Y-101333333D01*
X143804761Y-101238095D01*
X143757142Y-101190476D01*
X142852380Y-102142857D02*
X142852380Y-102809523D01*
X143852380Y-102380952D01*
X160607142Y-111257142D02*
X160654761Y-111209523D01*
X160702380Y-111066666D01*
X160702380Y-110971428D01*
X160654761Y-110828571D01*
X160559523Y-110733333D01*
X160464285Y-110685714D01*
X160273809Y-110638095D01*
X160130952Y-110638095D01*
X159940476Y-110685714D01*
X159845238Y-110733333D01*
X159750000Y-110828571D01*
X159702380Y-110971428D01*
X159702380Y-111066666D01*
X159750000Y-111209523D01*
X159797619Y-111257142D01*
X160702380Y-112209523D02*
X160702380Y-111638095D01*
X160702380Y-111923809D02*
X159702380Y-111923809D01*
X159845238Y-111828571D01*
X159940476Y-111733333D01*
X159988095Y-111638095D01*
X159797619Y-112590476D02*
X159750000Y-112638095D01*
X159702380Y-112733333D01*
X159702380Y-112971428D01*
X159750000Y-113066666D01*
X159797619Y-113114285D01*
X159892857Y-113161904D01*
X159988095Y-113161904D01*
X160130952Y-113114285D01*
X160702380Y-112542857D01*
X160702380Y-113161904D01*
X172852380Y-105357142D02*
X172376190Y-105023809D01*
X172852380Y-104785714D02*
X171852380Y-104785714D01*
X171852380Y-105166666D01*
X171900000Y-105261904D01*
X171947619Y-105309523D01*
X172042857Y-105357142D01*
X172185714Y-105357142D01*
X172280952Y-105309523D01*
X172328571Y-105261904D01*
X172376190Y-105166666D01*
X172376190Y-104785714D01*
X171852380Y-106261904D02*
X171852380Y-105785714D01*
X172328571Y-105738095D01*
X172280952Y-105785714D01*
X172233333Y-105880952D01*
X172233333Y-106119047D01*
X172280952Y-106214285D01*
X172328571Y-106261904D01*
X172423809Y-106309523D01*
X172661904Y-106309523D01*
X172757142Y-106261904D01*
X172804761Y-106214285D01*
X172852380Y-106119047D01*
X172852380Y-105880952D01*
X172804761Y-105785714D01*
X172757142Y-105738095D01*
X171947619Y-106690476D02*
X171900000Y-106738095D01*
X171852380Y-106833333D01*
X171852380Y-107071428D01*
X171900000Y-107166666D01*
X171947619Y-107214285D01*
X172042857Y-107261904D01*
X172138095Y-107261904D01*
X172280952Y-107214285D01*
X172852380Y-106642857D01*
X172852380Y-107261904D01*
X156712380Y-110367142D02*
X156236190Y-110033809D01*
X156712380Y-109795714D02*
X155712380Y-109795714D01*
X155712380Y-110176666D01*
X155760000Y-110271904D01*
X155807619Y-110319523D01*
X155902857Y-110367142D01*
X156045714Y-110367142D01*
X156140952Y-110319523D01*
X156188571Y-110271904D01*
X156236190Y-110176666D01*
X156236190Y-109795714D01*
X155712380Y-111271904D02*
X155712380Y-110795714D01*
X156188571Y-110748095D01*
X156140952Y-110795714D01*
X156093333Y-110890952D01*
X156093333Y-111129047D01*
X156140952Y-111224285D01*
X156188571Y-111271904D01*
X156283809Y-111319523D01*
X156521904Y-111319523D01*
X156617142Y-111271904D01*
X156664761Y-111224285D01*
X156712380Y-111129047D01*
X156712380Y-110890952D01*
X156664761Y-110795714D01*
X156617142Y-110748095D01*
X156712380Y-112271904D02*
X156712380Y-111700476D01*
X156712380Y-111986190D02*
X155712380Y-111986190D01*
X155855238Y-111890952D01*
X155950476Y-111795714D01*
X155998095Y-111700476D01*
X152122380Y-105357142D02*
X151646190Y-105023809D01*
X152122380Y-104785714D02*
X151122380Y-104785714D01*
X151122380Y-105166666D01*
X151170000Y-105261904D01*
X151217619Y-105309523D01*
X151312857Y-105357142D01*
X151455714Y-105357142D01*
X151550952Y-105309523D01*
X151598571Y-105261904D01*
X151646190Y-105166666D01*
X151646190Y-104785714D01*
X151455714Y-106214285D02*
X152122380Y-106214285D01*
X151074761Y-105976190D02*
X151789047Y-105738095D01*
X151789047Y-106357142D01*
X152122380Y-106785714D02*
X152122380Y-106976190D01*
X152074761Y-107071428D01*
X152027142Y-107119047D01*
X151884285Y-107214285D01*
X151693809Y-107261904D01*
X151312857Y-107261904D01*
X151217619Y-107214285D01*
X151170000Y-107166666D01*
X151122380Y-107071428D01*
X151122380Y-106880952D01*
X151170000Y-106785714D01*
X151217619Y-106738095D01*
X151312857Y-106690476D01*
X151550952Y-106690476D01*
X151646190Y-106738095D01*
X151693809Y-106785714D01*
X151741428Y-106880952D01*
X151741428Y-107071428D01*
X151693809Y-107166666D01*
X151646190Y-107214285D01*
X151550952Y-107261904D01*
X137642380Y-110327142D02*
X137166190Y-109993809D01*
X137642380Y-109755714D02*
X136642380Y-109755714D01*
X136642380Y-110136666D01*
X136690000Y-110231904D01*
X136737619Y-110279523D01*
X136832857Y-110327142D01*
X136975714Y-110327142D01*
X137070952Y-110279523D01*
X137118571Y-110231904D01*
X137166190Y-110136666D01*
X137166190Y-109755714D01*
X136975714Y-111184285D02*
X137642380Y-111184285D01*
X136594761Y-110946190D02*
X137309047Y-110708095D01*
X137309047Y-111327142D01*
X137070952Y-111850952D02*
X137023333Y-111755714D01*
X136975714Y-111708095D01*
X136880476Y-111660476D01*
X136832857Y-111660476D01*
X136737619Y-111708095D01*
X136690000Y-111755714D01*
X136642380Y-111850952D01*
X136642380Y-112041428D01*
X136690000Y-112136666D01*
X136737619Y-112184285D01*
X136832857Y-112231904D01*
X136880476Y-112231904D01*
X136975714Y-112184285D01*
X137023333Y-112136666D01*
X137070952Y-112041428D01*
X137070952Y-111850952D01*
X137118571Y-111755714D01*
X137166190Y-111708095D01*
X137261428Y-111660476D01*
X137451904Y-111660476D01*
X137547142Y-111708095D01*
X137594761Y-111755714D01*
X137642380Y-111850952D01*
X137642380Y-112041428D01*
X137594761Y-112136666D01*
X137547142Y-112184285D01*
X137451904Y-112231904D01*
X137261428Y-112231904D01*
X137166190Y-112184285D01*
X137118571Y-112136666D01*
X137070952Y-112041428D01*
X153072380Y-110357142D02*
X152596190Y-110023809D01*
X153072380Y-109785714D02*
X152072380Y-109785714D01*
X152072380Y-110166666D01*
X152120000Y-110261904D01*
X152167619Y-110309523D01*
X152262857Y-110357142D01*
X152405714Y-110357142D01*
X152500952Y-110309523D01*
X152548571Y-110261904D01*
X152596190Y-110166666D01*
X152596190Y-109785714D01*
X152405714Y-111214285D02*
X153072380Y-111214285D01*
X152024761Y-110976190D02*
X152739047Y-110738095D01*
X152739047Y-111357142D01*
X152072380Y-111642857D02*
X152072380Y-112309523D01*
X153072380Y-111880952D01*
X134392380Y-110377142D02*
X133916190Y-110043809D01*
X134392380Y-109805714D02*
X133392380Y-109805714D01*
X133392380Y-110186666D01*
X133440000Y-110281904D01*
X133487619Y-110329523D01*
X133582857Y-110377142D01*
X133725714Y-110377142D01*
X133820952Y-110329523D01*
X133868571Y-110281904D01*
X133916190Y-110186666D01*
X133916190Y-109805714D01*
X133725714Y-111234285D02*
X134392380Y-111234285D01*
X133344761Y-110996190D02*
X134059047Y-110758095D01*
X134059047Y-111377142D01*
X133392380Y-112186666D02*
X133392380Y-111996190D01*
X133440000Y-111900952D01*
X133487619Y-111853333D01*
X133630476Y-111758095D01*
X133820952Y-111710476D01*
X134201904Y-111710476D01*
X134297142Y-111758095D01*
X134344761Y-111805714D01*
X134392380Y-111900952D01*
X134392380Y-112091428D01*
X134344761Y-112186666D01*
X134297142Y-112234285D01*
X134201904Y-112281904D01*
X133963809Y-112281904D01*
X133868571Y-112234285D01*
X133820952Y-112186666D01*
X133773333Y-112091428D01*
X133773333Y-111900952D01*
X133820952Y-111805714D01*
X133868571Y-111758095D01*
X133963809Y-111710476D01*
X149752380Y-110367142D02*
X149276190Y-110033809D01*
X149752380Y-109795714D02*
X148752380Y-109795714D01*
X148752380Y-110176666D01*
X148800000Y-110271904D01*
X148847619Y-110319523D01*
X148942857Y-110367142D01*
X149085714Y-110367142D01*
X149180952Y-110319523D01*
X149228571Y-110271904D01*
X149276190Y-110176666D01*
X149276190Y-109795714D01*
X149085714Y-111224285D02*
X149752380Y-111224285D01*
X148704761Y-110986190D02*
X149419047Y-110748095D01*
X149419047Y-111367142D01*
X148752380Y-112224285D02*
X148752380Y-111748095D01*
X149228571Y-111700476D01*
X149180952Y-111748095D01*
X149133333Y-111843333D01*
X149133333Y-112081428D01*
X149180952Y-112176666D01*
X149228571Y-112224285D01*
X149323809Y-112271904D01*
X149561904Y-112271904D01*
X149657142Y-112224285D01*
X149704761Y-112176666D01*
X149752380Y-112081428D01*
X149752380Y-111843333D01*
X149704761Y-111748095D01*
X149657142Y-111700476D01*
X147382380Y-105407142D02*
X146906190Y-105073809D01*
X147382380Y-104835714D02*
X146382380Y-104835714D01*
X146382380Y-105216666D01*
X146430000Y-105311904D01*
X146477619Y-105359523D01*
X146572857Y-105407142D01*
X146715714Y-105407142D01*
X146810952Y-105359523D01*
X146858571Y-105311904D01*
X146906190Y-105216666D01*
X146906190Y-104835714D01*
X146715714Y-106264285D02*
X147382380Y-106264285D01*
X146334761Y-106026190D02*
X147049047Y-105788095D01*
X147049047Y-106407142D01*
X146715714Y-107216666D02*
X147382380Y-107216666D01*
X146334761Y-106978571D02*
X147049047Y-106740476D01*
X147049047Y-107359523D01*
X144002380Y-105387142D02*
X143526190Y-105053809D01*
X144002380Y-104815714D02*
X143002380Y-104815714D01*
X143002380Y-105196666D01*
X143050000Y-105291904D01*
X143097619Y-105339523D01*
X143192857Y-105387142D01*
X143335714Y-105387142D01*
X143430952Y-105339523D01*
X143478571Y-105291904D01*
X143526190Y-105196666D01*
X143526190Y-104815714D01*
X143335714Y-106244285D02*
X144002380Y-106244285D01*
X142954761Y-106006190D02*
X143669047Y-105768095D01*
X143669047Y-106387142D01*
X143097619Y-106720476D02*
X143050000Y-106768095D01*
X143002380Y-106863333D01*
X143002380Y-107101428D01*
X143050000Y-107196666D01*
X143097619Y-107244285D01*
X143192857Y-107291904D01*
X143288095Y-107291904D01*
X143430952Y-107244285D01*
X144002380Y-106672857D01*
X144002380Y-107291904D01*
X172822380Y-100357142D02*
X172346190Y-100023809D01*
X172822380Y-99785714D02*
X171822380Y-99785714D01*
X171822380Y-100166666D01*
X171870000Y-100261904D01*
X171917619Y-100309523D01*
X172012857Y-100357142D01*
X172155714Y-100357142D01*
X172250952Y-100309523D01*
X172298571Y-100261904D01*
X172346190Y-100166666D01*
X172346190Y-99785714D01*
X172155714Y-101214285D02*
X172822380Y-101214285D01*
X171774761Y-100976190D02*
X172489047Y-100738095D01*
X172489047Y-101357142D01*
X171822380Y-101928571D02*
X171822380Y-102023809D01*
X171870000Y-102119047D01*
X171917619Y-102166666D01*
X172012857Y-102214285D01*
X172203333Y-102261904D01*
X172441428Y-102261904D01*
X172631904Y-102214285D01*
X172727142Y-102166666D01*
X172774761Y-102119047D01*
X172822380Y-102023809D01*
X172822380Y-101928571D01*
X172774761Y-101833333D01*
X172727142Y-101785714D01*
X172631904Y-101738095D01*
X172441428Y-101690476D01*
X172203333Y-101690476D01*
X172012857Y-101738095D01*
X171917619Y-101785714D01*
X171870000Y-101833333D01*
X171822380Y-101928571D01*
X140552380Y-105357142D02*
X140076190Y-105023809D01*
X140552380Y-104785714D02*
X139552380Y-104785714D01*
X139552380Y-105166666D01*
X139600000Y-105261904D01*
X139647619Y-105309523D01*
X139742857Y-105357142D01*
X139885714Y-105357142D01*
X139980952Y-105309523D01*
X140028571Y-105261904D01*
X140076190Y-105166666D01*
X140076190Y-104785714D01*
X139552380Y-105690476D02*
X139552380Y-106309523D01*
X139933333Y-105976190D01*
X139933333Y-106119047D01*
X139980952Y-106214285D01*
X140028571Y-106261904D01*
X140123809Y-106309523D01*
X140361904Y-106309523D01*
X140457142Y-106261904D01*
X140504761Y-106214285D01*
X140552380Y-106119047D01*
X140552380Y-105833333D01*
X140504761Y-105738095D01*
X140457142Y-105690476D01*
X139980952Y-106880952D02*
X139933333Y-106785714D01*
X139885714Y-106738095D01*
X139790476Y-106690476D01*
X139742857Y-106690476D01*
X139647619Y-106738095D01*
X139600000Y-106785714D01*
X139552380Y-106880952D01*
X139552380Y-107071428D01*
X139600000Y-107166666D01*
X139647619Y-107214285D01*
X139742857Y-107261904D01*
X139790476Y-107261904D01*
X139885714Y-107214285D01*
X139933333Y-107166666D01*
X139980952Y-107071428D01*
X139980952Y-106880952D01*
X140028571Y-106785714D01*
X140076190Y-106738095D01*
X140171428Y-106690476D01*
X140361904Y-106690476D01*
X140457142Y-106738095D01*
X140504761Y-106785714D01*
X140552380Y-106880952D01*
X140552380Y-107071428D01*
X140504761Y-107166666D01*
X140457142Y-107214285D01*
X140361904Y-107261904D01*
X140171428Y-107261904D01*
X140076190Y-107214285D01*
X140028571Y-107166666D01*
X139980952Y-107071428D01*
X163952380Y-100357142D02*
X163476190Y-100023809D01*
X163952380Y-99785714D02*
X162952380Y-99785714D01*
X162952380Y-100166666D01*
X163000000Y-100261904D01*
X163047619Y-100309523D01*
X163142857Y-100357142D01*
X163285714Y-100357142D01*
X163380952Y-100309523D01*
X163428571Y-100261904D01*
X163476190Y-100166666D01*
X163476190Y-99785714D01*
X162952380Y-100690476D02*
X162952380Y-101309523D01*
X163333333Y-100976190D01*
X163333333Y-101119047D01*
X163380952Y-101214285D01*
X163428571Y-101261904D01*
X163523809Y-101309523D01*
X163761904Y-101309523D01*
X163857142Y-101261904D01*
X163904761Y-101214285D01*
X163952380Y-101119047D01*
X163952380Y-100833333D01*
X163904761Y-100738095D01*
X163857142Y-100690476D01*
X163047619Y-101690476D02*
X163000000Y-101738095D01*
X162952380Y-101833333D01*
X162952380Y-102071428D01*
X163000000Y-102166666D01*
X163047619Y-102214285D01*
X163142857Y-102261904D01*
X163238095Y-102261904D01*
X163380952Y-102214285D01*
X163952380Y-101642857D01*
X163952380Y-102261904D01*
X164002380Y-105437142D02*
X163526190Y-105103809D01*
X164002380Y-104865714D02*
X163002380Y-104865714D01*
X163002380Y-105246666D01*
X163050000Y-105341904D01*
X163097619Y-105389523D01*
X163192857Y-105437142D01*
X163335714Y-105437142D01*
X163430952Y-105389523D01*
X163478571Y-105341904D01*
X163526190Y-105246666D01*
X163526190Y-104865714D01*
X163097619Y-105818095D02*
X163050000Y-105865714D01*
X163002380Y-105960952D01*
X163002380Y-106199047D01*
X163050000Y-106294285D01*
X163097619Y-106341904D01*
X163192857Y-106389523D01*
X163288095Y-106389523D01*
X163430952Y-106341904D01*
X164002380Y-105770476D01*
X164002380Y-106389523D01*
X164002380Y-106865714D02*
X164002380Y-107056190D01*
X163954761Y-107151428D01*
X163907142Y-107199047D01*
X163764285Y-107294285D01*
X163573809Y-107341904D01*
X163192857Y-107341904D01*
X163097619Y-107294285D01*
X163050000Y-107246666D01*
X163002380Y-107151428D01*
X163002380Y-106960952D01*
X163050000Y-106865714D01*
X163097619Y-106818095D01*
X163192857Y-106770476D01*
X163430952Y-106770476D01*
X163526190Y-106818095D01*
X163573809Y-106865714D01*
X163621428Y-106960952D01*
X163621428Y-107151428D01*
X163573809Y-107246666D01*
X163526190Y-107294285D01*
X163430952Y-107341904D01*
X168222380Y-116967142D02*
X167746190Y-116633809D01*
X168222380Y-116395714D02*
X167222380Y-116395714D01*
X167222380Y-116776666D01*
X167270000Y-116871904D01*
X167317619Y-116919523D01*
X167412857Y-116967142D01*
X167555714Y-116967142D01*
X167650952Y-116919523D01*
X167698571Y-116871904D01*
X167746190Y-116776666D01*
X167746190Y-116395714D01*
X167317619Y-117348095D02*
X167270000Y-117395714D01*
X167222380Y-117490952D01*
X167222380Y-117729047D01*
X167270000Y-117824285D01*
X167317619Y-117871904D01*
X167412857Y-117919523D01*
X167508095Y-117919523D01*
X167650952Y-117871904D01*
X168222380Y-117300476D01*
X168222380Y-117919523D01*
X167650952Y-118490952D02*
X167603333Y-118395714D01*
X167555714Y-118348095D01*
X167460476Y-118300476D01*
X167412857Y-118300476D01*
X167317619Y-118348095D01*
X167270000Y-118395714D01*
X167222380Y-118490952D01*
X167222380Y-118681428D01*
X167270000Y-118776666D01*
X167317619Y-118824285D01*
X167412857Y-118871904D01*
X167460476Y-118871904D01*
X167555714Y-118824285D01*
X167603333Y-118776666D01*
X167650952Y-118681428D01*
X167650952Y-118490952D01*
X167698571Y-118395714D01*
X167746190Y-118348095D01*
X167841428Y-118300476D01*
X168031904Y-118300476D01*
X168127142Y-118348095D01*
X168174761Y-118395714D01*
X168222380Y-118490952D01*
X168222380Y-118681428D01*
X168174761Y-118776666D01*
X168127142Y-118824285D01*
X168031904Y-118871904D01*
X167841428Y-118871904D01*
X167746190Y-118824285D01*
X167698571Y-118776666D01*
X167650952Y-118681428D01*
X181052380Y-106057142D02*
X180576190Y-105723809D01*
X181052380Y-105485714D02*
X180052380Y-105485714D01*
X180052380Y-105866666D01*
X180100000Y-105961904D01*
X180147619Y-106009523D01*
X180242857Y-106057142D01*
X180385714Y-106057142D01*
X180480952Y-106009523D01*
X180528571Y-105961904D01*
X180576190Y-105866666D01*
X180576190Y-105485714D01*
X180147619Y-106438095D02*
X180100000Y-106485714D01*
X180052380Y-106580952D01*
X180052380Y-106819047D01*
X180100000Y-106914285D01*
X180147619Y-106961904D01*
X180242857Y-107009523D01*
X180338095Y-107009523D01*
X180480952Y-106961904D01*
X181052380Y-106390476D01*
X181052380Y-107009523D01*
X180052380Y-107866666D02*
X180052380Y-107676190D01*
X180100000Y-107580952D01*
X180147619Y-107533333D01*
X180290476Y-107438095D01*
X180480952Y-107390476D01*
X180861904Y-107390476D01*
X180957142Y-107438095D01*
X181004761Y-107485714D01*
X181052380Y-107580952D01*
X181052380Y-107771428D01*
X181004761Y-107866666D01*
X180957142Y-107914285D01*
X180861904Y-107961904D01*
X180623809Y-107961904D01*
X180528571Y-107914285D01*
X180480952Y-107866666D01*
X180433333Y-107771428D01*
X180433333Y-107580952D01*
X180480952Y-107485714D01*
X180528571Y-107438095D01*
X180623809Y-107390476D01*
X177652380Y-106257142D02*
X177176190Y-105923809D01*
X177652380Y-105685714D02*
X176652380Y-105685714D01*
X176652380Y-106066666D01*
X176700000Y-106161904D01*
X176747619Y-106209523D01*
X176842857Y-106257142D01*
X176985714Y-106257142D01*
X177080952Y-106209523D01*
X177128571Y-106161904D01*
X177176190Y-106066666D01*
X177176190Y-105685714D01*
X176747619Y-106638095D02*
X176700000Y-106685714D01*
X176652380Y-106780952D01*
X176652380Y-107019047D01*
X176700000Y-107114285D01*
X176747619Y-107161904D01*
X176842857Y-107209523D01*
X176938095Y-107209523D01*
X177080952Y-107161904D01*
X177652380Y-106590476D01*
X177652380Y-107209523D01*
X176652380Y-108114285D02*
X176652380Y-107638095D01*
X177128571Y-107590476D01*
X177080952Y-107638095D01*
X177033333Y-107733333D01*
X177033333Y-107971428D01*
X177080952Y-108066666D01*
X177128571Y-108114285D01*
X177223809Y-108161904D01*
X177461904Y-108161904D01*
X177557142Y-108114285D01*
X177604761Y-108066666D01*
X177652380Y-107971428D01*
X177652380Y-107733333D01*
X177604761Y-107638095D01*
X177557142Y-107590476D01*
X184702380Y-100407142D02*
X184226190Y-100073809D01*
X184702380Y-99835714D02*
X183702380Y-99835714D01*
X183702380Y-100216666D01*
X183750000Y-100311904D01*
X183797619Y-100359523D01*
X183892857Y-100407142D01*
X184035714Y-100407142D01*
X184130952Y-100359523D01*
X184178571Y-100311904D01*
X184226190Y-100216666D01*
X184226190Y-99835714D01*
X183797619Y-100788095D02*
X183750000Y-100835714D01*
X183702380Y-100930952D01*
X183702380Y-101169047D01*
X183750000Y-101264285D01*
X183797619Y-101311904D01*
X183892857Y-101359523D01*
X183988095Y-101359523D01*
X184130952Y-101311904D01*
X184702380Y-100740476D01*
X184702380Y-101359523D01*
X184035714Y-102216666D02*
X184702380Y-102216666D01*
X183654761Y-101978571D02*
X184369047Y-101740476D01*
X184369047Y-102359523D01*
X198702380Y-111957142D02*
X198226190Y-111623809D01*
X198702380Y-111385714D02*
X197702380Y-111385714D01*
X197702380Y-111766666D01*
X197750000Y-111861904D01*
X197797619Y-111909523D01*
X197892857Y-111957142D01*
X198035714Y-111957142D01*
X198130952Y-111909523D01*
X198178571Y-111861904D01*
X198226190Y-111766666D01*
X198226190Y-111385714D01*
X197797619Y-112338095D02*
X197750000Y-112385714D01*
X197702380Y-112480952D01*
X197702380Y-112719047D01*
X197750000Y-112814285D01*
X197797619Y-112861904D01*
X197892857Y-112909523D01*
X197988095Y-112909523D01*
X198130952Y-112861904D01*
X198702380Y-112290476D01*
X198702380Y-112909523D01*
X197702380Y-113528571D02*
X197702380Y-113623809D01*
X197750000Y-113719047D01*
X197797619Y-113766666D01*
X197892857Y-113814285D01*
X198083333Y-113861904D01*
X198321428Y-113861904D01*
X198511904Y-113814285D01*
X198607142Y-113766666D01*
X198654761Y-113719047D01*
X198702380Y-113623809D01*
X198702380Y-113528571D01*
X198654761Y-113433333D01*
X198607142Y-113385714D01*
X198511904Y-113338095D01*
X198321428Y-113290476D01*
X198083333Y-113290476D01*
X197892857Y-113338095D01*
X197797619Y-113385714D01*
X197750000Y-113433333D01*
X197702380Y-113528571D01*
X188252380Y-105357142D02*
X187776190Y-105023809D01*
X188252380Y-104785714D02*
X187252380Y-104785714D01*
X187252380Y-105166666D01*
X187300000Y-105261904D01*
X187347619Y-105309523D01*
X187442857Y-105357142D01*
X187585714Y-105357142D01*
X187680952Y-105309523D01*
X187728571Y-105261904D01*
X187776190Y-105166666D01*
X187776190Y-104785714D01*
X188252380Y-106309523D02*
X188252380Y-105738095D01*
X188252380Y-106023809D02*
X187252380Y-106023809D01*
X187395238Y-105928571D01*
X187490476Y-105833333D01*
X187538095Y-105738095D01*
X188252380Y-106785714D02*
X188252380Y-106976190D01*
X188204761Y-107071428D01*
X188157142Y-107119047D01*
X188014285Y-107214285D01*
X187823809Y-107261904D01*
X187442857Y-107261904D01*
X187347619Y-107214285D01*
X187300000Y-107166666D01*
X187252380Y-107071428D01*
X187252380Y-106880952D01*
X187300000Y-106785714D01*
X187347619Y-106738095D01*
X187442857Y-106690476D01*
X187680952Y-106690476D01*
X187776190Y-106738095D01*
X187823809Y-106785714D01*
X187871428Y-106880952D01*
X187871428Y-107071428D01*
X187823809Y-107166666D01*
X187776190Y-107214285D01*
X187680952Y-107261904D01*
X191782380Y-100407142D02*
X191306190Y-100073809D01*
X191782380Y-99835714D02*
X190782380Y-99835714D01*
X190782380Y-100216666D01*
X190830000Y-100311904D01*
X190877619Y-100359523D01*
X190972857Y-100407142D01*
X191115714Y-100407142D01*
X191210952Y-100359523D01*
X191258571Y-100311904D01*
X191306190Y-100216666D01*
X191306190Y-99835714D01*
X191782380Y-101359523D02*
X191782380Y-100788095D01*
X191782380Y-101073809D02*
X190782380Y-101073809D01*
X190925238Y-100978571D01*
X191020476Y-100883333D01*
X191068095Y-100788095D01*
X190782380Y-102216666D02*
X190782380Y-102026190D01*
X190830000Y-101930952D01*
X190877619Y-101883333D01*
X191020476Y-101788095D01*
X191210952Y-101740476D01*
X191591904Y-101740476D01*
X191687142Y-101788095D01*
X191734761Y-101835714D01*
X191782380Y-101930952D01*
X191782380Y-102121428D01*
X191734761Y-102216666D01*
X191687142Y-102264285D01*
X191591904Y-102311904D01*
X191353809Y-102311904D01*
X191258571Y-102264285D01*
X191210952Y-102216666D01*
X191163333Y-102121428D01*
X191163333Y-101930952D01*
X191210952Y-101835714D01*
X191258571Y-101788095D01*
X191353809Y-101740476D01*
X198652380Y-100357142D02*
X198176190Y-100023809D01*
X198652380Y-99785714D02*
X197652380Y-99785714D01*
X197652380Y-100166666D01*
X197700000Y-100261904D01*
X197747619Y-100309523D01*
X197842857Y-100357142D01*
X197985714Y-100357142D01*
X198080952Y-100309523D01*
X198128571Y-100261904D01*
X198176190Y-100166666D01*
X198176190Y-99785714D01*
X198652380Y-101309523D02*
X198652380Y-100738095D01*
X198652380Y-101023809D02*
X197652380Y-101023809D01*
X197795238Y-100928571D01*
X197890476Y-100833333D01*
X197938095Y-100738095D01*
X197652380Y-102214285D02*
X197652380Y-101738095D01*
X198128571Y-101690476D01*
X198080952Y-101738095D01*
X198033333Y-101833333D01*
X198033333Y-102071428D01*
X198080952Y-102166666D01*
X198128571Y-102214285D01*
X198223809Y-102261904D01*
X198461904Y-102261904D01*
X198557142Y-102214285D01*
X198604761Y-102166666D01*
X198652380Y-102071428D01*
X198652380Y-101833333D01*
X198604761Y-101738095D01*
X198557142Y-101690476D01*
X195352380Y-100407142D02*
X194876190Y-100073809D01*
X195352380Y-99835714D02*
X194352380Y-99835714D01*
X194352380Y-100216666D01*
X194400000Y-100311904D01*
X194447619Y-100359523D01*
X194542857Y-100407142D01*
X194685714Y-100407142D01*
X194780952Y-100359523D01*
X194828571Y-100311904D01*
X194876190Y-100216666D01*
X194876190Y-99835714D01*
X195352380Y-101359523D02*
X195352380Y-100788095D01*
X195352380Y-101073809D02*
X194352380Y-101073809D01*
X194495238Y-100978571D01*
X194590476Y-100883333D01*
X194638095Y-100788095D01*
X194685714Y-102216666D02*
X195352380Y-102216666D01*
X194304761Y-101978571D02*
X195019047Y-101740476D01*
X195019047Y-102359523D01*
X198702380Y-105357142D02*
X198226190Y-105023809D01*
X198702380Y-104785714D02*
X197702380Y-104785714D01*
X197702380Y-105166666D01*
X197750000Y-105261904D01*
X197797619Y-105309523D01*
X197892857Y-105357142D01*
X198035714Y-105357142D01*
X198130952Y-105309523D01*
X198178571Y-105261904D01*
X198226190Y-105166666D01*
X198226190Y-104785714D01*
X198702380Y-106309523D02*
X198702380Y-105738095D01*
X198702380Y-106023809D02*
X197702380Y-106023809D01*
X197845238Y-105928571D01*
X197940476Y-105833333D01*
X197988095Y-105738095D01*
X197702380Y-106928571D02*
X197702380Y-107023809D01*
X197750000Y-107119047D01*
X197797619Y-107166666D01*
X197892857Y-107214285D01*
X198083333Y-107261904D01*
X198321428Y-107261904D01*
X198511904Y-107214285D01*
X198607142Y-107166666D01*
X198654761Y-107119047D01*
X198702380Y-107023809D01*
X198702380Y-106928571D01*
X198654761Y-106833333D01*
X198607142Y-106785714D01*
X198511904Y-106738095D01*
X198321428Y-106690476D01*
X198083333Y-106690476D01*
X197892857Y-106738095D01*
X197797619Y-106785714D01*
X197750000Y-106833333D01*
X197702380Y-106928571D01*
X171752380Y-111133333D02*
X171276190Y-110800000D01*
X171752380Y-110561904D02*
X170752380Y-110561904D01*
X170752380Y-110942857D01*
X170800000Y-111038095D01*
X170847619Y-111085714D01*
X170942857Y-111133333D01*
X171085714Y-111133333D01*
X171180952Y-111085714D01*
X171228571Y-111038095D01*
X171276190Y-110942857D01*
X171276190Y-110561904D01*
X171180952Y-111704761D02*
X171133333Y-111609523D01*
X171085714Y-111561904D01*
X170990476Y-111514285D01*
X170942857Y-111514285D01*
X170847619Y-111561904D01*
X170800000Y-111609523D01*
X170752380Y-111704761D01*
X170752380Y-111895238D01*
X170800000Y-111990476D01*
X170847619Y-112038095D01*
X170942857Y-112085714D01*
X170990476Y-112085714D01*
X171085714Y-112038095D01*
X171133333Y-111990476D01*
X171180952Y-111895238D01*
X171180952Y-111704761D01*
X171228571Y-111609523D01*
X171276190Y-111561904D01*
X171371428Y-111514285D01*
X171561904Y-111514285D01*
X171657142Y-111561904D01*
X171704761Y-111609523D01*
X171752380Y-111704761D01*
X171752380Y-111895238D01*
X171704761Y-111990476D01*
X171657142Y-112038095D01*
X171561904Y-112085714D01*
X171371428Y-112085714D01*
X171276190Y-112038095D01*
X171228571Y-111990476D01*
X171180952Y-111895238D01*
X155567142Y-101377142D02*
X155614761Y-101329523D01*
X155662380Y-101186666D01*
X155662380Y-101091428D01*
X155614761Y-100948571D01*
X155519523Y-100853333D01*
X155424285Y-100805714D01*
X155233809Y-100758095D01*
X155090952Y-100758095D01*
X154900476Y-100805714D01*
X154805238Y-100853333D01*
X154710000Y-100948571D01*
X154662380Y-101091428D01*
X154662380Y-101186666D01*
X154710000Y-101329523D01*
X154757619Y-101377142D01*
X154995714Y-102234285D02*
X155662380Y-102234285D01*
X154614761Y-101996190D02*
X155329047Y-101758095D01*
X155329047Y-102377142D01*
X155662380Y-102805714D02*
X155662380Y-102996190D01*
X155614761Y-103091428D01*
X155567142Y-103139047D01*
X155424285Y-103234285D01*
X155233809Y-103281904D01*
X154852857Y-103281904D01*
X154757619Y-103234285D01*
X154710000Y-103186666D01*
X154662380Y-103091428D01*
X154662380Y-102900952D01*
X154710000Y-102805714D01*
X154757619Y-102758095D01*
X154852857Y-102710476D01*
X155090952Y-102710476D01*
X155186190Y-102758095D01*
X155233809Y-102805714D01*
X155281428Y-102900952D01*
X155281428Y-103091428D01*
X155233809Y-103186666D01*
X155186190Y-103234285D01*
X155090952Y-103281904D01*
X142277142Y-111257142D02*
X142324761Y-111209523D01*
X142372380Y-111066666D01*
X142372380Y-110971428D01*
X142324761Y-110828571D01*
X142229523Y-110733333D01*
X142134285Y-110685714D01*
X141943809Y-110638095D01*
X141800952Y-110638095D01*
X141610476Y-110685714D01*
X141515238Y-110733333D01*
X141420000Y-110828571D01*
X141372380Y-110971428D01*
X141372380Y-111066666D01*
X141420000Y-111209523D01*
X141467619Y-111257142D01*
X141705714Y-112114285D02*
X142372380Y-112114285D01*
X141324761Y-111876190D02*
X142039047Y-111638095D01*
X142039047Y-112257142D01*
X141800952Y-112780952D02*
X141753333Y-112685714D01*
X141705714Y-112638095D01*
X141610476Y-112590476D01*
X141562857Y-112590476D01*
X141467619Y-112638095D01*
X141420000Y-112685714D01*
X141372380Y-112780952D01*
X141372380Y-112971428D01*
X141420000Y-113066666D01*
X141467619Y-113114285D01*
X141562857Y-113161904D01*
X141610476Y-113161904D01*
X141705714Y-113114285D01*
X141753333Y-113066666D01*
X141800952Y-112971428D01*
X141800952Y-112780952D01*
X141848571Y-112685714D01*
X141896190Y-112638095D01*
X141991428Y-112590476D01*
X142181904Y-112590476D01*
X142277142Y-112638095D01*
X142324761Y-112685714D01*
X142372380Y-112780952D01*
X142372380Y-112971428D01*
X142324761Y-113066666D01*
X142277142Y-113114285D01*
X142181904Y-113161904D01*
X141991428Y-113161904D01*
X141896190Y-113114285D01*
X141848571Y-113066666D01*
X141800952Y-112971428D01*
X155242857Y-120957142D02*
X155290476Y-121004761D01*
X155433333Y-121052380D01*
X155528571Y-121052380D01*
X155671428Y-121004761D01*
X155766666Y-120909523D01*
X155814285Y-120814285D01*
X155861904Y-120623809D01*
X155861904Y-120480952D01*
X155814285Y-120290476D01*
X155766666Y-120195238D01*
X155671428Y-120100000D01*
X155528571Y-120052380D01*
X155433333Y-120052380D01*
X155290476Y-120100000D01*
X155242857Y-120147619D01*
X154385714Y-120385714D02*
X154385714Y-121052380D01*
X154623809Y-120004761D02*
X154861904Y-120719047D01*
X154242857Y-120719047D01*
X153385714Y-120052380D02*
X153861904Y-120052380D01*
X153909523Y-120528571D01*
X153861904Y-120480952D01*
X153766666Y-120433333D01*
X153528571Y-120433333D01*
X153433333Y-120480952D01*
X153385714Y-120528571D01*
X153338095Y-120623809D01*
X153338095Y-120861904D01*
X153385714Y-120957142D01*
X153433333Y-121004761D01*
X153528571Y-121052380D01*
X153766666Y-121052380D01*
X153861904Y-121004761D01*
X153909523Y-120957142D01*
X147857142Y-111287142D02*
X147904761Y-111239523D01*
X147952380Y-111096666D01*
X147952380Y-111001428D01*
X147904761Y-110858571D01*
X147809523Y-110763333D01*
X147714285Y-110715714D01*
X147523809Y-110668095D01*
X147380952Y-110668095D01*
X147190476Y-110715714D01*
X147095238Y-110763333D01*
X147000000Y-110858571D01*
X146952380Y-111001428D01*
X146952380Y-111096666D01*
X147000000Y-111239523D01*
X147047619Y-111287142D01*
X147285714Y-112144285D02*
X147952380Y-112144285D01*
X146904761Y-111906190D02*
X147619047Y-111668095D01*
X147619047Y-112287142D01*
X147285714Y-113096666D02*
X147952380Y-113096666D01*
X146904761Y-112858571D02*
X147619047Y-112620476D01*
X147619047Y-113239523D01*
X135542857Y-120957142D02*
X135590476Y-121004761D01*
X135733333Y-121052380D01*
X135828571Y-121052380D01*
X135971428Y-121004761D01*
X136066666Y-120909523D01*
X136114285Y-120814285D01*
X136161904Y-120623809D01*
X136161904Y-120480952D01*
X136114285Y-120290476D01*
X136066666Y-120195238D01*
X135971428Y-120100000D01*
X135828571Y-120052380D01*
X135733333Y-120052380D01*
X135590476Y-120100000D01*
X135542857Y-120147619D01*
X134685714Y-120385714D02*
X134685714Y-121052380D01*
X134923809Y-120004761D02*
X135161904Y-120719047D01*
X134542857Y-120719047D01*
X134257142Y-120052380D02*
X133638095Y-120052380D01*
X133971428Y-120433333D01*
X133828571Y-120433333D01*
X133733333Y-120480952D01*
X133685714Y-120528571D01*
X133638095Y-120623809D01*
X133638095Y-120861904D01*
X133685714Y-120957142D01*
X133733333Y-121004761D01*
X133828571Y-121052380D01*
X134114285Y-121052380D01*
X134209523Y-121004761D01*
X134257142Y-120957142D01*
X151642857Y-120957142D02*
X151690476Y-121004761D01*
X151833333Y-121052380D01*
X151928571Y-121052380D01*
X152071428Y-121004761D01*
X152166666Y-120909523D01*
X152214285Y-120814285D01*
X152261904Y-120623809D01*
X152261904Y-120480952D01*
X152214285Y-120290476D01*
X152166666Y-120195238D01*
X152071428Y-120100000D01*
X151928571Y-120052380D01*
X151833333Y-120052380D01*
X151690476Y-120100000D01*
X151642857Y-120147619D01*
X150785714Y-120385714D02*
X150785714Y-121052380D01*
X151023809Y-120004761D02*
X151261904Y-120719047D01*
X150642857Y-120719047D01*
X150309523Y-120147619D02*
X150261904Y-120100000D01*
X150166666Y-120052380D01*
X149928571Y-120052380D01*
X149833333Y-120100000D01*
X149785714Y-120147619D01*
X149738095Y-120242857D01*
X149738095Y-120338095D01*
X149785714Y-120480952D01*
X150357142Y-121052380D01*
X149738095Y-121052380D01*
X161457142Y-117357142D02*
X161504761Y-117309523D01*
X161552380Y-117166666D01*
X161552380Y-117071428D01*
X161504761Y-116928571D01*
X161409523Y-116833333D01*
X161314285Y-116785714D01*
X161123809Y-116738095D01*
X160980952Y-116738095D01*
X160790476Y-116785714D01*
X160695238Y-116833333D01*
X160600000Y-116928571D01*
X160552380Y-117071428D01*
X160552380Y-117166666D01*
X160600000Y-117309523D01*
X160647619Y-117357142D01*
X160885714Y-118214285D02*
X161552380Y-118214285D01*
X160504761Y-117976190D02*
X161219047Y-117738095D01*
X161219047Y-118357142D01*
X161552380Y-119261904D02*
X161552380Y-118690476D01*
X161552380Y-118976190D02*
X160552380Y-118976190D01*
X160695238Y-118880952D01*
X160790476Y-118785714D01*
X160838095Y-118690476D01*
X147317142Y-100377142D02*
X147364761Y-100329523D01*
X147412380Y-100186666D01*
X147412380Y-100091428D01*
X147364761Y-99948571D01*
X147269523Y-99853333D01*
X147174285Y-99805714D01*
X146983809Y-99758095D01*
X146840952Y-99758095D01*
X146650476Y-99805714D01*
X146555238Y-99853333D01*
X146460000Y-99948571D01*
X146412380Y-100091428D01*
X146412380Y-100186666D01*
X146460000Y-100329523D01*
X146507619Y-100377142D01*
X146412380Y-100710476D02*
X146412380Y-101329523D01*
X146793333Y-100996190D01*
X146793333Y-101139047D01*
X146840952Y-101234285D01*
X146888571Y-101281904D01*
X146983809Y-101329523D01*
X147221904Y-101329523D01*
X147317142Y-101281904D01*
X147364761Y-101234285D01*
X147412380Y-101139047D01*
X147412380Y-100853333D01*
X147364761Y-100758095D01*
X147317142Y-100710476D01*
X147412380Y-101805714D02*
X147412380Y-101996190D01*
X147364761Y-102091428D01*
X147317142Y-102139047D01*
X147174285Y-102234285D01*
X146983809Y-102281904D01*
X146602857Y-102281904D01*
X146507619Y-102234285D01*
X146460000Y-102186666D01*
X146412380Y-102091428D01*
X146412380Y-101900952D01*
X146460000Y-101805714D01*
X146507619Y-101758095D01*
X146602857Y-101710476D01*
X146840952Y-101710476D01*
X146936190Y-101758095D01*
X146983809Y-101805714D01*
X147031428Y-101900952D01*
X147031428Y-102091428D01*
X146983809Y-102186666D01*
X146936190Y-102234285D01*
X146840952Y-102281904D01*
X135857142Y-100857142D02*
X135904761Y-100809523D01*
X135952380Y-100666666D01*
X135952380Y-100571428D01*
X135904761Y-100428571D01*
X135809523Y-100333333D01*
X135714285Y-100285714D01*
X135523809Y-100238095D01*
X135380952Y-100238095D01*
X135190476Y-100285714D01*
X135095238Y-100333333D01*
X135000000Y-100428571D01*
X134952380Y-100571428D01*
X134952380Y-100666666D01*
X135000000Y-100809523D01*
X135047619Y-100857142D01*
X134952380Y-101190476D02*
X134952380Y-101809523D01*
X135333333Y-101476190D01*
X135333333Y-101619047D01*
X135380952Y-101714285D01*
X135428571Y-101761904D01*
X135523809Y-101809523D01*
X135761904Y-101809523D01*
X135857142Y-101761904D01*
X135904761Y-101714285D01*
X135952380Y-101619047D01*
X135952380Y-101333333D01*
X135904761Y-101238095D01*
X135857142Y-101190476D01*
X134952380Y-102714285D02*
X134952380Y-102238095D01*
X135428571Y-102190476D01*
X135380952Y-102238095D01*
X135333333Y-102333333D01*
X135333333Y-102571428D01*
X135380952Y-102666666D01*
X135428571Y-102714285D01*
X135523809Y-102761904D01*
X135761904Y-102761904D01*
X135857142Y-102714285D01*
X135904761Y-102666666D01*
X135952380Y-102571428D01*
X135952380Y-102333333D01*
X135904761Y-102238095D01*
X135857142Y-102190476D01*
X160697142Y-100377142D02*
X160744761Y-100329523D01*
X160792380Y-100186666D01*
X160792380Y-100091428D01*
X160744761Y-99948571D01*
X160649523Y-99853333D01*
X160554285Y-99805714D01*
X160363809Y-99758095D01*
X160220952Y-99758095D01*
X160030476Y-99805714D01*
X159935238Y-99853333D01*
X159840000Y-99948571D01*
X159792380Y-100091428D01*
X159792380Y-100186666D01*
X159840000Y-100329523D01*
X159887619Y-100377142D01*
X159792380Y-100710476D02*
X159792380Y-101329523D01*
X160173333Y-100996190D01*
X160173333Y-101139047D01*
X160220952Y-101234285D01*
X160268571Y-101281904D01*
X160363809Y-101329523D01*
X160601904Y-101329523D01*
X160697142Y-101281904D01*
X160744761Y-101234285D01*
X160792380Y-101139047D01*
X160792380Y-100853333D01*
X160744761Y-100758095D01*
X160697142Y-100710476D01*
X160792380Y-102281904D02*
X160792380Y-101710476D01*
X160792380Y-101996190D02*
X159792380Y-101996190D01*
X159935238Y-101900952D01*
X160030476Y-101805714D01*
X160078095Y-101710476D01*
X160687142Y-105357142D02*
X160734761Y-105309523D01*
X160782380Y-105166666D01*
X160782380Y-105071428D01*
X160734761Y-104928571D01*
X160639523Y-104833333D01*
X160544285Y-104785714D01*
X160353809Y-104738095D01*
X160210952Y-104738095D01*
X160020476Y-104785714D01*
X159925238Y-104833333D01*
X159830000Y-104928571D01*
X159782380Y-105071428D01*
X159782380Y-105166666D01*
X159830000Y-105309523D01*
X159877619Y-105357142D01*
X159877619Y-105738095D02*
X159830000Y-105785714D01*
X159782380Y-105880952D01*
X159782380Y-106119047D01*
X159830000Y-106214285D01*
X159877619Y-106261904D01*
X159972857Y-106309523D01*
X160068095Y-106309523D01*
X160210952Y-106261904D01*
X160782380Y-105690476D01*
X160782380Y-106309523D01*
X160210952Y-106880952D02*
X160163333Y-106785714D01*
X160115714Y-106738095D01*
X160020476Y-106690476D01*
X159972857Y-106690476D01*
X159877619Y-106738095D01*
X159830000Y-106785714D01*
X159782380Y-106880952D01*
X159782380Y-107071428D01*
X159830000Y-107166666D01*
X159877619Y-107214285D01*
X159972857Y-107261904D01*
X160020476Y-107261904D01*
X160115714Y-107214285D01*
X160163333Y-107166666D01*
X160210952Y-107071428D01*
X160210952Y-106880952D01*
X160258571Y-106785714D01*
X160306190Y-106738095D01*
X160401428Y-106690476D01*
X160591904Y-106690476D01*
X160687142Y-106738095D01*
X160734761Y-106785714D01*
X160782380Y-106880952D01*
X160782380Y-107071428D01*
X160734761Y-107166666D01*
X160687142Y-107214285D01*
X160591904Y-107261904D01*
X160401428Y-107261904D01*
X160306190Y-107214285D01*
X160258571Y-107166666D01*
X160210952Y-107071428D01*
X181107142Y-100407142D02*
X181154761Y-100359523D01*
X181202380Y-100216666D01*
X181202380Y-100121428D01*
X181154761Y-99978571D01*
X181059523Y-99883333D01*
X180964285Y-99835714D01*
X180773809Y-99788095D01*
X180630952Y-99788095D01*
X180440476Y-99835714D01*
X180345238Y-99883333D01*
X180250000Y-99978571D01*
X180202380Y-100121428D01*
X180202380Y-100216666D01*
X180250000Y-100359523D01*
X180297619Y-100407142D01*
X180297619Y-100788095D02*
X180250000Y-100835714D01*
X180202380Y-100930952D01*
X180202380Y-101169047D01*
X180250000Y-101264285D01*
X180297619Y-101311904D01*
X180392857Y-101359523D01*
X180488095Y-101359523D01*
X180630952Y-101311904D01*
X181202380Y-100740476D01*
X181202380Y-101359523D01*
X180202380Y-101692857D02*
X180202380Y-102359523D01*
X181202380Y-101930952D01*
X193607142Y-112157142D02*
X193654761Y-112109523D01*
X193702380Y-111966666D01*
X193702380Y-111871428D01*
X193654761Y-111728571D01*
X193559523Y-111633333D01*
X193464285Y-111585714D01*
X193273809Y-111538095D01*
X193130952Y-111538095D01*
X192940476Y-111585714D01*
X192845238Y-111633333D01*
X192750000Y-111728571D01*
X192702380Y-111871428D01*
X192702380Y-111966666D01*
X192750000Y-112109523D01*
X192797619Y-112157142D01*
X192797619Y-112538095D02*
X192750000Y-112585714D01*
X192702380Y-112680952D01*
X192702380Y-112919047D01*
X192750000Y-113014285D01*
X192797619Y-113061904D01*
X192892857Y-113109523D01*
X192988095Y-113109523D01*
X193130952Y-113061904D01*
X193702380Y-112490476D01*
X193702380Y-113109523D01*
X192702380Y-113966666D02*
X192702380Y-113776190D01*
X192750000Y-113680952D01*
X192797619Y-113633333D01*
X192940476Y-113538095D01*
X193130952Y-113490476D01*
X193511904Y-113490476D01*
X193607142Y-113538095D01*
X193654761Y-113585714D01*
X193702380Y-113680952D01*
X193702380Y-113871428D01*
X193654761Y-113966666D01*
X193607142Y-114014285D01*
X193511904Y-114061904D01*
X193273809Y-114061904D01*
X193178571Y-114014285D01*
X193130952Y-113966666D01*
X193083333Y-113871428D01*
X193083333Y-113680952D01*
X193130952Y-113585714D01*
X193178571Y-113538095D01*
X193273809Y-113490476D01*
X184607142Y-105357142D02*
X184654761Y-105309523D01*
X184702380Y-105166666D01*
X184702380Y-105071428D01*
X184654761Y-104928571D01*
X184559523Y-104833333D01*
X184464285Y-104785714D01*
X184273809Y-104738095D01*
X184130952Y-104738095D01*
X183940476Y-104785714D01*
X183845238Y-104833333D01*
X183750000Y-104928571D01*
X183702380Y-105071428D01*
X183702380Y-105166666D01*
X183750000Y-105309523D01*
X183797619Y-105357142D01*
X183797619Y-105738095D02*
X183750000Y-105785714D01*
X183702380Y-105880952D01*
X183702380Y-106119047D01*
X183750000Y-106214285D01*
X183797619Y-106261904D01*
X183892857Y-106309523D01*
X183988095Y-106309523D01*
X184130952Y-106261904D01*
X184702380Y-105690476D01*
X184702380Y-106309523D01*
X184035714Y-107166666D02*
X184702380Y-107166666D01*
X183654761Y-106928571D02*
X184369047Y-106690476D01*
X184369047Y-107309523D01*
X168257142Y-98357142D02*
X168304761Y-98309523D01*
X168352380Y-98166666D01*
X168352380Y-98071428D01*
X168304761Y-97928571D01*
X168209523Y-97833333D01*
X168114285Y-97785714D01*
X167923809Y-97738095D01*
X167780952Y-97738095D01*
X167590476Y-97785714D01*
X167495238Y-97833333D01*
X167400000Y-97928571D01*
X167352380Y-98071428D01*
X167352380Y-98166666D01*
X167400000Y-98309523D01*
X167447619Y-98357142D01*
X167447619Y-98738095D02*
X167400000Y-98785714D01*
X167352380Y-98880952D01*
X167352380Y-99119047D01*
X167400000Y-99214285D01*
X167447619Y-99261904D01*
X167542857Y-99309523D01*
X167638095Y-99309523D01*
X167780952Y-99261904D01*
X168352380Y-98690476D01*
X168352380Y-99309523D01*
X167352380Y-99642857D02*
X167352380Y-100261904D01*
X167733333Y-99928571D01*
X167733333Y-100071428D01*
X167780952Y-100166666D01*
X167828571Y-100214285D01*
X167923809Y-100261904D01*
X168161904Y-100261904D01*
X168257142Y-100214285D01*
X168304761Y-100166666D01*
X168352380Y-100071428D01*
X168352380Y-99785714D01*
X168304761Y-99690476D01*
X168257142Y-99642857D01*
X201757142Y-111957142D02*
X201804761Y-111909523D01*
X201852380Y-111766666D01*
X201852380Y-111671428D01*
X201804761Y-111528571D01*
X201709523Y-111433333D01*
X201614285Y-111385714D01*
X201423809Y-111338095D01*
X201280952Y-111338095D01*
X201090476Y-111385714D01*
X200995238Y-111433333D01*
X200900000Y-111528571D01*
X200852380Y-111671428D01*
X200852380Y-111766666D01*
X200900000Y-111909523D01*
X200947619Y-111957142D01*
X200947619Y-112338095D02*
X200900000Y-112385714D01*
X200852380Y-112480952D01*
X200852380Y-112719047D01*
X200900000Y-112814285D01*
X200947619Y-112861904D01*
X201042857Y-112909523D01*
X201138095Y-112909523D01*
X201280952Y-112861904D01*
X201852380Y-112290476D01*
X201852380Y-112909523D01*
X201852380Y-113861904D02*
X201852380Y-113290476D01*
X201852380Y-113576190D02*
X200852380Y-113576190D01*
X200995238Y-113480952D01*
X201090476Y-113385714D01*
X201138095Y-113290476D01*
X188157142Y-100407142D02*
X188204761Y-100359523D01*
X188252380Y-100216666D01*
X188252380Y-100121428D01*
X188204761Y-99978571D01*
X188109523Y-99883333D01*
X188014285Y-99835714D01*
X187823809Y-99788095D01*
X187680952Y-99788095D01*
X187490476Y-99835714D01*
X187395238Y-99883333D01*
X187300000Y-99978571D01*
X187252380Y-100121428D01*
X187252380Y-100216666D01*
X187300000Y-100359523D01*
X187347619Y-100407142D01*
X187347619Y-100788095D02*
X187300000Y-100835714D01*
X187252380Y-100930952D01*
X187252380Y-101169047D01*
X187300000Y-101264285D01*
X187347619Y-101311904D01*
X187442857Y-101359523D01*
X187538095Y-101359523D01*
X187680952Y-101311904D01*
X188252380Y-100740476D01*
X188252380Y-101359523D01*
X187252380Y-101978571D02*
X187252380Y-102073809D01*
X187300000Y-102169047D01*
X187347619Y-102216666D01*
X187442857Y-102264285D01*
X187633333Y-102311904D01*
X187871428Y-102311904D01*
X188061904Y-102264285D01*
X188157142Y-102216666D01*
X188204761Y-102169047D01*
X188252380Y-102073809D01*
X188252380Y-101978571D01*
X188204761Y-101883333D01*
X188157142Y-101835714D01*
X188061904Y-101788095D01*
X187871428Y-101740476D01*
X187633333Y-101740476D01*
X187442857Y-101788095D01*
X187347619Y-101835714D01*
X187300000Y-101883333D01*
X187252380Y-101978571D01*
X201757142Y-105332142D02*
X201804761Y-105284523D01*
X201852380Y-105141666D01*
X201852380Y-105046428D01*
X201804761Y-104903571D01*
X201709523Y-104808333D01*
X201614285Y-104760714D01*
X201423809Y-104713095D01*
X201280952Y-104713095D01*
X201090476Y-104760714D01*
X200995238Y-104808333D01*
X200900000Y-104903571D01*
X200852380Y-105046428D01*
X200852380Y-105141666D01*
X200900000Y-105284523D01*
X200947619Y-105332142D01*
X201852380Y-106284523D02*
X201852380Y-105713095D01*
X201852380Y-105998809D02*
X200852380Y-105998809D01*
X200995238Y-105903571D01*
X201090476Y-105808333D01*
X201138095Y-105713095D01*
X201852380Y-106760714D02*
X201852380Y-106951190D01*
X201804761Y-107046428D01*
X201757142Y-107094047D01*
X201614285Y-107189285D01*
X201423809Y-107236904D01*
X201042857Y-107236904D01*
X200947619Y-107189285D01*
X200900000Y-107141666D01*
X200852380Y-107046428D01*
X200852380Y-106855952D01*
X200900000Y-106760714D01*
X200947619Y-106713095D01*
X201042857Y-106665476D01*
X201280952Y-106665476D01*
X201376190Y-106713095D01*
X201423809Y-106760714D01*
X201471428Y-106855952D01*
X201471428Y-107046428D01*
X201423809Y-107141666D01*
X201376190Y-107189285D01*
X201280952Y-107236904D01*
X191447142Y-105947142D02*
X191494761Y-105899523D01*
X191542380Y-105756666D01*
X191542380Y-105661428D01*
X191494761Y-105518571D01*
X191399523Y-105423333D01*
X191304285Y-105375714D01*
X191113809Y-105328095D01*
X190970952Y-105328095D01*
X190780476Y-105375714D01*
X190685238Y-105423333D01*
X190590000Y-105518571D01*
X190542380Y-105661428D01*
X190542380Y-105756666D01*
X190590000Y-105899523D01*
X190637619Y-105947142D01*
X191542380Y-106899523D02*
X191542380Y-106328095D01*
X191542380Y-106613809D02*
X190542380Y-106613809D01*
X190685238Y-106518571D01*
X190780476Y-106423333D01*
X190828095Y-106328095D01*
X190542380Y-107232857D02*
X190542380Y-107899523D01*
X191542380Y-107470952D01*
X187357142Y-112257142D02*
X187404761Y-112209523D01*
X187452380Y-112066666D01*
X187452380Y-111971428D01*
X187404761Y-111828571D01*
X187309523Y-111733333D01*
X187214285Y-111685714D01*
X187023809Y-111638095D01*
X186880952Y-111638095D01*
X186690476Y-111685714D01*
X186595238Y-111733333D01*
X186500000Y-111828571D01*
X186452380Y-111971428D01*
X186452380Y-112066666D01*
X186500000Y-112209523D01*
X186547619Y-112257142D01*
X187452380Y-113209523D02*
X187452380Y-112638095D01*
X187452380Y-112923809D02*
X186452380Y-112923809D01*
X186595238Y-112828571D01*
X186690476Y-112733333D01*
X186738095Y-112638095D01*
X186452380Y-114066666D02*
X186452380Y-113876190D01*
X186500000Y-113780952D01*
X186547619Y-113733333D01*
X186690476Y-113638095D01*
X186880952Y-113590476D01*
X187261904Y-113590476D01*
X187357142Y-113638095D01*
X187404761Y-113685714D01*
X187452380Y-113780952D01*
X187452380Y-113971428D01*
X187404761Y-114066666D01*
X187357142Y-114114285D01*
X187261904Y-114161904D01*
X187023809Y-114161904D01*
X186928571Y-114114285D01*
X186880952Y-114066666D01*
X186833333Y-113971428D01*
X186833333Y-113780952D01*
X186880952Y-113685714D01*
X186928571Y-113638095D01*
X187023809Y-113590476D01*
X181157142Y-112357142D02*
X181204761Y-112309523D01*
X181252380Y-112166666D01*
X181252380Y-112071428D01*
X181204761Y-111928571D01*
X181109523Y-111833333D01*
X181014285Y-111785714D01*
X180823809Y-111738095D01*
X180680952Y-111738095D01*
X180490476Y-111785714D01*
X180395238Y-111833333D01*
X180300000Y-111928571D01*
X180252380Y-112071428D01*
X180252380Y-112166666D01*
X180300000Y-112309523D01*
X180347619Y-112357142D01*
X181252380Y-113309523D02*
X181252380Y-112738095D01*
X181252380Y-113023809D02*
X180252380Y-113023809D01*
X180395238Y-112928571D01*
X180490476Y-112833333D01*
X180538095Y-112738095D01*
X180252380Y-113642857D02*
X180252380Y-114261904D01*
X180633333Y-113928571D01*
X180633333Y-114071428D01*
X180680952Y-114166666D01*
X180728571Y-114214285D01*
X180823809Y-114261904D01*
X181061904Y-114261904D01*
X181157142Y-114214285D01*
X181204761Y-114166666D01*
X181252380Y-114071428D01*
X181252380Y-113785714D01*
X181204761Y-113690476D01*
X181157142Y-113642857D01*
X195057142Y-105919642D02*
X195104761Y-105872023D01*
X195152380Y-105729166D01*
X195152380Y-105633928D01*
X195104761Y-105491071D01*
X195009523Y-105395833D01*
X194914285Y-105348214D01*
X194723809Y-105300595D01*
X194580952Y-105300595D01*
X194390476Y-105348214D01*
X194295238Y-105395833D01*
X194200000Y-105491071D01*
X194152380Y-105633928D01*
X194152380Y-105729166D01*
X194200000Y-105872023D01*
X194247619Y-105919642D01*
X195152380Y-106872023D02*
X195152380Y-106300595D01*
X195152380Y-106586309D02*
X194152380Y-106586309D01*
X194295238Y-106491071D01*
X194390476Y-106395833D01*
X194438095Y-106300595D01*
X195152380Y-107824404D02*
X195152380Y-107252976D01*
X195152380Y-107538690D02*
X194152380Y-107538690D01*
X194295238Y-107443452D01*
X194390476Y-107348214D01*
X194438095Y-107252976D01*
X167957142Y-111833333D02*
X168004761Y-111785714D01*
X168052380Y-111642857D01*
X168052380Y-111547619D01*
X168004761Y-111404761D01*
X167909523Y-111309523D01*
X167814285Y-111261904D01*
X167623809Y-111214285D01*
X167480952Y-111214285D01*
X167290476Y-111261904D01*
X167195238Y-111309523D01*
X167100000Y-111404761D01*
X167052380Y-111547619D01*
X167052380Y-111642857D01*
X167100000Y-111785714D01*
X167147619Y-111833333D01*
X167052380Y-112166666D02*
X167052380Y-112833333D01*
X168052380Y-112404761D01*
X175587142Y-115963333D02*
X175634761Y-115915714D01*
X175682380Y-115772857D01*
X175682380Y-115677619D01*
X175634761Y-115534761D01*
X175539523Y-115439523D01*
X175444285Y-115391904D01*
X175253809Y-115344285D01*
X175110952Y-115344285D01*
X174920476Y-115391904D01*
X174825238Y-115439523D01*
X174730000Y-115534761D01*
X174682380Y-115677619D01*
X174682380Y-115772857D01*
X174730000Y-115915714D01*
X174777619Y-115963333D01*
X174682380Y-116868095D02*
X174682380Y-116391904D01*
X175158571Y-116344285D01*
X175110952Y-116391904D01*
X175063333Y-116487142D01*
X175063333Y-116725238D01*
X175110952Y-116820476D01*
X175158571Y-116868095D01*
X175253809Y-116915714D01*
X175491904Y-116915714D01*
X175587142Y-116868095D01*
X175634761Y-116820476D01*
X175682380Y-116725238D01*
X175682380Y-116487142D01*
X175634761Y-116391904D01*
X175587142Y-116344285D01*
X164457142Y-117333333D02*
X164504761Y-117285714D01*
X164552380Y-117142857D01*
X164552380Y-117047619D01*
X164504761Y-116904761D01*
X164409523Y-116809523D01*
X164314285Y-116761904D01*
X164123809Y-116714285D01*
X163980952Y-116714285D01*
X163790476Y-116761904D01*
X163695238Y-116809523D01*
X163600000Y-116904761D01*
X163552380Y-117047619D01*
X163552380Y-117142857D01*
X163600000Y-117285714D01*
X163647619Y-117333333D01*
X163647619Y-117714285D02*
X163600000Y-117761904D01*
X163552380Y-117857142D01*
X163552380Y-118095238D01*
X163600000Y-118190476D01*
X163647619Y-118238095D01*
X163742857Y-118285714D01*
X163838095Y-118285714D01*
X163980952Y-118238095D01*
X164552380Y-117666666D01*
X164552380Y-118285714D01*
X168057142Y-121833333D02*
X168104761Y-121785714D01*
X168152380Y-121642857D01*
X168152380Y-121547619D01*
X168104761Y-121404761D01*
X168009523Y-121309523D01*
X167914285Y-121261904D01*
X167723809Y-121214285D01*
X167580952Y-121214285D01*
X167390476Y-121261904D01*
X167295238Y-121309523D01*
X167200000Y-121404761D01*
X167152380Y-121547619D01*
X167152380Y-121642857D01*
X167200000Y-121785714D01*
X167247619Y-121833333D01*
X168152380Y-122785714D02*
X168152380Y-122214285D01*
X168152380Y-122500000D02*
X167152380Y-122500000D01*
X167295238Y-122404761D01*
X167390476Y-122309523D01*
X167438095Y-122214285D01*
M02*
