G04 #@! TF.GenerationSoftware,KiCad,Pcbnew,5.1.9-73d0e3b20d~88~ubuntu18.04.1*
G04 #@! TF.CreationDate,2021-01-10T19:17:03-05:00*
G04 #@! TF.ProjectId,DolbyS_NR_HIC,446f6c62-7953-45f4-9e52-5f4849432e6b,2020-11-03*
G04 #@! TF.SameCoordinates,Original*
G04 #@! TF.FileFunction,Legend,Top*
G04 #@! TF.FilePolarity,Positive*
%FSLAX46Y46*%
G04 Gerber Fmt 4.6, Leading zero omitted, Abs format (unit mm)*
G04 Created by KiCad (PCBNEW 5.1.9-73d0e3b20d~88~ubuntu18.04.1) date 2021-01-10 19:17:03*
%MOMM*%
%LPD*%
G01*
G04 APERTURE LIST*
%ADD10C,0.150000*%
%ADD11C,0.120000*%
G04 APERTURE END LIST*
D10*
X204452380Y-99414285D02*
X204452380Y-99985714D01*
X204452380Y-99700000D02*
X203452380Y-99700000D01*
X203595238Y-99795238D01*
X203690476Y-99890476D01*
X203738095Y-99985714D01*
X148554166Y-98560714D02*
X148554166Y-99370238D01*
X148506547Y-99465476D01*
X148458928Y-99513095D01*
X148363690Y-99560714D01*
X148220833Y-99560714D01*
X148125595Y-99513095D01*
X148554166Y-99179761D02*
X148458928Y-99227380D01*
X148268452Y-99227380D01*
X148173214Y-99179761D01*
X148125595Y-99132142D01*
X148077976Y-99036904D01*
X148077976Y-98751190D01*
X148125595Y-98655952D01*
X148173214Y-98608333D01*
X148268452Y-98560714D01*
X148458928Y-98560714D01*
X148554166Y-98608333D01*
X149030357Y-99227380D02*
X149030357Y-98560714D01*
X149030357Y-98227380D02*
X148982738Y-98275000D01*
X149030357Y-98322619D01*
X149077976Y-98275000D01*
X149030357Y-98227380D01*
X149030357Y-98322619D01*
X149363690Y-98560714D02*
X149744642Y-98560714D01*
X149506547Y-98227380D02*
X149506547Y-99084523D01*
X149554166Y-99179761D01*
X149649404Y-99227380D01*
X149744642Y-99227380D01*
X150077976Y-99227380D02*
X150077976Y-98227380D01*
X150506547Y-99227380D02*
X150506547Y-98703571D01*
X150458928Y-98608333D01*
X150363690Y-98560714D01*
X150220833Y-98560714D01*
X150125595Y-98608333D01*
X150077976Y-98655952D01*
X151411309Y-98560714D02*
X151411309Y-99227380D01*
X150982738Y-98560714D02*
X150982738Y-99084523D01*
X151030357Y-99179761D01*
X151125595Y-99227380D01*
X151268452Y-99227380D01*
X151363690Y-99179761D01*
X151411309Y-99132142D01*
X151887500Y-99227380D02*
X151887500Y-98227380D01*
X151887500Y-98608333D02*
X151982738Y-98560714D01*
X152173214Y-98560714D01*
X152268452Y-98608333D01*
X152316071Y-98655952D01*
X152363690Y-98751190D01*
X152363690Y-99036904D01*
X152316071Y-99132142D01*
X152268452Y-99179761D01*
X152173214Y-99227380D01*
X151982738Y-99227380D01*
X151887500Y-99179761D01*
X152792261Y-99132142D02*
X152839880Y-99179761D01*
X152792261Y-99227380D01*
X152744642Y-99179761D01*
X152792261Y-99132142D01*
X152792261Y-99227380D01*
X153697023Y-99179761D02*
X153601785Y-99227380D01*
X153411309Y-99227380D01*
X153316071Y-99179761D01*
X153268452Y-99132142D01*
X153220833Y-99036904D01*
X153220833Y-98751190D01*
X153268452Y-98655952D01*
X153316071Y-98608333D01*
X153411309Y-98560714D01*
X153601785Y-98560714D01*
X153697023Y-98608333D01*
X154268452Y-99227380D02*
X154173214Y-99179761D01*
X154125595Y-99132142D01*
X154077976Y-99036904D01*
X154077976Y-98751190D01*
X154125595Y-98655952D01*
X154173214Y-98608333D01*
X154268452Y-98560714D01*
X154411309Y-98560714D01*
X154506547Y-98608333D01*
X154554166Y-98655952D01*
X154601785Y-98751190D01*
X154601785Y-99036904D01*
X154554166Y-99132142D01*
X154506547Y-99179761D01*
X154411309Y-99227380D01*
X154268452Y-99227380D01*
X155030357Y-99227380D02*
X155030357Y-98560714D01*
X155030357Y-98655952D02*
X155077976Y-98608333D01*
X155173214Y-98560714D01*
X155316071Y-98560714D01*
X155411309Y-98608333D01*
X155458928Y-98703571D01*
X155458928Y-99227380D01*
X155458928Y-98703571D02*
X155506547Y-98608333D01*
X155601785Y-98560714D01*
X155744642Y-98560714D01*
X155839880Y-98608333D01*
X155887500Y-98703571D01*
X155887500Y-99227380D01*
X157077976Y-98179761D02*
X156220833Y-99465476D01*
X157839880Y-98560714D02*
X157839880Y-99560714D01*
X157839880Y-99179761D02*
X157744642Y-99227380D01*
X157554166Y-99227380D01*
X157458928Y-99179761D01*
X157411309Y-99132142D01*
X157363690Y-99036904D01*
X157363690Y-98751190D01*
X157411309Y-98655952D01*
X157458928Y-98608333D01*
X157554166Y-98560714D01*
X157744642Y-98560714D01*
X157839880Y-98608333D01*
X158744642Y-98560714D02*
X158744642Y-99227380D01*
X158316071Y-98560714D02*
X158316071Y-99084523D01*
X158363690Y-99179761D01*
X158458928Y-99227380D01*
X158601785Y-99227380D01*
X158697023Y-99179761D01*
X158744642Y-99132142D01*
X159220833Y-99227380D02*
X159220833Y-98560714D01*
X159220833Y-98227380D02*
X159173214Y-98275000D01*
X159220833Y-98322619D01*
X159268452Y-98275000D01*
X159220833Y-98227380D01*
X159220833Y-98322619D01*
X160077976Y-99179761D02*
X159982738Y-99227380D01*
X159792261Y-99227380D01*
X159697023Y-99179761D01*
X159649404Y-99084523D01*
X159649404Y-98703571D01*
X159697023Y-98608333D01*
X159792261Y-98560714D01*
X159982738Y-98560714D01*
X160077976Y-98608333D01*
X160125595Y-98703571D01*
X160125595Y-98798809D01*
X159649404Y-98894047D01*
X160411309Y-98560714D02*
X160792261Y-98560714D01*
X160554166Y-98227380D02*
X160554166Y-99084523D01*
X160601785Y-99179761D01*
X160697023Y-99227380D01*
X160792261Y-99227380D01*
X161554166Y-99179761D02*
X161458928Y-99227380D01*
X161268452Y-99227380D01*
X161173214Y-99179761D01*
X161125595Y-99132142D01*
X161077976Y-99036904D01*
X161077976Y-98751190D01*
X161125595Y-98655952D01*
X161173214Y-98608333D01*
X161268452Y-98560714D01*
X161458928Y-98560714D01*
X161554166Y-98608333D01*
X162411309Y-99227380D02*
X162411309Y-98703571D01*
X162363690Y-98608333D01*
X162268452Y-98560714D01*
X162077976Y-98560714D01*
X161982738Y-98608333D01*
X162411309Y-99179761D02*
X162316071Y-99227380D01*
X162077976Y-99227380D01*
X161982738Y-99179761D01*
X161935119Y-99084523D01*
X161935119Y-98989285D01*
X161982738Y-98894047D01*
X162077976Y-98846428D01*
X162316071Y-98846428D01*
X162411309Y-98798809D01*
X162744642Y-98560714D02*
X163125595Y-98560714D01*
X162887500Y-98227380D02*
X162887500Y-99084523D01*
X162935119Y-99179761D01*
X163030357Y-99227380D01*
X163125595Y-99227380D01*
X164173214Y-98179761D02*
X163316071Y-99465476D01*
X164363690Y-98560714D02*
X164744642Y-98560714D01*
X164506547Y-98227380D02*
X164506547Y-99084523D01*
X164554166Y-99179761D01*
X164649404Y-99227380D01*
X164744642Y-99227380D01*
X165506547Y-99227380D02*
X165506547Y-98703571D01*
X165458928Y-98608333D01*
X165363690Y-98560714D01*
X165173214Y-98560714D01*
X165077976Y-98608333D01*
X165506547Y-99179761D02*
X165411309Y-99227380D01*
X165173214Y-99227380D01*
X165077976Y-99179761D01*
X165030357Y-99084523D01*
X165030357Y-98989285D01*
X165077976Y-98894047D01*
X165173214Y-98846428D01*
X165411309Y-98846428D01*
X165506547Y-98798809D01*
X165935119Y-99179761D02*
X166030357Y-99227380D01*
X166220833Y-99227380D01*
X166316071Y-99179761D01*
X166363690Y-99084523D01*
X166363690Y-99036904D01*
X166316071Y-98941666D01*
X166220833Y-98894047D01*
X166077976Y-98894047D01*
X165982738Y-98846428D01*
X165935119Y-98751190D01*
X165935119Y-98703571D01*
X165982738Y-98608333D01*
X166077976Y-98560714D01*
X166220833Y-98560714D01*
X166316071Y-98608333D01*
X167220833Y-99179761D02*
X167125595Y-99227380D01*
X166935119Y-99227380D01*
X166839880Y-99179761D01*
X166792261Y-99132142D01*
X166744642Y-99036904D01*
X166744642Y-98751190D01*
X166792261Y-98655952D01*
X166839880Y-98608333D01*
X166935119Y-98560714D01*
X167125595Y-98560714D01*
X167220833Y-98608333D01*
X168077976Y-99227380D02*
X168077976Y-98703571D01*
X168030357Y-98608333D01*
X167935119Y-98560714D01*
X167744642Y-98560714D01*
X167649404Y-98608333D01*
X168077976Y-99179761D02*
X167982738Y-99227380D01*
X167744642Y-99227380D01*
X167649404Y-99179761D01*
X167601785Y-99084523D01*
X167601785Y-98989285D01*
X167649404Y-98894047D01*
X167744642Y-98846428D01*
X167982738Y-98846428D01*
X168077976Y-98798809D01*
X168554166Y-99227380D02*
X168554166Y-98560714D01*
X168554166Y-98655952D02*
X168601785Y-98608333D01*
X168697023Y-98560714D01*
X168839880Y-98560714D01*
X168935119Y-98608333D01*
X168982738Y-98703571D01*
X168982738Y-99227380D01*
X168982738Y-98703571D02*
X169030357Y-98608333D01*
X169125595Y-98560714D01*
X169268452Y-98560714D01*
X169363690Y-98608333D01*
X169411309Y-98703571D01*
X169411309Y-99227380D01*
X169839880Y-98322619D02*
X169887500Y-98275000D01*
X169982738Y-98227380D01*
X170220833Y-98227380D01*
X170316071Y-98275000D01*
X170363690Y-98322619D01*
X170411309Y-98417857D01*
X170411309Y-98513095D01*
X170363690Y-98655952D01*
X169792261Y-99227380D01*
X170411309Y-99227380D01*
X170744642Y-98227380D02*
X171363690Y-98227380D01*
X171030357Y-98608333D01*
X171173214Y-98608333D01*
X171268452Y-98655952D01*
X171316071Y-98703571D01*
X171363690Y-98798809D01*
X171363690Y-99036904D01*
X171316071Y-99132142D01*
X171268452Y-99179761D01*
X171173214Y-99227380D01*
X170887500Y-99227380D01*
X170792261Y-99179761D01*
X170744642Y-99132142D01*
X171935119Y-98655952D02*
X171839880Y-98608333D01*
X171792261Y-98560714D01*
X171744642Y-98465476D01*
X171744642Y-98417857D01*
X171792261Y-98322619D01*
X171839880Y-98275000D01*
X171935119Y-98227380D01*
X172125595Y-98227380D01*
X172220833Y-98275000D01*
X172268452Y-98322619D01*
X172316071Y-98417857D01*
X172316071Y-98465476D01*
X172268452Y-98560714D01*
X172220833Y-98608333D01*
X172125595Y-98655952D01*
X171935119Y-98655952D01*
X171839880Y-98703571D01*
X171792261Y-98751190D01*
X171744642Y-98846428D01*
X171744642Y-99036904D01*
X171792261Y-99132142D01*
X171839880Y-99179761D01*
X171935119Y-99227380D01*
X172125595Y-99227380D01*
X172220833Y-99179761D01*
X172268452Y-99132142D01*
X172316071Y-99036904D01*
X172316071Y-98846428D01*
X172268452Y-98751190D01*
X172220833Y-98703571D01*
X172125595Y-98655952D01*
X172697023Y-99179761D02*
X172792261Y-99227380D01*
X172982738Y-99227380D01*
X173077976Y-99179761D01*
X173125595Y-99084523D01*
X173125595Y-99036904D01*
X173077976Y-98941666D01*
X172982738Y-98894047D01*
X172839880Y-98894047D01*
X172744642Y-98846428D01*
X172697023Y-98751190D01*
X172697023Y-98703571D01*
X172744642Y-98608333D01*
X172839880Y-98560714D01*
X172982738Y-98560714D01*
X173077976Y-98608333D01*
X148554166Y-100877380D02*
X148554166Y-99877380D01*
X148554166Y-100829761D02*
X148458928Y-100877380D01*
X148268452Y-100877380D01*
X148173214Y-100829761D01*
X148125595Y-100782142D01*
X148077976Y-100686904D01*
X148077976Y-100401190D01*
X148125595Y-100305952D01*
X148173214Y-100258333D01*
X148268452Y-100210714D01*
X148458928Y-100210714D01*
X148554166Y-100258333D01*
X149411309Y-100829761D02*
X149316071Y-100877380D01*
X149125595Y-100877380D01*
X149030357Y-100829761D01*
X148982738Y-100734523D01*
X148982738Y-100353571D01*
X149030357Y-100258333D01*
X149125595Y-100210714D01*
X149316071Y-100210714D01*
X149411309Y-100258333D01*
X149458928Y-100353571D01*
X149458928Y-100448809D01*
X148982738Y-100544047D01*
X149887500Y-100210714D02*
X149887500Y-100877380D01*
X149887500Y-100305952D02*
X149935119Y-100258333D01*
X150030357Y-100210714D01*
X150173214Y-100210714D01*
X150268452Y-100258333D01*
X150316071Y-100353571D01*
X150316071Y-100877380D01*
X150792261Y-100877380D02*
X150792261Y-100210714D01*
X150792261Y-99877380D02*
X150744642Y-99925000D01*
X150792261Y-99972619D01*
X150839880Y-99925000D01*
X150792261Y-99877380D01*
X150792261Y-99972619D01*
X151220833Y-100829761D02*
X151316071Y-100877380D01*
X151506547Y-100877380D01*
X151601785Y-100829761D01*
X151649404Y-100734523D01*
X151649404Y-100686904D01*
X151601785Y-100591666D01*
X151506547Y-100544047D01*
X151363690Y-100544047D01*
X151268452Y-100496428D01*
X151220833Y-100401190D01*
X151220833Y-100353571D01*
X151268452Y-100258333D01*
X151363690Y-100210714D01*
X151506547Y-100210714D01*
X151601785Y-100258333D01*
X152697023Y-100401190D02*
X152649404Y-100353571D01*
X152554166Y-100305952D01*
X152458928Y-100305952D01*
X152363690Y-100353571D01*
X152316071Y-100401190D01*
X152268452Y-100496428D01*
X152268452Y-100591666D01*
X152316071Y-100686904D01*
X152363690Y-100734523D01*
X152458928Y-100782142D01*
X152554166Y-100782142D01*
X152649404Y-100734523D01*
X152697023Y-100686904D01*
X152697023Y-100305952D02*
X152697023Y-100686904D01*
X152744642Y-100734523D01*
X152792261Y-100734523D01*
X152887500Y-100686904D01*
X152935119Y-100591666D01*
X152935119Y-100353571D01*
X152839880Y-100210714D01*
X152697023Y-100115476D01*
X152506547Y-100067857D01*
X152316071Y-100115476D01*
X152173214Y-100210714D01*
X152077976Y-100353571D01*
X152030357Y-100544047D01*
X152077976Y-100734523D01*
X152173214Y-100877380D01*
X152316071Y-100972619D01*
X152506547Y-101020238D01*
X152697023Y-100972619D01*
X152839880Y-100877380D01*
X153316071Y-99972619D02*
X153363690Y-99925000D01*
X153458928Y-99877380D01*
X153697023Y-99877380D01*
X153792261Y-99925000D01*
X153839880Y-99972619D01*
X153887500Y-100067857D01*
X153887500Y-100163095D01*
X153839880Y-100305952D01*
X153268452Y-100877380D01*
X153887500Y-100877380D01*
X154220833Y-99877380D02*
X154839880Y-99877380D01*
X154506547Y-100258333D01*
X154649404Y-100258333D01*
X154744642Y-100305952D01*
X154792261Y-100353571D01*
X154839880Y-100448809D01*
X154839880Y-100686904D01*
X154792261Y-100782142D01*
X154744642Y-100829761D01*
X154649404Y-100877380D01*
X154363690Y-100877380D01*
X154268452Y-100829761D01*
X154220833Y-100782142D01*
X155411309Y-100305952D02*
X155316071Y-100258333D01*
X155268452Y-100210714D01*
X155220833Y-100115476D01*
X155220833Y-100067857D01*
X155268452Y-99972619D01*
X155316071Y-99925000D01*
X155411309Y-99877380D01*
X155601785Y-99877380D01*
X155697023Y-99925000D01*
X155744642Y-99972619D01*
X155792261Y-100067857D01*
X155792261Y-100115476D01*
X155744642Y-100210714D01*
X155697023Y-100258333D01*
X155601785Y-100305952D01*
X155411309Y-100305952D01*
X155316071Y-100353571D01*
X155268452Y-100401190D01*
X155220833Y-100496428D01*
X155220833Y-100686904D01*
X155268452Y-100782142D01*
X155316071Y-100829761D01*
X155411309Y-100877380D01*
X155601785Y-100877380D01*
X155697023Y-100829761D01*
X155744642Y-100782142D01*
X155792261Y-100686904D01*
X155792261Y-100496428D01*
X155744642Y-100401190D01*
X155697023Y-100353571D01*
X155601785Y-100305952D01*
X156220833Y-100210714D02*
X156220833Y-101210714D01*
X156220833Y-100258333D02*
X156316071Y-100210714D01*
X156506547Y-100210714D01*
X156601785Y-100258333D01*
X156649404Y-100305952D01*
X156697023Y-100401190D01*
X156697023Y-100686904D01*
X156649404Y-100782142D01*
X156601785Y-100829761D01*
X156506547Y-100877380D01*
X156316071Y-100877380D01*
X156220833Y-100829761D01*
X157125595Y-100877380D02*
X157125595Y-100210714D01*
X157125595Y-100401190D02*
X157173214Y-100305952D01*
X157220833Y-100258333D01*
X157316071Y-100210714D01*
X157411309Y-100210714D01*
X157887500Y-100877380D02*
X157792261Y-100829761D01*
X157744642Y-100782142D01*
X157697023Y-100686904D01*
X157697023Y-100401190D01*
X157744642Y-100305952D01*
X157792261Y-100258333D01*
X157887500Y-100210714D01*
X158030357Y-100210714D01*
X158125595Y-100258333D01*
X158173214Y-100305952D01*
X158220833Y-100401190D01*
X158220833Y-100686904D01*
X158173214Y-100782142D01*
X158125595Y-100829761D01*
X158030357Y-100877380D01*
X157887500Y-100877380D01*
X158649404Y-100782142D02*
X158697023Y-100829761D01*
X158649404Y-100877380D01*
X158601785Y-100829761D01*
X158649404Y-100782142D01*
X158649404Y-100877380D01*
X159554166Y-100829761D02*
X159458928Y-100877380D01*
X159268452Y-100877380D01*
X159173214Y-100829761D01*
X159125595Y-100782142D01*
X159077976Y-100686904D01*
X159077976Y-100401190D01*
X159125595Y-100305952D01*
X159173214Y-100258333D01*
X159268452Y-100210714D01*
X159458928Y-100210714D01*
X159554166Y-100258333D01*
X160125595Y-100877380D02*
X160030357Y-100829761D01*
X159982738Y-100782142D01*
X159935119Y-100686904D01*
X159935119Y-100401190D01*
X159982738Y-100305952D01*
X160030357Y-100258333D01*
X160125595Y-100210714D01*
X160268452Y-100210714D01*
X160363690Y-100258333D01*
X160411309Y-100305952D01*
X160458928Y-100401190D01*
X160458928Y-100686904D01*
X160411309Y-100782142D01*
X160363690Y-100829761D01*
X160268452Y-100877380D01*
X160125595Y-100877380D01*
X160887500Y-100877380D02*
X160887500Y-100210714D01*
X160887500Y-100305952D02*
X160935119Y-100258333D01*
X161030357Y-100210714D01*
X161173214Y-100210714D01*
X161268452Y-100258333D01*
X161316071Y-100353571D01*
X161316071Y-100877380D01*
X161316071Y-100353571D02*
X161363690Y-100258333D01*
X161458928Y-100210714D01*
X161601785Y-100210714D01*
X161697023Y-100258333D01*
X161744642Y-100353571D01*
X161744642Y-100877380D01*
X133632738Y-98262380D02*
X134204166Y-98262380D01*
X133918452Y-99262380D02*
X133918452Y-98262380D01*
X134966071Y-99262380D02*
X134966071Y-98738571D01*
X134918452Y-98643333D01*
X134823214Y-98595714D01*
X134632738Y-98595714D01*
X134537500Y-98643333D01*
X134966071Y-99214761D02*
X134870833Y-99262380D01*
X134632738Y-99262380D01*
X134537500Y-99214761D01*
X134489880Y-99119523D01*
X134489880Y-99024285D01*
X134537500Y-98929047D01*
X134632738Y-98881428D01*
X134870833Y-98881428D01*
X134966071Y-98833809D01*
X135394642Y-99214761D02*
X135489880Y-99262380D01*
X135680357Y-99262380D01*
X135775595Y-99214761D01*
X135823214Y-99119523D01*
X135823214Y-99071904D01*
X135775595Y-98976666D01*
X135680357Y-98929047D01*
X135537500Y-98929047D01*
X135442261Y-98881428D01*
X135394642Y-98786190D01*
X135394642Y-98738571D01*
X135442261Y-98643333D01*
X135537500Y-98595714D01*
X135680357Y-98595714D01*
X135775595Y-98643333D01*
X136680357Y-99214761D02*
X136585119Y-99262380D01*
X136394642Y-99262380D01*
X136299404Y-99214761D01*
X136251785Y-99167142D01*
X136204166Y-99071904D01*
X136204166Y-98786190D01*
X136251785Y-98690952D01*
X136299404Y-98643333D01*
X136394642Y-98595714D01*
X136585119Y-98595714D01*
X136680357Y-98643333D01*
X137537500Y-99262380D02*
X137537500Y-98738571D01*
X137489880Y-98643333D01*
X137394642Y-98595714D01*
X137204166Y-98595714D01*
X137108928Y-98643333D01*
X137537500Y-99214761D02*
X137442261Y-99262380D01*
X137204166Y-99262380D01*
X137108928Y-99214761D01*
X137061309Y-99119523D01*
X137061309Y-99024285D01*
X137108928Y-98929047D01*
X137204166Y-98881428D01*
X137442261Y-98881428D01*
X137537500Y-98833809D01*
X138013690Y-99262380D02*
X138013690Y-98595714D01*
X138013690Y-98690952D02*
X138061309Y-98643333D01*
X138156547Y-98595714D01*
X138299404Y-98595714D01*
X138394642Y-98643333D01*
X138442261Y-98738571D01*
X138442261Y-99262380D01*
X138442261Y-98738571D02*
X138489880Y-98643333D01*
X138585119Y-98595714D01*
X138727976Y-98595714D01*
X138823214Y-98643333D01*
X138870833Y-98738571D01*
X138870833Y-99262380D01*
X140061309Y-98357619D02*
X140108928Y-98310000D01*
X140204166Y-98262380D01*
X140442261Y-98262380D01*
X140537500Y-98310000D01*
X140585119Y-98357619D01*
X140632738Y-98452857D01*
X140632738Y-98548095D01*
X140585119Y-98690952D01*
X140013690Y-99262380D01*
X140632738Y-99262380D01*
X140966071Y-98262380D02*
X141585119Y-98262380D01*
X141251785Y-98643333D01*
X141394642Y-98643333D01*
X141489880Y-98690952D01*
X141537500Y-98738571D01*
X141585119Y-98833809D01*
X141585119Y-99071904D01*
X141537500Y-99167142D01*
X141489880Y-99214761D01*
X141394642Y-99262380D01*
X141108928Y-99262380D01*
X141013690Y-99214761D01*
X140966071Y-99167142D01*
X142156547Y-98690952D02*
X142061309Y-98643333D01*
X142013690Y-98595714D01*
X141966071Y-98500476D01*
X141966071Y-98452857D01*
X142013690Y-98357619D01*
X142061309Y-98310000D01*
X142156547Y-98262380D01*
X142347023Y-98262380D01*
X142442261Y-98310000D01*
X142489880Y-98357619D01*
X142537500Y-98452857D01*
X142537500Y-98500476D01*
X142489880Y-98595714D01*
X142442261Y-98643333D01*
X142347023Y-98690952D01*
X142156547Y-98690952D01*
X142061309Y-98738571D01*
X142013690Y-98786190D01*
X141966071Y-98881428D01*
X141966071Y-99071904D01*
X142013690Y-99167142D01*
X142061309Y-99214761D01*
X142156547Y-99262380D01*
X142347023Y-99262380D01*
X142442261Y-99214761D01*
X142489880Y-99167142D01*
X142537500Y-99071904D01*
X142537500Y-98881428D01*
X142489880Y-98786190D01*
X142442261Y-98738571D01*
X142347023Y-98690952D01*
X142918452Y-99214761D02*
X143061309Y-99262380D01*
X143299404Y-99262380D01*
X143394642Y-99214761D01*
X143442261Y-99167142D01*
X143489880Y-99071904D01*
X143489880Y-98976666D01*
X143442261Y-98881428D01*
X143394642Y-98833809D01*
X143299404Y-98786190D01*
X143108928Y-98738571D01*
X143013690Y-98690952D01*
X142966071Y-98643333D01*
X142918452Y-98548095D01*
X142918452Y-98452857D01*
X142966071Y-98357619D01*
X143013690Y-98310000D01*
X143108928Y-98262380D01*
X143347023Y-98262380D01*
X143489880Y-98310000D01*
X133775595Y-100912380D02*
X133775595Y-99912380D01*
X134013690Y-99912380D01*
X134156547Y-99960000D01*
X134251785Y-100055238D01*
X134299404Y-100150476D01*
X134347023Y-100340952D01*
X134347023Y-100483809D01*
X134299404Y-100674285D01*
X134251785Y-100769523D01*
X134156547Y-100864761D01*
X134013690Y-100912380D01*
X133775595Y-100912380D01*
X134918452Y-100912380D02*
X134823214Y-100864761D01*
X134775595Y-100817142D01*
X134727976Y-100721904D01*
X134727976Y-100436190D01*
X134775595Y-100340952D01*
X134823214Y-100293333D01*
X134918452Y-100245714D01*
X135061309Y-100245714D01*
X135156547Y-100293333D01*
X135204166Y-100340952D01*
X135251785Y-100436190D01*
X135251785Y-100721904D01*
X135204166Y-100817142D01*
X135156547Y-100864761D01*
X135061309Y-100912380D01*
X134918452Y-100912380D01*
X135823214Y-100912380D02*
X135727976Y-100864761D01*
X135680357Y-100769523D01*
X135680357Y-99912380D01*
X136204166Y-100912380D02*
X136204166Y-99912380D01*
X136204166Y-100293333D02*
X136299404Y-100245714D01*
X136489880Y-100245714D01*
X136585119Y-100293333D01*
X136632738Y-100340952D01*
X136680357Y-100436190D01*
X136680357Y-100721904D01*
X136632738Y-100817142D01*
X136585119Y-100864761D01*
X136489880Y-100912380D01*
X136299404Y-100912380D01*
X136204166Y-100864761D01*
X137013690Y-100245714D02*
X137251785Y-100912380D01*
X137489880Y-100245714D02*
X137251785Y-100912380D01*
X137156547Y-101150476D01*
X137108928Y-101198095D01*
X137013690Y-101245714D01*
X138585119Y-100864761D02*
X138727976Y-100912380D01*
X138966071Y-100912380D01*
X139061309Y-100864761D01*
X139108928Y-100817142D01*
X139156547Y-100721904D01*
X139156547Y-100626666D01*
X139108928Y-100531428D01*
X139061309Y-100483809D01*
X138966071Y-100436190D01*
X138775595Y-100388571D01*
X138680357Y-100340952D01*
X138632738Y-100293333D01*
X138585119Y-100198095D01*
X138585119Y-100102857D01*
X138632738Y-100007619D01*
X138680357Y-99960000D01*
X138775595Y-99912380D01*
X139013690Y-99912380D01*
X139156547Y-99960000D01*
X140347023Y-100912380D02*
X140347023Y-99912380D01*
X140918452Y-100912380D01*
X140918452Y-99912380D01*
X141966071Y-100912380D02*
X141632738Y-100436190D01*
X141394642Y-100912380D02*
X141394642Y-99912380D01*
X141775595Y-99912380D01*
X141870833Y-99960000D01*
X141918452Y-100007619D01*
X141966071Y-100102857D01*
X141966071Y-100245714D01*
X141918452Y-100340952D01*
X141870833Y-100388571D01*
X141775595Y-100436190D01*
X141394642Y-100436190D01*
X143156547Y-100912380D02*
X143156547Y-99912380D01*
X143156547Y-100388571D02*
X143727976Y-100388571D01*
X143727976Y-100912380D02*
X143727976Y-99912380D01*
X144204166Y-100912380D02*
X144204166Y-99912380D01*
X145251785Y-100817142D02*
X145204166Y-100864761D01*
X145061309Y-100912380D01*
X144966071Y-100912380D01*
X144823214Y-100864761D01*
X144727976Y-100769523D01*
X144680357Y-100674285D01*
X144632738Y-100483809D01*
X144632738Y-100340952D01*
X144680357Y-100150476D01*
X144727976Y-100055238D01*
X144823214Y-99960000D01*
X144966071Y-99912380D01*
X145061309Y-99912380D01*
X145204166Y-99960000D01*
X145251785Y-100007619D01*
X133680357Y-101895714D02*
X133918452Y-102562380D01*
X134156547Y-101895714D01*
X134489880Y-101657619D02*
X134537500Y-101610000D01*
X134632738Y-101562380D01*
X134870833Y-101562380D01*
X134966071Y-101610000D01*
X135013690Y-101657619D01*
X135061309Y-101752857D01*
X135061309Y-101848095D01*
X135013690Y-101990952D01*
X134442261Y-102562380D01*
X135061309Y-102562380D01*
X135680357Y-101562380D02*
X135775595Y-101562380D01*
X135870833Y-101610000D01*
X135918452Y-101657619D01*
X135966071Y-101752857D01*
X136013690Y-101943333D01*
X136013690Y-102181428D01*
X135966071Y-102371904D01*
X135918452Y-102467142D01*
X135870833Y-102514761D01*
X135775595Y-102562380D01*
X135680357Y-102562380D01*
X135585119Y-102514761D01*
X135537500Y-102467142D01*
X135489880Y-102371904D01*
X135442261Y-102181428D01*
X135442261Y-101943333D01*
X135489880Y-101752857D01*
X135537500Y-101657619D01*
X135585119Y-101610000D01*
X135680357Y-101562380D01*
X136394642Y-101657619D02*
X136442261Y-101610000D01*
X136537500Y-101562380D01*
X136775595Y-101562380D01*
X136870833Y-101610000D01*
X136918452Y-101657619D01*
X136966071Y-101752857D01*
X136966071Y-101848095D01*
X136918452Y-101990952D01*
X136347023Y-102562380D01*
X136966071Y-102562380D01*
X137918452Y-102562380D02*
X137347023Y-102562380D01*
X137632738Y-102562380D02*
X137632738Y-101562380D01*
X137537500Y-101705238D01*
X137442261Y-101800476D01*
X137347023Y-101848095D01*
X138347023Y-102467142D02*
X138394642Y-102514761D01*
X138347023Y-102562380D01*
X138299404Y-102514761D01*
X138347023Y-102467142D01*
X138347023Y-102562380D01*
X139013690Y-101562380D02*
X139108928Y-101562380D01*
X139204166Y-101610000D01*
X139251785Y-101657619D01*
X139299404Y-101752857D01*
X139347023Y-101943333D01*
X139347023Y-102181428D01*
X139299404Y-102371904D01*
X139251785Y-102467142D01*
X139204166Y-102514761D01*
X139108928Y-102562380D01*
X139013690Y-102562380D01*
X138918452Y-102514761D01*
X138870833Y-102467142D01*
X138823214Y-102371904D01*
X138775595Y-102181428D01*
X138775595Y-101943333D01*
X138823214Y-101752857D01*
X138870833Y-101657619D01*
X138918452Y-101610000D01*
X139013690Y-101562380D01*
X140299404Y-102562380D02*
X139727976Y-102562380D01*
X140013690Y-102562380D02*
X140013690Y-101562380D01*
X139918452Y-101705238D01*
X139823214Y-101800476D01*
X139727976Y-101848095D01*
X140727976Y-102467142D02*
X140775595Y-102514761D01*
X140727976Y-102562380D01*
X140680357Y-102514761D01*
X140727976Y-102467142D01*
X140727976Y-102562380D01*
X141727976Y-102562380D02*
X141156547Y-102562380D01*
X141442261Y-102562380D02*
X141442261Y-101562380D01*
X141347023Y-101705238D01*
X141251785Y-101800476D01*
X141156547Y-101848095D01*
X142347023Y-101562380D02*
X142442261Y-101562380D01*
X142537500Y-101610000D01*
X142585119Y-101657619D01*
X142632738Y-101752857D01*
X142680357Y-101943333D01*
X142680357Y-102181428D01*
X142632738Y-102371904D01*
X142585119Y-102467142D01*
X142537500Y-102514761D01*
X142442261Y-102562380D01*
X142347023Y-102562380D01*
X142251785Y-102514761D01*
X142204166Y-102467142D01*
X142156547Y-102371904D01*
X142108928Y-102181428D01*
X142108928Y-101943333D01*
X142156547Y-101752857D01*
X142204166Y-101657619D01*
X142251785Y-101610000D01*
X142347023Y-101562380D01*
D11*
X185765000Y-117372936D02*
X185765000Y-117827064D01*
X187235000Y-117372936D02*
X187235000Y-117827064D01*
X174900000Y-116400000D02*
X174900000Y-106400000D01*
X174900000Y-106400000D02*
X173900000Y-105400000D01*
X173900000Y-105400000D02*
X163900000Y-105400000D01*
X163900000Y-105400000D02*
X163900000Y-116400000D01*
X163900000Y-116400000D02*
X174900000Y-116400000D01*
X204310000Y-111880000D02*
X204310000Y-113340000D01*
X201150000Y-111880000D02*
X201150000Y-114040000D01*
X201150000Y-111880000D02*
X202080000Y-111880000D01*
X204310000Y-111880000D02*
X203380000Y-111880000D01*
X191840000Y-111860000D02*
X191840000Y-113320000D01*
X188680000Y-111860000D02*
X188680000Y-114020000D01*
X188680000Y-111860000D02*
X189610000Y-111860000D01*
X191840000Y-111860000D02*
X190910000Y-111860000D01*
X200180000Y-111880000D02*
X200180000Y-113340000D01*
X197020000Y-111880000D02*
X197020000Y-114040000D01*
X197020000Y-111880000D02*
X197950000Y-111880000D01*
X200180000Y-111880000D02*
X199250000Y-111880000D01*
X196050000Y-111840000D02*
X196050000Y-113300000D01*
X192890000Y-111840000D02*
X192890000Y-114000000D01*
X192890000Y-111840000D02*
X193820000Y-111840000D01*
X196050000Y-111840000D02*
X195120000Y-111840000D01*
X204490000Y-104100000D02*
X204490000Y-100650000D01*
X204490000Y-104100000D02*
X204490000Y-106050000D01*
X199370000Y-104100000D02*
X199370000Y-102150000D01*
X199370000Y-104100000D02*
X199370000Y-106050000D01*
X156365000Y-110772936D02*
X156365000Y-111227064D01*
X157835000Y-110772936D02*
X157835000Y-111227064D01*
X154535000Y-111177064D02*
X154535000Y-110722936D01*
X153065000Y-111177064D02*
X153065000Y-110722936D01*
X151235000Y-106227064D02*
X151235000Y-105772936D01*
X149765000Y-106227064D02*
X149765000Y-105772936D01*
X151235000Y-111227064D02*
X151235000Y-110772936D01*
X149765000Y-111227064D02*
X149765000Y-110772936D01*
X179265000Y-100772936D02*
X179265000Y-101227064D01*
X180735000Y-100772936D02*
X180735000Y-101227064D01*
X146465000Y-115772936D02*
X146465000Y-116227064D01*
X147935000Y-115772936D02*
X147935000Y-116227064D01*
X147935000Y-111227064D02*
X147935000Y-110772936D01*
X146465000Y-111227064D02*
X146465000Y-110772936D01*
X144635000Y-116227064D02*
X144635000Y-115772936D01*
X143165000Y-116227064D02*
X143165000Y-115772936D01*
X141335000Y-111227064D02*
X141335000Y-110772936D01*
X139865000Y-111227064D02*
X139865000Y-110772936D01*
X139865000Y-105772936D02*
X139865000Y-106227064D01*
X141335000Y-105772936D02*
X141335000Y-106227064D01*
X141335000Y-116227064D02*
X141335000Y-115772936D01*
X139865000Y-116227064D02*
X139865000Y-115772936D01*
X136565000Y-115772936D02*
X136565000Y-116227064D01*
X138035000Y-115772936D02*
X138035000Y-116227064D01*
X138035000Y-106227064D02*
X138035000Y-105772936D01*
X136565000Y-106227064D02*
X136565000Y-105772936D01*
X187235000Y-101227064D02*
X187235000Y-100772936D01*
X185765000Y-101227064D02*
X185765000Y-100772936D01*
X179265000Y-117372936D02*
X179265000Y-117827064D01*
X180735000Y-117372936D02*
X180735000Y-117827064D01*
X182365000Y-111972936D02*
X182365000Y-112427064D01*
X183835000Y-111972936D02*
X183835000Y-112427064D01*
X185765000Y-111972936D02*
X185765000Y-112427064D01*
X187235000Y-111972936D02*
X187235000Y-112427064D01*
X192565000Y-100822936D02*
X192565000Y-101277064D01*
X194035000Y-100822936D02*
X194035000Y-101277064D01*
X190635000Y-106227064D02*
X190635000Y-105772936D01*
X189165000Y-106227064D02*
X189165000Y-105772936D01*
X195965000Y-106872936D02*
X195965000Y-107327064D01*
X197435000Y-106872936D02*
X197435000Y-107327064D01*
X191850000Y-117200000D02*
X191850000Y-118660000D01*
X188690000Y-117200000D02*
X188690000Y-119360000D01*
X188690000Y-117200000D02*
X189620000Y-117200000D01*
X191850000Y-117200000D02*
X190920000Y-117200000D01*
X200180000Y-117220000D02*
X200180000Y-118680000D01*
X197020000Y-117220000D02*
X197020000Y-119380000D01*
X197020000Y-117220000D02*
X197950000Y-117220000D01*
X200180000Y-117220000D02*
X199250000Y-117220000D01*
X196030000Y-117210000D02*
X196030000Y-118670000D01*
X192870000Y-117210000D02*
X192870000Y-119370000D01*
X192870000Y-117210000D02*
X193800000Y-117210000D01*
X196030000Y-117210000D02*
X195100000Y-117210000D01*
X204270000Y-117220000D02*
X204270000Y-118680000D01*
X201110000Y-117220000D02*
X201110000Y-119380000D01*
X201110000Y-117220000D02*
X202040000Y-117220000D01*
X204270000Y-117220000D02*
X203340000Y-117220000D01*
X157835000Y-116298752D02*
X157835000Y-115776248D01*
X156365000Y-116298752D02*
X156365000Y-115776248D01*
X157735000Y-106298752D02*
X157735000Y-105776248D01*
X156265000Y-106298752D02*
X156265000Y-105776248D01*
X154535000Y-106298752D02*
X154535000Y-105776248D01*
X153065000Y-106298752D02*
X153065000Y-105776248D01*
X149765000Y-115776248D02*
X149765000Y-116298752D01*
X151235000Y-115776248D02*
X151235000Y-116298752D01*
X143165000Y-110776248D02*
X143165000Y-111298752D01*
X144635000Y-110776248D02*
X144635000Y-111298752D01*
X147935000Y-106298752D02*
X147935000Y-105776248D01*
X146465000Y-106298752D02*
X146465000Y-105776248D01*
X138035000Y-111298752D02*
X138035000Y-110776248D01*
X136565000Y-111298752D02*
X136565000Y-110776248D01*
X144635000Y-106298752D02*
X144635000Y-105776248D01*
X143165000Y-106298752D02*
X143165000Y-105776248D01*
X190635000Y-101298752D02*
X190635000Y-100776248D01*
X189165000Y-101298752D02*
X189165000Y-100776248D01*
X197610000Y-102273752D02*
X197610000Y-100851248D01*
X195790000Y-102273752D02*
X195790000Y-100851248D01*
X182465000Y-117301248D02*
X182465000Y-117823752D01*
X183935000Y-117301248D02*
X183935000Y-117823752D01*
X187235000Y-106298752D02*
X187235000Y-105776248D01*
X185765000Y-106298752D02*
X185765000Y-105776248D01*
X192390000Y-105851248D02*
X192390000Y-107273752D01*
X194210000Y-105851248D02*
X194210000Y-107273752D01*
X183835000Y-106298752D02*
X183835000Y-105776248D01*
X182365000Y-106298752D02*
X182365000Y-105776248D01*
D10*
X185552380Y-118242857D02*
X185076190Y-118576190D01*
X185552380Y-118814285D02*
X184552380Y-118814285D01*
X184552380Y-118433333D01*
X184600000Y-118338095D01*
X184647619Y-118290476D01*
X184742857Y-118242857D01*
X184885714Y-118242857D01*
X184980952Y-118290476D01*
X185028571Y-118338095D01*
X185076190Y-118433333D01*
X185076190Y-118814285D01*
X185552380Y-117290476D02*
X185552380Y-117861904D01*
X185552380Y-117576190D02*
X184552380Y-117576190D01*
X184695238Y-117671428D01*
X184790476Y-117766666D01*
X184838095Y-117861904D01*
X185552380Y-116338095D02*
X185552380Y-116909523D01*
X185552380Y-116623809D02*
X184552380Y-116623809D01*
X184695238Y-116719047D01*
X184790476Y-116814285D01*
X184838095Y-116909523D01*
X178999523Y-121852380D02*
X178428095Y-121852380D01*
X178713809Y-121852380D02*
X178713809Y-120852380D01*
X178618571Y-120995238D01*
X178523333Y-121090476D01*
X178428095Y-121138095D01*
X179332857Y-120852380D02*
X179999523Y-120852380D01*
X179570952Y-121852380D01*
X138725714Y-121632380D02*
X138154285Y-121632380D01*
X138440000Y-121632380D02*
X138440000Y-120632380D01*
X138344761Y-120775238D01*
X138249523Y-120870476D01*
X138154285Y-120918095D01*
X175252380Y-104861904D02*
X176061904Y-104861904D01*
X176157142Y-104814285D01*
X176204761Y-104766666D01*
X176252380Y-104671428D01*
X176252380Y-104480952D01*
X176204761Y-104385714D01*
X176157142Y-104338095D01*
X176061904Y-104290476D01*
X175252380Y-104290476D01*
X176252380Y-103290476D02*
X176252380Y-103861904D01*
X176252380Y-103576190D02*
X175252380Y-103576190D01*
X175395238Y-103671428D01*
X175490476Y-103766666D01*
X175538095Y-103861904D01*
X174552380Y-100914285D02*
X174552380Y-101485714D01*
X174552380Y-101200000D02*
X173552380Y-101200000D01*
X173695238Y-101295238D01*
X173790476Y-101390476D01*
X173838095Y-101485714D01*
X202052380Y-111338095D02*
X201052380Y-111338095D01*
X201052380Y-111100000D01*
X201100000Y-110957142D01*
X201195238Y-110861904D01*
X201290476Y-110814285D01*
X201480952Y-110766666D01*
X201623809Y-110766666D01*
X201814285Y-110814285D01*
X201909523Y-110861904D01*
X202004761Y-110957142D01*
X202052380Y-111100000D01*
X202052380Y-111338095D01*
X202052380Y-109814285D02*
X202052380Y-110385714D01*
X202052380Y-110100000D02*
X201052380Y-110100000D01*
X201195238Y-110195238D01*
X201290476Y-110290476D01*
X201338095Y-110385714D01*
X189552380Y-111338095D02*
X188552380Y-111338095D01*
X188552380Y-111100000D01*
X188600000Y-110957142D01*
X188695238Y-110861904D01*
X188790476Y-110814285D01*
X188980952Y-110766666D01*
X189123809Y-110766666D01*
X189314285Y-110814285D01*
X189409523Y-110861904D01*
X189504761Y-110957142D01*
X189552380Y-111100000D01*
X189552380Y-111338095D01*
X188885714Y-109909523D02*
X189552380Y-109909523D01*
X188504761Y-110147619D02*
X189219047Y-110385714D01*
X189219047Y-109766666D01*
X197852380Y-111338095D02*
X196852380Y-111338095D01*
X196852380Y-111100000D01*
X196900000Y-110957142D01*
X196995238Y-110861904D01*
X197090476Y-110814285D01*
X197280952Y-110766666D01*
X197423809Y-110766666D01*
X197614285Y-110814285D01*
X197709523Y-110861904D01*
X197804761Y-110957142D01*
X197852380Y-111100000D01*
X197852380Y-111338095D01*
X196852380Y-110433333D02*
X196852380Y-109814285D01*
X197233333Y-110147619D01*
X197233333Y-110004761D01*
X197280952Y-109909523D01*
X197328571Y-109861904D01*
X197423809Y-109814285D01*
X197661904Y-109814285D01*
X197757142Y-109861904D01*
X197804761Y-109909523D01*
X197852380Y-110004761D01*
X197852380Y-110290476D01*
X197804761Y-110385714D01*
X197757142Y-110433333D01*
X193752380Y-111376095D02*
X192752380Y-111376095D01*
X192752380Y-111138000D01*
X192800000Y-110995142D01*
X192895238Y-110899904D01*
X192990476Y-110852285D01*
X193180952Y-110804666D01*
X193323809Y-110804666D01*
X193514285Y-110852285D01*
X193609523Y-110899904D01*
X193704761Y-110995142D01*
X193752380Y-111138000D01*
X193752380Y-111376095D01*
X192847619Y-110423714D02*
X192800000Y-110376095D01*
X192752380Y-110280857D01*
X192752380Y-110042761D01*
X192800000Y-109947523D01*
X192847619Y-109899904D01*
X192942857Y-109852285D01*
X193038095Y-109852285D01*
X193180952Y-109899904D01*
X193752380Y-110471333D01*
X193752380Y-109852285D01*
X204952380Y-104661904D02*
X205761904Y-104661904D01*
X205857142Y-104614285D01*
X205904761Y-104566666D01*
X205952380Y-104471428D01*
X205952380Y-104280952D01*
X205904761Y-104185714D01*
X205857142Y-104138095D01*
X205761904Y-104090476D01*
X204952380Y-104090476D01*
X205047619Y-103661904D02*
X205000000Y-103614285D01*
X204952380Y-103519047D01*
X204952380Y-103280952D01*
X205000000Y-103185714D01*
X205047619Y-103138095D01*
X205142857Y-103090476D01*
X205238095Y-103090476D01*
X205380952Y-103138095D01*
X205952380Y-103709523D01*
X205952380Y-103090476D01*
X156102380Y-111642857D02*
X155626190Y-111976190D01*
X156102380Y-112214285D02*
X155102380Y-112214285D01*
X155102380Y-111833333D01*
X155150000Y-111738095D01*
X155197619Y-111690476D01*
X155292857Y-111642857D01*
X155435714Y-111642857D01*
X155530952Y-111690476D01*
X155578571Y-111738095D01*
X155626190Y-111833333D01*
X155626190Y-112214285D01*
X155102380Y-110738095D02*
X155102380Y-111214285D01*
X155578571Y-111261904D01*
X155530952Y-111214285D01*
X155483333Y-111119047D01*
X155483333Y-110880952D01*
X155530952Y-110785714D01*
X155578571Y-110738095D01*
X155673809Y-110690476D01*
X155911904Y-110690476D01*
X156007142Y-110738095D01*
X156054761Y-110785714D01*
X156102380Y-110880952D01*
X156102380Y-111119047D01*
X156054761Y-111214285D01*
X156007142Y-111261904D01*
X155102380Y-110071428D02*
X155102380Y-109976190D01*
X155150000Y-109880952D01*
X155197619Y-109833333D01*
X155292857Y-109785714D01*
X155483333Y-109738095D01*
X155721428Y-109738095D01*
X155911904Y-109785714D01*
X156007142Y-109833333D01*
X156054761Y-109880952D01*
X156102380Y-109976190D01*
X156102380Y-110071428D01*
X156054761Y-110166666D01*
X156007142Y-110214285D01*
X155911904Y-110261904D01*
X155721428Y-110309523D01*
X155483333Y-110309523D01*
X155292857Y-110261904D01*
X155197619Y-110214285D01*
X155150000Y-110166666D01*
X155102380Y-110071428D01*
X152802380Y-111592857D02*
X152326190Y-111926190D01*
X152802380Y-112164285D02*
X151802380Y-112164285D01*
X151802380Y-111783333D01*
X151850000Y-111688095D01*
X151897619Y-111640476D01*
X151992857Y-111592857D01*
X152135714Y-111592857D01*
X152230952Y-111640476D01*
X152278571Y-111688095D01*
X152326190Y-111783333D01*
X152326190Y-112164285D01*
X152135714Y-110735714D02*
X152802380Y-110735714D01*
X151754761Y-110973809D02*
X152469047Y-111211904D01*
X152469047Y-110592857D01*
X151802380Y-110307142D02*
X151802380Y-109688095D01*
X152183333Y-110021428D01*
X152183333Y-109878571D01*
X152230952Y-109783333D01*
X152278571Y-109735714D01*
X152373809Y-109688095D01*
X152611904Y-109688095D01*
X152707142Y-109735714D01*
X152754761Y-109783333D01*
X152802380Y-109878571D01*
X152802380Y-110164285D01*
X152754761Y-110259523D01*
X152707142Y-110307142D01*
X149502380Y-106642857D02*
X149026190Y-106976190D01*
X149502380Y-107214285D02*
X148502380Y-107214285D01*
X148502380Y-106833333D01*
X148550000Y-106738095D01*
X148597619Y-106690476D01*
X148692857Y-106642857D01*
X148835714Y-106642857D01*
X148930952Y-106690476D01*
X148978571Y-106738095D01*
X149026190Y-106833333D01*
X149026190Y-107214285D01*
X148835714Y-105785714D02*
X149502380Y-105785714D01*
X148454761Y-106023809D02*
X149169047Y-106261904D01*
X149169047Y-105642857D01*
X149502380Y-104738095D02*
X149502380Y-105309523D01*
X149502380Y-105023809D02*
X148502380Y-105023809D01*
X148645238Y-105119047D01*
X148740476Y-105214285D01*
X148788095Y-105309523D01*
X149552380Y-111592857D02*
X149076190Y-111926190D01*
X149552380Y-112164285D02*
X148552380Y-112164285D01*
X148552380Y-111783333D01*
X148600000Y-111688095D01*
X148647619Y-111640476D01*
X148742857Y-111592857D01*
X148885714Y-111592857D01*
X148980952Y-111640476D01*
X149028571Y-111688095D01*
X149076190Y-111783333D01*
X149076190Y-112164285D01*
X148552380Y-111259523D02*
X148552380Y-110640476D01*
X148933333Y-110973809D01*
X148933333Y-110830952D01*
X148980952Y-110735714D01*
X149028571Y-110688095D01*
X149123809Y-110640476D01*
X149361904Y-110640476D01*
X149457142Y-110688095D01*
X149504761Y-110735714D01*
X149552380Y-110830952D01*
X149552380Y-111116666D01*
X149504761Y-111211904D01*
X149457142Y-111259523D01*
X148552380Y-110307142D02*
X148552380Y-109640476D01*
X149552380Y-110069047D01*
X179002380Y-101642857D02*
X178526190Y-101976190D01*
X179002380Y-102214285D02*
X178002380Y-102214285D01*
X178002380Y-101833333D01*
X178050000Y-101738095D01*
X178097619Y-101690476D01*
X178192857Y-101642857D01*
X178335714Y-101642857D01*
X178430952Y-101690476D01*
X178478571Y-101738095D01*
X178526190Y-101833333D01*
X178526190Y-102214285D01*
X178002380Y-101309523D02*
X178002380Y-100690476D01*
X178383333Y-101023809D01*
X178383333Y-100880952D01*
X178430952Y-100785714D01*
X178478571Y-100738095D01*
X178573809Y-100690476D01*
X178811904Y-100690476D01*
X178907142Y-100738095D01*
X178954761Y-100785714D01*
X179002380Y-100880952D01*
X179002380Y-101166666D01*
X178954761Y-101261904D01*
X178907142Y-101309523D01*
X178002380Y-99833333D02*
X178002380Y-100023809D01*
X178050000Y-100119047D01*
X178097619Y-100166666D01*
X178240476Y-100261904D01*
X178430952Y-100309523D01*
X178811904Y-100309523D01*
X178907142Y-100261904D01*
X178954761Y-100214285D01*
X179002380Y-100119047D01*
X179002380Y-99928571D01*
X178954761Y-99833333D01*
X178907142Y-99785714D01*
X178811904Y-99738095D01*
X178573809Y-99738095D01*
X178478571Y-99785714D01*
X178430952Y-99833333D01*
X178383333Y-99928571D01*
X178383333Y-100119047D01*
X178430952Y-100214285D01*
X178478571Y-100261904D01*
X178573809Y-100309523D01*
X146202380Y-116642857D02*
X145726190Y-116976190D01*
X146202380Y-117214285D02*
X145202380Y-117214285D01*
X145202380Y-116833333D01*
X145250000Y-116738095D01*
X145297619Y-116690476D01*
X145392857Y-116642857D01*
X145535714Y-116642857D01*
X145630952Y-116690476D01*
X145678571Y-116738095D01*
X145726190Y-116833333D01*
X145726190Y-117214285D01*
X145202380Y-116309523D02*
X145202380Y-115690476D01*
X145583333Y-116023809D01*
X145583333Y-115880952D01*
X145630952Y-115785714D01*
X145678571Y-115738095D01*
X145773809Y-115690476D01*
X146011904Y-115690476D01*
X146107142Y-115738095D01*
X146154761Y-115785714D01*
X146202380Y-115880952D01*
X146202380Y-116166666D01*
X146154761Y-116261904D01*
X146107142Y-116309523D01*
X145202380Y-114785714D02*
X145202380Y-115261904D01*
X145678571Y-115309523D01*
X145630952Y-115261904D01*
X145583333Y-115166666D01*
X145583333Y-114928571D01*
X145630952Y-114833333D01*
X145678571Y-114785714D01*
X145773809Y-114738095D01*
X146011904Y-114738095D01*
X146107142Y-114785714D01*
X146154761Y-114833333D01*
X146202380Y-114928571D01*
X146202380Y-115166666D01*
X146154761Y-115261904D01*
X146107142Y-115309523D01*
X146252380Y-111692857D02*
X145776190Y-112026190D01*
X146252380Y-112264285D02*
X145252380Y-112264285D01*
X145252380Y-111883333D01*
X145300000Y-111788095D01*
X145347619Y-111740476D01*
X145442857Y-111692857D01*
X145585714Y-111692857D01*
X145680952Y-111740476D01*
X145728571Y-111788095D01*
X145776190Y-111883333D01*
X145776190Y-112264285D01*
X145252380Y-111359523D02*
X145252380Y-110740476D01*
X145633333Y-111073809D01*
X145633333Y-110930952D01*
X145680952Y-110835714D01*
X145728571Y-110788095D01*
X145823809Y-110740476D01*
X146061904Y-110740476D01*
X146157142Y-110788095D01*
X146204761Y-110835714D01*
X146252380Y-110930952D01*
X146252380Y-111216666D01*
X146204761Y-111311904D01*
X146157142Y-111359523D01*
X145585714Y-109883333D02*
X146252380Y-109883333D01*
X145204761Y-110121428D02*
X145919047Y-110359523D01*
X145919047Y-109740476D01*
X142952380Y-116642857D02*
X142476190Y-116976190D01*
X142952380Y-117214285D02*
X141952380Y-117214285D01*
X141952380Y-116833333D01*
X142000000Y-116738095D01*
X142047619Y-116690476D01*
X142142857Y-116642857D01*
X142285714Y-116642857D01*
X142380952Y-116690476D01*
X142428571Y-116738095D01*
X142476190Y-116833333D01*
X142476190Y-117214285D01*
X141952380Y-116309523D02*
X141952380Y-115690476D01*
X142333333Y-116023809D01*
X142333333Y-115880952D01*
X142380952Y-115785714D01*
X142428571Y-115738095D01*
X142523809Y-115690476D01*
X142761904Y-115690476D01*
X142857142Y-115738095D01*
X142904761Y-115785714D01*
X142952380Y-115880952D01*
X142952380Y-116166666D01*
X142904761Y-116261904D01*
X142857142Y-116309523D01*
X142952380Y-114738095D02*
X142952380Y-115309523D01*
X142952380Y-115023809D02*
X141952380Y-115023809D01*
X142095238Y-115119047D01*
X142190476Y-115214285D01*
X142238095Y-115309523D01*
X139652380Y-111742857D02*
X139176190Y-112076190D01*
X139652380Y-112314285D02*
X138652380Y-112314285D01*
X138652380Y-111933333D01*
X138700000Y-111838095D01*
X138747619Y-111790476D01*
X138842857Y-111742857D01*
X138985714Y-111742857D01*
X139080952Y-111790476D01*
X139128571Y-111838095D01*
X139176190Y-111933333D01*
X139176190Y-112314285D01*
X138652380Y-111409523D02*
X138652380Y-110790476D01*
X139033333Y-111123809D01*
X139033333Y-110980952D01*
X139080952Y-110885714D01*
X139128571Y-110838095D01*
X139223809Y-110790476D01*
X139461904Y-110790476D01*
X139557142Y-110838095D01*
X139604761Y-110885714D01*
X139652380Y-110980952D01*
X139652380Y-111266666D01*
X139604761Y-111361904D01*
X139557142Y-111409523D01*
X138652380Y-110171428D02*
X138652380Y-110076190D01*
X138700000Y-109980952D01*
X138747619Y-109933333D01*
X138842857Y-109885714D01*
X139033333Y-109838095D01*
X139271428Y-109838095D01*
X139461904Y-109885714D01*
X139557142Y-109933333D01*
X139604761Y-109980952D01*
X139652380Y-110076190D01*
X139652380Y-110171428D01*
X139604761Y-110266666D01*
X139557142Y-110314285D01*
X139461904Y-110361904D01*
X139271428Y-110409523D01*
X139033333Y-110409523D01*
X138842857Y-110361904D01*
X138747619Y-110314285D01*
X138700000Y-110266666D01*
X138652380Y-110171428D01*
X139602380Y-106642857D02*
X139126190Y-106976190D01*
X139602380Y-107214285D02*
X138602380Y-107214285D01*
X138602380Y-106833333D01*
X138650000Y-106738095D01*
X138697619Y-106690476D01*
X138792857Y-106642857D01*
X138935714Y-106642857D01*
X139030952Y-106690476D01*
X139078571Y-106738095D01*
X139126190Y-106833333D01*
X139126190Y-107214285D01*
X138697619Y-106261904D02*
X138650000Y-106214285D01*
X138602380Y-106119047D01*
X138602380Y-105880952D01*
X138650000Y-105785714D01*
X138697619Y-105738095D01*
X138792857Y-105690476D01*
X138888095Y-105690476D01*
X139030952Y-105738095D01*
X139602380Y-106309523D01*
X139602380Y-105690476D01*
X138602380Y-105357142D02*
X138602380Y-104690476D01*
X139602380Y-105119047D01*
X139652380Y-116642857D02*
X139176190Y-116976190D01*
X139652380Y-117214285D02*
X138652380Y-117214285D01*
X138652380Y-116833333D01*
X138700000Y-116738095D01*
X138747619Y-116690476D01*
X138842857Y-116642857D01*
X138985714Y-116642857D01*
X139080952Y-116690476D01*
X139128571Y-116738095D01*
X139176190Y-116833333D01*
X139176190Y-117214285D01*
X138747619Y-116261904D02*
X138700000Y-116214285D01*
X138652380Y-116119047D01*
X138652380Y-115880952D01*
X138700000Y-115785714D01*
X138747619Y-115738095D01*
X138842857Y-115690476D01*
X138938095Y-115690476D01*
X139080952Y-115738095D01*
X139652380Y-116309523D01*
X139652380Y-115690476D01*
X138652380Y-115357142D02*
X138652380Y-114738095D01*
X139033333Y-115071428D01*
X139033333Y-114928571D01*
X139080952Y-114833333D01*
X139128571Y-114785714D01*
X139223809Y-114738095D01*
X139461904Y-114738095D01*
X139557142Y-114785714D01*
X139604761Y-114833333D01*
X139652380Y-114928571D01*
X139652380Y-115214285D01*
X139604761Y-115309523D01*
X139557142Y-115357142D01*
X136352380Y-116692857D02*
X135876190Y-117026190D01*
X136352380Y-117264285D02*
X135352380Y-117264285D01*
X135352380Y-116883333D01*
X135400000Y-116788095D01*
X135447619Y-116740476D01*
X135542857Y-116692857D01*
X135685714Y-116692857D01*
X135780952Y-116740476D01*
X135828571Y-116788095D01*
X135876190Y-116883333D01*
X135876190Y-117264285D01*
X135447619Y-116311904D02*
X135400000Y-116264285D01*
X135352380Y-116169047D01*
X135352380Y-115930952D01*
X135400000Y-115835714D01*
X135447619Y-115788095D01*
X135542857Y-115740476D01*
X135638095Y-115740476D01*
X135780952Y-115788095D01*
X136352380Y-116359523D01*
X136352380Y-115740476D01*
X135447619Y-115359523D02*
X135400000Y-115311904D01*
X135352380Y-115216666D01*
X135352380Y-114978571D01*
X135400000Y-114883333D01*
X135447619Y-114835714D01*
X135542857Y-114788095D01*
X135638095Y-114788095D01*
X135780952Y-114835714D01*
X136352380Y-115407142D01*
X136352380Y-114788095D01*
X136302380Y-106642857D02*
X135826190Y-106976190D01*
X136302380Y-107214285D02*
X135302380Y-107214285D01*
X135302380Y-106833333D01*
X135350000Y-106738095D01*
X135397619Y-106690476D01*
X135492857Y-106642857D01*
X135635714Y-106642857D01*
X135730952Y-106690476D01*
X135778571Y-106738095D01*
X135826190Y-106833333D01*
X135826190Y-107214285D01*
X135397619Y-106261904D02*
X135350000Y-106214285D01*
X135302380Y-106119047D01*
X135302380Y-105880952D01*
X135350000Y-105785714D01*
X135397619Y-105738095D01*
X135492857Y-105690476D01*
X135588095Y-105690476D01*
X135730952Y-105738095D01*
X136302380Y-106309523D01*
X136302380Y-105690476D01*
X136302380Y-104738095D02*
X136302380Y-105309523D01*
X136302380Y-105023809D02*
X135302380Y-105023809D01*
X135445238Y-105119047D01*
X135540476Y-105214285D01*
X135588095Y-105309523D01*
X185502380Y-101642857D02*
X185026190Y-101976190D01*
X185502380Y-102214285D02*
X184502380Y-102214285D01*
X184502380Y-101833333D01*
X184550000Y-101738095D01*
X184597619Y-101690476D01*
X184692857Y-101642857D01*
X184835714Y-101642857D01*
X184930952Y-101690476D01*
X184978571Y-101738095D01*
X185026190Y-101833333D01*
X185026190Y-102214285D01*
X185502380Y-100690476D02*
X185502380Y-101261904D01*
X185502380Y-100976190D02*
X184502380Y-100976190D01*
X184645238Y-101071428D01*
X184740476Y-101166666D01*
X184788095Y-101261904D01*
X184930952Y-100119047D02*
X184883333Y-100214285D01*
X184835714Y-100261904D01*
X184740476Y-100309523D01*
X184692857Y-100309523D01*
X184597619Y-100261904D01*
X184550000Y-100214285D01*
X184502380Y-100119047D01*
X184502380Y-99928571D01*
X184550000Y-99833333D01*
X184597619Y-99785714D01*
X184692857Y-99738095D01*
X184740476Y-99738095D01*
X184835714Y-99785714D01*
X184883333Y-99833333D01*
X184930952Y-99928571D01*
X184930952Y-100119047D01*
X184978571Y-100214285D01*
X185026190Y-100261904D01*
X185121428Y-100309523D01*
X185311904Y-100309523D01*
X185407142Y-100261904D01*
X185454761Y-100214285D01*
X185502380Y-100119047D01*
X185502380Y-99928571D01*
X185454761Y-99833333D01*
X185407142Y-99785714D01*
X185311904Y-99738095D01*
X185121428Y-99738095D01*
X185026190Y-99785714D01*
X184978571Y-99833333D01*
X184930952Y-99928571D01*
X179002380Y-118242857D02*
X178526190Y-118576190D01*
X179002380Y-118814285D02*
X178002380Y-118814285D01*
X178002380Y-118433333D01*
X178050000Y-118338095D01*
X178097619Y-118290476D01*
X178192857Y-118242857D01*
X178335714Y-118242857D01*
X178430952Y-118290476D01*
X178478571Y-118338095D01*
X178526190Y-118433333D01*
X178526190Y-118814285D01*
X179002380Y-117290476D02*
X179002380Y-117861904D01*
X179002380Y-117576190D02*
X178002380Y-117576190D01*
X178145238Y-117671428D01*
X178240476Y-117766666D01*
X178288095Y-117861904D01*
X178002380Y-116957142D02*
X178002380Y-116290476D01*
X179002380Y-116719047D01*
X182052380Y-113642857D02*
X181576190Y-113976190D01*
X182052380Y-114214285D02*
X181052380Y-114214285D01*
X181052380Y-113833333D01*
X181100000Y-113738095D01*
X181147619Y-113690476D01*
X181242857Y-113642857D01*
X181385714Y-113642857D01*
X181480952Y-113690476D01*
X181528571Y-113738095D01*
X181576190Y-113833333D01*
X181576190Y-114214285D01*
X182052380Y-112690476D02*
X182052380Y-113261904D01*
X182052380Y-112976190D02*
X181052380Y-112976190D01*
X181195238Y-113071428D01*
X181290476Y-113166666D01*
X181338095Y-113261904D01*
X181052380Y-112357142D02*
X181052380Y-111738095D01*
X181433333Y-112071428D01*
X181433333Y-111928571D01*
X181480952Y-111833333D01*
X181528571Y-111785714D01*
X181623809Y-111738095D01*
X181861904Y-111738095D01*
X181957142Y-111785714D01*
X182004761Y-111833333D01*
X182052380Y-111928571D01*
X182052380Y-112214285D01*
X182004761Y-112309523D01*
X181957142Y-112357142D01*
X185502380Y-112842857D02*
X185026190Y-113176190D01*
X185502380Y-113414285D02*
X184502380Y-113414285D01*
X184502380Y-113033333D01*
X184550000Y-112938095D01*
X184597619Y-112890476D01*
X184692857Y-112842857D01*
X184835714Y-112842857D01*
X184930952Y-112890476D01*
X184978571Y-112938095D01*
X185026190Y-113033333D01*
X185026190Y-113414285D01*
X185502380Y-111890476D02*
X185502380Y-112461904D01*
X185502380Y-112176190D02*
X184502380Y-112176190D01*
X184645238Y-112271428D01*
X184740476Y-112366666D01*
X184788095Y-112461904D01*
X184597619Y-111509523D02*
X184550000Y-111461904D01*
X184502380Y-111366666D01*
X184502380Y-111128571D01*
X184550000Y-111033333D01*
X184597619Y-110985714D01*
X184692857Y-110938095D01*
X184788095Y-110938095D01*
X184930952Y-110985714D01*
X185502380Y-111557142D01*
X185502380Y-110938095D01*
X192302380Y-101266666D02*
X191826190Y-101600000D01*
X192302380Y-101838095D02*
X191302380Y-101838095D01*
X191302380Y-101457142D01*
X191350000Y-101361904D01*
X191397619Y-101314285D01*
X191492857Y-101266666D01*
X191635714Y-101266666D01*
X191730952Y-101314285D01*
X191778571Y-101361904D01*
X191826190Y-101457142D01*
X191826190Y-101838095D01*
X192302380Y-100790476D02*
X192302380Y-100600000D01*
X192254761Y-100504761D01*
X192207142Y-100457142D01*
X192064285Y-100361904D01*
X191873809Y-100314285D01*
X191492857Y-100314285D01*
X191397619Y-100361904D01*
X191350000Y-100409523D01*
X191302380Y-100504761D01*
X191302380Y-100695238D01*
X191350000Y-100790476D01*
X191397619Y-100838095D01*
X191492857Y-100885714D01*
X191730952Y-100885714D01*
X191826190Y-100838095D01*
X191873809Y-100790476D01*
X191921428Y-100695238D01*
X191921428Y-100504761D01*
X191873809Y-100409523D01*
X191826190Y-100361904D01*
X191730952Y-100314285D01*
X188902380Y-106166666D02*
X188426190Y-106500000D01*
X188902380Y-106738095D02*
X187902380Y-106738095D01*
X187902380Y-106357142D01*
X187950000Y-106261904D01*
X187997619Y-106214285D01*
X188092857Y-106166666D01*
X188235714Y-106166666D01*
X188330952Y-106214285D01*
X188378571Y-106261904D01*
X188426190Y-106357142D01*
X188426190Y-106738095D01*
X187902380Y-105833333D02*
X187902380Y-105166666D01*
X188902380Y-105595238D01*
X195702380Y-107266666D02*
X195226190Y-107600000D01*
X195702380Y-107838095D02*
X194702380Y-107838095D01*
X194702380Y-107457142D01*
X194750000Y-107361904D01*
X194797619Y-107314285D01*
X194892857Y-107266666D01*
X195035714Y-107266666D01*
X195130952Y-107314285D01*
X195178571Y-107361904D01*
X195226190Y-107457142D01*
X195226190Y-107838095D01*
X194702380Y-106409523D02*
X194702380Y-106600000D01*
X194750000Y-106695238D01*
X194797619Y-106742857D01*
X194940476Y-106838095D01*
X195130952Y-106885714D01*
X195511904Y-106885714D01*
X195607142Y-106838095D01*
X195654761Y-106790476D01*
X195702380Y-106695238D01*
X195702380Y-106504761D01*
X195654761Y-106409523D01*
X195607142Y-106361904D01*
X195511904Y-106314285D01*
X195273809Y-106314285D01*
X195178571Y-106361904D01*
X195130952Y-106409523D01*
X195083333Y-106504761D01*
X195083333Y-106695238D01*
X195130952Y-106790476D01*
X195178571Y-106838095D01*
X195273809Y-106885714D01*
X189647619Y-115995238D02*
X189600000Y-116090476D01*
X189504761Y-116185714D01*
X189361904Y-116328571D01*
X189314285Y-116423809D01*
X189314285Y-116519047D01*
X189552380Y-116471428D02*
X189504761Y-116566666D01*
X189409523Y-116661904D01*
X189219047Y-116709523D01*
X188885714Y-116709523D01*
X188695238Y-116661904D01*
X188600000Y-116566666D01*
X188552380Y-116471428D01*
X188552380Y-116280952D01*
X188600000Y-116185714D01*
X188695238Y-116090476D01*
X188885714Y-116042857D01*
X189219047Y-116042857D01*
X189409523Y-116090476D01*
X189504761Y-116185714D01*
X189552380Y-116280952D01*
X189552380Y-116471428D01*
X188885714Y-115185714D02*
X189552380Y-115185714D01*
X188504761Y-115423809D02*
X189219047Y-115661904D01*
X189219047Y-115042857D01*
X197947619Y-115995238D02*
X197900000Y-116090476D01*
X197804761Y-116185714D01*
X197661904Y-116328571D01*
X197614285Y-116423809D01*
X197614285Y-116519047D01*
X197852380Y-116471428D02*
X197804761Y-116566666D01*
X197709523Y-116661904D01*
X197519047Y-116709523D01*
X197185714Y-116709523D01*
X196995238Y-116661904D01*
X196900000Y-116566666D01*
X196852380Y-116471428D01*
X196852380Y-116280952D01*
X196900000Y-116185714D01*
X196995238Y-116090476D01*
X197185714Y-116042857D01*
X197519047Y-116042857D01*
X197709523Y-116090476D01*
X197804761Y-116185714D01*
X197852380Y-116280952D01*
X197852380Y-116471428D01*
X196852380Y-115709523D02*
X196852380Y-115090476D01*
X197233333Y-115423809D01*
X197233333Y-115280952D01*
X197280952Y-115185714D01*
X197328571Y-115138095D01*
X197423809Y-115090476D01*
X197661904Y-115090476D01*
X197757142Y-115138095D01*
X197804761Y-115185714D01*
X197852380Y-115280952D01*
X197852380Y-115566666D01*
X197804761Y-115661904D01*
X197757142Y-115709523D01*
X193847619Y-115995238D02*
X193800000Y-116090476D01*
X193704761Y-116185714D01*
X193561904Y-116328571D01*
X193514285Y-116423809D01*
X193514285Y-116519047D01*
X193752380Y-116471428D02*
X193704761Y-116566666D01*
X193609523Y-116661904D01*
X193419047Y-116709523D01*
X193085714Y-116709523D01*
X192895238Y-116661904D01*
X192800000Y-116566666D01*
X192752380Y-116471428D01*
X192752380Y-116280952D01*
X192800000Y-116185714D01*
X192895238Y-116090476D01*
X193085714Y-116042857D01*
X193419047Y-116042857D01*
X193609523Y-116090476D01*
X193704761Y-116185714D01*
X193752380Y-116280952D01*
X193752380Y-116471428D01*
X192847619Y-115661904D02*
X192800000Y-115614285D01*
X192752380Y-115519047D01*
X192752380Y-115280952D01*
X192800000Y-115185714D01*
X192847619Y-115138095D01*
X192942857Y-115090476D01*
X193038095Y-115090476D01*
X193180952Y-115138095D01*
X193752380Y-115709523D01*
X193752380Y-115090476D01*
X202047619Y-115995238D02*
X202000000Y-116090476D01*
X201904761Y-116185714D01*
X201761904Y-116328571D01*
X201714285Y-116423809D01*
X201714285Y-116519047D01*
X201952380Y-116471428D02*
X201904761Y-116566666D01*
X201809523Y-116661904D01*
X201619047Y-116709523D01*
X201285714Y-116709523D01*
X201095238Y-116661904D01*
X201000000Y-116566666D01*
X200952380Y-116471428D01*
X200952380Y-116280952D01*
X201000000Y-116185714D01*
X201095238Y-116090476D01*
X201285714Y-116042857D01*
X201619047Y-116042857D01*
X201809523Y-116090476D01*
X201904761Y-116185714D01*
X201952380Y-116280952D01*
X201952380Y-116471428D01*
X201952380Y-115090476D02*
X201952380Y-115661904D01*
X201952380Y-115376190D02*
X200952380Y-115376190D01*
X201095238Y-115471428D01*
X201190476Y-115566666D01*
X201238095Y-115661904D01*
X156007142Y-116692857D02*
X156054761Y-116740476D01*
X156102380Y-116883333D01*
X156102380Y-116978571D01*
X156054761Y-117121428D01*
X155959523Y-117216666D01*
X155864285Y-117264285D01*
X155673809Y-117311904D01*
X155530952Y-117311904D01*
X155340476Y-117264285D01*
X155245238Y-117216666D01*
X155150000Y-117121428D01*
X155102380Y-116978571D01*
X155102380Y-116883333D01*
X155150000Y-116740476D01*
X155197619Y-116692857D01*
X155435714Y-115835714D02*
X156102380Y-115835714D01*
X155054761Y-116073809D02*
X155769047Y-116311904D01*
X155769047Y-115692857D01*
X155102380Y-115121428D02*
X155102380Y-115026190D01*
X155150000Y-114930952D01*
X155197619Y-114883333D01*
X155292857Y-114835714D01*
X155483333Y-114788095D01*
X155721428Y-114788095D01*
X155911904Y-114835714D01*
X156007142Y-114883333D01*
X156054761Y-114930952D01*
X156102380Y-115026190D01*
X156102380Y-115121428D01*
X156054761Y-115216666D01*
X156007142Y-115264285D01*
X155911904Y-115311904D01*
X155721428Y-115359523D01*
X155483333Y-115359523D01*
X155292857Y-115311904D01*
X155197619Y-115264285D01*
X155150000Y-115216666D01*
X155102380Y-115121428D01*
X155907142Y-106642857D02*
X155954761Y-106690476D01*
X156002380Y-106833333D01*
X156002380Y-106928571D01*
X155954761Y-107071428D01*
X155859523Y-107166666D01*
X155764285Y-107214285D01*
X155573809Y-107261904D01*
X155430952Y-107261904D01*
X155240476Y-107214285D01*
X155145238Y-107166666D01*
X155050000Y-107071428D01*
X155002380Y-106928571D01*
X155002380Y-106833333D01*
X155050000Y-106690476D01*
X155097619Y-106642857D01*
X155002380Y-106309523D02*
X155002380Y-105690476D01*
X155383333Y-106023809D01*
X155383333Y-105880952D01*
X155430952Y-105785714D01*
X155478571Y-105738095D01*
X155573809Y-105690476D01*
X155811904Y-105690476D01*
X155907142Y-105738095D01*
X155954761Y-105785714D01*
X156002380Y-105880952D01*
X156002380Y-106166666D01*
X155954761Y-106261904D01*
X155907142Y-106309523D01*
X155430952Y-105119047D02*
X155383333Y-105214285D01*
X155335714Y-105261904D01*
X155240476Y-105309523D01*
X155192857Y-105309523D01*
X155097619Y-105261904D01*
X155050000Y-105214285D01*
X155002380Y-105119047D01*
X155002380Y-104928571D01*
X155050000Y-104833333D01*
X155097619Y-104785714D01*
X155192857Y-104738095D01*
X155240476Y-104738095D01*
X155335714Y-104785714D01*
X155383333Y-104833333D01*
X155430952Y-104928571D01*
X155430952Y-105119047D01*
X155478571Y-105214285D01*
X155526190Y-105261904D01*
X155621428Y-105309523D01*
X155811904Y-105309523D01*
X155907142Y-105261904D01*
X155954761Y-105214285D01*
X156002380Y-105119047D01*
X156002380Y-104928571D01*
X155954761Y-104833333D01*
X155907142Y-104785714D01*
X155811904Y-104738095D01*
X155621428Y-104738095D01*
X155526190Y-104785714D01*
X155478571Y-104833333D01*
X155430952Y-104928571D01*
X152707142Y-106692857D02*
X152754761Y-106740476D01*
X152802380Y-106883333D01*
X152802380Y-106978571D01*
X152754761Y-107121428D01*
X152659523Y-107216666D01*
X152564285Y-107264285D01*
X152373809Y-107311904D01*
X152230952Y-107311904D01*
X152040476Y-107264285D01*
X151945238Y-107216666D01*
X151850000Y-107121428D01*
X151802380Y-106978571D01*
X151802380Y-106883333D01*
X151850000Y-106740476D01*
X151897619Y-106692857D01*
X151802380Y-106359523D02*
X151802380Y-105740476D01*
X152183333Y-106073809D01*
X152183333Y-105930952D01*
X152230952Y-105835714D01*
X152278571Y-105788095D01*
X152373809Y-105740476D01*
X152611904Y-105740476D01*
X152707142Y-105788095D01*
X152754761Y-105835714D01*
X152802380Y-105930952D01*
X152802380Y-106216666D01*
X152754761Y-106311904D01*
X152707142Y-106359523D01*
X152135714Y-104883333D02*
X152802380Y-104883333D01*
X151754761Y-105121428D02*
X152469047Y-105359523D01*
X152469047Y-104740476D01*
X149357142Y-116692857D02*
X149404761Y-116740476D01*
X149452380Y-116883333D01*
X149452380Y-116978571D01*
X149404761Y-117121428D01*
X149309523Y-117216666D01*
X149214285Y-117264285D01*
X149023809Y-117311904D01*
X148880952Y-117311904D01*
X148690476Y-117264285D01*
X148595238Y-117216666D01*
X148500000Y-117121428D01*
X148452380Y-116978571D01*
X148452380Y-116883333D01*
X148500000Y-116740476D01*
X148547619Y-116692857D01*
X148452380Y-116359523D02*
X148452380Y-115740476D01*
X148833333Y-116073809D01*
X148833333Y-115930952D01*
X148880952Y-115835714D01*
X148928571Y-115788095D01*
X149023809Y-115740476D01*
X149261904Y-115740476D01*
X149357142Y-115788095D01*
X149404761Y-115835714D01*
X149452380Y-115930952D01*
X149452380Y-116216666D01*
X149404761Y-116311904D01*
X149357142Y-116359523D01*
X148452380Y-115407142D02*
X148452380Y-114788095D01*
X148833333Y-115121428D01*
X148833333Y-114978571D01*
X148880952Y-114883333D01*
X148928571Y-114835714D01*
X149023809Y-114788095D01*
X149261904Y-114788095D01*
X149357142Y-114835714D01*
X149404761Y-114883333D01*
X149452380Y-114978571D01*
X149452380Y-115264285D01*
X149404761Y-115359523D01*
X149357142Y-115407142D01*
X142857142Y-111680357D02*
X142904761Y-111727976D01*
X142952380Y-111870833D01*
X142952380Y-111966071D01*
X142904761Y-112108928D01*
X142809523Y-112204166D01*
X142714285Y-112251785D01*
X142523809Y-112299404D01*
X142380952Y-112299404D01*
X142190476Y-112251785D01*
X142095238Y-112204166D01*
X142000000Y-112108928D01*
X141952380Y-111966071D01*
X141952380Y-111870833D01*
X142000000Y-111727976D01*
X142047619Y-111680357D01*
X141952380Y-111347023D02*
X141952380Y-110727976D01*
X142333333Y-111061309D01*
X142333333Y-110918452D01*
X142380952Y-110823214D01*
X142428571Y-110775595D01*
X142523809Y-110727976D01*
X142761904Y-110727976D01*
X142857142Y-110775595D01*
X142904761Y-110823214D01*
X142952380Y-110918452D01*
X142952380Y-111204166D01*
X142904761Y-111299404D01*
X142857142Y-111347023D01*
X141952380Y-110108928D02*
X141952380Y-110013690D01*
X142000000Y-109918452D01*
X142047619Y-109870833D01*
X142142857Y-109823214D01*
X142333333Y-109775595D01*
X142571428Y-109775595D01*
X142761904Y-109823214D01*
X142857142Y-109870833D01*
X142904761Y-109918452D01*
X142952380Y-110013690D01*
X142952380Y-110108928D01*
X142904761Y-110204166D01*
X142857142Y-110251785D01*
X142761904Y-110299404D01*
X142571428Y-110347023D01*
X142333333Y-110347023D01*
X142142857Y-110299404D01*
X142047619Y-110251785D01*
X142000000Y-110204166D01*
X141952380Y-110108928D01*
X146107142Y-106692857D02*
X146154761Y-106740476D01*
X146202380Y-106883333D01*
X146202380Y-106978571D01*
X146154761Y-107121428D01*
X146059523Y-107216666D01*
X145964285Y-107264285D01*
X145773809Y-107311904D01*
X145630952Y-107311904D01*
X145440476Y-107264285D01*
X145345238Y-107216666D01*
X145250000Y-107121428D01*
X145202380Y-106978571D01*
X145202380Y-106883333D01*
X145250000Y-106740476D01*
X145297619Y-106692857D01*
X145297619Y-106311904D02*
X145250000Y-106264285D01*
X145202380Y-106169047D01*
X145202380Y-105930952D01*
X145250000Y-105835714D01*
X145297619Y-105788095D01*
X145392857Y-105740476D01*
X145488095Y-105740476D01*
X145630952Y-105788095D01*
X146202380Y-106359523D01*
X146202380Y-105740476D01*
X146202380Y-105264285D02*
X146202380Y-105073809D01*
X146154761Y-104978571D01*
X146107142Y-104930952D01*
X145964285Y-104835714D01*
X145773809Y-104788095D01*
X145392857Y-104788095D01*
X145297619Y-104835714D01*
X145250000Y-104883333D01*
X145202380Y-104978571D01*
X145202380Y-105169047D01*
X145250000Y-105264285D01*
X145297619Y-105311904D01*
X145392857Y-105359523D01*
X145630952Y-105359523D01*
X145726190Y-105311904D01*
X145773809Y-105264285D01*
X145821428Y-105169047D01*
X145821428Y-104978571D01*
X145773809Y-104883333D01*
X145726190Y-104835714D01*
X145630952Y-104788095D01*
X136207142Y-111742857D02*
X136254761Y-111790476D01*
X136302380Y-111933333D01*
X136302380Y-112028571D01*
X136254761Y-112171428D01*
X136159523Y-112266666D01*
X136064285Y-112314285D01*
X135873809Y-112361904D01*
X135730952Y-112361904D01*
X135540476Y-112314285D01*
X135445238Y-112266666D01*
X135350000Y-112171428D01*
X135302380Y-112028571D01*
X135302380Y-111933333D01*
X135350000Y-111790476D01*
X135397619Y-111742857D01*
X135397619Y-111361904D02*
X135350000Y-111314285D01*
X135302380Y-111219047D01*
X135302380Y-110980952D01*
X135350000Y-110885714D01*
X135397619Y-110838095D01*
X135492857Y-110790476D01*
X135588095Y-110790476D01*
X135730952Y-110838095D01*
X136302380Y-111409523D01*
X136302380Y-110790476D01*
X135302380Y-109885714D02*
X135302380Y-110361904D01*
X135778571Y-110409523D01*
X135730952Y-110361904D01*
X135683333Y-110266666D01*
X135683333Y-110028571D01*
X135730952Y-109933333D01*
X135778571Y-109885714D01*
X135873809Y-109838095D01*
X136111904Y-109838095D01*
X136207142Y-109885714D01*
X136254761Y-109933333D01*
X136302380Y-110028571D01*
X136302380Y-110266666D01*
X136254761Y-110361904D01*
X136207142Y-110409523D01*
X142807142Y-106692857D02*
X142854761Y-106740476D01*
X142902380Y-106883333D01*
X142902380Y-106978571D01*
X142854761Y-107121428D01*
X142759523Y-107216666D01*
X142664285Y-107264285D01*
X142473809Y-107311904D01*
X142330952Y-107311904D01*
X142140476Y-107264285D01*
X142045238Y-107216666D01*
X141950000Y-107121428D01*
X141902380Y-106978571D01*
X141902380Y-106883333D01*
X141950000Y-106740476D01*
X141997619Y-106692857D01*
X141997619Y-106311904D02*
X141950000Y-106264285D01*
X141902380Y-106169047D01*
X141902380Y-105930952D01*
X141950000Y-105835714D01*
X141997619Y-105788095D01*
X142092857Y-105740476D01*
X142188095Y-105740476D01*
X142330952Y-105788095D01*
X142902380Y-106359523D01*
X142902380Y-105740476D01*
X141997619Y-105359523D02*
X141950000Y-105311904D01*
X141902380Y-105216666D01*
X141902380Y-104978571D01*
X141950000Y-104883333D01*
X141997619Y-104835714D01*
X142092857Y-104788095D01*
X142188095Y-104788095D01*
X142330952Y-104835714D01*
X142902380Y-105407142D01*
X142902380Y-104788095D01*
X188807142Y-101692857D02*
X188854761Y-101740476D01*
X188902380Y-101883333D01*
X188902380Y-101978571D01*
X188854761Y-102121428D01*
X188759523Y-102216666D01*
X188664285Y-102264285D01*
X188473809Y-102311904D01*
X188330952Y-102311904D01*
X188140476Y-102264285D01*
X188045238Y-102216666D01*
X187950000Y-102121428D01*
X187902380Y-101978571D01*
X187902380Y-101883333D01*
X187950000Y-101740476D01*
X187997619Y-101692857D01*
X188902380Y-100740476D02*
X188902380Y-101311904D01*
X188902380Y-101026190D02*
X187902380Y-101026190D01*
X188045238Y-101121428D01*
X188140476Y-101216666D01*
X188188095Y-101311904D01*
X188330952Y-100169047D02*
X188283333Y-100264285D01*
X188235714Y-100311904D01*
X188140476Y-100359523D01*
X188092857Y-100359523D01*
X187997619Y-100311904D01*
X187950000Y-100264285D01*
X187902380Y-100169047D01*
X187902380Y-99978571D01*
X187950000Y-99883333D01*
X187997619Y-99835714D01*
X188092857Y-99788095D01*
X188140476Y-99788095D01*
X188235714Y-99835714D01*
X188283333Y-99883333D01*
X188330952Y-99978571D01*
X188330952Y-100169047D01*
X188378571Y-100264285D01*
X188426190Y-100311904D01*
X188521428Y-100359523D01*
X188711904Y-100359523D01*
X188807142Y-100311904D01*
X188854761Y-100264285D01*
X188902380Y-100169047D01*
X188902380Y-99978571D01*
X188854761Y-99883333D01*
X188807142Y-99835714D01*
X188711904Y-99788095D01*
X188521428Y-99788095D01*
X188426190Y-99835714D01*
X188378571Y-99883333D01*
X188330952Y-99978571D01*
X195357142Y-102242857D02*
X195404761Y-102290476D01*
X195452380Y-102433333D01*
X195452380Y-102528571D01*
X195404761Y-102671428D01*
X195309523Y-102766666D01*
X195214285Y-102814285D01*
X195023809Y-102861904D01*
X194880952Y-102861904D01*
X194690476Y-102814285D01*
X194595238Y-102766666D01*
X194500000Y-102671428D01*
X194452380Y-102528571D01*
X194452380Y-102433333D01*
X194500000Y-102290476D01*
X194547619Y-102242857D01*
X195452380Y-101290476D02*
X195452380Y-101861904D01*
X195452380Y-101576190D02*
X194452380Y-101576190D01*
X194595238Y-101671428D01*
X194690476Y-101766666D01*
X194738095Y-101861904D01*
X194452380Y-100385714D02*
X194452380Y-100861904D01*
X194928571Y-100909523D01*
X194880952Y-100861904D01*
X194833333Y-100766666D01*
X194833333Y-100528571D01*
X194880952Y-100433333D01*
X194928571Y-100385714D01*
X195023809Y-100338095D01*
X195261904Y-100338095D01*
X195357142Y-100385714D01*
X195404761Y-100433333D01*
X195452380Y-100528571D01*
X195452380Y-100766666D01*
X195404761Y-100861904D01*
X195357142Y-100909523D01*
X182107142Y-118217857D02*
X182154761Y-118265476D01*
X182202380Y-118408333D01*
X182202380Y-118503571D01*
X182154761Y-118646428D01*
X182059523Y-118741666D01*
X181964285Y-118789285D01*
X181773809Y-118836904D01*
X181630952Y-118836904D01*
X181440476Y-118789285D01*
X181345238Y-118741666D01*
X181250000Y-118646428D01*
X181202380Y-118503571D01*
X181202380Y-118408333D01*
X181250000Y-118265476D01*
X181297619Y-118217857D01*
X182202380Y-117265476D02*
X182202380Y-117836904D01*
X182202380Y-117551190D02*
X181202380Y-117551190D01*
X181345238Y-117646428D01*
X181440476Y-117741666D01*
X181488095Y-117836904D01*
X181535714Y-116408333D02*
X182202380Y-116408333D01*
X181154761Y-116646428D02*
X181869047Y-116884523D01*
X181869047Y-116265476D01*
X185407142Y-106742857D02*
X185454761Y-106790476D01*
X185502380Y-106933333D01*
X185502380Y-107028571D01*
X185454761Y-107171428D01*
X185359523Y-107266666D01*
X185264285Y-107314285D01*
X185073809Y-107361904D01*
X184930952Y-107361904D01*
X184740476Y-107314285D01*
X184645238Y-107266666D01*
X184550000Y-107171428D01*
X184502380Y-107028571D01*
X184502380Y-106933333D01*
X184550000Y-106790476D01*
X184597619Y-106742857D01*
X185502380Y-105790476D02*
X185502380Y-106361904D01*
X185502380Y-106076190D02*
X184502380Y-106076190D01*
X184645238Y-106171428D01*
X184740476Y-106266666D01*
X184788095Y-106361904D01*
X184502380Y-105171428D02*
X184502380Y-105076190D01*
X184550000Y-104980952D01*
X184597619Y-104933333D01*
X184692857Y-104885714D01*
X184883333Y-104838095D01*
X185121428Y-104838095D01*
X185311904Y-104885714D01*
X185407142Y-104933333D01*
X185454761Y-104980952D01*
X185502380Y-105076190D01*
X185502380Y-105171428D01*
X185454761Y-105266666D01*
X185407142Y-105314285D01*
X185311904Y-105361904D01*
X185121428Y-105409523D01*
X184883333Y-105409523D01*
X184692857Y-105361904D01*
X184597619Y-105314285D01*
X184550000Y-105266666D01*
X184502380Y-105171428D01*
X191957142Y-106766666D02*
X192004761Y-106814285D01*
X192052380Y-106957142D01*
X192052380Y-107052380D01*
X192004761Y-107195238D01*
X191909523Y-107290476D01*
X191814285Y-107338095D01*
X191623809Y-107385714D01*
X191480952Y-107385714D01*
X191290476Y-107338095D01*
X191195238Y-107290476D01*
X191100000Y-107195238D01*
X191052380Y-107052380D01*
X191052380Y-106957142D01*
X191100000Y-106814285D01*
X191147619Y-106766666D01*
X191480952Y-106195238D02*
X191433333Y-106290476D01*
X191385714Y-106338095D01*
X191290476Y-106385714D01*
X191242857Y-106385714D01*
X191147619Y-106338095D01*
X191100000Y-106290476D01*
X191052380Y-106195238D01*
X191052380Y-106004761D01*
X191100000Y-105909523D01*
X191147619Y-105861904D01*
X191242857Y-105814285D01*
X191290476Y-105814285D01*
X191385714Y-105861904D01*
X191433333Y-105909523D01*
X191480952Y-106004761D01*
X191480952Y-106195238D01*
X191528571Y-106290476D01*
X191576190Y-106338095D01*
X191671428Y-106385714D01*
X191861904Y-106385714D01*
X191957142Y-106338095D01*
X192004761Y-106290476D01*
X192052380Y-106195238D01*
X192052380Y-106004761D01*
X192004761Y-105909523D01*
X191957142Y-105861904D01*
X191861904Y-105814285D01*
X191671428Y-105814285D01*
X191576190Y-105861904D01*
X191528571Y-105909523D01*
X191480952Y-106004761D01*
X182057142Y-106266666D02*
X182104761Y-106314285D01*
X182152380Y-106457142D01*
X182152380Y-106552380D01*
X182104761Y-106695238D01*
X182009523Y-106790476D01*
X181914285Y-106838095D01*
X181723809Y-106885714D01*
X181580952Y-106885714D01*
X181390476Y-106838095D01*
X181295238Y-106790476D01*
X181200000Y-106695238D01*
X181152380Y-106552380D01*
X181152380Y-106457142D01*
X181200000Y-106314285D01*
X181247619Y-106266666D01*
X181152380Y-105409523D02*
X181152380Y-105600000D01*
X181200000Y-105695238D01*
X181247619Y-105742857D01*
X181390476Y-105838095D01*
X181580952Y-105885714D01*
X181961904Y-105885714D01*
X182057142Y-105838095D01*
X182104761Y-105790476D01*
X182152380Y-105695238D01*
X182152380Y-105504761D01*
X182104761Y-105409523D01*
X182057142Y-105361904D01*
X181961904Y-105314285D01*
X181723809Y-105314285D01*
X181628571Y-105361904D01*
X181580952Y-105409523D01*
X181533333Y-105504761D01*
X181533333Y-105695238D01*
X181580952Y-105790476D01*
X181628571Y-105838095D01*
X181723809Y-105885714D01*
M02*
