%TF.GenerationSoftware,KiCad,Pcbnew,5.1.7-a382d34a8~87~ubuntu18.04.1*%
%TF.CreationDate,2020-10-31T20:21:00-04:00*%
%TF.ProjectId,DolbyS_NR_HIC,446f6c62-7953-45f4-9e52-5f4849432e6b,rev?*%
%TF.SameCoordinates,PXc65d400PY5d75c80*%
%TF.FileFunction,Soldermask,Top*%
%TF.FilePolarity,Negative*%
%FSLAX46Y46*%
G04 Gerber Fmt 4.6, Leading zero omitted, Abs format (unit mm)*
G04 Created by KiCad (PCBNEW 5.1.7-a382d34a8~87~ubuntu18.04.1) date 2020-10-31 20:21:00*
%MOMM*%
%LPD*%
G01*
G04 APERTURE LIST*
%TA.AperFunction,Profile*%
%ADD10C,0.100000*%
%TD*%
%ADD11R,1.700000X1.700000*%
%ADD12O,1.700000X1.700000*%
G04 APERTURE END LIST*
D10*
X-76000000Y-27000000D02*
X-76000000Y1000000D01*
X0Y-27000000D02*
X-76000000Y-27000000D01*
X0Y1000000D02*
X0Y-27000000D01*
X-76000000Y1000000D02*
X0Y1000000D01*
D11*
%TO.C,J1*%
X-69570000Y-25190000D03*
D12*
X-67030000Y-25190000D03*
X-64490000Y-25190000D03*
X-61950000Y-25190000D03*
X-28930000Y-25190000D03*
X-26390000Y-25190000D03*
X-23850000Y-25190000D03*
X-21310000Y-25190000D03*
X-18770000Y-25190000D03*
X-16230000Y-25190000D03*
X-13690000Y-25190000D03*
X-11150000Y-25190000D03*
X-8610000Y-25190000D03*
X-6070000Y-25190000D03*
X-3530000Y-25190000D03*
%TD*%
%TO.C,U1*%
G36*
G01*
X-32500000Y-8625000D02*
X-32500000Y-8375000D01*
G75*
G02*
X-32375000Y-8250000I125000J0D01*
G01*
X-29825000Y-8250000D01*
G75*
G02*
X-29700000Y-8375000I0J-125000D01*
G01*
X-29700000Y-8625000D01*
G75*
G02*
X-29825000Y-8750000I-125000J0D01*
G01*
X-32375000Y-8750000D01*
G75*
G02*
X-32500000Y-8625000I0J125000D01*
G01*
G37*
G36*
G01*
X-32500000Y-9425000D02*
X-32500000Y-9175000D01*
G75*
G02*
X-32375000Y-9050000I125000J0D01*
G01*
X-29825000Y-9050000D01*
G75*
G02*
X-29700000Y-9175000I0J-125000D01*
G01*
X-29700000Y-9425000D01*
G75*
G02*
X-29825000Y-9550000I-125000J0D01*
G01*
X-32375000Y-9550000D01*
G75*
G02*
X-32500000Y-9425000I0J125000D01*
G01*
G37*
G36*
G01*
X-32500000Y-16625000D02*
X-32500000Y-16375000D01*
G75*
G02*
X-32375000Y-16250000I125000J0D01*
G01*
X-29825000Y-16250000D01*
G75*
G02*
X-29700000Y-16375000I0J-125000D01*
G01*
X-29700000Y-16625000D01*
G75*
G02*
X-29825000Y-16750000I-125000J0D01*
G01*
X-32375000Y-16750000D01*
G75*
G02*
X-32500000Y-16625000I0J125000D01*
G01*
G37*
G36*
G01*
X-32500000Y-15025000D02*
X-32500000Y-14775000D01*
G75*
G02*
X-32375000Y-14650000I125000J0D01*
G01*
X-29825000Y-14650000D01*
G75*
G02*
X-29700000Y-14775000I0J-125000D01*
G01*
X-29700000Y-15025000D01*
G75*
G02*
X-29825000Y-15150000I-125000J0D01*
G01*
X-32375000Y-15150000D01*
G75*
G02*
X-32500000Y-15025000I0J125000D01*
G01*
G37*
G36*
G01*
X-32500000Y-17425000D02*
X-32500000Y-17175000D01*
G75*
G02*
X-32375000Y-17050000I125000J0D01*
G01*
X-29825000Y-17050000D01*
G75*
G02*
X-29700000Y-17175000I0J-125000D01*
G01*
X-29700000Y-17425000D01*
G75*
G02*
X-29825000Y-17550000I-125000J0D01*
G01*
X-32375000Y-17550000D01*
G75*
G02*
X-32500000Y-17425000I0J125000D01*
G01*
G37*
G36*
G01*
X-32500000Y-11825000D02*
X-32500000Y-11575000D01*
G75*
G02*
X-32375000Y-11450000I125000J0D01*
G01*
X-29825000Y-11450000D01*
G75*
G02*
X-29700000Y-11575000I0J-125000D01*
G01*
X-29700000Y-11825000D01*
G75*
G02*
X-29825000Y-11950000I-125000J0D01*
G01*
X-32375000Y-11950000D01*
G75*
G02*
X-32500000Y-11825000I0J125000D01*
G01*
G37*
G36*
G01*
X-32500000Y-12625000D02*
X-32500000Y-12375000D01*
G75*
G02*
X-32375000Y-12250000I125000J0D01*
G01*
X-29825000Y-12250000D01*
G75*
G02*
X-29700000Y-12375000I0J-125000D01*
G01*
X-29700000Y-12625000D01*
G75*
G02*
X-29825000Y-12750000I-125000J0D01*
G01*
X-32375000Y-12750000D01*
G75*
G02*
X-32500000Y-12625000I0J125000D01*
G01*
G37*
G36*
G01*
X-32500000Y-14225000D02*
X-32500000Y-13975000D01*
G75*
G02*
X-32375000Y-13850000I125000J0D01*
G01*
X-29825000Y-13850000D01*
G75*
G02*
X-29700000Y-13975000I0J-125000D01*
G01*
X-29700000Y-14225000D01*
G75*
G02*
X-29825000Y-14350000I-125000J0D01*
G01*
X-32375000Y-14350000D01*
G75*
G02*
X-32500000Y-14225000I0J125000D01*
G01*
G37*
G36*
G01*
X-32500000Y-10225000D02*
X-32500000Y-9975000D01*
G75*
G02*
X-32375000Y-9850000I125000J0D01*
G01*
X-29825000Y-9850000D01*
G75*
G02*
X-29700000Y-9975000I0J-125000D01*
G01*
X-29700000Y-10225000D01*
G75*
G02*
X-29825000Y-10350000I-125000J0D01*
G01*
X-32375000Y-10350000D01*
G75*
G02*
X-32500000Y-10225000I0J125000D01*
G01*
G37*
G36*
G01*
X-32500000Y-15825000D02*
X-32500000Y-15575000D01*
G75*
G02*
X-32375000Y-15450000I125000J0D01*
G01*
X-29825000Y-15450000D01*
G75*
G02*
X-29700000Y-15575000I0J-125000D01*
G01*
X-29700000Y-15825000D01*
G75*
G02*
X-29825000Y-15950000I-125000J0D01*
G01*
X-32375000Y-15950000D01*
G75*
G02*
X-32500000Y-15825000I0J125000D01*
G01*
G37*
G36*
G01*
X-32500000Y-13425000D02*
X-32500000Y-13175000D01*
G75*
G02*
X-32375000Y-13050000I125000J0D01*
G01*
X-29825000Y-13050000D01*
G75*
G02*
X-29700000Y-13175000I0J-125000D01*
G01*
X-29700000Y-13425000D01*
G75*
G02*
X-29825000Y-13550000I-125000J0D01*
G01*
X-32375000Y-13550000D01*
G75*
G02*
X-32500000Y-13425000I0J125000D01*
G01*
G37*
G36*
G01*
X-32500000Y-11025000D02*
X-32500000Y-10775000D01*
G75*
G02*
X-32375000Y-10650000I125000J0D01*
G01*
X-29825000Y-10650000D01*
G75*
G02*
X-29700000Y-10775000I0J-125000D01*
G01*
X-29700000Y-11025000D01*
G75*
G02*
X-29825000Y-11150000I-125000J0D01*
G01*
X-32375000Y-11150000D01*
G75*
G02*
X-32500000Y-11025000I0J125000D01*
G01*
G37*
G36*
G01*
X-34325000Y-19000000D02*
X-34075000Y-19000000D01*
G75*
G02*
X-33950000Y-19125000I0J-125000D01*
G01*
X-33950000Y-21675000D01*
G75*
G02*
X-34075000Y-21800000I-125000J0D01*
G01*
X-34325000Y-21800000D01*
G75*
G02*
X-34450000Y-21675000I0J125000D01*
G01*
X-34450000Y-19125000D01*
G75*
G02*
X-34325000Y-19000000I125000J0D01*
G01*
G37*
G36*
G01*
X-35125000Y-19000000D02*
X-34875000Y-19000000D01*
G75*
G02*
X-34750000Y-19125000I0J-125000D01*
G01*
X-34750000Y-21675000D01*
G75*
G02*
X-34875000Y-21800000I-125000J0D01*
G01*
X-35125000Y-21800000D01*
G75*
G02*
X-35250000Y-21675000I0J125000D01*
G01*
X-35250000Y-19125000D01*
G75*
G02*
X-35125000Y-19000000I125000J0D01*
G01*
G37*
G36*
G01*
X-42325000Y-19000000D02*
X-42075000Y-19000000D01*
G75*
G02*
X-41950000Y-19125000I0J-125000D01*
G01*
X-41950000Y-21675000D01*
G75*
G02*
X-42075000Y-21800000I-125000J0D01*
G01*
X-42325000Y-21800000D01*
G75*
G02*
X-42450000Y-21675000I0J125000D01*
G01*
X-42450000Y-19125000D01*
G75*
G02*
X-42325000Y-19000000I125000J0D01*
G01*
G37*
G36*
G01*
X-40725000Y-19000000D02*
X-40475000Y-19000000D01*
G75*
G02*
X-40350000Y-19125000I0J-125000D01*
G01*
X-40350000Y-21675000D01*
G75*
G02*
X-40475000Y-21800000I-125000J0D01*
G01*
X-40725000Y-21800000D01*
G75*
G02*
X-40850000Y-21675000I0J125000D01*
G01*
X-40850000Y-19125000D01*
G75*
G02*
X-40725000Y-19000000I125000J0D01*
G01*
G37*
G36*
G01*
X-43125000Y-19000000D02*
X-42875000Y-19000000D01*
G75*
G02*
X-42750000Y-19125000I0J-125000D01*
G01*
X-42750000Y-21675000D01*
G75*
G02*
X-42875000Y-21800000I-125000J0D01*
G01*
X-43125000Y-21800000D01*
G75*
G02*
X-43250000Y-21675000I0J125000D01*
G01*
X-43250000Y-19125000D01*
G75*
G02*
X-43125000Y-19000000I125000J0D01*
G01*
G37*
G36*
G01*
X-37525000Y-19000000D02*
X-37275000Y-19000000D01*
G75*
G02*
X-37150000Y-19125000I0J-125000D01*
G01*
X-37150000Y-21675000D01*
G75*
G02*
X-37275000Y-21800000I-125000J0D01*
G01*
X-37525000Y-21800000D01*
G75*
G02*
X-37650000Y-21675000I0J125000D01*
G01*
X-37650000Y-19125000D01*
G75*
G02*
X-37525000Y-19000000I125000J0D01*
G01*
G37*
G36*
G01*
X-38325000Y-19000000D02*
X-38075000Y-19000000D01*
G75*
G02*
X-37950000Y-19125000I0J-125000D01*
G01*
X-37950000Y-21675000D01*
G75*
G02*
X-38075000Y-21800000I-125000J0D01*
G01*
X-38325000Y-21800000D01*
G75*
G02*
X-38450000Y-21675000I0J125000D01*
G01*
X-38450000Y-19125000D01*
G75*
G02*
X-38325000Y-19000000I125000J0D01*
G01*
G37*
G36*
G01*
X-39925000Y-19000000D02*
X-39675000Y-19000000D01*
G75*
G02*
X-39550000Y-19125000I0J-125000D01*
G01*
X-39550000Y-21675000D01*
G75*
G02*
X-39675000Y-21800000I-125000J0D01*
G01*
X-39925000Y-21800000D01*
G75*
G02*
X-40050000Y-21675000I0J125000D01*
G01*
X-40050000Y-19125000D01*
G75*
G02*
X-39925000Y-19000000I125000J0D01*
G01*
G37*
G36*
G01*
X-35925000Y-19000000D02*
X-35675000Y-19000000D01*
G75*
G02*
X-35550000Y-19125000I0J-125000D01*
G01*
X-35550000Y-21675000D01*
G75*
G02*
X-35675000Y-21800000I-125000J0D01*
G01*
X-35925000Y-21800000D01*
G75*
G02*
X-36050000Y-21675000I0J125000D01*
G01*
X-36050000Y-19125000D01*
G75*
G02*
X-35925000Y-19000000I125000J0D01*
G01*
G37*
G36*
G01*
X-41525000Y-19000000D02*
X-41275000Y-19000000D01*
G75*
G02*
X-41150000Y-19125000I0J-125000D01*
G01*
X-41150000Y-21675000D01*
G75*
G02*
X-41275000Y-21800000I-125000J0D01*
G01*
X-41525000Y-21800000D01*
G75*
G02*
X-41650000Y-21675000I0J125000D01*
G01*
X-41650000Y-19125000D01*
G75*
G02*
X-41525000Y-19000000I125000J0D01*
G01*
G37*
G36*
G01*
X-39125000Y-19000000D02*
X-38875000Y-19000000D01*
G75*
G02*
X-38750000Y-19125000I0J-125000D01*
G01*
X-38750000Y-21675000D01*
G75*
G02*
X-38875000Y-21800000I-125000J0D01*
G01*
X-39125000Y-21800000D01*
G75*
G02*
X-39250000Y-21675000I0J125000D01*
G01*
X-39250000Y-19125000D01*
G75*
G02*
X-39125000Y-19000000I125000J0D01*
G01*
G37*
G36*
G01*
X-36725000Y-19000000D02*
X-36475000Y-19000000D01*
G75*
G02*
X-36350000Y-19125000I0J-125000D01*
G01*
X-36350000Y-21675000D01*
G75*
G02*
X-36475000Y-21800000I-125000J0D01*
G01*
X-36725000Y-21800000D01*
G75*
G02*
X-36850000Y-21675000I0J125000D01*
G01*
X-36850000Y-19125000D01*
G75*
G02*
X-36725000Y-19000000I125000J0D01*
G01*
G37*
G36*
G01*
X-47500000Y-8625000D02*
X-47500000Y-8375000D01*
G75*
G02*
X-47375000Y-8250000I125000J0D01*
G01*
X-44825000Y-8250000D01*
G75*
G02*
X-44700000Y-8375000I0J-125000D01*
G01*
X-44700000Y-8625000D01*
G75*
G02*
X-44825000Y-8750000I-125000J0D01*
G01*
X-47375000Y-8750000D01*
G75*
G02*
X-47500000Y-8625000I0J125000D01*
G01*
G37*
G36*
G01*
X-47500000Y-9425000D02*
X-47500000Y-9175000D01*
G75*
G02*
X-47375000Y-9050000I125000J0D01*
G01*
X-44825000Y-9050000D01*
G75*
G02*
X-44700000Y-9175000I0J-125000D01*
G01*
X-44700000Y-9425000D01*
G75*
G02*
X-44825000Y-9550000I-125000J0D01*
G01*
X-47375000Y-9550000D01*
G75*
G02*
X-47500000Y-9425000I0J125000D01*
G01*
G37*
G36*
G01*
X-47500000Y-16625000D02*
X-47500000Y-16375000D01*
G75*
G02*
X-47375000Y-16250000I125000J0D01*
G01*
X-44825000Y-16250000D01*
G75*
G02*
X-44700000Y-16375000I0J-125000D01*
G01*
X-44700000Y-16625000D01*
G75*
G02*
X-44825000Y-16750000I-125000J0D01*
G01*
X-47375000Y-16750000D01*
G75*
G02*
X-47500000Y-16625000I0J125000D01*
G01*
G37*
G36*
G01*
X-47500000Y-15025000D02*
X-47500000Y-14775000D01*
G75*
G02*
X-47375000Y-14650000I125000J0D01*
G01*
X-44825000Y-14650000D01*
G75*
G02*
X-44700000Y-14775000I0J-125000D01*
G01*
X-44700000Y-15025000D01*
G75*
G02*
X-44825000Y-15150000I-125000J0D01*
G01*
X-47375000Y-15150000D01*
G75*
G02*
X-47500000Y-15025000I0J125000D01*
G01*
G37*
G36*
G01*
X-47500000Y-17425000D02*
X-47500000Y-17175000D01*
G75*
G02*
X-47375000Y-17050000I125000J0D01*
G01*
X-44825000Y-17050000D01*
G75*
G02*
X-44700000Y-17175000I0J-125000D01*
G01*
X-44700000Y-17425000D01*
G75*
G02*
X-44825000Y-17550000I-125000J0D01*
G01*
X-47375000Y-17550000D01*
G75*
G02*
X-47500000Y-17425000I0J125000D01*
G01*
G37*
G36*
G01*
X-47500000Y-11825000D02*
X-47500000Y-11575000D01*
G75*
G02*
X-47375000Y-11450000I125000J0D01*
G01*
X-44825000Y-11450000D01*
G75*
G02*
X-44700000Y-11575000I0J-125000D01*
G01*
X-44700000Y-11825000D01*
G75*
G02*
X-44825000Y-11950000I-125000J0D01*
G01*
X-47375000Y-11950000D01*
G75*
G02*
X-47500000Y-11825000I0J125000D01*
G01*
G37*
G36*
G01*
X-47500000Y-12625000D02*
X-47500000Y-12375000D01*
G75*
G02*
X-47375000Y-12250000I125000J0D01*
G01*
X-44825000Y-12250000D01*
G75*
G02*
X-44700000Y-12375000I0J-125000D01*
G01*
X-44700000Y-12625000D01*
G75*
G02*
X-44825000Y-12750000I-125000J0D01*
G01*
X-47375000Y-12750000D01*
G75*
G02*
X-47500000Y-12625000I0J125000D01*
G01*
G37*
G36*
G01*
X-47500000Y-14225000D02*
X-47500000Y-13975000D01*
G75*
G02*
X-47375000Y-13850000I125000J0D01*
G01*
X-44825000Y-13850000D01*
G75*
G02*
X-44700000Y-13975000I0J-125000D01*
G01*
X-44700000Y-14225000D01*
G75*
G02*
X-44825000Y-14350000I-125000J0D01*
G01*
X-47375000Y-14350000D01*
G75*
G02*
X-47500000Y-14225000I0J125000D01*
G01*
G37*
G36*
G01*
X-47500000Y-10225000D02*
X-47500000Y-9975000D01*
G75*
G02*
X-47375000Y-9850000I125000J0D01*
G01*
X-44825000Y-9850000D01*
G75*
G02*
X-44700000Y-9975000I0J-125000D01*
G01*
X-44700000Y-10225000D01*
G75*
G02*
X-44825000Y-10350000I-125000J0D01*
G01*
X-47375000Y-10350000D01*
G75*
G02*
X-47500000Y-10225000I0J125000D01*
G01*
G37*
G36*
G01*
X-47500000Y-15825000D02*
X-47500000Y-15575000D01*
G75*
G02*
X-47375000Y-15450000I125000J0D01*
G01*
X-44825000Y-15450000D01*
G75*
G02*
X-44700000Y-15575000I0J-125000D01*
G01*
X-44700000Y-15825000D01*
G75*
G02*
X-44825000Y-15950000I-125000J0D01*
G01*
X-47375000Y-15950000D01*
G75*
G02*
X-47500000Y-15825000I0J125000D01*
G01*
G37*
G36*
G01*
X-47500000Y-13425000D02*
X-47500000Y-13175000D01*
G75*
G02*
X-47375000Y-13050000I125000J0D01*
G01*
X-44825000Y-13050000D01*
G75*
G02*
X-44700000Y-13175000I0J-125000D01*
G01*
X-44700000Y-13425000D01*
G75*
G02*
X-44825000Y-13550000I-125000J0D01*
G01*
X-47375000Y-13550000D01*
G75*
G02*
X-47500000Y-13425000I0J125000D01*
G01*
G37*
G36*
G01*
X-47500000Y-11025000D02*
X-47500000Y-10775000D01*
G75*
G02*
X-47375000Y-10650000I125000J0D01*
G01*
X-44825000Y-10650000D01*
G75*
G02*
X-44700000Y-10775000I0J-125000D01*
G01*
X-44700000Y-11025000D01*
G75*
G02*
X-44825000Y-11150000I-125000J0D01*
G01*
X-47375000Y-11150000D01*
G75*
G02*
X-47500000Y-11025000I0J125000D01*
G01*
G37*
G36*
G01*
X-43125000Y-4000000D02*
X-42875000Y-4000000D01*
G75*
G02*
X-42750000Y-4125000I0J-125000D01*
G01*
X-42750000Y-6675000D01*
G75*
G02*
X-42875000Y-6800000I-125000J0D01*
G01*
X-43125000Y-6800000D01*
G75*
G02*
X-43250000Y-6675000I0J125000D01*
G01*
X-43250000Y-4125000D01*
G75*
G02*
X-43125000Y-4000000I125000J0D01*
G01*
G37*
G36*
G01*
X-42325000Y-4000000D02*
X-42075000Y-4000000D01*
G75*
G02*
X-41950000Y-4125000I0J-125000D01*
G01*
X-41950000Y-6675000D01*
G75*
G02*
X-42075000Y-6800000I-125000J0D01*
G01*
X-42325000Y-6800000D01*
G75*
G02*
X-42450000Y-6675000I0J125000D01*
G01*
X-42450000Y-4125000D01*
G75*
G02*
X-42325000Y-4000000I125000J0D01*
G01*
G37*
G36*
G01*
X-41525000Y-4000000D02*
X-41275000Y-4000000D01*
G75*
G02*
X-41150000Y-4125000I0J-125000D01*
G01*
X-41150000Y-6675000D01*
G75*
G02*
X-41275000Y-6800000I-125000J0D01*
G01*
X-41525000Y-6800000D01*
G75*
G02*
X-41650000Y-6675000I0J125000D01*
G01*
X-41650000Y-4125000D01*
G75*
G02*
X-41525000Y-4000000I125000J0D01*
G01*
G37*
G36*
G01*
X-40725000Y-4000000D02*
X-40475000Y-4000000D01*
G75*
G02*
X-40350000Y-4125000I0J-125000D01*
G01*
X-40350000Y-6675000D01*
G75*
G02*
X-40475000Y-6800000I-125000J0D01*
G01*
X-40725000Y-6800000D01*
G75*
G02*
X-40850000Y-6675000I0J125000D01*
G01*
X-40850000Y-4125000D01*
G75*
G02*
X-40725000Y-4000000I125000J0D01*
G01*
G37*
G36*
G01*
X-39925000Y-4000000D02*
X-39675000Y-4000000D01*
G75*
G02*
X-39550000Y-4125000I0J-125000D01*
G01*
X-39550000Y-6675000D01*
G75*
G02*
X-39675000Y-6800000I-125000J0D01*
G01*
X-39925000Y-6800000D01*
G75*
G02*
X-40050000Y-6675000I0J125000D01*
G01*
X-40050000Y-4125000D01*
G75*
G02*
X-39925000Y-4000000I125000J0D01*
G01*
G37*
G36*
G01*
X-39125000Y-4000000D02*
X-38875000Y-4000000D01*
G75*
G02*
X-38750000Y-4125000I0J-125000D01*
G01*
X-38750000Y-6675000D01*
G75*
G02*
X-38875000Y-6800000I-125000J0D01*
G01*
X-39125000Y-6800000D01*
G75*
G02*
X-39250000Y-6675000I0J125000D01*
G01*
X-39250000Y-4125000D01*
G75*
G02*
X-39125000Y-4000000I125000J0D01*
G01*
G37*
G36*
G01*
X-38325000Y-4000000D02*
X-38075000Y-4000000D01*
G75*
G02*
X-37950000Y-4125000I0J-125000D01*
G01*
X-37950000Y-6675000D01*
G75*
G02*
X-38075000Y-6800000I-125000J0D01*
G01*
X-38325000Y-6800000D01*
G75*
G02*
X-38450000Y-6675000I0J125000D01*
G01*
X-38450000Y-4125000D01*
G75*
G02*
X-38325000Y-4000000I125000J0D01*
G01*
G37*
G36*
G01*
X-37525000Y-4000000D02*
X-37275000Y-4000000D01*
G75*
G02*
X-37150000Y-4125000I0J-125000D01*
G01*
X-37150000Y-6675000D01*
G75*
G02*
X-37275000Y-6800000I-125000J0D01*
G01*
X-37525000Y-6800000D01*
G75*
G02*
X-37650000Y-6675000I0J125000D01*
G01*
X-37650000Y-4125000D01*
G75*
G02*
X-37525000Y-4000000I125000J0D01*
G01*
G37*
G36*
G01*
X-36725000Y-4000000D02*
X-36475000Y-4000000D01*
G75*
G02*
X-36350000Y-4125000I0J-125000D01*
G01*
X-36350000Y-6675000D01*
G75*
G02*
X-36475000Y-6800000I-125000J0D01*
G01*
X-36725000Y-6800000D01*
G75*
G02*
X-36850000Y-6675000I0J125000D01*
G01*
X-36850000Y-4125000D01*
G75*
G02*
X-36725000Y-4000000I125000J0D01*
G01*
G37*
G36*
G01*
X-35925000Y-4000000D02*
X-35675000Y-4000000D01*
G75*
G02*
X-35550000Y-4125000I0J-125000D01*
G01*
X-35550000Y-6675000D01*
G75*
G02*
X-35675000Y-6800000I-125000J0D01*
G01*
X-35925000Y-6800000D01*
G75*
G02*
X-36050000Y-6675000I0J125000D01*
G01*
X-36050000Y-4125000D01*
G75*
G02*
X-35925000Y-4000000I125000J0D01*
G01*
G37*
G36*
G01*
X-35125000Y-4000000D02*
X-34875000Y-4000000D01*
G75*
G02*
X-34750000Y-4125000I0J-125000D01*
G01*
X-34750000Y-6675000D01*
G75*
G02*
X-34875000Y-6800000I-125000J0D01*
G01*
X-35125000Y-6800000D01*
G75*
G02*
X-35250000Y-6675000I0J125000D01*
G01*
X-35250000Y-4125000D01*
G75*
G02*
X-35125000Y-4000000I125000J0D01*
G01*
G37*
G36*
G01*
X-34325000Y-4000000D02*
X-34075000Y-4000000D01*
G75*
G02*
X-33950000Y-4125000I0J-125000D01*
G01*
X-33950000Y-6675000D01*
G75*
G02*
X-34075000Y-6800000I-125000J0D01*
G01*
X-34325000Y-6800000D01*
G75*
G02*
X-34450000Y-6675000I0J125000D01*
G01*
X-34450000Y-4125000D01*
G75*
G02*
X-34325000Y-4000000I125000J0D01*
G01*
G37*
%TD*%
%TO.C,R50*%
G36*
G01*
X-51350001Y-13400000D02*
X-50449999Y-13400000D01*
G75*
G02*
X-50200000Y-13649999I0J-249999D01*
G01*
X-50200000Y-14350001D01*
G75*
G02*
X-50449999Y-14600000I-249999J0D01*
G01*
X-51350001Y-14600000D01*
G75*
G02*
X-51600000Y-14350001I0J249999D01*
G01*
X-51600000Y-13649999D01*
G75*
G02*
X-51350001Y-13400000I249999J0D01*
G01*
G37*
G36*
G01*
X-51350001Y-11400000D02*
X-50449999Y-11400000D01*
G75*
G02*
X-50200000Y-11649999I0J-249999D01*
G01*
X-50200000Y-12350001D01*
G75*
G02*
X-50449999Y-12600000I-249999J0D01*
G01*
X-51350001Y-12600000D01*
G75*
G02*
X-51600000Y-12350001I0J249999D01*
G01*
X-51600000Y-11649999D01*
G75*
G02*
X-51350001Y-11400000I249999J0D01*
G01*
G37*
%TD*%
%TO.C,R43*%
G36*
G01*
X-53749999Y-12550000D02*
X-54650001Y-12550000D01*
G75*
G02*
X-54900000Y-12300001I0J249999D01*
G01*
X-54900000Y-11599999D01*
G75*
G02*
X-54650001Y-11350000I249999J0D01*
G01*
X-53749999Y-11350000D01*
G75*
G02*
X-53500000Y-11599999I0J-249999D01*
G01*
X-53500000Y-12300001D01*
G75*
G02*
X-53749999Y-12550000I-249999J0D01*
G01*
G37*
G36*
G01*
X-53749999Y-14550000D02*
X-54650001Y-14550000D01*
G75*
G02*
X-54900000Y-14300001I0J249999D01*
G01*
X-54900000Y-13599999D01*
G75*
G02*
X-54650001Y-13350000I249999J0D01*
G01*
X-53749999Y-13350000D01*
G75*
G02*
X-53500000Y-13599999I0J-249999D01*
G01*
X-53500000Y-14300001D01*
G75*
G02*
X-53749999Y-14550000I-249999J0D01*
G01*
G37*
%TD*%
%TO.C,R41*%
G36*
G01*
X-57049999Y-7600000D02*
X-57950001Y-7600000D01*
G75*
G02*
X-58200000Y-7350001I0J249999D01*
G01*
X-58200000Y-6649999D01*
G75*
G02*
X-57950001Y-6400000I249999J0D01*
G01*
X-57049999Y-6400000D01*
G75*
G02*
X-56800000Y-6649999I0J-249999D01*
G01*
X-56800000Y-7350001D01*
G75*
G02*
X-57049999Y-7600000I-249999J0D01*
G01*
G37*
G36*
G01*
X-57049999Y-9600000D02*
X-57950001Y-9600000D01*
G75*
G02*
X-58200000Y-9350001I0J249999D01*
G01*
X-58200000Y-8649999D01*
G75*
G02*
X-57950001Y-8400000I249999J0D01*
G01*
X-57049999Y-8400000D01*
G75*
G02*
X-56800000Y-8649999I0J-249999D01*
G01*
X-56800000Y-9350001D01*
G75*
G02*
X-57049999Y-9600000I-249999J0D01*
G01*
G37*
%TD*%
%TO.C,R37*%
G36*
G01*
X-57049999Y-12600000D02*
X-57950001Y-12600000D01*
G75*
G02*
X-58200000Y-12350001I0J249999D01*
G01*
X-58200000Y-11649999D01*
G75*
G02*
X-57950001Y-11400000I249999J0D01*
G01*
X-57049999Y-11400000D01*
G75*
G02*
X-56800000Y-11649999I0J-249999D01*
G01*
X-56800000Y-12350001D01*
G75*
G02*
X-57049999Y-12600000I-249999J0D01*
G01*
G37*
G36*
G01*
X-57049999Y-14600000D02*
X-57950001Y-14600000D01*
G75*
G02*
X-58200000Y-14350001I0J249999D01*
G01*
X-58200000Y-13649999D01*
G75*
G02*
X-57950001Y-13400000I249999J0D01*
G01*
X-57049999Y-13400000D01*
G75*
G02*
X-56800000Y-13649999I0J-249999D01*
G01*
X-56800000Y-14350001D01*
G75*
G02*
X-57049999Y-14600000I-249999J0D01*
G01*
G37*
%TD*%
%TO.C,R36*%
G36*
G01*
X-29650001Y-3400000D02*
X-28749999Y-3400000D01*
G75*
G02*
X-28500000Y-3649999I0J-249999D01*
G01*
X-28500000Y-4350001D01*
G75*
G02*
X-28749999Y-4600000I-249999J0D01*
G01*
X-29650001Y-4600000D01*
G75*
G02*
X-29900000Y-4350001I0J249999D01*
G01*
X-29900000Y-3649999D01*
G75*
G02*
X-29650001Y-3400000I249999J0D01*
G01*
G37*
G36*
G01*
X-29650001Y-1400000D02*
X-28749999Y-1400000D01*
G75*
G02*
X-28500000Y-1649999I0J-249999D01*
G01*
X-28500000Y-2350001D01*
G75*
G02*
X-28749999Y-2600000I-249999J0D01*
G01*
X-29650001Y-2600000D01*
G75*
G02*
X-29900000Y-2350001I0J249999D01*
G01*
X-29900000Y-1649999D01*
G75*
G02*
X-29650001Y-1400000I249999J0D01*
G01*
G37*
%TD*%
%TO.C,R35*%
G36*
G01*
X-61250001Y-18400000D02*
X-60349999Y-18400000D01*
G75*
G02*
X-60100000Y-18649999I0J-249999D01*
G01*
X-60100000Y-19350001D01*
G75*
G02*
X-60349999Y-19600000I-249999J0D01*
G01*
X-61250001Y-19600000D01*
G75*
G02*
X-61500000Y-19350001I0J249999D01*
G01*
X-61500000Y-18649999D01*
G75*
G02*
X-61250001Y-18400000I249999J0D01*
G01*
G37*
G36*
G01*
X-61250001Y-16400000D02*
X-60349999Y-16400000D01*
G75*
G02*
X-60100000Y-16649999I0J-249999D01*
G01*
X-60100000Y-17350001D01*
G75*
G02*
X-60349999Y-17600000I-249999J0D01*
G01*
X-61250001Y-17600000D01*
G75*
G02*
X-61500000Y-17350001I0J249999D01*
G01*
X-61500000Y-16649999D01*
G75*
G02*
X-61250001Y-16400000I249999J0D01*
G01*
G37*
%TD*%
%TO.C,R34*%
G36*
G01*
X-60349999Y-12600000D02*
X-61250001Y-12600000D01*
G75*
G02*
X-61500000Y-12350001I0J249999D01*
G01*
X-61500000Y-11649999D01*
G75*
G02*
X-61250001Y-11400000I249999J0D01*
G01*
X-60349999Y-11400000D01*
G75*
G02*
X-60100000Y-11649999I0J-249999D01*
G01*
X-60100000Y-12350001D01*
G75*
G02*
X-60349999Y-12600000I-249999J0D01*
G01*
G37*
G36*
G01*
X-60349999Y-14600000D02*
X-61250001Y-14600000D01*
G75*
G02*
X-61500000Y-14350001I0J249999D01*
G01*
X-61500000Y-13649999D01*
G75*
G02*
X-61250001Y-13400000I249999J0D01*
G01*
X-60349999Y-13400000D01*
G75*
G02*
X-60100000Y-13649999I0J-249999D01*
G01*
X-60100000Y-14350001D01*
G75*
G02*
X-60349999Y-14600000I-249999J0D01*
G01*
G37*
%TD*%
%TO.C,R31*%
G36*
G01*
X-63649999Y-17600000D02*
X-64550001Y-17600000D01*
G75*
G02*
X-64800000Y-17350001I0J249999D01*
G01*
X-64800000Y-16649999D01*
G75*
G02*
X-64550001Y-16400000I249999J0D01*
G01*
X-63649999Y-16400000D01*
G75*
G02*
X-63400000Y-16649999I0J-249999D01*
G01*
X-63400000Y-17350001D01*
G75*
G02*
X-63649999Y-17600000I-249999J0D01*
G01*
G37*
G36*
G01*
X-63649999Y-19600000D02*
X-64550001Y-19600000D01*
G75*
G02*
X-64800000Y-19350001I0J249999D01*
G01*
X-64800000Y-18649999D01*
G75*
G02*
X-64550001Y-18400000I249999J0D01*
G01*
X-63649999Y-18400000D01*
G75*
G02*
X-63400000Y-18649999I0J-249999D01*
G01*
X-63400000Y-19350001D01*
G75*
G02*
X-63649999Y-19600000I-249999J0D01*
G01*
G37*
%TD*%
%TO.C,R30*%
G36*
G01*
X-66949999Y-12600000D02*
X-67850001Y-12600000D01*
G75*
G02*
X-68100000Y-12350001I0J249999D01*
G01*
X-68100000Y-11649999D01*
G75*
G02*
X-67850001Y-11400000I249999J0D01*
G01*
X-66949999Y-11400000D01*
G75*
G02*
X-66700000Y-11649999I0J-249999D01*
G01*
X-66700000Y-12350001D01*
G75*
G02*
X-66949999Y-12600000I-249999J0D01*
G01*
G37*
G36*
G01*
X-66949999Y-14600000D02*
X-67850001Y-14600000D01*
G75*
G02*
X-68100000Y-14350001I0J249999D01*
G01*
X-68100000Y-13649999D01*
G75*
G02*
X-67850001Y-13400000I249999J0D01*
G01*
X-66949999Y-13400000D01*
G75*
G02*
X-66700000Y-13649999I0J-249999D01*
G01*
X-66700000Y-14350001D01*
G75*
G02*
X-66949999Y-14600000I-249999J0D01*
G01*
G37*
%TD*%
%TO.C,R27*%
G36*
G01*
X-67850001Y-8400000D02*
X-66949999Y-8400000D01*
G75*
G02*
X-66700000Y-8649999I0J-249999D01*
G01*
X-66700000Y-9350001D01*
G75*
G02*
X-66949999Y-9600000I-249999J0D01*
G01*
X-67850001Y-9600000D01*
G75*
G02*
X-68100000Y-9350001I0J249999D01*
G01*
X-68100000Y-8649999D01*
G75*
G02*
X-67850001Y-8400000I249999J0D01*
G01*
G37*
G36*
G01*
X-67850001Y-6400000D02*
X-66949999Y-6400000D01*
G75*
G02*
X-66700000Y-6649999I0J-249999D01*
G01*
X-66700000Y-7350001D01*
G75*
G02*
X-66949999Y-7600000I-249999J0D01*
G01*
X-67850001Y-7600000D01*
G75*
G02*
X-68100000Y-7350001I0J249999D01*
G01*
X-68100000Y-6649999D01*
G75*
G02*
X-67850001Y-6400000I249999J0D01*
G01*
G37*
%TD*%
%TO.C,R25*%
G36*
G01*
X-15000001Y-3400000D02*
X-14099999Y-3400000D01*
G75*
G02*
X-13850000Y-3649999I0J-249999D01*
G01*
X-13850000Y-4350001D01*
G75*
G02*
X-14099999Y-4600000I-249999J0D01*
G01*
X-15000001Y-4600000D01*
G75*
G02*
X-15250000Y-4350001I0J249999D01*
G01*
X-15250000Y-3649999D01*
G75*
G02*
X-15000001Y-3400000I249999J0D01*
G01*
G37*
G36*
G01*
X-15000001Y-1400000D02*
X-14099999Y-1400000D01*
G75*
G02*
X-13850000Y-1649999I0J-249999D01*
G01*
X-13850000Y-2350001D01*
G75*
G02*
X-14099999Y-2600000I-249999J0D01*
G01*
X-15000001Y-2600000D01*
G75*
G02*
X-15250000Y-2350001I0J249999D01*
G01*
X-15250000Y-1649999D01*
G75*
G02*
X-15000001Y-1400000I249999J0D01*
G01*
G37*
%TD*%
%TO.C,R23*%
G36*
G01*
X-66949999Y-17600000D02*
X-67850001Y-17600000D01*
G75*
G02*
X-68100000Y-17350001I0J249999D01*
G01*
X-68100000Y-16649999D01*
G75*
G02*
X-67850001Y-16400000I249999J0D01*
G01*
X-66949999Y-16400000D01*
G75*
G02*
X-66700000Y-16649999I0J-249999D01*
G01*
X-66700000Y-17350001D01*
G75*
G02*
X-66949999Y-17600000I-249999J0D01*
G01*
G37*
G36*
G01*
X-66949999Y-19600000D02*
X-67850001Y-19600000D01*
G75*
G02*
X-68100000Y-19350001I0J249999D01*
G01*
X-68100000Y-18649999D01*
G75*
G02*
X-67850001Y-18400000I249999J0D01*
G01*
X-66949999Y-18400000D01*
G75*
G02*
X-66700000Y-18649999I0J-249999D01*
G01*
X-66700000Y-19350001D01*
G75*
G02*
X-66949999Y-19600000I-249999J0D01*
G01*
G37*
%TD*%
%TO.C,R22*%
G36*
G01*
X-71150001Y-18400000D02*
X-70249999Y-18400000D01*
G75*
G02*
X-70000000Y-18649999I0J-249999D01*
G01*
X-70000000Y-19350001D01*
G75*
G02*
X-70249999Y-19600000I-249999J0D01*
G01*
X-71150001Y-19600000D01*
G75*
G02*
X-71400000Y-19350001I0J249999D01*
G01*
X-71400000Y-18649999D01*
G75*
G02*
X-71150001Y-18400000I249999J0D01*
G01*
G37*
G36*
G01*
X-71150001Y-16400000D02*
X-70249999Y-16400000D01*
G75*
G02*
X-70000000Y-16649999I0J-249999D01*
G01*
X-70000000Y-17350001D01*
G75*
G02*
X-70249999Y-17600000I-249999J0D01*
G01*
X-71150001Y-17600000D01*
G75*
G02*
X-71400000Y-17350001I0J249999D01*
G01*
X-71400000Y-16649999D01*
G75*
G02*
X-71150001Y-16400000I249999J0D01*
G01*
G37*
%TD*%
%TO.C,R21*%
G36*
G01*
X-70249999Y-7600000D02*
X-71150001Y-7600000D01*
G75*
G02*
X-71400000Y-7350001I0J249999D01*
G01*
X-71400000Y-6649999D01*
G75*
G02*
X-71150001Y-6400000I249999J0D01*
G01*
X-70249999Y-6400000D01*
G75*
G02*
X-70000000Y-6649999I0J-249999D01*
G01*
X-70000000Y-7350001D01*
G75*
G02*
X-70249999Y-7600000I-249999J0D01*
G01*
G37*
G36*
G01*
X-70249999Y-9600000D02*
X-71150001Y-9600000D01*
G75*
G02*
X-71400000Y-9350001I0J249999D01*
G01*
X-71400000Y-8649999D01*
G75*
G02*
X-71150001Y-8400000I249999J0D01*
G01*
X-70249999Y-8400000D01*
G75*
G02*
X-70000000Y-8649999I0J-249999D01*
G01*
X-70000000Y-9350001D01*
G75*
G02*
X-70249999Y-9600000I-249999J0D01*
G01*
G37*
%TD*%
%TO.C,R18*%
G36*
G01*
X-25449999Y-2600000D02*
X-26350001Y-2600000D01*
G75*
G02*
X-26600000Y-2350001I0J249999D01*
G01*
X-26600000Y-1649999D01*
G75*
G02*
X-26350001Y-1400000I249999J0D01*
G01*
X-25449999Y-1400000D01*
G75*
G02*
X-25200000Y-1649999I0J-249999D01*
G01*
X-25200000Y-2350001D01*
G75*
G02*
X-25449999Y-2600000I-249999J0D01*
G01*
G37*
G36*
G01*
X-25449999Y-4600000D02*
X-26350001Y-4600000D01*
G75*
G02*
X-26600000Y-4350001I0J249999D01*
G01*
X-26600000Y-3649999D01*
G75*
G02*
X-26350001Y-3400000I249999J0D01*
G01*
X-25449999Y-3400000D01*
G75*
G02*
X-25200000Y-3649999I0J-249999D01*
G01*
X-25200000Y-4350001D01*
G75*
G02*
X-25449999Y-4600000I-249999J0D01*
G01*
G37*
%TD*%
%TO.C,R17*%
G36*
G01*
X-14950001Y-13400000D02*
X-14049999Y-13400000D01*
G75*
G02*
X-13800000Y-13649999I0J-249999D01*
G01*
X-13800000Y-14350001D01*
G75*
G02*
X-14049999Y-14600000I-249999J0D01*
G01*
X-14950001Y-14600000D01*
G75*
G02*
X-15200000Y-14350001I0J249999D01*
G01*
X-15200000Y-13649999D01*
G75*
G02*
X-14950001Y-13400000I249999J0D01*
G01*
G37*
G36*
G01*
X-14950001Y-11400000D02*
X-14049999Y-11400000D01*
G75*
G02*
X-13800000Y-11649999I0J-249999D01*
G01*
X-13800000Y-12350001D01*
G75*
G02*
X-14049999Y-12600000I-249999J0D01*
G01*
X-14950001Y-12600000D01*
G75*
G02*
X-15200000Y-12350001I0J249999D01*
G01*
X-15200000Y-11649999D01*
G75*
G02*
X-14950001Y-11400000I249999J0D01*
G01*
G37*
%TD*%
%TO.C,R13*%
G36*
G01*
X-10799999Y-12600000D02*
X-11700001Y-12600000D01*
G75*
G02*
X-11950000Y-12350001I0J249999D01*
G01*
X-11950000Y-11649999D01*
G75*
G02*
X-11700001Y-11400000I249999J0D01*
G01*
X-10799999Y-11400000D01*
G75*
G02*
X-10550000Y-11649999I0J-249999D01*
G01*
X-10550000Y-12350001D01*
G75*
G02*
X-10799999Y-12600000I-249999J0D01*
G01*
G37*
G36*
G01*
X-10799999Y-14600000D02*
X-11700001Y-14600000D01*
G75*
G02*
X-11950000Y-14350001I0J249999D01*
G01*
X-11950000Y-13649999D01*
G75*
G02*
X-11700001Y-13400000I249999J0D01*
G01*
X-10799999Y-13400000D01*
G75*
G02*
X-10550000Y-13649999I0J-249999D01*
G01*
X-10550000Y-14350001D01*
G75*
G02*
X-10799999Y-14600000I-249999J0D01*
G01*
G37*
%TD*%
%TO.C,R12*%
G36*
G01*
X-8300001Y-13400000D02*
X-7399999Y-13400000D01*
G75*
G02*
X-7150000Y-13649999I0J-249999D01*
G01*
X-7150000Y-14350001D01*
G75*
G02*
X-7399999Y-14600000I-249999J0D01*
G01*
X-8300001Y-14600000D01*
G75*
G02*
X-8550000Y-14350001I0J249999D01*
G01*
X-8550000Y-13649999D01*
G75*
G02*
X-8300001Y-13400000I249999J0D01*
G01*
G37*
G36*
G01*
X-8300001Y-11400000D02*
X-7399999Y-11400000D01*
G75*
G02*
X-7150000Y-11649999I0J-249999D01*
G01*
X-7150000Y-12350001D01*
G75*
G02*
X-7399999Y-12600000I-249999J0D01*
G01*
X-8300001Y-12600000D01*
G75*
G02*
X-8550000Y-12350001I0J249999D01*
G01*
X-8550000Y-11649999D01*
G75*
G02*
X-8300001Y-11400000I249999J0D01*
G01*
G37*
%TD*%
%TO.C,R11*%
G36*
G01*
X-19800001Y-18400000D02*
X-18899999Y-18400000D01*
G75*
G02*
X-18650000Y-18649999I0J-249999D01*
G01*
X-18650000Y-19350001D01*
G75*
G02*
X-18899999Y-19600000I-249999J0D01*
G01*
X-19800001Y-19600000D01*
G75*
G02*
X-20050000Y-19350001I0J249999D01*
G01*
X-20050000Y-18649999D01*
G75*
G02*
X-19800001Y-18400000I249999J0D01*
G01*
G37*
G36*
G01*
X-19800001Y-16400000D02*
X-18899999Y-16400000D01*
G75*
G02*
X-18650000Y-16649999I0J-249999D01*
G01*
X-18650000Y-17350001D01*
G75*
G02*
X-18899999Y-17600000I-249999J0D01*
G01*
X-19800001Y-17600000D01*
G75*
G02*
X-20050000Y-17350001I0J249999D01*
G01*
X-20050000Y-16649999D01*
G75*
G02*
X-19800001Y-16400000I249999J0D01*
G01*
G37*
%TD*%
%TO.C,R9*%
G36*
G01*
X-4900001Y-3400000D02*
X-3999999Y-3400000D01*
G75*
G02*
X-3750000Y-3649999I0J-249999D01*
G01*
X-3750000Y-4350001D01*
G75*
G02*
X-3999999Y-4600000I-249999J0D01*
G01*
X-4900001Y-4600000D01*
G75*
G02*
X-5150000Y-4350001I0J249999D01*
G01*
X-5150000Y-3649999D01*
G75*
G02*
X-4900001Y-3400000I249999J0D01*
G01*
G37*
G36*
G01*
X-4900001Y-1400000D02*
X-3999999Y-1400000D01*
G75*
G02*
X-3750000Y-1649999I0J-249999D01*
G01*
X-3750000Y-2350001D01*
G75*
G02*
X-3999999Y-2600000I-249999J0D01*
G01*
X-4900001Y-2600000D01*
G75*
G02*
X-5150000Y-2350001I0J249999D01*
G01*
X-5150000Y-1649999D01*
G75*
G02*
X-4900001Y-1400000I249999J0D01*
G01*
G37*
%TD*%
%TO.C,R7*%
G36*
G01*
X-10699999Y-7600000D02*
X-11600001Y-7600000D01*
G75*
G02*
X-11850000Y-7350001I0J249999D01*
G01*
X-11850000Y-6649999D01*
G75*
G02*
X-11600001Y-6400000I249999J0D01*
G01*
X-10699999Y-6400000D01*
G75*
G02*
X-10450000Y-6649999I0J-249999D01*
G01*
X-10450000Y-7350001D01*
G75*
G02*
X-10699999Y-7600000I-249999J0D01*
G01*
G37*
G36*
G01*
X-10699999Y-9600000D02*
X-11600001Y-9600000D01*
G75*
G02*
X-11850000Y-9350001I0J249999D01*
G01*
X-11850000Y-8649999D01*
G75*
G02*
X-11600001Y-8400000I249999J0D01*
G01*
X-10699999Y-8400000D01*
G75*
G02*
X-10450000Y-8649999I0J-249999D01*
G01*
X-10450000Y-9350001D01*
G75*
G02*
X-10699999Y-9600000I-249999J0D01*
G01*
G37*
%TD*%
%TO.C,R6*%
G36*
G01*
X-8500001Y-8400000D02*
X-7599999Y-8400000D01*
G75*
G02*
X-7350000Y-8649999I0J-249999D01*
G01*
X-7350000Y-9350001D01*
G75*
G02*
X-7599999Y-9600000I-249999J0D01*
G01*
X-8500001Y-9600000D01*
G75*
G02*
X-8750000Y-9350001I0J249999D01*
G01*
X-8750000Y-8649999D01*
G75*
G02*
X-8500001Y-8400000I249999J0D01*
G01*
G37*
G36*
G01*
X-8500001Y-6400000D02*
X-7599999Y-6400000D01*
G75*
G02*
X-7350000Y-6649999I0J-249999D01*
G01*
X-7350000Y-7350001D01*
G75*
G02*
X-7599999Y-7600000I-249999J0D01*
G01*
X-8500001Y-7600000D01*
G75*
G02*
X-8750000Y-7350001I0J249999D01*
G01*
X-8750000Y-6649999D01*
G75*
G02*
X-8500001Y-6400000I249999J0D01*
G01*
G37*
%TD*%
%TO.C,C40*%
G36*
G01*
X-50425000Y-17587500D02*
X-51375000Y-17587500D01*
G75*
G02*
X-51625000Y-17337500I0J250000D01*
G01*
X-51625000Y-16662500D01*
G75*
G02*
X-51375000Y-16412500I250000J0D01*
G01*
X-50425000Y-16412500D01*
G75*
G02*
X-50175000Y-16662500I0J-250000D01*
G01*
X-50175000Y-17337500D01*
G75*
G02*
X-50425000Y-17587500I-250000J0D01*
G01*
G37*
G36*
G01*
X-50425000Y-19662500D02*
X-51375000Y-19662500D01*
G75*
G02*
X-51625000Y-19412500I0J250000D01*
G01*
X-51625000Y-18737500D01*
G75*
G02*
X-51375000Y-18487500I250000J0D01*
G01*
X-50425000Y-18487500D01*
G75*
G02*
X-50175000Y-18737500I0J-250000D01*
G01*
X-50175000Y-19412500D01*
G75*
G02*
X-50425000Y-19662500I-250000J0D01*
G01*
G37*
%TD*%
%TO.C,C38*%
G36*
G01*
X-50525000Y-7587500D02*
X-51475000Y-7587500D01*
G75*
G02*
X-51725000Y-7337500I0J250000D01*
G01*
X-51725000Y-6662500D01*
G75*
G02*
X-51475000Y-6412500I250000J0D01*
G01*
X-50525000Y-6412500D01*
G75*
G02*
X-50275000Y-6662500I0J-250000D01*
G01*
X-50275000Y-7337500D01*
G75*
G02*
X-50525000Y-7587500I-250000J0D01*
G01*
G37*
G36*
G01*
X-50525000Y-9662500D02*
X-51475000Y-9662500D01*
G75*
G02*
X-51725000Y-9412500I0J250000D01*
G01*
X-51725000Y-8737500D01*
G75*
G02*
X-51475000Y-8487500I250000J0D01*
G01*
X-50525000Y-8487500D01*
G75*
G02*
X-50275000Y-8737500I0J-250000D01*
G01*
X-50275000Y-9412500D01*
G75*
G02*
X-50525000Y-9662500I-250000J0D01*
G01*
G37*
%TD*%
%TO.C,C34*%
G36*
G01*
X-53725000Y-7587500D02*
X-54675000Y-7587500D01*
G75*
G02*
X-54925000Y-7337500I0J250000D01*
G01*
X-54925000Y-6662500D01*
G75*
G02*
X-54675000Y-6412500I250000J0D01*
G01*
X-53725000Y-6412500D01*
G75*
G02*
X-53475000Y-6662500I0J-250000D01*
G01*
X-53475000Y-7337500D01*
G75*
G02*
X-53725000Y-7587500I-250000J0D01*
G01*
G37*
G36*
G01*
X-53725000Y-9662500D02*
X-54675000Y-9662500D01*
G75*
G02*
X-54925000Y-9412500I0J250000D01*
G01*
X-54925000Y-8737500D01*
G75*
G02*
X-54675000Y-8487500I250000J0D01*
G01*
X-53725000Y-8487500D01*
G75*
G02*
X-53475000Y-8737500I0J-250000D01*
G01*
X-53475000Y-9412500D01*
G75*
G02*
X-53725000Y-9662500I-250000J0D01*
G01*
G37*
%TD*%
%TO.C,C33*%
G36*
G01*
X-57975000Y-18487500D02*
X-57025000Y-18487500D01*
G75*
G02*
X-56775000Y-18737500I0J-250000D01*
G01*
X-56775000Y-19412500D01*
G75*
G02*
X-57025000Y-19662500I-250000J0D01*
G01*
X-57975000Y-19662500D01*
G75*
G02*
X-58225000Y-19412500I0J250000D01*
G01*
X-58225000Y-18737500D01*
G75*
G02*
X-57975000Y-18487500I250000J0D01*
G01*
G37*
G36*
G01*
X-57975000Y-16412500D02*
X-57025000Y-16412500D01*
G75*
G02*
X-56775000Y-16662500I0J-250000D01*
G01*
X-56775000Y-17337500D01*
G75*
G02*
X-57025000Y-17587500I-250000J0D01*
G01*
X-57975000Y-17587500D01*
G75*
G02*
X-58225000Y-17337500I0J250000D01*
G01*
X-58225000Y-16662500D01*
G75*
G02*
X-57975000Y-16412500I250000J0D01*
G01*
G37*
%TD*%
%TO.C,C30*%
G36*
G01*
X-64575000Y-13487500D02*
X-63625000Y-13487500D01*
G75*
G02*
X-63375000Y-13737500I0J-250000D01*
G01*
X-63375000Y-14412500D01*
G75*
G02*
X-63625000Y-14662500I-250000J0D01*
G01*
X-64575000Y-14662500D01*
G75*
G02*
X-64825000Y-14412500I0J250000D01*
G01*
X-64825000Y-13737500D01*
G75*
G02*
X-64575000Y-13487500I250000J0D01*
G01*
G37*
G36*
G01*
X-64575000Y-11412500D02*
X-63625000Y-11412500D01*
G75*
G02*
X-63375000Y-11662500I0J-250000D01*
G01*
X-63375000Y-12337500D01*
G75*
G02*
X-63625000Y-12587500I-250000J0D01*
G01*
X-64575000Y-12587500D01*
G75*
G02*
X-64825000Y-12337500I0J250000D01*
G01*
X-64825000Y-11662500D01*
G75*
G02*
X-64575000Y-11412500I250000J0D01*
G01*
G37*
%TD*%
%TO.C,C29*%
G36*
G01*
X-60325000Y-7587500D02*
X-61275000Y-7587500D01*
G75*
G02*
X-61525000Y-7337500I0J250000D01*
G01*
X-61525000Y-6662500D01*
G75*
G02*
X-61275000Y-6412500I250000J0D01*
G01*
X-60325000Y-6412500D01*
G75*
G02*
X-60075000Y-6662500I0J-250000D01*
G01*
X-60075000Y-7337500D01*
G75*
G02*
X-60325000Y-7587500I-250000J0D01*
G01*
G37*
G36*
G01*
X-60325000Y-9662500D02*
X-61275000Y-9662500D01*
G75*
G02*
X-61525000Y-9412500I0J250000D01*
G01*
X-61525000Y-8737500D01*
G75*
G02*
X-61275000Y-8487500I250000J0D01*
G01*
X-60325000Y-8487500D01*
G75*
G02*
X-60075000Y-8737500I0J-250000D01*
G01*
X-60075000Y-9412500D01*
G75*
G02*
X-60325000Y-9662500I-250000J0D01*
G01*
G37*
%TD*%
%TO.C,C26*%
G36*
G01*
X-19725000Y-7150000D02*
X-17875000Y-7150000D01*
G75*
G02*
X-17625000Y-7400000I0J-250000D01*
G01*
X-17625000Y-8400000D01*
G75*
G02*
X-17875000Y-8650000I-250000J0D01*
G01*
X-19725000Y-8650000D01*
G75*
G02*
X-19975000Y-8400000I0J250000D01*
G01*
X-19975000Y-7400000D01*
G75*
G02*
X-19725000Y-7150000I250000J0D01*
G01*
G37*
G36*
G01*
X-19725000Y-3900000D02*
X-17875000Y-3900000D01*
G75*
G02*
X-17625000Y-4150000I0J-250000D01*
G01*
X-17625000Y-5150000D01*
G75*
G02*
X-17875000Y-5400000I-250000J0D01*
G01*
X-19725000Y-5400000D01*
G75*
G02*
X-19975000Y-5150000I0J250000D01*
G01*
X-19975000Y-4150000D01*
G75*
G02*
X-19725000Y-3900000I250000J0D01*
G01*
G37*
%TD*%
%TO.C,C25*%
G36*
G01*
X-70225000Y-12587500D02*
X-71175000Y-12587500D01*
G75*
G02*
X-71425000Y-12337500I0J250000D01*
G01*
X-71425000Y-11662500D01*
G75*
G02*
X-71175000Y-11412500I250000J0D01*
G01*
X-70225000Y-11412500D01*
G75*
G02*
X-69975000Y-11662500I0J-250000D01*
G01*
X-69975000Y-12337500D01*
G75*
G02*
X-70225000Y-12587500I-250000J0D01*
G01*
G37*
G36*
G01*
X-70225000Y-14662500D02*
X-71175000Y-14662500D01*
G75*
G02*
X-71425000Y-14412500I0J250000D01*
G01*
X-71425000Y-13737500D01*
G75*
G02*
X-71175000Y-13487500I250000J0D01*
G01*
X-70225000Y-13487500D01*
G75*
G02*
X-69975000Y-13737500I0J-250000D01*
G01*
X-69975000Y-14412500D01*
G75*
G02*
X-70225000Y-14662500I-250000J0D01*
G01*
G37*
%TD*%
%TO.C,C22*%
G36*
G01*
X-63625000Y-7587500D02*
X-64575000Y-7587500D01*
G75*
G02*
X-64825000Y-7337500I0J250000D01*
G01*
X-64825000Y-6662500D01*
G75*
G02*
X-64575000Y-6412500I250000J0D01*
G01*
X-63625000Y-6412500D01*
G75*
G02*
X-63375000Y-6662500I0J-250000D01*
G01*
X-63375000Y-7337500D01*
G75*
G02*
X-63625000Y-7587500I-250000J0D01*
G01*
G37*
G36*
G01*
X-63625000Y-9662500D02*
X-64575000Y-9662500D01*
G75*
G02*
X-64825000Y-9412500I0J250000D01*
G01*
X-64825000Y-8737500D01*
G75*
G02*
X-64575000Y-8487500I250000J0D01*
G01*
X-63625000Y-8487500D01*
G75*
G02*
X-63375000Y-8737500I0J-250000D01*
G01*
X-63375000Y-9412500D01*
G75*
G02*
X-63625000Y-9662500I-250000J0D01*
G01*
G37*
%TD*%
%TO.C,C18*%
G36*
G01*
X-22225000Y-2587500D02*
X-23175000Y-2587500D01*
G75*
G02*
X-23425000Y-2337500I0J250000D01*
G01*
X-23425000Y-1662500D01*
G75*
G02*
X-23175000Y-1412500I250000J0D01*
G01*
X-22225000Y-1412500D01*
G75*
G02*
X-21975000Y-1662500I0J-250000D01*
G01*
X-21975000Y-2337500D01*
G75*
G02*
X-22225000Y-2587500I-250000J0D01*
G01*
G37*
G36*
G01*
X-22225000Y-4662500D02*
X-23175000Y-4662500D01*
G75*
G02*
X-23425000Y-4412500I0J250000D01*
G01*
X-23425000Y-3737500D01*
G75*
G02*
X-23175000Y-3487500I250000J0D01*
G01*
X-22225000Y-3487500D01*
G75*
G02*
X-21975000Y-3737500I0J-250000D01*
G01*
X-21975000Y-4412500D01*
G75*
G02*
X-22225000Y-4662500I-250000J0D01*
G01*
G37*
%TD*%
%TO.C,C16*%
G36*
G01*
X-24650000Y-9300000D02*
X-23550000Y-9300000D01*
G75*
G02*
X-23300000Y-9550000I0J-250000D01*
G01*
X-23300000Y-11650000D01*
G75*
G02*
X-23550000Y-11900000I-250000J0D01*
G01*
X-24650000Y-11900000D01*
G75*
G02*
X-24900000Y-11650000I0J250000D01*
G01*
X-24900000Y-9550000D01*
G75*
G02*
X-24650000Y-9300000I250000J0D01*
G01*
G37*
G36*
G01*
X-24650000Y-5700000D02*
X-23550000Y-5700000D01*
G75*
G02*
X-23300000Y-5950000I0J-250000D01*
G01*
X-23300000Y-8050000D01*
G75*
G02*
X-23550000Y-8300000I-250000J0D01*
G01*
X-24650000Y-8300000D01*
G75*
G02*
X-24900000Y-8050000I0J250000D01*
G01*
X-24900000Y-5950000D01*
G75*
G02*
X-24650000Y-5700000I250000J0D01*
G01*
G37*
%TD*%
%TO.C,C15*%
G36*
G01*
X-11900001Y-19462500D02*
X-10599999Y-19462500D01*
G75*
G02*
X-10350000Y-19712499I0J-249999D01*
G01*
X-10350000Y-20537501D01*
G75*
G02*
X-10599999Y-20787500I-249999J0D01*
G01*
X-11900001Y-20787500D01*
G75*
G02*
X-12150000Y-20537501I0J249999D01*
G01*
X-12150000Y-19712499D01*
G75*
G02*
X-11900001Y-19462500I249999J0D01*
G01*
G37*
G36*
G01*
X-11900001Y-16337500D02*
X-10599999Y-16337500D01*
G75*
G02*
X-10350000Y-16587499I0J-249999D01*
G01*
X-10350000Y-17412501D01*
G75*
G02*
X-10599999Y-17662500I-249999J0D01*
G01*
X-11900001Y-17662500D01*
G75*
G02*
X-12150000Y-17412501I0J249999D01*
G01*
X-12150000Y-16587499D01*
G75*
G02*
X-11900001Y-16337500I249999J0D01*
G01*
G37*
%TD*%
%TO.C,C14*%
G36*
G01*
X-8325000Y-18487500D02*
X-7375000Y-18487500D01*
G75*
G02*
X-7125000Y-18737500I0J-250000D01*
G01*
X-7125000Y-19412500D01*
G75*
G02*
X-7375000Y-19662500I-250000J0D01*
G01*
X-8325000Y-19662500D01*
G75*
G02*
X-8575000Y-19412500I0J250000D01*
G01*
X-8575000Y-18737500D01*
G75*
G02*
X-8325000Y-18487500I250000J0D01*
G01*
G37*
G36*
G01*
X-8325000Y-16412500D02*
X-7375000Y-16412500D01*
G75*
G02*
X-7125000Y-16662500I0J-250000D01*
G01*
X-7125000Y-17337500D01*
G75*
G02*
X-7375000Y-17587500I-250000J0D01*
G01*
X-8325000Y-17587500D01*
G75*
G02*
X-8575000Y-17337500I0J250000D01*
G01*
X-8575000Y-16662500D01*
G75*
G02*
X-8325000Y-16412500I250000J0D01*
G01*
G37*
%TD*%
%TO.C,C13*%
G36*
G01*
X-24650000Y-17200000D02*
X-23550000Y-17200000D01*
G75*
G02*
X-23300000Y-17450000I0J-250000D01*
G01*
X-23300000Y-19550000D01*
G75*
G02*
X-23550000Y-19800000I-250000J0D01*
G01*
X-24650000Y-19800000D01*
G75*
G02*
X-24900000Y-19550000I0J250000D01*
G01*
X-24900000Y-17450000D01*
G75*
G02*
X-24650000Y-17200000I250000J0D01*
G01*
G37*
G36*
G01*
X-24650000Y-13600000D02*
X-23550000Y-13600000D01*
G75*
G02*
X-23300000Y-13850000I0J-250000D01*
G01*
X-23300000Y-15950000D01*
G75*
G02*
X-23550000Y-16200000I-250000J0D01*
G01*
X-24650000Y-16200000D01*
G75*
G02*
X-24900000Y-15950000I0J250000D01*
G01*
X-24900000Y-13850000D01*
G75*
G02*
X-24650000Y-13600000I250000J0D01*
G01*
G37*
%TD*%
%TO.C,C10*%
G36*
G01*
X-14025000Y-7587500D02*
X-14975000Y-7587500D01*
G75*
G02*
X-15225000Y-7337500I0J250000D01*
G01*
X-15225000Y-6662500D01*
G75*
G02*
X-14975000Y-6412500I250000J0D01*
G01*
X-14025000Y-6412500D01*
G75*
G02*
X-13775000Y-6662500I0J-250000D01*
G01*
X-13775000Y-7337500D01*
G75*
G02*
X-14025000Y-7587500I-250000J0D01*
G01*
G37*
G36*
G01*
X-14025000Y-9662500D02*
X-14975000Y-9662500D01*
G75*
G02*
X-15225000Y-9412500I0J250000D01*
G01*
X-15225000Y-8737500D01*
G75*
G02*
X-14975000Y-8487500I250000J0D01*
G01*
X-14025000Y-8487500D01*
G75*
G02*
X-13775000Y-8737500I0J-250000D01*
G01*
X-13775000Y-9412500D01*
G75*
G02*
X-14025000Y-9662500I-250000J0D01*
G01*
G37*
%TD*%
%TO.C,C8*%
G36*
G01*
X-5100001Y-9462500D02*
X-3799999Y-9462500D01*
G75*
G02*
X-3550000Y-9712499I0J-249999D01*
G01*
X-3550000Y-10537501D01*
G75*
G02*
X-3799999Y-10787500I-249999J0D01*
G01*
X-5100001Y-10787500D01*
G75*
G02*
X-5350000Y-10537501I0J249999D01*
G01*
X-5350000Y-9712499D01*
G75*
G02*
X-5100001Y-9462500I249999J0D01*
G01*
G37*
G36*
G01*
X-5100001Y-6337500D02*
X-3799999Y-6337500D01*
G75*
G02*
X-3550000Y-6587499I0J-249999D01*
G01*
X-3550000Y-7412501D01*
G75*
G02*
X-3799999Y-7662500I-249999J0D01*
G01*
X-5100001Y-7662500D01*
G75*
G02*
X-5350000Y-7412501I0J249999D01*
G01*
X-5350000Y-6587499D01*
G75*
G02*
X-5100001Y-6337500I249999J0D01*
G01*
G37*
%TD*%
%TO.C,C6*%
G36*
G01*
X-11725000Y-3487500D02*
X-10775000Y-3487500D01*
G75*
G02*
X-10525000Y-3737500I0J-250000D01*
G01*
X-10525000Y-4412500D01*
G75*
G02*
X-10775000Y-4662500I-250000J0D01*
G01*
X-11725000Y-4662500D01*
G75*
G02*
X-11975000Y-4412500I0J250000D01*
G01*
X-11975000Y-3737500D01*
G75*
G02*
X-11725000Y-3487500I250000J0D01*
G01*
G37*
G36*
G01*
X-11725000Y-1412500D02*
X-10775000Y-1412500D01*
G75*
G02*
X-10525000Y-1662500I0J-250000D01*
G01*
X-10525000Y-2337500D01*
G75*
G02*
X-10775000Y-2587500I-250000J0D01*
G01*
X-11725000Y-2587500D01*
G75*
G02*
X-11975000Y-2337500I0J250000D01*
G01*
X-11975000Y-1662500D01*
G75*
G02*
X-11725000Y-1412500I250000J0D01*
G01*
G37*
%TD*%
M02*
