M48
; DRILL file {KiCad 5.1.9-73d0e3b20d~88~ubuntu18.04.1} date Sun Jan 10 19:17:09 2021
; FORMAT={-:-/ absolute / inch / decimal}
; #@! TF.CreationDate,2021-01-10T19:17:09-05:00
; #@! TF.GenerationSoftware,Kicad,Pcbnew,5.1.9-73d0e3b20d~88~ubuntu18.04.1
FMAT,2
INCH
T1C0.0157
T2C0.0394
%
G90
G05
T1
X5.2598Y-4.0551
X5.2598Y-4.6063
X5.6339Y-4.0709
X5.7795Y-3.8661
X5.7795Y-4.0709
X5.7835Y-4.2717
X5.8622Y-4.8504
X5.9173Y-4.0709
X5.9961Y-4.4567
X6.122Y-4.2874
X6.126Y-4.4843
X6.2441Y-4.2559
X6.2677Y-4.4094
X6.2874Y-4.4764
X6.3661Y-4.5866
X6.437Y-4.0709
X6.5709Y-4.1654
X6.5709Y-4.2165
X6.5714Y-4.2697
X6.5827Y-4.374
X6.5827Y-4.4528
X6.5906Y-3.9685
X6.6535Y-3.9141
X6.7323Y-3.9685
X6.7362Y-4.3307
X6.7746Y-4.4537
X6.7756Y-4.2362
X6.8106Y-4.5745
X6.8337Y-4.4764
X6.8646Y-4.8835
X6.8976Y-4.6732
X6.9173Y-3.8661
X6.9724Y-4.1339
X7.0472Y-4.3425
X7.0512Y-4.2835
X7.0591Y-4.7402
X7.1024Y-4.1378
X7.1024Y-4.1929
X7.1457Y-4.3858
X7.3386Y-4.5236
X7.3819Y-3.8701
X7.7953Y-3.8701
X7.9016Y-4.311
X8.0945Y-4.2598
X8.0945Y-4.3504
X8.126Y-4.0551
X8.126Y-4.6063
T2
X5.45Y-4.85
X5.55Y-4.85
X5.65Y-4.85
X5.75Y-4.85
X7.05Y-4.85
X7.15Y-4.85
X7.25Y-4.85
X7.35Y-4.85
X7.45Y-4.85
X7.55Y-4.85
X7.65Y-4.85
X7.75Y-4.85
X7.85Y-4.85
X7.95Y-4.85
X8.05Y-4.85
T0
M30
