G04 #@! TF.GenerationSoftware,KiCad,Pcbnew,5.1.9-73d0e3b20d~88~ubuntu18.04.1*
G04 #@! TF.CreationDate,2021-01-10T19:17:03-05:00*
G04 #@! TF.ProjectId,DolbyS_NR_HIC,446f6c62-7953-45f4-9e52-5f4849432e6b,2020-11-03*
G04 #@! TF.SameCoordinates,Original*
G04 #@! TF.FileFunction,Copper,L2,Bot*
G04 #@! TF.FilePolarity,Positive*
%FSLAX46Y46*%
G04 Gerber Fmt 4.6, Leading zero omitted, Abs format (unit mm)*
G04 Created by KiCad (PCBNEW 5.1.9-73d0e3b20d~88~ubuntu18.04.1) date 2021-01-10 19:17:03*
%MOMM*%
%LPD*%
G01*
G04 APERTURE LIST*
G04 #@! TA.AperFunction,ComponentPad*
%ADD10R,1.700000X1.700000*%
G04 #@! TD*
G04 #@! TA.AperFunction,ComponentPad*
%ADD11O,1.700000X1.700000*%
G04 #@! TD*
G04 #@! TA.AperFunction,ViaPad*
%ADD12C,0.800000*%
G04 #@! TD*
G04 #@! TA.AperFunction,Conductor*
%ADD13C,1.016000*%
G04 #@! TD*
G04 #@! TA.AperFunction,Conductor*
%ADD14C,0.254000*%
G04 #@! TD*
G04 #@! TA.AperFunction,Conductor*
%ADD15C,0.508000*%
G04 #@! TD*
G04 #@! TA.AperFunction,Conductor*
%ADD16C,0.150000*%
G04 #@! TD*
G04 APERTURE END LIST*
D10*
X138430000Y-123190000D03*
D11*
X140970000Y-123190000D03*
X143510000Y-123190000D03*
X146050000Y-123190000D03*
X179070000Y-123190000D03*
X181610000Y-123190000D03*
X184150000Y-123190000D03*
X186690000Y-123190000D03*
X189230000Y-123190000D03*
X191770000Y-123190000D03*
X194310000Y-123190000D03*
X196850000Y-123190000D03*
X199390000Y-123190000D03*
X201930000Y-123190000D03*
X204470000Y-123190000D03*
G04 #@! TA.AperFunction,SMDPad,CuDef*
G36*
G01*
X137524999Y-117812500D02*
X138375001Y-117812500D01*
G75*
G02*
X138625000Y-118062499I0J-249999D01*
G01*
X138625000Y-119137501D01*
G75*
G02*
X138375001Y-119387500I-249999J0D01*
G01*
X137524999Y-119387500D01*
G75*
G02*
X137275000Y-119137501I0J249999D01*
G01*
X137275000Y-118062499D01*
G75*
G02*
X137524999Y-117812500I249999J0D01*
G01*
G37*
G04 #@! TD.AperFunction*
G04 #@! TA.AperFunction,SMDPad,CuDef*
G36*
G01*
X137524999Y-114937500D02*
X138375001Y-114937500D01*
G75*
G02*
X138625000Y-115187499I0J-249999D01*
G01*
X138625000Y-116262501D01*
G75*
G02*
X138375001Y-116512500I-249999J0D01*
G01*
X137524999Y-116512500D01*
G75*
G02*
X137275000Y-116262501I0J249999D01*
G01*
X137275000Y-115187499D01*
G75*
G02*
X137524999Y-114937500I249999J0D01*
G01*
G37*
G04 #@! TD.AperFunction*
G04 #@! TA.AperFunction,SMDPad,CuDef*
G36*
G01*
X152399998Y-102462500D02*
X153700002Y-102462500D01*
G75*
G02*
X153950000Y-102712498I0J-249998D01*
G01*
X153950000Y-103537502D01*
G75*
G02*
X153700002Y-103787500I-249998J0D01*
G01*
X152399998Y-103787500D01*
G75*
G02*
X152150000Y-103537502I0J249998D01*
G01*
X152150000Y-102712498D01*
G75*
G02*
X152399998Y-102462500I249998J0D01*
G01*
G37*
G04 #@! TD.AperFunction*
G04 #@! TA.AperFunction,SMDPad,CuDef*
G36*
G01*
X152399998Y-99337500D02*
X153700002Y-99337500D01*
G75*
G02*
X153950000Y-99587498I0J-249998D01*
G01*
X153950000Y-100412502D01*
G75*
G02*
X153700002Y-100662500I-249998J0D01*
G01*
X152399998Y-100662500D01*
G75*
G02*
X152150000Y-100412502I0J249998D01*
G01*
X152150000Y-99587498D01*
G75*
G02*
X152399998Y-99337500I249998J0D01*
G01*
G37*
G04 #@! TD.AperFunction*
G04 #@! TA.AperFunction,SMDPad,CuDef*
G36*
G01*
X144349998Y-102462500D02*
X145650002Y-102462500D01*
G75*
G02*
X145900000Y-102712498I0J-249998D01*
G01*
X145900000Y-103537502D01*
G75*
G02*
X145650002Y-103787500I-249998J0D01*
G01*
X144349998Y-103787500D01*
G75*
G02*
X144100000Y-103537502I0J249998D01*
G01*
X144100000Y-102712498D01*
G75*
G02*
X144349998Y-102462500I249998J0D01*
G01*
G37*
G04 #@! TD.AperFunction*
G04 #@! TA.AperFunction,SMDPad,CuDef*
G36*
G01*
X144349998Y-99337500D02*
X145650002Y-99337500D01*
G75*
G02*
X145900000Y-99587498I0J-249998D01*
G01*
X145900000Y-100412502D01*
G75*
G02*
X145650002Y-100662500I-249998J0D01*
G01*
X144349998Y-100662500D01*
G75*
G02*
X144100000Y-100412502I0J249998D01*
G01*
X144100000Y-99587498D01*
G75*
G02*
X144349998Y-99337500I249998J0D01*
G01*
G37*
G04 #@! TD.AperFunction*
G04 #@! TA.AperFunction,SMDPad,CuDef*
G36*
G01*
X162650000Y-112300000D02*
X163750000Y-112300000D01*
G75*
G02*
X164000000Y-112550000I0J-250000D01*
G01*
X164000000Y-114650000D01*
G75*
G02*
X163750000Y-114900000I-250000J0D01*
G01*
X162650000Y-114900000D01*
G75*
G02*
X162400000Y-114650000I0J250000D01*
G01*
X162400000Y-112550000D01*
G75*
G02*
X162650000Y-112300000I250000J0D01*
G01*
G37*
G04 #@! TD.AperFunction*
G04 #@! TA.AperFunction,SMDPad,CuDef*
G36*
G01*
X162650000Y-108700000D02*
X163750000Y-108700000D01*
G75*
G02*
X164000000Y-108950000I0J-250000D01*
G01*
X164000000Y-111050000D01*
G75*
G02*
X163750000Y-111300000I-250000J0D01*
G01*
X162650000Y-111300000D01*
G75*
G02*
X162400000Y-111050000I0J250000D01*
G01*
X162400000Y-108950000D01*
G75*
G02*
X162650000Y-108700000I250000J0D01*
G01*
G37*
G04 #@! TD.AperFunction*
G04 #@! TA.AperFunction,SMDPad,CuDef*
G36*
G01*
X173349999Y-106400000D02*
X174250001Y-106400000D01*
G75*
G02*
X174500000Y-106649999I0J-249999D01*
G01*
X174500000Y-107350001D01*
G75*
G02*
X174250001Y-107600000I-249999J0D01*
G01*
X173349999Y-107600000D01*
G75*
G02*
X173100000Y-107350001I0J249999D01*
G01*
X173100000Y-106649999D01*
G75*
G02*
X173349999Y-106400000I249999J0D01*
G01*
G37*
G04 #@! TD.AperFunction*
G04 #@! TA.AperFunction,SMDPad,CuDef*
G36*
G01*
X173349999Y-104400000D02*
X174250001Y-104400000D01*
G75*
G02*
X174500000Y-104649999I0J-249999D01*
G01*
X174500000Y-105350001D01*
G75*
G02*
X174250001Y-105600000I-249999J0D01*
G01*
X173349999Y-105600000D01*
G75*
G02*
X173100000Y-105350001I0J249999D01*
G01*
X173100000Y-104649999D01*
G75*
G02*
X173349999Y-104400000I249999J0D01*
G01*
G37*
G04 #@! TD.AperFunction*
G04 #@! TA.AperFunction,SMDPad,CuDef*
G36*
G01*
X157249999Y-111400000D02*
X158150001Y-111400000D01*
G75*
G02*
X158400000Y-111649999I0J-249999D01*
G01*
X158400000Y-112350001D01*
G75*
G02*
X158150001Y-112600000I-249999J0D01*
G01*
X157249999Y-112600000D01*
G75*
G02*
X157000000Y-112350001I0J249999D01*
G01*
X157000000Y-111649999D01*
G75*
G02*
X157249999Y-111400000I249999J0D01*
G01*
G37*
G04 #@! TD.AperFunction*
G04 #@! TA.AperFunction,SMDPad,CuDef*
G36*
G01*
X157249999Y-109400000D02*
X158150001Y-109400000D01*
G75*
G02*
X158400000Y-109649999I0J-249999D01*
G01*
X158400000Y-110350001D01*
G75*
G02*
X158150001Y-110600000I-249999J0D01*
G01*
X157249999Y-110600000D01*
G75*
G02*
X157000000Y-110350001I0J249999D01*
G01*
X157000000Y-109649999D01*
G75*
G02*
X157249999Y-109400000I249999J0D01*
G01*
G37*
G04 #@! TD.AperFunction*
G04 #@! TA.AperFunction,SMDPad,CuDef*
G36*
G01*
X152649999Y-106400000D02*
X153550001Y-106400000D01*
G75*
G02*
X153800000Y-106649999I0J-249999D01*
G01*
X153800000Y-107350001D01*
G75*
G02*
X153550001Y-107600000I-249999J0D01*
G01*
X152649999Y-107600000D01*
G75*
G02*
X152400000Y-107350001I0J249999D01*
G01*
X152400000Y-106649999D01*
G75*
G02*
X152649999Y-106400000I249999J0D01*
G01*
G37*
G04 #@! TD.AperFunction*
G04 #@! TA.AperFunction,SMDPad,CuDef*
G36*
G01*
X152649999Y-104400000D02*
X153550001Y-104400000D01*
G75*
G02*
X153800000Y-104649999I0J-249999D01*
G01*
X153800000Y-105350001D01*
G75*
G02*
X153550001Y-105600000I-249999J0D01*
G01*
X152649999Y-105600000D01*
G75*
G02*
X152400000Y-105350001I0J249999D01*
G01*
X152400000Y-104649999D01*
G75*
G02*
X152649999Y-104400000I249999J0D01*
G01*
G37*
G04 #@! TD.AperFunction*
G04 #@! TA.AperFunction,SMDPad,CuDef*
G36*
G01*
X139090001Y-110600000D02*
X138189999Y-110600000D01*
G75*
G02*
X137940000Y-110350001I0J249999D01*
G01*
X137940000Y-109649999D01*
G75*
G02*
X138189999Y-109400000I249999J0D01*
G01*
X139090001Y-109400000D01*
G75*
G02*
X139340000Y-109649999I0J-249999D01*
G01*
X139340000Y-110350001D01*
G75*
G02*
X139090001Y-110600000I-249999J0D01*
G01*
G37*
G04 #@! TD.AperFunction*
G04 #@! TA.AperFunction,SMDPad,CuDef*
G36*
G01*
X139090001Y-112600000D02*
X138189999Y-112600000D01*
G75*
G02*
X137940000Y-112350001I0J249999D01*
G01*
X137940000Y-111649999D01*
G75*
G02*
X138189999Y-111400000I249999J0D01*
G01*
X139090001Y-111400000D01*
G75*
G02*
X139340000Y-111649999I0J-249999D01*
G01*
X139340000Y-112350001D01*
G75*
G02*
X139090001Y-112600000I-249999J0D01*
G01*
G37*
G04 #@! TD.AperFunction*
G04 #@! TA.AperFunction,SMDPad,CuDef*
G36*
G01*
X154500001Y-110600000D02*
X153599999Y-110600000D01*
G75*
G02*
X153350000Y-110350001I0J249999D01*
G01*
X153350000Y-109649999D01*
G75*
G02*
X153599999Y-109400000I249999J0D01*
G01*
X154500001Y-109400000D01*
G75*
G02*
X154750000Y-109649999I0J-249999D01*
G01*
X154750000Y-110350001D01*
G75*
G02*
X154500001Y-110600000I-249999J0D01*
G01*
G37*
G04 #@! TD.AperFunction*
G04 #@! TA.AperFunction,SMDPad,CuDef*
G36*
G01*
X154500001Y-112600000D02*
X153599999Y-112600000D01*
G75*
G02*
X153350000Y-112350001I0J249999D01*
G01*
X153350000Y-111649999D01*
G75*
G02*
X153599999Y-111400000I249999J0D01*
G01*
X154500001Y-111400000D01*
G75*
G02*
X154750000Y-111649999I0J-249999D01*
G01*
X154750000Y-112350001D01*
G75*
G02*
X154500001Y-112600000I-249999J0D01*
G01*
G37*
G04 #@! TD.AperFunction*
G04 #@! TA.AperFunction,SMDPad,CuDef*
G36*
G01*
X135850001Y-110600000D02*
X134949999Y-110600000D01*
G75*
G02*
X134700000Y-110350001I0J249999D01*
G01*
X134700000Y-109649999D01*
G75*
G02*
X134949999Y-109400000I249999J0D01*
G01*
X135850001Y-109400000D01*
G75*
G02*
X136100000Y-109649999I0J-249999D01*
G01*
X136100000Y-110350001D01*
G75*
G02*
X135850001Y-110600000I-249999J0D01*
G01*
G37*
G04 #@! TD.AperFunction*
G04 #@! TA.AperFunction,SMDPad,CuDef*
G36*
G01*
X135850001Y-112600000D02*
X134949999Y-112600000D01*
G75*
G02*
X134700000Y-112350001I0J249999D01*
G01*
X134700000Y-111649999D01*
G75*
G02*
X134949999Y-111400000I249999J0D01*
G01*
X135850001Y-111400000D01*
G75*
G02*
X136100000Y-111649999I0J-249999D01*
G01*
X136100000Y-112350001D01*
G75*
G02*
X135850001Y-112600000I-249999J0D01*
G01*
G37*
G04 #@! TD.AperFunction*
G04 #@! TA.AperFunction,SMDPad,CuDef*
G36*
G01*
X150339999Y-111400000D02*
X151240001Y-111400000D01*
G75*
G02*
X151490000Y-111649999I0J-249999D01*
G01*
X151490000Y-112350001D01*
G75*
G02*
X151240001Y-112600000I-249999J0D01*
G01*
X150339999Y-112600000D01*
G75*
G02*
X150090000Y-112350001I0J249999D01*
G01*
X150090000Y-111649999D01*
G75*
G02*
X150339999Y-111400000I249999J0D01*
G01*
G37*
G04 #@! TD.AperFunction*
G04 #@! TA.AperFunction,SMDPad,CuDef*
G36*
G01*
X150339999Y-109400000D02*
X151240001Y-109400000D01*
G75*
G02*
X151490000Y-109649999I0J-249999D01*
G01*
X151490000Y-110350001D01*
G75*
G02*
X151240001Y-110600000I-249999J0D01*
G01*
X150339999Y-110600000D01*
G75*
G02*
X150090000Y-110350001I0J249999D01*
G01*
X150090000Y-109649999D01*
G75*
G02*
X150339999Y-109400000I249999J0D01*
G01*
G37*
G04 #@! TD.AperFunction*
G04 #@! TA.AperFunction,SMDPad,CuDef*
G36*
G01*
X147949999Y-106400000D02*
X148850001Y-106400000D01*
G75*
G02*
X149100000Y-106649999I0J-249999D01*
G01*
X149100000Y-107350001D01*
G75*
G02*
X148850001Y-107600000I-249999J0D01*
G01*
X147949999Y-107600000D01*
G75*
G02*
X147700000Y-107350001I0J249999D01*
G01*
X147700000Y-106649999D01*
G75*
G02*
X147949999Y-106400000I249999J0D01*
G01*
G37*
G04 #@! TD.AperFunction*
G04 #@! TA.AperFunction,SMDPad,CuDef*
G36*
G01*
X147949999Y-104400000D02*
X148850001Y-104400000D01*
G75*
G02*
X149100000Y-104649999I0J-249999D01*
G01*
X149100000Y-105350001D01*
G75*
G02*
X148850001Y-105600000I-249999J0D01*
G01*
X147949999Y-105600000D01*
G75*
G02*
X147700000Y-105350001I0J249999D01*
G01*
X147700000Y-104649999D01*
G75*
G02*
X147949999Y-104400000I249999J0D01*
G01*
G37*
G04 #@! TD.AperFunction*
G04 #@! TA.AperFunction,SMDPad,CuDef*
G36*
G01*
X144549999Y-106400000D02*
X145450001Y-106400000D01*
G75*
G02*
X145700000Y-106649999I0J-249999D01*
G01*
X145700000Y-107350001D01*
G75*
G02*
X145450001Y-107600000I-249999J0D01*
G01*
X144549999Y-107600000D01*
G75*
G02*
X144300000Y-107350001I0J249999D01*
G01*
X144300000Y-106649999D01*
G75*
G02*
X144549999Y-106400000I249999J0D01*
G01*
G37*
G04 #@! TD.AperFunction*
G04 #@! TA.AperFunction,SMDPad,CuDef*
G36*
G01*
X144549999Y-104400000D02*
X145450001Y-104400000D01*
G75*
G02*
X145700000Y-104649999I0J-249999D01*
G01*
X145700000Y-105350001D01*
G75*
G02*
X145450001Y-105600000I-249999J0D01*
G01*
X144549999Y-105600000D01*
G75*
G02*
X144300000Y-105350001I0J249999D01*
G01*
X144300000Y-104649999D01*
G75*
G02*
X144549999Y-104400000I249999J0D01*
G01*
G37*
G04 #@! TD.AperFunction*
G04 #@! TA.AperFunction,SMDPad,CuDef*
G36*
G01*
X173349999Y-101400000D02*
X174250001Y-101400000D01*
G75*
G02*
X174500000Y-101649999I0J-249999D01*
G01*
X174500000Y-102350001D01*
G75*
G02*
X174250001Y-102600000I-249999J0D01*
G01*
X173349999Y-102600000D01*
G75*
G02*
X173100000Y-102350001I0J249999D01*
G01*
X173100000Y-101649999D01*
G75*
G02*
X173349999Y-101400000I249999J0D01*
G01*
G37*
G04 #@! TD.AperFunction*
G04 #@! TA.AperFunction,SMDPad,CuDef*
G36*
G01*
X173349999Y-99400000D02*
X174250001Y-99400000D01*
G75*
G02*
X174500000Y-99649999I0J-249999D01*
G01*
X174500000Y-100350001D01*
G75*
G02*
X174250001Y-100600000I-249999J0D01*
G01*
X173349999Y-100600000D01*
G75*
G02*
X173100000Y-100350001I0J249999D01*
G01*
X173100000Y-99649999D01*
G75*
G02*
X173349999Y-99400000I249999J0D01*
G01*
G37*
G04 #@! TD.AperFunction*
G04 #@! TA.AperFunction,SMDPad,CuDef*
G36*
G01*
X141950001Y-105600000D02*
X141049999Y-105600000D01*
G75*
G02*
X140800000Y-105350001I0J249999D01*
G01*
X140800000Y-104649999D01*
G75*
G02*
X141049999Y-104400000I249999J0D01*
G01*
X141950001Y-104400000D01*
G75*
G02*
X142200000Y-104649999I0J-249999D01*
G01*
X142200000Y-105350001D01*
G75*
G02*
X141950001Y-105600000I-249999J0D01*
G01*
G37*
G04 #@! TD.AperFunction*
G04 #@! TA.AperFunction,SMDPad,CuDef*
G36*
G01*
X141950001Y-107600000D02*
X141049999Y-107600000D01*
G75*
G02*
X140800000Y-107350001I0J249999D01*
G01*
X140800000Y-106649999D01*
G75*
G02*
X141049999Y-106400000I249999J0D01*
G01*
X141950001Y-106400000D01*
G75*
G02*
X142200000Y-106649999I0J-249999D01*
G01*
X142200000Y-107350001D01*
G75*
G02*
X141950001Y-107600000I-249999J0D01*
G01*
G37*
G04 #@! TD.AperFunction*
G04 #@! TA.AperFunction,SMDPad,CuDef*
G36*
G01*
X165450001Y-100600000D02*
X164549999Y-100600000D01*
G75*
G02*
X164300000Y-100350001I0J249999D01*
G01*
X164300000Y-99649999D01*
G75*
G02*
X164549999Y-99400000I249999J0D01*
G01*
X165450001Y-99400000D01*
G75*
G02*
X165700000Y-99649999I0J-249999D01*
G01*
X165700000Y-100350001D01*
G75*
G02*
X165450001Y-100600000I-249999J0D01*
G01*
G37*
G04 #@! TD.AperFunction*
G04 #@! TA.AperFunction,SMDPad,CuDef*
G36*
G01*
X165450001Y-102600000D02*
X164549999Y-102600000D01*
G75*
G02*
X164300000Y-102350001I0J249999D01*
G01*
X164300000Y-101649999D01*
G75*
G02*
X164549999Y-101400000I249999J0D01*
G01*
X165450001Y-101400000D01*
G75*
G02*
X165700000Y-101649999I0J-249999D01*
G01*
X165700000Y-102350001D01*
G75*
G02*
X165450001Y-102600000I-249999J0D01*
G01*
G37*
G04 #@! TD.AperFunction*
G04 #@! TA.AperFunction,SMDPad,CuDef*
G36*
G01*
X165450001Y-105600000D02*
X164549999Y-105600000D01*
G75*
G02*
X164300000Y-105350001I0J249999D01*
G01*
X164300000Y-104649999D01*
G75*
G02*
X164549999Y-104400000I249999J0D01*
G01*
X165450001Y-104400000D01*
G75*
G02*
X165700000Y-104649999I0J-249999D01*
G01*
X165700000Y-105350001D01*
G75*
G02*
X165450001Y-105600000I-249999J0D01*
G01*
G37*
G04 #@! TD.AperFunction*
G04 #@! TA.AperFunction,SMDPad,CuDef*
G36*
G01*
X165450001Y-107600000D02*
X164549999Y-107600000D01*
G75*
G02*
X164300000Y-107350001I0J249999D01*
G01*
X164300000Y-106649999D01*
G75*
G02*
X164549999Y-106400000I249999J0D01*
G01*
X165450001Y-106400000D01*
G75*
G02*
X165700000Y-106649999I0J-249999D01*
G01*
X165700000Y-107350001D01*
G75*
G02*
X165450001Y-107600000I-249999J0D01*
G01*
G37*
G04 #@! TD.AperFunction*
G04 #@! TA.AperFunction,SMDPad,CuDef*
G36*
G01*
X168749999Y-118000000D02*
X169650001Y-118000000D01*
G75*
G02*
X169900000Y-118249999I0J-249999D01*
G01*
X169900000Y-118950001D01*
G75*
G02*
X169650001Y-119200000I-249999J0D01*
G01*
X168749999Y-119200000D01*
G75*
G02*
X168500000Y-118950001I0J249999D01*
G01*
X168500000Y-118249999D01*
G75*
G02*
X168749999Y-118000000I249999J0D01*
G01*
G37*
G04 #@! TD.AperFunction*
G04 #@! TA.AperFunction,SMDPad,CuDef*
G36*
G01*
X168749999Y-116000000D02*
X169650001Y-116000000D01*
G75*
G02*
X169900000Y-116249999I0J-249999D01*
G01*
X169900000Y-116950001D01*
G75*
G02*
X169650001Y-117200000I-249999J0D01*
G01*
X168749999Y-117200000D01*
G75*
G02*
X168500000Y-116950001I0J249999D01*
G01*
X168500000Y-116249999D01*
G75*
G02*
X168749999Y-116000000I249999J0D01*
G01*
G37*
G04 #@! TD.AperFunction*
G04 #@! TA.AperFunction,SMDPad,CuDef*
G36*
G01*
X182600001Y-105650000D02*
X181699999Y-105650000D01*
G75*
G02*
X181450000Y-105400001I0J249999D01*
G01*
X181450000Y-104699999D01*
G75*
G02*
X181699999Y-104450000I249999J0D01*
G01*
X182600001Y-104450000D01*
G75*
G02*
X182850000Y-104699999I0J-249999D01*
G01*
X182850000Y-105400001D01*
G75*
G02*
X182600001Y-105650000I-249999J0D01*
G01*
G37*
G04 #@! TD.AperFunction*
G04 #@! TA.AperFunction,SMDPad,CuDef*
G36*
G01*
X182600001Y-107650000D02*
X181699999Y-107650000D01*
G75*
G02*
X181450000Y-107400001I0J249999D01*
G01*
X181450000Y-106699999D01*
G75*
G02*
X181699999Y-106450000I249999J0D01*
G01*
X182600001Y-106450000D01*
G75*
G02*
X182850000Y-106699999I0J-249999D01*
G01*
X182850000Y-107400001D01*
G75*
G02*
X182600001Y-107650000I-249999J0D01*
G01*
G37*
G04 #@! TD.AperFunction*
G04 #@! TA.AperFunction,SMDPad,CuDef*
G36*
G01*
X178199999Y-106400000D02*
X179100001Y-106400000D01*
G75*
G02*
X179350000Y-106649999I0J-249999D01*
G01*
X179350000Y-107350001D01*
G75*
G02*
X179100001Y-107600000I-249999J0D01*
G01*
X178199999Y-107600000D01*
G75*
G02*
X177950000Y-107350001I0J249999D01*
G01*
X177950000Y-106649999D01*
G75*
G02*
X178199999Y-106400000I249999J0D01*
G01*
G37*
G04 #@! TD.AperFunction*
G04 #@! TA.AperFunction,SMDPad,CuDef*
G36*
G01*
X178199999Y-104400000D02*
X179100001Y-104400000D01*
G75*
G02*
X179350000Y-104649999I0J-249999D01*
G01*
X179350000Y-105350001D01*
G75*
G02*
X179100001Y-105600000I-249999J0D01*
G01*
X178199999Y-105600000D01*
G75*
G02*
X177950000Y-105350001I0J249999D01*
G01*
X177950000Y-104649999D01*
G75*
G02*
X178199999Y-104400000I249999J0D01*
G01*
G37*
G04 #@! TD.AperFunction*
G04 #@! TA.AperFunction,SMDPad,CuDef*
G36*
G01*
X186100001Y-100650000D02*
X185199999Y-100650000D01*
G75*
G02*
X184950000Y-100400001I0J249999D01*
G01*
X184950000Y-99699999D01*
G75*
G02*
X185199999Y-99450000I249999J0D01*
G01*
X186100001Y-99450000D01*
G75*
G02*
X186350000Y-99699999I0J-249999D01*
G01*
X186350000Y-100400001D01*
G75*
G02*
X186100001Y-100650000I-249999J0D01*
G01*
G37*
G04 #@! TD.AperFunction*
G04 #@! TA.AperFunction,SMDPad,CuDef*
G36*
G01*
X186100001Y-102650000D02*
X185199999Y-102650000D01*
G75*
G02*
X184950000Y-102400001I0J249999D01*
G01*
X184950000Y-101699999D01*
G75*
G02*
X185199999Y-101450000I249999J0D01*
G01*
X186100001Y-101450000D01*
G75*
G02*
X186350000Y-101699999I0J-249999D01*
G01*
X186350000Y-102400001D01*
G75*
G02*
X186100001Y-102650000I-249999J0D01*
G01*
G37*
G04 #@! TD.AperFunction*
G04 #@! TA.AperFunction,SMDPad,CuDef*
G36*
G01*
X199199999Y-113000000D02*
X200100001Y-113000000D01*
G75*
G02*
X200350000Y-113249999I0J-249999D01*
G01*
X200350000Y-113950001D01*
G75*
G02*
X200100001Y-114200000I-249999J0D01*
G01*
X199199999Y-114200000D01*
G75*
G02*
X198950000Y-113950001I0J249999D01*
G01*
X198950000Y-113249999D01*
G75*
G02*
X199199999Y-113000000I249999J0D01*
G01*
G37*
G04 #@! TD.AperFunction*
G04 #@! TA.AperFunction,SMDPad,CuDef*
G36*
G01*
X199199999Y-111000000D02*
X200100001Y-111000000D01*
G75*
G02*
X200350000Y-111249999I0J-249999D01*
G01*
X200350000Y-111950001D01*
G75*
G02*
X200100001Y-112200000I-249999J0D01*
G01*
X199199999Y-112200000D01*
G75*
G02*
X198950000Y-111950001I0J249999D01*
G01*
X198950000Y-111249999D01*
G75*
G02*
X199199999Y-111000000I249999J0D01*
G01*
G37*
G04 #@! TD.AperFunction*
G04 #@! TA.AperFunction,SMDPad,CuDef*
G36*
G01*
X189650001Y-105600000D02*
X188749999Y-105600000D01*
G75*
G02*
X188500000Y-105350001I0J249999D01*
G01*
X188500000Y-104649999D01*
G75*
G02*
X188749999Y-104400000I249999J0D01*
G01*
X189650001Y-104400000D01*
G75*
G02*
X189900000Y-104649999I0J-249999D01*
G01*
X189900000Y-105350001D01*
G75*
G02*
X189650001Y-105600000I-249999J0D01*
G01*
G37*
G04 #@! TD.AperFunction*
G04 #@! TA.AperFunction,SMDPad,CuDef*
G36*
G01*
X189650001Y-107600000D02*
X188749999Y-107600000D01*
G75*
G02*
X188500000Y-107350001I0J249999D01*
G01*
X188500000Y-106649999D01*
G75*
G02*
X188749999Y-106400000I249999J0D01*
G01*
X189650001Y-106400000D01*
G75*
G02*
X189900000Y-106649999I0J-249999D01*
G01*
X189900000Y-107350001D01*
G75*
G02*
X189650001Y-107600000I-249999J0D01*
G01*
G37*
G04 #@! TD.AperFunction*
G04 #@! TA.AperFunction,SMDPad,CuDef*
G36*
G01*
X192249999Y-101450000D02*
X193150001Y-101450000D01*
G75*
G02*
X193400000Y-101699999I0J-249999D01*
G01*
X193400000Y-102400001D01*
G75*
G02*
X193150001Y-102650000I-249999J0D01*
G01*
X192249999Y-102650000D01*
G75*
G02*
X192000000Y-102400001I0J249999D01*
G01*
X192000000Y-101699999D01*
G75*
G02*
X192249999Y-101450000I249999J0D01*
G01*
G37*
G04 #@! TD.AperFunction*
G04 #@! TA.AperFunction,SMDPad,CuDef*
G36*
G01*
X192249999Y-99450000D02*
X193150001Y-99450000D01*
G75*
G02*
X193400000Y-99699999I0J-249999D01*
G01*
X193400000Y-100400001D01*
G75*
G02*
X193150001Y-100650000I-249999J0D01*
G01*
X192249999Y-100650000D01*
G75*
G02*
X192000000Y-100400001I0J249999D01*
G01*
X192000000Y-99699999D01*
G75*
G02*
X192249999Y-99450000I249999J0D01*
G01*
G37*
G04 #@! TD.AperFunction*
G04 #@! TA.AperFunction,SMDPad,CuDef*
G36*
G01*
X199199999Y-101450000D02*
X200100001Y-101450000D01*
G75*
G02*
X200350000Y-101699999I0J-249999D01*
G01*
X200350000Y-102400001D01*
G75*
G02*
X200100001Y-102650000I-249999J0D01*
G01*
X199199999Y-102650000D01*
G75*
G02*
X198950000Y-102400001I0J249999D01*
G01*
X198950000Y-101699999D01*
G75*
G02*
X199199999Y-101450000I249999J0D01*
G01*
G37*
G04 #@! TD.AperFunction*
G04 #@! TA.AperFunction,SMDPad,CuDef*
G36*
G01*
X199199999Y-99450000D02*
X200100001Y-99450000D01*
G75*
G02*
X200350000Y-99699999I0J-249999D01*
G01*
X200350000Y-100400001D01*
G75*
G02*
X200100001Y-100650000I-249999J0D01*
G01*
X199199999Y-100650000D01*
G75*
G02*
X198950000Y-100400001I0J249999D01*
G01*
X198950000Y-99699999D01*
G75*
G02*
X199199999Y-99450000I249999J0D01*
G01*
G37*
G04 #@! TD.AperFunction*
G04 #@! TA.AperFunction,SMDPad,CuDef*
G36*
G01*
X195849999Y-101450000D02*
X196750001Y-101450000D01*
G75*
G02*
X197000000Y-101699999I0J-249999D01*
G01*
X197000000Y-102400001D01*
G75*
G02*
X196750001Y-102650000I-249999J0D01*
G01*
X195849999Y-102650000D01*
G75*
G02*
X195600000Y-102400001I0J249999D01*
G01*
X195600000Y-101699999D01*
G75*
G02*
X195849999Y-101450000I249999J0D01*
G01*
G37*
G04 #@! TD.AperFunction*
G04 #@! TA.AperFunction,SMDPad,CuDef*
G36*
G01*
X195849999Y-99450000D02*
X196750001Y-99450000D01*
G75*
G02*
X197000000Y-99699999I0J-249999D01*
G01*
X197000000Y-100400001D01*
G75*
G02*
X196750001Y-100650000I-249999J0D01*
G01*
X195849999Y-100650000D01*
G75*
G02*
X195600000Y-100400001I0J249999D01*
G01*
X195600000Y-99699999D01*
G75*
G02*
X195849999Y-99450000I249999J0D01*
G01*
G37*
G04 #@! TD.AperFunction*
G04 #@! TA.AperFunction,SMDPad,CuDef*
G36*
G01*
X200100001Y-105600000D02*
X199199999Y-105600000D01*
G75*
G02*
X198950000Y-105350001I0J249999D01*
G01*
X198950000Y-104649999D01*
G75*
G02*
X199199999Y-104400000I249999J0D01*
G01*
X200100001Y-104400000D01*
G75*
G02*
X200350000Y-104649999I0J-249999D01*
G01*
X200350000Y-105350001D01*
G75*
G02*
X200100001Y-105600000I-249999J0D01*
G01*
G37*
G04 #@! TD.AperFunction*
G04 #@! TA.AperFunction,SMDPad,CuDef*
G36*
G01*
X200100001Y-107600000D02*
X199199999Y-107600000D01*
G75*
G02*
X198950000Y-107350001I0J249999D01*
G01*
X198950000Y-106649999D01*
G75*
G02*
X199199999Y-106400000I249999J0D01*
G01*
X200100001Y-106400000D01*
G75*
G02*
X200350000Y-106649999I0J-249999D01*
G01*
X200350000Y-107350001D01*
G75*
G02*
X200100001Y-107600000I-249999J0D01*
G01*
G37*
G04 #@! TD.AperFunction*
G04 #@! TA.AperFunction,SMDPad,CuDef*
G36*
G01*
X172249999Y-111400000D02*
X173150001Y-111400000D01*
G75*
G02*
X173400000Y-111649999I0J-249999D01*
G01*
X173400000Y-112350001D01*
G75*
G02*
X173150001Y-112600000I-249999J0D01*
G01*
X172249999Y-112600000D01*
G75*
G02*
X172000000Y-112350001I0J249999D01*
G01*
X172000000Y-111649999D01*
G75*
G02*
X172249999Y-111400000I249999J0D01*
G01*
G37*
G04 #@! TD.AperFunction*
G04 #@! TA.AperFunction,SMDPad,CuDef*
G36*
G01*
X172249999Y-109400000D02*
X173150001Y-109400000D01*
G75*
G02*
X173400000Y-109649999I0J-249999D01*
G01*
X173400000Y-110350001D01*
G75*
G02*
X173150001Y-110600000I-249999J0D01*
G01*
X172249999Y-110600000D01*
G75*
G02*
X172000000Y-110350001I0J249999D01*
G01*
X172000000Y-109649999D01*
G75*
G02*
X172249999Y-109400000I249999J0D01*
G01*
G37*
G04 #@! TD.AperFunction*
G04 #@! TA.AperFunction,SMDPad,CuDef*
G36*
G01*
X156199999Y-103400000D02*
X159100001Y-103400000D01*
G75*
G02*
X159350000Y-103649999I0J-249999D01*
G01*
X159350000Y-104550001D01*
G75*
G02*
X159100001Y-104800000I-249999J0D01*
G01*
X156199999Y-104800000D01*
G75*
G02*
X155950000Y-104550001I0J249999D01*
G01*
X155950000Y-103649999D01*
G75*
G02*
X156199999Y-103400000I249999J0D01*
G01*
G37*
G04 #@! TD.AperFunction*
G04 #@! TA.AperFunction,SMDPad,CuDef*
G36*
G01*
X156199999Y-99300000D02*
X159100001Y-99300000D01*
G75*
G02*
X159350000Y-99549999I0J-249999D01*
G01*
X159350000Y-100450001D01*
G75*
G02*
X159100001Y-100700000I-249999J0D01*
G01*
X156199999Y-100700000D01*
G75*
G02*
X155950000Y-100450001I0J249999D01*
G01*
X155950000Y-99549999D01*
G75*
G02*
X156199999Y-99300000I249999J0D01*
G01*
G37*
G04 #@! TD.AperFunction*
G04 #@! TA.AperFunction,SMDPad,CuDef*
G36*
G01*
X141350000Y-117300000D02*
X142450000Y-117300000D01*
G75*
G02*
X142700000Y-117550000I0J-250000D01*
G01*
X142700000Y-119650000D01*
G75*
G02*
X142450000Y-119900000I-250000J0D01*
G01*
X141350000Y-119900000D01*
G75*
G02*
X141100000Y-119650000I0J250000D01*
G01*
X141100000Y-117550000D01*
G75*
G02*
X141350000Y-117300000I250000J0D01*
G01*
G37*
G04 #@! TD.AperFunction*
G04 #@! TA.AperFunction,SMDPad,CuDef*
G36*
G01*
X141350000Y-113700000D02*
X142450000Y-113700000D01*
G75*
G02*
X142700000Y-113950000I0J-250000D01*
G01*
X142700000Y-116050000D01*
G75*
G02*
X142450000Y-116300000I-250000J0D01*
G01*
X141350000Y-116300000D01*
G75*
G02*
X141100000Y-116050000I0J250000D01*
G01*
X141100000Y-113950000D01*
G75*
G02*
X141350000Y-113700000I250000J0D01*
G01*
G37*
G04 #@! TD.AperFunction*
G04 #@! TA.AperFunction,SMDPad,CuDef*
G36*
G01*
X153624999Y-117812500D02*
X154475001Y-117812500D01*
G75*
G02*
X154725000Y-118062499I0J-249999D01*
G01*
X154725000Y-119137501D01*
G75*
G02*
X154475001Y-119387500I-249999J0D01*
G01*
X153624999Y-119387500D01*
G75*
G02*
X153375000Y-119137501I0J249999D01*
G01*
X153375000Y-118062499D01*
G75*
G02*
X153624999Y-117812500I249999J0D01*
G01*
G37*
G04 #@! TD.AperFunction*
G04 #@! TA.AperFunction,SMDPad,CuDef*
G36*
G01*
X153624999Y-114937500D02*
X154475001Y-114937500D01*
G75*
G02*
X154725000Y-115187499I0J-249999D01*
G01*
X154725000Y-116262501D01*
G75*
G02*
X154475001Y-116512500I-249999J0D01*
G01*
X153624999Y-116512500D01*
G75*
G02*
X153375000Y-116262501I0J249999D01*
G01*
X153375000Y-115187499D01*
G75*
G02*
X153624999Y-114937500I249999J0D01*
G01*
G37*
G04 #@! TD.AperFunction*
G04 #@! TA.AperFunction,SMDPad,CuDef*
G36*
G01*
X146900000Y-117300000D02*
X148000000Y-117300000D01*
G75*
G02*
X148250000Y-117550000I0J-250000D01*
G01*
X148250000Y-119650000D01*
G75*
G02*
X148000000Y-119900000I-250000J0D01*
G01*
X146900000Y-119900000D01*
G75*
G02*
X146650000Y-119650000I0J250000D01*
G01*
X146650000Y-117550000D01*
G75*
G02*
X146900000Y-117300000I250000J0D01*
G01*
G37*
G04 #@! TD.AperFunction*
G04 #@! TA.AperFunction,SMDPad,CuDef*
G36*
G01*
X146900000Y-113700000D02*
X148000000Y-113700000D01*
G75*
G02*
X148250000Y-113950000I0J-250000D01*
G01*
X148250000Y-116050000D01*
G75*
G02*
X148000000Y-116300000I-250000J0D01*
G01*
X146900000Y-116300000D01*
G75*
G02*
X146650000Y-116050000I0J250000D01*
G01*
X146650000Y-113950000D01*
G75*
G02*
X146900000Y-113700000I250000J0D01*
G01*
G37*
G04 #@! TD.AperFunction*
G04 #@! TA.AperFunction,SMDPad,CuDef*
G36*
G01*
X134974999Y-117812500D02*
X135825001Y-117812500D01*
G75*
G02*
X136075000Y-118062499I0J-249999D01*
G01*
X136075000Y-119137501D01*
G75*
G02*
X135825001Y-119387500I-249999J0D01*
G01*
X134974999Y-119387500D01*
G75*
G02*
X134725000Y-119137501I0J249999D01*
G01*
X134725000Y-118062499D01*
G75*
G02*
X134974999Y-117812500I249999J0D01*
G01*
G37*
G04 #@! TD.AperFunction*
G04 #@! TA.AperFunction,SMDPad,CuDef*
G36*
G01*
X134974999Y-114937500D02*
X135825001Y-114937500D01*
G75*
G02*
X136075000Y-115187499I0J-249999D01*
G01*
X136075000Y-116262501D01*
G75*
G02*
X135825001Y-116512500I-249999J0D01*
G01*
X134974999Y-116512500D01*
G75*
G02*
X134725000Y-116262501I0J249999D01*
G01*
X134725000Y-115187499D01*
G75*
G02*
X134974999Y-114937500I249999J0D01*
G01*
G37*
G04 #@! TD.AperFunction*
G04 #@! TA.AperFunction,SMDPad,CuDef*
G36*
G01*
X150924999Y-117812500D02*
X151775001Y-117812500D01*
G75*
G02*
X152025000Y-118062499I0J-249999D01*
G01*
X152025000Y-119137501D01*
G75*
G02*
X151775001Y-119387500I-249999J0D01*
G01*
X150924999Y-119387500D01*
G75*
G02*
X150675000Y-119137501I0J249999D01*
G01*
X150675000Y-118062499D01*
G75*
G02*
X150924999Y-117812500I249999J0D01*
G01*
G37*
G04 #@! TD.AperFunction*
G04 #@! TA.AperFunction,SMDPad,CuDef*
G36*
G01*
X150924999Y-114937500D02*
X151775001Y-114937500D01*
G75*
G02*
X152025000Y-115187499I0J-249999D01*
G01*
X152025000Y-116262501D01*
G75*
G02*
X151775001Y-116512500I-249999J0D01*
G01*
X150924999Y-116512500D01*
G75*
G02*
X150675000Y-116262501I0J249999D01*
G01*
X150675000Y-115187499D01*
G75*
G02*
X150924999Y-114937500I249999J0D01*
G01*
G37*
G04 #@! TD.AperFunction*
G04 #@! TA.AperFunction,SMDPad,CuDef*
G36*
G01*
X157400000Y-117300000D02*
X158500000Y-117300000D01*
G75*
G02*
X158750000Y-117550000I0J-250000D01*
G01*
X158750000Y-119650000D01*
G75*
G02*
X158500000Y-119900000I-250000J0D01*
G01*
X157400000Y-119900000D01*
G75*
G02*
X157150000Y-119650000I0J250000D01*
G01*
X157150000Y-117550000D01*
G75*
G02*
X157400000Y-117300000I250000J0D01*
G01*
G37*
G04 #@! TD.AperFunction*
G04 #@! TA.AperFunction,SMDPad,CuDef*
G36*
G01*
X157400000Y-113700000D02*
X158500000Y-113700000D01*
G75*
G02*
X158750000Y-113950000I0J-250000D01*
G01*
X158750000Y-116050000D01*
G75*
G02*
X158500000Y-116300000I-250000J0D01*
G01*
X157400000Y-116300000D01*
G75*
G02*
X157150000Y-116050000I0J250000D01*
G01*
X157150000Y-113950000D01*
G75*
G02*
X157400000Y-113700000I250000J0D01*
G01*
G37*
G04 #@! TD.AperFunction*
G04 #@! TA.AperFunction,SMDPad,CuDef*
G36*
G01*
X147925000Y-101487500D02*
X148875000Y-101487500D01*
G75*
G02*
X149125000Y-101737500I0J-250000D01*
G01*
X149125000Y-102412500D01*
G75*
G02*
X148875000Y-102662500I-250000J0D01*
G01*
X147925000Y-102662500D01*
G75*
G02*
X147675000Y-102412500I0J250000D01*
G01*
X147675000Y-101737500D01*
G75*
G02*
X147925000Y-101487500I250000J0D01*
G01*
G37*
G04 #@! TD.AperFunction*
G04 #@! TA.AperFunction,SMDPad,CuDef*
G36*
G01*
X147925000Y-99412500D02*
X148875000Y-99412500D01*
G75*
G02*
X149125000Y-99662500I0J-250000D01*
G01*
X149125000Y-100337500D01*
G75*
G02*
X148875000Y-100587500I-250000J0D01*
G01*
X147925000Y-100587500D01*
G75*
G02*
X147675000Y-100337500I0J250000D01*
G01*
X147675000Y-99662500D01*
G75*
G02*
X147925000Y-99412500I250000J0D01*
G01*
G37*
G04 #@! TD.AperFunction*
G04 #@! TA.AperFunction,SMDPad,CuDef*
G36*
G01*
X136499998Y-102462500D02*
X138700002Y-102462500D01*
G75*
G02*
X138950000Y-102712498I0J-249998D01*
G01*
X138950000Y-103537502D01*
G75*
G02*
X138700002Y-103787500I-249998J0D01*
G01*
X136499998Y-103787500D01*
G75*
G02*
X136250000Y-103537502I0J249998D01*
G01*
X136250000Y-102712498D01*
G75*
G02*
X136499998Y-102462500I249998J0D01*
G01*
G37*
G04 #@! TD.AperFunction*
G04 #@! TA.AperFunction,SMDPad,CuDef*
G36*
G01*
X136499998Y-99337500D02*
X138700002Y-99337500D01*
G75*
G02*
X138950000Y-99587498I0J-249998D01*
G01*
X138950000Y-100412502D01*
G75*
G02*
X138700002Y-100662500I-249998J0D01*
G01*
X136499998Y-100662500D01*
G75*
G02*
X136250000Y-100412502I0J249998D01*
G01*
X136250000Y-99587498D01*
G75*
G02*
X136499998Y-99337500I249998J0D01*
G01*
G37*
G04 #@! TD.AperFunction*
G04 #@! TA.AperFunction,SMDPad,CuDef*
G36*
G01*
X161325000Y-101487500D02*
X162275000Y-101487500D01*
G75*
G02*
X162525000Y-101737500I0J-250000D01*
G01*
X162525000Y-102412500D01*
G75*
G02*
X162275000Y-102662500I-250000J0D01*
G01*
X161325000Y-102662500D01*
G75*
G02*
X161075000Y-102412500I0J250000D01*
G01*
X161075000Y-101737500D01*
G75*
G02*
X161325000Y-101487500I250000J0D01*
G01*
G37*
G04 #@! TD.AperFunction*
G04 #@! TA.AperFunction,SMDPad,CuDef*
G36*
G01*
X161325000Y-99412500D02*
X162275000Y-99412500D01*
G75*
G02*
X162525000Y-99662500I0J-250000D01*
G01*
X162525000Y-100337500D01*
G75*
G02*
X162275000Y-100587500I-250000J0D01*
G01*
X161325000Y-100587500D01*
G75*
G02*
X161075000Y-100337500I0J250000D01*
G01*
X161075000Y-99662500D01*
G75*
G02*
X161325000Y-99412500I250000J0D01*
G01*
G37*
G04 #@! TD.AperFunction*
G04 #@! TA.AperFunction,SMDPad,CuDef*
G36*
G01*
X162275000Y-105587500D02*
X161325000Y-105587500D01*
G75*
G02*
X161075000Y-105337500I0J250000D01*
G01*
X161075000Y-104662500D01*
G75*
G02*
X161325000Y-104412500I250000J0D01*
G01*
X162275000Y-104412500D01*
G75*
G02*
X162525000Y-104662500I0J-250000D01*
G01*
X162525000Y-105337500D01*
G75*
G02*
X162275000Y-105587500I-250000J0D01*
G01*
G37*
G04 #@! TD.AperFunction*
G04 #@! TA.AperFunction,SMDPad,CuDef*
G36*
G01*
X162275000Y-107662500D02*
X161325000Y-107662500D01*
G75*
G02*
X161075000Y-107412500I0J250000D01*
G01*
X161075000Y-106737500D01*
G75*
G02*
X161325000Y-106487500I250000J0D01*
G01*
X162275000Y-106487500D01*
G75*
G02*
X162525000Y-106737500I0J-250000D01*
G01*
X162525000Y-107412500D01*
G75*
G02*
X162275000Y-107662500I-250000J0D01*
G01*
G37*
G04 #@! TD.AperFunction*
G04 #@! TA.AperFunction,SMDPad,CuDef*
G36*
G01*
X182625000Y-100637500D02*
X181675000Y-100637500D01*
G75*
G02*
X181425000Y-100387500I0J250000D01*
G01*
X181425000Y-99712500D01*
G75*
G02*
X181675000Y-99462500I250000J0D01*
G01*
X182625000Y-99462500D01*
G75*
G02*
X182875000Y-99712500I0J-250000D01*
G01*
X182875000Y-100387500D01*
G75*
G02*
X182625000Y-100637500I-250000J0D01*
G01*
G37*
G04 #@! TD.AperFunction*
G04 #@! TA.AperFunction,SMDPad,CuDef*
G36*
G01*
X182625000Y-102712500D02*
X181675000Y-102712500D01*
G75*
G02*
X181425000Y-102462500I0J250000D01*
G01*
X181425000Y-101787500D01*
G75*
G02*
X181675000Y-101537500I250000J0D01*
G01*
X182625000Y-101537500D01*
G75*
G02*
X182875000Y-101787500I0J-250000D01*
G01*
X182875000Y-102462500D01*
G75*
G02*
X182625000Y-102712500I-250000J0D01*
G01*
G37*
G04 #@! TD.AperFunction*
G04 #@! TA.AperFunction,SMDPad,CuDef*
G36*
G01*
X194575000Y-113650000D02*
X196425000Y-113650000D01*
G75*
G02*
X196675000Y-113900000I0J-250000D01*
G01*
X196675000Y-114900000D01*
G75*
G02*
X196425000Y-115150000I-250000J0D01*
G01*
X194575000Y-115150000D01*
G75*
G02*
X194325000Y-114900000I0J250000D01*
G01*
X194325000Y-113900000D01*
G75*
G02*
X194575000Y-113650000I250000J0D01*
G01*
G37*
G04 #@! TD.AperFunction*
G04 #@! TA.AperFunction,SMDPad,CuDef*
G36*
G01*
X194575000Y-110400000D02*
X196425000Y-110400000D01*
G75*
G02*
X196675000Y-110650000I0J-250000D01*
G01*
X196675000Y-111650000D01*
G75*
G02*
X196425000Y-111900000I-250000J0D01*
G01*
X194575000Y-111900000D01*
G75*
G02*
X194325000Y-111650000I0J250000D01*
G01*
X194325000Y-110650000D01*
G75*
G02*
X194575000Y-110400000I250000J0D01*
G01*
G37*
G04 #@! TD.AperFunction*
G04 #@! TA.AperFunction,SMDPad,CuDef*
G36*
G01*
X185175000Y-106487500D02*
X186125000Y-106487500D01*
G75*
G02*
X186375000Y-106737500I0J-250000D01*
G01*
X186375000Y-107412500D01*
G75*
G02*
X186125000Y-107662500I-250000J0D01*
G01*
X185175000Y-107662500D01*
G75*
G02*
X184925000Y-107412500I0J250000D01*
G01*
X184925000Y-106737500D01*
G75*
G02*
X185175000Y-106487500I250000J0D01*
G01*
G37*
G04 #@! TD.AperFunction*
G04 #@! TA.AperFunction,SMDPad,CuDef*
G36*
G01*
X185175000Y-104412500D02*
X186125000Y-104412500D01*
G75*
G02*
X186375000Y-104662500I0J-250000D01*
G01*
X186375000Y-105337500D01*
G75*
G02*
X186125000Y-105587500I-250000J0D01*
G01*
X185175000Y-105587500D01*
G75*
G02*
X184925000Y-105337500I0J250000D01*
G01*
X184925000Y-104662500D01*
G75*
G02*
X185175000Y-104412500I250000J0D01*
G01*
G37*
G04 #@! TD.AperFunction*
G04 #@! TA.AperFunction,SMDPad,CuDef*
G36*
G01*
X168614000Y-104618000D02*
X169714000Y-104618000D01*
G75*
G02*
X169964000Y-104868000I0J-250000D01*
G01*
X169964000Y-106968000D01*
G75*
G02*
X169714000Y-107218000I-250000J0D01*
G01*
X168614000Y-107218000D01*
G75*
G02*
X168364000Y-106968000I0J250000D01*
G01*
X168364000Y-104868000D01*
G75*
G02*
X168614000Y-104618000I250000J0D01*
G01*
G37*
G04 #@! TD.AperFunction*
G04 #@! TA.AperFunction,SMDPad,CuDef*
G36*
G01*
X168614000Y-101018000D02*
X169714000Y-101018000D01*
G75*
G02*
X169964000Y-101268000I0J-250000D01*
G01*
X169964000Y-103368000D01*
G75*
G02*
X169714000Y-103618000I-250000J0D01*
G01*
X168614000Y-103618000D01*
G75*
G02*
X168364000Y-103368000I0J250000D01*
G01*
X168364000Y-101268000D01*
G75*
G02*
X168614000Y-101018000I250000J0D01*
G01*
G37*
G04 #@! TD.AperFunction*
G04 #@! TA.AperFunction,SMDPad,CuDef*
G36*
G01*
X203275000Y-112187500D02*
X202325000Y-112187500D01*
G75*
G02*
X202075000Y-111937500I0J250000D01*
G01*
X202075000Y-111262500D01*
G75*
G02*
X202325000Y-111012500I250000J0D01*
G01*
X203275000Y-111012500D01*
G75*
G02*
X203525000Y-111262500I0J-250000D01*
G01*
X203525000Y-111937500D01*
G75*
G02*
X203275000Y-112187500I-250000J0D01*
G01*
G37*
G04 #@! TD.AperFunction*
G04 #@! TA.AperFunction,SMDPad,CuDef*
G36*
G01*
X203275000Y-114262500D02*
X202325000Y-114262500D01*
G75*
G02*
X202075000Y-114012500I0J250000D01*
G01*
X202075000Y-113337500D01*
G75*
G02*
X202325000Y-113087500I250000J0D01*
G01*
X203275000Y-113087500D01*
G75*
G02*
X203525000Y-113337500I0J-250000D01*
G01*
X203525000Y-114012500D01*
G75*
G02*
X203275000Y-114262500I-250000J0D01*
G01*
G37*
G04 #@! TD.AperFunction*
G04 #@! TA.AperFunction,SMDPad,CuDef*
G36*
G01*
X189675000Y-100637500D02*
X188725000Y-100637500D01*
G75*
G02*
X188475000Y-100387500I0J250000D01*
G01*
X188475000Y-99712500D01*
G75*
G02*
X188725000Y-99462500I250000J0D01*
G01*
X189675000Y-99462500D01*
G75*
G02*
X189925000Y-99712500I0J-250000D01*
G01*
X189925000Y-100387500D01*
G75*
G02*
X189675000Y-100637500I-250000J0D01*
G01*
G37*
G04 #@! TD.AperFunction*
G04 #@! TA.AperFunction,SMDPad,CuDef*
G36*
G01*
X189675000Y-102712500D02*
X188725000Y-102712500D01*
G75*
G02*
X188475000Y-102462500I0J250000D01*
G01*
X188475000Y-101787500D01*
G75*
G02*
X188725000Y-101537500I250000J0D01*
G01*
X189675000Y-101537500D01*
G75*
G02*
X189925000Y-101787500I0J-250000D01*
G01*
X189925000Y-102462500D01*
G75*
G02*
X189675000Y-102712500I-250000J0D01*
G01*
G37*
G04 #@! TD.AperFunction*
G04 #@! TA.AperFunction,SMDPad,CuDef*
G36*
G01*
X202325000Y-106487500D02*
X203275000Y-106487500D01*
G75*
G02*
X203525000Y-106737500I0J-250000D01*
G01*
X203525000Y-107412500D01*
G75*
G02*
X203275000Y-107662500I-250000J0D01*
G01*
X202325000Y-107662500D01*
G75*
G02*
X202075000Y-107412500I0J250000D01*
G01*
X202075000Y-106737500D01*
G75*
G02*
X202325000Y-106487500I250000J0D01*
G01*
G37*
G04 #@! TD.AperFunction*
G04 #@! TA.AperFunction,SMDPad,CuDef*
G36*
G01*
X202325000Y-104412500D02*
X203275000Y-104412500D01*
G75*
G02*
X203525000Y-104662500I0J-250000D01*
G01*
X203525000Y-105337500D01*
G75*
G02*
X203275000Y-105587500I-250000J0D01*
G01*
X202325000Y-105587500D01*
G75*
G02*
X202075000Y-105337500I0J250000D01*
G01*
X202075000Y-104662500D01*
G75*
G02*
X202325000Y-104412500I250000J0D01*
G01*
G37*
G04 #@! TD.AperFunction*
G04 #@! TA.AperFunction,SMDPad,CuDef*
G36*
G01*
X193350002Y-105662500D02*
X192049998Y-105662500D01*
G75*
G02*
X191800000Y-105412502I0J249998D01*
G01*
X191800000Y-104587498D01*
G75*
G02*
X192049998Y-104337500I249998J0D01*
G01*
X193350002Y-104337500D01*
G75*
G02*
X193600000Y-104587498I0J-249998D01*
G01*
X193600000Y-105412502D01*
G75*
G02*
X193350002Y-105662500I-249998J0D01*
G01*
G37*
G04 #@! TD.AperFunction*
G04 #@! TA.AperFunction,SMDPad,CuDef*
G36*
G01*
X193350002Y-108787500D02*
X192049998Y-108787500D01*
G75*
G02*
X191800000Y-108537502I0J249998D01*
G01*
X191800000Y-107712498D01*
G75*
G02*
X192049998Y-107462500I249998J0D01*
G01*
X193350002Y-107462500D01*
G75*
G02*
X193600000Y-107712498I0J-249998D01*
G01*
X193600000Y-108537502D01*
G75*
G02*
X193350002Y-108787500I-249998J0D01*
G01*
G37*
G04 #@! TD.AperFunction*
G04 #@! TA.AperFunction,SMDPad,CuDef*
G36*
G01*
X189450000Y-113100000D02*
X190550000Y-113100000D01*
G75*
G02*
X190800000Y-113350000I0J-250000D01*
G01*
X190800000Y-115450000D01*
G75*
G02*
X190550000Y-115700000I-250000J0D01*
G01*
X189450000Y-115700000D01*
G75*
G02*
X189200000Y-115450000I0J250000D01*
G01*
X189200000Y-113350000D01*
G75*
G02*
X189450000Y-113100000I250000J0D01*
G01*
G37*
G04 #@! TD.AperFunction*
G04 #@! TA.AperFunction,SMDPad,CuDef*
G36*
G01*
X189450000Y-109500000D02*
X190550000Y-109500000D01*
G75*
G02*
X190800000Y-109750000I0J-250000D01*
G01*
X190800000Y-111850000D01*
G75*
G02*
X190550000Y-112100000I-250000J0D01*
G01*
X189450000Y-112100000D01*
G75*
G02*
X189200000Y-111850000I0J250000D01*
G01*
X189200000Y-109750000D01*
G75*
G02*
X189450000Y-109500000I250000J0D01*
G01*
G37*
G04 #@! TD.AperFunction*
G04 #@! TA.AperFunction,SMDPad,CuDef*
G36*
G01*
X183250000Y-113100000D02*
X184350000Y-113100000D01*
G75*
G02*
X184600000Y-113350000I0J-250000D01*
G01*
X184600000Y-115450000D01*
G75*
G02*
X184350000Y-115700000I-250000J0D01*
G01*
X183250000Y-115700000D01*
G75*
G02*
X183000000Y-115450000I0J250000D01*
G01*
X183000000Y-113350000D01*
G75*
G02*
X183250000Y-113100000I250000J0D01*
G01*
G37*
G04 #@! TD.AperFunction*
G04 #@! TA.AperFunction,SMDPad,CuDef*
G36*
G01*
X183250000Y-109500000D02*
X184350000Y-109500000D01*
G75*
G02*
X184600000Y-109750000I0J-250000D01*
G01*
X184600000Y-111850000D01*
G75*
G02*
X184350000Y-112100000I-250000J0D01*
G01*
X183250000Y-112100000D01*
G75*
G02*
X183000000Y-111850000I0J250000D01*
G01*
X183000000Y-109750000D01*
G75*
G02*
X183250000Y-109500000I250000J0D01*
G01*
G37*
G04 #@! TD.AperFunction*
G04 #@! TA.AperFunction,SMDPad,CuDef*
G36*
G01*
X196950002Y-105662500D02*
X195649998Y-105662500D01*
G75*
G02*
X195400000Y-105412502I0J249998D01*
G01*
X195400000Y-104587498D01*
G75*
G02*
X195649998Y-104337500I249998J0D01*
G01*
X196950002Y-104337500D01*
G75*
G02*
X197200000Y-104587498I0J-249998D01*
G01*
X197200000Y-105412502D01*
G75*
G02*
X196950002Y-105662500I-249998J0D01*
G01*
G37*
G04 #@! TD.AperFunction*
G04 #@! TA.AperFunction,SMDPad,CuDef*
G36*
G01*
X196950002Y-108787500D02*
X195649998Y-108787500D01*
G75*
G02*
X195400000Y-108537502I0J249998D01*
G01*
X195400000Y-107712498D01*
G75*
G02*
X195649998Y-107462500I249998J0D01*
G01*
X196950002Y-107462500D01*
G75*
G02*
X197200000Y-107712498I0J-249998D01*
G01*
X197200000Y-108537502D01*
G75*
G02*
X196950002Y-108787500I-249998J0D01*
G01*
G37*
G04 #@! TD.AperFunction*
G04 #@! TA.AperFunction,SMDPad,CuDef*
G36*
G01*
X168599998Y-112462500D02*
X169900002Y-112462500D01*
G75*
G02*
X170150000Y-112712498I0J-249998D01*
G01*
X170150000Y-113537502D01*
G75*
G02*
X169900002Y-113787500I-249998J0D01*
G01*
X168599998Y-113787500D01*
G75*
G02*
X168350000Y-113537502I0J249998D01*
G01*
X168350000Y-112712498D01*
G75*
G02*
X168599998Y-112462500I249998J0D01*
G01*
G37*
G04 #@! TD.AperFunction*
G04 #@! TA.AperFunction,SMDPad,CuDef*
G36*
G01*
X168599998Y-109337500D02*
X169900002Y-109337500D01*
G75*
G02*
X170150000Y-109587498I0J-249998D01*
G01*
X170150000Y-110412502D01*
G75*
G02*
X169900002Y-110662500I-249998J0D01*
G01*
X168599998Y-110662500D01*
G75*
G02*
X168350000Y-110412502I0J249998D01*
G01*
X168350000Y-109587498D01*
G75*
G02*
X168599998Y-109337500I249998J0D01*
G01*
G37*
G04 #@! TD.AperFunction*
G04 #@! TA.AperFunction,SMDPad,CuDef*
G36*
G01*
X176450000Y-112900000D02*
X177550000Y-112900000D01*
G75*
G02*
X177800000Y-113150000I0J-250000D01*
G01*
X177800000Y-115650000D01*
G75*
G02*
X177550000Y-115900000I-250000J0D01*
G01*
X176450000Y-115900000D01*
G75*
G02*
X176200000Y-115650000I0J250000D01*
G01*
X176200000Y-113150000D01*
G75*
G02*
X176450000Y-112900000I250000J0D01*
G01*
G37*
G04 #@! TD.AperFunction*
G04 #@! TA.AperFunction,SMDPad,CuDef*
G36*
G01*
X176450000Y-108500000D02*
X177550000Y-108500000D01*
G75*
G02*
X177800000Y-108750000I0J-250000D01*
G01*
X177800000Y-111250000D01*
G75*
G02*
X177550000Y-111500000I-250000J0D01*
G01*
X176450000Y-111500000D01*
G75*
G02*
X176200000Y-111250000I0J250000D01*
G01*
X176200000Y-108750000D01*
G75*
G02*
X176450000Y-108500000I250000J0D01*
G01*
G37*
G04 #@! TD.AperFunction*
G04 #@! TA.AperFunction,SMDPad,CuDef*
G36*
G01*
X166075000Y-117112500D02*
X165125000Y-117112500D01*
G75*
G02*
X164875000Y-116862500I0J250000D01*
G01*
X164875000Y-116187500D01*
G75*
G02*
X165125000Y-115937500I250000J0D01*
G01*
X166075000Y-115937500D01*
G75*
G02*
X166325000Y-116187500I0J-250000D01*
G01*
X166325000Y-116862500D01*
G75*
G02*
X166075000Y-117112500I-250000J0D01*
G01*
G37*
G04 #@! TD.AperFunction*
G04 #@! TA.AperFunction,SMDPad,CuDef*
G36*
G01*
X166075000Y-119187500D02*
X165125000Y-119187500D01*
G75*
G02*
X164875000Y-118937500I0J250000D01*
G01*
X164875000Y-118262500D01*
G75*
G02*
X165125000Y-118012500I250000J0D01*
G01*
X166075000Y-118012500D01*
G75*
G02*
X166325000Y-118262500I0J-250000D01*
G01*
X166325000Y-118937500D01*
G75*
G02*
X166075000Y-119187500I-250000J0D01*
G01*
G37*
G04 #@! TD.AperFunction*
G04 #@! TA.AperFunction,SMDPad,CuDef*
G36*
G01*
X168725000Y-122500000D02*
X169675000Y-122500000D01*
G75*
G02*
X169925000Y-122750000I0J-250000D01*
G01*
X169925000Y-123425000D01*
G75*
G02*
X169675000Y-123675000I-250000J0D01*
G01*
X168725000Y-123675000D01*
G75*
G02*
X168475000Y-123425000I0J250000D01*
G01*
X168475000Y-122750000D01*
G75*
G02*
X168725000Y-122500000I250000J0D01*
G01*
G37*
G04 #@! TD.AperFunction*
G04 #@! TA.AperFunction,SMDPad,CuDef*
G36*
G01*
X168725000Y-120425000D02*
X169675000Y-120425000D01*
G75*
G02*
X169925000Y-120675000I0J-250000D01*
G01*
X169925000Y-121350000D01*
G75*
G02*
X169675000Y-121600000I-250000J0D01*
G01*
X168725000Y-121600000D01*
G75*
G02*
X168475000Y-121350000I0J250000D01*
G01*
X168475000Y-120675000D01*
G75*
G02*
X168725000Y-120425000I250000J0D01*
G01*
G37*
G04 #@! TD.AperFunction*
D12*
X172075000Y-113125000D03*
X148900000Y-123200000D03*
X167200000Y-111100000D03*
X146800000Y-98200000D03*
X133600000Y-117000000D03*
X174360001Y-124039999D03*
X198000000Y-98300000D03*
X187500000Y-98300000D03*
X175200000Y-118700002D03*
X206400000Y-103000000D03*
X206400000Y-117000000D03*
X133600000Y-103000000D03*
X175700000Y-98199990D03*
X205600000Y-110500000D03*
X179299999Y-120400001D03*
X166912816Y-108451577D03*
X167200000Y-113100000D03*
X205600000Y-108200000D03*
X179000004Y-110300000D03*
X171100000Y-110000000D03*
X200700000Y-109500000D03*
X186400000Y-114900000D03*
X181500000Y-111400000D03*
X179100000Y-108800000D03*
X180400000Y-106500000D03*
X171000000Y-100800000D03*
X180400000Y-105100022D03*
X166900000Y-105800000D03*
X166900004Y-107100000D03*
X163499994Y-103400000D03*
X161700000Y-116500000D03*
X155499990Y-108900000D03*
X177100002Y-105000000D03*
X173575392Y-113700003D03*
X169000000Y-99418990D03*
X143099999Y-103400001D03*
X167400000Y-100800000D03*
X146800000Y-103399998D03*
X150300000Y-103400000D03*
X152300000Y-113200000D03*
X146900000Y-108500000D03*
X155600006Y-113900000D03*
X158600000Y-108100000D03*
X159699996Y-113700000D03*
X159200000Y-112000000D03*
X172100000Y-107600000D03*
X172988247Y-116192763D03*
D13*
X172700000Y-112000000D02*
X172700000Y-112500000D01*
X172075000Y-113125000D02*
X169250000Y-113125000D01*
X172700000Y-112500000D02*
X172075000Y-113125000D01*
X173750000Y-112000000D02*
X172700000Y-112000000D01*
X153050000Y-100000000D02*
X157650000Y-100000000D01*
X148400000Y-100000000D02*
X145000000Y-100000000D01*
X145000000Y-100000000D02*
X137600000Y-100000000D01*
X153050000Y-100000000D02*
X152987999Y-99937999D01*
X148462001Y-99937999D02*
X148400000Y-100000000D01*
X152987999Y-99937999D02*
X148462001Y-99937999D01*
X163200000Y-113600000D02*
X164700000Y-113600000D01*
X164700000Y-113600000D02*
X167200000Y-111100000D01*
X157650000Y-100000000D02*
X161800000Y-100000000D01*
X162362009Y-98237991D02*
X162362009Y-98237991D01*
X161800000Y-98800000D02*
X162400001Y-98199999D01*
X161800000Y-100000000D02*
X161800000Y-98800000D01*
D14*
X182150000Y-100050000D02*
X185650000Y-100050000D01*
X185650000Y-100050000D02*
X189200000Y-100050000D01*
X189200000Y-100050000D02*
X192700000Y-100050000D01*
X192700000Y-100050000D02*
X196300000Y-100050000D01*
X196300000Y-100050000D02*
X199650000Y-100050000D01*
D13*
X170152499Y-124039999D02*
X174360001Y-124039999D01*
X178220001Y-124039999D02*
X179070000Y-123190000D01*
X169200000Y-123087500D02*
X170152499Y-124039999D01*
X174360001Y-124039999D02*
X178220001Y-124039999D01*
X165100000Y-113600000D02*
X163200000Y-113600000D01*
X165600000Y-116525000D02*
X165600000Y-114100000D01*
X165600000Y-114100000D02*
X165100000Y-113600000D01*
X167300000Y-111100000D02*
X167200000Y-111100000D01*
X169250000Y-113125000D02*
X169250000Y-113050000D01*
X169250000Y-113050000D02*
X167300000Y-111100000D01*
X184941656Y-121500000D02*
X180760000Y-121500000D01*
X186690000Y-123190000D02*
X186631656Y-123190000D01*
X186631656Y-123190000D02*
X184941656Y-121500000D01*
X180760000Y-121500000D02*
X179070000Y-123190000D01*
X174900000Y-110850000D02*
X173750000Y-112000000D01*
X174600000Y-112000000D02*
X173750000Y-112000000D01*
X177000000Y-114400000D02*
X174600000Y-112000000D01*
X174900000Y-111700000D02*
X174600000Y-112000000D01*
X174900000Y-110850000D02*
X174900000Y-111700000D01*
X177000000Y-114400000D02*
X177000000Y-116900002D01*
X177000000Y-116900002D02*
X175200000Y-118700002D01*
X175638000Y-107692000D02*
X174900000Y-108430000D01*
X174900000Y-108430000D02*
X174900000Y-110850000D01*
D14*
X133600000Y-101400000D02*
X133600000Y-103000000D01*
X137600000Y-100000000D02*
X135000000Y-100000000D01*
X135000000Y-100000000D02*
X133600000Y-101400000D01*
D13*
X162400001Y-98199999D02*
X175699991Y-98199999D01*
X175699991Y-98199999D02*
X175700000Y-98199990D01*
D14*
X182150000Y-100050000D02*
X178800004Y-100050000D01*
X176950004Y-98200000D02*
X175800008Y-98200000D01*
X178800004Y-100050000D02*
X176950004Y-98200000D01*
D13*
X173800000Y-100000000D02*
X175400000Y-100000000D01*
X175700000Y-99700000D02*
X175700000Y-98199990D01*
X175400000Y-100000000D02*
X175700000Y-99700000D01*
X167887500Y-121000000D02*
X167900000Y-121012500D01*
X143500000Y-121800000D02*
X144300000Y-121000000D01*
X144300000Y-121000000D02*
X167887500Y-121000000D01*
X143510000Y-123190000D02*
X143500000Y-123180000D01*
X143500000Y-123180000D02*
X143500000Y-121800000D01*
X169187500Y-121000000D02*
X169200000Y-121012500D01*
X167887500Y-121000000D02*
X169187500Y-121000000D01*
D15*
X179600000Y-120100000D02*
X179299999Y-120400001D01*
X186800000Y-120100000D02*
X179600000Y-120100000D01*
X190100000Y-116800000D02*
X186800000Y-120100000D01*
X204000000Y-116800000D02*
X190100000Y-116800000D01*
X205600000Y-110500000D02*
X205600000Y-115200000D01*
X205600000Y-115200000D02*
X204000000Y-116800000D01*
X177800000Y-121900000D02*
X179299999Y-120400001D01*
X171800000Y-121900000D02*
X177800000Y-121900000D01*
X169200000Y-121012500D02*
X169287500Y-121100000D01*
X171000000Y-121100000D02*
X171800000Y-121900000D01*
X169287500Y-121100000D02*
X171000000Y-121100000D01*
X167248423Y-108451577D02*
X166912816Y-108451577D01*
X169164000Y-105918000D02*
X169164000Y-106536000D01*
X169164000Y-106536000D02*
X167248423Y-108451577D01*
D13*
X135400000Y-118600000D02*
X137950000Y-118600000D01*
X137950000Y-118600000D02*
X141900000Y-118600000D01*
X141900000Y-118600000D02*
X147450000Y-118600000D01*
X147450000Y-118600000D02*
X151350000Y-118600000D01*
X151350000Y-118600000D02*
X154050000Y-118600000D01*
X154050000Y-118600000D02*
X157950000Y-118600000D01*
X157950000Y-118600000D02*
X162400000Y-118600000D01*
X141000000Y-123160000D02*
X140970000Y-123190000D01*
X141000000Y-121700000D02*
X141000000Y-123160000D01*
X141900000Y-118600000D02*
X141900000Y-120800000D01*
X141900000Y-120800000D02*
X141000000Y-121700000D01*
X162400000Y-118600000D02*
X165600000Y-118600000D01*
X166325000Y-118600000D02*
X165600000Y-118600000D01*
X167200000Y-117725000D02*
X166325000Y-118600000D01*
X167200000Y-113100000D02*
X167200000Y-117725000D01*
X195500000Y-114400000D02*
X190000000Y-114400000D01*
X167200000Y-117725000D02*
X167200000Y-117800000D01*
X165600000Y-118600000D02*
X168000000Y-118600000D01*
X167200000Y-117800000D02*
X168000000Y-118600000D01*
X168000000Y-118600000D02*
X169200000Y-118600000D01*
D15*
X205600000Y-108200000D02*
X204600001Y-109199999D01*
X196600000Y-115500000D02*
X195500000Y-114400000D01*
X204600001Y-109199999D02*
X204600001Y-114399999D01*
X204600001Y-114399999D02*
X203500000Y-115500000D01*
X203500000Y-115500000D02*
X196600000Y-115500000D01*
D13*
X172978021Y-120678021D02*
X170900000Y-118600000D01*
X177121979Y-120678021D02*
X172978021Y-120678021D01*
X170900000Y-118600000D02*
X169200000Y-118600000D01*
X190000000Y-114400000D02*
X185700000Y-118700000D01*
X179100000Y-118700000D02*
X177121979Y-120678021D01*
X185700000Y-118700000D02*
X179100000Y-118700000D01*
D14*
X178700004Y-110000000D02*
X179000004Y-110300000D01*
X177000000Y-110000000D02*
X178700004Y-110000000D01*
X169250000Y-110000000D02*
X171100000Y-110000000D01*
X171100000Y-110000000D02*
X172700000Y-110000000D01*
X196300000Y-102050000D02*
X196300000Y-105000000D01*
X196300000Y-105000000D02*
X199650000Y-105000000D01*
X202800000Y-105000000D02*
X199650000Y-105000000D01*
X201481002Y-106318998D02*
X202800000Y-105000000D01*
X200350000Y-111600000D02*
X201481002Y-110468998D01*
X199650000Y-111600000D02*
X200350000Y-111600000D01*
X201481002Y-110468998D02*
X201481002Y-106318998D01*
X192700000Y-108125000D02*
X196300000Y-108125000D01*
X198525000Y-108125000D02*
X199650000Y-107000000D01*
X196300000Y-108125000D02*
X198525000Y-108125000D01*
X192625000Y-108200000D02*
X192700000Y-108125000D01*
X185650000Y-107075000D02*
X186775000Y-108200000D01*
X186775000Y-108200000D02*
X192625000Y-108200000D01*
X199650000Y-108450000D02*
X200700000Y-109500000D01*
X199650000Y-107000000D02*
X199650000Y-108450000D01*
X163800000Y-109400000D02*
X163200000Y-110000000D01*
X167400000Y-109400000D02*
X163800000Y-109400000D01*
X168200000Y-108600000D02*
X167400000Y-109400000D01*
X172800000Y-108600000D02*
X168200000Y-108600000D01*
X173800000Y-107000000D02*
X173800000Y-107600000D01*
X173800000Y-107600000D02*
X172800000Y-108600000D01*
X185900000Y-114400000D02*
X186400000Y-114900000D01*
X183800000Y-114400000D02*
X185900000Y-114400000D01*
X183200000Y-111400000D02*
X183800000Y-110800000D01*
X181500000Y-111400000D02*
X183200000Y-111400000D01*
X189500000Y-110100000D02*
X189500000Y-110800000D01*
X189900000Y-110800000D02*
X189500000Y-110800000D01*
X180200000Y-109900000D02*
X179100000Y-108800000D01*
X181300000Y-112700000D02*
X180200000Y-111600000D01*
X180200000Y-111600000D02*
X180200000Y-109900000D01*
X190000000Y-110800000D02*
X188900000Y-110800000D01*
X187000000Y-112700000D02*
X181300000Y-112700000D01*
X188900000Y-110800000D02*
X187000000Y-112700000D01*
X192700000Y-102050000D02*
X192700000Y-105000000D01*
X191200000Y-105000000D02*
X189200000Y-107000000D01*
X192700000Y-105000000D02*
X191200000Y-105000000D01*
X204100000Y-106200000D02*
X203225000Y-107075000D01*
X203225000Y-107075000D02*
X202800000Y-107075000D01*
X204100000Y-103400000D02*
X204100000Y-106200000D01*
X199650000Y-102050000D02*
X202750000Y-102050000D01*
X202750000Y-102050000D02*
X204100000Y-103400000D01*
X202800000Y-107075000D02*
X202800000Y-111600000D01*
X189200000Y-102125000D02*
X189200000Y-105000000D01*
X181300000Y-108200000D02*
X180400000Y-107300000D01*
X184996193Y-106000000D02*
X182796193Y-108200000D01*
X189200000Y-105000000D02*
X188200000Y-106000000D01*
X180400000Y-107300000D02*
X180400000Y-106500000D01*
X182796193Y-108200000D02*
X181300000Y-108200000D01*
X188200000Y-106000000D02*
X184996193Y-106000000D01*
X170682000Y-100800000D02*
X171000000Y-100800000D01*
X169164000Y-102318000D02*
X170682000Y-100800000D01*
X185650000Y-102050000D02*
X185650000Y-105000000D01*
X184200000Y-105000000D02*
X185650000Y-105000000D01*
X182150000Y-107050000D02*
X184200000Y-105000000D01*
X193400000Y-111150000D02*
X195500000Y-111150000D01*
X178650000Y-107000000D02*
X180450000Y-108800000D01*
X191050000Y-108800000D02*
X193400000Y-111150000D01*
X180450000Y-108800000D02*
X191050000Y-108800000D01*
X182150000Y-102125000D02*
X182150000Y-105050000D01*
X182150000Y-102125000D02*
X181975000Y-102125000D01*
X182150000Y-105050000D02*
X180450022Y-105050000D01*
X180450022Y-105050000D02*
X180400000Y-105100022D01*
X161800000Y-105000000D02*
X165000000Y-105000000D01*
X165000000Y-105000000D02*
X166100000Y-105000000D01*
X166100000Y-105000000D02*
X166900000Y-105800000D01*
X164925000Y-107075000D02*
X165000000Y-107000000D01*
X161800000Y-107075000D02*
X164925000Y-107075000D01*
X166800004Y-107000000D02*
X166900004Y-107100000D01*
X165000000Y-107000000D02*
X166800004Y-107000000D01*
X164925000Y-102075000D02*
X165000000Y-102000000D01*
X161800000Y-102075000D02*
X164925000Y-102075000D01*
X137600000Y-103125000D02*
X137600000Y-105500000D01*
X139100000Y-107000000D02*
X141500000Y-107000000D01*
X137600000Y-105500000D02*
X139100000Y-107000000D01*
X145000000Y-105000000D02*
X145000000Y-103125000D01*
X148400000Y-102075000D02*
X148400000Y-105000000D01*
X160499986Y-114400014D02*
X160499986Y-104334329D01*
X160499986Y-104334329D02*
X161434315Y-103400000D01*
X161434315Y-103400000D02*
X163499994Y-103400000D01*
X159900000Y-115000000D02*
X160499986Y-114400014D01*
X157950000Y-115000000D02*
X159900000Y-115000000D01*
X150790000Y-115165000D02*
X151350000Y-115725000D01*
X150790000Y-112000000D02*
X150790000Y-115165000D01*
X135400000Y-112000000D02*
X135400000Y-115725000D01*
X161400000Y-116800000D02*
X161700000Y-116500000D01*
X156100000Y-116800000D02*
X161400000Y-116800000D01*
X155700000Y-117200000D02*
X156100000Y-116800000D01*
X147450000Y-115000000D02*
X149650000Y-117200000D01*
X149650000Y-117200000D02*
X155700000Y-117200000D01*
X154050000Y-112000000D02*
X154050000Y-115725000D01*
X138640000Y-115035000D02*
X137950000Y-115725000D01*
X138640000Y-112000000D02*
X138640000Y-115035000D01*
X153100000Y-103175000D02*
X153050000Y-103125000D01*
X153100000Y-105000000D02*
X153100000Y-103175000D01*
X150100000Y-108500000D02*
X155099990Y-108500000D01*
X155099990Y-108500000D02*
X155499990Y-108900000D01*
X141900000Y-115000000D02*
X143600000Y-115000000D01*
X143600000Y-115000000D02*
X150100000Y-108500000D01*
X158105882Y-104050000D02*
X157250000Y-104050000D01*
X159500000Y-105444118D02*
X158105882Y-104050000D01*
X159500000Y-108900000D02*
X159500000Y-105444118D01*
X157700000Y-110000000D02*
X158400000Y-110000000D01*
X158400000Y-110000000D02*
X159500000Y-108900000D01*
X194310000Y-123190000D02*
X194710000Y-123190000D01*
X178650000Y-105000000D02*
X177100002Y-105000000D01*
X172700000Y-114575395D02*
X173575392Y-113700003D01*
X170675395Y-116600000D02*
X169200000Y-116600000D01*
X173575392Y-113700003D02*
X170675395Y-116600000D01*
X165700000Y-100000000D02*
X166281010Y-99418990D01*
X166281010Y-99418990D02*
X169000000Y-99418990D01*
X165000000Y-100000000D02*
X165700000Y-100000000D01*
X141500000Y-105000000D02*
X143099999Y-103400001D01*
X173700000Y-102000000D02*
X173800000Y-102000000D01*
X171300000Y-99600000D02*
X173700000Y-102000000D01*
X170100000Y-99600000D02*
X171300000Y-99600000D01*
X169400000Y-100300000D02*
X170100000Y-99600000D01*
X167400000Y-100800000D02*
X167900000Y-100300000D01*
X167900000Y-100300000D02*
X169400000Y-100300000D01*
X146800000Y-105200000D02*
X146800000Y-103399998D01*
X145000000Y-107000000D02*
X146800000Y-105200000D01*
X148400000Y-107000000D02*
X150300000Y-105100000D01*
X150300000Y-105100000D02*
X150300000Y-103400000D01*
X152300000Y-111510000D02*
X152300000Y-113200000D01*
X150790000Y-110000000D02*
X152300000Y-111510000D01*
X135400000Y-110000000D02*
X136900000Y-108500000D01*
X136900000Y-108500000D02*
X146900000Y-108500000D01*
X154050000Y-109850000D02*
X154050000Y-110000000D01*
X155600006Y-111550006D02*
X155600006Y-113900000D01*
X154050000Y-110000000D02*
X155600006Y-111550006D01*
X156518990Y-106018990D02*
X158600000Y-108100000D01*
X151475805Y-106018990D02*
X156518990Y-106018990D01*
X138640000Y-110000000D02*
X147494795Y-110000000D01*
X147494795Y-110000000D02*
X151475805Y-106018990D01*
X159099996Y-113100000D02*
X159699996Y-113700000D01*
X157000000Y-113100000D02*
X159099996Y-113100000D01*
X156400000Y-112500000D02*
X157000000Y-113100000D01*
X156400000Y-108200000D02*
X156400000Y-112500000D01*
X155200000Y-107000000D02*
X156400000Y-108200000D01*
X153100000Y-107000000D02*
X155200000Y-107000000D01*
X157700000Y-112000000D02*
X159200000Y-112000000D01*
X172100000Y-106700000D02*
X173800000Y-105000000D01*
X172100000Y-107600000D02*
X172100000Y-106700000D01*
X199725000Y-113675000D02*
X199650000Y-113600000D01*
X202800000Y-113675000D02*
X199725000Y-113675000D01*
X174200000Y-119600000D02*
X172988247Y-118388247D01*
X176300000Y-119600000D02*
X174200000Y-119600000D01*
X178400000Y-117500000D02*
X176300000Y-119600000D01*
X198768990Y-112718990D02*
X189188624Y-112718990D01*
X199650000Y-113600000D02*
X198768990Y-112718990D01*
X188200000Y-113707614D02*
X188200000Y-114600000D01*
X172988247Y-118388247D02*
X172988247Y-116192763D01*
X189188624Y-112718990D02*
X188200000Y-113707614D01*
X185300000Y-117500000D02*
X178400000Y-117500000D01*
X188200000Y-114600000D02*
X185300000Y-117500000D01*
X207315000Y-124315000D02*
X205433518Y-124315000D01*
X205470269Y-124287588D01*
X205665178Y-124071355D01*
X205814157Y-123821252D01*
X205911481Y-123546891D01*
X205790814Y-123317000D01*
X204597000Y-123317000D01*
X204597000Y-123337000D01*
X204343000Y-123337000D01*
X204343000Y-123317000D01*
X204323000Y-123317000D01*
X204323000Y-123063000D01*
X204343000Y-123063000D01*
X204343000Y-121869845D01*
X204597000Y-121869845D01*
X204597000Y-123063000D01*
X205790814Y-123063000D01*
X205911481Y-122833109D01*
X205814157Y-122558748D01*
X205665178Y-122308645D01*
X205470269Y-122092412D01*
X205236920Y-121918359D01*
X204974099Y-121793175D01*
X204826890Y-121748524D01*
X204597000Y-121869845D01*
X204343000Y-121869845D01*
X204113110Y-121748524D01*
X203965901Y-121793175D01*
X203703080Y-121918359D01*
X203469731Y-122092412D01*
X203274822Y-122308645D01*
X203205195Y-122425534D01*
X203083475Y-122243368D01*
X202876632Y-122036525D01*
X202633411Y-121874010D01*
X202363158Y-121762068D01*
X202076260Y-121705000D01*
X201783740Y-121705000D01*
X201496842Y-121762068D01*
X201226589Y-121874010D01*
X200983368Y-122036525D01*
X200776525Y-122243368D01*
X200660000Y-122417760D01*
X200543475Y-122243368D01*
X200336632Y-122036525D01*
X200093411Y-121874010D01*
X199823158Y-121762068D01*
X199536260Y-121705000D01*
X199243740Y-121705000D01*
X198956842Y-121762068D01*
X198686589Y-121874010D01*
X198443368Y-122036525D01*
X198236525Y-122243368D01*
X198120000Y-122417760D01*
X198003475Y-122243368D01*
X197796632Y-122036525D01*
X197553411Y-121874010D01*
X197283158Y-121762068D01*
X196996260Y-121705000D01*
X196703740Y-121705000D01*
X196416842Y-121762068D01*
X196146589Y-121874010D01*
X195903368Y-122036525D01*
X195696525Y-122243368D01*
X195580000Y-122417760D01*
X195463475Y-122243368D01*
X195256632Y-122036525D01*
X195013411Y-121874010D01*
X194743158Y-121762068D01*
X194456260Y-121705000D01*
X194163740Y-121705000D01*
X193876842Y-121762068D01*
X193606589Y-121874010D01*
X193363368Y-122036525D01*
X193156525Y-122243368D01*
X193040000Y-122417760D01*
X192923475Y-122243368D01*
X192716632Y-122036525D01*
X192473411Y-121874010D01*
X192203158Y-121762068D01*
X191916260Y-121705000D01*
X191623740Y-121705000D01*
X191336842Y-121762068D01*
X191066589Y-121874010D01*
X190823368Y-122036525D01*
X190616525Y-122243368D01*
X190500000Y-122417760D01*
X190383475Y-122243368D01*
X190176632Y-122036525D01*
X189933411Y-121874010D01*
X189663158Y-121762068D01*
X189376260Y-121705000D01*
X189083740Y-121705000D01*
X188796842Y-121762068D01*
X188526589Y-121874010D01*
X188283368Y-122036525D01*
X188076525Y-122243368D01*
X187954805Y-122425534D01*
X187885178Y-122308645D01*
X187690269Y-122092412D01*
X187456920Y-121918359D01*
X187194099Y-121793175D01*
X187046890Y-121748524D01*
X186817000Y-121869845D01*
X186817000Y-123063000D01*
X186837000Y-123063000D01*
X186837000Y-123317000D01*
X186817000Y-123317000D01*
X186817000Y-123337000D01*
X186563000Y-123337000D01*
X186563000Y-123317000D01*
X186543000Y-123317000D01*
X186543000Y-123063000D01*
X186563000Y-123063000D01*
X186563000Y-121869845D01*
X186333110Y-121748524D01*
X186185901Y-121793175D01*
X185923080Y-121918359D01*
X185689731Y-122092412D01*
X185494822Y-122308645D01*
X185425195Y-122425534D01*
X185303475Y-122243368D01*
X185096632Y-122036525D01*
X184853411Y-121874010D01*
X184583158Y-121762068D01*
X184296260Y-121705000D01*
X184003740Y-121705000D01*
X183716842Y-121762068D01*
X183446589Y-121874010D01*
X183203368Y-122036525D01*
X182996525Y-122243368D01*
X182880000Y-122417760D01*
X182763475Y-122243368D01*
X182556632Y-122036525D01*
X182313411Y-121874010D01*
X182043158Y-121762068D01*
X181756260Y-121705000D01*
X181463740Y-121705000D01*
X181176842Y-121762068D01*
X180906589Y-121874010D01*
X180663368Y-122036525D01*
X180456525Y-122243368D01*
X180334805Y-122425534D01*
X180265178Y-122308645D01*
X180070269Y-122092412D01*
X179836920Y-121918359D01*
X179574099Y-121793175D01*
X179426890Y-121748524D01*
X179197002Y-121869844D01*
X179197002Y-121760233D01*
X179552104Y-121405131D01*
X179601897Y-121395227D01*
X179790255Y-121317206D01*
X179959773Y-121203938D01*
X180103936Y-121059775D01*
X180151226Y-120989000D01*
X186756340Y-120989000D01*
X186800000Y-120993300D01*
X186843660Y-120989000D01*
X186843667Y-120989000D01*
X186974274Y-120976136D01*
X187141851Y-120925303D01*
X187296291Y-120842753D01*
X187431659Y-120731659D01*
X187459499Y-120697736D01*
X190468236Y-117689000D01*
X203956340Y-117689000D01*
X204000000Y-117693300D01*
X204043660Y-117689000D01*
X204043667Y-117689000D01*
X204174274Y-117676136D01*
X204341851Y-117625303D01*
X204496291Y-117542753D01*
X204631659Y-117431659D01*
X204659499Y-117397736D01*
X206197742Y-115859494D01*
X206231659Y-115831659D01*
X206342753Y-115696291D01*
X206425303Y-115541851D01*
X206476136Y-115374274D01*
X206489000Y-115243667D01*
X206489000Y-115243660D01*
X206493300Y-115200000D01*
X206489000Y-115156340D01*
X206489000Y-111032468D01*
X206517205Y-110990256D01*
X206595226Y-110801898D01*
X206635000Y-110601939D01*
X206635000Y-110398061D01*
X206595226Y-110198102D01*
X206517205Y-110009744D01*
X206403937Y-109840226D01*
X206259774Y-109696063D01*
X206090256Y-109582795D01*
X205901898Y-109504774D01*
X205701939Y-109465000D01*
X205592235Y-109465000D01*
X205852105Y-109205130D01*
X205901898Y-109195226D01*
X206090256Y-109117205D01*
X206259774Y-109003937D01*
X206403937Y-108859774D01*
X206517205Y-108690256D01*
X206595226Y-108501898D01*
X206635000Y-108301939D01*
X206635000Y-108098061D01*
X206595226Y-107898102D01*
X206517205Y-107709744D01*
X206403937Y-107540226D01*
X206259774Y-107396063D01*
X206090256Y-107282795D01*
X205901898Y-107204774D01*
X205701939Y-107165000D01*
X205498061Y-107165000D01*
X205298102Y-107204774D01*
X205109744Y-107282795D01*
X204940226Y-107396063D01*
X204796063Y-107540226D01*
X204682795Y-107709744D01*
X204604774Y-107898102D01*
X204594870Y-107947895D01*
X204002265Y-108540500D01*
X203968342Y-108568340D01*
X203857248Y-108703709D01*
X203774698Y-108858149D01*
X203746836Y-108950000D01*
X203724984Y-109022038D01*
X203723865Y-109025726D01*
X203711001Y-109156333D01*
X203711001Y-109156339D01*
X203706701Y-109199999D01*
X203711001Y-109243659D01*
X203711001Y-110493422D01*
X203614850Y-110442028D01*
X203562000Y-110425996D01*
X203562000Y-108249004D01*
X203614850Y-108232972D01*
X203768386Y-108150905D01*
X203902962Y-108040462D01*
X204013405Y-107905886D01*
X204095472Y-107752350D01*
X204146008Y-107585754D01*
X204163072Y-107412500D01*
X204163072Y-107214558D01*
X204612351Y-106765279D01*
X204641422Y-106741422D01*
X204706131Y-106662574D01*
X204736645Y-106625393D01*
X204781528Y-106541421D01*
X204807402Y-106493015D01*
X204850974Y-106349378D01*
X204862000Y-106237426D01*
X204862000Y-106237423D01*
X204865686Y-106200000D01*
X204862000Y-106162577D01*
X204862000Y-103437422D01*
X204865686Y-103399999D01*
X204860818Y-103350572D01*
X204850974Y-103250622D01*
X204807402Y-103106985D01*
X204802655Y-103098103D01*
X204765163Y-103027962D01*
X204736645Y-102974608D01*
X204641422Y-102858578D01*
X204612352Y-102834721D01*
X203315284Y-101537654D01*
X203291422Y-101508578D01*
X203175392Y-101413355D01*
X203043015Y-101342598D01*
X202899378Y-101299026D01*
X202787426Y-101288000D01*
X202787423Y-101288000D01*
X202750000Y-101284314D01*
X202712577Y-101288000D01*
X200881907Y-101288000D01*
X200838405Y-101206613D01*
X200771724Y-101125363D01*
X200801185Y-101101185D01*
X200880537Y-101004494D01*
X200939502Y-100894180D01*
X200975812Y-100774482D01*
X200988072Y-100650000D01*
X200985000Y-100335750D01*
X200826250Y-100177000D01*
X199777000Y-100177000D01*
X199777000Y-100197000D01*
X199523000Y-100197000D01*
X199523000Y-100177000D01*
X198473750Y-100177000D01*
X198315000Y-100335750D01*
X198311928Y-100650000D01*
X198324188Y-100774482D01*
X198360498Y-100894180D01*
X198419463Y-101004494D01*
X198498815Y-101101185D01*
X198528276Y-101125363D01*
X198461595Y-101206613D01*
X198379528Y-101360149D01*
X198328992Y-101526745D01*
X198311928Y-101699999D01*
X198311928Y-102400001D01*
X198328992Y-102573255D01*
X198379528Y-102739851D01*
X198461595Y-102893387D01*
X198572038Y-103027962D01*
X198706613Y-103138405D01*
X198860149Y-103220472D01*
X199026745Y-103271008D01*
X199199999Y-103288072D01*
X200100001Y-103288072D01*
X200273255Y-103271008D01*
X200439851Y-103220472D01*
X200593387Y-103138405D01*
X200727962Y-103027962D01*
X200838405Y-102893387D01*
X200881907Y-102812000D01*
X202434370Y-102812000D01*
X203338000Y-103715631D01*
X203338000Y-103780633D01*
X203275000Y-103774428D01*
X202325000Y-103774428D01*
X202151746Y-103791492D01*
X201985150Y-103842028D01*
X201831614Y-103924095D01*
X201697038Y-104034538D01*
X201586595Y-104169114D01*
X201549775Y-104238000D01*
X200881907Y-104238000D01*
X200838405Y-104156613D01*
X200727962Y-104022038D01*
X200593387Y-103911595D01*
X200439851Y-103829528D01*
X200273255Y-103778992D01*
X200100001Y-103761928D01*
X199199999Y-103761928D01*
X199026745Y-103778992D01*
X198860149Y-103829528D01*
X198706613Y-103911595D01*
X198572038Y-104022038D01*
X198461595Y-104156613D01*
X198418093Y-104238000D01*
X197765315Y-104238000D01*
X197688405Y-104094113D01*
X197577962Y-103959538D01*
X197443387Y-103849095D01*
X197289852Y-103767028D01*
X197123256Y-103716492D01*
X197062000Y-103710459D01*
X197062000Y-103228920D01*
X197089851Y-103220472D01*
X197243387Y-103138405D01*
X197377962Y-103027962D01*
X197488405Y-102893387D01*
X197570472Y-102739851D01*
X197621008Y-102573255D01*
X197638072Y-102400001D01*
X197638072Y-101699999D01*
X197621008Y-101526745D01*
X197570472Y-101360149D01*
X197488405Y-101206613D01*
X197421724Y-101125363D01*
X197451185Y-101101185D01*
X197530537Y-101004494D01*
X197589502Y-100894180D01*
X197625812Y-100774482D01*
X197638072Y-100650000D01*
X197635000Y-100335750D01*
X197476250Y-100177000D01*
X196427000Y-100177000D01*
X196427000Y-100197000D01*
X196173000Y-100197000D01*
X196173000Y-100177000D01*
X195123750Y-100177000D01*
X194965000Y-100335750D01*
X194961928Y-100650000D01*
X194974188Y-100774482D01*
X195010498Y-100894180D01*
X195069463Y-101004494D01*
X195148815Y-101101185D01*
X195178276Y-101125363D01*
X195111595Y-101206613D01*
X195029528Y-101360149D01*
X194978992Y-101526745D01*
X194961928Y-101699999D01*
X194961928Y-102400001D01*
X194978992Y-102573255D01*
X195029528Y-102739851D01*
X195111595Y-102893387D01*
X195222038Y-103027962D01*
X195356613Y-103138405D01*
X195510149Y-103220472D01*
X195538000Y-103228921D01*
X195538001Y-103710459D01*
X195476744Y-103716492D01*
X195310148Y-103767028D01*
X195156613Y-103849095D01*
X195022038Y-103959538D01*
X194911595Y-104094113D01*
X194829528Y-104247648D01*
X194778992Y-104414244D01*
X194761928Y-104587498D01*
X194761928Y-105412502D01*
X194778992Y-105585756D01*
X194829528Y-105752352D01*
X194911595Y-105905887D01*
X195022038Y-106040462D01*
X195156613Y-106150905D01*
X195310148Y-106232972D01*
X195476744Y-106283508D01*
X195649998Y-106300572D01*
X196950002Y-106300572D01*
X197123256Y-106283508D01*
X197289852Y-106232972D01*
X197443387Y-106150905D01*
X197577962Y-106040462D01*
X197688405Y-105905887D01*
X197765315Y-105762000D01*
X198418093Y-105762000D01*
X198461595Y-105843387D01*
X198572038Y-105977962D01*
X198598891Y-106000000D01*
X198572038Y-106022038D01*
X198461595Y-106156613D01*
X198379528Y-106310149D01*
X198328992Y-106476745D01*
X198311928Y-106649999D01*
X198311928Y-107260442D01*
X198209370Y-107363000D01*
X197765315Y-107363000D01*
X197688405Y-107219113D01*
X197577962Y-107084538D01*
X197443387Y-106974095D01*
X197289852Y-106892028D01*
X197123256Y-106841492D01*
X196950002Y-106824428D01*
X195649998Y-106824428D01*
X195476744Y-106841492D01*
X195310148Y-106892028D01*
X195156613Y-106974095D01*
X195022038Y-107084538D01*
X194911595Y-107219113D01*
X194834685Y-107363000D01*
X194165315Y-107363000D01*
X194088405Y-107219113D01*
X193977962Y-107084538D01*
X193843387Y-106974095D01*
X193689852Y-106892028D01*
X193523256Y-106841492D01*
X193350002Y-106824428D01*
X192049998Y-106824428D01*
X191876744Y-106841492D01*
X191710148Y-106892028D01*
X191556613Y-106974095D01*
X191422038Y-107084538D01*
X191311595Y-107219113D01*
X191229528Y-107372648D01*
X191209704Y-107438000D01*
X190529405Y-107438000D01*
X190538072Y-107350001D01*
X190538072Y-106739558D01*
X191338707Y-105938923D01*
X191422038Y-106040462D01*
X191556613Y-106150905D01*
X191710148Y-106232972D01*
X191876744Y-106283508D01*
X192049998Y-106300572D01*
X193350002Y-106300572D01*
X193523256Y-106283508D01*
X193689852Y-106232972D01*
X193843387Y-106150905D01*
X193977962Y-106040462D01*
X194088405Y-105905887D01*
X194170472Y-105752352D01*
X194221008Y-105585756D01*
X194238072Y-105412502D01*
X194238072Y-104587498D01*
X194221008Y-104414244D01*
X194170472Y-104247648D01*
X194088405Y-104094113D01*
X193977962Y-103959538D01*
X193843387Y-103849095D01*
X193689852Y-103767028D01*
X193523256Y-103716492D01*
X193462000Y-103710459D01*
X193462000Y-103228920D01*
X193489851Y-103220472D01*
X193643387Y-103138405D01*
X193777962Y-103027962D01*
X193888405Y-102893387D01*
X193970472Y-102739851D01*
X194021008Y-102573255D01*
X194038072Y-102400001D01*
X194038072Y-101699999D01*
X194021008Y-101526745D01*
X193970472Y-101360149D01*
X193888405Y-101206613D01*
X193821724Y-101125363D01*
X193851185Y-101101185D01*
X193930537Y-101004494D01*
X193989502Y-100894180D01*
X194025812Y-100774482D01*
X194038072Y-100650000D01*
X194035000Y-100335750D01*
X193876250Y-100177000D01*
X192827000Y-100177000D01*
X192827000Y-100197000D01*
X192573000Y-100197000D01*
X192573000Y-100177000D01*
X191523750Y-100177000D01*
X191365000Y-100335750D01*
X191361928Y-100650000D01*
X191374188Y-100774482D01*
X191410498Y-100894180D01*
X191469463Y-101004494D01*
X191548815Y-101101185D01*
X191578276Y-101125363D01*
X191511595Y-101206613D01*
X191429528Y-101360149D01*
X191378992Y-101526745D01*
X191361928Y-101699999D01*
X191361928Y-102400001D01*
X191378992Y-102573255D01*
X191429528Y-102739851D01*
X191511595Y-102893387D01*
X191622038Y-103027962D01*
X191756613Y-103138405D01*
X191910149Y-103220472D01*
X191938000Y-103228921D01*
X191938001Y-103710459D01*
X191876744Y-103716492D01*
X191710148Y-103767028D01*
X191556613Y-103849095D01*
X191422038Y-103959538D01*
X191311595Y-104094113D01*
X191234822Y-104237744D01*
X191199999Y-104234314D01*
X191162576Y-104238000D01*
X191162574Y-104238000D01*
X191050622Y-104249026D01*
X190906985Y-104292598D01*
X190774608Y-104363355D01*
X190658578Y-104458578D01*
X190634721Y-104487648D01*
X190532181Y-104590188D01*
X190521008Y-104476745D01*
X190470472Y-104310149D01*
X190388405Y-104156613D01*
X190277962Y-104022038D01*
X190143387Y-103911595D01*
X189989851Y-103829528D01*
X189962000Y-103821080D01*
X189962000Y-103299004D01*
X190014850Y-103282972D01*
X190168386Y-103200905D01*
X190302962Y-103090462D01*
X190413405Y-102955886D01*
X190495472Y-102802350D01*
X190546008Y-102635754D01*
X190563072Y-102462500D01*
X190563072Y-101787500D01*
X190546008Y-101614246D01*
X190495472Y-101447650D01*
X190413405Y-101294114D01*
X190302962Y-101159538D01*
X190296406Y-101154158D01*
X190376185Y-101088685D01*
X190455537Y-100991994D01*
X190514502Y-100881680D01*
X190550812Y-100761982D01*
X190563072Y-100637500D01*
X190560000Y-100335750D01*
X190401250Y-100177000D01*
X189327000Y-100177000D01*
X189327000Y-100197000D01*
X189073000Y-100197000D01*
X189073000Y-100177000D01*
X187998750Y-100177000D01*
X187840000Y-100335750D01*
X187836928Y-100637500D01*
X187849188Y-100761982D01*
X187885498Y-100881680D01*
X187944463Y-100991994D01*
X188023815Y-101088685D01*
X188103594Y-101154158D01*
X188097038Y-101159538D01*
X187986595Y-101294114D01*
X187904528Y-101447650D01*
X187853992Y-101614246D01*
X187836928Y-101787500D01*
X187836928Y-102462500D01*
X187853992Y-102635754D01*
X187904528Y-102802350D01*
X187986595Y-102955886D01*
X188097038Y-103090462D01*
X188231614Y-103200905D01*
X188385150Y-103282972D01*
X188438000Y-103299004D01*
X188438001Y-103821079D01*
X188410149Y-103829528D01*
X188256613Y-103911595D01*
X188122038Y-104022038D01*
X188011595Y-104156613D01*
X187929528Y-104310149D01*
X187878992Y-104476745D01*
X187861928Y-104649999D01*
X187861928Y-105238000D01*
X187013072Y-105238000D01*
X187013072Y-104662500D01*
X186996008Y-104489246D01*
X186945472Y-104322650D01*
X186863405Y-104169114D01*
X186752962Y-104034538D01*
X186618386Y-103924095D01*
X186464850Y-103842028D01*
X186412000Y-103825996D01*
X186412000Y-103228920D01*
X186439851Y-103220472D01*
X186593387Y-103138405D01*
X186727962Y-103027962D01*
X186838405Y-102893387D01*
X186920472Y-102739851D01*
X186971008Y-102573255D01*
X186988072Y-102400001D01*
X186988072Y-101699999D01*
X186971008Y-101526745D01*
X186920472Y-101360149D01*
X186838405Y-101206613D01*
X186771724Y-101125363D01*
X186801185Y-101101185D01*
X186880537Y-101004494D01*
X186939502Y-100894180D01*
X186975812Y-100774482D01*
X186988072Y-100650000D01*
X186985000Y-100335750D01*
X186826250Y-100177000D01*
X185777000Y-100177000D01*
X185777000Y-100197000D01*
X185523000Y-100197000D01*
X185523000Y-100177000D01*
X184473750Y-100177000D01*
X184315000Y-100335750D01*
X184311928Y-100650000D01*
X184324188Y-100774482D01*
X184360498Y-100894180D01*
X184419463Y-101004494D01*
X184498815Y-101101185D01*
X184528276Y-101125363D01*
X184461595Y-101206613D01*
X184379528Y-101360149D01*
X184328992Y-101526745D01*
X184311928Y-101699999D01*
X184311928Y-102400001D01*
X184328992Y-102573255D01*
X184379528Y-102739851D01*
X184461595Y-102893387D01*
X184572038Y-103027962D01*
X184706613Y-103138405D01*
X184860149Y-103220472D01*
X184888000Y-103228921D01*
X184888001Y-103825996D01*
X184835150Y-103842028D01*
X184681614Y-103924095D01*
X184547038Y-104034538D01*
X184436595Y-104169114D01*
X184399775Y-104238000D01*
X184237423Y-104238000D01*
X184200000Y-104234314D01*
X184162577Y-104238000D01*
X184162574Y-104238000D01*
X184050622Y-104249026D01*
X183906985Y-104292598D01*
X183860949Y-104317205D01*
X183774607Y-104363355D01*
X183712599Y-104414244D01*
X183658578Y-104458578D01*
X183634721Y-104487648D01*
X183482181Y-104640188D01*
X183471008Y-104526745D01*
X183420472Y-104360149D01*
X183338405Y-104206613D01*
X183227962Y-104072038D01*
X183093387Y-103961595D01*
X182939851Y-103879528D01*
X182912000Y-103871080D01*
X182912000Y-103299004D01*
X182964850Y-103282972D01*
X183118386Y-103200905D01*
X183252962Y-103090462D01*
X183363405Y-102955886D01*
X183445472Y-102802350D01*
X183496008Y-102635754D01*
X183513072Y-102462500D01*
X183513072Y-101787500D01*
X183496008Y-101614246D01*
X183445472Y-101447650D01*
X183363405Y-101294114D01*
X183252962Y-101159538D01*
X183246406Y-101154158D01*
X183326185Y-101088685D01*
X183405537Y-100991994D01*
X183464502Y-100881680D01*
X183500812Y-100761982D01*
X183513072Y-100637500D01*
X183510000Y-100335750D01*
X183351250Y-100177000D01*
X182277000Y-100177000D01*
X182277000Y-100197000D01*
X182023000Y-100197000D01*
X182023000Y-100177000D01*
X180948750Y-100177000D01*
X180790000Y-100335750D01*
X180786928Y-100637500D01*
X180799188Y-100761982D01*
X180835498Y-100881680D01*
X180894463Y-100991994D01*
X180973815Y-101088685D01*
X181053594Y-101154158D01*
X181047038Y-101159538D01*
X180936595Y-101294114D01*
X180854528Y-101447650D01*
X180803992Y-101614246D01*
X180786928Y-101787500D01*
X180786928Y-102462500D01*
X180803992Y-102635754D01*
X180854528Y-102802350D01*
X180936595Y-102955886D01*
X181047038Y-103090462D01*
X181181614Y-103200905D01*
X181335150Y-103282972D01*
X181388000Y-103299004D01*
X181388001Y-103871079D01*
X181360149Y-103879528D01*
X181206613Y-103961595D01*
X181072038Y-104072038D01*
X180961595Y-104206613D01*
X180952193Y-104224202D01*
X180890256Y-104182817D01*
X180701898Y-104104796D01*
X180501939Y-104065022D01*
X180298061Y-104065022D01*
X180098102Y-104104796D01*
X179909744Y-104182817D01*
X179867499Y-104211044D01*
X179838405Y-104156613D01*
X179727962Y-104022038D01*
X179593387Y-103911595D01*
X179439851Y-103829528D01*
X179273255Y-103778992D01*
X179100001Y-103761928D01*
X178199999Y-103761928D01*
X178026745Y-103778992D01*
X177860149Y-103829528D01*
X177706613Y-103911595D01*
X177572038Y-104022038D01*
X177539448Y-104061749D01*
X177401900Y-104004774D01*
X177201941Y-103965000D01*
X176998063Y-103965000D01*
X176798104Y-104004774D01*
X176609746Y-104082795D01*
X176440228Y-104196063D01*
X176296065Y-104340226D01*
X176182797Y-104509744D01*
X176104776Y-104698102D01*
X176065002Y-104898061D01*
X176065002Y-105101939D01*
X176104776Y-105301898D01*
X176182797Y-105490256D01*
X176296065Y-105659774D01*
X176440228Y-105803937D01*
X176609746Y-105917205D01*
X176798104Y-105995226D01*
X176998063Y-106035000D01*
X177201941Y-106035000D01*
X177401900Y-105995226D01*
X177539448Y-105938251D01*
X177572038Y-105977962D01*
X177598891Y-106000000D01*
X177572038Y-106022038D01*
X177461595Y-106156613D01*
X177379528Y-106310149D01*
X177328992Y-106476745D01*
X177311928Y-106649999D01*
X177311928Y-107350001D01*
X177328992Y-107523255D01*
X177379528Y-107689851D01*
X177461595Y-107843387D01*
X177476811Y-107861928D01*
X176450000Y-107861928D01*
X176276746Y-107878992D01*
X176110150Y-107929528D01*
X175956614Y-108011595D01*
X175822038Y-108122038D01*
X175711595Y-108256614D01*
X175629528Y-108410150D01*
X175578992Y-108576746D01*
X175561928Y-108750000D01*
X175561928Y-111250000D01*
X175578992Y-111423254D01*
X175629528Y-111589850D01*
X175711595Y-111743386D01*
X175822038Y-111877962D01*
X175956614Y-111988405D01*
X176110150Y-112070472D01*
X176276746Y-112121008D01*
X176450000Y-112138072D01*
X177550000Y-112138072D01*
X177723254Y-112121008D01*
X177889850Y-112070472D01*
X178043386Y-111988405D01*
X178177962Y-111877962D01*
X178288405Y-111743386D01*
X178370472Y-111589850D01*
X178421008Y-111423254D01*
X178438072Y-111250000D01*
X178438072Y-111169313D01*
X178509748Y-111217205D01*
X178698106Y-111295226D01*
X178898065Y-111335000D01*
X179101943Y-111335000D01*
X179301902Y-111295226D01*
X179438000Y-111238852D01*
X179438000Y-111562576D01*
X179434314Y-111600000D01*
X179438000Y-111637423D01*
X179438000Y-111637425D01*
X179449026Y-111749377D01*
X179492598Y-111893014D01*
X179507561Y-111921008D01*
X179563355Y-112025392D01*
X179584717Y-112051421D01*
X179658578Y-112141422D01*
X179687654Y-112165284D01*
X180734721Y-113212352D01*
X180758578Y-113241422D01*
X180787648Y-113265279D01*
X180874607Y-113336645D01*
X180945364Y-113374465D01*
X181006985Y-113407402D01*
X181150622Y-113450974D01*
X181262574Y-113462000D01*
X181262577Y-113462000D01*
X181300000Y-113465686D01*
X181337423Y-113462000D01*
X182361928Y-113462000D01*
X182361928Y-115450000D01*
X182378992Y-115623254D01*
X182429528Y-115789850D01*
X182511595Y-115943386D01*
X182622038Y-116077962D01*
X182756614Y-116188405D01*
X182910150Y-116270472D01*
X183076746Y-116321008D01*
X183250000Y-116338072D01*
X184350000Y-116338072D01*
X184523254Y-116321008D01*
X184689850Y-116270472D01*
X184843386Y-116188405D01*
X184977962Y-116077962D01*
X185088405Y-115943386D01*
X185170472Y-115789850D01*
X185221008Y-115623254D01*
X185238072Y-115450000D01*
X185238072Y-115162000D01*
X185396838Y-115162000D01*
X185404774Y-115201898D01*
X185482795Y-115390256D01*
X185596063Y-115559774D01*
X185740226Y-115703937D01*
X185906999Y-115815371D01*
X184984370Y-116738000D01*
X178437415Y-116738000D01*
X178399999Y-116734315D01*
X178362583Y-116738000D01*
X178362574Y-116738000D01*
X178250622Y-116749026D01*
X178106985Y-116792598D01*
X177974608Y-116863355D01*
X177858578Y-116958578D01*
X177834721Y-116987648D01*
X175984370Y-118838000D01*
X174515630Y-118838000D01*
X173750247Y-118072617D01*
X173750247Y-116894474D01*
X173792184Y-116852537D01*
X173905452Y-116683019D01*
X173983473Y-116494661D01*
X174023247Y-116294702D01*
X174023247Y-116090824D01*
X173985291Y-115900000D01*
X175561928Y-115900000D01*
X175574188Y-116024482D01*
X175610498Y-116144180D01*
X175669463Y-116254494D01*
X175748815Y-116351185D01*
X175845506Y-116430537D01*
X175955820Y-116489502D01*
X176075518Y-116525812D01*
X176200000Y-116538072D01*
X176714250Y-116535000D01*
X176873000Y-116376250D01*
X176873000Y-114527000D01*
X177127000Y-114527000D01*
X177127000Y-116376250D01*
X177285750Y-116535000D01*
X177800000Y-116538072D01*
X177924482Y-116525812D01*
X178044180Y-116489502D01*
X178154494Y-116430537D01*
X178251185Y-116351185D01*
X178330537Y-116254494D01*
X178389502Y-116144180D01*
X178425812Y-116024482D01*
X178438072Y-115900000D01*
X178435000Y-114685750D01*
X178276250Y-114527000D01*
X177127000Y-114527000D01*
X176873000Y-114527000D01*
X175723750Y-114527000D01*
X175565000Y-114685750D01*
X175561928Y-115900000D01*
X173985291Y-115900000D01*
X173983473Y-115890865D01*
X173905452Y-115702507D01*
X173792184Y-115532989D01*
X173648021Y-115388826D01*
X173478503Y-115275558D01*
X173290145Y-115197537D01*
X173177829Y-115175196D01*
X173618023Y-114735003D01*
X173677331Y-114735003D01*
X173877290Y-114695229D01*
X174065648Y-114617208D01*
X174235166Y-114503940D01*
X174379329Y-114359777D01*
X174492597Y-114190259D01*
X174570618Y-114001901D01*
X174610392Y-113801942D01*
X174610392Y-113598064D01*
X174570618Y-113398105D01*
X174492597Y-113209747D01*
X174379329Y-113040229D01*
X174239100Y-112900000D01*
X175561928Y-112900000D01*
X175565000Y-114114250D01*
X175723750Y-114273000D01*
X176873000Y-114273000D01*
X176873000Y-112423750D01*
X177127000Y-112423750D01*
X177127000Y-114273000D01*
X178276250Y-114273000D01*
X178435000Y-114114250D01*
X178438072Y-112900000D01*
X178425812Y-112775518D01*
X178389502Y-112655820D01*
X178330537Y-112545506D01*
X178251185Y-112448815D01*
X178154494Y-112369463D01*
X178044180Y-112310498D01*
X177924482Y-112274188D01*
X177800000Y-112261928D01*
X177285750Y-112265000D01*
X177127000Y-112423750D01*
X176873000Y-112423750D01*
X176714250Y-112265000D01*
X176200000Y-112261928D01*
X176075518Y-112274188D01*
X175955820Y-112310498D01*
X175845506Y-112369463D01*
X175748815Y-112448815D01*
X175669463Y-112545506D01*
X175610498Y-112655820D01*
X175574188Y-112775518D01*
X175561928Y-112900000D01*
X174239100Y-112900000D01*
X174235166Y-112896066D01*
X174065648Y-112782798D01*
X174014543Y-112761630D01*
X174025812Y-112724482D01*
X174038072Y-112600000D01*
X174035000Y-112285750D01*
X173876250Y-112127000D01*
X172827000Y-112127000D01*
X172827000Y-112147000D01*
X172573000Y-112147000D01*
X172573000Y-112127000D01*
X171523750Y-112127000D01*
X171365000Y-112285750D01*
X171361928Y-112600000D01*
X171374188Y-112724482D01*
X171410498Y-112844180D01*
X171469463Y-112954494D01*
X171548815Y-113051185D01*
X171645506Y-113130537D01*
X171755820Y-113189502D01*
X171875518Y-113225812D01*
X172000000Y-113238072D01*
X172414250Y-113235000D01*
X172572998Y-113076252D01*
X172572998Y-113235000D01*
X172647727Y-113235000D01*
X172580166Y-113398105D01*
X172540392Y-113598064D01*
X172540392Y-113657372D01*
X170406778Y-115790987D01*
X170388405Y-115756613D01*
X170277962Y-115622038D01*
X170143387Y-115511595D01*
X169989851Y-115429528D01*
X169823255Y-115378992D01*
X169650001Y-115361928D01*
X168749999Y-115361928D01*
X168576745Y-115378992D01*
X168410149Y-115429528D01*
X168343000Y-115465420D01*
X168343000Y-114424883D01*
X168350000Y-114425572D01*
X168964250Y-114422500D01*
X169123000Y-114263750D01*
X169123000Y-113252000D01*
X169377000Y-113252000D01*
X169377000Y-114263750D01*
X169535750Y-114422500D01*
X170150000Y-114425572D01*
X170274482Y-114413312D01*
X170394180Y-114377002D01*
X170504494Y-114318037D01*
X170601185Y-114238685D01*
X170680537Y-114141994D01*
X170739502Y-114031680D01*
X170775812Y-113911982D01*
X170788072Y-113787500D01*
X170785000Y-113410750D01*
X170626250Y-113252000D01*
X169377000Y-113252000D01*
X169123000Y-113252000D01*
X169103000Y-113252000D01*
X169103000Y-112998000D01*
X169123000Y-112998000D01*
X169123000Y-111986250D01*
X169377000Y-111986250D01*
X169377000Y-112998000D01*
X170626250Y-112998000D01*
X170785000Y-112839250D01*
X170788072Y-112462500D01*
X170775812Y-112338018D01*
X170739502Y-112218320D01*
X170680537Y-112108006D01*
X170601185Y-112011315D01*
X170504494Y-111931963D01*
X170394180Y-111872998D01*
X170274482Y-111836688D01*
X170150000Y-111824428D01*
X169535750Y-111827500D01*
X169377000Y-111986250D01*
X169123000Y-111986250D01*
X168964250Y-111827500D01*
X168350000Y-111824428D01*
X168225518Y-111836688D01*
X168105820Y-111872998D01*
X167995506Y-111931963D01*
X167898815Y-112011315D01*
X167819463Y-112108006D01*
X167808209Y-112129061D01*
X167639522Y-112038897D01*
X167424066Y-111973539D01*
X167200000Y-111951470D01*
X166975933Y-111973539D01*
X166760477Y-112038897D01*
X166561911Y-112145032D01*
X166387867Y-112287867D01*
X166245032Y-112461912D01*
X166138897Y-112660478D01*
X166073539Y-112875934D01*
X166057000Y-113043855D01*
X166057000Y-115301302D01*
X165885750Y-115302500D01*
X165727000Y-115461250D01*
X165727000Y-116398000D01*
X165747000Y-116398000D01*
X165747000Y-116652000D01*
X165727000Y-116652000D01*
X165727000Y-116672000D01*
X165473000Y-116672000D01*
X165473000Y-116652000D01*
X164398750Y-116652000D01*
X164240000Y-116810750D01*
X164236928Y-117112500D01*
X164249188Y-117236982D01*
X164285498Y-117356680D01*
X164339121Y-117457000D01*
X162094183Y-117457000D01*
X162190256Y-117417205D01*
X162359774Y-117303937D01*
X162503937Y-117159774D01*
X162617205Y-116990256D01*
X162695226Y-116801898D01*
X162735000Y-116601939D01*
X162735000Y-116398061D01*
X162695226Y-116198102D01*
X162617205Y-116009744D01*
X162568934Y-115937500D01*
X164236928Y-115937500D01*
X164240000Y-116239250D01*
X164398750Y-116398000D01*
X165473000Y-116398000D01*
X165473000Y-115461250D01*
X165314250Y-115302500D01*
X164875000Y-115299428D01*
X164750518Y-115311688D01*
X164630820Y-115347998D01*
X164520506Y-115406963D01*
X164423815Y-115486315D01*
X164344463Y-115583006D01*
X164285498Y-115693320D01*
X164249188Y-115813018D01*
X164236928Y-115937500D01*
X162568934Y-115937500D01*
X162503937Y-115840226D01*
X162359774Y-115696063D01*
X162190256Y-115582795D01*
X162001898Y-115504774D01*
X161801939Y-115465000D01*
X161598061Y-115465000D01*
X161398102Y-115504774D01*
X161209744Y-115582795D01*
X161040226Y-115696063D01*
X160896063Y-115840226D01*
X160782795Y-116009744D01*
X160771091Y-116038000D01*
X159388072Y-116038000D01*
X159388072Y-115762000D01*
X159862577Y-115762000D01*
X159900000Y-115765686D01*
X159937423Y-115762000D01*
X159937426Y-115762000D01*
X160049378Y-115750974D01*
X160193015Y-115707402D01*
X160325392Y-115636645D01*
X160441422Y-115541422D01*
X160465283Y-115512347D01*
X161012338Y-114965292D01*
X161041408Y-114941436D01*
X161075413Y-114900000D01*
X161761928Y-114900000D01*
X161774188Y-115024482D01*
X161810498Y-115144180D01*
X161869463Y-115254494D01*
X161948815Y-115351185D01*
X162045506Y-115430537D01*
X162155820Y-115489502D01*
X162275518Y-115525812D01*
X162400000Y-115538072D01*
X162914250Y-115535000D01*
X163073000Y-115376250D01*
X163073000Y-113727000D01*
X163327000Y-113727000D01*
X163327000Y-115376250D01*
X163485750Y-115535000D01*
X164000000Y-115538072D01*
X164124482Y-115525812D01*
X164244180Y-115489502D01*
X164354494Y-115430537D01*
X164451185Y-115351185D01*
X164530537Y-115254494D01*
X164589502Y-115144180D01*
X164625812Y-115024482D01*
X164638072Y-114900000D01*
X164635000Y-113885750D01*
X164476250Y-113727000D01*
X163327000Y-113727000D01*
X163073000Y-113727000D01*
X161923750Y-113727000D01*
X161765000Y-113885750D01*
X161761928Y-114900000D01*
X161075413Y-114900000D01*
X161136631Y-114825406D01*
X161207388Y-114693029D01*
X161250960Y-114549392D01*
X161261986Y-114437440D01*
X161261986Y-114437438D01*
X161265672Y-114400015D01*
X161261986Y-114362592D01*
X161261986Y-108294366D01*
X161325000Y-108300572D01*
X162048195Y-108300572D01*
X162022038Y-108322038D01*
X161911595Y-108456614D01*
X161829528Y-108610150D01*
X161778992Y-108776746D01*
X161761928Y-108950000D01*
X161761928Y-111050000D01*
X161778992Y-111223254D01*
X161829528Y-111389850D01*
X161911595Y-111543386D01*
X162022038Y-111677962D01*
X162098813Y-111740969D01*
X162045506Y-111769463D01*
X161948815Y-111848815D01*
X161869463Y-111945506D01*
X161810498Y-112055820D01*
X161774188Y-112175518D01*
X161761928Y-112300000D01*
X161765000Y-113314250D01*
X161923750Y-113473000D01*
X163073000Y-113473000D01*
X163073000Y-113453000D01*
X163327000Y-113453000D01*
X163327000Y-113473000D01*
X164476250Y-113473000D01*
X164635000Y-113314250D01*
X164638072Y-112300000D01*
X164625812Y-112175518D01*
X164589502Y-112055820D01*
X164530537Y-111945506D01*
X164451185Y-111848815D01*
X164354494Y-111769463D01*
X164301187Y-111740969D01*
X164377962Y-111677962D01*
X164488405Y-111543386D01*
X164570472Y-111389850D01*
X164621008Y-111223254D01*
X164638072Y-111050000D01*
X164638072Y-110162000D01*
X167362577Y-110162000D01*
X167400000Y-110165686D01*
X167437423Y-110162000D01*
X167437426Y-110162000D01*
X167549378Y-110150974D01*
X167693015Y-110107402D01*
X167711928Y-110097293D01*
X167711928Y-110412502D01*
X167728992Y-110585756D01*
X167779528Y-110752352D01*
X167861595Y-110905887D01*
X167972038Y-111040462D01*
X168106613Y-111150905D01*
X168260148Y-111232972D01*
X168426744Y-111283508D01*
X168599998Y-111300572D01*
X169900002Y-111300572D01*
X170073256Y-111283508D01*
X170239852Y-111232972D01*
X170393387Y-111150905D01*
X170527962Y-111040462D01*
X170624202Y-110923194D01*
X170798102Y-110995226D01*
X170998061Y-111035000D01*
X171201939Y-111035000D01*
X171401898Y-110995226D01*
X171576763Y-110922794D01*
X171578276Y-110924637D01*
X171548815Y-110948815D01*
X171469463Y-111045506D01*
X171410498Y-111155820D01*
X171374188Y-111275518D01*
X171361928Y-111400000D01*
X171365000Y-111714250D01*
X171523750Y-111873000D01*
X172573000Y-111873000D01*
X172573000Y-111853000D01*
X172827000Y-111853000D01*
X172827000Y-111873000D01*
X173876250Y-111873000D01*
X174035000Y-111714250D01*
X174038072Y-111400000D01*
X174025812Y-111275518D01*
X173989502Y-111155820D01*
X173930537Y-111045506D01*
X173851185Y-110948815D01*
X173821724Y-110924637D01*
X173888405Y-110843387D01*
X173970472Y-110689851D01*
X174021008Y-110523255D01*
X174038072Y-110350001D01*
X174038072Y-109649999D01*
X174021008Y-109476745D01*
X173970472Y-109310149D01*
X173888405Y-109156613D01*
X173777962Y-109022038D01*
X173643387Y-108911595D01*
X173592979Y-108884651D01*
X174239558Y-108238072D01*
X174250001Y-108238072D01*
X174423255Y-108221008D01*
X174589851Y-108170472D01*
X174743387Y-108088405D01*
X174877962Y-107977962D01*
X174988405Y-107843387D01*
X175070472Y-107689851D01*
X175121008Y-107523255D01*
X175138072Y-107350001D01*
X175138072Y-106649999D01*
X175121008Y-106476745D01*
X175070472Y-106310149D01*
X174988405Y-106156613D01*
X174877962Y-106022038D01*
X174851109Y-106000000D01*
X174877962Y-105977962D01*
X174988405Y-105843387D01*
X175070472Y-105689851D01*
X175121008Y-105523255D01*
X175138072Y-105350001D01*
X175138072Y-104649999D01*
X175121008Y-104476745D01*
X175070472Y-104310149D01*
X174988405Y-104156613D01*
X174877962Y-104022038D01*
X174743387Y-103911595D01*
X174589851Y-103829528D01*
X174423255Y-103778992D01*
X174250001Y-103761928D01*
X173349999Y-103761928D01*
X173176745Y-103778992D01*
X173010149Y-103829528D01*
X172856613Y-103911595D01*
X172722038Y-104022038D01*
X172611595Y-104156613D01*
X172529528Y-104310149D01*
X172478992Y-104476745D01*
X172461928Y-104649999D01*
X172461928Y-105260441D01*
X171587649Y-106134721D01*
X171558579Y-106158578D01*
X171534722Y-106187648D01*
X171534721Y-106187649D01*
X171463355Y-106274608D01*
X171413651Y-106367599D01*
X171392599Y-106406985D01*
X171349027Y-106550622D01*
X171338684Y-106655635D01*
X171334314Y-106700000D01*
X171338000Y-106737423D01*
X171338000Y-106898289D01*
X171296063Y-106940226D01*
X171182795Y-107109744D01*
X171104774Y-107298102D01*
X171065000Y-107498061D01*
X171065000Y-107701939D01*
X171092064Y-107838000D01*
X169890577Y-107838000D01*
X170053850Y-107788472D01*
X170207386Y-107706405D01*
X170341962Y-107595962D01*
X170452405Y-107461386D01*
X170534472Y-107307850D01*
X170585008Y-107141254D01*
X170602072Y-106968000D01*
X170602072Y-104868000D01*
X170585008Y-104694746D01*
X170534472Y-104528150D01*
X170452405Y-104374614D01*
X170341962Y-104240038D01*
X170207386Y-104129595D01*
X170185693Y-104118000D01*
X170207386Y-104106405D01*
X170341962Y-103995962D01*
X170452405Y-103861386D01*
X170534472Y-103707850D01*
X170585008Y-103541254D01*
X170602072Y-103368000D01*
X170602072Y-101957559D01*
X170753404Y-101806226D01*
X170898061Y-101835000D01*
X171101939Y-101835000D01*
X171301898Y-101795226D01*
X171490256Y-101717205D01*
X171659774Y-101603937D01*
X171803937Y-101459774D01*
X171915371Y-101293001D01*
X172461928Y-101839558D01*
X172461928Y-102350001D01*
X172478992Y-102523255D01*
X172529528Y-102689851D01*
X172611595Y-102843387D01*
X172722038Y-102977962D01*
X172856613Y-103088405D01*
X173010149Y-103170472D01*
X173176745Y-103221008D01*
X173349999Y-103238072D01*
X174250001Y-103238072D01*
X174423255Y-103221008D01*
X174589851Y-103170472D01*
X174743387Y-103088405D01*
X174877962Y-102977962D01*
X174988405Y-102843387D01*
X175070472Y-102689851D01*
X175121008Y-102523255D01*
X175138072Y-102350001D01*
X175138072Y-101649999D01*
X175121008Y-101476745D01*
X175070472Y-101310149D01*
X174988405Y-101156613D01*
X174921724Y-101075363D01*
X174951185Y-101051185D01*
X175030537Y-100954494D01*
X175089502Y-100844180D01*
X175125812Y-100724482D01*
X175138072Y-100600000D01*
X175135000Y-100285750D01*
X174976250Y-100127000D01*
X173927000Y-100127000D01*
X173927000Y-100147000D01*
X173673000Y-100147000D01*
X173673000Y-100127000D01*
X173653000Y-100127000D01*
X173653000Y-99873000D01*
X173673000Y-99873000D01*
X173673000Y-98923750D01*
X173927000Y-98923750D01*
X173927000Y-99873000D01*
X174976250Y-99873000D01*
X175135000Y-99714250D01*
X175137461Y-99462500D01*
X180786928Y-99462500D01*
X180790000Y-99764250D01*
X180948750Y-99923000D01*
X182023000Y-99923000D01*
X182023000Y-98986250D01*
X182277000Y-98986250D01*
X182277000Y-99923000D01*
X183351250Y-99923000D01*
X183510000Y-99764250D01*
X183513072Y-99462500D01*
X183511841Y-99450000D01*
X184311928Y-99450000D01*
X184315000Y-99764250D01*
X184473750Y-99923000D01*
X185523000Y-99923000D01*
X185523000Y-98973750D01*
X185777000Y-98973750D01*
X185777000Y-99923000D01*
X186826250Y-99923000D01*
X186985000Y-99764250D01*
X186987949Y-99462500D01*
X187836928Y-99462500D01*
X187840000Y-99764250D01*
X187998750Y-99923000D01*
X189073000Y-99923000D01*
X189073000Y-98986250D01*
X189327000Y-98986250D01*
X189327000Y-99923000D01*
X190401250Y-99923000D01*
X190560000Y-99764250D01*
X190563072Y-99462500D01*
X190561841Y-99450000D01*
X191361928Y-99450000D01*
X191365000Y-99764250D01*
X191523750Y-99923000D01*
X192573000Y-99923000D01*
X192573000Y-98973750D01*
X192827000Y-98973750D01*
X192827000Y-99923000D01*
X193876250Y-99923000D01*
X194035000Y-99764250D01*
X194038072Y-99450000D01*
X194961928Y-99450000D01*
X194965000Y-99764250D01*
X195123750Y-99923000D01*
X196173000Y-99923000D01*
X196173000Y-98973750D01*
X196427000Y-98973750D01*
X196427000Y-99923000D01*
X197476250Y-99923000D01*
X197635000Y-99764250D01*
X197638072Y-99450000D01*
X198311928Y-99450000D01*
X198315000Y-99764250D01*
X198473750Y-99923000D01*
X199523000Y-99923000D01*
X199523000Y-98973750D01*
X199777000Y-98973750D01*
X199777000Y-99923000D01*
X200826250Y-99923000D01*
X200985000Y-99764250D01*
X200988072Y-99450000D01*
X200975812Y-99325518D01*
X200939502Y-99205820D01*
X200880537Y-99095506D01*
X200801185Y-98998815D01*
X200704494Y-98919463D01*
X200594180Y-98860498D01*
X200474482Y-98824188D01*
X200350000Y-98811928D01*
X199935750Y-98815000D01*
X199777000Y-98973750D01*
X199523000Y-98973750D01*
X199364250Y-98815000D01*
X198950000Y-98811928D01*
X198825518Y-98824188D01*
X198705820Y-98860498D01*
X198595506Y-98919463D01*
X198498815Y-98998815D01*
X198419463Y-99095506D01*
X198360498Y-99205820D01*
X198324188Y-99325518D01*
X198311928Y-99450000D01*
X197638072Y-99450000D01*
X197625812Y-99325518D01*
X197589502Y-99205820D01*
X197530537Y-99095506D01*
X197451185Y-98998815D01*
X197354494Y-98919463D01*
X197244180Y-98860498D01*
X197124482Y-98824188D01*
X197000000Y-98811928D01*
X196585750Y-98815000D01*
X196427000Y-98973750D01*
X196173000Y-98973750D01*
X196014250Y-98815000D01*
X195600000Y-98811928D01*
X195475518Y-98824188D01*
X195355820Y-98860498D01*
X195245506Y-98919463D01*
X195148815Y-98998815D01*
X195069463Y-99095506D01*
X195010498Y-99205820D01*
X194974188Y-99325518D01*
X194961928Y-99450000D01*
X194038072Y-99450000D01*
X194025812Y-99325518D01*
X193989502Y-99205820D01*
X193930537Y-99095506D01*
X193851185Y-98998815D01*
X193754494Y-98919463D01*
X193644180Y-98860498D01*
X193524482Y-98824188D01*
X193400000Y-98811928D01*
X192985750Y-98815000D01*
X192827000Y-98973750D01*
X192573000Y-98973750D01*
X192414250Y-98815000D01*
X192000000Y-98811928D01*
X191875518Y-98824188D01*
X191755820Y-98860498D01*
X191645506Y-98919463D01*
X191548815Y-98998815D01*
X191469463Y-99095506D01*
X191410498Y-99205820D01*
X191374188Y-99325518D01*
X191361928Y-99450000D01*
X190561841Y-99450000D01*
X190550812Y-99338018D01*
X190514502Y-99218320D01*
X190455537Y-99108006D01*
X190376185Y-99011315D01*
X190279494Y-98931963D01*
X190169180Y-98872998D01*
X190049482Y-98836688D01*
X189925000Y-98824428D01*
X189485750Y-98827500D01*
X189327000Y-98986250D01*
X189073000Y-98986250D01*
X188914250Y-98827500D01*
X188475000Y-98824428D01*
X188350518Y-98836688D01*
X188230820Y-98872998D01*
X188120506Y-98931963D01*
X188023815Y-99011315D01*
X187944463Y-99108006D01*
X187885498Y-99218320D01*
X187849188Y-99338018D01*
X187836928Y-99462500D01*
X186987949Y-99462500D01*
X186988072Y-99450000D01*
X186975812Y-99325518D01*
X186939502Y-99205820D01*
X186880537Y-99095506D01*
X186801185Y-98998815D01*
X186704494Y-98919463D01*
X186594180Y-98860498D01*
X186474482Y-98824188D01*
X186350000Y-98811928D01*
X185935750Y-98815000D01*
X185777000Y-98973750D01*
X185523000Y-98973750D01*
X185364250Y-98815000D01*
X184950000Y-98811928D01*
X184825518Y-98824188D01*
X184705820Y-98860498D01*
X184595506Y-98919463D01*
X184498815Y-98998815D01*
X184419463Y-99095506D01*
X184360498Y-99205820D01*
X184324188Y-99325518D01*
X184311928Y-99450000D01*
X183511841Y-99450000D01*
X183500812Y-99338018D01*
X183464502Y-99218320D01*
X183405537Y-99108006D01*
X183326185Y-99011315D01*
X183229494Y-98931963D01*
X183119180Y-98872998D01*
X182999482Y-98836688D01*
X182875000Y-98824428D01*
X182435750Y-98827500D01*
X182277000Y-98986250D01*
X182023000Y-98986250D01*
X181864250Y-98827500D01*
X181425000Y-98824428D01*
X181300518Y-98836688D01*
X181180820Y-98872998D01*
X181070506Y-98931963D01*
X180973815Y-99011315D01*
X180894463Y-99108006D01*
X180835498Y-99218320D01*
X180799188Y-99338018D01*
X180786928Y-99462500D01*
X175137461Y-99462500D01*
X175138072Y-99400000D01*
X175125812Y-99275518D01*
X175089502Y-99155820D01*
X175030537Y-99045506D01*
X174951185Y-98948815D01*
X174854494Y-98869463D01*
X174744180Y-98810498D01*
X174624482Y-98774188D01*
X174500000Y-98761928D01*
X174085750Y-98765000D01*
X173927000Y-98923750D01*
X173673000Y-98923750D01*
X173514250Y-98765000D01*
X173100000Y-98761928D01*
X172975518Y-98774188D01*
X172855820Y-98810498D01*
X172745506Y-98869463D01*
X172648815Y-98948815D01*
X172569463Y-99045506D01*
X172510498Y-99155820D01*
X172474188Y-99275518D01*
X172461928Y-99400000D01*
X172464735Y-99687105D01*
X171865284Y-99087654D01*
X171841422Y-99058578D01*
X171725392Y-98963355D01*
X171593015Y-98892598D01*
X171449378Y-98849026D01*
X171337426Y-98838000D01*
X171337423Y-98838000D01*
X171300000Y-98834314D01*
X171262577Y-98838000D01*
X170137415Y-98838000D01*
X170099999Y-98834315D01*
X170062583Y-98838000D01*
X170062574Y-98838000D01*
X169950622Y-98849026D01*
X169878554Y-98870888D01*
X169803937Y-98759216D01*
X169659774Y-98615053D01*
X169490256Y-98501785D01*
X169301898Y-98423764D01*
X169101939Y-98383990D01*
X168898061Y-98383990D01*
X168698102Y-98423764D01*
X168509744Y-98501785D01*
X168340226Y-98615053D01*
X168298289Y-98656990D01*
X166318432Y-98656990D01*
X166281009Y-98653304D01*
X166243586Y-98656990D01*
X166243584Y-98656990D01*
X166131632Y-98668016D01*
X165987995Y-98711588D01*
X165855618Y-98782345D01*
X165794862Y-98832206D01*
X165789851Y-98829528D01*
X165623255Y-98778992D01*
X165450001Y-98761928D01*
X164549999Y-98761928D01*
X164376745Y-98778992D01*
X164210149Y-98829528D01*
X164056613Y-98911595D01*
X163922038Y-99022038D01*
X163811595Y-99156613D01*
X163729528Y-99310149D01*
X163678992Y-99476745D01*
X163661928Y-99649999D01*
X163661928Y-100350001D01*
X163678992Y-100523255D01*
X163729528Y-100689851D01*
X163811595Y-100843387D01*
X163922038Y-100977962D01*
X163948891Y-101000000D01*
X163922038Y-101022038D01*
X163811595Y-101156613D01*
X163729528Y-101310149D01*
X163728663Y-101313000D01*
X163050225Y-101313000D01*
X163013405Y-101244114D01*
X162902962Y-101109538D01*
X162896406Y-101104158D01*
X162976185Y-101038685D01*
X163055537Y-100941994D01*
X163114502Y-100831680D01*
X163150812Y-100711982D01*
X163163072Y-100587500D01*
X163160000Y-100285750D01*
X163001250Y-100127000D01*
X161927000Y-100127000D01*
X161927000Y-100147000D01*
X161673000Y-100147000D01*
X161673000Y-100127000D01*
X160598750Y-100127000D01*
X160440000Y-100285750D01*
X160436928Y-100587500D01*
X160449188Y-100711982D01*
X160485498Y-100831680D01*
X160544463Y-100941994D01*
X160623815Y-101038685D01*
X160703594Y-101104158D01*
X160697038Y-101109538D01*
X160586595Y-101244114D01*
X160504528Y-101397650D01*
X160453992Y-101564246D01*
X160436928Y-101737500D01*
X160436928Y-102412500D01*
X160453992Y-102585754D01*
X160504528Y-102752350D01*
X160586595Y-102905886D01*
X160697038Y-103040462D01*
X160707575Y-103049109D01*
X159988072Y-103768613D01*
X159988072Y-103649999D01*
X159971008Y-103476745D01*
X159920472Y-103310149D01*
X159838405Y-103156613D01*
X159727962Y-103022038D01*
X159593387Y-102911595D01*
X159439851Y-102829528D01*
X159273255Y-102778992D01*
X159100001Y-102761928D01*
X156199999Y-102761928D01*
X156026745Y-102778992D01*
X155860149Y-102829528D01*
X155706613Y-102911595D01*
X155572038Y-103022038D01*
X155461595Y-103156613D01*
X155379528Y-103310149D01*
X155328992Y-103476745D01*
X155311928Y-103649999D01*
X155311928Y-104550001D01*
X155328992Y-104723255D01*
X155379528Y-104889851D01*
X155461595Y-105043387D01*
X155572038Y-105177962D01*
X155668334Y-105256990D01*
X154438072Y-105256990D01*
X154438072Y-104649999D01*
X154421008Y-104476745D01*
X154370472Y-104310149D01*
X154303754Y-104185329D01*
X154327962Y-104165462D01*
X154438405Y-104030887D01*
X154520472Y-103877352D01*
X154571008Y-103710756D01*
X154588072Y-103537502D01*
X154588072Y-102712498D01*
X154571008Y-102539244D01*
X154520472Y-102372648D01*
X154438405Y-102219113D01*
X154327962Y-102084538D01*
X154193387Y-101974095D01*
X154039852Y-101892028D01*
X153873256Y-101841492D01*
X153700002Y-101824428D01*
X152399998Y-101824428D01*
X152226744Y-101841492D01*
X152060148Y-101892028D01*
X151906613Y-101974095D01*
X151772038Y-102084538D01*
X151661595Y-102219113D01*
X151579528Y-102372648D01*
X151528992Y-102539244D01*
X151511928Y-102712498D01*
X151511928Y-103537502D01*
X151528992Y-103710756D01*
X151579528Y-103877352D01*
X151661595Y-104030887D01*
X151772038Y-104165462D01*
X151865755Y-104242374D01*
X151829528Y-104310149D01*
X151778992Y-104476745D01*
X151761928Y-104649999D01*
X151761928Y-105256990D01*
X151513227Y-105256990D01*
X151475804Y-105253304D01*
X151438381Y-105256990D01*
X151438379Y-105256990D01*
X151326427Y-105268016D01*
X151182790Y-105311588D01*
X151050413Y-105382345D01*
X150983951Y-105436889D01*
X151007402Y-105393015D01*
X151050974Y-105249378D01*
X151062000Y-105137426D01*
X151062000Y-105137423D01*
X151065686Y-105100000D01*
X151062000Y-105062577D01*
X151062000Y-104101711D01*
X151103937Y-104059774D01*
X151217205Y-103890256D01*
X151295226Y-103701898D01*
X151335000Y-103501939D01*
X151335000Y-103298061D01*
X151295226Y-103098102D01*
X151217205Y-102909744D01*
X151103937Y-102740226D01*
X150959774Y-102596063D01*
X150790256Y-102482795D01*
X150601898Y-102404774D01*
X150401939Y-102365000D01*
X150198061Y-102365000D01*
X149998102Y-102404774D01*
X149809744Y-102482795D01*
X149752373Y-102521129D01*
X149763072Y-102412500D01*
X149763072Y-101737500D01*
X149746008Y-101564246D01*
X149695472Y-101397650D01*
X149613405Y-101244114D01*
X149502962Y-101109538D01*
X149496406Y-101104158D01*
X149576185Y-101038685D01*
X149655537Y-100941994D01*
X149714502Y-100831680D01*
X149750812Y-100711982D01*
X149755685Y-100662500D01*
X151511928Y-100662500D01*
X151524188Y-100786982D01*
X151560498Y-100906680D01*
X151619463Y-101016994D01*
X151698815Y-101113685D01*
X151795506Y-101193037D01*
X151905820Y-101252002D01*
X152025518Y-101288312D01*
X152150000Y-101300572D01*
X152764250Y-101297500D01*
X152923000Y-101138750D01*
X152923000Y-100127000D01*
X153177000Y-100127000D01*
X153177000Y-101138750D01*
X153335750Y-101297500D01*
X153950000Y-101300572D01*
X154074482Y-101288312D01*
X154194180Y-101252002D01*
X154304494Y-101193037D01*
X154401185Y-101113685D01*
X154480537Y-101016994D01*
X154539502Y-100906680D01*
X154575812Y-100786982D01*
X154584378Y-100700000D01*
X155311928Y-100700000D01*
X155324188Y-100824482D01*
X155360498Y-100944180D01*
X155419463Y-101054494D01*
X155498815Y-101151185D01*
X155595506Y-101230537D01*
X155705820Y-101289502D01*
X155825518Y-101325812D01*
X155950000Y-101338072D01*
X157364250Y-101335000D01*
X157523000Y-101176250D01*
X157523000Y-100127000D01*
X157777000Y-100127000D01*
X157777000Y-101176250D01*
X157935750Y-101335000D01*
X159350000Y-101338072D01*
X159474482Y-101325812D01*
X159594180Y-101289502D01*
X159704494Y-101230537D01*
X159801185Y-101151185D01*
X159880537Y-101054494D01*
X159939502Y-100944180D01*
X159975812Y-100824482D01*
X159988072Y-100700000D01*
X159985000Y-100285750D01*
X159826250Y-100127000D01*
X157777000Y-100127000D01*
X157523000Y-100127000D01*
X155473750Y-100127000D01*
X155315000Y-100285750D01*
X155311928Y-100700000D01*
X154584378Y-100700000D01*
X154588072Y-100662500D01*
X154585000Y-100285750D01*
X154426250Y-100127000D01*
X153177000Y-100127000D01*
X152923000Y-100127000D01*
X151673750Y-100127000D01*
X151515000Y-100285750D01*
X151511928Y-100662500D01*
X149755685Y-100662500D01*
X149763072Y-100587500D01*
X149760000Y-100285750D01*
X149601250Y-100127000D01*
X148527000Y-100127000D01*
X148527000Y-100147000D01*
X148273000Y-100147000D01*
X148273000Y-100127000D01*
X147198750Y-100127000D01*
X147040000Y-100285750D01*
X147036928Y-100587500D01*
X147049188Y-100711982D01*
X147085498Y-100831680D01*
X147144463Y-100941994D01*
X147223815Y-101038685D01*
X147303594Y-101104158D01*
X147297038Y-101109538D01*
X147186595Y-101244114D01*
X147104528Y-101397650D01*
X147053992Y-101564246D01*
X147036928Y-101737500D01*
X147036928Y-102391849D01*
X146901939Y-102364998D01*
X146698061Y-102364998D01*
X146498102Y-102404772D01*
X146482213Y-102411353D01*
X146470472Y-102372648D01*
X146388405Y-102219113D01*
X146277962Y-102084538D01*
X146143387Y-101974095D01*
X145989852Y-101892028D01*
X145823256Y-101841492D01*
X145650002Y-101824428D01*
X144349998Y-101824428D01*
X144176744Y-101841492D01*
X144010148Y-101892028D01*
X143856613Y-101974095D01*
X143722038Y-102084538D01*
X143611595Y-102219113D01*
X143529528Y-102372648D01*
X143506624Y-102448154D01*
X143401897Y-102404775D01*
X143201938Y-102365001D01*
X142998060Y-102365001D01*
X142798101Y-102404775D01*
X142609743Y-102482796D01*
X142440225Y-102596064D01*
X142296062Y-102740227D01*
X142182794Y-102909745D01*
X142104773Y-103098103D01*
X142064999Y-103298062D01*
X142064999Y-103357370D01*
X141660442Y-103761928D01*
X141049999Y-103761928D01*
X140876745Y-103778992D01*
X140710149Y-103829528D01*
X140556613Y-103911595D01*
X140422038Y-104022038D01*
X140311595Y-104156613D01*
X140229528Y-104310149D01*
X140178992Y-104476745D01*
X140161928Y-104649999D01*
X140161928Y-105350001D01*
X140178992Y-105523255D01*
X140229528Y-105689851D01*
X140311595Y-105843387D01*
X140422038Y-105977962D01*
X140448891Y-106000000D01*
X140422038Y-106022038D01*
X140311595Y-106156613D01*
X140268093Y-106238000D01*
X139415631Y-106238000D01*
X138362000Y-105184370D01*
X138362000Y-104425572D01*
X138700002Y-104425572D01*
X138873256Y-104408508D01*
X139039852Y-104357972D01*
X139193387Y-104275905D01*
X139327962Y-104165462D01*
X139438405Y-104030887D01*
X139520472Y-103877352D01*
X139571008Y-103710756D01*
X139588072Y-103537502D01*
X139588072Y-102712498D01*
X139571008Y-102539244D01*
X139520472Y-102372648D01*
X139438405Y-102219113D01*
X139327962Y-102084538D01*
X139193387Y-101974095D01*
X139039852Y-101892028D01*
X138873256Y-101841492D01*
X138700002Y-101824428D01*
X136499998Y-101824428D01*
X136326744Y-101841492D01*
X136160148Y-101892028D01*
X136006613Y-101974095D01*
X135872038Y-102084538D01*
X135761595Y-102219113D01*
X135679528Y-102372648D01*
X135628992Y-102539244D01*
X135611928Y-102712498D01*
X135611928Y-103537502D01*
X135628992Y-103710756D01*
X135679528Y-103877352D01*
X135761595Y-104030887D01*
X135872038Y-104165462D01*
X136006613Y-104275905D01*
X136160148Y-104357972D01*
X136326744Y-104408508D01*
X136499998Y-104425572D01*
X136838001Y-104425572D01*
X136838001Y-105462567D01*
X136834314Y-105500000D01*
X136849027Y-105649378D01*
X136892599Y-105793015D01*
X136963355Y-105925392D01*
X137034721Y-106012351D01*
X137058579Y-106041422D01*
X137087649Y-106065279D01*
X138534720Y-107512351D01*
X138558578Y-107541422D01*
X138674608Y-107636645D01*
X138806985Y-107707402D01*
X138907853Y-107738000D01*
X136937422Y-107738000D01*
X136899999Y-107734314D01*
X136862576Y-107738000D01*
X136862574Y-107738000D01*
X136750622Y-107749026D01*
X136606985Y-107792598D01*
X136474608Y-107863355D01*
X136358578Y-107958578D01*
X136334721Y-107987648D01*
X135560442Y-108761928D01*
X134949999Y-108761928D01*
X134776745Y-108778992D01*
X134610149Y-108829528D01*
X134456613Y-108911595D01*
X134322038Y-109022038D01*
X134211595Y-109156613D01*
X134129528Y-109310149D01*
X134078992Y-109476745D01*
X134061928Y-109649999D01*
X134061928Y-110350001D01*
X134078992Y-110523255D01*
X134129528Y-110689851D01*
X134211595Y-110843387D01*
X134322038Y-110977962D01*
X134348891Y-111000000D01*
X134322038Y-111022038D01*
X134211595Y-111156613D01*
X134129528Y-111310149D01*
X134078992Y-111476745D01*
X134061928Y-111649999D01*
X134061928Y-112350001D01*
X134078992Y-112523255D01*
X134129528Y-112689851D01*
X134211595Y-112843387D01*
X134322038Y-112977962D01*
X134456613Y-113088405D01*
X134610149Y-113170472D01*
X134638000Y-113178921D01*
X134638001Y-114366163D01*
X134635149Y-114367028D01*
X134481613Y-114449095D01*
X134347038Y-114559538D01*
X134236595Y-114694113D01*
X134154528Y-114847649D01*
X134103992Y-115014245D01*
X134086928Y-115187499D01*
X134086928Y-116262501D01*
X134103992Y-116435755D01*
X134154528Y-116602351D01*
X134236595Y-116755887D01*
X134347038Y-116890462D01*
X134481613Y-117000905D01*
X134635149Y-117082972D01*
X134801745Y-117133508D01*
X134974999Y-117150572D01*
X135825001Y-117150572D01*
X135998255Y-117133508D01*
X136164851Y-117082972D01*
X136318387Y-117000905D01*
X136452962Y-116890462D01*
X136563405Y-116755887D01*
X136645472Y-116602351D01*
X136675000Y-116505010D01*
X136704528Y-116602351D01*
X136786595Y-116755887D01*
X136897038Y-116890462D01*
X137031613Y-117000905D01*
X137185149Y-117082972D01*
X137351745Y-117133508D01*
X137524999Y-117150572D01*
X138375001Y-117150572D01*
X138548255Y-117133508D01*
X138714851Y-117082972D01*
X138868387Y-117000905D01*
X139002962Y-116890462D01*
X139113405Y-116755887D01*
X139195472Y-116602351D01*
X139246008Y-116435755D01*
X139263072Y-116262501D01*
X139263072Y-115476931D01*
X139276645Y-115460392D01*
X139347402Y-115328015D01*
X139390974Y-115184378D01*
X139402000Y-115072426D01*
X139402000Y-115072424D01*
X139405686Y-115035001D01*
X139402000Y-114997578D01*
X139402000Y-113178920D01*
X139429851Y-113170472D01*
X139583387Y-113088405D01*
X139717962Y-112977962D01*
X139828405Y-112843387D01*
X139910472Y-112689851D01*
X139961008Y-112523255D01*
X139978072Y-112350001D01*
X139978072Y-111649999D01*
X139961008Y-111476745D01*
X139910472Y-111310149D01*
X139828405Y-111156613D01*
X139717962Y-111022038D01*
X139691109Y-111000000D01*
X139717962Y-110977962D01*
X139828405Y-110843387D01*
X139871907Y-110762000D01*
X146760369Y-110762000D01*
X143338072Y-114184298D01*
X143338072Y-113950000D01*
X143321008Y-113776746D01*
X143270472Y-113610150D01*
X143188405Y-113456614D01*
X143077962Y-113322038D01*
X142943386Y-113211595D01*
X142789850Y-113129528D01*
X142623254Y-113078992D01*
X142450000Y-113061928D01*
X141350000Y-113061928D01*
X141176746Y-113078992D01*
X141010150Y-113129528D01*
X140856614Y-113211595D01*
X140722038Y-113322038D01*
X140611595Y-113456614D01*
X140529528Y-113610150D01*
X140478992Y-113776746D01*
X140461928Y-113950000D01*
X140461928Y-116050000D01*
X140478992Y-116223254D01*
X140529528Y-116389850D01*
X140611595Y-116543386D01*
X140722038Y-116677962D01*
X140856614Y-116788405D01*
X140878307Y-116800000D01*
X140856614Y-116811595D01*
X140722038Y-116922038D01*
X140611595Y-117056614D01*
X140529528Y-117210150D01*
X140478992Y-117376746D01*
X140471088Y-117457000D01*
X139021396Y-117457000D01*
X139002962Y-117434538D01*
X138868387Y-117324095D01*
X138714851Y-117242028D01*
X138548255Y-117191492D01*
X138375001Y-117174428D01*
X137524999Y-117174428D01*
X137351745Y-117191492D01*
X137185149Y-117242028D01*
X137031613Y-117324095D01*
X136897038Y-117434538D01*
X136878604Y-117457000D01*
X136471396Y-117457000D01*
X136452962Y-117434538D01*
X136318387Y-117324095D01*
X136164851Y-117242028D01*
X135998255Y-117191492D01*
X135825001Y-117174428D01*
X134974999Y-117174428D01*
X134801745Y-117191492D01*
X134635149Y-117242028D01*
X134481613Y-117324095D01*
X134347038Y-117434538D01*
X134236595Y-117569113D01*
X134154528Y-117722649D01*
X134103992Y-117889245D01*
X134086928Y-118062499D01*
X134086928Y-119137501D01*
X134103992Y-119310755D01*
X134154528Y-119477351D01*
X134236595Y-119630887D01*
X134347038Y-119765462D01*
X134481613Y-119875905D01*
X134635149Y-119957972D01*
X134801745Y-120008508D01*
X134974999Y-120025572D01*
X135825001Y-120025572D01*
X135998255Y-120008508D01*
X136164851Y-119957972D01*
X136318387Y-119875905D01*
X136452962Y-119765462D01*
X136471396Y-119743000D01*
X136878604Y-119743000D01*
X136897038Y-119765462D01*
X137031613Y-119875905D01*
X137185149Y-119957972D01*
X137351745Y-120008508D01*
X137524999Y-120025572D01*
X138375001Y-120025572D01*
X138548255Y-120008508D01*
X138714851Y-119957972D01*
X138868387Y-119875905D01*
X139002962Y-119765462D01*
X139021396Y-119743000D01*
X140471088Y-119743000D01*
X140478992Y-119823254D01*
X140529528Y-119989850D01*
X140611595Y-120143386D01*
X140722038Y-120277962D01*
X140757001Y-120306655D01*
X140757001Y-120326554D01*
X140231482Y-120852073D01*
X140187867Y-120887867D01*
X140045032Y-121061912D01*
X139938897Y-121260478D01*
X139873539Y-121475934D01*
X139857000Y-121643855D01*
X139857000Y-121643861D01*
X139851471Y-121700000D01*
X139857000Y-121756139D01*
X139857000Y-122072431D01*
X139810537Y-121985506D01*
X139731185Y-121888815D01*
X139634494Y-121809463D01*
X139524180Y-121750498D01*
X139404482Y-121714188D01*
X139280000Y-121701928D01*
X138715750Y-121705000D01*
X138557000Y-121863750D01*
X138557000Y-123063000D01*
X138577000Y-123063000D01*
X138577000Y-123317000D01*
X138557000Y-123317000D01*
X138557000Y-123337000D01*
X138303000Y-123337000D01*
X138303000Y-123317000D01*
X137103750Y-123317000D01*
X136945000Y-123475750D01*
X136941928Y-124040000D01*
X136954188Y-124164482D01*
X136990498Y-124284180D01*
X137006972Y-124315000D01*
X132685000Y-124315000D01*
X132685000Y-122340000D01*
X136941928Y-122340000D01*
X136945000Y-122904250D01*
X137103750Y-123063000D01*
X138303000Y-123063000D01*
X138303000Y-121863750D01*
X138144250Y-121705000D01*
X137580000Y-121701928D01*
X137455518Y-121714188D01*
X137335820Y-121750498D01*
X137225506Y-121809463D01*
X137128815Y-121888815D01*
X137049463Y-121985506D01*
X136990498Y-122095820D01*
X136954188Y-122215518D01*
X136941928Y-122340000D01*
X132685000Y-122340000D01*
X132685000Y-100662500D01*
X135611928Y-100662500D01*
X135624188Y-100786982D01*
X135660498Y-100906680D01*
X135719463Y-101016994D01*
X135798815Y-101113685D01*
X135895506Y-101193037D01*
X136005820Y-101252002D01*
X136125518Y-101288312D01*
X136250000Y-101300572D01*
X137314250Y-101297500D01*
X137473000Y-101138750D01*
X137473000Y-100127000D01*
X137727000Y-100127000D01*
X137727000Y-101138750D01*
X137885750Y-101297500D01*
X138950000Y-101300572D01*
X139074482Y-101288312D01*
X139194180Y-101252002D01*
X139304494Y-101193037D01*
X139401185Y-101113685D01*
X139480537Y-101016994D01*
X139539502Y-100906680D01*
X139575812Y-100786982D01*
X139588072Y-100662500D01*
X143461928Y-100662500D01*
X143474188Y-100786982D01*
X143510498Y-100906680D01*
X143569463Y-101016994D01*
X143648815Y-101113685D01*
X143745506Y-101193037D01*
X143855820Y-101252002D01*
X143975518Y-101288312D01*
X144100000Y-101300572D01*
X144714250Y-101297500D01*
X144873000Y-101138750D01*
X144873000Y-100127000D01*
X145127000Y-100127000D01*
X145127000Y-101138750D01*
X145285750Y-101297500D01*
X145900000Y-101300572D01*
X146024482Y-101288312D01*
X146144180Y-101252002D01*
X146254494Y-101193037D01*
X146351185Y-101113685D01*
X146430537Y-101016994D01*
X146489502Y-100906680D01*
X146525812Y-100786982D01*
X146538072Y-100662500D01*
X146535000Y-100285750D01*
X146376250Y-100127000D01*
X145127000Y-100127000D01*
X144873000Y-100127000D01*
X143623750Y-100127000D01*
X143465000Y-100285750D01*
X143461928Y-100662500D01*
X139588072Y-100662500D01*
X139585000Y-100285750D01*
X139426250Y-100127000D01*
X137727000Y-100127000D01*
X137473000Y-100127000D01*
X135773750Y-100127000D01*
X135615000Y-100285750D01*
X135611928Y-100662500D01*
X132685000Y-100662500D01*
X132685000Y-99337500D01*
X135611928Y-99337500D01*
X135615000Y-99714250D01*
X135773750Y-99873000D01*
X137473000Y-99873000D01*
X137473000Y-98861250D01*
X137727000Y-98861250D01*
X137727000Y-99873000D01*
X139426250Y-99873000D01*
X139585000Y-99714250D01*
X139588072Y-99337500D01*
X143461928Y-99337500D01*
X143465000Y-99714250D01*
X143623750Y-99873000D01*
X144873000Y-99873000D01*
X144873000Y-98861250D01*
X145127000Y-98861250D01*
X145127000Y-99873000D01*
X146376250Y-99873000D01*
X146535000Y-99714250D01*
X146537460Y-99412500D01*
X147036928Y-99412500D01*
X147040000Y-99714250D01*
X147198750Y-99873000D01*
X148273000Y-99873000D01*
X148273000Y-98936250D01*
X148527000Y-98936250D01*
X148527000Y-99873000D01*
X149601250Y-99873000D01*
X149760000Y-99714250D01*
X149763072Y-99412500D01*
X149755686Y-99337500D01*
X151511928Y-99337500D01*
X151515000Y-99714250D01*
X151673750Y-99873000D01*
X152923000Y-99873000D01*
X152923000Y-98861250D01*
X153177000Y-98861250D01*
X153177000Y-99873000D01*
X154426250Y-99873000D01*
X154585000Y-99714250D01*
X154588072Y-99337500D01*
X154584379Y-99300000D01*
X155311928Y-99300000D01*
X155315000Y-99714250D01*
X155473750Y-99873000D01*
X157523000Y-99873000D01*
X157523000Y-98823750D01*
X157777000Y-98823750D01*
X157777000Y-99873000D01*
X159826250Y-99873000D01*
X159985000Y-99714250D01*
X159987237Y-99412500D01*
X160436928Y-99412500D01*
X160440000Y-99714250D01*
X160598750Y-99873000D01*
X161673000Y-99873000D01*
X161673000Y-98936250D01*
X161927000Y-98936250D01*
X161927000Y-99873000D01*
X163001250Y-99873000D01*
X163160000Y-99714250D01*
X163163072Y-99412500D01*
X163150812Y-99288018D01*
X163114502Y-99168320D01*
X163055537Y-99058006D01*
X162976185Y-98961315D01*
X162879494Y-98881963D01*
X162769180Y-98822998D01*
X162649482Y-98786688D01*
X162525000Y-98774428D01*
X162085750Y-98777500D01*
X161927000Y-98936250D01*
X161673000Y-98936250D01*
X161514250Y-98777500D01*
X161075000Y-98774428D01*
X160950518Y-98786688D01*
X160830820Y-98822998D01*
X160720506Y-98881963D01*
X160623815Y-98961315D01*
X160544463Y-99058006D01*
X160485498Y-99168320D01*
X160449188Y-99288018D01*
X160436928Y-99412500D01*
X159987237Y-99412500D01*
X159988072Y-99300000D01*
X159975812Y-99175518D01*
X159939502Y-99055820D01*
X159880537Y-98945506D01*
X159801185Y-98848815D01*
X159704494Y-98769463D01*
X159594180Y-98710498D01*
X159474482Y-98674188D01*
X159350000Y-98661928D01*
X157935750Y-98665000D01*
X157777000Y-98823750D01*
X157523000Y-98823750D01*
X157364250Y-98665000D01*
X155950000Y-98661928D01*
X155825518Y-98674188D01*
X155705820Y-98710498D01*
X155595506Y-98769463D01*
X155498815Y-98848815D01*
X155419463Y-98945506D01*
X155360498Y-99055820D01*
X155324188Y-99175518D01*
X155311928Y-99300000D01*
X154584379Y-99300000D01*
X154575812Y-99213018D01*
X154539502Y-99093320D01*
X154480537Y-98983006D01*
X154401185Y-98886315D01*
X154304494Y-98806963D01*
X154194180Y-98747998D01*
X154074482Y-98711688D01*
X153950000Y-98699428D01*
X153335750Y-98702500D01*
X153177000Y-98861250D01*
X152923000Y-98861250D01*
X152764250Y-98702500D01*
X152150000Y-98699428D01*
X152025518Y-98711688D01*
X151905820Y-98747998D01*
X151795506Y-98806963D01*
X151698815Y-98886315D01*
X151619463Y-98983006D01*
X151560498Y-99093320D01*
X151524188Y-99213018D01*
X151511928Y-99337500D01*
X149755686Y-99337500D01*
X149750812Y-99288018D01*
X149714502Y-99168320D01*
X149655537Y-99058006D01*
X149576185Y-98961315D01*
X149479494Y-98881963D01*
X149369180Y-98822998D01*
X149249482Y-98786688D01*
X149125000Y-98774428D01*
X148685750Y-98777500D01*
X148527000Y-98936250D01*
X148273000Y-98936250D01*
X148114250Y-98777500D01*
X147675000Y-98774428D01*
X147550518Y-98786688D01*
X147430820Y-98822998D01*
X147320506Y-98881963D01*
X147223815Y-98961315D01*
X147144463Y-99058006D01*
X147085498Y-99168320D01*
X147049188Y-99288018D01*
X147036928Y-99412500D01*
X146537460Y-99412500D01*
X146538072Y-99337500D01*
X146525812Y-99213018D01*
X146489502Y-99093320D01*
X146430537Y-98983006D01*
X146351185Y-98886315D01*
X146254494Y-98806963D01*
X146144180Y-98747998D01*
X146024482Y-98711688D01*
X145900000Y-98699428D01*
X145285750Y-98702500D01*
X145127000Y-98861250D01*
X144873000Y-98861250D01*
X144714250Y-98702500D01*
X144100000Y-98699428D01*
X143975518Y-98711688D01*
X143855820Y-98747998D01*
X143745506Y-98806963D01*
X143648815Y-98886315D01*
X143569463Y-98983006D01*
X143510498Y-99093320D01*
X143474188Y-99213018D01*
X143461928Y-99337500D01*
X139588072Y-99337500D01*
X139575812Y-99213018D01*
X139539502Y-99093320D01*
X139480537Y-98983006D01*
X139401185Y-98886315D01*
X139304494Y-98806963D01*
X139194180Y-98747998D01*
X139074482Y-98711688D01*
X138950000Y-98699428D01*
X137885750Y-98702500D01*
X137727000Y-98861250D01*
X137473000Y-98861250D01*
X137314250Y-98702500D01*
X136250000Y-98699428D01*
X136125518Y-98711688D01*
X136005820Y-98747998D01*
X135895506Y-98806963D01*
X135798815Y-98886315D01*
X135719463Y-98983006D01*
X135660498Y-99093320D01*
X135624188Y-99213018D01*
X135611928Y-99337500D01*
X132685000Y-99337500D01*
X132685000Y-97685000D01*
X207315001Y-97685000D01*
X207315000Y-124315000D01*
G04 #@! TA.AperFunction,Conductor*
D16*
G36*
X207315000Y-124315000D02*
G01*
X205433518Y-124315000D01*
X205470269Y-124287588D01*
X205665178Y-124071355D01*
X205814157Y-123821252D01*
X205911481Y-123546891D01*
X205790814Y-123317000D01*
X204597000Y-123317000D01*
X204597000Y-123337000D01*
X204343000Y-123337000D01*
X204343000Y-123317000D01*
X204323000Y-123317000D01*
X204323000Y-123063000D01*
X204343000Y-123063000D01*
X204343000Y-121869845D01*
X204597000Y-121869845D01*
X204597000Y-123063000D01*
X205790814Y-123063000D01*
X205911481Y-122833109D01*
X205814157Y-122558748D01*
X205665178Y-122308645D01*
X205470269Y-122092412D01*
X205236920Y-121918359D01*
X204974099Y-121793175D01*
X204826890Y-121748524D01*
X204597000Y-121869845D01*
X204343000Y-121869845D01*
X204113110Y-121748524D01*
X203965901Y-121793175D01*
X203703080Y-121918359D01*
X203469731Y-122092412D01*
X203274822Y-122308645D01*
X203205195Y-122425534D01*
X203083475Y-122243368D01*
X202876632Y-122036525D01*
X202633411Y-121874010D01*
X202363158Y-121762068D01*
X202076260Y-121705000D01*
X201783740Y-121705000D01*
X201496842Y-121762068D01*
X201226589Y-121874010D01*
X200983368Y-122036525D01*
X200776525Y-122243368D01*
X200660000Y-122417760D01*
X200543475Y-122243368D01*
X200336632Y-122036525D01*
X200093411Y-121874010D01*
X199823158Y-121762068D01*
X199536260Y-121705000D01*
X199243740Y-121705000D01*
X198956842Y-121762068D01*
X198686589Y-121874010D01*
X198443368Y-122036525D01*
X198236525Y-122243368D01*
X198120000Y-122417760D01*
X198003475Y-122243368D01*
X197796632Y-122036525D01*
X197553411Y-121874010D01*
X197283158Y-121762068D01*
X196996260Y-121705000D01*
X196703740Y-121705000D01*
X196416842Y-121762068D01*
X196146589Y-121874010D01*
X195903368Y-122036525D01*
X195696525Y-122243368D01*
X195580000Y-122417760D01*
X195463475Y-122243368D01*
X195256632Y-122036525D01*
X195013411Y-121874010D01*
X194743158Y-121762068D01*
X194456260Y-121705000D01*
X194163740Y-121705000D01*
X193876842Y-121762068D01*
X193606589Y-121874010D01*
X193363368Y-122036525D01*
X193156525Y-122243368D01*
X193040000Y-122417760D01*
X192923475Y-122243368D01*
X192716632Y-122036525D01*
X192473411Y-121874010D01*
X192203158Y-121762068D01*
X191916260Y-121705000D01*
X191623740Y-121705000D01*
X191336842Y-121762068D01*
X191066589Y-121874010D01*
X190823368Y-122036525D01*
X190616525Y-122243368D01*
X190500000Y-122417760D01*
X190383475Y-122243368D01*
X190176632Y-122036525D01*
X189933411Y-121874010D01*
X189663158Y-121762068D01*
X189376260Y-121705000D01*
X189083740Y-121705000D01*
X188796842Y-121762068D01*
X188526589Y-121874010D01*
X188283368Y-122036525D01*
X188076525Y-122243368D01*
X187954805Y-122425534D01*
X187885178Y-122308645D01*
X187690269Y-122092412D01*
X187456920Y-121918359D01*
X187194099Y-121793175D01*
X187046890Y-121748524D01*
X186817000Y-121869845D01*
X186817000Y-123063000D01*
X186837000Y-123063000D01*
X186837000Y-123317000D01*
X186817000Y-123317000D01*
X186817000Y-123337000D01*
X186563000Y-123337000D01*
X186563000Y-123317000D01*
X186543000Y-123317000D01*
X186543000Y-123063000D01*
X186563000Y-123063000D01*
X186563000Y-121869845D01*
X186333110Y-121748524D01*
X186185901Y-121793175D01*
X185923080Y-121918359D01*
X185689731Y-122092412D01*
X185494822Y-122308645D01*
X185425195Y-122425534D01*
X185303475Y-122243368D01*
X185096632Y-122036525D01*
X184853411Y-121874010D01*
X184583158Y-121762068D01*
X184296260Y-121705000D01*
X184003740Y-121705000D01*
X183716842Y-121762068D01*
X183446589Y-121874010D01*
X183203368Y-122036525D01*
X182996525Y-122243368D01*
X182880000Y-122417760D01*
X182763475Y-122243368D01*
X182556632Y-122036525D01*
X182313411Y-121874010D01*
X182043158Y-121762068D01*
X181756260Y-121705000D01*
X181463740Y-121705000D01*
X181176842Y-121762068D01*
X180906589Y-121874010D01*
X180663368Y-122036525D01*
X180456525Y-122243368D01*
X180334805Y-122425534D01*
X180265178Y-122308645D01*
X180070269Y-122092412D01*
X179836920Y-121918359D01*
X179574099Y-121793175D01*
X179426890Y-121748524D01*
X179197002Y-121869844D01*
X179197002Y-121760233D01*
X179552104Y-121405131D01*
X179601897Y-121395227D01*
X179790255Y-121317206D01*
X179959773Y-121203938D01*
X180103936Y-121059775D01*
X180151226Y-120989000D01*
X186756340Y-120989000D01*
X186800000Y-120993300D01*
X186843660Y-120989000D01*
X186843667Y-120989000D01*
X186974274Y-120976136D01*
X187141851Y-120925303D01*
X187296291Y-120842753D01*
X187431659Y-120731659D01*
X187459499Y-120697736D01*
X190468236Y-117689000D01*
X203956340Y-117689000D01*
X204000000Y-117693300D01*
X204043660Y-117689000D01*
X204043667Y-117689000D01*
X204174274Y-117676136D01*
X204341851Y-117625303D01*
X204496291Y-117542753D01*
X204631659Y-117431659D01*
X204659499Y-117397736D01*
X206197742Y-115859494D01*
X206231659Y-115831659D01*
X206342753Y-115696291D01*
X206425303Y-115541851D01*
X206476136Y-115374274D01*
X206489000Y-115243667D01*
X206489000Y-115243660D01*
X206493300Y-115200000D01*
X206489000Y-115156340D01*
X206489000Y-111032468D01*
X206517205Y-110990256D01*
X206595226Y-110801898D01*
X206635000Y-110601939D01*
X206635000Y-110398061D01*
X206595226Y-110198102D01*
X206517205Y-110009744D01*
X206403937Y-109840226D01*
X206259774Y-109696063D01*
X206090256Y-109582795D01*
X205901898Y-109504774D01*
X205701939Y-109465000D01*
X205592235Y-109465000D01*
X205852105Y-109205130D01*
X205901898Y-109195226D01*
X206090256Y-109117205D01*
X206259774Y-109003937D01*
X206403937Y-108859774D01*
X206517205Y-108690256D01*
X206595226Y-108501898D01*
X206635000Y-108301939D01*
X206635000Y-108098061D01*
X206595226Y-107898102D01*
X206517205Y-107709744D01*
X206403937Y-107540226D01*
X206259774Y-107396063D01*
X206090256Y-107282795D01*
X205901898Y-107204774D01*
X205701939Y-107165000D01*
X205498061Y-107165000D01*
X205298102Y-107204774D01*
X205109744Y-107282795D01*
X204940226Y-107396063D01*
X204796063Y-107540226D01*
X204682795Y-107709744D01*
X204604774Y-107898102D01*
X204594870Y-107947895D01*
X204002265Y-108540500D01*
X203968342Y-108568340D01*
X203857248Y-108703709D01*
X203774698Y-108858149D01*
X203746836Y-108950000D01*
X203724984Y-109022038D01*
X203723865Y-109025726D01*
X203711001Y-109156333D01*
X203711001Y-109156339D01*
X203706701Y-109199999D01*
X203711001Y-109243659D01*
X203711001Y-110493422D01*
X203614850Y-110442028D01*
X203562000Y-110425996D01*
X203562000Y-108249004D01*
X203614850Y-108232972D01*
X203768386Y-108150905D01*
X203902962Y-108040462D01*
X204013405Y-107905886D01*
X204095472Y-107752350D01*
X204146008Y-107585754D01*
X204163072Y-107412500D01*
X204163072Y-107214558D01*
X204612351Y-106765279D01*
X204641422Y-106741422D01*
X204706131Y-106662574D01*
X204736645Y-106625393D01*
X204781528Y-106541421D01*
X204807402Y-106493015D01*
X204850974Y-106349378D01*
X204862000Y-106237426D01*
X204862000Y-106237423D01*
X204865686Y-106200000D01*
X204862000Y-106162577D01*
X204862000Y-103437422D01*
X204865686Y-103399999D01*
X204860818Y-103350572D01*
X204850974Y-103250622D01*
X204807402Y-103106985D01*
X204802655Y-103098103D01*
X204765163Y-103027962D01*
X204736645Y-102974608D01*
X204641422Y-102858578D01*
X204612352Y-102834721D01*
X203315284Y-101537654D01*
X203291422Y-101508578D01*
X203175392Y-101413355D01*
X203043015Y-101342598D01*
X202899378Y-101299026D01*
X202787426Y-101288000D01*
X202787423Y-101288000D01*
X202750000Y-101284314D01*
X202712577Y-101288000D01*
X200881907Y-101288000D01*
X200838405Y-101206613D01*
X200771724Y-101125363D01*
X200801185Y-101101185D01*
X200880537Y-101004494D01*
X200939502Y-100894180D01*
X200975812Y-100774482D01*
X200988072Y-100650000D01*
X200985000Y-100335750D01*
X200826250Y-100177000D01*
X199777000Y-100177000D01*
X199777000Y-100197000D01*
X199523000Y-100197000D01*
X199523000Y-100177000D01*
X198473750Y-100177000D01*
X198315000Y-100335750D01*
X198311928Y-100650000D01*
X198324188Y-100774482D01*
X198360498Y-100894180D01*
X198419463Y-101004494D01*
X198498815Y-101101185D01*
X198528276Y-101125363D01*
X198461595Y-101206613D01*
X198379528Y-101360149D01*
X198328992Y-101526745D01*
X198311928Y-101699999D01*
X198311928Y-102400001D01*
X198328992Y-102573255D01*
X198379528Y-102739851D01*
X198461595Y-102893387D01*
X198572038Y-103027962D01*
X198706613Y-103138405D01*
X198860149Y-103220472D01*
X199026745Y-103271008D01*
X199199999Y-103288072D01*
X200100001Y-103288072D01*
X200273255Y-103271008D01*
X200439851Y-103220472D01*
X200593387Y-103138405D01*
X200727962Y-103027962D01*
X200838405Y-102893387D01*
X200881907Y-102812000D01*
X202434370Y-102812000D01*
X203338000Y-103715631D01*
X203338000Y-103780633D01*
X203275000Y-103774428D01*
X202325000Y-103774428D01*
X202151746Y-103791492D01*
X201985150Y-103842028D01*
X201831614Y-103924095D01*
X201697038Y-104034538D01*
X201586595Y-104169114D01*
X201549775Y-104238000D01*
X200881907Y-104238000D01*
X200838405Y-104156613D01*
X200727962Y-104022038D01*
X200593387Y-103911595D01*
X200439851Y-103829528D01*
X200273255Y-103778992D01*
X200100001Y-103761928D01*
X199199999Y-103761928D01*
X199026745Y-103778992D01*
X198860149Y-103829528D01*
X198706613Y-103911595D01*
X198572038Y-104022038D01*
X198461595Y-104156613D01*
X198418093Y-104238000D01*
X197765315Y-104238000D01*
X197688405Y-104094113D01*
X197577962Y-103959538D01*
X197443387Y-103849095D01*
X197289852Y-103767028D01*
X197123256Y-103716492D01*
X197062000Y-103710459D01*
X197062000Y-103228920D01*
X197089851Y-103220472D01*
X197243387Y-103138405D01*
X197377962Y-103027962D01*
X197488405Y-102893387D01*
X197570472Y-102739851D01*
X197621008Y-102573255D01*
X197638072Y-102400001D01*
X197638072Y-101699999D01*
X197621008Y-101526745D01*
X197570472Y-101360149D01*
X197488405Y-101206613D01*
X197421724Y-101125363D01*
X197451185Y-101101185D01*
X197530537Y-101004494D01*
X197589502Y-100894180D01*
X197625812Y-100774482D01*
X197638072Y-100650000D01*
X197635000Y-100335750D01*
X197476250Y-100177000D01*
X196427000Y-100177000D01*
X196427000Y-100197000D01*
X196173000Y-100197000D01*
X196173000Y-100177000D01*
X195123750Y-100177000D01*
X194965000Y-100335750D01*
X194961928Y-100650000D01*
X194974188Y-100774482D01*
X195010498Y-100894180D01*
X195069463Y-101004494D01*
X195148815Y-101101185D01*
X195178276Y-101125363D01*
X195111595Y-101206613D01*
X195029528Y-101360149D01*
X194978992Y-101526745D01*
X194961928Y-101699999D01*
X194961928Y-102400001D01*
X194978992Y-102573255D01*
X195029528Y-102739851D01*
X195111595Y-102893387D01*
X195222038Y-103027962D01*
X195356613Y-103138405D01*
X195510149Y-103220472D01*
X195538000Y-103228921D01*
X195538001Y-103710459D01*
X195476744Y-103716492D01*
X195310148Y-103767028D01*
X195156613Y-103849095D01*
X195022038Y-103959538D01*
X194911595Y-104094113D01*
X194829528Y-104247648D01*
X194778992Y-104414244D01*
X194761928Y-104587498D01*
X194761928Y-105412502D01*
X194778992Y-105585756D01*
X194829528Y-105752352D01*
X194911595Y-105905887D01*
X195022038Y-106040462D01*
X195156613Y-106150905D01*
X195310148Y-106232972D01*
X195476744Y-106283508D01*
X195649998Y-106300572D01*
X196950002Y-106300572D01*
X197123256Y-106283508D01*
X197289852Y-106232972D01*
X197443387Y-106150905D01*
X197577962Y-106040462D01*
X197688405Y-105905887D01*
X197765315Y-105762000D01*
X198418093Y-105762000D01*
X198461595Y-105843387D01*
X198572038Y-105977962D01*
X198598891Y-106000000D01*
X198572038Y-106022038D01*
X198461595Y-106156613D01*
X198379528Y-106310149D01*
X198328992Y-106476745D01*
X198311928Y-106649999D01*
X198311928Y-107260442D01*
X198209370Y-107363000D01*
X197765315Y-107363000D01*
X197688405Y-107219113D01*
X197577962Y-107084538D01*
X197443387Y-106974095D01*
X197289852Y-106892028D01*
X197123256Y-106841492D01*
X196950002Y-106824428D01*
X195649998Y-106824428D01*
X195476744Y-106841492D01*
X195310148Y-106892028D01*
X195156613Y-106974095D01*
X195022038Y-107084538D01*
X194911595Y-107219113D01*
X194834685Y-107363000D01*
X194165315Y-107363000D01*
X194088405Y-107219113D01*
X193977962Y-107084538D01*
X193843387Y-106974095D01*
X193689852Y-106892028D01*
X193523256Y-106841492D01*
X193350002Y-106824428D01*
X192049998Y-106824428D01*
X191876744Y-106841492D01*
X191710148Y-106892028D01*
X191556613Y-106974095D01*
X191422038Y-107084538D01*
X191311595Y-107219113D01*
X191229528Y-107372648D01*
X191209704Y-107438000D01*
X190529405Y-107438000D01*
X190538072Y-107350001D01*
X190538072Y-106739558D01*
X191338707Y-105938923D01*
X191422038Y-106040462D01*
X191556613Y-106150905D01*
X191710148Y-106232972D01*
X191876744Y-106283508D01*
X192049998Y-106300572D01*
X193350002Y-106300572D01*
X193523256Y-106283508D01*
X193689852Y-106232972D01*
X193843387Y-106150905D01*
X193977962Y-106040462D01*
X194088405Y-105905887D01*
X194170472Y-105752352D01*
X194221008Y-105585756D01*
X194238072Y-105412502D01*
X194238072Y-104587498D01*
X194221008Y-104414244D01*
X194170472Y-104247648D01*
X194088405Y-104094113D01*
X193977962Y-103959538D01*
X193843387Y-103849095D01*
X193689852Y-103767028D01*
X193523256Y-103716492D01*
X193462000Y-103710459D01*
X193462000Y-103228920D01*
X193489851Y-103220472D01*
X193643387Y-103138405D01*
X193777962Y-103027962D01*
X193888405Y-102893387D01*
X193970472Y-102739851D01*
X194021008Y-102573255D01*
X194038072Y-102400001D01*
X194038072Y-101699999D01*
X194021008Y-101526745D01*
X193970472Y-101360149D01*
X193888405Y-101206613D01*
X193821724Y-101125363D01*
X193851185Y-101101185D01*
X193930537Y-101004494D01*
X193989502Y-100894180D01*
X194025812Y-100774482D01*
X194038072Y-100650000D01*
X194035000Y-100335750D01*
X193876250Y-100177000D01*
X192827000Y-100177000D01*
X192827000Y-100197000D01*
X192573000Y-100197000D01*
X192573000Y-100177000D01*
X191523750Y-100177000D01*
X191365000Y-100335750D01*
X191361928Y-100650000D01*
X191374188Y-100774482D01*
X191410498Y-100894180D01*
X191469463Y-101004494D01*
X191548815Y-101101185D01*
X191578276Y-101125363D01*
X191511595Y-101206613D01*
X191429528Y-101360149D01*
X191378992Y-101526745D01*
X191361928Y-101699999D01*
X191361928Y-102400001D01*
X191378992Y-102573255D01*
X191429528Y-102739851D01*
X191511595Y-102893387D01*
X191622038Y-103027962D01*
X191756613Y-103138405D01*
X191910149Y-103220472D01*
X191938000Y-103228921D01*
X191938001Y-103710459D01*
X191876744Y-103716492D01*
X191710148Y-103767028D01*
X191556613Y-103849095D01*
X191422038Y-103959538D01*
X191311595Y-104094113D01*
X191234822Y-104237744D01*
X191199999Y-104234314D01*
X191162576Y-104238000D01*
X191162574Y-104238000D01*
X191050622Y-104249026D01*
X190906985Y-104292598D01*
X190774608Y-104363355D01*
X190658578Y-104458578D01*
X190634721Y-104487648D01*
X190532181Y-104590188D01*
X190521008Y-104476745D01*
X190470472Y-104310149D01*
X190388405Y-104156613D01*
X190277962Y-104022038D01*
X190143387Y-103911595D01*
X189989851Y-103829528D01*
X189962000Y-103821080D01*
X189962000Y-103299004D01*
X190014850Y-103282972D01*
X190168386Y-103200905D01*
X190302962Y-103090462D01*
X190413405Y-102955886D01*
X190495472Y-102802350D01*
X190546008Y-102635754D01*
X190563072Y-102462500D01*
X190563072Y-101787500D01*
X190546008Y-101614246D01*
X190495472Y-101447650D01*
X190413405Y-101294114D01*
X190302962Y-101159538D01*
X190296406Y-101154158D01*
X190376185Y-101088685D01*
X190455537Y-100991994D01*
X190514502Y-100881680D01*
X190550812Y-100761982D01*
X190563072Y-100637500D01*
X190560000Y-100335750D01*
X190401250Y-100177000D01*
X189327000Y-100177000D01*
X189327000Y-100197000D01*
X189073000Y-100197000D01*
X189073000Y-100177000D01*
X187998750Y-100177000D01*
X187840000Y-100335750D01*
X187836928Y-100637500D01*
X187849188Y-100761982D01*
X187885498Y-100881680D01*
X187944463Y-100991994D01*
X188023815Y-101088685D01*
X188103594Y-101154158D01*
X188097038Y-101159538D01*
X187986595Y-101294114D01*
X187904528Y-101447650D01*
X187853992Y-101614246D01*
X187836928Y-101787500D01*
X187836928Y-102462500D01*
X187853992Y-102635754D01*
X187904528Y-102802350D01*
X187986595Y-102955886D01*
X188097038Y-103090462D01*
X188231614Y-103200905D01*
X188385150Y-103282972D01*
X188438000Y-103299004D01*
X188438001Y-103821079D01*
X188410149Y-103829528D01*
X188256613Y-103911595D01*
X188122038Y-104022038D01*
X188011595Y-104156613D01*
X187929528Y-104310149D01*
X187878992Y-104476745D01*
X187861928Y-104649999D01*
X187861928Y-105238000D01*
X187013072Y-105238000D01*
X187013072Y-104662500D01*
X186996008Y-104489246D01*
X186945472Y-104322650D01*
X186863405Y-104169114D01*
X186752962Y-104034538D01*
X186618386Y-103924095D01*
X186464850Y-103842028D01*
X186412000Y-103825996D01*
X186412000Y-103228920D01*
X186439851Y-103220472D01*
X186593387Y-103138405D01*
X186727962Y-103027962D01*
X186838405Y-102893387D01*
X186920472Y-102739851D01*
X186971008Y-102573255D01*
X186988072Y-102400001D01*
X186988072Y-101699999D01*
X186971008Y-101526745D01*
X186920472Y-101360149D01*
X186838405Y-101206613D01*
X186771724Y-101125363D01*
X186801185Y-101101185D01*
X186880537Y-101004494D01*
X186939502Y-100894180D01*
X186975812Y-100774482D01*
X186988072Y-100650000D01*
X186985000Y-100335750D01*
X186826250Y-100177000D01*
X185777000Y-100177000D01*
X185777000Y-100197000D01*
X185523000Y-100197000D01*
X185523000Y-100177000D01*
X184473750Y-100177000D01*
X184315000Y-100335750D01*
X184311928Y-100650000D01*
X184324188Y-100774482D01*
X184360498Y-100894180D01*
X184419463Y-101004494D01*
X184498815Y-101101185D01*
X184528276Y-101125363D01*
X184461595Y-101206613D01*
X184379528Y-101360149D01*
X184328992Y-101526745D01*
X184311928Y-101699999D01*
X184311928Y-102400001D01*
X184328992Y-102573255D01*
X184379528Y-102739851D01*
X184461595Y-102893387D01*
X184572038Y-103027962D01*
X184706613Y-103138405D01*
X184860149Y-103220472D01*
X184888000Y-103228921D01*
X184888001Y-103825996D01*
X184835150Y-103842028D01*
X184681614Y-103924095D01*
X184547038Y-104034538D01*
X184436595Y-104169114D01*
X184399775Y-104238000D01*
X184237423Y-104238000D01*
X184200000Y-104234314D01*
X184162577Y-104238000D01*
X184162574Y-104238000D01*
X184050622Y-104249026D01*
X183906985Y-104292598D01*
X183860949Y-104317205D01*
X183774607Y-104363355D01*
X183712599Y-104414244D01*
X183658578Y-104458578D01*
X183634721Y-104487648D01*
X183482181Y-104640188D01*
X183471008Y-104526745D01*
X183420472Y-104360149D01*
X183338405Y-104206613D01*
X183227962Y-104072038D01*
X183093387Y-103961595D01*
X182939851Y-103879528D01*
X182912000Y-103871080D01*
X182912000Y-103299004D01*
X182964850Y-103282972D01*
X183118386Y-103200905D01*
X183252962Y-103090462D01*
X183363405Y-102955886D01*
X183445472Y-102802350D01*
X183496008Y-102635754D01*
X183513072Y-102462500D01*
X183513072Y-101787500D01*
X183496008Y-101614246D01*
X183445472Y-101447650D01*
X183363405Y-101294114D01*
X183252962Y-101159538D01*
X183246406Y-101154158D01*
X183326185Y-101088685D01*
X183405537Y-100991994D01*
X183464502Y-100881680D01*
X183500812Y-100761982D01*
X183513072Y-100637500D01*
X183510000Y-100335750D01*
X183351250Y-100177000D01*
X182277000Y-100177000D01*
X182277000Y-100197000D01*
X182023000Y-100197000D01*
X182023000Y-100177000D01*
X180948750Y-100177000D01*
X180790000Y-100335750D01*
X180786928Y-100637500D01*
X180799188Y-100761982D01*
X180835498Y-100881680D01*
X180894463Y-100991994D01*
X180973815Y-101088685D01*
X181053594Y-101154158D01*
X181047038Y-101159538D01*
X180936595Y-101294114D01*
X180854528Y-101447650D01*
X180803992Y-101614246D01*
X180786928Y-101787500D01*
X180786928Y-102462500D01*
X180803992Y-102635754D01*
X180854528Y-102802350D01*
X180936595Y-102955886D01*
X181047038Y-103090462D01*
X181181614Y-103200905D01*
X181335150Y-103282972D01*
X181388000Y-103299004D01*
X181388001Y-103871079D01*
X181360149Y-103879528D01*
X181206613Y-103961595D01*
X181072038Y-104072038D01*
X180961595Y-104206613D01*
X180952193Y-104224202D01*
X180890256Y-104182817D01*
X180701898Y-104104796D01*
X180501939Y-104065022D01*
X180298061Y-104065022D01*
X180098102Y-104104796D01*
X179909744Y-104182817D01*
X179867499Y-104211044D01*
X179838405Y-104156613D01*
X179727962Y-104022038D01*
X179593387Y-103911595D01*
X179439851Y-103829528D01*
X179273255Y-103778992D01*
X179100001Y-103761928D01*
X178199999Y-103761928D01*
X178026745Y-103778992D01*
X177860149Y-103829528D01*
X177706613Y-103911595D01*
X177572038Y-104022038D01*
X177539448Y-104061749D01*
X177401900Y-104004774D01*
X177201941Y-103965000D01*
X176998063Y-103965000D01*
X176798104Y-104004774D01*
X176609746Y-104082795D01*
X176440228Y-104196063D01*
X176296065Y-104340226D01*
X176182797Y-104509744D01*
X176104776Y-104698102D01*
X176065002Y-104898061D01*
X176065002Y-105101939D01*
X176104776Y-105301898D01*
X176182797Y-105490256D01*
X176296065Y-105659774D01*
X176440228Y-105803937D01*
X176609746Y-105917205D01*
X176798104Y-105995226D01*
X176998063Y-106035000D01*
X177201941Y-106035000D01*
X177401900Y-105995226D01*
X177539448Y-105938251D01*
X177572038Y-105977962D01*
X177598891Y-106000000D01*
X177572038Y-106022038D01*
X177461595Y-106156613D01*
X177379528Y-106310149D01*
X177328992Y-106476745D01*
X177311928Y-106649999D01*
X177311928Y-107350001D01*
X177328992Y-107523255D01*
X177379528Y-107689851D01*
X177461595Y-107843387D01*
X177476811Y-107861928D01*
X176450000Y-107861928D01*
X176276746Y-107878992D01*
X176110150Y-107929528D01*
X175956614Y-108011595D01*
X175822038Y-108122038D01*
X175711595Y-108256614D01*
X175629528Y-108410150D01*
X175578992Y-108576746D01*
X175561928Y-108750000D01*
X175561928Y-111250000D01*
X175578992Y-111423254D01*
X175629528Y-111589850D01*
X175711595Y-111743386D01*
X175822038Y-111877962D01*
X175956614Y-111988405D01*
X176110150Y-112070472D01*
X176276746Y-112121008D01*
X176450000Y-112138072D01*
X177550000Y-112138072D01*
X177723254Y-112121008D01*
X177889850Y-112070472D01*
X178043386Y-111988405D01*
X178177962Y-111877962D01*
X178288405Y-111743386D01*
X178370472Y-111589850D01*
X178421008Y-111423254D01*
X178438072Y-111250000D01*
X178438072Y-111169313D01*
X178509748Y-111217205D01*
X178698106Y-111295226D01*
X178898065Y-111335000D01*
X179101943Y-111335000D01*
X179301902Y-111295226D01*
X179438000Y-111238852D01*
X179438000Y-111562576D01*
X179434314Y-111600000D01*
X179438000Y-111637423D01*
X179438000Y-111637425D01*
X179449026Y-111749377D01*
X179492598Y-111893014D01*
X179507561Y-111921008D01*
X179563355Y-112025392D01*
X179584717Y-112051421D01*
X179658578Y-112141422D01*
X179687654Y-112165284D01*
X180734721Y-113212352D01*
X180758578Y-113241422D01*
X180787648Y-113265279D01*
X180874607Y-113336645D01*
X180945364Y-113374465D01*
X181006985Y-113407402D01*
X181150622Y-113450974D01*
X181262574Y-113462000D01*
X181262577Y-113462000D01*
X181300000Y-113465686D01*
X181337423Y-113462000D01*
X182361928Y-113462000D01*
X182361928Y-115450000D01*
X182378992Y-115623254D01*
X182429528Y-115789850D01*
X182511595Y-115943386D01*
X182622038Y-116077962D01*
X182756614Y-116188405D01*
X182910150Y-116270472D01*
X183076746Y-116321008D01*
X183250000Y-116338072D01*
X184350000Y-116338072D01*
X184523254Y-116321008D01*
X184689850Y-116270472D01*
X184843386Y-116188405D01*
X184977962Y-116077962D01*
X185088405Y-115943386D01*
X185170472Y-115789850D01*
X185221008Y-115623254D01*
X185238072Y-115450000D01*
X185238072Y-115162000D01*
X185396838Y-115162000D01*
X185404774Y-115201898D01*
X185482795Y-115390256D01*
X185596063Y-115559774D01*
X185740226Y-115703937D01*
X185906999Y-115815371D01*
X184984370Y-116738000D01*
X178437415Y-116738000D01*
X178399999Y-116734315D01*
X178362583Y-116738000D01*
X178362574Y-116738000D01*
X178250622Y-116749026D01*
X178106985Y-116792598D01*
X177974608Y-116863355D01*
X177858578Y-116958578D01*
X177834721Y-116987648D01*
X175984370Y-118838000D01*
X174515630Y-118838000D01*
X173750247Y-118072617D01*
X173750247Y-116894474D01*
X173792184Y-116852537D01*
X173905452Y-116683019D01*
X173983473Y-116494661D01*
X174023247Y-116294702D01*
X174023247Y-116090824D01*
X173985291Y-115900000D01*
X175561928Y-115900000D01*
X175574188Y-116024482D01*
X175610498Y-116144180D01*
X175669463Y-116254494D01*
X175748815Y-116351185D01*
X175845506Y-116430537D01*
X175955820Y-116489502D01*
X176075518Y-116525812D01*
X176200000Y-116538072D01*
X176714250Y-116535000D01*
X176873000Y-116376250D01*
X176873000Y-114527000D01*
X177127000Y-114527000D01*
X177127000Y-116376250D01*
X177285750Y-116535000D01*
X177800000Y-116538072D01*
X177924482Y-116525812D01*
X178044180Y-116489502D01*
X178154494Y-116430537D01*
X178251185Y-116351185D01*
X178330537Y-116254494D01*
X178389502Y-116144180D01*
X178425812Y-116024482D01*
X178438072Y-115900000D01*
X178435000Y-114685750D01*
X178276250Y-114527000D01*
X177127000Y-114527000D01*
X176873000Y-114527000D01*
X175723750Y-114527000D01*
X175565000Y-114685750D01*
X175561928Y-115900000D01*
X173985291Y-115900000D01*
X173983473Y-115890865D01*
X173905452Y-115702507D01*
X173792184Y-115532989D01*
X173648021Y-115388826D01*
X173478503Y-115275558D01*
X173290145Y-115197537D01*
X173177829Y-115175196D01*
X173618023Y-114735003D01*
X173677331Y-114735003D01*
X173877290Y-114695229D01*
X174065648Y-114617208D01*
X174235166Y-114503940D01*
X174379329Y-114359777D01*
X174492597Y-114190259D01*
X174570618Y-114001901D01*
X174610392Y-113801942D01*
X174610392Y-113598064D01*
X174570618Y-113398105D01*
X174492597Y-113209747D01*
X174379329Y-113040229D01*
X174239100Y-112900000D01*
X175561928Y-112900000D01*
X175565000Y-114114250D01*
X175723750Y-114273000D01*
X176873000Y-114273000D01*
X176873000Y-112423750D01*
X177127000Y-112423750D01*
X177127000Y-114273000D01*
X178276250Y-114273000D01*
X178435000Y-114114250D01*
X178438072Y-112900000D01*
X178425812Y-112775518D01*
X178389502Y-112655820D01*
X178330537Y-112545506D01*
X178251185Y-112448815D01*
X178154494Y-112369463D01*
X178044180Y-112310498D01*
X177924482Y-112274188D01*
X177800000Y-112261928D01*
X177285750Y-112265000D01*
X177127000Y-112423750D01*
X176873000Y-112423750D01*
X176714250Y-112265000D01*
X176200000Y-112261928D01*
X176075518Y-112274188D01*
X175955820Y-112310498D01*
X175845506Y-112369463D01*
X175748815Y-112448815D01*
X175669463Y-112545506D01*
X175610498Y-112655820D01*
X175574188Y-112775518D01*
X175561928Y-112900000D01*
X174239100Y-112900000D01*
X174235166Y-112896066D01*
X174065648Y-112782798D01*
X174014543Y-112761630D01*
X174025812Y-112724482D01*
X174038072Y-112600000D01*
X174035000Y-112285750D01*
X173876250Y-112127000D01*
X172827000Y-112127000D01*
X172827000Y-112147000D01*
X172573000Y-112147000D01*
X172573000Y-112127000D01*
X171523750Y-112127000D01*
X171365000Y-112285750D01*
X171361928Y-112600000D01*
X171374188Y-112724482D01*
X171410498Y-112844180D01*
X171469463Y-112954494D01*
X171548815Y-113051185D01*
X171645506Y-113130537D01*
X171755820Y-113189502D01*
X171875518Y-113225812D01*
X172000000Y-113238072D01*
X172414250Y-113235000D01*
X172572998Y-113076252D01*
X172572998Y-113235000D01*
X172647727Y-113235000D01*
X172580166Y-113398105D01*
X172540392Y-113598064D01*
X172540392Y-113657372D01*
X170406778Y-115790987D01*
X170388405Y-115756613D01*
X170277962Y-115622038D01*
X170143387Y-115511595D01*
X169989851Y-115429528D01*
X169823255Y-115378992D01*
X169650001Y-115361928D01*
X168749999Y-115361928D01*
X168576745Y-115378992D01*
X168410149Y-115429528D01*
X168343000Y-115465420D01*
X168343000Y-114424883D01*
X168350000Y-114425572D01*
X168964250Y-114422500D01*
X169123000Y-114263750D01*
X169123000Y-113252000D01*
X169377000Y-113252000D01*
X169377000Y-114263750D01*
X169535750Y-114422500D01*
X170150000Y-114425572D01*
X170274482Y-114413312D01*
X170394180Y-114377002D01*
X170504494Y-114318037D01*
X170601185Y-114238685D01*
X170680537Y-114141994D01*
X170739502Y-114031680D01*
X170775812Y-113911982D01*
X170788072Y-113787500D01*
X170785000Y-113410750D01*
X170626250Y-113252000D01*
X169377000Y-113252000D01*
X169123000Y-113252000D01*
X169103000Y-113252000D01*
X169103000Y-112998000D01*
X169123000Y-112998000D01*
X169123000Y-111986250D01*
X169377000Y-111986250D01*
X169377000Y-112998000D01*
X170626250Y-112998000D01*
X170785000Y-112839250D01*
X170788072Y-112462500D01*
X170775812Y-112338018D01*
X170739502Y-112218320D01*
X170680537Y-112108006D01*
X170601185Y-112011315D01*
X170504494Y-111931963D01*
X170394180Y-111872998D01*
X170274482Y-111836688D01*
X170150000Y-111824428D01*
X169535750Y-111827500D01*
X169377000Y-111986250D01*
X169123000Y-111986250D01*
X168964250Y-111827500D01*
X168350000Y-111824428D01*
X168225518Y-111836688D01*
X168105820Y-111872998D01*
X167995506Y-111931963D01*
X167898815Y-112011315D01*
X167819463Y-112108006D01*
X167808209Y-112129061D01*
X167639522Y-112038897D01*
X167424066Y-111973539D01*
X167200000Y-111951470D01*
X166975933Y-111973539D01*
X166760477Y-112038897D01*
X166561911Y-112145032D01*
X166387867Y-112287867D01*
X166245032Y-112461912D01*
X166138897Y-112660478D01*
X166073539Y-112875934D01*
X166057000Y-113043855D01*
X166057000Y-115301302D01*
X165885750Y-115302500D01*
X165727000Y-115461250D01*
X165727000Y-116398000D01*
X165747000Y-116398000D01*
X165747000Y-116652000D01*
X165727000Y-116652000D01*
X165727000Y-116672000D01*
X165473000Y-116672000D01*
X165473000Y-116652000D01*
X164398750Y-116652000D01*
X164240000Y-116810750D01*
X164236928Y-117112500D01*
X164249188Y-117236982D01*
X164285498Y-117356680D01*
X164339121Y-117457000D01*
X162094183Y-117457000D01*
X162190256Y-117417205D01*
X162359774Y-117303937D01*
X162503937Y-117159774D01*
X162617205Y-116990256D01*
X162695226Y-116801898D01*
X162735000Y-116601939D01*
X162735000Y-116398061D01*
X162695226Y-116198102D01*
X162617205Y-116009744D01*
X162568934Y-115937500D01*
X164236928Y-115937500D01*
X164240000Y-116239250D01*
X164398750Y-116398000D01*
X165473000Y-116398000D01*
X165473000Y-115461250D01*
X165314250Y-115302500D01*
X164875000Y-115299428D01*
X164750518Y-115311688D01*
X164630820Y-115347998D01*
X164520506Y-115406963D01*
X164423815Y-115486315D01*
X164344463Y-115583006D01*
X164285498Y-115693320D01*
X164249188Y-115813018D01*
X164236928Y-115937500D01*
X162568934Y-115937500D01*
X162503937Y-115840226D01*
X162359774Y-115696063D01*
X162190256Y-115582795D01*
X162001898Y-115504774D01*
X161801939Y-115465000D01*
X161598061Y-115465000D01*
X161398102Y-115504774D01*
X161209744Y-115582795D01*
X161040226Y-115696063D01*
X160896063Y-115840226D01*
X160782795Y-116009744D01*
X160771091Y-116038000D01*
X159388072Y-116038000D01*
X159388072Y-115762000D01*
X159862577Y-115762000D01*
X159900000Y-115765686D01*
X159937423Y-115762000D01*
X159937426Y-115762000D01*
X160049378Y-115750974D01*
X160193015Y-115707402D01*
X160325392Y-115636645D01*
X160441422Y-115541422D01*
X160465283Y-115512347D01*
X161012338Y-114965292D01*
X161041408Y-114941436D01*
X161075413Y-114900000D01*
X161761928Y-114900000D01*
X161774188Y-115024482D01*
X161810498Y-115144180D01*
X161869463Y-115254494D01*
X161948815Y-115351185D01*
X162045506Y-115430537D01*
X162155820Y-115489502D01*
X162275518Y-115525812D01*
X162400000Y-115538072D01*
X162914250Y-115535000D01*
X163073000Y-115376250D01*
X163073000Y-113727000D01*
X163327000Y-113727000D01*
X163327000Y-115376250D01*
X163485750Y-115535000D01*
X164000000Y-115538072D01*
X164124482Y-115525812D01*
X164244180Y-115489502D01*
X164354494Y-115430537D01*
X164451185Y-115351185D01*
X164530537Y-115254494D01*
X164589502Y-115144180D01*
X164625812Y-115024482D01*
X164638072Y-114900000D01*
X164635000Y-113885750D01*
X164476250Y-113727000D01*
X163327000Y-113727000D01*
X163073000Y-113727000D01*
X161923750Y-113727000D01*
X161765000Y-113885750D01*
X161761928Y-114900000D01*
X161075413Y-114900000D01*
X161136631Y-114825406D01*
X161207388Y-114693029D01*
X161250960Y-114549392D01*
X161261986Y-114437440D01*
X161261986Y-114437438D01*
X161265672Y-114400015D01*
X161261986Y-114362592D01*
X161261986Y-108294366D01*
X161325000Y-108300572D01*
X162048195Y-108300572D01*
X162022038Y-108322038D01*
X161911595Y-108456614D01*
X161829528Y-108610150D01*
X161778992Y-108776746D01*
X161761928Y-108950000D01*
X161761928Y-111050000D01*
X161778992Y-111223254D01*
X161829528Y-111389850D01*
X161911595Y-111543386D01*
X162022038Y-111677962D01*
X162098813Y-111740969D01*
X162045506Y-111769463D01*
X161948815Y-111848815D01*
X161869463Y-111945506D01*
X161810498Y-112055820D01*
X161774188Y-112175518D01*
X161761928Y-112300000D01*
X161765000Y-113314250D01*
X161923750Y-113473000D01*
X163073000Y-113473000D01*
X163073000Y-113453000D01*
X163327000Y-113453000D01*
X163327000Y-113473000D01*
X164476250Y-113473000D01*
X164635000Y-113314250D01*
X164638072Y-112300000D01*
X164625812Y-112175518D01*
X164589502Y-112055820D01*
X164530537Y-111945506D01*
X164451185Y-111848815D01*
X164354494Y-111769463D01*
X164301187Y-111740969D01*
X164377962Y-111677962D01*
X164488405Y-111543386D01*
X164570472Y-111389850D01*
X164621008Y-111223254D01*
X164638072Y-111050000D01*
X164638072Y-110162000D01*
X167362577Y-110162000D01*
X167400000Y-110165686D01*
X167437423Y-110162000D01*
X167437426Y-110162000D01*
X167549378Y-110150974D01*
X167693015Y-110107402D01*
X167711928Y-110097293D01*
X167711928Y-110412502D01*
X167728992Y-110585756D01*
X167779528Y-110752352D01*
X167861595Y-110905887D01*
X167972038Y-111040462D01*
X168106613Y-111150905D01*
X168260148Y-111232972D01*
X168426744Y-111283508D01*
X168599998Y-111300572D01*
X169900002Y-111300572D01*
X170073256Y-111283508D01*
X170239852Y-111232972D01*
X170393387Y-111150905D01*
X170527962Y-111040462D01*
X170624202Y-110923194D01*
X170798102Y-110995226D01*
X170998061Y-111035000D01*
X171201939Y-111035000D01*
X171401898Y-110995226D01*
X171576763Y-110922794D01*
X171578276Y-110924637D01*
X171548815Y-110948815D01*
X171469463Y-111045506D01*
X171410498Y-111155820D01*
X171374188Y-111275518D01*
X171361928Y-111400000D01*
X171365000Y-111714250D01*
X171523750Y-111873000D01*
X172573000Y-111873000D01*
X172573000Y-111853000D01*
X172827000Y-111853000D01*
X172827000Y-111873000D01*
X173876250Y-111873000D01*
X174035000Y-111714250D01*
X174038072Y-111400000D01*
X174025812Y-111275518D01*
X173989502Y-111155820D01*
X173930537Y-111045506D01*
X173851185Y-110948815D01*
X173821724Y-110924637D01*
X173888405Y-110843387D01*
X173970472Y-110689851D01*
X174021008Y-110523255D01*
X174038072Y-110350001D01*
X174038072Y-109649999D01*
X174021008Y-109476745D01*
X173970472Y-109310149D01*
X173888405Y-109156613D01*
X173777962Y-109022038D01*
X173643387Y-108911595D01*
X173592979Y-108884651D01*
X174239558Y-108238072D01*
X174250001Y-108238072D01*
X174423255Y-108221008D01*
X174589851Y-108170472D01*
X174743387Y-108088405D01*
X174877962Y-107977962D01*
X174988405Y-107843387D01*
X175070472Y-107689851D01*
X175121008Y-107523255D01*
X175138072Y-107350001D01*
X175138072Y-106649999D01*
X175121008Y-106476745D01*
X175070472Y-106310149D01*
X174988405Y-106156613D01*
X174877962Y-106022038D01*
X174851109Y-106000000D01*
X174877962Y-105977962D01*
X174988405Y-105843387D01*
X175070472Y-105689851D01*
X175121008Y-105523255D01*
X175138072Y-105350001D01*
X175138072Y-104649999D01*
X175121008Y-104476745D01*
X175070472Y-104310149D01*
X174988405Y-104156613D01*
X174877962Y-104022038D01*
X174743387Y-103911595D01*
X174589851Y-103829528D01*
X174423255Y-103778992D01*
X174250001Y-103761928D01*
X173349999Y-103761928D01*
X173176745Y-103778992D01*
X173010149Y-103829528D01*
X172856613Y-103911595D01*
X172722038Y-104022038D01*
X172611595Y-104156613D01*
X172529528Y-104310149D01*
X172478992Y-104476745D01*
X172461928Y-104649999D01*
X172461928Y-105260441D01*
X171587649Y-106134721D01*
X171558579Y-106158578D01*
X171534722Y-106187648D01*
X171534721Y-106187649D01*
X171463355Y-106274608D01*
X171413651Y-106367599D01*
X171392599Y-106406985D01*
X171349027Y-106550622D01*
X171338684Y-106655635D01*
X171334314Y-106700000D01*
X171338000Y-106737423D01*
X171338000Y-106898289D01*
X171296063Y-106940226D01*
X171182795Y-107109744D01*
X171104774Y-107298102D01*
X171065000Y-107498061D01*
X171065000Y-107701939D01*
X171092064Y-107838000D01*
X169890577Y-107838000D01*
X170053850Y-107788472D01*
X170207386Y-107706405D01*
X170341962Y-107595962D01*
X170452405Y-107461386D01*
X170534472Y-107307850D01*
X170585008Y-107141254D01*
X170602072Y-106968000D01*
X170602072Y-104868000D01*
X170585008Y-104694746D01*
X170534472Y-104528150D01*
X170452405Y-104374614D01*
X170341962Y-104240038D01*
X170207386Y-104129595D01*
X170185693Y-104118000D01*
X170207386Y-104106405D01*
X170341962Y-103995962D01*
X170452405Y-103861386D01*
X170534472Y-103707850D01*
X170585008Y-103541254D01*
X170602072Y-103368000D01*
X170602072Y-101957559D01*
X170753404Y-101806226D01*
X170898061Y-101835000D01*
X171101939Y-101835000D01*
X171301898Y-101795226D01*
X171490256Y-101717205D01*
X171659774Y-101603937D01*
X171803937Y-101459774D01*
X171915371Y-101293001D01*
X172461928Y-101839558D01*
X172461928Y-102350001D01*
X172478992Y-102523255D01*
X172529528Y-102689851D01*
X172611595Y-102843387D01*
X172722038Y-102977962D01*
X172856613Y-103088405D01*
X173010149Y-103170472D01*
X173176745Y-103221008D01*
X173349999Y-103238072D01*
X174250001Y-103238072D01*
X174423255Y-103221008D01*
X174589851Y-103170472D01*
X174743387Y-103088405D01*
X174877962Y-102977962D01*
X174988405Y-102843387D01*
X175070472Y-102689851D01*
X175121008Y-102523255D01*
X175138072Y-102350001D01*
X175138072Y-101649999D01*
X175121008Y-101476745D01*
X175070472Y-101310149D01*
X174988405Y-101156613D01*
X174921724Y-101075363D01*
X174951185Y-101051185D01*
X175030537Y-100954494D01*
X175089502Y-100844180D01*
X175125812Y-100724482D01*
X175138072Y-100600000D01*
X175135000Y-100285750D01*
X174976250Y-100127000D01*
X173927000Y-100127000D01*
X173927000Y-100147000D01*
X173673000Y-100147000D01*
X173673000Y-100127000D01*
X173653000Y-100127000D01*
X173653000Y-99873000D01*
X173673000Y-99873000D01*
X173673000Y-98923750D01*
X173927000Y-98923750D01*
X173927000Y-99873000D01*
X174976250Y-99873000D01*
X175135000Y-99714250D01*
X175137461Y-99462500D01*
X180786928Y-99462500D01*
X180790000Y-99764250D01*
X180948750Y-99923000D01*
X182023000Y-99923000D01*
X182023000Y-98986250D01*
X182277000Y-98986250D01*
X182277000Y-99923000D01*
X183351250Y-99923000D01*
X183510000Y-99764250D01*
X183513072Y-99462500D01*
X183511841Y-99450000D01*
X184311928Y-99450000D01*
X184315000Y-99764250D01*
X184473750Y-99923000D01*
X185523000Y-99923000D01*
X185523000Y-98973750D01*
X185777000Y-98973750D01*
X185777000Y-99923000D01*
X186826250Y-99923000D01*
X186985000Y-99764250D01*
X186987949Y-99462500D01*
X187836928Y-99462500D01*
X187840000Y-99764250D01*
X187998750Y-99923000D01*
X189073000Y-99923000D01*
X189073000Y-98986250D01*
X189327000Y-98986250D01*
X189327000Y-99923000D01*
X190401250Y-99923000D01*
X190560000Y-99764250D01*
X190563072Y-99462500D01*
X190561841Y-99450000D01*
X191361928Y-99450000D01*
X191365000Y-99764250D01*
X191523750Y-99923000D01*
X192573000Y-99923000D01*
X192573000Y-98973750D01*
X192827000Y-98973750D01*
X192827000Y-99923000D01*
X193876250Y-99923000D01*
X194035000Y-99764250D01*
X194038072Y-99450000D01*
X194961928Y-99450000D01*
X194965000Y-99764250D01*
X195123750Y-99923000D01*
X196173000Y-99923000D01*
X196173000Y-98973750D01*
X196427000Y-98973750D01*
X196427000Y-99923000D01*
X197476250Y-99923000D01*
X197635000Y-99764250D01*
X197638072Y-99450000D01*
X198311928Y-99450000D01*
X198315000Y-99764250D01*
X198473750Y-99923000D01*
X199523000Y-99923000D01*
X199523000Y-98973750D01*
X199777000Y-98973750D01*
X199777000Y-99923000D01*
X200826250Y-99923000D01*
X200985000Y-99764250D01*
X200988072Y-99450000D01*
X200975812Y-99325518D01*
X200939502Y-99205820D01*
X200880537Y-99095506D01*
X200801185Y-98998815D01*
X200704494Y-98919463D01*
X200594180Y-98860498D01*
X200474482Y-98824188D01*
X200350000Y-98811928D01*
X199935750Y-98815000D01*
X199777000Y-98973750D01*
X199523000Y-98973750D01*
X199364250Y-98815000D01*
X198950000Y-98811928D01*
X198825518Y-98824188D01*
X198705820Y-98860498D01*
X198595506Y-98919463D01*
X198498815Y-98998815D01*
X198419463Y-99095506D01*
X198360498Y-99205820D01*
X198324188Y-99325518D01*
X198311928Y-99450000D01*
X197638072Y-99450000D01*
X197625812Y-99325518D01*
X197589502Y-99205820D01*
X197530537Y-99095506D01*
X197451185Y-98998815D01*
X197354494Y-98919463D01*
X197244180Y-98860498D01*
X197124482Y-98824188D01*
X197000000Y-98811928D01*
X196585750Y-98815000D01*
X196427000Y-98973750D01*
X196173000Y-98973750D01*
X196014250Y-98815000D01*
X195600000Y-98811928D01*
X195475518Y-98824188D01*
X195355820Y-98860498D01*
X195245506Y-98919463D01*
X195148815Y-98998815D01*
X195069463Y-99095506D01*
X195010498Y-99205820D01*
X194974188Y-99325518D01*
X194961928Y-99450000D01*
X194038072Y-99450000D01*
X194025812Y-99325518D01*
X193989502Y-99205820D01*
X193930537Y-99095506D01*
X193851185Y-98998815D01*
X193754494Y-98919463D01*
X193644180Y-98860498D01*
X193524482Y-98824188D01*
X193400000Y-98811928D01*
X192985750Y-98815000D01*
X192827000Y-98973750D01*
X192573000Y-98973750D01*
X192414250Y-98815000D01*
X192000000Y-98811928D01*
X191875518Y-98824188D01*
X191755820Y-98860498D01*
X191645506Y-98919463D01*
X191548815Y-98998815D01*
X191469463Y-99095506D01*
X191410498Y-99205820D01*
X191374188Y-99325518D01*
X191361928Y-99450000D01*
X190561841Y-99450000D01*
X190550812Y-99338018D01*
X190514502Y-99218320D01*
X190455537Y-99108006D01*
X190376185Y-99011315D01*
X190279494Y-98931963D01*
X190169180Y-98872998D01*
X190049482Y-98836688D01*
X189925000Y-98824428D01*
X189485750Y-98827500D01*
X189327000Y-98986250D01*
X189073000Y-98986250D01*
X188914250Y-98827500D01*
X188475000Y-98824428D01*
X188350518Y-98836688D01*
X188230820Y-98872998D01*
X188120506Y-98931963D01*
X188023815Y-99011315D01*
X187944463Y-99108006D01*
X187885498Y-99218320D01*
X187849188Y-99338018D01*
X187836928Y-99462500D01*
X186987949Y-99462500D01*
X186988072Y-99450000D01*
X186975812Y-99325518D01*
X186939502Y-99205820D01*
X186880537Y-99095506D01*
X186801185Y-98998815D01*
X186704494Y-98919463D01*
X186594180Y-98860498D01*
X186474482Y-98824188D01*
X186350000Y-98811928D01*
X185935750Y-98815000D01*
X185777000Y-98973750D01*
X185523000Y-98973750D01*
X185364250Y-98815000D01*
X184950000Y-98811928D01*
X184825518Y-98824188D01*
X184705820Y-98860498D01*
X184595506Y-98919463D01*
X184498815Y-98998815D01*
X184419463Y-99095506D01*
X184360498Y-99205820D01*
X184324188Y-99325518D01*
X184311928Y-99450000D01*
X183511841Y-99450000D01*
X183500812Y-99338018D01*
X183464502Y-99218320D01*
X183405537Y-99108006D01*
X183326185Y-99011315D01*
X183229494Y-98931963D01*
X183119180Y-98872998D01*
X182999482Y-98836688D01*
X182875000Y-98824428D01*
X182435750Y-98827500D01*
X182277000Y-98986250D01*
X182023000Y-98986250D01*
X181864250Y-98827500D01*
X181425000Y-98824428D01*
X181300518Y-98836688D01*
X181180820Y-98872998D01*
X181070506Y-98931963D01*
X180973815Y-99011315D01*
X180894463Y-99108006D01*
X180835498Y-99218320D01*
X180799188Y-99338018D01*
X180786928Y-99462500D01*
X175137461Y-99462500D01*
X175138072Y-99400000D01*
X175125812Y-99275518D01*
X175089502Y-99155820D01*
X175030537Y-99045506D01*
X174951185Y-98948815D01*
X174854494Y-98869463D01*
X174744180Y-98810498D01*
X174624482Y-98774188D01*
X174500000Y-98761928D01*
X174085750Y-98765000D01*
X173927000Y-98923750D01*
X173673000Y-98923750D01*
X173514250Y-98765000D01*
X173100000Y-98761928D01*
X172975518Y-98774188D01*
X172855820Y-98810498D01*
X172745506Y-98869463D01*
X172648815Y-98948815D01*
X172569463Y-99045506D01*
X172510498Y-99155820D01*
X172474188Y-99275518D01*
X172461928Y-99400000D01*
X172464735Y-99687105D01*
X171865284Y-99087654D01*
X171841422Y-99058578D01*
X171725392Y-98963355D01*
X171593015Y-98892598D01*
X171449378Y-98849026D01*
X171337426Y-98838000D01*
X171337423Y-98838000D01*
X171300000Y-98834314D01*
X171262577Y-98838000D01*
X170137415Y-98838000D01*
X170099999Y-98834315D01*
X170062583Y-98838000D01*
X170062574Y-98838000D01*
X169950622Y-98849026D01*
X169878554Y-98870888D01*
X169803937Y-98759216D01*
X169659774Y-98615053D01*
X169490256Y-98501785D01*
X169301898Y-98423764D01*
X169101939Y-98383990D01*
X168898061Y-98383990D01*
X168698102Y-98423764D01*
X168509744Y-98501785D01*
X168340226Y-98615053D01*
X168298289Y-98656990D01*
X166318432Y-98656990D01*
X166281009Y-98653304D01*
X166243586Y-98656990D01*
X166243584Y-98656990D01*
X166131632Y-98668016D01*
X165987995Y-98711588D01*
X165855618Y-98782345D01*
X165794862Y-98832206D01*
X165789851Y-98829528D01*
X165623255Y-98778992D01*
X165450001Y-98761928D01*
X164549999Y-98761928D01*
X164376745Y-98778992D01*
X164210149Y-98829528D01*
X164056613Y-98911595D01*
X163922038Y-99022038D01*
X163811595Y-99156613D01*
X163729528Y-99310149D01*
X163678992Y-99476745D01*
X163661928Y-99649999D01*
X163661928Y-100350001D01*
X163678992Y-100523255D01*
X163729528Y-100689851D01*
X163811595Y-100843387D01*
X163922038Y-100977962D01*
X163948891Y-101000000D01*
X163922038Y-101022038D01*
X163811595Y-101156613D01*
X163729528Y-101310149D01*
X163728663Y-101313000D01*
X163050225Y-101313000D01*
X163013405Y-101244114D01*
X162902962Y-101109538D01*
X162896406Y-101104158D01*
X162976185Y-101038685D01*
X163055537Y-100941994D01*
X163114502Y-100831680D01*
X163150812Y-100711982D01*
X163163072Y-100587500D01*
X163160000Y-100285750D01*
X163001250Y-100127000D01*
X161927000Y-100127000D01*
X161927000Y-100147000D01*
X161673000Y-100147000D01*
X161673000Y-100127000D01*
X160598750Y-100127000D01*
X160440000Y-100285750D01*
X160436928Y-100587500D01*
X160449188Y-100711982D01*
X160485498Y-100831680D01*
X160544463Y-100941994D01*
X160623815Y-101038685D01*
X160703594Y-101104158D01*
X160697038Y-101109538D01*
X160586595Y-101244114D01*
X160504528Y-101397650D01*
X160453992Y-101564246D01*
X160436928Y-101737500D01*
X160436928Y-102412500D01*
X160453992Y-102585754D01*
X160504528Y-102752350D01*
X160586595Y-102905886D01*
X160697038Y-103040462D01*
X160707575Y-103049109D01*
X159988072Y-103768613D01*
X159988072Y-103649999D01*
X159971008Y-103476745D01*
X159920472Y-103310149D01*
X159838405Y-103156613D01*
X159727962Y-103022038D01*
X159593387Y-102911595D01*
X159439851Y-102829528D01*
X159273255Y-102778992D01*
X159100001Y-102761928D01*
X156199999Y-102761928D01*
X156026745Y-102778992D01*
X155860149Y-102829528D01*
X155706613Y-102911595D01*
X155572038Y-103022038D01*
X155461595Y-103156613D01*
X155379528Y-103310149D01*
X155328992Y-103476745D01*
X155311928Y-103649999D01*
X155311928Y-104550001D01*
X155328992Y-104723255D01*
X155379528Y-104889851D01*
X155461595Y-105043387D01*
X155572038Y-105177962D01*
X155668334Y-105256990D01*
X154438072Y-105256990D01*
X154438072Y-104649999D01*
X154421008Y-104476745D01*
X154370472Y-104310149D01*
X154303754Y-104185329D01*
X154327962Y-104165462D01*
X154438405Y-104030887D01*
X154520472Y-103877352D01*
X154571008Y-103710756D01*
X154588072Y-103537502D01*
X154588072Y-102712498D01*
X154571008Y-102539244D01*
X154520472Y-102372648D01*
X154438405Y-102219113D01*
X154327962Y-102084538D01*
X154193387Y-101974095D01*
X154039852Y-101892028D01*
X153873256Y-101841492D01*
X153700002Y-101824428D01*
X152399998Y-101824428D01*
X152226744Y-101841492D01*
X152060148Y-101892028D01*
X151906613Y-101974095D01*
X151772038Y-102084538D01*
X151661595Y-102219113D01*
X151579528Y-102372648D01*
X151528992Y-102539244D01*
X151511928Y-102712498D01*
X151511928Y-103537502D01*
X151528992Y-103710756D01*
X151579528Y-103877352D01*
X151661595Y-104030887D01*
X151772038Y-104165462D01*
X151865755Y-104242374D01*
X151829528Y-104310149D01*
X151778992Y-104476745D01*
X151761928Y-104649999D01*
X151761928Y-105256990D01*
X151513227Y-105256990D01*
X151475804Y-105253304D01*
X151438381Y-105256990D01*
X151438379Y-105256990D01*
X151326427Y-105268016D01*
X151182790Y-105311588D01*
X151050413Y-105382345D01*
X150983951Y-105436889D01*
X151007402Y-105393015D01*
X151050974Y-105249378D01*
X151062000Y-105137426D01*
X151062000Y-105137423D01*
X151065686Y-105100000D01*
X151062000Y-105062577D01*
X151062000Y-104101711D01*
X151103937Y-104059774D01*
X151217205Y-103890256D01*
X151295226Y-103701898D01*
X151335000Y-103501939D01*
X151335000Y-103298061D01*
X151295226Y-103098102D01*
X151217205Y-102909744D01*
X151103937Y-102740226D01*
X150959774Y-102596063D01*
X150790256Y-102482795D01*
X150601898Y-102404774D01*
X150401939Y-102365000D01*
X150198061Y-102365000D01*
X149998102Y-102404774D01*
X149809744Y-102482795D01*
X149752373Y-102521129D01*
X149763072Y-102412500D01*
X149763072Y-101737500D01*
X149746008Y-101564246D01*
X149695472Y-101397650D01*
X149613405Y-101244114D01*
X149502962Y-101109538D01*
X149496406Y-101104158D01*
X149576185Y-101038685D01*
X149655537Y-100941994D01*
X149714502Y-100831680D01*
X149750812Y-100711982D01*
X149755685Y-100662500D01*
X151511928Y-100662500D01*
X151524188Y-100786982D01*
X151560498Y-100906680D01*
X151619463Y-101016994D01*
X151698815Y-101113685D01*
X151795506Y-101193037D01*
X151905820Y-101252002D01*
X152025518Y-101288312D01*
X152150000Y-101300572D01*
X152764250Y-101297500D01*
X152923000Y-101138750D01*
X152923000Y-100127000D01*
X153177000Y-100127000D01*
X153177000Y-101138750D01*
X153335750Y-101297500D01*
X153950000Y-101300572D01*
X154074482Y-101288312D01*
X154194180Y-101252002D01*
X154304494Y-101193037D01*
X154401185Y-101113685D01*
X154480537Y-101016994D01*
X154539502Y-100906680D01*
X154575812Y-100786982D01*
X154584378Y-100700000D01*
X155311928Y-100700000D01*
X155324188Y-100824482D01*
X155360498Y-100944180D01*
X155419463Y-101054494D01*
X155498815Y-101151185D01*
X155595506Y-101230537D01*
X155705820Y-101289502D01*
X155825518Y-101325812D01*
X155950000Y-101338072D01*
X157364250Y-101335000D01*
X157523000Y-101176250D01*
X157523000Y-100127000D01*
X157777000Y-100127000D01*
X157777000Y-101176250D01*
X157935750Y-101335000D01*
X159350000Y-101338072D01*
X159474482Y-101325812D01*
X159594180Y-101289502D01*
X159704494Y-101230537D01*
X159801185Y-101151185D01*
X159880537Y-101054494D01*
X159939502Y-100944180D01*
X159975812Y-100824482D01*
X159988072Y-100700000D01*
X159985000Y-100285750D01*
X159826250Y-100127000D01*
X157777000Y-100127000D01*
X157523000Y-100127000D01*
X155473750Y-100127000D01*
X155315000Y-100285750D01*
X155311928Y-100700000D01*
X154584378Y-100700000D01*
X154588072Y-100662500D01*
X154585000Y-100285750D01*
X154426250Y-100127000D01*
X153177000Y-100127000D01*
X152923000Y-100127000D01*
X151673750Y-100127000D01*
X151515000Y-100285750D01*
X151511928Y-100662500D01*
X149755685Y-100662500D01*
X149763072Y-100587500D01*
X149760000Y-100285750D01*
X149601250Y-100127000D01*
X148527000Y-100127000D01*
X148527000Y-100147000D01*
X148273000Y-100147000D01*
X148273000Y-100127000D01*
X147198750Y-100127000D01*
X147040000Y-100285750D01*
X147036928Y-100587500D01*
X147049188Y-100711982D01*
X147085498Y-100831680D01*
X147144463Y-100941994D01*
X147223815Y-101038685D01*
X147303594Y-101104158D01*
X147297038Y-101109538D01*
X147186595Y-101244114D01*
X147104528Y-101397650D01*
X147053992Y-101564246D01*
X147036928Y-101737500D01*
X147036928Y-102391849D01*
X146901939Y-102364998D01*
X146698061Y-102364998D01*
X146498102Y-102404772D01*
X146482213Y-102411353D01*
X146470472Y-102372648D01*
X146388405Y-102219113D01*
X146277962Y-102084538D01*
X146143387Y-101974095D01*
X145989852Y-101892028D01*
X145823256Y-101841492D01*
X145650002Y-101824428D01*
X144349998Y-101824428D01*
X144176744Y-101841492D01*
X144010148Y-101892028D01*
X143856613Y-101974095D01*
X143722038Y-102084538D01*
X143611595Y-102219113D01*
X143529528Y-102372648D01*
X143506624Y-102448154D01*
X143401897Y-102404775D01*
X143201938Y-102365001D01*
X142998060Y-102365001D01*
X142798101Y-102404775D01*
X142609743Y-102482796D01*
X142440225Y-102596064D01*
X142296062Y-102740227D01*
X142182794Y-102909745D01*
X142104773Y-103098103D01*
X142064999Y-103298062D01*
X142064999Y-103357370D01*
X141660442Y-103761928D01*
X141049999Y-103761928D01*
X140876745Y-103778992D01*
X140710149Y-103829528D01*
X140556613Y-103911595D01*
X140422038Y-104022038D01*
X140311595Y-104156613D01*
X140229528Y-104310149D01*
X140178992Y-104476745D01*
X140161928Y-104649999D01*
X140161928Y-105350001D01*
X140178992Y-105523255D01*
X140229528Y-105689851D01*
X140311595Y-105843387D01*
X140422038Y-105977962D01*
X140448891Y-106000000D01*
X140422038Y-106022038D01*
X140311595Y-106156613D01*
X140268093Y-106238000D01*
X139415631Y-106238000D01*
X138362000Y-105184370D01*
X138362000Y-104425572D01*
X138700002Y-104425572D01*
X138873256Y-104408508D01*
X139039852Y-104357972D01*
X139193387Y-104275905D01*
X139327962Y-104165462D01*
X139438405Y-104030887D01*
X139520472Y-103877352D01*
X139571008Y-103710756D01*
X139588072Y-103537502D01*
X139588072Y-102712498D01*
X139571008Y-102539244D01*
X139520472Y-102372648D01*
X139438405Y-102219113D01*
X139327962Y-102084538D01*
X139193387Y-101974095D01*
X139039852Y-101892028D01*
X138873256Y-101841492D01*
X138700002Y-101824428D01*
X136499998Y-101824428D01*
X136326744Y-101841492D01*
X136160148Y-101892028D01*
X136006613Y-101974095D01*
X135872038Y-102084538D01*
X135761595Y-102219113D01*
X135679528Y-102372648D01*
X135628992Y-102539244D01*
X135611928Y-102712498D01*
X135611928Y-103537502D01*
X135628992Y-103710756D01*
X135679528Y-103877352D01*
X135761595Y-104030887D01*
X135872038Y-104165462D01*
X136006613Y-104275905D01*
X136160148Y-104357972D01*
X136326744Y-104408508D01*
X136499998Y-104425572D01*
X136838001Y-104425572D01*
X136838001Y-105462567D01*
X136834314Y-105500000D01*
X136849027Y-105649378D01*
X136892599Y-105793015D01*
X136963355Y-105925392D01*
X137034721Y-106012351D01*
X137058579Y-106041422D01*
X137087649Y-106065279D01*
X138534720Y-107512351D01*
X138558578Y-107541422D01*
X138674608Y-107636645D01*
X138806985Y-107707402D01*
X138907853Y-107738000D01*
X136937422Y-107738000D01*
X136899999Y-107734314D01*
X136862576Y-107738000D01*
X136862574Y-107738000D01*
X136750622Y-107749026D01*
X136606985Y-107792598D01*
X136474608Y-107863355D01*
X136358578Y-107958578D01*
X136334721Y-107987648D01*
X135560442Y-108761928D01*
X134949999Y-108761928D01*
X134776745Y-108778992D01*
X134610149Y-108829528D01*
X134456613Y-108911595D01*
X134322038Y-109022038D01*
X134211595Y-109156613D01*
X134129528Y-109310149D01*
X134078992Y-109476745D01*
X134061928Y-109649999D01*
X134061928Y-110350001D01*
X134078992Y-110523255D01*
X134129528Y-110689851D01*
X134211595Y-110843387D01*
X134322038Y-110977962D01*
X134348891Y-111000000D01*
X134322038Y-111022038D01*
X134211595Y-111156613D01*
X134129528Y-111310149D01*
X134078992Y-111476745D01*
X134061928Y-111649999D01*
X134061928Y-112350001D01*
X134078992Y-112523255D01*
X134129528Y-112689851D01*
X134211595Y-112843387D01*
X134322038Y-112977962D01*
X134456613Y-113088405D01*
X134610149Y-113170472D01*
X134638000Y-113178921D01*
X134638001Y-114366163D01*
X134635149Y-114367028D01*
X134481613Y-114449095D01*
X134347038Y-114559538D01*
X134236595Y-114694113D01*
X134154528Y-114847649D01*
X134103992Y-115014245D01*
X134086928Y-115187499D01*
X134086928Y-116262501D01*
X134103992Y-116435755D01*
X134154528Y-116602351D01*
X134236595Y-116755887D01*
X134347038Y-116890462D01*
X134481613Y-117000905D01*
X134635149Y-117082972D01*
X134801745Y-117133508D01*
X134974999Y-117150572D01*
X135825001Y-117150572D01*
X135998255Y-117133508D01*
X136164851Y-117082972D01*
X136318387Y-117000905D01*
X136452962Y-116890462D01*
X136563405Y-116755887D01*
X136645472Y-116602351D01*
X136675000Y-116505010D01*
X136704528Y-116602351D01*
X136786595Y-116755887D01*
X136897038Y-116890462D01*
X137031613Y-117000905D01*
X137185149Y-117082972D01*
X137351745Y-117133508D01*
X137524999Y-117150572D01*
X138375001Y-117150572D01*
X138548255Y-117133508D01*
X138714851Y-117082972D01*
X138868387Y-117000905D01*
X139002962Y-116890462D01*
X139113405Y-116755887D01*
X139195472Y-116602351D01*
X139246008Y-116435755D01*
X139263072Y-116262501D01*
X139263072Y-115476931D01*
X139276645Y-115460392D01*
X139347402Y-115328015D01*
X139390974Y-115184378D01*
X139402000Y-115072426D01*
X139402000Y-115072424D01*
X139405686Y-115035001D01*
X139402000Y-114997578D01*
X139402000Y-113178920D01*
X139429851Y-113170472D01*
X139583387Y-113088405D01*
X139717962Y-112977962D01*
X139828405Y-112843387D01*
X139910472Y-112689851D01*
X139961008Y-112523255D01*
X139978072Y-112350001D01*
X139978072Y-111649999D01*
X139961008Y-111476745D01*
X139910472Y-111310149D01*
X139828405Y-111156613D01*
X139717962Y-111022038D01*
X139691109Y-111000000D01*
X139717962Y-110977962D01*
X139828405Y-110843387D01*
X139871907Y-110762000D01*
X146760369Y-110762000D01*
X143338072Y-114184298D01*
X143338072Y-113950000D01*
X143321008Y-113776746D01*
X143270472Y-113610150D01*
X143188405Y-113456614D01*
X143077962Y-113322038D01*
X142943386Y-113211595D01*
X142789850Y-113129528D01*
X142623254Y-113078992D01*
X142450000Y-113061928D01*
X141350000Y-113061928D01*
X141176746Y-113078992D01*
X141010150Y-113129528D01*
X140856614Y-113211595D01*
X140722038Y-113322038D01*
X140611595Y-113456614D01*
X140529528Y-113610150D01*
X140478992Y-113776746D01*
X140461928Y-113950000D01*
X140461928Y-116050000D01*
X140478992Y-116223254D01*
X140529528Y-116389850D01*
X140611595Y-116543386D01*
X140722038Y-116677962D01*
X140856614Y-116788405D01*
X140878307Y-116800000D01*
X140856614Y-116811595D01*
X140722038Y-116922038D01*
X140611595Y-117056614D01*
X140529528Y-117210150D01*
X140478992Y-117376746D01*
X140471088Y-117457000D01*
X139021396Y-117457000D01*
X139002962Y-117434538D01*
X138868387Y-117324095D01*
X138714851Y-117242028D01*
X138548255Y-117191492D01*
X138375001Y-117174428D01*
X137524999Y-117174428D01*
X137351745Y-117191492D01*
X137185149Y-117242028D01*
X137031613Y-117324095D01*
X136897038Y-117434538D01*
X136878604Y-117457000D01*
X136471396Y-117457000D01*
X136452962Y-117434538D01*
X136318387Y-117324095D01*
X136164851Y-117242028D01*
X135998255Y-117191492D01*
X135825001Y-117174428D01*
X134974999Y-117174428D01*
X134801745Y-117191492D01*
X134635149Y-117242028D01*
X134481613Y-117324095D01*
X134347038Y-117434538D01*
X134236595Y-117569113D01*
X134154528Y-117722649D01*
X134103992Y-117889245D01*
X134086928Y-118062499D01*
X134086928Y-119137501D01*
X134103992Y-119310755D01*
X134154528Y-119477351D01*
X134236595Y-119630887D01*
X134347038Y-119765462D01*
X134481613Y-119875905D01*
X134635149Y-119957972D01*
X134801745Y-120008508D01*
X134974999Y-120025572D01*
X135825001Y-120025572D01*
X135998255Y-120008508D01*
X136164851Y-119957972D01*
X136318387Y-119875905D01*
X136452962Y-119765462D01*
X136471396Y-119743000D01*
X136878604Y-119743000D01*
X136897038Y-119765462D01*
X137031613Y-119875905D01*
X137185149Y-119957972D01*
X137351745Y-120008508D01*
X137524999Y-120025572D01*
X138375001Y-120025572D01*
X138548255Y-120008508D01*
X138714851Y-119957972D01*
X138868387Y-119875905D01*
X139002962Y-119765462D01*
X139021396Y-119743000D01*
X140471088Y-119743000D01*
X140478992Y-119823254D01*
X140529528Y-119989850D01*
X140611595Y-120143386D01*
X140722038Y-120277962D01*
X140757001Y-120306655D01*
X140757001Y-120326554D01*
X140231482Y-120852073D01*
X140187867Y-120887867D01*
X140045032Y-121061912D01*
X139938897Y-121260478D01*
X139873539Y-121475934D01*
X139857000Y-121643855D01*
X139857000Y-121643861D01*
X139851471Y-121700000D01*
X139857000Y-121756139D01*
X139857000Y-122072431D01*
X139810537Y-121985506D01*
X139731185Y-121888815D01*
X139634494Y-121809463D01*
X139524180Y-121750498D01*
X139404482Y-121714188D01*
X139280000Y-121701928D01*
X138715750Y-121705000D01*
X138557000Y-121863750D01*
X138557000Y-123063000D01*
X138577000Y-123063000D01*
X138577000Y-123317000D01*
X138557000Y-123317000D01*
X138557000Y-123337000D01*
X138303000Y-123337000D01*
X138303000Y-123317000D01*
X137103750Y-123317000D01*
X136945000Y-123475750D01*
X136941928Y-124040000D01*
X136954188Y-124164482D01*
X136990498Y-124284180D01*
X137006972Y-124315000D01*
X132685000Y-124315000D01*
X132685000Y-122340000D01*
X136941928Y-122340000D01*
X136945000Y-122904250D01*
X137103750Y-123063000D01*
X138303000Y-123063000D01*
X138303000Y-121863750D01*
X138144250Y-121705000D01*
X137580000Y-121701928D01*
X137455518Y-121714188D01*
X137335820Y-121750498D01*
X137225506Y-121809463D01*
X137128815Y-121888815D01*
X137049463Y-121985506D01*
X136990498Y-122095820D01*
X136954188Y-122215518D01*
X136941928Y-122340000D01*
X132685000Y-122340000D01*
X132685000Y-100662500D01*
X135611928Y-100662500D01*
X135624188Y-100786982D01*
X135660498Y-100906680D01*
X135719463Y-101016994D01*
X135798815Y-101113685D01*
X135895506Y-101193037D01*
X136005820Y-101252002D01*
X136125518Y-101288312D01*
X136250000Y-101300572D01*
X137314250Y-101297500D01*
X137473000Y-101138750D01*
X137473000Y-100127000D01*
X137727000Y-100127000D01*
X137727000Y-101138750D01*
X137885750Y-101297500D01*
X138950000Y-101300572D01*
X139074482Y-101288312D01*
X139194180Y-101252002D01*
X139304494Y-101193037D01*
X139401185Y-101113685D01*
X139480537Y-101016994D01*
X139539502Y-100906680D01*
X139575812Y-100786982D01*
X139588072Y-100662500D01*
X143461928Y-100662500D01*
X143474188Y-100786982D01*
X143510498Y-100906680D01*
X143569463Y-101016994D01*
X143648815Y-101113685D01*
X143745506Y-101193037D01*
X143855820Y-101252002D01*
X143975518Y-101288312D01*
X144100000Y-101300572D01*
X144714250Y-101297500D01*
X144873000Y-101138750D01*
X144873000Y-100127000D01*
X145127000Y-100127000D01*
X145127000Y-101138750D01*
X145285750Y-101297500D01*
X145900000Y-101300572D01*
X146024482Y-101288312D01*
X146144180Y-101252002D01*
X146254494Y-101193037D01*
X146351185Y-101113685D01*
X146430537Y-101016994D01*
X146489502Y-100906680D01*
X146525812Y-100786982D01*
X146538072Y-100662500D01*
X146535000Y-100285750D01*
X146376250Y-100127000D01*
X145127000Y-100127000D01*
X144873000Y-100127000D01*
X143623750Y-100127000D01*
X143465000Y-100285750D01*
X143461928Y-100662500D01*
X139588072Y-100662500D01*
X139585000Y-100285750D01*
X139426250Y-100127000D01*
X137727000Y-100127000D01*
X137473000Y-100127000D01*
X135773750Y-100127000D01*
X135615000Y-100285750D01*
X135611928Y-100662500D01*
X132685000Y-100662500D01*
X132685000Y-99337500D01*
X135611928Y-99337500D01*
X135615000Y-99714250D01*
X135773750Y-99873000D01*
X137473000Y-99873000D01*
X137473000Y-98861250D01*
X137727000Y-98861250D01*
X137727000Y-99873000D01*
X139426250Y-99873000D01*
X139585000Y-99714250D01*
X139588072Y-99337500D01*
X143461928Y-99337500D01*
X143465000Y-99714250D01*
X143623750Y-99873000D01*
X144873000Y-99873000D01*
X144873000Y-98861250D01*
X145127000Y-98861250D01*
X145127000Y-99873000D01*
X146376250Y-99873000D01*
X146535000Y-99714250D01*
X146537460Y-99412500D01*
X147036928Y-99412500D01*
X147040000Y-99714250D01*
X147198750Y-99873000D01*
X148273000Y-99873000D01*
X148273000Y-98936250D01*
X148527000Y-98936250D01*
X148527000Y-99873000D01*
X149601250Y-99873000D01*
X149760000Y-99714250D01*
X149763072Y-99412500D01*
X149755686Y-99337500D01*
X151511928Y-99337500D01*
X151515000Y-99714250D01*
X151673750Y-99873000D01*
X152923000Y-99873000D01*
X152923000Y-98861250D01*
X153177000Y-98861250D01*
X153177000Y-99873000D01*
X154426250Y-99873000D01*
X154585000Y-99714250D01*
X154588072Y-99337500D01*
X154584379Y-99300000D01*
X155311928Y-99300000D01*
X155315000Y-99714250D01*
X155473750Y-99873000D01*
X157523000Y-99873000D01*
X157523000Y-98823750D01*
X157777000Y-98823750D01*
X157777000Y-99873000D01*
X159826250Y-99873000D01*
X159985000Y-99714250D01*
X159987237Y-99412500D01*
X160436928Y-99412500D01*
X160440000Y-99714250D01*
X160598750Y-99873000D01*
X161673000Y-99873000D01*
X161673000Y-98936250D01*
X161927000Y-98936250D01*
X161927000Y-99873000D01*
X163001250Y-99873000D01*
X163160000Y-99714250D01*
X163163072Y-99412500D01*
X163150812Y-99288018D01*
X163114502Y-99168320D01*
X163055537Y-99058006D01*
X162976185Y-98961315D01*
X162879494Y-98881963D01*
X162769180Y-98822998D01*
X162649482Y-98786688D01*
X162525000Y-98774428D01*
X162085750Y-98777500D01*
X161927000Y-98936250D01*
X161673000Y-98936250D01*
X161514250Y-98777500D01*
X161075000Y-98774428D01*
X160950518Y-98786688D01*
X160830820Y-98822998D01*
X160720506Y-98881963D01*
X160623815Y-98961315D01*
X160544463Y-99058006D01*
X160485498Y-99168320D01*
X160449188Y-99288018D01*
X160436928Y-99412500D01*
X159987237Y-99412500D01*
X159988072Y-99300000D01*
X159975812Y-99175518D01*
X159939502Y-99055820D01*
X159880537Y-98945506D01*
X159801185Y-98848815D01*
X159704494Y-98769463D01*
X159594180Y-98710498D01*
X159474482Y-98674188D01*
X159350000Y-98661928D01*
X157935750Y-98665000D01*
X157777000Y-98823750D01*
X157523000Y-98823750D01*
X157364250Y-98665000D01*
X155950000Y-98661928D01*
X155825518Y-98674188D01*
X155705820Y-98710498D01*
X155595506Y-98769463D01*
X155498815Y-98848815D01*
X155419463Y-98945506D01*
X155360498Y-99055820D01*
X155324188Y-99175518D01*
X155311928Y-99300000D01*
X154584379Y-99300000D01*
X154575812Y-99213018D01*
X154539502Y-99093320D01*
X154480537Y-98983006D01*
X154401185Y-98886315D01*
X154304494Y-98806963D01*
X154194180Y-98747998D01*
X154074482Y-98711688D01*
X153950000Y-98699428D01*
X153335750Y-98702500D01*
X153177000Y-98861250D01*
X152923000Y-98861250D01*
X152764250Y-98702500D01*
X152150000Y-98699428D01*
X152025518Y-98711688D01*
X151905820Y-98747998D01*
X151795506Y-98806963D01*
X151698815Y-98886315D01*
X151619463Y-98983006D01*
X151560498Y-99093320D01*
X151524188Y-99213018D01*
X151511928Y-99337500D01*
X149755686Y-99337500D01*
X149750812Y-99288018D01*
X149714502Y-99168320D01*
X149655537Y-99058006D01*
X149576185Y-98961315D01*
X149479494Y-98881963D01*
X149369180Y-98822998D01*
X149249482Y-98786688D01*
X149125000Y-98774428D01*
X148685750Y-98777500D01*
X148527000Y-98936250D01*
X148273000Y-98936250D01*
X148114250Y-98777500D01*
X147675000Y-98774428D01*
X147550518Y-98786688D01*
X147430820Y-98822998D01*
X147320506Y-98881963D01*
X147223815Y-98961315D01*
X147144463Y-99058006D01*
X147085498Y-99168320D01*
X147049188Y-99288018D01*
X147036928Y-99412500D01*
X146537460Y-99412500D01*
X146538072Y-99337500D01*
X146525812Y-99213018D01*
X146489502Y-99093320D01*
X146430537Y-98983006D01*
X146351185Y-98886315D01*
X146254494Y-98806963D01*
X146144180Y-98747998D01*
X146024482Y-98711688D01*
X145900000Y-98699428D01*
X145285750Y-98702500D01*
X145127000Y-98861250D01*
X144873000Y-98861250D01*
X144714250Y-98702500D01*
X144100000Y-98699428D01*
X143975518Y-98711688D01*
X143855820Y-98747998D01*
X143745506Y-98806963D01*
X143648815Y-98886315D01*
X143569463Y-98983006D01*
X143510498Y-99093320D01*
X143474188Y-99213018D01*
X143461928Y-99337500D01*
X139588072Y-99337500D01*
X139575812Y-99213018D01*
X139539502Y-99093320D01*
X139480537Y-98983006D01*
X139401185Y-98886315D01*
X139304494Y-98806963D01*
X139194180Y-98747998D01*
X139074482Y-98711688D01*
X138950000Y-98699428D01*
X137885750Y-98702500D01*
X137727000Y-98861250D01*
X137473000Y-98861250D01*
X137314250Y-98702500D01*
X136250000Y-98699428D01*
X136125518Y-98711688D01*
X136005820Y-98747998D01*
X135895506Y-98806963D01*
X135798815Y-98886315D01*
X135719463Y-98983006D01*
X135660498Y-99093320D01*
X135624188Y-99213018D01*
X135611928Y-99337500D01*
X132685000Y-99337500D01*
X132685000Y-97685000D01*
X207315001Y-97685000D01*
X207315000Y-124315000D01*
G37*
G04 #@! TD.AperFunction*
D14*
X171140505Y-122497741D02*
X171168341Y-122531659D01*
X171303709Y-122642753D01*
X171458149Y-122725303D01*
X171508172Y-122740477D01*
X171625725Y-122776136D01*
X171642325Y-122777771D01*
X171756333Y-122789000D01*
X171756340Y-122789000D01*
X171800000Y-122793300D01*
X171843660Y-122789000D01*
X177644166Y-122789000D01*
X177628519Y-122833109D01*
X177749186Y-123063000D01*
X178943000Y-123063000D01*
X178943000Y-123043000D01*
X179197000Y-123043000D01*
X179197000Y-123063000D01*
X179217000Y-123063000D01*
X179217000Y-123317000D01*
X179197000Y-123317000D01*
X179197000Y-123337000D01*
X178943000Y-123337000D01*
X178943000Y-123317000D01*
X177749186Y-123317000D01*
X177628519Y-123546891D01*
X177725843Y-123821252D01*
X177874822Y-124071355D01*
X178069731Y-124287588D01*
X178106482Y-124315000D01*
X147025107Y-124315000D01*
X147203475Y-124136632D01*
X147365990Y-123893411D01*
X147456458Y-123675000D01*
X167836928Y-123675000D01*
X167849188Y-123799482D01*
X167885498Y-123919180D01*
X167944463Y-124029494D01*
X168023815Y-124126185D01*
X168120506Y-124205537D01*
X168230820Y-124264502D01*
X168350518Y-124300812D01*
X168475000Y-124313072D01*
X168914250Y-124310000D01*
X169073000Y-124151250D01*
X169073000Y-123214500D01*
X169327000Y-123214500D01*
X169327000Y-124151250D01*
X169485750Y-124310000D01*
X169925000Y-124313072D01*
X170049482Y-124300812D01*
X170169180Y-124264502D01*
X170279494Y-124205537D01*
X170376185Y-124126185D01*
X170455537Y-124029494D01*
X170514502Y-123919180D01*
X170550812Y-123799482D01*
X170563072Y-123675000D01*
X170560000Y-123373250D01*
X170401250Y-123214500D01*
X169327000Y-123214500D01*
X169073000Y-123214500D01*
X167998750Y-123214500D01*
X167840000Y-123373250D01*
X167836928Y-123675000D01*
X147456458Y-123675000D01*
X147477932Y-123623158D01*
X147535000Y-123336260D01*
X147535000Y-123043740D01*
X147477932Y-122756842D01*
X147365990Y-122486589D01*
X147203475Y-122243368D01*
X147103107Y-122143000D01*
X167716943Y-122143000D01*
X167900000Y-122161029D01*
X167938175Y-122157269D01*
X167885498Y-122255820D01*
X167849188Y-122375518D01*
X167836928Y-122500000D01*
X167840000Y-122801750D01*
X167998750Y-122960500D01*
X169073000Y-122960500D01*
X169073000Y-122940500D01*
X169327000Y-122940500D01*
X169327000Y-122960500D01*
X170401250Y-122960500D01*
X170560000Y-122801750D01*
X170563072Y-122500000D01*
X170550812Y-122375518D01*
X170514502Y-122255820D01*
X170455537Y-122145506D01*
X170376185Y-122048815D01*
X170303300Y-121989000D01*
X170631765Y-121989000D01*
X171140505Y-122497741D01*
G04 #@! TA.AperFunction,Conductor*
D16*
G36*
X171140505Y-122497741D02*
G01*
X171168341Y-122531659D01*
X171303709Y-122642753D01*
X171458149Y-122725303D01*
X171508172Y-122740477D01*
X171625725Y-122776136D01*
X171642325Y-122777771D01*
X171756333Y-122789000D01*
X171756340Y-122789000D01*
X171800000Y-122793300D01*
X171843660Y-122789000D01*
X177644166Y-122789000D01*
X177628519Y-122833109D01*
X177749186Y-123063000D01*
X178943000Y-123063000D01*
X178943000Y-123043000D01*
X179197000Y-123043000D01*
X179197000Y-123063000D01*
X179217000Y-123063000D01*
X179217000Y-123317000D01*
X179197000Y-123317000D01*
X179197000Y-123337000D01*
X178943000Y-123337000D01*
X178943000Y-123317000D01*
X177749186Y-123317000D01*
X177628519Y-123546891D01*
X177725843Y-123821252D01*
X177874822Y-124071355D01*
X178069731Y-124287588D01*
X178106482Y-124315000D01*
X147025107Y-124315000D01*
X147203475Y-124136632D01*
X147365990Y-123893411D01*
X147456458Y-123675000D01*
X167836928Y-123675000D01*
X167849188Y-123799482D01*
X167885498Y-123919180D01*
X167944463Y-124029494D01*
X168023815Y-124126185D01*
X168120506Y-124205537D01*
X168230820Y-124264502D01*
X168350518Y-124300812D01*
X168475000Y-124313072D01*
X168914250Y-124310000D01*
X169073000Y-124151250D01*
X169073000Y-123214500D01*
X169327000Y-123214500D01*
X169327000Y-124151250D01*
X169485750Y-124310000D01*
X169925000Y-124313072D01*
X170049482Y-124300812D01*
X170169180Y-124264502D01*
X170279494Y-124205537D01*
X170376185Y-124126185D01*
X170455537Y-124029494D01*
X170514502Y-123919180D01*
X170550812Y-123799482D01*
X170563072Y-123675000D01*
X170560000Y-123373250D01*
X170401250Y-123214500D01*
X169327000Y-123214500D01*
X169073000Y-123214500D01*
X167998750Y-123214500D01*
X167840000Y-123373250D01*
X167836928Y-123675000D01*
X147456458Y-123675000D01*
X147477932Y-123623158D01*
X147535000Y-123336260D01*
X147535000Y-123043740D01*
X147477932Y-122756842D01*
X147365990Y-122486589D01*
X147203475Y-122243368D01*
X147103107Y-122143000D01*
X167716943Y-122143000D01*
X167900000Y-122161029D01*
X167938175Y-122157269D01*
X167885498Y-122255820D01*
X167849188Y-122375518D01*
X167836928Y-122500000D01*
X167840000Y-122801750D01*
X167998750Y-122960500D01*
X169073000Y-122960500D01*
X169073000Y-122940500D01*
X169327000Y-122940500D01*
X169327000Y-122960500D01*
X170401250Y-122960500D01*
X170560000Y-122801750D01*
X170563072Y-122500000D01*
X170550812Y-122375518D01*
X170514502Y-122255820D01*
X170455537Y-122145506D01*
X170376185Y-122048815D01*
X170303300Y-121989000D01*
X170631765Y-121989000D01*
X171140505Y-122497741D01*
G37*
G04 #@! TD.AperFunction*
M02*
