G04 #@! TF.GenerationSoftware,KiCad,Pcbnew,5.1.9-73d0e3b20d~88~ubuntu18.04.1*
G04 #@! TF.CreationDate,2021-01-10T19:17:03-05:00*
G04 #@! TF.ProjectId,DolbyS_NR_HIC,446f6c62-7953-45f4-9e52-5f4849432e6b,2020-11-03*
G04 #@! TF.SameCoordinates,Original*
G04 #@! TF.FileFunction,Copper,L1,Top*
G04 #@! TF.FilePolarity,Positive*
%FSLAX46Y46*%
G04 Gerber Fmt 4.6, Leading zero omitted, Abs format (unit mm)*
G04 Created by KiCad (PCBNEW 5.1.9-73d0e3b20d~88~ubuntu18.04.1) date 2021-01-10 19:17:03*
%MOMM*%
%LPD*%
G01*
G04 APERTURE LIST*
G04 #@! TA.AperFunction,ComponentPad*
%ADD10R,1.700000X1.700000*%
G04 #@! TD*
G04 #@! TA.AperFunction,ComponentPad*
%ADD11O,1.700000X1.700000*%
G04 #@! TD*
G04 #@! TA.AperFunction,SMDPad,CuDef*
%ADD12R,0.800000X0.900000*%
G04 #@! TD*
G04 #@! TA.AperFunction,ViaPad*
%ADD13C,0.800000*%
G04 #@! TD*
G04 #@! TA.AperFunction,Conductor*
%ADD14C,0.254000*%
G04 #@! TD*
G04 #@! TA.AperFunction,Conductor*
%ADD15C,1.016000*%
G04 #@! TD*
G04 #@! TA.AperFunction,Conductor*
%ADD16C,0.508000*%
G04 #@! TD*
G04 #@! TA.AperFunction,Conductor*
%ADD17C,0.150000*%
G04 #@! TD*
G04 APERTURE END LIST*
G04 #@! TA.AperFunction,SMDPad,CuDef*
G36*
G01*
X186049999Y-118000000D02*
X186950001Y-118000000D01*
G75*
G02*
X187200000Y-118249999I0J-249999D01*
G01*
X187200000Y-118950001D01*
G75*
G02*
X186950001Y-119200000I-249999J0D01*
G01*
X186049999Y-119200000D01*
G75*
G02*
X185800000Y-118950001I0J249999D01*
G01*
X185800000Y-118249999D01*
G75*
G02*
X186049999Y-118000000I249999J0D01*
G01*
G37*
G04 #@! TD.AperFunction*
G04 #@! TA.AperFunction,SMDPad,CuDef*
G36*
G01*
X186049999Y-116000000D02*
X186950001Y-116000000D01*
G75*
G02*
X187200000Y-116249999I0J-249999D01*
G01*
X187200000Y-116950001D01*
G75*
G02*
X186950001Y-117200000I-249999J0D01*
G01*
X186049999Y-117200000D01*
G75*
G02*
X185800000Y-116950001I0J249999D01*
G01*
X185800000Y-116249999D01*
G75*
G02*
X186049999Y-116000000I249999J0D01*
G01*
G37*
G04 #@! TD.AperFunction*
D10*
X138430000Y-123190000D03*
D11*
X140970000Y-123190000D03*
X143510000Y-123190000D03*
X146050000Y-123190000D03*
X179070000Y-123190000D03*
X181610000Y-123190000D03*
X184150000Y-123190000D03*
X186690000Y-123190000D03*
X189230000Y-123190000D03*
X191770000Y-123190000D03*
X194310000Y-123190000D03*
X196850000Y-123190000D03*
X199390000Y-123190000D03*
X201930000Y-123190000D03*
X204470000Y-123190000D03*
G04 #@! TA.AperFunction,SMDPad,CuDef*
G36*
G01*
X175500000Y-106625000D02*
X175500000Y-106375000D01*
G75*
G02*
X175625000Y-106250000I125000J0D01*
G01*
X178175000Y-106250000D01*
G75*
G02*
X178300000Y-106375000I0J-125000D01*
G01*
X178300000Y-106625000D01*
G75*
G02*
X178175000Y-106750000I-125000J0D01*
G01*
X175625000Y-106750000D01*
G75*
G02*
X175500000Y-106625000I0J125000D01*
G01*
G37*
G04 #@! TD.AperFunction*
G04 #@! TA.AperFunction,SMDPad,CuDef*
G36*
G01*
X175500000Y-107425000D02*
X175500000Y-107175000D01*
G75*
G02*
X175625000Y-107050000I125000J0D01*
G01*
X178175000Y-107050000D01*
G75*
G02*
X178300000Y-107175000I0J-125000D01*
G01*
X178300000Y-107425000D01*
G75*
G02*
X178175000Y-107550000I-125000J0D01*
G01*
X175625000Y-107550000D01*
G75*
G02*
X175500000Y-107425000I0J125000D01*
G01*
G37*
G04 #@! TD.AperFunction*
G04 #@! TA.AperFunction,SMDPad,CuDef*
G36*
G01*
X175500000Y-114625000D02*
X175500000Y-114375000D01*
G75*
G02*
X175625000Y-114250000I125000J0D01*
G01*
X178175000Y-114250000D01*
G75*
G02*
X178300000Y-114375000I0J-125000D01*
G01*
X178300000Y-114625000D01*
G75*
G02*
X178175000Y-114750000I-125000J0D01*
G01*
X175625000Y-114750000D01*
G75*
G02*
X175500000Y-114625000I0J125000D01*
G01*
G37*
G04 #@! TD.AperFunction*
G04 #@! TA.AperFunction,SMDPad,CuDef*
G36*
G01*
X175500000Y-113025000D02*
X175500000Y-112775000D01*
G75*
G02*
X175625000Y-112650000I125000J0D01*
G01*
X178175000Y-112650000D01*
G75*
G02*
X178300000Y-112775000I0J-125000D01*
G01*
X178300000Y-113025000D01*
G75*
G02*
X178175000Y-113150000I-125000J0D01*
G01*
X175625000Y-113150000D01*
G75*
G02*
X175500000Y-113025000I0J125000D01*
G01*
G37*
G04 #@! TD.AperFunction*
G04 #@! TA.AperFunction,SMDPad,CuDef*
G36*
G01*
X175500000Y-115425000D02*
X175500000Y-115175000D01*
G75*
G02*
X175625000Y-115050000I125000J0D01*
G01*
X178175000Y-115050000D01*
G75*
G02*
X178300000Y-115175000I0J-125000D01*
G01*
X178300000Y-115425000D01*
G75*
G02*
X178175000Y-115550000I-125000J0D01*
G01*
X175625000Y-115550000D01*
G75*
G02*
X175500000Y-115425000I0J125000D01*
G01*
G37*
G04 #@! TD.AperFunction*
G04 #@! TA.AperFunction,SMDPad,CuDef*
G36*
G01*
X175500000Y-109825000D02*
X175500000Y-109575000D01*
G75*
G02*
X175625000Y-109450000I125000J0D01*
G01*
X178175000Y-109450000D01*
G75*
G02*
X178300000Y-109575000I0J-125000D01*
G01*
X178300000Y-109825000D01*
G75*
G02*
X178175000Y-109950000I-125000J0D01*
G01*
X175625000Y-109950000D01*
G75*
G02*
X175500000Y-109825000I0J125000D01*
G01*
G37*
G04 #@! TD.AperFunction*
G04 #@! TA.AperFunction,SMDPad,CuDef*
G36*
G01*
X175500000Y-110625000D02*
X175500000Y-110375000D01*
G75*
G02*
X175625000Y-110250000I125000J0D01*
G01*
X178175000Y-110250000D01*
G75*
G02*
X178300000Y-110375000I0J-125000D01*
G01*
X178300000Y-110625000D01*
G75*
G02*
X178175000Y-110750000I-125000J0D01*
G01*
X175625000Y-110750000D01*
G75*
G02*
X175500000Y-110625000I0J125000D01*
G01*
G37*
G04 #@! TD.AperFunction*
G04 #@! TA.AperFunction,SMDPad,CuDef*
G36*
G01*
X175500000Y-112225000D02*
X175500000Y-111975000D01*
G75*
G02*
X175625000Y-111850000I125000J0D01*
G01*
X178175000Y-111850000D01*
G75*
G02*
X178300000Y-111975000I0J-125000D01*
G01*
X178300000Y-112225000D01*
G75*
G02*
X178175000Y-112350000I-125000J0D01*
G01*
X175625000Y-112350000D01*
G75*
G02*
X175500000Y-112225000I0J125000D01*
G01*
G37*
G04 #@! TD.AperFunction*
G04 #@! TA.AperFunction,SMDPad,CuDef*
G36*
G01*
X175500000Y-108225000D02*
X175500000Y-107975000D01*
G75*
G02*
X175625000Y-107850000I125000J0D01*
G01*
X178175000Y-107850000D01*
G75*
G02*
X178300000Y-107975000I0J-125000D01*
G01*
X178300000Y-108225000D01*
G75*
G02*
X178175000Y-108350000I-125000J0D01*
G01*
X175625000Y-108350000D01*
G75*
G02*
X175500000Y-108225000I0J125000D01*
G01*
G37*
G04 #@! TD.AperFunction*
G04 #@! TA.AperFunction,SMDPad,CuDef*
G36*
G01*
X175500000Y-113825000D02*
X175500000Y-113575000D01*
G75*
G02*
X175625000Y-113450000I125000J0D01*
G01*
X178175000Y-113450000D01*
G75*
G02*
X178300000Y-113575000I0J-125000D01*
G01*
X178300000Y-113825000D01*
G75*
G02*
X178175000Y-113950000I-125000J0D01*
G01*
X175625000Y-113950000D01*
G75*
G02*
X175500000Y-113825000I0J125000D01*
G01*
G37*
G04 #@! TD.AperFunction*
G04 #@! TA.AperFunction,SMDPad,CuDef*
G36*
G01*
X175500000Y-111425000D02*
X175500000Y-111175000D01*
G75*
G02*
X175625000Y-111050000I125000J0D01*
G01*
X178175000Y-111050000D01*
G75*
G02*
X178300000Y-111175000I0J-125000D01*
G01*
X178300000Y-111425000D01*
G75*
G02*
X178175000Y-111550000I-125000J0D01*
G01*
X175625000Y-111550000D01*
G75*
G02*
X175500000Y-111425000I0J125000D01*
G01*
G37*
G04 #@! TD.AperFunction*
G04 #@! TA.AperFunction,SMDPad,CuDef*
G36*
G01*
X175500000Y-109025000D02*
X175500000Y-108775000D01*
G75*
G02*
X175625000Y-108650000I125000J0D01*
G01*
X178175000Y-108650000D01*
G75*
G02*
X178300000Y-108775000I0J-125000D01*
G01*
X178300000Y-109025000D01*
G75*
G02*
X178175000Y-109150000I-125000J0D01*
G01*
X175625000Y-109150000D01*
G75*
G02*
X175500000Y-109025000I0J125000D01*
G01*
G37*
G04 #@! TD.AperFunction*
G04 #@! TA.AperFunction,SMDPad,CuDef*
G36*
G01*
X173675000Y-117000000D02*
X173925000Y-117000000D01*
G75*
G02*
X174050000Y-117125000I0J-125000D01*
G01*
X174050000Y-119675000D01*
G75*
G02*
X173925000Y-119800000I-125000J0D01*
G01*
X173675000Y-119800000D01*
G75*
G02*
X173550000Y-119675000I0J125000D01*
G01*
X173550000Y-117125000D01*
G75*
G02*
X173675000Y-117000000I125000J0D01*
G01*
G37*
G04 #@! TD.AperFunction*
G04 #@! TA.AperFunction,SMDPad,CuDef*
G36*
G01*
X172875000Y-117000000D02*
X173125000Y-117000000D01*
G75*
G02*
X173250000Y-117125000I0J-125000D01*
G01*
X173250000Y-119675000D01*
G75*
G02*
X173125000Y-119800000I-125000J0D01*
G01*
X172875000Y-119800000D01*
G75*
G02*
X172750000Y-119675000I0J125000D01*
G01*
X172750000Y-117125000D01*
G75*
G02*
X172875000Y-117000000I125000J0D01*
G01*
G37*
G04 #@! TD.AperFunction*
G04 #@! TA.AperFunction,SMDPad,CuDef*
G36*
G01*
X165675000Y-117000000D02*
X165925000Y-117000000D01*
G75*
G02*
X166050000Y-117125000I0J-125000D01*
G01*
X166050000Y-119675000D01*
G75*
G02*
X165925000Y-119800000I-125000J0D01*
G01*
X165675000Y-119800000D01*
G75*
G02*
X165550000Y-119675000I0J125000D01*
G01*
X165550000Y-117125000D01*
G75*
G02*
X165675000Y-117000000I125000J0D01*
G01*
G37*
G04 #@! TD.AperFunction*
G04 #@! TA.AperFunction,SMDPad,CuDef*
G36*
G01*
X167275000Y-117000000D02*
X167525000Y-117000000D01*
G75*
G02*
X167650000Y-117125000I0J-125000D01*
G01*
X167650000Y-119675000D01*
G75*
G02*
X167525000Y-119800000I-125000J0D01*
G01*
X167275000Y-119800000D01*
G75*
G02*
X167150000Y-119675000I0J125000D01*
G01*
X167150000Y-117125000D01*
G75*
G02*
X167275000Y-117000000I125000J0D01*
G01*
G37*
G04 #@! TD.AperFunction*
G04 #@! TA.AperFunction,SMDPad,CuDef*
G36*
G01*
X164875000Y-117000000D02*
X165125000Y-117000000D01*
G75*
G02*
X165250000Y-117125000I0J-125000D01*
G01*
X165250000Y-119675000D01*
G75*
G02*
X165125000Y-119800000I-125000J0D01*
G01*
X164875000Y-119800000D01*
G75*
G02*
X164750000Y-119675000I0J125000D01*
G01*
X164750000Y-117125000D01*
G75*
G02*
X164875000Y-117000000I125000J0D01*
G01*
G37*
G04 #@! TD.AperFunction*
G04 #@! TA.AperFunction,SMDPad,CuDef*
G36*
G01*
X170475000Y-117000000D02*
X170725000Y-117000000D01*
G75*
G02*
X170850000Y-117125000I0J-125000D01*
G01*
X170850000Y-119675000D01*
G75*
G02*
X170725000Y-119800000I-125000J0D01*
G01*
X170475000Y-119800000D01*
G75*
G02*
X170350000Y-119675000I0J125000D01*
G01*
X170350000Y-117125000D01*
G75*
G02*
X170475000Y-117000000I125000J0D01*
G01*
G37*
G04 #@! TD.AperFunction*
G04 #@! TA.AperFunction,SMDPad,CuDef*
G36*
G01*
X169675000Y-117000000D02*
X169925000Y-117000000D01*
G75*
G02*
X170050000Y-117125000I0J-125000D01*
G01*
X170050000Y-119675000D01*
G75*
G02*
X169925000Y-119800000I-125000J0D01*
G01*
X169675000Y-119800000D01*
G75*
G02*
X169550000Y-119675000I0J125000D01*
G01*
X169550000Y-117125000D01*
G75*
G02*
X169675000Y-117000000I125000J0D01*
G01*
G37*
G04 #@! TD.AperFunction*
G04 #@! TA.AperFunction,SMDPad,CuDef*
G36*
G01*
X168075000Y-117000000D02*
X168325000Y-117000000D01*
G75*
G02*
X168450000Y-117125000I0J-125000D01*
G01*
X168450000Y-119675000D01*
G75*
G02*
X168325000Y-119800000I-125000J0D01*
G01*
X168075000Y-119800000D01*
G75*
G02*
X167950000Y-119675000I0J125000D01*
G01*
X167950000Y-117125000D01*
G75*
G02*
X168075000Y-117000000I125000J0D01*
G01*
G37*
G04 #@! TD.AperFunction*
G04 #@! TA.AperFunction,SMDPad,CuDef*
G36*
G01*
X172075000Y-117000000D02*
X172325000Y-117000000D01*
G75*
G02*
X172450000Y-117125000I0J-125000D01*
G01*
X172450000Y-119675000D01*
G75*
G02*
X172325000Y-119800000I-125000J0D01*
G01*
X172075000Y-119800000D01*
G75*
G02*
X171950000Y-119675000I0J125000D01*
G01*
X171950000Y-117125000D01*
G75*
G02*
X172075000Y-117000000I125000J0D01*
G01*
G37*
G04 #@! TD.AperFunction*
G04 #@! TA.AperFunction,SMDPad,CuDef*
G36*
G01*
X166475000Y-117000000D02*
X166725000Y-117000000D01*
G75*
G02*
X166850000Y-117125000I0J-125000D01*
G01*
X166850000Y-119675000D01*
G75*
G02*
X166725000Y-119800000I-125000J0D01*
G01*
X166475000Y-119800000D01*
G75*
G02*
X166350000Y-119675000I0J125000D01*
G01*
X166350000Y-117125000D01*
G75*
G02*
X166475000Y-117000000I125000J0D01*
G01*
G37*
G04 #@! TD.AperFunction*
G04 #@! TA.AperFunction,SMDPad,CuDef*
G36*
G01*
X168875000Y-117000000D02*
X169125000Y-117000000D01*
G75*
G02*
X169250000Y-117125000I0J-125000D01*
G01*
X169250000Y-119675000D01*
G75*
G02*
X169125000Y-119800000I-125000J0D01*
G01*
X168875000Y-119800000D01*
G75*
G02*
X168750000Y-119675000I0J125000D01*
G01*
X168750000Y-117125000D01*
G75*
G02*
X168875000Y-117000000I125000J0D01*
G01*
G37*
G04 #@! TD.AperFunction*
G04 #@! TA.AperFunction,SMDPad,CuDef*
G36*
G01*
X171275000Y-117000000D02*
X171525000Y-117000000D01*
G75*
G02*
X171650000Y-117125000I0J-125000D01*
G01*
X171650000Y-119675000D01*
G75*
G02*
X171525000Y-119800000I-125000J0D01*
G01*
X171275000Y-119800000D01*
G75*
G02*
X171150000Y-119675000I0J125000D01*
G01*
X171150000Y-117125000D01*
G75*
G02*
X171275000Y-117000000I125000J0D01*
G01*
G37*
G04 #@! TD.AperFunction*
G04 #@! TA.AperFunction,SMDPad,CuDef*
G36*
G01*
X160500000Y-106625000D02*
X160500000Y-106375000D01*
G75*
G02*
X160625000Y-106250000I125000J0D01*
G01*
X163175000Y-106250000D01*
G75*
G02*
X163300000Y-106375000I0J-125000D01*
G01*
X163300000Y-106625000D01*
G75*
G02*
X163175000Y-106750000I-125000J0D01*
G01*
X160625000Y-106750000D01*
G75*
G02*
X160500000Y-106625000I0J125000D01*
G01*
G37*
G04 #@! TD.AperFunction*
G04 #@! TA.AperFunction,SMDPad,CuDef*
G36*
G01*
X160500000Y-107425000D02*
X160500000Y-107175000D01*
G75*
G02*
X160625000Y-107050000I125000J0D01*
G01*
X163175000Y-107050000D01*
G75*
G02*
X163300000Y-107175000I0J-125000D01*
G01*
X163300000Y-107425000D01*
G75*
G02*
X163175000Y-107550000I-125000J0D01*
G01*
X160625000Y-107550000D01*
G75*
G02*
X160500000Y-107425000I0J125000D01*
G01*
G37*
G04 #@! TD.AperFunction*
G04 #@! TA.AperFunction,SMDPad,CuDef*
G36*
G01*
X160500000Y-114625000D02*
X160500000Y-114375000D01*
G75*
G02*
X160625000Y-114250000I125000J0D01*
G01*
X163175000Y-114250000D01*
G75*
G02*
X163300000Y-114375000I0J-125000D01*
G01*
X163300000Y-114625000D01*
G75*
G02*
X163175000Y-114750000I-125000J0D01*
G01*
X160625000Y-114750000D01*
G75*
G02*
X160500000Y-114625000I0J125000D01*
G01*
G37*
G04 #@! TD.AperFunction*
G04 #@! TA.AperFunction,SMDPad,CuDef*
G36*
G01*
X160500000Y-113025000D02*
X160500000Y-112775000D01*
G75*
G02*
X160625000Y-112650000I125000J0D01*
G01*
X163175000Y-112650000D01*
G75*
G02*
X163300000Y-112775000I0J-125000D01*
G01*
X163300000Y-113025000D01*
G75*
G02*
X163175000Y-113150000I-125000J0D01*
G01*
X160625000Y-113150000D01*
G75*
G02*
X160500000Y-113025000I0J125000D01*
G01*
G37*
G04 #@! TD.AperFunction*
G04 #@! TA.AperFunction,SMDPad,CuDef*
G36*
G01*
X160500000Y-115425000D02*
X160500000Y-115175000D01*
G75*
G02*
X160625000Y-115050000I125000J0D01*
G01*
X163175000Y-115050000D01*
G75*
G02*
X163300000Y-115175000I0J-125000D01*
G01*
X163300000Y-115425000D01*
G75*
G02*
X163175000Y-115550000I-125000J0D01*
G01*
X160625000Y-115550000D01*
G75*
G02*
X160500000Y-115425000I0J125000D01*
G01*
G37*
G04 #@! TD.AperFunction*
G04 #@! TA.AperFunction,SMDPad,CuDef*
G36*
G01*
X160500000Y-109825000D02*
X160500000Y-109575000D01*
G75*
G02*
X160625000Y-109450000I125000J0D01*
G01*
X163175000Y-109450000D01*
G75*
G02*
X163300000Y-109575000I0J-125000D01*
G01*
X163300000Y-109825000D01*
G75*
G02*
X163175000Y-109950000I-125000J0D01*
G01*
X160625000Y-109950000D01*
G75*
G02*
X160500000Y-109825000I0J125000D01*
G01*
G37*
G04 #@! TD.AperFunction*
G04 #@! TA.AperFunction,SMDPad,CuDef*
G36*
G01*
X160500000Y-110625000D02*
X160500000Y-110375000D01*
G75*
G02*
X160625000Y-110250000I125000J0D01*
G01*
X163175000Y-110250000D01*
G75*
G02*
X163300000Y-110375000I0J-125000D01*
G01*
X163300000Y-110625000D01*
G75*
G02*
X163175000Y-110750000I-125000J0D01*
G01*
X160625000Y-110750000D01*
G75*
G02*
X160500000Y-110625000I0J125000D01*
G01*
G37*
G04 #@! TD.AperFunction*
G04 #@! TA.AperFunction,SMDPad,CuDef*
G36*
G01*
X160500000Y-112225000D02*
X160500000Y-111975000D01*
G75*
G02*
X160625000Y-111850000I125000J0D01*
G01*
X163175000Y-111850000D01*
G75*
G02*
X163300000Y-111975000I0J-125000D01*
G01*
X163300000Y-112225000D01*
G75*
G02*
X163175000Y-112350000I-125000J0D01*
G01*
X160625000Y-112350000D01*
G75*
G02*
X160500000Y-112225000I0J125000D01*
G01*
G37*
G04 #@! TD.AperFunction*
G04 #@! TA.AperFunction,SMDPad,CuDef*
G36*
G01*
X160500000Y-108225000D02*
X160500000Y-107975000D01*
G75*
G02*
X160625000Y-107850000I125000J0D01*
G01*
X163175000Y-107850000D01*
G75*
G02*
X163300000Y-107975000I0J-125000D01*
G01*
X163300000Y-108225000D01*
G75*
G02*
X163175000Y-108350000I-125000J0D01*
G01*
X160625000Y-108350000D01*
G75*
G02*
X160500000Y-108225000I0J125000D01*
G01*
G37*
G04 #@! TD.AperFunction*
G04 #@! TA.AperFunction,SMDPad,CuDef*
G36*
G01*
X160500000Y-113825000D02*
X160500000Y-113575000D01*
G75*
G02*
X160625000Y-113450000I125000J0D01*
G01*
X163175000Y-113450000D01*
G75*
G02*
X163300000Y-113575000I0J-125000D01*
G01*
X163300000Y-113825000D01*
G75*
G02*
X163175000Y-113950000I-125000J0D01*
G01*
X160625000Y-113950000D01*
G75*
G02*
X160500000Y-113825000I0J125000D01*
G01*
G37*
G04 #@! TD.AperFunction*
G04 #@! TA.AperFunction,SMDPad,CuDef*
G36*
G01*
X160500000Y-111425000D02*
X160500000Y-111175000D01*
G75*
G02*
X160625000Y-111050000I125000J0D01*
G01*
X163175000Y-111050000D01*
G75*
G02*
X163300000Y-111175000I0J-125000D01*
G01*
X163300000Y-111425000D01*
G75*
G02*
X163175000Y-111550000I-125000J0D01*
G01*
X160625000Y-111550000D01*
G75*
G02*
X160500000Y-111425000I0J125000D01*
G01*
G37*
G04 #@! TD.AperFunction*
G04 #@! TA.AperFunction,SMDPad,CuDef*
G36*
G01*
X160500000Y-109025000D02*
X160500000Y-108775000D01*
G75*
G02*
X160625000Y-108650000I125000J0D01*
G01*
X163175000Y-108650000D01*
G75*
G02*
X163300000Y-108775000I0J-125000D01*
G01*
X163300000Y-109025000D01*
G75*
G02*
X163175000Y-109150000I-125000J0D01*
G01*
X160625000Y-109150000D01*
G75*
G02*
X160500000Y-109025000I0J125000D01*
G01*
G37*
G04 #@! TD.AperFunction*
G04 #@! TA.AperFunction,SMDPad,CuDef*
G36*
G01*
X164875000Y-102000000D02*
X165125000Y-102000000D01*
G75*
G02*
X165250000Y-102125000I0J-125000D01*
G01*
X165250000Y-104675000D01*
G75*
G02*
X165125000Y-104800000I-125000J0D01*
G01*
X164875000Y-104800000D01*
G75*
G02*
X164750000Y-104675000I0J125000D01*
G01*
X164750000Y-102125000D01*
G75*
G02*
X164875000Y-102000000I125000J0D01*
G01*
G37*
G04 #@! TD.AperFunction*
G04 #@! TA.AperFunction,SMDPad,CuDef*
G36*
G01*
X165675000Y-102000000D02*
X165925000Y-102000000D01*
G75*
G02*
X166050000Y-102125000I0J-125000D01*
G01*
X166050000Y-104675000D01*
G75*
G02*
X165925000Y-104800000I-125000J0D01*
G01*
X165675000Y-104800000D01*
G75*
G02*
X165550000Y-104675000I0J125000D01*
G01*
X165550000Y-102125000D01*
G75*
G02*
X165675000Y-102000000I125000J0D01*
G01*
G37*
G04 #@! TD.AperFunction*
G04 #@! TA.AperFunction,SMDPad,CuDef*
G36*
G01*
X166475000Y-102000000D02*
X166725000Y-102000000D01*
G75*
G02*
X166850000Y-102125000I0J-125000D01*
G01*
X166850000Y-104675000D01*
G75*
G02*
X166725000Y-104800000I-125000J0D01*
G01*
X166475000Y-104800000D01*
G75*
G02*
X166350000Y-104675000I0J125000D01*
G01*
X166350000Y-102125000D01*
G75*
G02*
X166475000Y-102000000I125000J0D01*
G01*
G37*
G04 #@! TD.AperFunction*
G04 #@! TA.AperFunction,SMDPad,CuDef*
G36*
G01*
X167275000Y-102000000D02*
X167525000Y-102000000D01*
G75*
G02*
X167650000Y-102125000I0J-125000D01*
G01*
X167650000Y-104675000D01*
G75*
G02*
X167525000Y-104800000I-125000J0D01*
G01*
X167275000Y-104800000D01*
G75*
G02*
X167150000Y-104675000I0J125000D01*
G01*
X167150000Y-102125000D01*
G75*
G02*
X167275000Y-102000000I125000J0D01*
G01*
G37*
G04 #@! TD.AperFunction*
G04 #@! TA.AperFunction,SMDPad,CuDef*
G36*
G01*
X168075000Y-102000000D02*
X168325000Y-102000000D01*
G75*
G02*
X168450000Y-102125000I0J-125000D01*
G01*
X168450000Y-104675000D01*
G75*
G02*
X168325000Y-104800000I-125000J0D01*
G01*
X168075000Y-104800000D01*
G75*
G02*
X167950000Y-104675000I0J125000D01*
G01*
X167950000Y-102125000D01*
G75*
G02*
X168075000Y-102000000I125000J0D01*
G01*
G37*
G04 #@! TD.AperFunction*
G04 #@! TA.AperFunction,SMDPad,CuDef*
G36*
G01*
X168875000Y-102000000D02*
X169125000Y-102000000D01*
G75*
G02*
X169250000Y-102125000I0J-125000D01*
G01*
X169250000Y-104675000D01*
G75*
G02*
X169125000Y-104800000I-125000J0D01*
G01*
X168875000Y-104800000D01*
G75*
G02*
X168750000Y-104675000I0J125000D01*
G01*
X168750000Y-102125000D01*
G75*
G02*
X168875000Y-102000000I125000J0D01*
G01*
G37*
G04 #@! TD.AperFunction*
G04 #@! TA.AperFunction,SMDPad,CuDef*
G36*
G01*
X169675000Y-102000000D02*
X169925000Y-102000000D01*
G75*
G02*
X170050000Y-102125000I0J-125000D01*
G01*
X170050000Y-104675000D01*
G75*
G02*
X169925000Y-104800000I-125000J0D01*
G01*
X169675000Y-104800000D01*
G75*
G02*
X169550000Y-104675000I0J125000D01*
G01*
X169550000Y-102125000D01*
G75*
G02*
X169675000Y-102000000I125000J0D01*
G01*
G37*
G04 #@! TD.AperFunction*
G04 #@! TA.AperFunction,SMDPad,CuDef*
G36*
G01*
X170475000Y-102000000D02*
X170725000Y-102000000D01*
G75*
G02*
X170850000Y-102125000I0J-125000D01*
G01*
X170850000Y-104675000D01*
G75*
G02*
X170725000Y-104800000I-125000J0D01*
G01*
X170475000Y-104800000D01*
G75*
G02*
X170350000Y-104675000I0J125000D01*
G01*
X170350000Y-102125000D01*
G75*
G02*
X170475000Y-102000000I125000J0D01*
G01*
G37*
G04 #@! TD.AperFunction*
G04 #@! TA.AperFunction,SMDPad,CuDef*
G36*
G01*
X171275000Y-102000000D02*
X171525000Y-102000000D01*
G75*
G02*
X171650000Y-102125000I0J-125000D01*
G01*
X171650000Y-104675000D01*
G75*
G02*
X171525000Y-104800000I-125000J0D01*
G01*
X171275000Y-104800000D01*
G75*
G02*
X171150000Y-104675000I0J125000D01*
G01*
X171150000Y-102125000D01*
G75*
G02*
X171275000Y-102000000I125000J0D01*
G01*
G37*
G04 #@! TD.AperFunction*
G04 #@! TA.AperFunction,SMDPad,CuDef*
G36*
G01*
X172075000Y-102000000D02*
X172325000Y-102000000D01*
G75*
G02*
X172450000Y-102125000I0J-125000D01*
G01*
X172450000Y-104675000D01*
G75*
G02*
X172325000Y-104800000I-125000J0D01*
G01*
X172075000Y-104800000D01*
G75*
G02*
X171950000Y-104675000I0J125000D01*
G01*
X171950000Y-102125000D01*
G75*
G02*
X172075000Y-102000000I125000J0D01*
G01*
G37*
G04 #@! TD.AperFunction*
G04 #@! TA.AperFunction,SMDPad,CuDef*
G36*
G01*
X172875000Y-102000000D02*
X173125000Y-102000000D01*
G75*
G02*
X173250000Y-102125000I0J-125000D01*
G01*
X173250000Y-104675000D01*
G75*
G02*
X173125000Y-104800000I-125000J0D01*
G01*
X172875000Y-104800000D01*
G75*
G02*
X172750000Y-104675000I0J125000D01*
G01*
X172750000Y-102125000D01*
G75*
G02*
X172875000Y-102000000I125000J0D01*
G01*
G37*
G04 #@! TD.AperFunction*
G04 #@! TA.AperFunction,SMDPad,CuDef*
G36*
G01*
X173675000Y-102000000D02*
X173925000Y-102000000D01*
G75*
G02*
X174050000Y-102125000I0J-125000D01*
G01*
X174050000Y-104675000D01*
G75*
G02*
X173925000Y-104800000I-125000J0D01*
G01*
X173675000Y-104800000D01*
G75*
G02*
X173550000Y-104675000I0J125000D01*
G01*
X173550000Y-102125000D01*
G75*
G02*
X173675000Y-102000000I125000J0D01*
G01*
G37*
G04 #@! TD.AperFunction*
D12*
X202730000Y-111640000D03*
X203680000Y-113640000D03*
X201780000Y-113640000D03*
X190260000Y-111620000D03*
X191210000Y-113620000D03*
X189310000Y-113620000D03*
X198600000Y-111640000D03*
X199550000Y-113640000D03*
X197650000Y-113640000D03*
X194470000Y-111600000D03*
X195420000Y-113600000D03*
X193520000Y-113600000D03*
G04 #@! TA.AperFunction,SMDPad,CuDef*
G36*
G01*
X203685000Y-105600000D02*
X203985000Y-105600000D01*
G75*
G02*
X204135000Y-105750000I0J-150000D01*
G01*
X204135000Y-107400000D01*
G75*
G02*
X203985000Y-107550000I-150000J0D01*
G01*
X203685000Y-107550000D01*
G75*
G02*
X203535000Y-107400000I0J150000D01*
G01*
X203535000Y-105750000D01*
G75*
G02*
X203685000Y-105600000I150000J0D01*
G01*
G37*
G04 #@! TD.AperFunction*
G04 #@! TA.AperFunction,SMDPad,CuDef*
G36*
G01*
X202415000Y-105600000D02*
X202715000Y-105600000D01*
G75*
G02*
X202865000Y-105750000I0J-150000D01*
G01*
X202865000Y-107400000D01*
G75*
G02*
X202715000Y-107550000I-150000J0D01*
G01*
X202415000Y-107550000D01*
G75*
G02*
X202265000Y-107400000I0J150000D01*
G01*
X202265000Y-105750000D01*
G75*
G02*
X202415000Y-105600000I150000J0D01*
G01*
G37*
G04 #@! TD.AperFunction*
G04 #@! TA.AperFunction,SMDPad,CuDef*
G36*
G01*
X201145000Y-105600000D02*
X201445000Y-105600000D01*
G75*
G02*
X201595000Y-105750000I0J-150000D01*
G01*
X201595000Y-107400000D01*
G75*
G02*
X201445000Y-107550000I-150000J0D01*
G01*
X201145000Y-107550000D01*
G75*
G02*
X200995000Y-107400000I0J150000D01*
G01*
X200995000Y-105750000D01*
G75*
G02*
X201145000Y-105600000I150000J0D01*
G01*
G37*
G04 #@! TD.AperFunction*
G04 #@! TA.AperFunction,SMDPad,CuDef*
G36*
G01*
X199875000Y-105600000D02*
X200175000Y-105600000D01*
G75*
G02*
X200325000Y-105750000I0J-150000D01*
G01*
X200325000Y-107400000D01*
G75*
G02*
X200175000Y-107550000I-150000J0D01*
G01*
X199875000Y-107550000D01*
G75*
G02*
X199725000Y-107400000I0J150000D01*
G01*
X199725000Y-105750000D01*
G75*
G02*
X199875000Y-105600000I150000J0D01*
G01*
G37*
G04 #@! TD.AperFunction*
G04 #@! TA.AperFunction,SMDPad,CuDef*
G36*
G01*
X199875000Y-100650000D02*
X200175000Y-100650000D01*
G75*
G02*
X200325000Y-100800000I0J-150000D01*
G01*
X200325000Y-102450000D01*
G75*
G02*
X200175000Y-102600000I-150000J0D01*
G01*
X199875000Y-102600000D01*
G75*
G02*
X199725000Y-102450000I0J150000D01*
G01*
X199725000Y-100800000D01*
G75*
G02*
X199875000Y-100650000I150000J0D01*
G01*
G37*
G04 #@! TD.AperFunction*
G04 #@! TA.AperFunction,SMDPad,CuDef*
G36*
G01*
X201145000Y-100650000D02*
X201445000Y-100650000D01*
G75*
G02*
X201595000Y-100800000I0J-150000D01*
G01*
X201595000Y-102450000D01*
G75*
G02*
X201445000Y-102600000I-150000J0D01*
G01*
X201145000Y-102600000D01*
G75*
G02*
X200995000Y-102450000I0J150000D01*
G01*
X200995000Y-100800000D01*
G75*
G02*
X201145000Y-100650000I150000J0D01*
G01*
G37*
G04 #@! TD.AperFunction*
G04 #@! TA.AperFunction,SMDPad,CuDef*
G36*
G01*
X202415000Y-100650000D02*
X202715000Y-100650000D01*
G75*
G02*
X202865000Y-100800000I0J-150000D01*
G01*
X202865000Y-102450000D01*
G75*
G02*
X202715000Y-102600000I-150000J0D01*
G01*
X202415000Y-102600000D01*
G75*
G02*
X202265000Y-102450000I0J150000D01*
G01*
X202265000Y-100800000D01*
G75*
G02*
X202415000Y-100650000I150000J0D01*
G01*
G37*
G04 #@! TD.AperFunction*
G04 #@! TA.AperFunction,SMDPad,CuDef*
G36*
G01*
X203685000Y-100650000D02*
X203985000Y-100650000D01*
G75*
G02*
X204135000Y-100800000I0J-150000D01*
G01*
X204135000Y-102450000D01*
G75*
G02*
X203985000Y-102600000I-150000J0D01*
G01*
X203685000Y-102600000D01*
G75*
G02*
X203535000Y-102450000I0J150000D01*
G01*
X203535000Y-100800000D01*
G75*
G02*
X203685000Y-100650000I150000J0D01*
G01*
G37*
G04 #@! TD.AperFunction*
G04 #@! TA.AperFunction,SMDPad,CuDef*
G36*
G01*
X156649999Y-111400000D02*
X157550001Y-111400000D01*
G75*
G02*
X157800000Y-111649999I0J-249999D01*
G01*
X157800000Y-112350001D01*
G75*
G02*
X157550001Y-112600000I-249999J0D01*
G01*
X156649999Y-112600000D01*
G75*
G02*
X156400000Y-112350001I0J249999D01*
G01*
X156400000Y-111649999D01*
G75*
G02*
X156649999Y-111400000I249999J0D01*
G01*
G37*
G04 #@! TD.AperFunction*
G04 #@! TA.AperFunction,SMDPad,CuDef*
G36*
G01*
X156649999Y-109400000D02*
X157550001Y-109400000D01*
G75*
G02*
X157800000Y-109649999I0J-249999D01*
G01*
X157800000Y-110350001D01*
G75*
G02*
X157550001Y-110600000I-249999J0D01*
G01*
X156649999Y-110600000D01*
G75*
G02*
X156400000Y-110350001I0J249999D01*
G01*
X156400000Y-109649999D01*
G75*
G02*
X156649999Y-109400000I249999J0D01*
G01*
G37*
G04 #@! TD.AperFunction*
G04 #@! TA.AperFunction,SMDPad,CuDef*
G36*
G01*
X154250001Y-110550000D02*
X153349999Y-110550000D01*
G75*
G02*
X153100000Y-110300001I0J249999D01*
G01*
X153100000Y-109599999D01*
G75*
G02*
X153349999Y-109350000I249999J0D01*
G01*
X154250001Y-109350000D01*
G75*
G02*
X154500000Y-109599999I0J-249999D01*
G01*
X154500000Y-110300001D01*
G75*
G02*
X154250001Y-110550000I-249999J0D01*
G01*
G37*
G04 #@! TD.AperFunction*
G04 #@! TA.AperFunction,SMDPad,CuDef*
G36*
G01*
X154250001Y-112550000D02*
X153349999Y-112550000D01*
G75*
G02*
X153100000Y-112300001I0J249999D01*
G01*
X153100000Y-111599999D01*
G75*
G02*
X153349999Y-111350000I249999J0D01*
G01*
X154250001Y-111350000D01*
G75*
G02*
X154500000Y-111599999I0J-249999D01*
G01*
X154500000Y-112300001D01*
G75*
G02*
X154250001Y-112550000I-249999J0D01*
G01*
G37*
G04 #@! TD.AperFunction*
G04 #@! TA.AperFunction,SMDPad,CuDef*
G36*
G01*
X150950001Y-105600000D02*
X150049999Y-105600000D01*
G75*
G02*
X149800000Y-105350001I0J249999D01*
G01*
X149800000Y-104649999D01*
G75*
G02*
X150049999Y-104400000I249999J0D01*
G01*
X150950001Y-104400000D01*
G75*
G02*
X151200000Y-104649999I0J-249999D01*
G01*
X151200000Y-105350001D01*
G75*
G02*
X150950001Y-105600000I-249999J0D01*
G01*
G37*
G04 #@! TD.AperFunction*
G04 #@! TA.AperFunction,SMDPad,CuDef*
G36*
G01*
X150950001Y-107600000D02*
X150049999Y-107600000D01*
G75*
G02*
X149800000Y-107350001I0J249999D01*
G01*
X149800000Y-106649999D01*
G75*
G02*
X150049999Y-106400000I249999J0D01*
G01*
X150950001Y-106400000D01*
G75*
G02*
X151200000Y-106649999I0J-249999D01*
G01*
X151200000Y-107350001D01*
G75*
G02*
X150950001Y-107600000I-249999J0D01*
G01*
G37*
G04 #@! TD.AperFunction*
G04 #@! TA.AperFunction,SMDPad,CuDef*
G36*
G01*
X150950001Y-110600000D02*
X150049999Y-110600000D01*
G75*
G02*
X149800000Y-110350001I0J249999D01*
G01*
X149800000Y-109649999D01*
G75*
G02*
X150049999Y-109400000I249999J0D01*
G01*
X150950001Y-109400000D01*
G75*
G02*
X151200000Y-109649999I0J-249999D01*
G01*
X151200000Y-110350001D01*
G75*
G02*
X150950001Y-110600000I-249999J0D01*
G01*
G37*
G04 #@! TD.AperFunction*
G04 #@! TA.AperFunction,SMDPad,CuDef*
G36*
G01*
X150950001Y-112600000D02*
X150049999Y-112600000D01*
G75*
G02*
X149800000Y-112350001I0J249999D01*
G01*
X149800000Y-111649999D01*
G75*
G02*
X150049999Y-111400000I249999J0D01*
G01*
X150950001Y-111400000D01*
G75*
G02*
X151200000Y-111649999I0J-249999D01*
G01*
X151200000Y-112350001D01*
G75*
G02*
X150950001Y-112600000I-249999J0D01*
G01*
G37*
G04 #@! TD.AperFunction*
G04 #@! TA.AperFunction,SMDPad,CuDef*
G36*
G01*
X179549999Y-101400000D02*
X180450001Y-101400000D01*
G75*
G02*
X180700000Y-101649999I0J-249999D01*
G01*
X180700000Y-102350001D01*
G75*
G02*
X180450001Y-102600000I-249999J0D01*
G01*
X179549999Y-102600000D01*
G75*
G02*
X179300000Y-102350001I0J249999D01*
G01*
X179300000Y-101649999D01*
G75*
G02*
X179549999Y-101400000I249999J0D01*
G01*
G37*
G04 #@! TD.AperFunction*
G04 #@! TA.AperFunction,SMDPad,CuDef*
G36*
G01*
X179549999Y-99400000D02*
X180450001Y-99400000D01*
G75*
G02*
X180700000Y-99649999I0J-249999D01*
G01*
X180700000Y-100350001D01*
G75*
G02*
X180450001Y-100600000I-249999J0D01*
G01*
X179549999Y-100600000D01*
G75*
G02*
X179300000Y-100350001I0J249999D01*
G01*
X179300000Y-99649999D01*
G75*
G02*
X179549999Y-99400000I249999J0D01*
G01*
G37*
G04 #@! TD.AperFunction*
G04 #@! TA.AperFunction,SMDPad,CuDef*
G36*
G01*
X146749999Y-116400000D02*
X147650001Y-116400000D01*
G75*
G02*
X147900000Y-116649999I0J-249999D01*
G01*
X147900000Y-117350001D01*
G75*
G02*
X147650001Y-117600000I-249999J0D01*
G01*
X146749999Y-117600000D01*
G75*
G02*
X146500000Y-117350001I0J249999D01*
G01*
X146500000Y-116649999D01*
G75*
G02*
X146749999Y-116400000I249999J0D01*
G01*
G37*
G04 #@! TD.AperFunction*
G04 #@! TA.AperFunction,SMDPad,CuDef*
G36*
G01*
X146749999Y-114400000D02*
X147650001Y-114400000D01*
G75*
G02*
X147900000Y-114649999I0J-249999D01*
G01*
X147900000Y-115350001D01*
G75*
G02*
X147650001Y-115600000I-249999J0D01*
G01*
X146749999Y-115600000D01*
G75*
G02*
X146500000Y-115350001I0J249999D01*
G01*
X146500000Y-114649999D01*
G75*
G02*
X146749999Y-114400000I249999J0D01*
G01*
G37*
G04 #@! TD.AperFunction*
G04 #@! TA.AperFunction,SMDPad,CuDef*
G36*
G01*
X147650001Y-110600000D02*
X146749999Y-110600000D01*
G75*
G02*
X146500000Y-110350001I0J249999D01*
G01*
X146500000Y-109649999D01*
G75*
G02*
X146749999Y-109400000I249999J0D01*
G01*
X147650001Y-109400000D01*
G75*
G02*
X147900000Y-109649999I0J-249999D01*
G01*
X147900000Y-110350001D01*
G75*
G02*
X147650001Y-110600000I-249999J0D01*
G01*
G37*
G04 #@! TD.AperFunction*
G04 #@! TA.AperFunction,SMDPad,CuDef*
G36*
G01*
X147650001Y-112600000D02*
X146749999Y-112600000D01*
G75*
G02*
X146500000Y-112350001I0J249999D01*
G01*
X146500000Y-111649999D01*
G75*
G02*
X146749999Y-111400000I249999J0D01*
G01*
X147650001Y-111400000D01*
G75*
G02*
X147900000Y-111649999I0J-249999D01*
G01*
X147900000Y-112350001D01*
G75*
G02*
X147650001Y-112600000I-249999J0D01*
G01*
G37*
G04 #@! TD.AperFunction*
G04 #@! TA.AperFunction,SMDPad,CuDef*
G36*
G01*
X144350001Y-115600000D02*
X143449999Y-115600000D01*
G75*
G02*
X143200000Y-115350001I0J249999D01*
G01*
X143200000Y-114649999D01*
G75*
G02*
X143449999Y-114400000I249999J0D01*
G01*
X144350001Y-114400000D01*
G75*
G02*
X144600000Y-114649999I0J-249999D01*
G01*
X144600000Y-115350001D01*
G75*
G02*
X144350001Y-115600000I-249999J0D01*
G01*
G37*
G04 #@! TD.AperFunction*
G04 #@! TA.AperFunction,SMDPad,CuDef*
G36*
G01*
X144350001Y-117600000D02*
X143449999Y-117600000D01*
G75*
G02*
X143200000Y-117350001I0J249999D01*
G01*
X143200000Y-116649999D01*
G75*
G02*
X143449999Y-116400000I249999J0D01*
G01*
X144350001Y-116400000D01*
G75*
G02*
X144600000Y-116649999I0J-249999D01*
G01*
X144600000Y-117350001D01*
G75*
G02*
X144350001Y-117600000I-249999J0D01*
G01*
G37*
G04 #@! TD.AperFunction*
G04 #@! TA.AperFunction,SMDPad,CuDef*
G36*
G01*
X141050001Y-110600000D02*
X140149999Y-110600000D01*
G75*
G02*
X139900000Y-110350001I0J249999D01*
G01*
X139900000Y-109649999D01*
G75*
G02*
X140149999Y-109400000I249999J0D01*
G01*
X141050001Y-109400000D01*
G75*
G02*
X141300000Y-109649999I0J-249999D01*
G01*
X141300000Y-110350001D01*
G75*
G02*
X141050001Y-110600000I-249999J0D01*
G01*
G37*
G04 #@! TD.AperFunction*
G04 #@! TA.AperFunction,SMDPad,CuDef*
G36*
G01*
X141050001Y-112600000D02*
X140149999Y-112600000D01*
G75*
G02*
X139900000Y-112350001I0J249999D01*
G01*
X139900000Y-111649999D01*
G75*
G02*
X140149999Y-111400000I249999J0D01*
G01*
X141050001Y-111400000D01*
G75*
G02*
X141300000Y-111649999I0J-249999D01*
G01*
X141300000Y-112350001D01*
G75*
G02*
X141050001Y-112600000I-249999J0D01*
G01*
G37*
G04 #@! TD.AperFunction*
G04 #@! TA.AperFunction,SMDPad,CuDef*
G36*
G01*
X140149999Y-106400000D02*
X141050001Y-106400000D01*
G75*
G02*
X141300000Y-106649999I0J-249999D01*
G01*
X141300000Y-107350001D01*
G75*
G02*
X141050001Y-107600000I-249999J0D01*
G01*
X140149999Y-107600000D01*
G75*
G02*
X139900000Y-107350001I0J249999D01*
G01*
X139900000Y-106649999D01*
G75*
G02*
X140149999Y-106400000I249999J0D01*
G01*
G37*
G04 #@! TD.AperFunction*
G04 #@! TA.AperFunction,SMDPad,CuDef*
G36*
G01*
X140149999Y-104400000D02*
X141050001Y-104400000D01*
G75*
G02*
X141300000Y-104649999I0J-249999D01*
G01*
X141300000Y-105350001D01*
G75*
G02*
X141050001Y-105600000I-249999J0D01*
G01*
X140149999Y-105600000D01*
G75*
G02*
X139900000Y-105350001I0J249999D01*
G01*
X139900000Y-104649999D01*
G75*
G02*
X140149999Y-104400000I249999J0D01*
G01*
G37*
G04 #@! TD.AperFunction*
G04 #@! TA.AperFunction,SMDPad,CuDef*
G36*
G01*
X141050001Y-115600000D02*
X140149999Y-115600000D01*
G75*
G02*
X139900000Y-115350001I0J249999D01*
G01*
X139900000Y-114649999D01*
G75*
G02*
X140149999Y-114400000I249999J0D01*
G01*
X141050001Y-114400000D01*
G75*
G02*
X141300000Y-114649999I0J-249999D01*
G01*
X141300000Y-115350001D01*
G75*
G02*
X141050001Y-115600000I-249999J0D01*
G01*
G37*
G04 #@! TD.AperFunction*
G04 #@! TA.AperFunction,SMDPad,CuDef*
G36*
G01*
X141050001Y-117600000D02*
X140149999Y-117600000D01*
G75*
G02*
X139900000Y-117350001I0J249999D01*
G01*
X139900000Y-116649999D01*
G75*
G02*
X140149999Y-116400000I249999J0D01*
G01*
X141050001Y-116400000D01*
G75*
G02*
X141300000Y-116649999I0J-249999D01*
G01*
X141300000Y-117350001D01*
G75*
G02*
X141050001Y-117600000I-249999J0D01*
G01*
G37*
G04 #@! TD.AperFunction*
G04 #@! TA.AperFunction,SMDPad,CuDef*
G36*
G01*
X136849999Y-116400000D02*
X137750001Y-116400000D01*
G75*
G02*
X138000000Y-116649999I0J-249999D01*
G01*
X138000000Y-117350001D01*
G75*
G02*
X137750001Y-117600000I-249999J0D01*
G01*
X136849999Y-117600000D01*
G75*
G02*
X136600000Y-117350001I0J249999D01*
G01*
X136600000Y-116649999D01*
G75*
G02*
X136849999Y-116400000I249999J0D01*
G01*
G37*
G04 #@! TD.AperFunction*
G04 #@! TA.AperFunction,SMDPad,CuDef*
G36*
G01*
X136849999Y-114400000D02*
X137750001Y-114400000D01*
G75*
G02*
X138000000Y-114649999I0J-249999D01*
G01*
X138000000Y-115350001D01*
G75*
G02*
X137750001Y-115600000I-249999J0D01*
G01*
X136849999Y-115600000D01*
G75*
G02*
X136600000Y-115350001I0J249999D01*
G01*
X136600000Y-114649999D01*
G75*
G02*
X136849999Y-114400000I249999J0D01*
G01*
G37*
G04 #@! TD.AperFunction*
G04 #@! TA.AperFunction,SMDPad,CuDef*
G36*
G01*
X137750001Y-105600000D02*
X136849999Y-105600000D01*
G75*
G02*
X136600000Y-105350001I0J249999D01*
G01*
X136600000Y-104649999D01*
G75*
G02*
X136849999Y-104400000I249999J0D01*
G01*
X137750001Y-104400000D01*
G75*
G02*
X138000000Y-104649999I0J-249999D01*
G01*
X138000000Y-105350001D01*
G75*
G02*
X137750001Y-105600000I-249999J0D01*
G01*
G37*
G04 #@! TD.AperFunction*
G04 #@! TA.AperFunction,SMDPad,CuDef*
G36*
G01*
X137750001Y-107600000D02*
X136849999Y-107600000D01*
G75*
G02*
X136600000Y-107350001I0J249999D01*
G01*
X136600000Y-106649999D01*
G75*
G02*
X136849999Y-106400000I249999J0D01*
G01*
X137750001Y-106400000D01*
G75*
G02*
X138000000Y-106649999I0J-249999D01*
G01*
X138000000Y-107350001D01*
G75*
G02*
X137750001Y-107600000I-249999J0D01*
G01*
G37*
G04 #@! TD.AperFunction*
G04 #@! TA.AperFunction,SMDPad,CuDef*
G36*
G01*
X186950001Y-100600000D02*
X186049999Y-100600000D01*
G75*
G02*
X185800000Y-100350001I0J249999D01*
G01*
X185800000Y-99649999D01*
G75*
G02*
X186049999Y-99400000I249999J0D01*
G01*
X186950001Y-99400000D01*
G75*
G02*
X187200000Y-99649999I0J-249999D01*
G01*
X187200000Y-100350001D01*
G75*
G02*
X186950001Y-100600000I-249999J0D01*
G01*
G37*
G04 #@! TD.AperFunction*
G04 #@! TA.AperFunction,SMDPad,CuDef*
G36*
G01*
X186950001Y-102600000D02*
X186049999Y-102600000D01*
G75*
G02*
X185800000Y-102350001I0J249999D01*
G01*
X185800000Y-101649999D01*
G75*
G02*
X186049999Y-101400000I249999J0D01*
G01*
X186950001Y-101400000D01*
G75*
G02*
X187200000Y-101649999I0J-249999D01*
G01*
X187200000Y-102350001D01*
G75*
G02*
X186950001Y-102600000I-249999J0D01*
G01*
G37*
G04 #@! TD.AperFunction*
G04 #@! TA.AperFunction,SMDPad,CuDef*
G36*
G01*
X179549999Y-118000000D02*
X180450001Y-118000000D01*
G75*
G02*
X180700000Y-118249999I0J-249999D01*
G01*
X180700000Y-118950001D01*
G75*
G02*
X180450001Y-119200000I-249999J0D01*
G01*
X179549999Y-119200000D01*
G75*
G02*
X179300000Y-118950001I0J249999D01*
G01*
X179300000Y-118249999D01*
G75*
G02*
X179549999Y-118000000I249999J0D01*
G01*
G37*
G04 #@! TD.AperFunction*
G04 #@! TA.AperFunction,SMDPad,CuDef*
G36*
G01*
X179549999Y-116000000D02*
X180450001Y-116000000D01*
G75*
G02*
X180700000Y-116249999I0J-249999D01*
G01*
X180700000Y-116950001D01*
G75*
G02*
X180450001Y-117200000I-249999J0D01*
G01*
X179549999Y-117200000D01*
G75*
G02*
X179300000Y-116950001I0J249999D01*
G01*
X179300000Y-116249999D01*
G75*
G02*
X179549999Y-116000000I249999J0D01*
G01*
G37*
G04 #@! TD.AperFunction*
G04 #@! TA.AperFunction,SMDPad,CuDef*
G36*
G01*
X182649999Y-112600000D02*
X183550001Y-112600000D01*
G75*
G02*
X183800000Y-112849999I0J-249999D01*
G01*
X183800000Y-113550001D01*
G75*
G02*
X183550001Y-113800000I-249999J0D01*
G01*
X182649999Y-113800000D01*
G75*
G02*
X182400000Y-113550001I0J249999D01*
G01*
X182400000Y-112849999D01*
G75*
G02*
X182649999Y-112600000I249999J0D01*
G01*
G37*
G04 #@! TD.AperFunction*
G04 #@! TA.AperFunction,SMDPad,CuDef*
G36*
G01*
X182649999Y-110600000D02*
X183550001Y-110600000D01*
G75*
G02*
X183800000Y-110849999I0J-249999D01*
G01*
X183800000Y-111550001D01*
G75*
G02*
X183550001Y-111800000I-249999J0D01*
G01*
X182649999Y-111800000D01*
G75*
G02*
X182400000Y-111550001I0J249999D01*
G01*
X182400000Y-110849999D01*
G75*
G02*
X182649999Y-110600000I249999J0D01*
G01*
G37*
G04 #@! TD.AperFunction*
G04 #@! TA.AperFunction,SMDPad,CuDef*
G36*
G01*
X186049999Y-112600000D02*
X186950001Y-112600000D01*
G75*
G02*
X187200000Y-112849999I0J-249999D01*
G01*
X187200000Y-113550001D01*
G75*
G02*
X186950001Y-113800000I-249999J0D01*
G01*
X186049999Y-113800000D01*
G75*
G02*
X185800000Y-113550001I0J249999D01*
G01*
X185800000Y-112849999D01*
G75*
G02*
X186049999Y-112600000I249999J0D01*
G01*
G37*
G04 #@! TD.AperFunction*
G04 #@! TA.AperFunction,SMDPad,CuDef*
G36*
G01*
X186049999Y-110600000D02*
X186950001Y-110600000D01*
G75*
G02*
X187200000Y-110849999I0J-249999D01*
G01*
X187200000Y-111550001D01*
G75*
G02*
X186950001Y-111800000I-249999J0D01*
G01*
X186049999Y-111800000D01*
G75*
G02*
X185800000Y-111550001I0J249999D01*
G01*
X185800000Y-110849999D01*
G75*
G02*
X186049999Y-110600000I249999J0D01*
G01*
G37*
G04 #@! TD.AperFunction*
G04 #@! TA.AperFunction,SMDPad,CuDef*
G36*
G01*
X192849999Y-101450000D02*
X193750001Y-101450000D01*
G75*
G02*
X194000000Y-101699999I0J-249999D01*
G01*
X194000000Y-102400001D01*
G75*
G02*
X193750001Y-102650000I-249999J0D01*
G01*
X192849999Y-102650000D01*
G75*
G02*
X192600000Y-102400001I0J249999D01*
G01*
X192600000Y-101699999D01*
G75*
G02*
X192849999Y-101450000I249999J0D01*
G01*
G37*
G04 #@! TD.AperFunction*
G04 #@! TA.AperFunction,SMDPad,CuDef*
G36*
G01*
X192849999Y-99450000D02*
X193750001Y-99450000D01*
G75*
G02*
X194000000Y-99699999I0J-249999D01*
G01*
X194000000Y-100400001D01*
G75*
G02*
X193750001Y-100650000I-249999J0D01*
G01*
X192849999Y-100650000D01*
G75*
G02*
X192600000Y-100400001I0J249999D01*
G01*
X192600000Y-99699999D01*
G75*
G02*
X192849999Y-99450000I249999J0D01*
G01*
G37*
G04 #@! TD.AperFunction*
G04 #@! TA.AperFunction,SMDPad,CuDef*
G36*
G01*
X190350001Y-105600000D02*
X189449999Y-105600000D01*
G75*
G02*
X189200000Y-105350001I0J249999D01*
G01*
X189200000Y-104649999D01*
G75*
G02*
X189449999Y-104400000I249999J0D01*
G01*
X190350001Y-104400000D01*
G75*
G02*
X190600000Y-104649999I0J-249999D01*
G01*
X190600000Y-105350001D01*
G75*
G02*
X190350001Y-105600000I-249999J0D01*
G01*
G37*
G04 #@! TD.AperFunction*
G04 #@! TA.AperFunction,SMDPad,CuDef*
G36*
G01*
X190350001Y-107600000D02*
X189449999Y-107600000D01*
G75*
G02*
X189200000Y-107350001I0J249999D01*
G01*
X189200000Y-106649999D01*
G75*
G02*
X189449999Y-106400000I249999J0D01*
G01*
X190350001Y-106400000D01*
G75*
G02*
X190600000Y-106649999I0J-249999D01*
G01*
X190600000Y-107350001D01*
G75*
G02*
X190350001Y-107600000I-249999J0D01*
G01*
G37*
G04 #@! TD.AperFunction*
G04 #@! TA.AperFunction,SMDPad,CuDef*
G36*
G01*
X196249999Y-107500000D02*
X197150001Y-107500000D01*
G75*
G02*
X197400000Y-107749999I0J-249999D01*
G01*
X197400000Y-108450001D01*
G75*
G02*
X197150001Y-108700000I-249999J0D01*
G01*
X196249999Y-108700000D01*
G75*
G02*
X196000000Y-108450001I0J249999D01*
G01*
X196000000Y-107749999D01*
G75*
G02*
X196249999Y-107500000I249999J0D01*
G01*
G37*
G04 #@! TD.AperFunction*
G04 #@! TA.AperFunction,SMDPad,CuDef*
G36*
G01*
X196249999Y-105500000D02*
X197150001Y-105500000D01*
G75*
G02*
X197400000Y-105749999I0J-249999D01*
G01*
X197400000Y-106450001D01*
G75*
G02*
X197150001Y-106700000I-249999J0D01*
G01*
X196249999Y-106700000D01*
G75*
G02*
X196000000Y-106450001I0J249999D01*
G01*
X196000000Y-105749999D01*
G75*
G02*
X196249999Y-105500000I249999J0D01*
G01*
G37*
G04 #@! TD.AperFunction*
X190270000Y-116960000D03*
X191220000Y-118960000D03*
X189320000Y-118960000D03*
X198600000Y-116980000D03*
X199550000Y-118980000D03*
X197650000Y-118980000D03*
X194450000Y-116970000D03*
X195400000Y-118970000D03*
X193500000Y-118970000D03*
X202690000Y-116980000D03*
X203640000Y-118980000D03*
X201740000Y-118980000D03*
G04 #@! TA.AperFunction,SMDPad,CuDef*
G36*
G01*
X157575000Y-115587500D02*
X156625000Y-115587500D01*
G75*
G02*
X156375000Y-115337500I0J250000D01*
G01*
X156375000Y-114662500D01*
G75*
G02*
X156625000Y-114412500I250000J0D01*
G01*
X157575000Y-114412500D01*
G75*
G02*
X157825000Y-114662500I0J-250000D01*
G01*
X157825000Y-115337500D01*
G75*
G02*
X157575000Y-115587500I-250000J0D01*
G01*
G37*
G04 #@! TD.AperFunction*
G04 #@! TA.AperFunction,SMDPad,CuDef*
G36*
G01*
X157575000Y-117662500D02*
X156625000Y-117662500D01*
G75*
G02*
X156375000Y-117412500I0J250000D01*
G01*
X156375000Y-116737500D01*
G75*
G02*
X156625000Y-116487500I250000J0D01*
G01*
X157575000Y-116487500D01*
G75*
G02*
X157825000Y-116737500I0J-250000D01*
G01*
X157825000Y-117412500D01*
G75*
G02*
X157575000Y-117662500I-250000J0D01*
G01*
G37*
G04 #@! TD.AperFunction*
G04 #@! TA.AperFunction,SMDPad,CuDef*
G36*
G01*
X157475000Y-105587500D02*
X156525000Y-105587500D01*
G75*
G02*
X156275000Y-105337500I0J250000D01*
G01*
X156275000Y-104662500D01*
G75*
G02*
X156525000Y-104412500I250000J0D01*
G01*
X157475000Y-104412500D01*
G75*
G02*
X157725000Y-104662500I0J-250000D01*
G01*
X157725000Y-105337500D01*
G75*
G02*
X157475000Y-105587500I-250000J0D01*
G01*
G37*
G04 #@! TD.AperFunction*
G04 #@! TA.AperFunction,SMDPad,CuDef*
G36*
G01*
X157475000Y-107662500D02*
X156525000Y-107662500D01*
G75*
G02*
X156275000Y-107412500I0J250000D01*
G01*
X156275000Y-106737500D01*
G75*
G02*
X156525000Y-106487500I250000J0D01*
G01*
X157475000Y-106487500D01*
G75*
G02*
X157725000Y-106737500I0J-250000D01*
G01*
X157725000Y-107412500D01*
G75*
G02*
X157475000Y-107662500I-250000J0D01*
G01*
G37*
G04 #@! TD.AperFunction*
G04 #@! TA.AperFunction,SMDPad,CuDef*
G36*
G01*
X154275000Y-105587500D02*
X153325000Y-105587500D01*
G75*
G02*
X153075000Y-105337500I0J250000D01*
G01*
X153075000Y-104662500D01*
G75*
G02*
X153325000Y-104412500I250000J0D01*
G01*
X154275000Y-104412500D01*
G75*
G02*
X154525000Y-104662500I0J-250000D01*
G01*
X154525000Y-105337500D01*
G75*
G02*
X154275000Y-105587500I-250000J0D01*
G01*
G37*
G04 #@! TD.AperFunction*
G04 #@! TA.AperFunction,SMDPad,CuDef*
G36*
G01*
X154275000Y-107662500D02*
X153325000Y-107662500D01*
G75*
G02*
X153075000Y-107412500I0J250000D01*
G01*
X153075000Y-106737500D01*
G75*
G02*
X153325000Y-106487500I250000J0D01*
G01*
X154275000Y-106487500D01*
G75*
G02*
X154525000Y-106737500I0J-250000D01*
G01*
X154525000Y-107412500D01*
G75*
G02*
X154275000Y-107662500I-250000J0D01*
G01*
G37*
G04 #@! TD.AperFunction*
G04 #@! TA.AperFunction,SMDPad,CuDef*
G36*
G01*
X150025000Y-116487500D02*
X150975000Y-116487500D01*
G75*
G02*
X151225000Y-116737500I0J-250000D01*
G01*
X151225000Y-117412500D01*
G75*
G02*
X150975000Y-117662500I-250000J0D01*
G01*
X150025000Y-117662500D01*
G75*
G02*
X149775000Y-117412500I0J250000D01*
G01*
X149775000Y-116737500D01*
G75*
G02*
X150025000Y-116487500I250000J0D01*
G01*
G37*
G04 #@! TD.AperFunction*
G04 #@! TA.AperFunction,SMDPad,CuDef*
G36*
G01*
X150025000Y-114412500D02*
X150975000Y-114412500D01*
G75*
G02*
X151225000Y-114662500I0J-250000D01*
G01*
X151225000Y-115337500D01*
G75*
G02*
X150975000Y-115587500I-250000J0D01*
G01*
X150025000Y-115587500D01*
G75*
G02*
X149775000Y-115337500I0J250000D01*
G01*
X149775000Y-114662500D01*
G75*
G02*
X150025000Y-114412500I250000J0D01*
G01*
G37*
G04 #@! TD.AperFunction*
G04 #@! TA.AperFunction,SMDPad,CuDef*
G36*
G01*
X143425000Y-111487500D02*
X144375000Y-111487500D01*
G75*
G02*
X144625000Y-111737500I0J-250000D01*
G01*
X144625000Y-112412500D01*
G75*
G02*
X144375000Y-112662500I-250000J0D01*
G01*
X143425000Y-112662500D01*
G75*
G02*
X143175000Y-112412500I0J250000D01*
G01*
X143175000Y-111737500D01*
G75*
G02*
X143425000Y-111487500I250000J0D01*
G01*
G37*
G04 #@! TD.AperFunction*
G04 #@! TA.AperFunction,SMDPad,CuDef*
G36*
G01*
X143425000Y-109412500D02*
X144375000Y-109412500D01*
G75*
G02*
X144625000Y-109662500I0J-250000D01*
G01*
X144625000Y-110337500D01*
G75*
G02*
X144375000Y-110587500I-250000J0D01*
G01*
X143425000Y-110587500D01*
G75*
G02*
X143175000Y-110337500I0J250000D01*
G01*
X143175000Y-109662500D01*
G75*
G02*
X143425000Y-109412500I250000J0D01*
G01*
G37*
G04 #@! TD.AperFunction*
G04 #@! TA.AperFunction,SMDPad,CuDef*
G36*
G01*
X147675000Y-105587500D02*
X146725000Y-105587500D01*
G75*
G02*
X146475000Y-105337500I0J250000D01*
G01*
X146475000Y-104662500D01*
G75*
G02*
X146725000Y-104412500I250000J0D01*
G01*
X147675000Y-104412500D01*
G75*
G02*
X147925000Y-104662500I0J-250000D01*
G01*
X147925000Y-105337500D01*
G75*
G02*
X147675000Y-105587500I-250000J0D01*
G01*
G37*
G04 #@! TD.AperFunction*
G04 #@! TA.AperFunction,SMDPad,CuDef*
G36*
G01*
X147675000Y-107662500D02*
X146725000Y-107662500D01*
G75*
G02*
X146475000Y-107412500I0J250000D01*
G01*
X146475000Y-106737500D01*
G75*
G02*
X146725000Y-106487500I250000J0D01*
G01*
X147675000Y-106487500D01*
G75*
G02*
X147925000Y-106737500I0J-250000D01*
G01*
X147925000Y-107412500D01*
G75*
G02*
X147675000Y-107662500I-250000J0D01*
G01*
G37*
G04 #@! TD.AperFunction*
G04 #@! TA.AperFunction,SMDPad,CuDef*
G36*
G01*
X137775000Y-110587500D02*
X136825000Y-110587500D01*
G75*
G02*
X136575000Y-110337500I0J250000D01*
G01*
X136575000Y-109662500D01*
G75*
G02*
X136825000Y-109412500I250000J0D01*
G01*
X137775000Y-109412500D01*
G75*
G02*
X138025000Y-109662500I0J-250000D01*
G01*
X138025000Y-110337500D01*
G75*
G02*
X137775000Y-110587500I-250000J0D01*
G01*
G37*
G04 #@! TD.AperFunction*
G04 #@! TA.AperFunction,SMDPad,CuDef*
G36*
G01*
X137775000Y-112662500D02*
X136825000Y-112662500D01*
G75*
G02*
X136575000Y-112412500I0J250000D01*
G01*
X136575000Y-111737500D01*
G75*
G02*
X136825000Y-111487500I250000J0D01*
G01*
X137775000Y-111487500D01*
G75*
G02*
X138025000Y-111737500I0J-250000D01*
G01*
X138025000Y-112412500D01*
G75*
G02*
X137775000Y-112662500I-250000J0D01*
G01*
G37*
G04 #@! TD.AperFunction*
G04 #@! TA.AperFunction,SMDPad,CuDef*
G36*
G01*
X144375000Y-105587500D02*
X143425000Y-105587500D01*
G75*
G02*
X143175000Y-105337500I0J250000D01*
G01*
X143175000Y-104662500D01*
G75*
G02*
X143425000Y-104412500I250000J0D01*
G01*
X144375000Y-104412500D01*
G75*
G02*
X144625000Y-104662500I0J-250000D01*
G01*
X144625000Y-105337500D01*
G75*
G02*
X144375000Y-105587500I-250000J0D01*
G01*
G37*
G04 #@! TD.AperFunction*
G04 #@! TA.AperFunction,SMDPad,CuDef*
G36*
G01*
X144375000Y-107662500D02*
X143425000Y-107662500D01*
G75*
G02*
X143175000Y-107412500I0J250000D01*
G01*
X143175000Y-106737500D01*
G75*
G02*
X143425000Y-106487500I250000J0D01*
G01*
X144375000Y-106487500D01*
G75*
G02*
X144625000Y-106737500I0J-250000D01*
G01*
X144625000Y-107412500D01*
G75*
G02*
X144375000Y-107662500I-250000J0D01*
G01*
G37*
G04 #@! TD.AperFunction*
G04 #@! TA.AperFunction,SMDPad,CuDef*
G36*
G01*
X190375000Y-100587500D02*
X189425000Y-100587500D01*
G75*
G02*
X189175000Y-100337500I0J250000D01*
G01*
X189175000Y-99662500D01*
G75*
G02*
X189425000Y-99412500I250000J0D01*
G01*
X190375000Y-99412500D01*
G75*
G02*
X190625000Y-99662500I0J-250000D01*
G01*
X190625000Y-100337500D01*
G75*
G02*
X190375000Y-100587500I-250000J0D01*
G01*
G37*
G04 #@! TD.AperFunction*
G04 #@! TA.AperFunction,SMDPad,CuDef*
G36*
G01*
X190375000Y-102662500D02*
X189425000Y-102662500D01*
G75*
G02*
X189175000Y-102412500I0J250000D01*
G01*
X189175000Y-101737500D01*
G75*
G02*
X189425000Y-101487500I250000J0D01*
G01*
X190375000Y-101487500D01*
G75*
G02*
X190625000Y-101737500I0J-250000D01*
G01*
X190625000Y-102412500D01*
G75*
G02*
X190375000Y-102662500I-250000J0D01*
G01*
G37*
G04 #@! TD.AperFunction*
G04 #@! TA.AperFunction,SMDPad,CuDef*
G36*
G01*
X197350002Y-100662500D02*
X196049998Y-100662500D01*
G75*
G02*
X195800000Y-100412502I0J249998D01*
G01*
X195800000Y-99587498D01*
G75*
G02*
X196049998Y-99337500I249998J0D01*
G01*
X197350002Y-99337500D01*
G75*
G02*
X197600000Y-99587498I0J-249998D01*
G01*
X197600000Y-100412502D01*
G75*
G02*
X197350002Y-100662500I-249998J0D01*
G01*
G37*
G04 #@! TD.AperFunction*
G04 #@! TA.AperFunction,SMDPad,CuDef*
G36*
G01*
X197350002Y-103787500D02*
X196049998Y-103787500D01*
G75*
G02*
X195800000Y-103537502I0J249998D01*
G01*
X195800000Y-102712498D01*
G75*
G02*
X196049998Y-102462500I249998J0D01*
G01*
X197350002Y-102462500D01*
G75*
G02*
X197600000Y-102712498I0J-249998D01*
G01*
X197600000Y-103537502D01*
G75*
G02*
X197350002Y-103787500I-249998J0D01*
G01*
G37*
G04 #@! TD.AperFunction*
G04 #@! TA.AperFunction,SMDPad,CuDef*
G36*
G01*
X182725000Y-118012500D02*
X183675000Y-118012500D01*
G75*
G02*
X183925000Y-118262500I0J-250000D01*
G01*
X183925000Y-118937500D01*
G75*
G02*
X183675000Y-119187500I-250000J0D01*
G01*
X182725000Y-119187500D01*
G75*
G02*
X182475000Y-118937500I0J250000D01*
G01*
X182475000Y-118262500D01*
G75*
G02*
X182725000Y-118012500I250000J0D01*
G01*
G37*
G04 #@! TD.AperFunction*
G04 #@! TA.AperFunction,SMDPad,CuDef*
G36*
G01*
X182725000Y-115937500D02*
X183675000Y-115937500D01*
G75*
G02*
X183925000Y-116187500I0J-250000D01*
G01*
X183925000Y-116862500D01*
G75*
G02*
X183675000Y-117112500I-250000J0D01*
G01*
X182725000Y-117112500D01*
G75*
G02*
X182475000Y-116862500I0J250000D01*
G01*
X182475000Y-116187500D01*
G75*
G02*
X182725000Y-115937500I250000J0D01*
G01*
G37*
G04 #@! TD.AperFunction*
G04 #@! TA.AperFunction,SMDPad,CuDef*
G36*
G01*
X186975000Y-105587500D02*
X186025000Y-105587500D01*
G75*
G02*
X185775000Y-105337500I0J250000D01*
G01*
X185775000Y-104662500D01*
G75*
G02*
X186025000Y-104412500I250000J0D01*
G01*
X186975000Y-104412500D01*
G75*
G02*
X187225000Y-104662500I0J-250000D01*
G01*
X187225000Y-105337500D01*
G75*
G02*
X186975000Y-105587500I-250000J0D01*
G01*
G37*
G04 #@! TD.AperFunction*
G04 #@! TA.AperFunction,SMDPad,CuDef*
G36*
G01*
X186975000Y-107662500D02*
X186025000Y-107662500D01*
G75*
G02*
X185775000Y-107412500I0J250000D01*
G01*
X185775000Y-106737500D01*
G75*
G02*
X186025000Y-106487500I250000J0D01*
G01*
X186975000Y-106487500D01*
G75*
G02*
X187225000Y-106737500I0J-250000D01*
G01*
X187225000Y-107412500D01*
G75*
G02*
X186975000Y-107662500I-250000J0D01*
G01*
G37*
G04 #@! TD.AperFunction*
G04 #@! TA.AperFunction,SMDPad,CuDef*
G36*
G01*
X192649998Y-107462500D02*
X193950002Y-107462500D01*
G75*
G02*
X194200000Y-107712498I0J-249998D01*
G01*
X194200000Y-108537502D01*
G75*
G02*
X193950002Y-108787500I-249998J0D01*
G01*
X192649998Y-108787500D01*
G75*
G02*
X192400000Y-108537502I0J249998D01*
G01*
X192400000Y-107712498D01*
G75*
G02*
X192649998Y-107462500I249998J0D01*
G01*
G37*
G04 #@! TD.AperFunction*
G04 #@! TA.AperFunction,SMDPad,CuDef*
G36*
G01*
X192649998Y-104337500D02*
X193950002Y-104337500D01*
G75*
G02*
X194200000Y-104587498I0J-249998D01*
G01*
X194200000Y-105412502D01*
G75*
G02*
X193950002Y-105662500I-249998J0D01*
G01*
X192649998Y-105662500D01*
G75*
G02*
X192400000Y-105412502I0J249998D01*
G01*
X192400000Y-104587498D01*
G75*
G02*
X192649998Y-104337500I249998J0D01*
G01*
G37*
G04 #@! TD.AperFunction*
G04 #@! TA.AperFunction,SMDPad,CuDef*
G36*
G01*
X183575000Y-105587500D02*
X182625000Y-105587500D01*
G75*
G02*
X182375000Y-105337500I0J250000D01*
G01*
X182375000Y-104662500D01*
G75*
G02*
X182625000Y-104412500I250000J0D01*
G01*
X183575000Y-104412500D01*
G75*
G02*
X183825000Y-104662500I0J-250000D01*
G01*
X183825000Y-105337500D01*
G75*
G02*
X183575000Y-105587500I-250000J0D01*
G01*
G37*
G04 #@! TD.AperFunction*
G04 #@! TA.AperFunction,SMDPad,CuDef*
G36*
G01*
X183575000Y-107662500D02*
X182625000Y-107662500D01*
G75*
G02*
X182375000Y-107412500I0J250000D01*
G01*
X182375000Y-106737500D01*
G75*
G02*
X182625000Y-106487500I250000J0D01*
G01*
X183575000Y-106487500D01*
G75*
G02*
X183825000Y-106737500I0J-250000D01*
G01*
X183825000Y-107412500D01*
G75*
G02*
X183575000Y-107662500I-250000J0D01*
G01*
G37*
G04 #@! TD.AperFunction*
D13*
X172075000Y-113125000D03*
X148900000Y-123200000D03*
X167200000Y-111100000D03*
X146800000Y-98200000D03*
X133600000Y-117000000D03*
X174360001Y-124039999D03*
X198000000Y-98300000D03*
X187500000Y-98300000D03*
X175200000Y-118700002D03*
X206400000Y-103000000D03*
X206400000Y-117000000D03*
X133600000Y-103000000D03*
X175700000Y-98199990D03*
X205600000Y-110500000D03*
X179299999Y-120400001D03*
X166912816Y-108451577D03*
X167200000Y-113100000D03*
X205600000Y-108200000D03*
X179000004Y-110300000D03*
X171100000Y-110000000D03*
X200700000Y-109500000D03*
X186400000Y-114900000D03*
X181500000Y-111400000D03*
X179100000Y-108800000D03*
X180400000Y-106500000D03*
X171000000Y-100800000D03*
X180400000Y-105100022D03*
X166900000Y-105800000D03*
X166900004Y-107100000D03*
X163499994Y-103400000D03*
X161700000Y-116500000D03*
X155499990Y-108900000D03*
X177100002Y-105000000D03*
X173575392Y-113700003D03*
X169000000Y-99418990D03*
X143099999Y-103400001D03*
X167400000Y-100800000D03*
X146800000Y-103399998D03*
X150300000Y-103400000D03*
X152300000Y-113200000D03*
X146900000Y-108500000D03*
X155600006Y-113900000D03*
X158600000Y-108100000D03*
X159699996Y-113700000D03*
X159200000Y-112000000D03*
X172100000Y-107600000D03*
X172988247Y-116192763D03*
D14*
X157400000Y-109700000D02*
X161900000Y-109700000D01*
X157100000Y-110000000D02*
X157400000Y-109700000D01*
D15*
X157000002Y-104999998D02*
X157000000Y-105000000D01*
X157000000Y-105000000D02*
X153800000Y-105000000D01*
X153800000Y-105000000D02*
X150500000Y-105000000D01*
X140600000Y-105000000D02*
X137300000Y-105000000D01*
X143900000Y-105000000D02*
X143837998Y-105062002D01*
X143837998Y-105062002D02*
X140662002Y-105062002D01*
X140662002Y-105062002D02*
X140600000Y-105000000D01*
D16*
X164300000Y-109700000D02*
X164600000Y-109400000D01*
X161900000Y-109700000D02*
X164300000Y-109700000D01*
D15*
X147200000Y-105000000D02*
X150500000Y-105000000D01*
X143900000Y-105000000D02*
X147200000Y-105000000D01*
X163862002Y-105362002D02*
X159842238Y-105362002D01*
X159842238Y-105362002D02*
X159480236Y-105000000D01*
X159480236Y-105000000D02*
X157000000Y-105000000D01*
X164600000Y-109400000D02*
X164600000Y-106100000D01*
X164600000Y-106100000D02*
X163862002Y-105362002D01*
X165500000Y-109400000D02*
X167200000Y-111100000D01*
X164600000Y-109400000D02*
X165500000Y-109400000D01*
D14*
X180000000Y-100000000D02*
X186500000Y-100000000D01*
X186500000Y-100000000D02*
X189900000Y-100000000D01*
X193250000Y-100000000D02*
X193300000Y-100050000D01*
X189900000Y-100000000D02*
X193250000Y-100000000D01*
X196650000Y-100050000D02*
X196700000Y-100000000D01*
X193300000Y-100050000D02*
X196650000Y-100050000D01*
X183200000Y-119700000D02*
X186690000Y-123190000D01*
X183200000Y-118600000D02*
X183200000Y-119700000D01*
X201295000Y-100000000D02*
X201295000Y-101625000D01*
D15*
X179070000Y-123190000D02*
X177867919Y-123190000D01*
X175200000Y-120522081D02*
X175200000Y-118700002D01*
X177867919Y-123190000D02*
X175200000Y-120522081D01*
D14*
X204470000Y-123190000D02*
X206400000Y-121260000D01*
X206400000Y-121260000D02*
X206400000Y-117000000D01*
D15*
X133600000Y-120226000D02*
X133600000Y-117000000D01*
X138430000Y-123190000D02*
X136564000Y-123190000D01*
X136564000Y-123190000D02*
X133600000Y-120226000D01*
X133600000Y-107790044D02*
X133600000Y-103000000D01*
X133600000Y-117000000D02*
X133600000Y-107790044D01*
X135300000Y-104700000D02*
X133600000Y-103000000D01*
X137300000Y-105000000D02*
X135600000Y-105000000D01*
X135600000Y-105000000D02*
X135300000Y-104700000D01*
D14*
X206800000Y-116600000D02*
X206400000Y-117000000D01*
X206400000Y-103000000D02*
X206800000Y-103400000D01*
X206800000Y-103400000D02*
X206800000Y-116600000D01*
X206400000Y-100700000D02*
X206400000Y-103000000D01*
X205400000Y-99700000D02*
X206400000Y-100700000D01*
X201295000Y-100000000D02*
X201595000Y-99700000D01*
X201595000Y-99700000D02*
X205400000Y-99700000D01*
X200995000Y-99700000D02*
X201295000Y-100000000D01*
X196700000Y-100000000D02*
X197000000Y-99700000D01*
X197000000Y-99700000D02*
X200995000Y-99700000D01*
D16*
X203835000Y-108735000D02*
X205600000Y-110500000D01*
X203835000Y-106575000D02*
X203835000Y-108735000D01*
X173599998Y-114700000D02*
X179299999Y-120400001D01*
X167300000Y-114700000D02*
X173599998Y-114700000D01*
X161900000Y-111300000D02*
X163900000Y-111300000D01*
X163900000Y-111300000D02*
X167300000Y-114700000D01*
D14*
X155400000Y-115000000D02*
X157100000Y-115000000D01*
X154600000Y-114200000D02*
X155400000Y-115000000D01*
X154600000Y-113400000D02*
X154600000Y-114200000D01*
X161900000Y-110500000D02*
X160500000Y-110500000D01*
X160500000Y-110500000D02*
X159981010Y-111018990D01*
X159981010Y-111018990D02*
X156181010Y-111018990D01*
X156181010Y-111018990D02*
X155400000Y-111800000D01*
X155400000Y-111800000D02*
X155400000Y-112600000D01*
X155400000Y-112600000D02*
X154600000Y-113400000D01*
D16*
X168599999Y-111700001D02*
X167200000Y-113100000D01*
X161900000Y-110500000D02*
X164600000Y-110500000D01*
X164600000Y-110500000D02*
X167200000Y-113100000D01*
X166912816Y-108451577D02*
X168599999Y-110138760D01*
X168599999Y-110138760D02*
X168599999Y-111700001D01*
X205600000Y-105600000D02*
X205600000Y-108200000D01*
X203500000Y-103500000D02*
X205600000Y-105600000D01*
X200462500Y-103500000D02*
X203500000Y-103500000D01*
X200025000Y-101625000D02*
X200025000Y-103062500D01*
X200025000Y-103062500D02*
X200462500Y-103500000D01*
D14*
X178800004Y-110500000D02*
X179000004Y-110300000D01*
X176900000Y-110500000D02*
X178800004Y-110500000D01*
X184068510Y-104031490D02*
X183100000Y-105000000D01*
X196500000Y-106300000D02*
X192146193Y-106300000D01*
X192146193Y-106300000D02*
X191827203Y-105981010D01*
X191827203Y-105981010D02*
X189188624Y-105981010D01*
X196700000Y-106100000D02*
X196500000Y-106300000D01*
X189188624Y-105981010D02*
X187239104Y-104031490D01*
X187239104Y-104031490D02*
X184068510Y-104031490D01*
X182125000Y-107075000D02*
X183100000Y-107075000D01*
X181400000Y-107800000D02*
X182125000Y-107075000D01*
X181400000Y-109200000D02*
X181400000Y-107800000D01*
X176900000Y-111300000D02*
X179300000Y-111300000D01*
X179300000Y-111300000D02*
X181400000Y-109200000D01*
X176900000Y-109700000D02*
X171400000Y-109700000D01*
X171400000Y-109700000D02*
X171100000Y-110000000D01*
X193325000Y-108100000D02*
X193300000Y-108125000D01*
X196700000Y-108100000D02*
X193325000Y-108100000D01*
X192525000Y-108900000D02*
X193300000Y-108125000D01*
X187900000Y-111700000D02*
X187900000Y-110700000D01*
X184118990Y-112181010D02*
X187418990Y-112181010D01*
X187900000Y-110700000D02*
X189700000Y-108900000D01*
X187418990Y-112181010D02*
X187900000Y-111700000D01*
X183100000Y-113200000D02*
X184118990Y-112181010D01*
X189700000Y-108900000D02*
X192525000Y-108900000D01*
X181600000Y-114700000D02*
X183100000Y-113200000D01*
X180000000Y-118600000D02*
X180100000Y-118600000D01*
X181600000Y-117100000D02*
X181600000Y-114700000D01*
X180100000Y-118600000D02*
X181600000Y-117100000D01*
X179850000Y-118600000D02*
X180000000Y-118600000D01*
X178600000Y-117350000D02*
X179850000Y-118600000D01*
X178600000Y-115600000D02*
X178600000Y-117350000D01*
X176900000Y-115300000D02*
X178300000Y-115300000D01*
X178300000Y-115300000D02*
X178600000Y-115600000D01*
X193300000Y-102050000D02*
X193300000Y-105000000D01*
X193300000Y-105000000D02*
X189900000Y-105000000D01*
X188500000Y-107000000D02*
X186500000Y-105000000D01*
X189900000Y-107000000D02*
X188500000Y-107000000D01*
X183400000Y-109200000D02*
X185525000Y-107075000D01*
X182422058Y-109200000D02*
X183400000Y-109200000D01*
X185525000Y-107075000D02*
X186500000Y-107075000D01*
X176900000Y-112100000D02*
X179522058Y-112100000D01*
X179522058Y-112100000D02*
X182422058Y-109200000D01*
X202565000Y-107635000D02*
X200700000Y-109500000D01*
X202565000Y-106575000D02*
X202565000Y-107635000D01*
X203100000Y-109500000D02*
X200700000Y-109500000D01*
X204600000Y-111000000D02*
X203100000Y-109500000D01*
X201930000Y-123190000D02*
X204600000Y-120520000D01*
X204600000Y-120520000D02*
X204600000Y-111000000D01*
X186400000Y-116500000D02*
X186500000Y-116600000D01*
X186400000Y-114900000D02*
X186400000Y-116500000D01*
X180000000Y-112900000D02*
X181500000Y-111400000D01*
X176900000Y-112900000D02*
X180000000Y-112900000D01*
X186500000Y-113225000D02*
X183200000Y-116525000D01*
X186500000Y-113200000D02*
X186500000Y-113225000D01*
X183325000Y-116525000D02*
X183200000Y-116525000D01*
X186500000Y-118600000D02*
X185400000Y-118600000D01*
X185400000Y-118600000D02*
X183325000Y-116525000D01*
X183100000Y-111200000D02*
X186500000Y-111200000D01*
X197900000Y-106700000D02*
X197900000Y-104325000D01*
X195181010Y-107081010D02*
X197518990Y-107081010D01*
X197900000Y-104325000D02*
X196700000Y-103125000D01*
X194935057Y-106835057D02*
X195181010Y-107081010D01*
X186500000Y-111200000D02*
X186500000Y-110600000D01*
X197518990Y-107081010D02*
X197900000Y-106700000D01*
X188800000Y-108300000D02*
X190685057Y-108300000D01*
X186500000Y-110600000D02*
X188800000Y-108300000D01*
X190685057Y-108300000D02*
X192150000Y-106835057D01*
X192150000Y-106835057D02*
X194935057Y-106835057D01*
X176900000Y-108100000D02*
X178400000Y-108100000D01*
X178400000Y-108100000D02*
X179100000Y-108800000D01*
X189825000Y-102000000D02*
X189900000Y-102075000D01*
X186500000Y-102000000D02*
X189825000Y-102000000D01*
X184100000Y-102000000D02*
X186500000Y-102000000D01*
X178300000Y-107300000D02*
X178331002Y-107331002D01*
X176900000Y-107300000D02*
X178300000Y-107300000D01*
X180868998Y-107331002D02*
X181700000Y-106500000D01*
X178331002Y-107331002D02*
X180868998Y-107331002D01*
X181700000Y-104400000D02*
X184100000Y-102000000D01*
X181700000Y-106500000D02*
X181700000Y-104400000D01*
X177000000Y-106400000D02*
X176900000Y-106500000D01*
X176900000Y-106500000D02*
X180400000Y-106500000D01*
X143325000Y-107075000D02*
X143900000Y-107075000D01*
X141900000Y-110600000D02*
X141900000Y-108500000D01*
X140600000Y-115000000D02*
X139900000Y-115000000D01*
X139900000Y-115000000D02*
X139200000Y-114300000D01*
X139200000Y-114300000D02*
X139200000Y-111603807D01*
X139803807Y-111000000D02*
X141500000Y-111000000D01*
X139200000Y-111603807D02*
X139803807Y-111000000D01*
X141900000Y-108500000D02*
X143325000Y-107075000D01*
X141500000Y-111000000D02*
X141900000Y-110600000D01*
X172900000Y-100800000D02*
X171000000Y-100800000D01*
X173800000Y-103400000D02*
X173800000Y-101700000D01*
X173800000Y-101700000D02*
X172900000Y-100800000D01*
X137300000Y-110000000D02*
X140600000Y-110000000D01*
X140600000Y-110000000D02*
X140600000Y-107000000D01*
X173000000Y-120400000D02*
X173000000Y-118400000D01*
X170100000Y-123300000D02*
X173000000Y-120400000D01*
X155000000Y-123300000D02*
X170100000Y-123300000D01*
X151800000Y-120100000D02*
X155000000Y-123300000D01*
X137300000Y-117000000D02*
X140400000Y-120100000D01*
X140400000Y-120100000D02*
X151800000Y-120100000D01*
X137125000Y-112075000D02*
X137300000Y-112075000D01*
X135800000Y-113400000D02*
X137125000Y-112075000D01*
X137300000Y-117000000D02*
X137000000Y-117000000D01*
X135800000Y-115800000D02*
X135800000Y-113400000D01*
X137000000Y-117000000D02*
X135800000Y-115800000D01*
X173000000Y-106000000D02*
X174700000Y-106000000D01*
X174918999Y-105781001D02*
X179719021Y-105781001D01*
X174700000Y-106000000D02*
X174918999Y-105781001D01*
X172200000Y-103400000D02*
X172200000Y-105200000D01*
X179719021Y-105781001D02*
X180400000Y-105100022D01*
X172200000Y-105200000D02*
X173000000Y-106000000D01*
X169800000Y-105800000D02*
X166900000Y-105800000D01*
X170600000Y-103400000D02*
X170600000Y-105000000D01*
X170600000Y-105000000D02*
X169800000Y-105800000D01*
X169300000Y-107100000D02*
X166900004Y-107100000D01*
X171400000Y-103400000D02*
X171400000Y-105000000D01*
X171400000Y-105000000D02*
X169300000Y-107100000D01*
X144100000Y-116900000D02*
X144300000Y-116900000D01*
X168800000Y-122100000D02*
X170600000Y-120300000D01*
X155900000Y-122100000D02*
X168800000Y-122100000D01*
X152500000Y-118700000D02*
X155900000Y-122100000D01*
X143900000Y-117000000D02*
X145600000Y-118700000D01*
X170600000Y-120300000D02*
X170600000Y-118400000D01*
X145600000Y-118700000D02*
X152500000Y-118700000D01*
X143400000Y-108500000D02*
X145775000Y-108500000D01*
X142500000Y-109400000D02*
X143400000Y-108500000D01*
X145200000Y-115700000D02*
X145200000Y-111400000D01*
X143900000Y-117000000D02*
X145200000Y-115700000D01*
X145200000Y-111400000D02*
X144800000Y-111000000D01*
X144800000Y-111000000D02*
X142900000Y-111000000D01*
X142500000Y-110600000D02*
X142500000Y-109400000D01*
X145775000Y-108500000D02*
X147200000Y-107075000D01*
X142900000Y-111000000D02*
X142500000Y-110600000D01*
X143900000Y-115000000D02*
X143900000Y-112075000D01*
X140675000Y-112075000D02*
X140600000Y-112000000D01*
X143900000Y-112075000D02*
X140675000Y-112075000D01*
X143900000Y-110000000D02*
X147200000Y-110000000D01*
X147275000Y-117075000D02*
X147200000Y-117000000D01*
X150500000Y-117075000D02*
X147275000Y-117075000D01*
X169800000Y-120100000D02*
X169800000Y-118400000D01*
X168400000Y-121500000D02*
X169800000Y-120100000D01*
X156350000Y-121500000D02*
X168400000Y-121500000D01*
X150500000Y-117075000D02*
X151925000Y-117075000D01*
X151925000Y-117075000D02*
X156350000Y-121500000D01*
X147200000Y-112988970D02*
X147200000Y-112000000D01*
X145800000Y-114388970D02*
X147200000Y-112988970D01*
X145800000Y-116450000D02*
X145800000Y-114388970D01*
X147200000Y-117000000D02*
X146350000Y-117000000D01*
X146350000Y-117000000D02*
X145800000Y-116450000D01*
X147200000Y-115000000D02*
X150500000Y-115000000D01*
X168000000Y-120900000D02*
X169000000Y-119900000D01*
X169000000Y-119900000D02*
X169000000Y-118400000D01*
X156700000Y-120900000D02*
X168000000Y-120900000D01*
X150500000Y-115000000D02*
X150800000Y-115000000D01*
X150800000Y-115000000D02*
X156700000Y-120900000D01*
X150500000Y-109650000D02*
X150500000Y-110000000D01*
X153800000Y-107075000D02*
X153075000Y-107075000D01*
X153075000Y-107075000D02*
X150500000Y-109650000D01*
X156069116Y-107075000D02*
X153800000Y-109344116D01*
X157000000Y-107075000D02*
X156069116Y-107075000D01*
X153800000Y-109344116D02*
X153800000Y-109950000D01*
X165800000Y-116800000D02*
X165800000Y-118400000D01*
X157100000Y-117662500D02*
X157737500Y-118300000D01*
X157737500Y-118300000D02*
X162700000Y-118300000D01*
X164500000Y-116500000D02*
X165500000Y-116500000D01*
X162700000Y-118300000D02*
X164500000Y-116500000D01*
X157100000Y-117075000D02*
X157100000Y-117662500D01*
X165500000Y-116500000D02*
X165800000Y-116800000D01*
X165000000Y-103400000D02*
X163499994Y-103400000D01*
X161900000Y-115300000D02*
X161900000Y-116300000D01*
X161900000Y-116300000D02*
X161700000Y-116500000D01*
X161900000Y-108900000D02*
X155499990Y-108900000D01*
X190280000Y-111600000D02*
X190260000Y-111620000D01*
X194470000Y-111600000D02*
X190280000Y-111600000D01*
X199550000Y-113640000D02*
X201780000Y-113640000D01*
X197650000Y-112936000D02*
X196314000Y-111600000D01*
X196314000Y-111600000D02*
X194470000Y-111600000D01*
X197650000Y-113640000D02*
X197650000Y-112936000D01*
X197650000Y-111054198D02*
X197650000Y-113640000D01*
X198004198Y-110700000D02*
X197650000Y-111054198D01*
X199195802Y-110700000D02*
X198004198Y-110700000D01*
X199550000Y-113640000D02*
X199550000Y-111054198D01*
X199550000Y-111054198D02*
X199195802Y-110700000D01*
X201780000Y-111054198D02*
X201780000Y-113640000D01*
X202134198Y-110700000D02*
X201780000Y-111054198D01*
X203325802Y-110700000D02*
X202134198Y-110700000D01*
X203680000Y-113640000D02*
X203680000Y-111054198D01*
X203680000Y-111054198D02*
X203325802Y-110700000D01*
X201780000Y-117605802D02*
X201780000Y-113640000D01*
X202700000Y-119555802D02*
X202700000Y-118525802D01*
X200655802Y-121600000D02*
X202700000Y-119555802D01*
X196850000Y-123190000D02*
X198440000Y-121600000D01*
X202700000Y-118525802D02*
X201780000Y-117605802D01*
X198440000Y-121600000D02*
X200655802Y-121600000D01*
X182460000Y-121500000D02*
X184150000Y-123190000D01*
X179000000Y-121500000D02*
X182460000Y-121500000D01*
X171400000Y-116200000D02*
X172200000Y-115400000D01*
X173300000Y-115400000D02*
X177000000Y-119100000D01*
X177000000Y-119100000D02*
X177000000Y-119500000D01*
X171400000Y-118400000D02*
X171400000Y-116200000D01*
X172200000Y-115400000D02*
X173300000Y-115400000D01*
X177000000Y-119500000D02*
X179000000Y-121500000D01*
X191200000Y-118980000D02*
X191220000Y-118960000D01*
X189230000Y-123190000D02*
X191200000Y-121220000D01*
X191200000Y-121220000D02*
X191200000Y-118980000D01*
X195400000Y-119560000D02*
X195400000Y-118970000D01*
X191770000Y-123190000D02*
X195400000Y-119560000D01*
X199550000Y-119820000D02*
X199550000Y-118980000D01*
X194310000Y-123190000D02*
X196670000Y-120830000D01*
X198540000Y-120830000D02*
X199550000Y-119820000D01*
X196670000Y-120830000D02*
X198540000Y-120830000D01*
X203640000Y-119360000D02*
X203640000Y-118980000D01*
X199390000Y-123190000D02*
X199810000Y-123190000D01*
X199810000Y-123190000D02*
X203640000Y-119360000D01*
X200898999Y-118138999D02*
X201740000Y-118980000D01*
X200331001Y-118118999D02*
X200351001Y-118138999D01*
X200898999Y-118138999D02*
X200351001Y-118138999D01*
X192530000Y-118000000D02*
X193500000Y-118970000D01*
X190644198Y-118000000D02*
X192530000Y-118000000D01*
X190300000Y-119600000D02*
X190300000Y-118344198D01*
X187900000Y-112775762D02*
X187900000Y-119200000D01*
X190022881Y-109490000D02*
X188600000Y-110912881D01*
X200025000Y-106575000D02*
X200025000Y-107875000D01*
X187900000Y-119200000D02*
X188800000Y-120100000D01*
X200025000Y-107875000D02*
X198410000Y-109490000D01*
X198410000Y-109490000D02*
X190022881Y-109490000D01*
X190300000Y-118344198D02*
X190644198Y-118000000D01*
X189800000Y-120100000D02*
X190300000Y-119600000D01*
X188800000Y-120100000D02*
X189800000Y-120100000D01*
X188600000Y-110912881D02*
X188600000Y-112075762D01*
X188600000Y-112075762D02*
X187900000Y-112775762D01*
X194470000Y-118000000D02*
X193500000Y-118970000D01*
X196100000Y-118000000D02*
X194470000Y-118000000D01*
X196567099Y-118467099D02*
X196100000Y-118000000D01*
X196567099Y-119567099D02*
X196567099Y-118467099D01*
X198855199Y-118138999D02*
X198600000Y-118394198D01*
X200351001Y-118138999D02*
X198855199Y-118138999D01*
X198600000Y-118394198D02*
X198600000Y-119632901D01*
X198600000Y-119632901D02*
X198132901Y-120100000D01*
X198132901Y-120100000D02*
X197100000Y-120100000D01*
X197100000Y-120100000D02*
X196567099Y-119567099D01*
X189481564Y-112600000D02*
X189200000Y-112318436D01*
X196100000Y-112600000D02*
X189481564Y-112600000D01*
X196600000Y-116407009D02*
X196600000Y-113100000D01*
X196600000Y-113100000D02*
X196100000Y-112600000D01*
X197650000Y-118980000D02*
X197650000Y-117457009D01*
X197650000Y-117457009D02*
X196600000Y-116407009D01*
X189481564Y-112600000D02*
X189000000Y-112600000D01*
X189000000Y-112600000D02*
X188959218Y-112559218D01*
X188959218Y-112559218D02*
X189200000Y-112318436D01*
X189200000Y-112318436D02*
X189200000Y-111144198D01*
X201295000Y-107677500D02*
X201295000Y-106575000D01*
X198872500Y-110100000D02*
X201295000Y-107677500D01*
X190244198Y-110100000D02*
X198872500Y-110100000D01*
X189200000Y-111144198D02*
X190244198Y-110100000D01*
X188528999Y-112989437D02*
X188959218Y-112559218D01*
X188528999Y-116628999D02*
X188528999Y-112989437D01*
X189320000Y-118960000D02*
X189320000Y-117420000D01*
X189320000Y-117420000D02*
X188528999Y-116628999D01*
X176900000Y-114500000D02*
X178700000Y-114500000D01*
X180000000Y-115800000D02*
X180000000Y-116600000D01*
X178700000Y-114500000D02*
X180000000Y-115800000D01*
X139300000Y-117000000D02*
X137300000Y-115000000D01*
X140600000Y-117000000D02*
X139300000Y-117000000D01*
X172200000Y-120300000D02*
X172200000Y-118400000D01*
X169800000Y-122700000D02*
X172200000Y-120300000D01*
X155400000Y-122700000D02*
X169800000Y-122700000D01*
X152100000Y-119400000D02*
X155400000Y-122700000D01*
X140600000Y-117000000D02*
X143000000Y-119400000D01*
X143000000Y-119400000D02*
X152100000Y-119400000D01*
X137300000Y-115000000D02*
X137600000Y-115000000D01*
X138600000Y-114000000D02*
X138600000Y-111500000D01*
X136200000Y-111000000D02*
X135800000Y-110600000D01*
X135800000Y-108500000D02*
X137300000Y-107000000D01*
X135800000Y-110600000D02*
X135800000Y-108500000D01*
X138600000Y-111500000D02*
X138100000Y-111000000D01*
X137600000Y-115000000D02*
X138600000Y-114000000D01*
X138100000Y-111000000D02*
X136200000Y-111000000D01*
X174800000Y-105000000D02*
X177100002Y-105000000D01*
X174400000Y-105400000D02*
X174800000Y-105000000D01*
X173400000Y-105400000D02*
X174400000Y-105400000D01*
X173000000Y-103400000D02*
X173000000Y-105000000D01*
X173000000Y-105000000D02*
X173400000Y-105400000D01*
X173575395Y-113700000D02*
X173575392Y-113700003D01*
X176900000Y-113700000D02*
X173575395Y-113700000D01*
X169800000Y-103400000D02*
X169000000Y-103400000D01*
X169000000Y-103400000D02*
X169000000Y-99418990D01*
X170231001Y-99968999D02*
X177818999Y-99968999D01*
X179850000Y-102000000D02*
X180000000Y-102000000D01*
X177818999Y-99968999D02*
X179850000Y-102000000D01*
X169800000Y-103400000D02*
X169800000Y-100400000D01*
X169800000Y-100400000D02*
X170231001Y-99968999D01*
X167400000Y-118400000D02*
X168200000Y-118400000D01*
X150500000Y-112800000D02*
X152300000Y-114600000D01*
X167400000Y-119900000D02*
X167400000Y-118400000D01*
X152300000Y-115500000D02*
X157100000Y-120300000D01*
X150500000Y-112000000D02*
X150500000Y-112800000D01*
X152300000Y-114600000D02*
X152300000Y-115500000D01*
X157100000Y-120300000D02*
X167000000Y-120300000D01*
X167000000Y-120300000D02*
X167400000Y-119900000D01*
X149000000Y-108500000D02*
X150500000Y-107000000D01*
X149000000Y-111000000D02*
X149000000Y-108500000D01*
X150500000Y-112000000D02*
X150000000Y-112000000D01*
X150000000Y-112000000D02*
X149000000Y-111000000D01*
X168200000Y-103400000D02*
X168200000Y-100400000D01*
X168200000Y-100400000D02*
X167800000Y-100000000D01*
X146500000Y-100000000D02*
X143099999Y-103400001D01*
X167800000Y-100000000D02*
X146500000Y-100000000D01*
X167400000Y-103400000D02*
X167400000Y-100800000D01*
X149499998Y-100700000D02*
X146800000Y-103399998D01*
X166100000Y-100700000D02*
X149499998Y-100700000D01*
X166600000Y-101200000D02*
X166100000Y-100700000D01*
X166600000Y-103400000D02*
X166600000Y-101200000D01*
X153800000Y-114400000D02*
X153800000Y-111950000D01*
X155400000Y-116000000D02*
X153800000Y-114400000D01*
X158594116Y-116000000D02*
X155400000Y-116000000D01*
X166600000Y-118400000D02*
X166600000Y-116700000D01*
X166600000Y-116700000D02*
X165800000Y-115900000D01*
X165800000Y-115900000D02*
X164100000Y-115900000D01*
X164100000Y-115900000D02*
X162400000Y-117600000D01*
X160194116Y-117600000D02*
X158594116Y-116000000D01*
X162400000Y-117600000D02*
X160194116Y-117600000D01*
X165800000Y-101500000D02*
X165700001Y-101400001D01*
X152299999Y-101400001D02*
X150300000Y-103400000D01*
X165800000Y-103400000D02*
X165800000Y-101500000D01*
X165700001Y-101400001D02*
X152299999Y-101400001D01*
X153100000Y-114000000D02*
X152300000Y-113200000D01*
X153100000Y-115300000D02*
X153100000Y-114000000D01*
X156700000Y-118900000D02*
X153100000Y-115300000D01*
X165000000Y-118400000D02*
X164500000Y-118900000D01*
X164500000Y-118900000D02*
X156700000Y-118900000D01*
X158129886Y-106500000D02*
X157648876Y-106018990D01*
X148000000Y-108500000D02*
X146900000Y-108500000D01*
X148800000Y-107700000D02*
X148000000Y-108500000D01*
X161900000Y-106500000D02*
X158129886Y-106500000D01*
X157648876Y-106018990D02*
X149381010Y-106018990D01*
X149381010Y-106018990D02*
X148800000Y-106600000D01*
X148800000Y-106600000D02*
X148800000Y-107700000D01*
X161900000Y-114500000D02*
X159027443Y-114500000D01*
X159027443Y-114500000D02*
X158427443Y-113900000D01*
X158427443Y-113900000D02*
X155600006Y-113900000D01*
X161900000Y-108100000D02*
X158600000Y-108100000D01*
X161900000Y-113700000D02*
X159699996Y-113700000D01*
X158400000Y-112900000D02*
X161900000Y-112900000D01*
X157561002Y-112061002D02*
X158400000Y-112900000D01*
X157100000Y-112000000D02*
X157161002Y-112061002D01*
X157161002Y-112061002D02*
X157561002Y-112061002D01*
X161900000Y-112100000D02*
X159300000Y-112100000D01*
X159300000Y-112100000D02*
X159200000Y-112000000D01*
X176900000Y-108900000D02*
X173400000Y-108900000D01*
X173400000Y-108900000D02*
X172100000Y-107600000D01*
X202565000Y-101625000D02*
X203835000Y-101625000D01*
X202730000Y-116940000D02*
X202690000Y-116980000D01*
X202730000Y-111640000D02*
X202730000Y-116940000D01*
X193520000Y-116040000D02*
X194450000Y-116970000D01*
X193520000Y-113600000D02*
X193520000Y-116040000D01*
X193520000Y-113600000D02*
X195420000Y-113600000D01*
X198600000Y-111640000D02*
X198600000Y-116980000D01*
X189310000Y-113620000D02*
X191210000Y-113620000D01*
X191210000Y-116020000D02*
X190270000Y-116960000D01*
X191210000Y-113620000D02*
X191210000Y-116020000D01*
X173800000Y-117004516D02*
X172988247Y-116192763D01*
X173800000Y-118400000D02*
X173800000Y-117004516D01*
X207315000Y-124315000D02*
X205433518Y-124315000D01*
X205470269Y-124287588D01*
X205665178Y-124071355D01*
X205814157Y-123821252D01*
X205911481Y-123546891D01*
X205790814Y-123317000D01*
X204597000Y-123317000D01*
X204597000Y-123337000D01*
X204343000Y-123337000D01*
X204343000Y-123317000D01*
X204323000Y-123317000D01*
X204323000Y-123063000D01*
X204343000Y-123063000D01*
X204343000Y-123043000D01*
X204597000Y-123043000D01*
X204597000Y-123063000D01*
X205790814Y-123063000D01*
X205911481Y-122833109D01*
X205814157Y-122558748D01*
X205665178Y-122308645D01*
X205470269Y-122092412D01*
X205236920Y-121918359D01*
X204974099Y-121793175D01*
X204826890Y-121748524D01*
X204597002Y-121869844D01*
X204597002Y-121705000D01*
X204492630Y-121705000D01*
X205112353Y-121085278D01*
X205141422Y-121061422D01*
X205236645Y-120945392D01*
X205307402Y-120813015D01*
X205350974Y-120669378D01*
X205362000Y-120557426D01*
X205362000Y-120557424D01*
X205365686Y-120520001D01*
X205362000Y-120482578D01*
X205362000Y-111507936D01*
X205498061Y-111535000D01*
X205701939Y-111535000D01*
X205901898Y-111495226D01*
X206090256Y-111417205D01*
X206259774Y-111303937D01*
X206403937Y-111159774D01*
X206517205Y-110990256D01*
X206595226Y-110801898D01*
X206635000Y-110601939D01*
X206635000Y-110398061D01*
X206595226Y-110198102D01*
X206517205Y-110009744D01*
X206403937Y-109840226D01*
X206259774Y-109696063D01*
X206090256Y-109582795D01*
X205901898Y-109504774D01*
X205852106Y-109494870D01*
X205592236Y-109235000D01*
X205701939Y-109235000D01*
X205901898Y-109195226D01*
X206090256Y-109117205D01*
X206259774Y-109003937D01*
X206403937Y-108859774D01*
X206517205Y-108690256D01*
X206595226Y-108501898D01*
X206635000Y-108301939D01*
X206635000Y-108098061D01*
X206595226Y-107898102D01*
X206517205Y-107709744D01*
X206489000Y-107667532D01*
X206489000Y-105643659D01*
X206493300Y-105599999D01*
X206489000Y-105556334D01*
X206489000Y-105556333D01*
X206478371Y-105448418D01*
X206476136Y-105425724D01*
X206441690Y-105312171D01*
X206425303Y-105258149D01*
X206342753Y-105103709D01*
X206231659Y-104968341D01*
X206197743Y-104940507D01*
X204383510Y-103126275D01*
X204422829Y-103105258D01*
X204542251Y-103007251D01*
X204640258Y-102887829D01*
X204713084Y-102751582D01*
X204757929Y-102603745D01*
X204773072Y-102450000D01*
X204773072Y-100800000D01*
X204757929Y-100646255D01*
X204713084Y-100498418D01*
X204640258Y-100362171D01*
X204542251Y-100242749D01*
X204422829Y-100144742D01*
X204286582Y-100071916D01*
X204138745Y-100027071D01*
X203985000Y-100011928D01*
X203685000Y-100011928D01*
X203531255Y-100027071D01*
X203383418Y-100071916D01*
X203247171Y-100144742D01*
X203200000Y-100183454D01*
X203152829Y-100144742D01*
X203016582Y-100071916D01*
X202868745Y-100027071D01*
X202715000Y-100011928D01*
X202415000Y-100011928D01*
X202261255Y-100027071D01*
X202113418Y-100071916D01*
X201979064Y-100143730D01*
X201949494Y-100119463D01*
X201839180Y-100060498D01*
X201719482Y-100024188D01*
X201595000Y-100011928D01*
X201580750Y-100015000D01*
X201422000Y-100173750D01*
X201422000Y-101498000D01*
X201442000Y-101498000D01*
X201442000Y-101752000D01*
X201422000Y-101752000D01*
X201422000Y-101772000D01*
X201168000Y-101772000D01*
X201168000Y-101752000D01*
X201148000Y-101752000D01*
X201148000Y-101498000D01*
X201168000Y-101498000D01*
X201168000Y-100173750D01*
X201009250Y-100015000D01*
X200995000Y-100011928D01*
X200870518Y-100024188D01*
X200750820Y-100060498D01*
X200640506Y-100119463D01*
X200610936Y-100143730D01*
X200476582Y-100071916D01*
X200328745Y-100027071D01*
X200175000Y-100011928D01*
X199875000Y-100011928D01*
X199721255Y-100027071D01*
X199573418Y-100071916D01*
X199437171Y-100144742D01*
X199317749Y-100242749D01*
X199219742Y-100362171D01*
X199146916Y-100498418D01*
X199102071Y-100646255D01*
X199086928Y-100800000D01*
X199086928Y-102450000D01*
X199102071Y-102603745D01*
X199136001Y-102715599D01*
X199136001Y-103018831D01*
X199131700Y-103062500D01*
X199148864Y-103236774D01*
X199199698Y-103404352D01*
X199282248Y-103558791D01*
X199346721Y-103637351D01*
X199393342Y-103694159D01*
X199427259Y-103721994D01*
X199803001Y-104097736D01*
X199830841Y-104131659D01*
X199966209Y-104242753D01*
X200120649Y-104325303D01*
X200186558Y-104345296D01*
X200288224Y-104376136D01*
X200321424Y-104379406D01*
X200418833Y-104389000D01*
X200418839Y-104389000D01*
X200462499Y-104393300D01*
X200506159Y-104389000D01*
X203131765Y-104389000D01*
X203704693Y-104961928D01*
X203685000Y-104961928D01*
X203531255Y-104977071D01*
X203383418Y-105021916D01*
X203247171Y-105094742D01*
X203200000Y-105133454D01*
X203152829Y-105094742D01*
X203016582Y-105021916D01*
X202868745Y-104977071D01*
X202715000Y-104961928D01*
X202415000Y-104961928D01*
X202261255Y-104977071D01*
X202113418Y-105021916D01*
X201977171Y-105094742D01*
X201930000Y-105133454D01*
X201882829Y-105094742D01*
X201746582Y-105021916D01*
X201598745Y-104977071D01*
X201445000Y-104961928D01*
X201145000Y-104961928D01*
X200991255Y-104977071D01*
X200843418Y-105021916D01*
X200707171Y-105094742D01*
X200660000Y-105133454D01*
X200612829Y-105094742D01*
X200476582Y-105021916D01*
X200328745Y-104977071D01*
X200175000Y-104961928D01*
X199875000Y-104961928D01*
X199721255Y-104977071D01*
X199573418Y-105021916D01*
X199437171Y-105094742D01*
X199317749Y-105192749D01*
X199219742Y-105312171D01*
X199146916Y-105448418D01*
X199102071Y-105596255D01*
X199086928Y-105750000D01*
X199086928Y-107400000D01*
X199102071Y-107553745D01*
X199140835Y-107681534D01*
X198094370Y-108728000D01*
X197989234Y-108728000D01*
X198021008Y-108623255D01*
X198038072Y-108450001D01*
X198038072Y-107749999D01*
X198028118Y-107648935D01*
X198060412Y-107622432D01*
X198084274Y-107593356D01*
X198412342Y-107265287D01*
X198441422Y-107241422D01*
X198536645Y-107125392D01*
X198607402Y-106993015D01*
X198650974Y-106849378D01*
X198662000Y-106737426D01*
X198662000Y-106737423D01*
X198665686Y-106700000D01*
X198662000Y-106662577D01*
X198662000Y-104362422D01*
X198665686Y-104324999D01*
X198662000Y-104287574D01*
X198650974Y-104175622D01*
X198607402Y-104031985D01*
X198536645Y-103899608D01*
X198441422Y-103783578D01*
X198412352Y-103759721D01*
X198233774Y-103581143D01*
X198238072Y-103537502D01*
X198238072Y-102712498D01*
X198221008Y-102539244D01*
X198170472Y-102372648D01*
X198088405Y-102219113D01*
X197977962Y-102084538D01*
X197843387Y-101974095D01*
X197689852Y-101892028D01*
X197523256Y-101841492D01*
X197350002Y-101824428D01*
X196049998Y-101824428D01*
X195876744Y-101841492D01*
X195710148Y-101892028D01*
X195556613Y-101974095D01*
X195422038Y-102084538D01*
X195311595Y-102219113D01*
X195229528Y-102372648D01*
X195178992Y-102539244D01*
X195161928Y-102712498D01*
X195161928Y-103537502D01*
X195178992Y-103710756D01*
X195229528Y-103877352D01*
X195311595Y-104030887D01*
X195422038Y-104165462D01*
X195556613Y-104275905D01*
X195710148Y-104357972D01*
X195876744Y-104408508D01*
X196049998Y-104425572D01*
X196922941Y-104425572D01*
X197138001Y-104640632D01*
X197138001Y-104861928D01*
X196249999Y-104861928D01*
X196076745Y-104878992D01*
X195910149Y-104929528D01*
X195756613Y-105011595D01*
X195622038Y-105122038D01*
X195511595Y-105256613D01*
X195429528Y-105410149D01*
X195390745Y-105538000D01*
X194825712Y-105538000D01*
X194838072Y-105412502D01*
X194838072Y-104587498D01*
X194821008Y-104414244D01*
X194770472Y-104247648D01*
X194688405Y-104094113D01*
X194577962Y-103959538D01*
X194443387Y-103849095D01*
X194289852Y-103767028D01*
X194123256Y-103716492D01*
X194062000Y-103710459D01*
X194062000Y-103228920D01*
X194089851Y-103220472D01*
X194243387Y-103138405D01*
X194377962Y-103027962D01*
X194488405Y-102893387D01*
X194570472Y-102739851D01*
X194621008Y-102573255D01*
X194638072Y-102400001D01*
X194638072Y-101699999D01*
X194621008Y-101526745D01*
X194570472Y-101360149D01*
X194488405Y-101206613D01*
X194421724Y-101125363D01*
X194451185Y-101101185D01*
X194530537Y-101004494D01*
X194589502Y-100894180D01*
X194625812Y-100774482D01*
X194636840Y-100662500D01*
X195161928Y-100662500D01*
X195174188Y-100786982D01*
X195210498Y-100906680D01*
X195269463Y-101016994D01*
X195348815Y-101113685D01*
X195445506Y-101193037D01*
X195555820Y-101252002D01*
X195675518Y-101288312D01*
X195800000Y-101300572D01*
X196414250Y-101297500D01*
X196573000Y-101138750D01*
X196573000Y-100127000D01*
X196827000Y-100127000D01*
X196827000Y-101138750D01*
X196985750Y-101297500D01*
X197600000Y-101300572D01*
X197724482Y-101288312D01*
X197844180Y-101252002D01*
X197954494Y-101193037D01*
X198051185Y-101113685D01*
X198130537Y-101016994D01*
X198189502Y-100906680D01*
X198225812Y-100786982D01*
X198238072Y-100662500D01*
X198235000Y-100285750D01*
X198076250Y-100127000D01*
X196827000Y-100127000D01*
X196573000Y-100127000D01*
X195323750Y-100127000D01*
X195165000Y-100285750D01*
X195161928Y-100662500D01*
X194636840Y-100662500D01*
X194638072Y-100650000D01*
X194635000Y-100335750D01*
X194476250Y-100177000D01*
X193427000Y-100177000D01*
X193427000Y-100197000D01*
X193173000Y-100197000D01*
X193173000Y-100177000D01*
X192123750Y-100177000D01*
X191965000Y-100335750D01*
X191961928Y-100650000D01*
X191974188Y-100774482D01*
X192010498Y-100894180D01*
X192069463Y-101004494D01*
X192148815Y-101101185D01*
X192178276Y-101125363D01*
X192111595Y-101206613D01*
X192029528Y-101360149D01*
X191978992Y-101526745D01*
X191961928Y-101699999D01*
X191961928Y-102400001D01*
X191978992Y-102573255D01*
X192029528Y-102739851D01*
X192111595Y-102893387D01*
X192222038Y-103027962D01*
X192356613Y-103138405D01*
X192510149Y-103220472D01*
X192538000Y-103228921D01*
X192538001Y-103710459D01*
X192476744Y-103716492D01*
X192310148Y-103767028D01*
X192156613Y-103849095D01*
X192022038Y-103959538D01*
X191911595Y-104094113D01*
X191834685Y-104238000D01*
X191131907Y-104238000D01*
X191088405Y-104156613D01*
X190977962Y-104022038D01*
X190843387Y-103911595D01*
X190689851Y-103829528D01*
X190523255Y-103778992D01*
X190350001Y-103761928D01*
X189449999Y-103761928D01*
X189276745Y-103778992D01*
X189110149Y-103829528D01*
X188956613Y-103911595D01*
X188822038Y-104022038D01*
X188711595Y-104156613D01*
X188629528Y-104310149D01*
X188621583Y-104336339D01*
X187804388Y-103519144D01*
X187780526Y-103490068D01*
X187664496Y-103394845D01*
X187532119Y-103324088D01*
X187388482Y-103280516D01*
X187276530Y-103269490D01*
X187276527Y-103269490D01*
X187239104Y-103265804D01*
X187201681Y-103269490D01*
X184105933Y-103269490D01*
X184068510Y-103265804D01*
X184031087Y-103269490D01*
X184031084Y-103269490D01*
X183919132Y-103280516D01*
X183887527Y-103290103D01*
X184415630Y-102762000D01*
X185268093Y-102762000D01*
X185311595Y-102843387D01*
X185422038Y-102977962D01*
X185556613Y-103088405D01*
X185710149Y-103170472D01*
X185876745Y-103221008D01*
X186049999Y-103238072D01*
X186950001Y-103238072D01*
X187123255Y-103221008D01*
X187289851Y-103170472D01*
X187443387Y-103088405D01*
X187577962Y-102977962D01*
X187688405Y-102843387D01*
X187731907Y-102762000D01*
X188609686Y-102762000D01*
X188686595Y-102905886D01*
X188797038Y-103040462D01*
X188931614Y-103150905D01*
X189085150Y-103232972D01*
X189251746Y-103283508D01*
X189425000Y-103300572D01*
X190375000Y-103300572D01*
X190548254Y-103283508D01*
X190714850Y-103232972D01*
X190868386Y-103150905D01*
X191002962Y-103040462D01*
X191113405Y-102905886D01*
X191195472Y-102752350D01*
X191246008Y-102585754D01*
X191263072Y-102412500D01*
X191263072Y-101737500D01*
X191246008Y-101564246D01*
X191195472Y-101397650D01*
X191113405Y-101244114D01*
X191002962Y-101109538D01*
X190996406Y-101104158D01*
X191076185Y-101038685D01*
X191155537Y-100941994D01*
X191214502Y-100831680D01*
X191250812Y-100711982D01*
X191263072Y-100587500D01*
X191260000Y-100285750D01*
X191101250Y-100127000D01*
X190027000Y-100127000D01*
X190027000Y-100147000D01*
X189773000Y-100147000D01*
X189773000Y-100127000D01*
X188698750Y-100127000D01*
X188540000Y-100285750D01*
X188536928Y-100587500D01*
X188549188Y-100711982D01*
X188585498Y-100831680D01*
X188644463Y-100941994D01*
X188723815Y-101038685D01*
X188803594Y-101104158D01*
X188797038Y-101109538D01*
X188691613Y-101238000D01*
X187731907Y-101238000D01*
X187688405Y-101156613D01*
X187621724Y-101075363D01*
X187651185Y-101051185D01*
X187730537Y-100954494D01*
X187789502Y-100844180D01*
X187825812Y-100724482D01*
X187838072Y-100600000D01*
X187835000Y-100285750D01*
X187676250Y-100127000D01*
X186627000Y-100127000D01*
X186627000Y-100147000D01*
X186373000Y-100147000D01*
X186373000Y-100127000D01*
X185323750Y-100127000D01*
X185165000Y-100285750D01*
X185161928Y-100600000D01*
X185174188Y-100724482D01*
X185210498Y-100844180D01*
X185269463Y-100954494D01*
X185348815Y-101051185D01*
X185378276Y-101075363D01*
X185311595Y-101156613D01*
X185268093Y-101238000D01*
X184137423Y-101238000D01*
X184100000Y-101234314D01*
X184062577Y-101238000D01*
X184062574Y-101238000D01*
X183950622Y-101249026D01*
X183806985Y-101292598D01*
X183770030Y-101312351D01*
X183674607Y-101363355D01*
X183632819Y-101397650D01*
X183558578Y-101458578D01*
X183534716Y-101487654D01*
X181187649Y-103834721D01*
X181158579Y-103858578D01*
X181134722Y-103887648D01*
X181134721Y-103887649D01*
X181063355Y-103974608D01*
X180992599Y-104106985D01*
X180956224Y-104226896D01*
X180890256Y-104182817D01*
X180701898Y-104104796D01*
X180501939Y-104065022D01*
X180298061Y-104065022D01*
X180098102Y-104104796D01*
X179909744Y-104182817D01*
X179740226Y-104296085D01*
X179596063Y-104440248D01*
X179482795Y-104609766D01*
X179404774Y-104798124D01*
X179365000Y-104998083D01*
X179365000Y-105019001D01*
X178135002Y-105019001D01*
X178135002Y-104898061D01*
X178095228Y-104698102D01*
X178017207Y-104509744D01*
X177903939Y-104340226D01*
X177759776Y-104196063D01*
X177590258Y-104082795D01*
X177401900Y-104004774D01*
X177201941Y-103965000D01*
X176998063Y-103965000D01*
X176798104Y-104004774D01*
X176609746Y-104082795D01*
X176440228Y-104196063D01*
X176398291Y-104238000D01*
X174837422Y-104238000D01*
X174799999Y-104234314D01*
X174762576Y-104238000D01*
X174762574Y-104238000D01*
X174688072Y-104245338D01*
X174688072Y-102125000D01*
X174673410Y-101976132D01*
X174629987Y-101832985D01*
X174564631Y-101710713D01*
X174565686Y-101699999D01*
X174562000Y-101662574D01*
X174550974Y-101550622D01*
X174507402Y-101406985D01*
X174436645Y-101274608D01*
X174341422Y-101158578D01*
X174312351Y-101134721D01*
X173908630Y-100730999D01*
X177503369Y-100730999D01*
X178661928Y-101889559D01*
X178661928Y-102350001D01*
X178678992Y-102523255D01*
X178729528Y-102689851D01*
X178811595Y-102843387D01*
X178922038Y-102977962D01*
X179056613Y-103088405D01*
X179210149Y-103170472D01*
X179376745Y-103221008D01*
X179549999Y-103238072D01*
X180450001Y-103238072D01*
X180623255Y-103221008D01*
X180789851Y-103170472D01*
X180943387Y-103088405D01*
X181077962Y-102977962D01*
X181188405Y-102843387D01*
X181270472Y-102689851D01*
X181321008Y-102523255D01*
X181338072Y-102350001D01*
X181338072Y-101649999D01*
X181321008Y-101476745D01*
X181270472Y-101310149D01*
X181188405Y-101156613D01*
X181121724Y-101075363D01*
X181151185Y-101051185D01*
X181230537Y-100954494D01*
X181289502Y-100844180D01*
X181325812Y-100724482D01*
X181338072Y-100600000D01*
X181335000Y-100285750D01*
X181176250Y-100127000D01*
X180127000Y-100127000D01*
X180127000Y-100147000D01*
X179873000Y-100147000D01*
X179873000Y-100127000D01*
X179853000Y-100127000D01*
X179853000Y-99873000D01*
X179873000Y-99873000D01*
X179873000Y-98923750D01*
X180127000Y-98923750D01*
X180127000Y-99873000D01*
X181176250Y-99873000D01*
X181335000Y-99714250D01*
X181338072Y-99400000D01*
X185161928Y-99400000D01*
X185165000Y-99714250D01*
X185323750Y-99873000D01*
X186373000Y-99873000D01*
X186373000Y-98923750D01*
X186627000Y-98923750D01*
X186627000Y-99873000D01*
X187676250Y-99873000D01*
X187835000Y-99714250D01*
X187837949Y-99412500D01*
X188536928Y-99412500D01*
X188540000Y-99714250D01*
X188698750Y-99873000D01*
X189773000Y-99873000D01*
X189773000Y-98936250D01*
X190027000Y-98936250D01*
X190027000Y-99873000D01*
X191101250Y-99873000D01*
X191260000Y-99714250D01*
X191262690Y-99450000D01*
X191961928Y-99450000D01*
X191965000Y-99764250D01*
X192123750Y-99923000D01*
X193173000Y-99923000D01*
X193173000Y-98973750D01*
X193427000Y-98973750D01*
X193427000Y-99923000D01*
X194476250Y-99923000D01*
X194635000Y-99764250D01*
X194638072Y-99450000D01*
X194626993Y-99337500D01*
X195161928Y-99337500D01*
X195165000Y-99714250D01*
X195323750Y-99873000D01*
X196573000Y-99873000D01*
X196573000Y-98861250D01*
X196827000Y-98861250D01*
X196827000Y-99873000D01*
X198076250Y-99873000D01*
X198235000Y-99714250D01*
X198238072Y-99337500D01*
X198225812Y-99213018D01*
X198189502Y-99093320D01*
X198130537Y-98983006D01*
X198051185Y-98886315D01*
X197954494Y-98806963D01*
X197844180Y-98747998D01*
X197724482Y-98711688D01*
X197600000Y-98699428D01*
X196985750Y-98702500D01*
X196827000Y-98861250D01*
X196573000Y-98861250D01*
X196414250Y-98702500D01*
X195800000Y-98699428D01*
X195675518Y-98711688D01*
X195555820Y-98747998D01*
X195445506Y-98806963D01*
X195348815Y-98886315D01*
X195269463Y-98983006D01*
X195210498Y-99093320D01*
X195174188Y-99213018D01*
X195161928Y-99337500D01*
X194626993Y-99337500D01*
X194625812Y-99325518D01*
X194589502Y-99205820D01*
X194530537Y-99095506D01*
X194451185Y-98998815D01*
X194354494Y-98919463D01*
X194244180Y-98860498D01*
X194124482Y-98824188D01*
X194000000Y-98811928D01*
X193585750Y-98815000D01*
X193427000Y-98973750D01*
X193173000Y-98973750D01*
X193014250Y-98815000D01*
X192600000Y-98811928D01*
X192475518Y-98824188D01*
X192355820Y-98860498D01*
X192245506Y-98919463D01*
X192148815Y-98998815D01*
X192069463Y-99095506D01*
X192010498Y-99205820D01*
X191974188Y-99325518D01*
X191961928Y-99450000D01*
X191262690Y-99450000D01*
X191263072Y-99412500D01*
X191250812Y-99288018D01*
X191214502Y-99168320D01*
X191155537Y-99058006D01*
X191076185Y-98961315D01*
X190979494Y-98881963D01*
X190869180Y-98822998D01*
X190749482Y-98786688D01*
X190625000Y-98774428D01*
X190185750Y-98777500D01*
X190027000Y-98936250D01*
X189773000Y-98936250D01*
X189614250Y-98777500D01*
X189175000Y-98774428D01*
X189050518Y-98786688D01*
X188930820Y-98822998D01*
X188820506Y-98881963D01*
X188723815Y-98961315D01*
X188644463Y-99058006D01*
X188585498Y-99168320D01*
X188549188Y-99288018D01*
X188536928Y-99412500D01*
X187837949Y-99412500D01*
X187838072Y-99400000D01*
X187825812Y-99275518D01*
X187789502Y-99155820D01*
X187730537Y-99045506D01*
X187651185Y-98948815D01*
X187554494Y-98869463D01*
X187444180Y-98810498D01*
X187324482Y-98774188D01*
X187200000Y-98761928D01*
X186785750Y-98765000D01*
X186627000Y-98923750D01*
X186373000Y-98923750D01*
X186214250Y-98765000D01*
X185800000Y-98761928D01*
X185675518Y-98774188D01*
X185555820Y-98810498D01*
X185445506Y-98869463D01*
X185348815Y-98948815D01*
X185269463Y-99045506D01*
X185210498Y-99155820D01*
X185174188Y-99275518D01*
X185161928Y-99400000D01*
X181338072Y-99400000D01*
X181325812Y-99275518D01*
X181289502Y-99155820D01*
X181230537Y-99045506D01*
X181151185Y-98948815D01*
X181054494Y-98869463D01*
X180944180Y-98810498D01*
X180824482Y-98774188D01*
X180700000Y-98761928D01*
X180285750Y-98765000D01*
X180127000Y-98923750D01*
X179873000Y-98923750D01*
X179714250Y-98765000D01*
X179300000Y-98761928D01*
X179175518Y-98774188D01*
X179055820Y-98810498D01*
X178945506Y-98869463D01*
X178848815Y-98948815D01*
X178769463Y-99045506D01*
X178710498Y-99155820D01*
X178674188Y-99275518D01*
X178661928Y-99400000D01*
X178665000Y-99714250D01*
X178823748Y-99872998D01*
X178800628Y-99872998D01*
X178384283Y-99456653D01*
X178360421Y-99427577D01*
X178244391Y-99332354D01*
X178112014Y-99261597D01*
X177968377Y-99218025D01*
X177856425Y-99206999D01*
X177856422Y-99206999D01*
X177818999Y-99203313D01*
X177781576Y-99206999D01*
X170268423Y-99206999D01*
X170231000Y-99203313D01*
X170193577Y-99206999D01*
X170193575Y-99206999D01*
X170081623Y-99218025D01*
X170019077Y-99236998D01*
X169995226Y-99117092D01*
X169917205Y-98928734D01*
X169803937Y-98759216D01*
X169659774Y-98615053D01*
X169490256Y-98501785D01*
X169301898Y-98423764D01*
X169101939Y-98383990D01*
X168898061Y-98383990D01*
X168698102Y-98423764D01*
X168509744Y-98501785D01*
X168340226Y-98615053D01*
X168196063Y-98759216D01*
X168082795Y-98928734D01*
X168004774Y-99117092D01*
X167976872Y-99257366D01*
X167949378Y-99249026D01*
X167837426Y-99238000D01*
X167837423Y-99238000D01*
X167800000Y-99234314D01*
X167762577Y-99238000D01*
X146537423Y-99238000D01*
X146500000Y-99234314D01*
X146462577Y-99238000D01*
X146462574Y-99238000D01*
X146350622Y-99249026D01*
X146206985Y-99292598D01*
X146161237Y-99317051D01*
X146074607Y-99363355D01*
X146052420Y-99381564D01*
X145958578Y-99458578D01*
X145934716Y-99487654D01*
X143057369Y-102365001D01*
X142998060Y-102365001D01*
X142798101Y-102404775D01*
X142609743Y-102482796D01*
X142440225Y-102596064D01*
X142296062Y-102740227D01*
X142182794Y-102909745D01*
X142104773Y-103098103D01*
X142064999Y-103298062D01*
X142064999Y-103501940D01*
X142104773Y-103701899D01*
X142182794Y-103890257D01*
X142296062Y-104059775D01*
X142440225Y-104203938D01*
X142552031Y-104278644D01*
X142549188Y-104288018D01*
X142536928Y-104412500D01*
X142540000Y-104714250D01*
X142698750Y-104873000D01*
X143773000Y-104873000D01*
X143773000Y-104853000D01*
X144027000Y-104853000D01*
X144027000Y-104873000D01*
X145101250Y-104873000D01*
X145260000Y-104714250D01*
X145263072Y-104412500D01*
X145250812Y-104288018D01*
X145214502Y-104168320D01*
X145155537Y-104058006D01*
X145076185Y-103961315D01*
X144979494Y-103881963D01*
X144869180Y-103822998D01*
X144749482Y-103786688D01*
X144625000Y-103774428D01*
X144185750Y-103777500D01*
X144027002Y-103936248D01*
X144027002Y-103866603D01*
X144095225Y-103701899D01*
X144134999Y-103501940D01*
X144134999Y-103442631D01*
X146815630Y-100762000D01*
X148360367Y-100762000D01*
X146757370Y-102364998D01*
X146698061Y-102364998D01*
X146498102Y-102404772D01*
X146309744Y-102482793D01*
X146140226Y-102596061D01*
X145996063Y-102740224D01*
X145882795Y-102909742D01*
X145804774Y-103098100D01*
X145765000Y-103298059D01*
X145765000Y-103501937D01*
X145804774Y-103701896D01*
X145882795Y-103890254D01*
X145972255Y-104024141D01*
X145944463Y-104058006D01*
X145885498Y-104168320D01*
X145849188Y-104288018D01*
X145836928Y-104412500D01*
X145840000Y-104714250D01*
X145998750Y-104873000D01*
X147073000Y-104873000D01*
X147073000Y-104853000D01*
X147327000Y-104853000D01*
X147327000Y-104873000D01*
X148401250Y-104873000D01*
X148560000Y-104714250D01*
X148563072Y-104412500D01*
X148550812Y-104288018D01*
X148514502Y-104168320D01*
X148455537Y-104058006D01*
X148376185Y-103961315D01*
X148279494Y-103881963D01*
X148169180Y-103822998D01*
X148049482Y-103786688D01*
X147925000Y-103774428D01*
X147764718Y-103775549D01*
X147795226Y-103701896D01*
X147835000Y-103501937D01*
X147835000Y-103442628D01*
X149815629Y-101462000D01*
X151160370Y-101462000D01*
X150257370Y-102365000D01*
X150198061Y-102365000D01*
X149998102Y-102404774D01*
X149809744Y-102482795D01*
X149640226Y-102596063D01*
X149496063Y-102740226D01*
X149382795Y-102909744D01*
X149304774Y-103098102D01*
X149265000Y-103298061D01*
X149265000Y-103501939D01*
X149304774Y-103701898D01*
X149382795Y-103890256D01*
X149396031Y-103910066D01*
X149348815Y-103948815D01*
X149269463Y-104045506D01*
X149210498Y-104155820D01*
X149174188Y-104275518D01*
X149161928Y-104400000D01*
X149165000Y-104714250D01*
X149323750Y-104873000D01*
X150373000Y-104873000D01*
X150373000Y-104853000D01*
X150627000Y-104853000D01*
X150627000Y-104873000D01*
X151676250Y-104873000D01*
X151835000Y-104714250D01*
X151837949Y-104412500D01*
X152436928Y-104412500D01*
X152440000Y-104714250D01*
X152598750Y-104873000D01*
X153673000Y-104873000D01*
X153673000Y-103936250D01*
X153927000Y-103936250D01*
X153927000Y-104873000D01*
X155001250Y-104873000D01*
X155160000Y-104714250D01*
X155163072Y-104412500D01*
X155636928Y-104412500D01*
X155640000Y-104714250D01*
X155798750Y-104873000D01*
X156873000Y-104873000D01*
X156873000Y-103936250D01*
X157127000Y-103936250D01*
X157127000Y-104873000D01*
X158201250Y-104873000D01*
X158360000Y-104714250D01*
X158363072Y-104412500D01*
X158350812Y-104288018D01*
X158314502Y-104168320D01*
X158255537Y-104058006D01*
X158176185Y-103961315D01*
X158079494Y-103881963D01*
X157969180Y-103822998D01*
X157849482Y-103786688D01*
X157725000Y-103774428D01*
X157285750Y-103777500D01*
X157127000Y-103936250D01*
X156873000Y-103936250D01*
X156714250Y-103777500D01*
X156275000Y-103774428D01*
X156150518Y-103786688D01*
X156030820Y-103822998D01*
X155920506Y-103881963D01*
X155823815Y-103961315D01*
X155744463Y-104058006D01*
X155685498Y-104168320D01*
X155649188Y-104288018D01*
X155636928Y-104412500D01*
X155163072Y-104412500D01*
X155150812Y-104288018D01*
X155114502Y-104168320D01*
X155055537Y-104058006D01*
X154976185Y-103961315D01*
X154879494Y-103881963D01*
X154769180Y-103822998D01*
X154649482Y-103786688D01*
X154525000Y-103774428D01*
X154085750Y-103777500D01*
X153927000Y-103936250D01*
X153673000Y-103936250D01*
X153514250Y-103777500D01*
X153075000Y-103774428D01*
X152950518Y-103786688D01*
X152830820Y-103822998D01*
X152720506Y-103881963D01*
X152623815Y-103961315D01*
X152544463Y-104058006D01*
X152485498Y-104168320D01*
X152449188Y-104288018D01*
X152436928Y-104412500D01*
X151837949Y-104412500D01*
X151838072Y-104400000D01*
X151825812Y-104275518D01*
X151789502Y-104155820D01*
X151730537Y-104045506D01*
X151651185Y-103948815D01*
X151554494Y-103869463D01*
X151444180Y-103810498D01*
X151324482Y-103774188D01*
X151267603Y-103768586D01*
X151295226Y-103701898D01*
X151335000Y-103501939D01*
X151335000Y-103442630D01*
X152615629Y-102162001D01*
X164111928Y-102162001D01*
X164111928Y-102564097D01*
X163990250Y-102482795D01*
X163801892Y-102404774D01*
X163601933Y-102365000D01*
X163398055Y-102365000D01*
X163198096Y-102404774D01*
X163009738Y-102482795D01*
X162840220Y-102596063D01*
X162696057Y-102740226D01*
X162582789Y-102909744D01*
X162504768Y-103098102D01*
X162464994Y-103298061D01*
X162464994Y-103501939D01*
X162504768Y-103701898D01*
X162582789Y-103890256D01*
X162696057Y-104059774D01*
X162840220Y-104203937D01*
X163009738Y-104317205D01*
X163198096Y-104395226D01*
X163398055Y-104435000D01*
X163601933Y-104435000D01*
X163801892Y-104395226D01*
X163990250Y-104317205D01*
X164111928Y-104235903D01*
X164111928Y-104675000D01*
X164126590Y-104823868D01*
X164170013Y-104967015D01*
X164240529Y-105098940D01*
X164335427Y-105214573D01*
X164451060Y-105309471D01*
X164582985Y-105379987D01*
X164726132Y-105423410D01*
X164875000Y-105438072D01*
X165125000Y-105438072D01*
X165273868Y-105423410D01*
X165400000Y-105385148D01*
X165526132Y-105423410D01*
X165675000Y-105438072D01*
X165925000Y-105438072D01*
X165929837Y-105437596D01*
X165904774Y-105498102D01*
X165865000Y-105698061D01*
X165865000Y-105901939D01*
X165904774Y-106101898D01*
X165982795Y-106290256D01*
X166089534Y-106450003D01*
X165982799Y-106609744D01*
X165904778Y-106798102D01*
X165865004Y-106998061D01*
X165865004Y-107201939D01*
X165904778Y-107401898D01*
X165982799Y-107590256D01*
X166096067Y-107759774D01*
X166118488Y-107782195D01*
X166108879Y-107791803D01*
X165995611Y-107961321D01*
X165917590Y-108149679D01*
X165877816Y-108349638D01*
X165877816Y-108553516D01*
X165917590Y-108753475D01*
X165995611Y-108941833D01*
X166108879Y-109111351D01*
X166253042Y-109255514D01*
X166422560Y-109368782D01*
X166610918Y-109446803D01*
X166660711Y-109456707D01*
X167710999Y-110506996D01*
X167711000Y-111331764D01*
X167200000Y-111842765D01*
X165259499Y-109902264D01*
X165231659Y-109868341D01*
X165096291Y-109757247D01*
X164941851Y-109674697D01*
X164774274Y-109623864D01*
X164643667Y-109611000D01*
X164643660Y-109611000D01*
X164600000Y-109606700D01*
X164556340Y-109611000D01*
X163935000Y-109611000D01*
X163935000Y-109572998D01*
X163780252Y-109572998D01*
X163935000Y-109418250D01*
X163924634Y-109319739D01*
X163901524Y-109246015D01*
X163923410Y-109173868D01*
X163938072Y-109025000D01*
X163938072Y-108775000D01*
X163923410Y-108626132D01*
X163885148Y-108500000D01*
X163923410Y-108373868D01*
X163938072Y-108225000D01*
X163938072Y-107975000D01*
X163923410Y-107826132D01*
X163885148Y-107700000D01*
X163923410Y-107573868D01*
X163938072Y-107425000D01*
X163938072Y-107175000D01*
X163923410Y-107026132D01*
X163885148Y-106900000D01*
X163923410Y-106773868D01*
X163938072Y-106625000D01*
X163938072Y-106375000D01*
X163923410Y-106226132D01*
X163879987Y-106082985D01*
X163809471Y-105951060D01*
X163714573Y-105835427D01*
X163598940Y-105740529D01*
X163467015Y-105670013D01*
X163323868Y-105626590D01*
X163175000Y-105611928D01*
X160625000Y-105611928D01*
X160476132Y-105626590D01*
X160332985Y-105670013D01*
X160205791Y-105738000D01*
X158445516Y-105738000D01*
X158356970Y-105649454D01*
X158363072Y-105587500D01*
X158360000Y-105285750D01*
X158201250Y-105127000D01*
X157127000Y-105127000D01*
X157127000Y-105147000D01*
X156873000Y-105147000D01*
X156873000Y-105127000D01*
X155798750Y-105127000D01*
X155668760Y-105256990D01*
X155131240Y-105256990D01*
X155001250Y-105127000D01*
X153927000Y-105127000D01*
X153927000Y-105147000D01*
X153673000Y-105147000D01*
X153673000Y-105127000D01*
X152598750Y-105127000D01*
X152468760Y-105256990D01*
X151806240Y-105256990D01*
X151676250Y-105127000D01*
X150627000Y-105127000D01*
X150627000Y-105147000D01*
X150373000Y-105147000D01*
X150373000Y-105127000D01*
X149323750Y-105127000D01*
X149165000Y-105285750D01*
X149164976Y-105288236D01*
X149087995Y-105311588D01*
X148955618Y-105382345D01*
X148839588Y-105477568D01*
X148815730Y-105506639D01*
X148524871Y-105797499D01*
X148550812Y-105711982D01*
X148563072Y-105587500D01*
X148560000Y-105285750D01*
X148401250Y-105127000D01*
X147327000Y-105127000D01*
X147327000Y-105147000D01*
X147073000Y-105147000D01*
X147073000Y-105127000D01*
X145998750Y-105127000D01*
X145840000Y-105285750D01*
X145836928Y-105587500D01*
X145849188Y-105711982D01*
X145885498Y-105831680D01*
X145944463Y-105941994D01*
X146023815Y-106038685D01*
X146103594Y-106104158D01*
X146097038Y-106109538D01*
X145986595Y-106244114D01*
X145904528Y-106397650D01*
X145853992Y-106564246D01*
X145836928Y-106737500D01*
X145836928Y-107360442D01*
X145459370Y-107738000D01*
X145199825Y-107738000D01*
X145246008Y-107585754D01*
X145263072Y-107412500D01*
X145263072Y-106737500D01*
X145246008Y-106564246D01*
X145195472Y-106397650D01*
X145113405Y-106244114D01*
X145002962Y-106109538D01*
X144996406Y-106104158D01*
X145076185Y-106038685D01*
X145155537Y-105941994D01*
X145214502Y-105831680D01*
X145250812Y-105711982D01*
X145263072Y-105587500D01*
X145260000Y-105285750D01*
X145101250Y-105127000D01*
X144027000Y-105127000D01*
X144027000Y-105147000D01*
X143773000Y-105147000D01*
X143773000Y-105127000D01*
X142698750Y-105127000D01*
X142540000Y-105285750D01*
X142536928Y-105587500D01*
X142549188Y-105711982D01*
X142585498Y-105831680D01*
X142644463Y-105941994D01*
X142723815Y-106038685D01*
X142803594Y-106104158D01*
X142797038Y-106109538D01*
X142686595Y-106244114D01*
X142604528Y-106397650D01*
X142553992Y-106564246D01*
X142536928Y-106737500D01*
X142536928Y-106785441D01*
X141934325Y-107388045D01*
X141938072Y-107350001D01*
X141938072Y-106649999D01*
X141921008Y-106476745D01*
X141870472Y-106310149D01*
X141788405Y-106156613D01*
X141721724Y-106075363D01*
X141751185Y-106051185D01*
X141830537Y-105954494D01*
X141889502Y-105844180D01*
X141925812Y-105724482D01*
X141938072Y-105600000D01*
X141935000Y-105285750D01*
X141776250Y-105127000D01*
X140727000Y-105127000D01*
X140727000Y-105147000D01*
X140473000Y-105147000D01*
X140473000Y-105127000D01*
X139423750Y-105127000D01*
X139265000Y-105285750D01*
X139261928Y-105600000D01*
X139274188Y-105724482D01*
X139310498Y-105844180D01*
X139369463Y-105954494D01*
X139448815Y-106051185D01*
X139478276Y-106075363D01*
X139411595Y-106156613D01*
X139329528Y-106310149D01*
X139278992Y-106476745D01*
X139261928Y-106649999D01*
X139261928Y-107350001D01*
X139278992Y-107523255D01*
X139329528Y-107689851D01*
X139411595Y-107843387D01*
X139522038Y-107977962D01*
X139656613Y-108088405D01*
X139810149Y-108170472D01*
X139838001Y-108178921D01*
X139838000Y-108821079D01*
X139810149Y-108829528D01*
X139656613Y-108911595D01*
X139522038Y-109022038D01*
X139411595Y-109156613D01*
X139368093Y-109238000D01*
X138550225Y-109238000D01*
X138513405Y-109169114D01*
X138402962Y-109034538D01*
X138268386Y-108924095D01*
X138114850Y-108842028D01*
X137948254Y-108791492D01*
X137775000Y-108774428D01*
X136825000Y-108774428D01*
X136651746Y-108791492D01*
X136562000Y-108818716D01*
X136562000Y-108815630D01*
X137139559Y-108238072D01*
X137750001Y-108238072D01*
X137923255Y-108221008D01*
X138089851Y-108170472D01*
X138243387Y-108088405D01*
X138377962Y-107977962D01*
X138488405Y-107843387D01*
X138570472Y-107689851D01*
X138621008Y-107523255D01*
X138638072Y-107350001D01*
X138638072Y-106649999D01*
X138621008Y-106476745D01*
X138570472Y-106310149D01*
X138488405Y-106156613D01*
X138421724Y-106075363D01*
X138451185Y-106051185D01*
X138530537Y-105954494D01*
X138589502Y-105844180D01*
X138625812Y-105724482D01*
X138638072Y-105600000D01*
X138635000Y-105285750D01*
X138476250Y-105127000D01*
X137427000Y-105127000D01*
X137427000Y-105147000D01*
X137173000Y-105147000D01*
X137173000Y-105127000D01*
X136123750Y-105127000D01*
X135965000Y-105285750D01*
X135961928Y-105600000D01*
X135974188Y-105724482D01*
X136010498Y-105844180D01*
X136069463Y-105954494D01*
X136148815Y-106051185D01*
X136178276Y-106075363D01*
X136111595Y-106156613D01*
X136029528Y-106310149D01*
X135978992Y-106476745D01*
X135961928Y-106649999D01*
X135961928Y-107260442D01*
X135287649Y-107934721D01*
X135258579Y-107958578D01*
X135234722Y-107987648D01*
X135234721Y-107987649D01*
X135163355Y-108074608D01*
X135092599Y-108206985D01*
X135049027Y-108350622D01*
X135034314Y-108500000D01*
X135038001Y-108537433D01*
X135038000Y-110562574D01*
X135034314Y-110600000D01*
X135038000Y-110637423D01*
X135038000Y-110637425D01*
X135049026Y-110749377D01*
X135092598Y-110893014D01*
X135109905Y-110925393D01*
X135163355Y-111025392D01*
X135202983Y-111073678D01*
X135258578Y-111141422D01*
X135287654Y-111165284D01*
X135634716Y-111512346D01*
X135658578Y-111541422D01*
X135774608Y-111636645D01*
X135906985Y-111707402D01*
X135938938Y-111717095D01*
X135936928Y-111737500D01*
X135936928Y-112185441D01*
X135287649Y-112834721D01*
X135258579Y-112858578D01*
X135234722Y-112887648D01*
X135234721Y-112887649D01*
X135163355Y-112974608D01*
X135092599Y-113106985D01*
X135049027Y-113250622D01*
X135034314Y-113400000D01*
X135038001Y-113437433D01*
X135038000Y-115762574D01*
X135034314Y-115800000D01*
X135038000Y-115837423D01*
X135038000Y-115837425D01*
X135049026Y-115949377D01*
X135092598Y-116093014D01*
X135115919Y-116136645D01*
X135163355Y-116225392D01*
X135194511Y-116263355D01*
X135258578Y-116341422D01*
X135287654Y-116365284D01*
X135961928Y-117039559D01*
X135961928Y-117350001D01*
X135978992Y-117523255D01*
X136029528Y-117689851D01*
X136111595Y-117843387D01*
X136222038Y-117977962D01*
X136356613Y-118088405D01*
X136510149Y-118170472D01*
X136676745Y-118221008D01*
X136849999Y-118238072D01*
X137460442Y-118238072D01*
X139834720Y-120612351D01*
X139858578Y-120641422D01*
X139974608Y-120736645D01*
X140106985Y-120807402D01*
X140250622Y-120850974D01*
X140362574Y-120862000D01*
X140362576Y-120862000D01*
X140399999Y-120865686D01*
X140437422Y-120862000D01*
X151484370Y-120862000D01*
X154434721Y-123812352D01*
X154458578Y-123841422D01*
X154574608Y-123936645D01*
X154706985Y-124007402D01*
X154850622Y-124050974D01*
X154962574Y-124062000D01*
X154962576Y-124062000D01*
X154999999Y-124065686D01*
X155037422Y-124062000D01*
X170062577Y-124062000D01*
X170100000Y-124065686D01*
X170137423Y-124062000D01*
X170137426Y-124062000D01*
X170249378Y-124050974D01*
X170393015Y-124007402D01*
X170525392Y-123936645D01*
X170641422Y-123841422D01*
X170665284Y-123812346D01*
X173512353Y-120965278D01*
X173541422Y-120941422D01*
X173636645Y-120825392D01*
X173707402Y-120693015D01*
X173750974Y-120549378D01*
X173761936Y-120438072D01*
X173925000Y-120438072D01*
X174073868Y-120423410D01*
X174217015Y-120379987D01*
X174348940Y-120309471D01*
X174464573Y-120214573D01*
X174559471Y-120098940D01*
X174629987Y-119967015D01*
X174673410Y-119823868D01*
X174688072Y-119675000D01*
X174688072Y-117865703D01*
X176238000Y-119415631D01*
X176238000Y-119462577D01*
X176234314Y-119500000D01*
X176238000Y-119537423D01*
X176238000Y-119537426D01*
X176249026Y-119649378D01*
X176292598Y-119793015D01*
X176363355Y-119925392D01*
X176458578Y-120041422D01*
X176487653Y-120065283D01*
X178328581Y-121906212D01*
X178303080Y-121918359D01*
X178069731Y-122092412D01*
X177874822Y-122308645D01*
X177725843Y-122558748D01*
X177628519Y-122833109D01*
X177749186Y-123063000D01*
X178943000Y-123063000D01*
X178943000Y-123043000D01*
X179197000Y-123043000D01*
X179197000Y-123063000D01*
X179217000Y-123063000D01*
X179217000Y-123317000D01*
X179197000Y-123317000D01*
X179197000Y-123337000D01*
X178943000Y-123337000D01*
X178943000Y-123317000D01*
X177749186Y-123317000D01*
X177628519Y-123546891D01*
X177725843Y-123821252D01*
X177874822Y-124071355D01*
X178069731Y-124287588D01*
X178106482Y-124315000D01*
X147025107Y-124315000D01*
X147203475Y-124136632D01*
X147365990Y-123893411D01*
X147477932Y-123623158D01*
X147535000Y-123336260D01*
X147535000Y-123043740D01*
X147477932Y-122756842D01*
X147365990Y-122486589D01*
X147203475Y-122243368D01*
X146996632Y-122036525D01*
X146753411Y-121874010D01*
X146483158Y-121762068D01*
X146196260Y-121705000D01*
X145903740Y-121705000D01*
X145616842Y-121762068D01*
X145346589Y-121874010D01*
X145103368Y-122036525D01*
X144896525Y-122243368D01*
X144780000Y-122417760D01*
X144663475Y-122243368D01*
X144456632Y-122036525D01*
X144213411Y-121874010D01*
X143943158Y-121762068D01*
X143656260Y-121705000D01*
X143363740Y-121705000D01*
X143076842Y-121762068D01*
X142806589Y-121874010D01*
X142563368Y-122036525D01*
X142356525Y-122243368D01*
X142240000Y-122417760D01*
X142123475Y-122243368D01*
X141916632Y-122036525D01*
X141673411Y-121874010D01*
X141403158Y-121762068D01*
X141116260Y-121705000D01*
X140823740Y-121705000D01*
X140536842Y-121762068D01*
X140266589Y-121874010D01*
X140023368Y-122036525D01*
X139891513Y-122168380D01*
X139869502Y-122095820D01*
X139810537Y-121985506D01*
X139731185Y-121888815D01*
X139634494Y-121809463D01*
X139524180Y-121750498D01*
X139404482Y-121714188D01*
X139280000Y-121701928D01*
X138715750Y-121705000D01*
X138557000Y-121863750D01*
X138557000Y-123063000D01*
X138577000Y-123063000D01*
X138577000Y-123317000D01*
X138557000Y-123317000D01*
X138557000Y-123337000D01*
X138303000Y-123337000D01*
X138303000Y-123317000D01*
X137103750Y-123317000D01*
X136945000Y-123475750D01*
X136941928Y-124040000D01*
X136954188Y-124164482D01*
X136990498Y-124284180D01*
X137006972Y-124315000D01*
X132685000Y-124315000D01*
X132685000Y-122340000D01*
X136941928Y-122340000D01*
X136945000Y-122904250D01*
X137103750Y-123063000D01*
X138303000Y-123063000D01*
X138303000Y-121863750D01*
X138144250Y-121705000D01*
X137580000Y-121701928D01*
X137455518Y-121714188D01*
X137335820Y-121750498D01*
X137225506Y-121809463D01*
X137128815Y-121888815D01*
X137049463Y-121985506D01*
X136990498Y-122095820D01*
X136954188Y-122215518D01*
X136941928Y-122340000D01*
X132685000Y-122340000D01*
X132685000Y-104400000D01*
X135961928Y-104400000D01*
X135965000Y-104714250D01*
X136123750Y-104873000D01*
X137173000Y-104873000D01*
X137173000Y-103923750D01*
X137427000Y-103923750D01*
X137427000Y-104873000D01*
X138476250Y-104873000D01*
X138635000Y-104714250D01*
X138638072Y-104400000D01*
X139261928Y-104400000D01*
X139265000Y-104714250D01*
X139423750Y-104873000D01*
X140473000Y-104873000D01*
X140473000Y-103923750D01*
X140727000Y-103923750D01*
X140727000Y-104873000D01*
X141776250Y-104873000D01*
X141935000Y-104714250D01*
X141938072Y-104400000D01*
X141925812Y-104275518D01*
X141889502Y-104155820D01*
X141830537Y-104045506D01*
X141751185Y-103948815D01*
X141654494Y-103869463D01*
X141544180Y-103810498D01*
X141424482Y-103774188D01*
X141300000Y-103761928D01*
X140885750Y-103765000D01*
X140727000Y-103923750D01*
X140473000Y-103923750D01*
X140314250Y-103765000D01*
X139900000Y-103761928D01*
X139775518Y-103774188D01*
X139655820Y-103810498D01*
X139545506Y-103869463D01*
X139448815Y-103948815D01*
X139369463Y-104045506D01*
X139310498Y-104155820D01*
X139274188Y-104275518D01*
X139261928Y-104400000D01*
X138638072Y-104400000D01*
X138625812Y-104275518D01*
X138589502Y-104155820D01*
X138530537Y-104045506D01*
X138451185Y-103948815D01*
X138354494Y-103869463D01*
X138244180Y-103810498D01*
X138124482Y-103774188D01*
X138000000Y-103761928D01*
X137585750Y-103765000D01*
X137427000Y-103923750D01*
X137173000Y-103923750D01*
X137014250Y-103765000D01*
X136600000Y-103761928D01*
X136475518Y-103774188D01*
X136355820Y-103810498D01*
X136245506Y-103869463D01*
X136148815Y-103948815D01*
X136069463Y-104045506D01*
X136010498Y-104155820D01*
X135974188Y-104275518D01*
X135961928Y-104400000D01*
X132685000Y-104400000D01*
X132685000Y-97685000D01*
X207315001Y-97685000D01*
X207315000Y-124315000D01*
G04 #@! TA.AperFunction,Conductor*
D17*
G36*
X207315000Y-124315000D02*
G01*
X205433518Y-124315000D01*
X205470269Y-124287588D01*
X205665178Y-124071355D01*
X205814157Y-123821252D01*
X205911481Y-123546891D01*
X205790814Y-123317000D01*
X204597000Y-123317000D01*
X204597000Y-123337000D01*
X204343000Y-123337000D01*
X204343000Y-123317000D01*
X204323000Y-123317000D01*
X204323000Y-123063000D01*
X204343000Y-123063000D01*
X204343000Y-123043000D01*
X204597000Y-123043000D01*
X204597000Y-123063000D01*
X205790814Y-123063000D01*
X205911481Y-122833109D01*
X205814157Y-122558748D01*
X205665178Y-122308645D01*
X205470269Y-122092412D01*
X205236920Y-121918359D01*
X204974099Y-121793175D01*
X204826890Y-121748524D01*
X204597002Y-121869844D01*
X204597002Y-121705000D01*
X204492630Y-121705000D01*
X205112353Y-121085278D01*
X205141422Y-121061422D01*
X205236645Y-120945392D01*
X205307402Y-120813015D01*
X205350974Y-120669378D01*
X205362000Y-120557426D01*
X205362000Y-120557424D01*
X205365686Y-120520001D01*
X205362000Y-120482578D01*
X205362000Y-111507936D01*
X205498061Y-111535000D01*
X205701939Y-111535000D01*
X205901898Y-111495226D01*
X206090256Y-111417205D01*
X206259774Y-111303937D01*
X206403937Y-111159774D01*
X206517205Y-110990256D01*
X206595226Y-110801898D01*
X206635000Y-110601939D01*
X206635000Y-110398061D01*
X206595226Y-110198102D01*
X206517205Y-110009744D01*
X206403937Y-109840226D01*
X206259774Y-109696063D01*
X206090256Y-109582795D01*
X205901898Y-109504774D01*
X205852106Y-109494870D01*
X205592236Y-109235000D01*
X205701939Y-109235000D01*
X205901898Y-109195226D01*
X206090256Y-109117205D01*
X206259774Y-109003937D01*
X206403937Y-108859774D01*
X206517205Y-108690256D01*
X206595226Y-108501898D01*
X206635000Y-108301939D01*
X206635000Y-108098061D01*
X206595226Y-107898102D01*
X206517205Y-107709744D01*
X206489000Y-107667532D01*
X206489000Y-105643659D01*
X206493300Y-105599999D01*
X206489000Y-105556334D01*
X206489000Y-105556333D01*
X206478371Y-105448418D01*
X206476136Y-105425724D01*
X206441690Y-105312171D01*
X206425303Y-105258149D01*
X206342753Y-105103709D01*
X206231659Y-104968341D01*
X206197743Y-104940507D01*
X204383510Y-103126275D01*
X204422829Y-103105258D01*
X204542251Y-103007251D01*
X204640258Y-102887829D01*
X204713084Y-102751582D01*
X204757929Y-102603745D01*
X204773072Y-102450000D01*
X204773072Y-100800000D01*
X204757929Y-100646255D01*
X204713084Y-100498418D01*
X204640258Y-100362171D01*
X204542251Y-100242749D01*
X204422829Y-100144742D01*
X204286582Y-100071916D01*
X204138745Y-100027071D01*
X203985000Y-100011928D01*
X203685000Y-100011928D01*
X203531255Y-100027071D01*
X203383418Y-100071916D01*
X203247171Y-100144742D01*
X203200000Y-100183454D01*
X203152829Y-100144742D01*
X203016582Y-100071916D01*
X202868745Y-100027071D01*
X202715000Y-100011928D01*
X202415000Y-100011928D01*
X202261255Y-100027071D01*
X202113418Y-100071916D01*
X201979064Y-100143730D01*
X201949494Y-100119463D01*
X201839180Y-100060498D01*
X201719482Y-100024188D01*
X201595000Y-100011928D01*
X201580750Y-100015000D01*
X201422000Y-100173750D01*
X201422000Y-101498000D01*
X201442000Y-101498000D01*
X201442000Y-101752000D01*
X201422000Y-101752000D01*
X201422000Y-101772000D01*
X201168000Y-101772000D01*
X201168000Y-101752000D01*
X201148000Y-101752000D01*
X201148000Y-101498000D01*
X201168000Y-101498000D01*
X201168000Y-100173750D01*
X201009250Y-100015000D01*
X200995000Y-100011928D01*
X200870518Y-100024188D01*
X200750820Y-100060498D01*
X200640506Y-100119463D01*
X200610936Y-100143730D01*
X200476582Y-100071916D01*
X200328745Y-100027071D01*
X200175000Y-100011928D01*
X199875000Y-100011928D01*
X199721255Y-100027071D01*
X199573418Y-100071916D01*
X199437171Y-100144742D01*
X199317749Y-100242749D01*
X199219742Y-100362171D01*
X199146916Y-100498418D01*
X199102071Y-100646255D01*
X199086928Y-100800000D01*
X199086928Y-102450000D01*
X199102071Y-102603745D01*
X199136001Y-102715599D01*
X199136001Y-103018831D01*
X199131700Y-103062500D01*
X199148864Y-103236774D01*
X199199698Y-103404352D01*
X199282248Y-103558791D01*
X199346721Y-103637351D01*
X199393342Y-103694159D01*
X199427259Y-103721994D01*
X199803001Y-104097736D01*
X199830841Y-104131659D01*
X199966209Y-104242753D01*
X200120649Y-104325303D01*
X200186558Y-104345296D01*
X200288224Y-104376136D01*
X200321424Y-104379406D01*
X200418833Y-104389000D01*
X200418839Y-104389000D01*
X200462499Y-104393300D01*
X200506159Y-104389000D01*
X203131765Y-104389000D01*
X203704693Y-104961928D01*
X203685000Y-104961928D01*
X203531255Y-104977071D01*
X203383418Y-105021916D01*
X203247171Y-105094742D01*
X203200000Y-105133454D01*
X203152829Y-105094742D01*
X203016582Y-105021916D01*
X202868745Y-104977071D01*
X202715000Y-104961928D01*
X202415000Y-104961928D01*
X202261255Y-104977071D01*
X202113418Y-105021916D01*
X201977171Y-105094742D01*
X201930000Y-105133454D01*
X201882829Y-105094742D01*
X201746582Y-105021916D01*
X201598745Y-104977071D01*
X201445000Y-104961928D01*
X201145000Y-104961928D01*
X200991255Y-104977071D01*
X200843418Y-105021916D01*
X200707171Y-105094742D01*
X200660000Y-105133454D01*
X200612829Y-105094742D01*
X200476582Y-105021916D01*
X200328745Y-104977071D01*
X200175000Y-104961928D01*
X199875000Y-104961928D01*
X199721255Y-104977071D01*
X199573418Y-105021916D01*
X199437171Y-105094742D01*
X199317749Y-105192749D01*
X199219742Y-105312171D01*
X199146916Y-105448418D01*
X199102071Y-105596255D01*
X199086928Y-105750000D01*
X199086928Y-107400000D01*
X199102071Y-107553745D01*
X199140835Y-107681534D01*
X198094370Y-108728000D01*
X197989234Y-108728000D01*
X198021008Y-108623255D01*
X198038072Y-108450001D01*
X198038072Y-107749999D01*
X198028118Y-107648935D01*
X198060412Y-107622432D01*
X198084274Y-107593356D01*
X198412342Y-107265287D01*
X198441422Y-107241422D01*
X198536645Y-107125392D01*
X198607402Y-106993015D01*
X198650974Y-106849378D01*
X198662000Y-106737426D01*
X198662000Y-106737423D01*
X198665686Y-106700000D01*
X198662000Y-106662577D01*
X198662000Y-104362422D01*
X198665686Y-104324999D01*
X198662000Y-104287574D01*
X198650974Y-104175622D01*
X198607402Y-104031985D01*
X198536645Y-103899608D01*
X198441422Y-103783578D01*
X198412352Y-103759721D01*
X198233774Y-103581143D01*
X198238072Y-103537502D01*
X198238072Y-102712498D01*
X198221008Y-102539244D01*
X198170472Y-102372648D01*
X198088405Y-102219113D01*
X197977962Y-102084538D01*
X197843387Y-101974095D01*
X197689852Y-101892028D01*
X197523256Y-101841492D01*
X197350002Y-101824428D01*
X196049998Y-101824428D01*
X195876744Y-101841492D01*
X195710148Y-101892028D01*
X195556613Y-101974095D01*
X195422038Y-102084538D01*
X195311595Y-102219113D01*
X195229528Y-102372648D01*
X195178992Y-102539244D01*
X195161928Y-102712498D01*
X195161928Y-103537502D01*
X195178992Y-103710756D01*
X195229528Y-103877352D01*
X195311595Y-104030887D01*
X195422038Y-104165462D01*
X195556613Y-104275905D01*
X195710148Y-104357972D01*
X195876744Y-104408508D01*
X196049998Y-104425572D01*
X196922941Y-104425572D01*
X197138001Y-104640632D01*
X197138001Y-104861928D01*
X196249999Y-104861928D01*
X196076745Y-104878992D01*
X195910149Y-104929528D01*
X195756613Y-105011595D01*
X195622038Y-105122038D01*
X195511595Y-105256613D01*
X195429528Y-105410149D01*
X195390745Y-105538000D01*
X194825712Y-105538000D01*
X194838072Y-105412502D01*
X194838072Y-104587498D01*
X194821008Y-104414244D01*
X194770472Y-104247648D01*
X194688405Y-104094113D01*
X194577962Y-103959538D01*
X194443387Y-103849095D01*
X194289852Y-103767028D01*
X194123256Y-103716492D01*
X194062000Y-103710459D01*
X194062000Y-103228920D01*
X194089851Y-103220472D01*
X194243387Y-103138405D01*
X194377962Y-103027962D01*
X194488405Y-102893387D01*
X194570472Y-102739851D01*
X194621008Y-102573255D01*
X194638072Y-102400001D01*
X194638072Y-101699999D01*
X194621008Y-101526745D01*
X194570472Y-101360149D01*
X194488405Y-101206613D01*
X194421724Y-101125363D01*
X194451185Y-101101185D01*
X194530537Y-101004494D01*
X194589502Y-100894180D01*
X194625812Y-100774482D01*
X194636840Y-100662500D01*
X195161928Y-100662500D01*
X195174188Y-100786982D01*
X195210498Y-100906680D01*
X195269463Y-101016994D01*
X195348815Y-101113685D01*
X195445506Y-101193037D01*
X195555820Y-101252002D01*
X195675518Y-101288312D01*
X195800000Y-101300572D01*
X196414250Y-101297500D01*
X196573000Y-101138750D01*
X196573000Y-100127000D01*
X196827000Y-100127000D01*
X196827000Y-101138750D01*
X196985750Y-101297500D01*
X197600000Y-101300572D01*
X197724482Y-101288312D01*
X197844180Y-101252002D01*
X197954494Y-101193037D01*
X198051185Y-101113685D01*
X198130537Y-101016994D01*
X198189502Y-100906680D01*
X198225812Y-100786982D01*
X198238072Y-100662500D01*
X198235000Y-100285750D01*
X198076250Y-100127000D01*
X196827000Y-100127000D01*
X196573000Y-100127000D01*
X195323750Y-100127000D01*
X195165000Y-100285750D01*
X195161928Y-100662500D01*
X194636840Y-100662500D01*
X194638072Y-100650000D01*
X194635000Y-100335750D01*
X194476250Y-100177000D01*
X193427000Y-100177000D01*
X193427000Y-100197000D01*
X193173000Y-100197000D01*
X193173000Y-100177000D01*
X192123750Y-100177000D01*
X191965000Y-100335750D01*
X191961928Y-100650000D01*
X191974188Y-100774482D01*
X192010498Y-100894180D01*
X192069463Y-101004494D01*
X192148815Y-101101185D01*
X192178276Y-101125363D01*
X192111595Y-101206613D01*
X192029528Y-101360149D01*
X191978992Y-101526745D01*
X191961928Y-101699999D01*
X191961928Y-102400001D01*
X191978992Y-102573255D01*
X192029528Y-102739851D01*
X192111595Y-102893387D01*
X192222038Y-103027962D01*
X192356613Y-103138405D01*
X192510149Y-103220472D01*
X192538000Y-103228921D01*
X192538001Y-103710459D01*
X192476744Y-103716492D01*
X192310148Y-103767028D01*
X192156613Y-103849095D01*
X192022038Y-103959538D01*
X191911595Y-104094113D01*
X191834685Y-104238000D01*
X191131907Y-104238000D01*
X191088405Y-104156613D01*
X190977962Y-104022038D01*
X190843387Y-103911595D01*
X190689851Y-103829528D01*
X190523255Y-103778992D01*
X190350001Y-103761928D01*
X189449999Y-103761928D01*
X189276745Y-103778992D01*
X189110149Y-103829528D01*
X188956613Y-103911595D01*
X188822038Y-104022038D01*
X188711595Y-104156613D01*
X188629528Y-104310149D01*
X188621583Y-104336339D01*
X187804388Y-103519144D01*
X187780526Y-103490068D01*
X187664496Y-103394845D01*
X187532119Y-103324088D01*
X187388482Y-103280516D01*
X187276530Y-103269490D01*
X187276527Y-103269490D01*
X187239104Y-103265804D01*
X187201681Y-103269490D01*
X184105933Y-103269490D01*
X184068510Y-103265804D01*
X184031087Y-103269490D01*
X184031084Y-103269490D01*
X183919132Y-103280516D01*
X183887527Y-103290103D01*
X184415630Y-102762000D01*
X185268093Y-102762000D01*
X185311595Y-102843387D01*
X185422038Y-102977962D01*
X185556613Y-103088405D01*
X185710149Y-103170472D01*
X185876745Y-103221008D01*
X186049999Y-103238072D01*
X186950001Y-103238072D01*
X187123255Y-103221008D01*
X187289851Y-103170472D01*
X187443387Y-103088405D01*
X187577962Y-102977962D01*
X187688405Y-102843387D01*
X187731907Y-102762000D01*
X188609686Y-102762000D01*
X188686595Y-102905886D01*
X188797038Y-103040462D01*
X188931614Y-103150905D01*
X189085150Y-103232972D01*
X189251746Y-103283508D01*
X189425000Y-103300572D01*
X190375000Y-103300572D01*
X190548254Y-103283508D01*
X190714850Y-103232972D01*
X190868386Y-103150905D01*
X191002962Y-103040462D01*
X191113405Y-102905886D01*
X191195472Y-102752350D01*
X191246008Y-102585754D01*
X191263072Y-102412500D01*
X191263072Y-101737500D01*
X191246008Y-101564246D01*
X191195472Y-101397650D01*
X191113405Y-101244114D01*
X191002962Y-101109538D01*
X190996406Y-101104158D01*
X191076185Y-101038685D01*
X191155537Y-100941994D01*
X191214502Y-100831680D01*
X191250812Y-100711982D01*
X191263072Y-100587500D01*
X191260000Y-100285750D01*
X191101250Y-100127000D01*
X190027000Y-100127000D01*
X190027000Y-100147000D01*
X189773000Y-100147000D01*
X189773000Y-100127000D01*
X188698750Y-100127000D01*
X188540000Y-100285750D01*
X188536928Y-100587500D01*
X188549188Y-100711982D01*
X188585498Y-100831680D01*
X188644463Y-100941994D01*
X188723815Y-101038685D01*
X188803594Y-101104158D01*
X188797038Y-101109538D01*
X188691613Y-101238000D01*
X187731907Y-101238000D01*
X187688405Y-101156613D01*
X187621724Y-101075363D01*
X187651185Y-101051185D01*
X187730537Y-100954494D01*
X187789502Y-100844180D01*
X187825812Y-100724482D01*
X187838072Y-100600000D01*
X187835000Y-100285750D01*
X187676250Y-100127000D01*
X186627000Y-100127000D01*
X186627000Y-100147000D01*
X186373000Y-100147000D01*
X186373000Y-100127000D01*
X185323750Y-100127000D01*
X185165000Y-100285750D01*
X185161928Y-100600000D01*
X185174188Y-100724482D01*
X185210498Y-100844180D01*
X185269463Y-100954494D01*
X185348815Y-101051185D01*
X185378276Y-101075363D01*
X185311595Y-101156613D01*
X185268093Y-101238000D01*
X184137423Y-101238000D01*
X184100000Y-101234314D01*
X184062577Y-101238000D01*
X184062574Y-101238000D01*
X183950622Y-101249026D01*
X183806985Y-101292598D01*
X183770030Y-101312351D01*
X183674607Y-101363355D01*
X183632819Y-101397650D01*
X183558578Y-101458578D01*
X183534716Y-101487654D01*
X181187649Y-103834721D01*
X181158579Y-103858578D01*
X181134722Y-103887648D01*
X181134721Y-103887649D01*
X181063355Y-103974608D01*
X180992599Y-104106985D01*
X180956224Y-104226896D01*
X180890256Y-104182817D01*
X180701898Y-104104796D01*
X180501939Y-104065022D01*
X180298061Y-104065022D01*
X180098102Y-104104796D01*
X179909744Y-104182817D01*
X179740226Y-104296085D01*
X179596063Y-104440248D01*
X179482795Y-104609766D01*
X179404774Y-104798124D01*
X179365000Y-104998083D01*
X179365000Y-105019001D01*
X178135002Y-105019001D01*
X178135002Y-104898061D01*
X178095228Y-104698102D01*
X178017207Y-104509744D01*
X177903939Y-104340226D01*
X177759776Y-104196063D01*
X177590258Y-104082795D01*
X177401900Y-104004774D01*
X177201941Y-103965000D01*
X176998063Y-103965000D01*
X176798104Y-104004774D01*
X176609746Y-104082795D01*
X176440228Y-104196063D01*
X176398291Y-104238000D01*
X174837422Y-104238000D01*
X174799999Y-104234314D01*
X174762576Y-104238000D01*
X174762574Y-104238000D01*
X174688072Y-104245338D01*
X174688072Y-102125000D01*
X174673410Y-101976132D01*
X174629987Y-101832985D01*
X174564631Y-101710713D01*
X174565686Y-101699999D01*
X174562000Y-101662574D01*
X174550974Y-101550622D01*
X174507402Y-101406985D01*
X174436645Y-101274608D01*
X174341422Y-101158578D01*
X174312351Y-101134721D01*
X173908630Y-100730999D01*
X177503369Y-100730999D01*
X178661928Y-101889559D01*
X178661928Y-102350001D01*
X178678992Y-102523255D01*
X178729528Y-102689851D01*
X178811595Y-102843387D01*
X178922038Y-102977962D01*
X179056613Y-103088405D01*
X179210149Y-103170472D01*
X179376745Y-103221008D01*
X179549999Y-103238072D01*
X180450001Y-103238072D01*
X180623255Y-103221008D01*
X180789851Y-103170472D01*
X180943387Y-103088405D01*
X181077962Y-102977962D01*
X181188405Y-102843387D01*
X181270472Y-102689851D01*
X181321008Y-102523255D01*
X181338072Y-102350001D01*
X181338072Y-101649999D01*
X181321008Y-101476745D01*
X181270472Y-101310149D01*
X181188405Y-101156613D01*
X181121724Y-101075363D01*
X181151185Y-101051185D01*
X181230537Y-100954494D01*
X181289502Y-100844180D01*
X181325812Y-100724482D01*
X181338072Y-100600000D01*
X181335000Y-100285750D01*
X181176250Y-100127000D01*
X180127000Y-100127000D01*
X180127000Y-100147000D01*
X179873000Y-100147000D01*
X179873000Y-100127000D01*
X179853000Y-100127000D01*
X179853000Y-99873000D01*
X179873000Y-99873000D01*
X179873000Y-98923750D01*
X180127000Y-98923750D01*
X180127000Y-99873000D01*
X181176250Y-99873000D01*
X181335000Y-99714250D01*
X181338072Y-99400000D01*
X185161928Y-99400000D01*
X185165000Y-99714250D01*
X185323750Y-99873000D01*
X186373000Y-99873000D01*
X186373000Y-98923750D01*
X186627000Y-98923750D01*
X186627000Y-99873000D01*
X187676250Y-99873000D01*
X187835000Y-99714250D01*
X187837949Y-99412500D01*
X188536928Y-99412500D01*
X188540000Y-99714250D01*
X188698750Y-99873000D01*
X189773000Y-99873000D01*
X189773000Y-98936250D01*
X190027000Y-98936250D01*
X190027000Y-99873000D01*
X191101250Y-99873000D01*
X191260000Y-99714250D01*
X191262690Y-99450000D01*
X191961928Y-99450000D01*
X191965000Y-99764250D01*
X192123750Y-99923000D01*
X193173000Y-99923000D01*
X193173000Y-98973750D01*
X193427000Y-98973750D01*
X193427000Y-99923000D01*
X194476250Y-99923000D01*
X194635000Y-99764250D01*
X194638072Y-99450000D01*
X194626993Y-99337500D01*
X195161928Y-99337500D01*
X195165000Y-99714250D01*
X195323750Y-99873000D01*
X196573000Y-99873000D01*
X196573000Y-98861250D01*
X196827000Y-98861250D01*
X196827000Y-99873000D01*
X198076250Y-99873000D01*
X198235000Y-99714250D01*
X198238072Y-99337500D01*
X198225812Y-99213018D01*
X198189502Y-99093320D01*
X198130537Y-98983006D01*
X198051185Y-98886315D01*
X197954494Y-98806963D01*
X197844180Y-98747998D01*
X197724482Y-98711688D01*
X197600000Y-98699428D01*
X196985750Y-98702500D01*
X196827000Y-98861250D01*
X196573000Y-98861250D01*
X196414250Y-98702500D01*
X195800000Y-98699428D01*
X195675518Y-98711688D01*
X195555820Y-98747998D01*
X195445506Y-98806963D01*
X195348815Y-98886315D01*
X195269463Y-98983006D01*
X195210498Y-99093320D01*
X195174188Y-99213018D01*
X195161928Y-99337500D01*
X194626993Y-99337500D01*
X194625812Y-99325518D01*
X194589502Y-99205820D01*
X194530537Y-99095506D01*
X194451185Y-98998815D01*
X194354494Y-98919463D01*
X194244180Y-98860498D01*
X194124482Y-98824188D01*
X194000000Y-98811928D01*
X193585750Y-98815000D01*
X193427000Y-98973750D01*
X193173000Y-98973750D01*
X193014250Y-98815000D01*
X192600000Y-98811928D01*
X192475518Y-98824188D01*
X192355820Y-98860498D01*
X192245506Y-98919463D01*
X192148815Y-98998815D01*
X192069463Y-99095506D01*
X192010498Y-99205820D01*
X191974188Y-99325518D01*
X191961928Y-99450000D01*
X191262690Y-99450000D01*
X191263072Y-99412500D01*
X191250812Y-99288018D01*
X191214502Y-99168320D01*
X191155537Y-99058006D01*
X191076185Y-98961315D01*
X190979494Y-98881963D01*
X190869180Y-98822998D01*
X190749482Y-98786688D01*
X190625000Y-98774428D01*
X190185750Y-98777500D01*
X190027000Y-98936250D01*
X189773000Y-98936250D01*
X189614250Y-98777500D01*
X189175000Y-98774428D01*
X189050518Y-98786688D01*
X188930820Y-98822998D01*
X188820506Y-98881963D01*
X188723815Y-98961315D01*
X188644463Y-99058006D01*
X188585498Y-99168320D01*
X188549188Y-99288018D01*
X188536928Y-99412500D01*
X187837949Y-99412500D01*
X187838072Y-99400000D01*
X187825812Y-99275518D01*
X187789502Y-99155820D01*
X187730537Y-99045506D01*
X187651185Y-98948815D01*
X187554494Y-98869463D01*
X187444180Y-98810498D01*
X187324482Y-98774188D01*
X187200000Y-98761928D01*
X186785750Y-98765000D01*
X186627000Y-98923750D01*
X186373000Y-98923750D01*
X186214250Y-98765000D01*
X185800000Y-98761928D01*
X185675518Y-98774188D01*
X185555820Y-98810498D01*
X185445506Y-98869463D01*
X185348815Y-98948815D01*
X185269463Y-99045506D01*
X185210498Y-99155820D01*
X185174188Y-99275518D01*
X185161928Y-99400000D01*
X181338072Y-99400000D01*
X181325812Y-99275518D01*
X181289502Y-99155820D01*
X181230537Y-99045506D01*
X181151185Y-98948815D01*
X181054494Y-98869463D01*
X180944180Y-98810498D01*
X180824482Y-98774188D01*
X180700000Y-98761928D01*
X180285750Y-98765000D01*
X180127000Y-98923750D01*
X179873000Y-98923750D01*
X179714250Y-98765000D01*
X179300000Y-98761928D01*
X179175518Y-98774188D01*
X179055820Y-98810498D01*
X178945506Y-98869463D01*
X178848815Y-98948815D01*
X178769463Y-99045506D01*
X178710498Y-99155820D01*
X178674188Y-99275518D01*
X178661928Y-99400000D01*
X178665000Y-99714250D01*
X178823748Y-99872998D01*
X178800628Y-99872998D01*
X178384283Y-99456653D01*
X178360421Y-99427577D01*
X178244391Y-99332354D01*
X178112014Y-99261597D01*
X177968377Y-99218025D01*
X177856425Y-99206999D01*
X177856422Y-99206999D01*
X177818999Y-99203313D01*
X177781576Y-99206999D01*
X170268423Y-99206999D01*
X170231000Y-99203313D01*
X170193577Y-99206999D01*
X170193575Y-99206999D01*
X170081623Y-99218025D01*
X170019077Y-99236998D01*
X169995226Y-99117092D01*
X169917205Y-98928734D01*
X169803937Y-98759216D01*
X169659774Y-98615053D01*
X169490256Y-98501785D01*
X169301898Y-98423764D01*
X169101939Y-98383990D01*
X168898061Y-98383990D01*
X168698102Y-98423764D01*
X168509744Y-98501785D01*
X168340226Y-98615053D01*
X168196063Y-98759216D01*
X168082795Y-98928734D01*
X168004774Y-99117092D01*
X167976872Y-99257366D01*
X167949378Y-99249026D01*
X167837426Y-99238000D01*
X167837423Y-99238000D01*
X167800000Y-99234314D01*
X167762577Y-99238000D01*
X146537423Y-99238000D01*
X146500000Y-99234314D01*
X146462577Y-99238000D01*
X146462574Y-99238000D01*
X146350622Y-99249026D01*
X146206985Y-99292598D01*
X146161237Y-99317051D01*
X146074607Y-99363355D01*
X146052420Y-99381564D01*
X145958578Y-99458578D01*
X145934716Y-99487654D01*
X143057369Y-102365001D01*
X142998060Y-102365001D01*
X142798101Y-102404775D01*
X142609743Y-102482796D01*
X142440225Y-102596064D01*
X142296062Y-102740227D01*
X142182794Y-102909745D01*
X142104773Y-103098103D01*
X142064999Y-103298062D01*
X142064999Y-103501940D01*
X142104773Y-103701899D01*
X142182794Y-103890257D01*
X142296062Y-104059775D01*
X142440225Y-104203938D01*
X142552031Y-104278644D01*
X142549188Y-104288018D01*
X142536928Y-104412500D01*
X142540000Y-104714250D01*
X142698750Y-104873000D01*
X143773000Y-104873000D01*
X143773000Y-104853000D01*
X144027000Y-104853000D01*
X144027000Y-104873000D01*
X145101250Y-104873000D01*
X145260000Y-104714250D01*
X145263072Y-104412500D01*
X145250812Y-104288018D01*
X145214502Y-104168320D01*
X145155537Y-104058006D01*
X145076185Y-103961315D01*
X144979494Y-103881963D01*
X144869180Y-103822998D01*
X144749482Y-103786688D01*
X144625000Y-103774428D01*
X144185750Y-103777500D01*
X144027002Y-103936248D01*
X144027002Y-103866603D01*
X144095225Y-103701899D01*
X144134999Y-103501940D01*
X144134999Y-103442631D01*
X146815630Y-100762000D01*
X148360367Y-100762000D01*
X146757370Y-102364998D01*
X146698061Y-102364998D01*
X146498102Y-102404772D01*
X146309744Y-102482793D01*
X146140226Y-102596061D01*
X145996063Y-102740224D01*
X145882795Y-102909742D01*
X145804774Y-103098100D01*
X145765000Y-103298059D01*
X145765000Y-103501937D01*
X145804774Y-103701896D01*
X145882795Y-103890254D01*
X145972255Y-104024141D01*
X145944463Y-104058006D01*
X145885498Y-104168320D01*
X145849188Y-104288018D01*
X145836928Y-104412500D01*
X145840000Y-104714250D01*
X145998750Y-104873000D01*
X147073000Y-104873000D01*
X147073000Y-104853000D01*
X147327000Y-104853000D01*
X147327000Y-104873000D01*
X148401250Y-104873000D01*
X148560000Y-104714250D01*
X148563072Y-104412500D01*
X148550812Y-104288018D01*
X148514502Y-104168320D01*
X148455537Y-104058006D01*
X148376185Y-103961315D01*
X148279494Y-103881963D01*
X148169180Y-103822998D01*
X148049482Y-103786688D01*
X147925000Y-103774428D01*
X147764718Y-103775549D01*
X147795226Y-103701896D01*
X147835000Y-103501937D01*
X147835000Y-103442628D01*
X149815629Y-101462000D01*
X151160370Y-101462000D01*
X150257370Y-102365000D01*
X150198061Y-102365000D01*
X149998102Y-102404774D01*
X149809744Y-102482795D01*
X149640226Y-102596063D01*
X149496063Y-102740226D01*
X149382795Y-102909744D01*
X149304774Y-103098102D01*
X149265000Y-103298061D01*
X149265000Y-103501939D01*
X149304774Y-103701898D01*
X149382795Y-103890256D01*
X149396031Y-103910066D01*
X149348815Y-103948815D01*
X149269463Y-104045506D01*
X149210498Y-104155820D01*
X149174188Y-104275518D01*
X149161928Y-104400000D01*
X149165000Y-104714250D01*
X149323750Y-104873000D01*
X150373000Y-104873000D01*
X150373000Y-104853000D01*
X150627000Y-104853000D01*
X150627000Y-104873000D01*
X151676250Y-104873000D01*
X151835000Y-104714250D01*
X151837949Y-104412500D01*
X152436928Y-104412500D01*
X152440000Y-104714250D01*
X152598750Y-104873000D01*
X153673000Y-104873000D01*
X153673000Y-103936250D01*
X153927000Y-103936250D01*
X153927000Y-104873000D01*
X155001250Y-104873000D01*
X155160000Y-104714250D01*
X155163072Y-104412500D01*
X155636928Y-104412500D01*
X155640000Y-104714250D01*
X155798750Y-104873000D01*
X156873000Y-104873000D01*
X156873000Y-103936250D01*
X157127000Y-103936250D01*
X157127000Y-104873000D01*
X158201250Y-104873000D01*
X158360000Y-104714250D01*
X158363072Y-104412500D01*
X158350812Y-104288018D01*
X158314502Y-104168320D01*
X158255537Y-104058006D01*
X158176185Y-103961315D01*
X158079494Y-103881963D01*
X157969180Y-103822998D01*
X157849482Y-103786688D01*
X157725000Y-103774428D01*
X157285750Y-103777500D01*
X157127000Y-103936250D01*
X156873000Y-103936250D01*
X156714250Y-103777500D01*
X156275000Y-103774428D01*
X156150518Y-103786688D01*
X156030820Y-103822998D01*
X155920506Y-103881963D01*
X155823815Y-103961315D01*
X155744463Y-104058006D01*
X155685498Y-104168320D01*
X155649188Y-104288018D01*
X155636928Y-104412500D01*
X155163072Y-104412500D01*
X155150812Y-104288018D01*
X155114502Y-104168320D01*
X155055537Y-104058006D01*
X154976185Y-103961315D01*
X154879494Y-103881963D01*
X154769180Y-103822998D01*
X154649482Y-103786688D01*
X154525000Y-103774428D01*
X154085750Y-103777500D01*
X153927000Y-103936250D01*
X153673000Y-103936250D01*
X153514250Y-103777500D01*
X153075000Y-103774428D01*
X152950518Y-103786688D01*
X152830820Y-103822998D01*
X152720506Y-103881963D01*
X152623815Y-103961315D01*
X152544463Y-104058006D01*
X152485498Y-104168320D01*
X152449188Y-104288018D01*
X152436928Y-104412500D01*
X151837949Y-104412500D01*
X151838072Y-104400000D01*
X151825812Y-104275518D01*
X151789502Y-104155820D01*
X151730537Y-104045506D01*
X151651185Y-103948815D01*
X151554494Y-103869463D01*
X151444180Y-103810498D01*
X151324482Y-103774188D01*
X151267603Y-103768586D01*
X151295226Y-103701898D01*
X151335000Y-103501939D01*
X151335000Y-103442630D01*
X152615629Y-102162001D01*
X164111928Y-102162001D01*
X164111928Y-102564097D01*
X163990250Y-102482795D01*
X163801892Y-102404774D01*
X163601933Y-102365000D01*
X163398055Y-102365000D01*
X163198096Y-102404774D01*
X163009738Y-102482795D01*
X162840220Y-102596063D01*
X162696057Y-102740226D01*
X162582789Y-102909744D01*
X162504768Y-103098102D01*
X162464994Y-103298061D01*
X162464994Y-103501939D01*
X162504768Y-103701898D01*
X162582789Y-103890256D01*
X162696057Y-104059774D01*
X162840220Y-104203937D01*
X163009738Y-104317205D01*
X163198096Y-104395226D01*
X163398055Y-104435000D01*
X163601933Y-104435000D01*
X163801892Y-104395226D01*
X163990250Y-104317205D01*
X164111928Y-104235903D01*
X164111928Y-104675000D01*
X164126590Y-104823868D01*
X164170013Y-104967015D01*
X164240529Y-105098940D01*
X164335427Y-105214573D01*
X164451060Y-105309471D01*
X164582985Y-105379987D01*
X164726132Y-105423410D01*
X164875000Y-105438072D01*
X165125000Y-105438072D01*
X165273868Y-105423410D01*
X165400000Y-105385148D01*
X165526132Y-105423410D01*
X165675000Y-105438072D01*
X165925000Y-105438072D01*
X165929837Y-105437596D01*
X165904774Y-105498102D01*
X165865000Y-105698061D01*
X165865000Y-105901939D01*
X165904774Y-106101898D01*
X165982795Y-106290256D01*
X166089534Y-106450003D01*
X165982799Y-106609744D01*
X165904778Y-106798102D01*
X165865004Y-106998061D01*
X165865004Y-107201939D01*
X165904778Y-107401898D01*
X165982799Y-107590256D01*
X166096067Y-107759774D01*
X166118488Y-107782195D01*
X166108879Y-107791803D01*
X165995611Y-107961321D01*
X165917590Y-108149679D01*
X165877816Y-108349638D01*
X165877816Y-108553516D01*
X165917590Y-108753475D01*
X165995611Y-108941833D01*
X166108879Y-109111351D01*
X166253042Y-109255514D01*
X166422560Y-109368782D01*
X166610918Y-109446803D01*
X166660711Y-109456707D01*
X167710999Y-110506996D01*
X167711000Y-111331764D01*
X167200000Y-111842765D01*
X165259499Y-109902264D01*
X165231659Y-109868341D01*
X165096291Y-109757247D01*
X164941851Y-109674697D01*
X164774274Y-109623864D01*
X164643667Y-109611000D01*
X164643660Y-109611000D01*
X164600000Y-109606700D01*
X164556340Y-109611000D01*
X163935000Y-109611000D01*
X163935000Y-109572998D01*
X163780252Y-109572998D01*
X163935000Y-109418250D01*
X163924634Y-109319739D01*
X163901524Y-109246015D01*
X163923410Y-109173868D01*
X163938072Y-109025000D01*
X163938072Y-108775000D01*
X163923410Y-108626132D01*
X163885148Y-108500000D01*
X163923410Y-108373868D01*
X163938072Y-108225000D01*
X163938072Y-107975000D01*
X163923410Y-107826132D01*
X163885148Y-107700000D01*
X163923410Y-107573868D01*
X163938072Y-107425000D01*
X163938072Y-107175000D01*
X163923410Y-107026132D01*
X163885148Y-106900000D01*
X163923410Y-106773868D01*
X163938072Y-106625000D01*
X163938072Y-106375000D01*
X163923410Y-106226132D01*
X163879987Y-106082985D01*
X163809471Y-105951060D01*
X163714573Y-105835427D01*
X163598940Y-105740529D01*
X163467015Y-105670013D01*
X163323868Y-105626590D01*
X163175000Y-105611928D01*
X160625000Y-105611928D01*
X160476132Y-105626590D01*
X160332985Y-105670013D01*
X160205791Y-105738000D01*
X158445516Y-105738000D01*
X158356970Y-105649454D01*
X158363072Y-105587500D01*
X158360000Y-105285750D01*
X158201250Y-105127000D01*
X157127000Y-105127000D01*
X157127000Y-105147000D01*
X156873000Y-105147000D01*
X156873000Y-105127000D01*
X155798750Y-105127000D01*
X155668760Y-105256990D01*
X155131240Y-105256990D01*
X155001250Y-105127000D01*
X153927000Y-105127000D01*
X153927000Y-105147000D01*
X153673000Y-105147000D01*
X153673000Y-105127000D01*
X152598750Y-105127000D01*
X152468760Y-105256990D01*
X151806240Y-105256990D01*
X151676250Y-105127000D01*
X150627000Y-105127000D01*
X150627000Y-105147000D01*
X150373000Y-105147000D01*
X150373000Y-105127000D01*
X149323750Y-105127000D01*
X149165000Y-105285750D01*
X149164976Y-105288236D01*
X149087995Y-105311588D01*
X148955618Y-105382345D01*
X148839588Y-105477568D01*
X148815730Y-105506639D01*
X148524871Y-105797499D01*
X148550812Y-105711982D01*
X148563072Y-105587500D01*
X148560000Y-105285750D01*
X148401250Y-105127000D01*
X147327000Y-105127000D01*
X147327000Y-105147000D01*
X147073000Y-105147000D01*
X147073000Y-105127000D01*
X145998750Y-105127000D01*
X145840000Y-105285750D01*
X145836928Y-105587500D01*
X145849188Y-105711982D01*
X145885498Y-105831680D01*
X145944463Y-105941994D01*
X146023815Y-106038685D01*
X146103594Y-106104158D01*
X146097038Y-106109538D01*
X145986595Y-106244114D01*
X145904528Y-106397650D01*
X145853992Y-106564246D01*
X145836928Y-106737500D01*
X145836928Y-107360442D01*
X145459370Y-107738000D01*
X145199825Y-107738000D01*
X145246008Y-107585754D01*
X145263072Y-107412500D01*
X145263072Y-106737500D01*
X145246008Y-106564246D01*
X145195472Y-106397650D01*
X145113405Y-106244114D01*
X145002962Y-106109538D01*
X144996406Y-106104158D01*
X145076185Y-106038685D01*
X145155537Y-105941994D01*
X145214502Y-105831680D01*
X145250812Y-105711982D01*
X145263072Y-105587500D01*
X145260000Y-105285750D01*
X145101250Y-105127000D01*
X144027000Y-105127000D01*
X144027000Y-105147000D01*
X143773000Y-105147000D01*
X143773000Y-105127000D01*
X142698750Y-105127000D01*
X142540000Y-105285750D01*
X142536928Y-105587500D01*
X142549188Y-105711982D01*
X142585498Y-105831680D01*
X142644463Y-105941994D01*
X142723815Y-106038685D01*
X142803594Y-106104158D01*
X142797038Y-106109538D01*
X142686595Y-106244114D01*
X142604528Y-106397650D01*
X142553992Y-106564246D01*
X142536928Y-106737500D01*
X142536928Y-106785441D01*
X141934325Y-107388045D01*
X141938072Y-107350001D01*
X141938072Y-106649999D01*
X141921008Y-106476745D01*
X141870472Y-106310149D01*
X141788405Y-106156613D01*
X141721724Y-106075363D01*
X141751185Y-106051185D01*
X141830537Y-105954494D01*
X141889502Y-105844180D01*
X141925812Y-105724482D01*
X141938072Y-105600000D01*
X141935000Y-105285750D01*
X141776250Y-105127000D01*
X140727000Y-105127000D01*
X140727000Y-105147000D01*
X140473000Y-105147000D01*
X140473000Y-105127000D01*
X139423750Y-105127000D01*
X139265000Y-105285750D01*
X139261928Y-105600000D01*
X139274188Y-105724482D01*
X139310498Y-105844180D01*
X139369463Y-105954494D01*
X139448815Y-106051185D01*
X139478276Y-106075363D01*
X139411595Y-106156613D01*
X139329528Y-106310149D01*
X139278992Y-106476745D01*
X139261928Y-106649999D01*
X139261928Y-107350001D01*
X139278992Y-107523255D01*
X139329528Y-107689851D01*
X139411595Y-107843387D01*
X139522038Y-107977962D01*
X139656613Y-108088405D01*
X139810149Y-108170472D01*
X139838001Y-108178921D01*
X139838000Y-108821079D01*
X139810149Y-108829528D01*
X139656613Y-108911595D01*
X139522038Y-109022038D01*
X139411595Y-109156613D01*
X139368093Y-109238000D01*
X138550225Y-109238000D01*
X138513405Y-109169114D01*
X138402962Y-109034538D01*
X138268386Y-108924095D01*
X138114850Y-108842028D01*
X137948254Y-108791492D01*
X137775000Y-108774428D01*
X136825000Y-108774428D01*
X136651746Y-108791492D01*
X136562000Y-108818716D01*
X136562000Y-108815630D01*
X137139559Y-108238072D01*
X137750001Y-108238072D01*
X137923255Y-108221008D01*
X138089851Y-108170472D01*
X138243387Y-108088405D01*
X138377962Y-107977962D01*
X138488405Y-107843387D01*
X138570472Y-107689851D01*
X138621008Y-107523255D01*
X138638072Y-107350001D01*
X138638072Y-106649999D01*
X138621008Y-106476745D01*
X138570472Y-106310149D01*
X138488405Y-106156613D01*
X138421724Y-106075363D01*
X138451185Y-106051185D01*
X138530537Y-105954494D01*
X138589502Y-105844180D01*
X138625812Y-105724482D01*
X138638072Y-105600000D01*
X138635000Y-105285750D01*
X138476250Y-105127000D01*
X137427000Y-105127000D01*
X137427000Y-105147000D01*
X137173000Y-105147000D01*
X137173000Y-105127000D01*
X136123750Y-105127000D01*
X135965000Y-105285750D01*
X135961928Y-105600000D01*
X135974188Y-105724482D01*
X136010498Y-105844180D01*
X136069463Y-105954494D01*
X136148815Y-106051185D01*
X136178276Y-106075363D01*
X136111595Y-106156613D01*
X136029528Y-106310149D01*
X135978992Y-106476745D01*
X135961928Y-106649999D01*
X135961928Y-107260442D01*
X135287649Y-107934721D01*
X135258579Y-107958578D01*
X135234722Y-107987648D01*
X135234721Y-107987649D01*
X135163355Y-108074608D01*
X135092599Y-108206985D01*
X135049027Y-108350622D01*
X135034314Y-108500000D01*
X135038001Y-108537433D01*
X135038000Y-110562574D01*
X135034314Y-110600000D01*
X135038000Y-110637423D01*
X135038000Y-110637425D01*
X135049026Y-110749377D01*
X135092598Y-110893014D01*
X135109905Y-110925393D01*
X135163355Y-111025392D01*
X135202983Y-111073678D01*
X135258578Y-111141422D01*
X135287654Y-111165284D01*
X135634716Y-111512346D01*
X135658578Y-111541422D01*
X135774608Y-111636645D01*
X135906985Y-111707402D01*
X135938938Y-111717095D01*
X135936928Y-111737500D01*
X135936928Y-112185441D01*
X135287649Y-112834721D01*
X135258579Y-112858578D01*
X135234722Y-112887648D01*
X135234721Y-112887649D01*
X135163355Y-112974608D01*
X135092599Y-113106985D01*
X135049027Y-113250622D01*
X135034314Y-113400000D01*
X135038001Y-113437433D01*
X135038000Y-115762574D01*
X135034314Y-115800000D01*
X135038000Y-115837423D01*
X135038000Y-115837425D01*
X135049026Y-115949377D01*
X135092598Y-116093014D01*
X135115919Y-116136645D01*
X135163355Y-116225392D01*
X135194511Y-116263355D01*
X135258578Y-116341422D01*
X135287654Y-116365284D01*
X135961928Y-117039559D01*
X135961928Y-117350001D01*
X135978992Y-117523255D01*
X136029528Y-117689851D01*
X136111595Y-117843387D01*
X136222038Y-117977962D01*
X136356613Y-118088405D01*
X136510149Y-118170472D01*
X136676745Y-118221008D01*
X136849999Y-118238072D01*
X137460442Y-118238072D01*
X139834720Y-120612351D01*
X139858578Y-120641422D01*
X139974608Y-120736645D01*
X140106985Y-120807402D01*
X140250622Y-120850974D01*
X140362574Y-120862000D01*
X140362576Y-120862000D01*
X140399999Y-120865686D01*
X140437422Y-120862000D01*
X151484370Y-120862000D01*
X154434721Y-123812352D01*
X154458578Y-123841422D01*
X154574608Y-123936645D01*
X154706985Y-124007402D01*
X154850622Y-124050974D01*
X154962574Y-124062000D01*
X154962576Y-124062000D01*
X154999999Y-124065686D01*
X155037422Y-124062000D01*
X170062577Y-124062000D01*
X170100000Y-124065686D01*
X170137423Y-124062000D01*
X170137426Y-124062000D01*
X170249378Y-124050974D01*
X170393015Y-124007402D01*
X170525392Y-123936645D01*
X170641422Y-123841422D01*
X170665284Y-123812346D01*
X173512353Y-120965278D01*
X173541422Y-120941422D01*
X173636645Y-120825392D01*
X173707402Y-120693015D01*
X173750974Y-120549378D01*
X173761936Y-120438072D01*
X173925000Y-120438072D01*
X174073868Y-120423410D01*
X174217015Y-120379987D01*
X174348940Y-120309471D01*
X174464573Y-120214573D01*
X174559471Y-120098940D01*
X174629987Y-119967015D01*
X174673410Y-119823868D01*
X174688072Y-119675000D01*
X174688072Y-117865703D01*
X176238000Y-119415631D01*
X176238000Y-119462577D01*
X176234314Y-119500000D01*
X176238000Y-119537423D01*
X176238000Y-119537426D01*
X176249026Y-119649378D01*
X176292598Y-119793015D01*
X176363355Y-119925392D01*
X176458578Y-120041422D01*
X176487653Y-120065283D01*
X178328581Y-121906212D01*
X178303080Y-121918359D01*
X178069731Y-122092412D01*
X177874822Y-122308645D01*
X177725843Y-122558748D01*
X177628519Y-122833109D01*
X177749186Y-123063000D01*
X178943000Y-123063000D01*
X178943000Y-123043000D01*
X179197000Y-123043000D01*
X179197000Y-123063000D01*
X179217000Y-123063000D01*
X179217000Y-123317000D01*
X179197000Y-123317000D01*
X179197000Y-123337000D01*
X178943000Y-123337000D01*
X178943000Y-123317000D01*
X177749186Y-123317000D01*
X177628519Y-123546891D01*
X177725843Y-123821252D01*
X177874822Y-124071355D01*
X178069731Y-124287588D01*
X178106482Y-124315000D01*
X147025107Y-124315000D01*
X147203475Y-124136632D01*
X147365990Y-123893411D01*
X147477932Y-123623158D01*
X147535000Y-123336260D01*
X147535000Y-123043740D01*
X147477932Y-122756842D01*
X147365990Y-122486589D01*
X147203475Y-122243368D01*
X146996632Y-122036525D01*
X146753411Y-121874010D01*
X146483158Y-121762068D01*
X146196260Y-121705000D01*
X145903740Y-121705000D01*
X145616842Y-121762068D01*
X145346589Y-121874010D01*
X145103368Y-122036525D01*
X144896525Y-122243368D01*
X144780000Y-122417760D01*
X144663475Y-122243368D01*
X144456632Y-122036525D01*
X144213411Y-121874010D01*
X143943158Y-121762068D01*
X143656260Y-121705000D01*
X143363740Y-121705000D01*
X143076842Y-121762068D01*
X142806589Y-121874010D01*
X142563368Y-122036525D01*
X142356525Y-122243368D01*
X142240000Y-122417760D01*
X142123475Y-122243368D01*
X141916632Y-122036525D01*
X141673411Y-121874010D01*
X141403158Y-121762068D01*
X141116260Y-121705000D01*
X140823740Y-121705000D01*
X140536842Y-121762068D01*
X140266589Y-121874010D01*
X140023368Y-122036525D01*
X139891513Y-122168380D01*
X139869502Y-122095820D01*
X139810537Y-121985506D01*
X139731185Y-121888815D01*
X139634494Y-121809463D01*
X139524180Y-121750498D01*
X139404482Y-121714188D01*
X139280000Y-121701928D01*
X138715750Y-121705000D01*
X138557000Y-121863750D01*
X138557000Y-123063000D01*
X138577000Y-123063000D01*
X138577000Y-123317000D01*
X138557000Y-123317000D01*
X138557000Y-123337000D01*
X138303000Y-123337000D01*
X138303000Y-123317000D01*
X137103750Y-123317000D01*
X136945000Y-123475750D01*
X136941928Y-124040000D01*
X136954188Y-124164482D01*
X136990498Y-124284180D01*
X137006972Y-124315000D01*
X132685000Y-124315000D01*
X132685000Y-122340000D01*
X136941928Y-122340000D01*
X136945000Y-122904250D01*
X137103750Y-123063000D01*
X138303000Y-123063000D01*
X138303000Y-121863750D01*
X138144250Y-121705000D01*
X137580000Y-121701928D01*
X137455518Y-121714188D01*
X137335820Y-121750498D01*
X137225506Y-121809463D01*
X137128815Y-121888815D01*
X137049463Y-121985506D01*
X136990498Y-122095820D01*
X136954188Y-122215518D01*
X136941928Y-122340000D01*
X132685000Y-122340000D01*
X132685000Y-104400000D01*
X135961928Y-104400000D01*
X135965000Y-104714250D01*
X136123750Y-104873000D01*
X137173000Y-104873000D01*
X137173000Y-103923750D01*
X137427000Y-103923750D01*
X137427000Y-104873000D01*
X138476250Y-104873000D01*
X138635000Y-104714250D01*
X138638072Y-104400000D01*
X139261928Y-104400000D01*
X139265000Y-104714250D01*
X139423750Y-104873000D01*
X140473000Y-104873000D01*
X140473000Y-103923750D01*
X140727000Y-103923750D01*
X140727000Y-104873000D01*
X141776250Y-104873000D01*
X141935000Y-104714250D01*
X141938072Y-104400000D01*
X141925812Y-104275518D01*
X141889502Y-104155820D01*
X141830537Y-104045506D01*
X141751185Y-103948815D01*
X141654494Y-103869463D01*
X141544180Y-103810498D01*
X141424482Y-103774188D01*
X141300000Y-103761928D01*
X140885750Y-103765000D01*
X140727000Y-103923750D01*
X140473000Y-103923750D01*
X140314250Y-103765000D01*
X139900000Y-103761928D01*
X139775518Y-103774188D01*
X139655820Y-103810498D01*
X139545506Y-103869463D01*
X139448815Y-103948815D01*
X139369463Y-104045506D01*
X139310498Y-104155820D01*
X139274188Y-104275518D01*
X139261928Y-104400000D01*
X138638072Y-104400000D01*
X138625812Y-104275518D01*
X138589502Y-104155820D01*
X138530537Y-104045506D01*
X138451185Y-103948815D01*
X138354494Y-103869463D01*
X138244180Y-103810498D01*
X138124482Y-103774188D01*
X138000000Y-103761928D01*
X137585750Y-103765000D01*
X137427000Y-103923750D01*
X137173000Y-103923750D01*
X137014250Y-103765000D01*
X136600000Y-103761928D01*
X136475518Y-103774188D01*
X136355820Y-103810498D01*
X136245506Y-103869463D01*
X136148815Y-103948815D01*
X136069463Y-104045506D01*
X136010498Y-104155820D01*
X135974188Y-104275518D01*
X135961928Y-104400000D01*
X132685000Y-104400000D01*
X132685000Y-97685000D01*
X207315001Y-97685000D01*
X207315000Y-124315000D01*
G37*
G04 #@! TD.AperFunction*
D14*
X181836928Y-118012500D02*
X181840000Y-118314250D01*
X181998750Y-118473000D01*
X183073000Y-118473000D01*
X183073000Y-118453000D01*
X183327000Y-118453000D01*
X183327000Y-118473000D01*
X183347000Y-118473000D01*
X183347000Y-118727000D01*
X183327000Y-118727000D01*
X183327000Y-119663750D01*
X183485750Y-119822500D01*
X183925000Y-119825572D01*
X184049482Y-119813312D01*
X184169180Y-119777002D01*
X184279494Y-119718037D01*
X184376185Y-119638685D01*
X184455537Y-119541994D01*
X184514502Y-119431680D01*
X184550812Y-119311982D01*
X184563072Y-119187500D01*
X184560000Y-118885750D01*
X184401252Y-118727002D01*
X184449371Y-118727002D01*
X184834721Y-119112352D01*
X184858578Y-119141422D01*
X184974608Y-119236645D01*
X185106985Y-119307402D01*
X185250622Y-119350974D01*
X185262842Y-119352178D01*
X185311595Y-119443387D01*
X185422038Y-119577962D01*
X185556613Y-119688405D01*
X185710149Y-119770472D01*
X185876745Y-119821008D01*
X186049999Y-119838072D01*
X186950001Y-119838072D01*
X187123255Y-119821008D01*
X187289851Y-119770472D01*
X187354195Y-119736080D01*
X187358579Y-119741422D01*
X187387649Y-119765279D01*
X188234721Y-120612351D01*
X188258578Y-120641422D01*
X188374608Y-120736645D01*
X188506985Y-120807402D01*
X188650622Y-120850974D01*
X188762574Y-120862000D01*
X188762576Y-120862000D01*
X188799999Y-120865686D01*
X188837422Y-120862000D01*
X189762577Y-120862000D01*
X189800000Y-120865686D01*
X189837423Y-120862000D01*
X189837426Y-120862000D01*
X189949378Y-120850974D01*
X190093015Y-120807402D01*
X190225392Y-120736645D01*
X190341422Y-120641422D01*
X190365284Y-120612346D01*
X190438000Y-120539630D01*
X190438000Y-120904370D01*
X189594049Y-121748321D01*
X189376260Y-121705000D01*
X189083740Y-121705000D01*
X188796842Y-121762068D01*
X188526589Y-121874010D01*
X188283368Y-122036525D01*
X188076525Y-122243368D01*
X187954805Y-122425534D01*
X187885178Y-122308645D01*
X187690269Y-122092412D01*
X187456920Y-121918359D01*
X187194099Y-121793175D01*
X187046890Y-121748524D01*
X186817000Y-121869845D01*
X186817000Y-123063000D01*
X186837000Y-123063000D01*
X186837000Y-123317000D01*
X186817000Y-123317000D01*
X186817000Y-123337000D01*
X186563000Y-123337000D01*
X186563000Y-123317000D01*
X186543000Y-123317000D01*
X186543000Y-123063000D01*
X186563000Y-123063000D01*
X186563000Y-121869845D01*
X186333110Y-121748524D01*
X186185901Y-121793175D01*
X185923080Y-121918359D01*
X185689731Y-122092412D01*
X185494822Y-122308645D01*
X185425195Y-122425534D01*
X185303475Y-122243368D01*
X185096632Y-122036525D01*
X184853411Y-121874010D01*
X184583158Y-121762068D01*
X184296260Y-121705000D01*
X184003740Y-121705000D01*
X183785952Y-121748321D01*
X183025284Y-120987654D01*
X183001422Y-120958578D01*
X182885392Y-120863355D01*
X182753015Y-120792598D01*
X182609378Y-120749026D01*
X182497426Y-120738000D01*
X182497423Y-120738000D01*
X182460000Y-120734314D01*
X182422577Y-120738000D01*
X180280271Y-120738000D01*
X180295225Y-120701899D01*
X180334999Y-120501940D01*
X180334999Y-120298062D01*
X180295225Y-120098103D01*
X180217204Y-119909745D01*
X180169314Y-119838072D01*
X180450001Y-119838072D01*
X180623255Y-119821008D01*
X180789851Y-119770472D01*
X180943387Y-119688405D01*
X181077962Y-119577962D01*
X181188405Y-119443387D01*
X181270472Y-119289851D01*
X181301519Y-119187500D01*
X181836928Y-119187500D01*
X181849188Y-119311982D01*
X181885498Y-119431680D01*
X181944463Y-119541994D01*
X182023815Y-119638685D01*
X182120506Y-119718037D01*
X182230820Y-119777002D01*
X182350518Y-119813312D01*
X182475000Y-119825572D01*
X182914250Y-119822500D01*
X183073000Y-119663750D01*
X183073000Y-118727000D01*
X181998750Y-118727000D01*
X181840000Y-118885750D01*
X181836928Y-119187500D01*
X181301519Y-119187500D01*
X181321008Y-119123255D01*
X181338072Y-118950001D01*
X181338072Y-118439558D01*
X181844772Y-117932859D01*
X181836928Y-118012500D01*
G04 #@! TA.AperFunction,Conductor*
D17*
G36*
X181836928Y-118012500D02*
G01*
X181840000Y-118314250D01*
X181998750Y-118473000D01*
X183073000Y-118473000D01*
X183073000Y-118453000D01*
X183327000Y-118453000D01*
X183327000Y-118473000D01*
X183347000Y-118473000D01*
X183347000Y-118727000D01*
X183327000Y-118727000D01*
X183327000Y-119663750D01*
X183485750Y-119822500D01*
X183925000Y-119825572D01*
X184049482Y-119813312D01*
X184169180Y-119777002D01*
X184279494Y-119718037D01*
X184376185Y-119638685D01*
X184455537Y-119541994D01*
X184514502Y-119431680D01*
X184550812Y-119311982D01*
X184563072Y-119187500D01*
X184560000Y-118885750D01*
X184401252Y-118727002D01*
X184449371Y-118727002D01*
X184834721Y-119112352D01*
X184858578Y-119141422D01*
X184974608Y-119236645D01*
X185106985Y-119307402D01*
X185250622Y-119350974D01*
X185262842Y-119352178D01*
X185311595Y-119443387D01*
X185422038Y-119577962D01*
X185556613Y-119688405D01*
X185710149Y-119770472D01*
X185876745Y-119821008D01*
X186049999Y-119838072D01*
X186950001Y-119838072D01*
X187123255Y-119821008D01*
X187289851Y-119770472D01*
X187354195Y-119736080D01*
X187358579Y-119741422D01*
X187387649Y-119765279D01*
X188234721Y-120612351D01*
X188258578Y-120641422D01*
X188374608Y-120736645D01*
X188506985Y-120807402D01*
X188650622Y-120850974D01*
X188762574Y-120862000D01*
X188762576Y-120862000D01*
X188799999Y-120865686D01*
X188837422Y-120862000D01*
X189762577Y-120862000D01*
X189800000Y-120865686D01*
X189837423Y-120862000D01*
X189837426Y-120862000D01*
X189949378Y-120850974D01*
X190093015Y-120807402D01*
X190225392Y-120736645D01*
X190341422Y-120641422D01*
X190365284Y-120612346D01*
X190438000Y-120539630D01*
X190438000Y-120904370D01*
X189594049Y-121748321D01*
X189376260Y-121705000D01*
X189083740Y-121705000D01*
X188796842Y-121762068D01*
X188526589Y-121874010D01*
X188283368Y-122036525D01*
X188076525Y-122243368D01*
X187954805Y-122425534D01*
X187885178Y-122308645D01*
X187690269Y-122092412D01*
X187456920Y-121918359D01*
X187194099Y-121793175D01*
X187046890Y-121748524D01*
X186817000Y-121869845D01*
X186817000Y-123063000D01*
X186837000Y-123063000D01*
X186837000Y-123317000D01*
X186817000Y-123317000D01*
X186817000Y-123337000D01*
X186563000Y-123337000D01*
X186563000Y-123317000D01*
X186543000Y-123317000D01*
X186543000Y-123063000D01*
X186563000Y-123063000D01*
X186563000Y-121869845D01*
X186333110Y-121748524D01*
X186185901Y-121793175D01*
X185923080Y-121918359D01*
X185689731Y-122092412D01*
X185494822Y-122308645D01*
X185425195Y-122425534D01*
X185303475Y-122243368D01*
X185096632Y-122036525D01*
X184853411Y-121874010D01*
X184583158Y-121762068D01*
X184296260Y-121705000D01*
X184003740Y-121705000D01*
X183785952Y-121748321D01*
X183025284Y-120987654D01*
X183001422Y-120958578D01*
X182885392Y-120863355D01*
X182753015Y-120792598D01*
X182609378Y-120749026D01*
X182497426Y-120738000D01*
X182497423Y-120738000D01*
X182460000Y-120734314D01*
X182422577Y-120738000D01*
X180280271Y-120738000D01*
X180295225Y-120701899D01*
X180334999Y-120501940D01*
X180334999Y-120298062D01*
X180295225Y-120098103D01*
X180217204Y-119909745D01*
X180169314Y-119838072D01*
X180450001Y-119838072D01*
X180623255Y-119821008D01*
X180789851Y-119770472D01*
X180943387Y-119688405D01*
X181077962Y-119577962D01*
X181188405Y-119443387D01*
X181270472Y-119289851D01*
X181301519Y-119187500D01*
X181836928Y-119187500D01*
X181849188Y-119311982D01*
X181885498Y-119431680D01*
X181944463Y-119541994D01*
X182023815Y-119638685D01*
X182120506Y-119718037D01*
X182230820Y-119777002D01*
X182350518Y-119813312D01*
X182475000Y-119825572D01*
X182914250Y-119822500D01*
X183073000Y-119663750D01*
X183073000Y-118727000D01*
X181998750Y-118727000D01*
X181840000Y-118885750D01*
X181836928Y-119187500D01*
X181301519Y-119187500D01*
X181321008Y-119123255D01*
X181338072Y-118950001D01*
X181338072Y-118439558D01*
X181844772Y-117932859D01*
X181836928Y-118012500D01*
G37*
G04 #@! TD.AperFunction*
D14*
X172434720Y-106512351D02*
X172458578Y-106541422D01*
X172487648Y-106565279D01*
X172574607Y-106636645D01*
X172624579Y-106663355D01*
X172706985Y-106707402D01*
X172850622Y-106750974D01*
X172962574Y-106762000D01*
X172962577Y-106762000D01*
X173000000Y-106765686D01*
X173037423Y-106762000D01*
X174662577Y-106762000D01*
X174700000Y-106765686D01*
X174737423Y-106762000D01*
X174737426Y-106762000D01*
X174849378Y-106750974D01*
X174873611Y-106743623D01*
X174876590Y-106773868D01*
X174914852Y-106900000D01*
X174876590Y-107026132D01*
X174861928Y-107175000D01*
X174861928Y-107425000D01*
X174876590Y-107573868D01*
X174914852Y-107700000D01*
X174876590Y-107826132D01*
X174861928Y-107975000D01*
X174861928Y-108138000D01*
X173715630Y-108138000D01*
X173135000Y-107557370D01*
X173135000Y-107498061D01*
X173095226Y-107298102D01*
X173017205Y-107109744D01*
X172903937Y-106940226D01*
X172759774Y-106796063D01*
X172590256Y-106682795D01*
X172401898Y-106604774D01*
X172201939Y-106565000D01*
X171998061Y-106565000D01*
X171798102Y-106604774D01*
X171609744Y-106682795D01*
X171440226Y-106796063D01*
X171296063Y-106940226D01*
X171182795Y-107109744D01*
X171104774Y-107298102D01*
X171065000Y-107498061D01*
X171065000Y-107701939D01*
X171104774Y-107901898D01*
X171182795Y-108090256D01*
X171296063Y-108259774D01*
X171440226Y-108403937D01*
X171609744Y-108517205D01*
X171798102Y-108595226D01*
X171998061Y-108635000D01*
X172057370Y-108635000D01*
X172360370Y-108938000D01*
X171437422Y-108938000D01*
X171399999Y-108934314D01*
X171362576Y-108938000D01*
X171362574Y-108938000D01*
X171250622Y-108949026D01*
X171197963Y-108965000D01*
X170998061Y-108965000D01*
X170798102Y-109004774D01*
X170609744Y-109082795D01*
X170440226Y-109196063D01*
X170296063Y-109340226D01*
X170182795Y-109509744D01*
X170104774Y-109698102D01*
X170065000Y-109898061D01*
X170065000Y-110101939D01*
X170104774Y-110301898D01*
X170182795Y-110490256D01*
X170296063Y-110659774D01*
X170440226Y-110803937D01*
X170609744Y-110917205D01*
X170798102Y-110995226D01*
X170998061Y-111035000D01*
X171201939Y-111035000D01*
X171401898Y-110995226D01*
X171590256Y-110917205D01*
X171759774Y-110803937D01*
X171903937Y-110659774D01*
X172017205Y-110490256D01*
X172028909Y-110462000D01*
X174861928Y-110462000D01*
X174861928Y-110625000D01*
X174876590Y-110773868D01*
X174914852Y-110900000D01*
X174876590Y-111026132D01*
X174861928Y-111175000D01*
X174861928Y-111425000D01*
X174876590Y-111573868D01*
X174914852Y-111700000D01*
X174876590Y-111826132D01*
X174861928Y-111975000D01*
X174861928Y-112225000D01*
X174876590Y-112373868D01*
X174914852Y-112500000D01*
X174876590Y-112626132D01*
X174861928Y-112775000D01*
X174861928Y-112938000D01*
X174277100Y-112938000D01*
X174235166Y-112896066D01*
X174065648Y-112782798D01*
X173877290Y-112704777D01*
X173677331Y-112665003D01*
X173473453Y-112665003D01*
X173273494Y-112704777D01*
X173085136Y-112782798D01*
X172915618Y-112896066D01*
X172771455Y-113040229D01*
X172658187Y-113209747D01*
X172580166Y-113398105D01*
X172540392Y-113598064D01*
X172540392Y-113801942D01*
X172542194Y-113811000D01*
X167952711Y-113811000D01*
X168003937Y-113759774D01*
X168117205Y-113590256D01*
X168195226Y-113401898D01*
X168205130Y-113352105D01*
X169197740Y-112359495D01*
X169231658Y-112331660D01*
X169263373Y-112293016D01*
X169319192Y-112225000D01*
X169342752Y-112196292D01*
X169425302Y-112041852D01*
X169469296Y-111896822D01*
X169476135Y-111874276D01*
X169493300Y-111700001D01*
X169488999Y-111656333D01*
X169488999Y-110182419D01*
X169493299Y-110138759D01*
X169488999Y-110095094D01*
X169488999Y-110095093D01*
X169478416Y-109987649D01*
X169476135Y-109964484D01*
X169441218Y-109849378D01*
X169425302Y-109796909D01*
X169342752Y-109642469D01*
X169231658Y-109507101D01*
X169197742Y-109479267D01*
X167917946Y-108199472D01*
X167908042Y-108149679D01*
X167830021Y-107961321D01*
X167763657Y-107862000D01*
X169262577Y-107862000D01*
X169300000Y-107865686D01*
X169337423Y-107862000D01*
X169337426Y-107862000D01*
X169449378Y-107850974D01*
X169593015Y-107807402D01*
X169725392Y-107736645D01*
X169841422Y-107641422D01*
X169865284Y-107612346D01*
X171700000Y-105777630D01*
X172434720Y-106512351D01*
G04 #@! TA.AperFunction,Conductor*
D17*
G36*
X172434720Y-106512351D02*
G01*
X172458578Y-106541422D01*
X172487648Y-106565279D01*
X172574607Y-106636645D01*
X172624579Y-106663355D01*
X172706985Y-106707402D01*
X172850622Y-106750974D01*
X172962574Y-106762000D01*
X172962577Y-106762000D01*
X173000000Y-106765686D01*
X173037423Y-106762000D01*
X174662577Y-106762000D01*
X174700000Y-106765686D01*
X174737423Y-106762000D01*
X174737426Y-106762000D01*
X174849378Y-106750974D01*
X174873611Y-106743623D01*
X174876590Y-106773868D01*
X174914852Y-106900000D01*
X174876590Y-107026132D01*
X174861928Y-107175000D01*
X174861928Y-107425000D01*
X174876590Y-107573868D01*
X174914852Y-107700000D01*
X174876590Y-107826132D01*
X174861928Y-107975000D01*
X174861928Y-108138000D01*
X173715630Y-108138000D01*
X173135000Y-107557370D01*
X173135000Y-107498061D01*
X173095226Y-107298102D01*
X173017205Y-107109744D01*
X172903937Y-106940226D01*
X172759774Y-106796063D01*
X172590256Y-106682795D01*
X172401898Y-106604774D01*
X172201939Y-106565000D01*
X171998061Y-106565000D01*
X171798102Y-106604774D01*
X171609744Y-106682795D01*
X171440226Y-106796063D01*
X171296063Y-106940226D01*
X171182795Y-107109744D01*
X171104774Y-107298102D01*
X171065000Y-107498061D01*
X171065000Y-107701939D01*
X171104774Y-107901898D01*
X171182795Y-108090256D01*
X171296063Y-108259774D01*
X171440226Y-108403937D01*
X171609744Y-108517205D01*
X171798102Y-108595226D01*
X171998061Y-108635000D01*
X172057370Y-108635000D01*
X172360370Y-108938000D01*
X171437422Y-108938000D01*
X171399999Y-108934314D01*
X171362576Y-108938000D01*
X171362574Y-108938000D01*
X171250622Y-108949026D01*
X171197963Y-108965000D01*
X170998061Y-108965000D01*
X170798102Y-109004774D01*
X170609744Y-109082795D01*
X170440226Y-109196063D01*
X170296063Y-109340226D01*
X170182795Y-109509744D01*
X170104774Y-109698102D01*
X170065000Y-109898061D01*
X170065000Y-110101939D01*
X170104774Y-110301898D01*
X170182795Y-110490256D01*
X170296063Y-110659774D01*
X170440226Y-110803937D01*
X170609744Y-110917205D01*
X170798102Y-110995226D01*
X170998061Y-111035000D01*
X171201939Y-111035000D01*
X171401898Y-110995226D01*
X171590256Y-110917205D01*
X171759774Y-110803937D01*
X171903937Y-110659774D01*
X172017205Y-110490256D01*
X172028909Y-110462000D01*
X174861928Y-110462000D01*
X174861928Y-110625000D01*
X174876590Y-110773868D01*
X174914852Y-110900000D01*
X174876590Y-111026132D01*
X174861928Y-111175000D01*
X174861928Y-111425000D01*
X174876590Y-111573868D01*
X174914852Y-111700000D01*
X174876590Y-111826132D01*
X174861928Y-111975000D01*
X174861928Y-112225000D01*
X174876590Y-112373868D01*
X174914852Y-112500000D01*
X174876590Y-112626132D01*
X174861928Y-112775000D01*
X174861928Y-112938000D01*
X174277100Y-112938000D01*
X174235166Y-112896066D01*
X174065648Y-112782798D01*
X173877290Y-112704777D01*
X173677331Y-112665003D01*
X173473453Y-112665003D01*
X173273494Y-112704777D01*
X173085136Y-112782798D01*
X172915618Y-112896066D01*
X172771455Y-113040229D01*
X172658187Y-113209747D01*
X172580166Y-113398105D01*
X172540392Y-113598064D01*
X172540392Y-113801942D01*
X172542194Y-113811000D01*
X167952711Y-113811000D01*
X168003937Y-113759774D01*
X168117205Y-113590256D01*
X168195226Y-113401898D01*
X168205130Y-113352105D01*
X169197740Y-112359495D01*
X169231658Y-112331660D01*
X169263373Y-112293016D01*
X169319192Y-112225000D01*
X169342752Y-112196292D01*
X169425302Y-112041852D01*
X169469296Y-111896822D01*
X169476135Y-111874276D01*
X169493300Y-111700001D01*
X169488999Y-111656333D01*
X169488999Y-110182419D01*
X169493299Y-110138759D01*
X169488999Y-110095094D01*
X169488999Y-110095093D01*
X169478416Y-109987649D01*
X169476135Y-109964484D01*
X169441218Y-109849378D01*
X169425302Y-109796909D01*
X169342752Y-109642469D01*
X169231658Y-109507101D01*
X169197742Y-109479267D01*
X167917946Y-108199472D01*
X167908042Y-108149679D01*
X167830021Y-107961321D01*
X167763657Y-107862000D01*
X169262577Y-107862000D01*
X169300000Y-107865686D01*
X169337423Y-107862000D01*
X169337426Y-107862000D01*
X169449378Y-107850974D01*
X169593015Y-107807402D01*
X169725392Y-107736645D01*
X169841422Y-107641422D01*
X169865284Y-107612346D01*
X171700000Y-105777630D01*
X172434720Y-106512351D01*
G37*
G04 #@! TD.AperFunction*
D14*
X160276884Y-109700000D02*
X160201060Y-109740529D01*
X160100569Y-109823000D01*
X160023750Y-109823000D01*
X159865000Y-109981750D01*
X159872200Y-110050170D01*
X159665380Y-110256990D01*
X158406240Y-110256990D01*
X158276250Y-110127000D01*
X157227000Y-110127000D01*
X157227000Y-110147000D01*
X156973000Y-110147000D01*
X156973000Y-110127000D01*
X155923750Y-110127000D01*
X155765000Y-110285750D01*
X155764100Y-110377811D01*
X155755617Y-110382345D01*
X155703166Y-110425391D01*
X155639588Y-110477568D01*
X155615730Y-110506639D01*
X154997932Y-111124437D01*
X154988405Y-111106613D01*
X154877962Y-110972038D01*
X154851109Y-110950000D01*
X154877962Y-110927962D01*
X154988405Y-110793387D01*
X155070472Y-110639851D01*
X155121008Y-110473255D01*
X155138072Y-110300001D01*
X155138072Y-109870365D01*
X155198092Y-109895226D01*
X155398051Y-109935000D01*
X155601929Y-109935000D01*
X155801888Y-109895226D01*
X155903773Y-109853023D01*
X155923750Y-109873000D01*
X156973000Y-109873000D01*
X156973000Y-109853000D01*
X157227000Y-109853000D01*
X157227000Y-109873000D01*
X158276250Y-109873000D01*
X158435000Y-109714250D01*
X158435511Y-109662000D01*
X160205791Y-109662000D01*
X160276884Y-109700000D01*
G04 #@! TA.AperFunction,Conductor*
D17*
G36*
X160276884Y-109700000D02*
G01*
X160201060Y-109740529D01*
X160100569Y-109823000D01*
X160023750Y-109823000D01*
X159865000Y-109981750D01*
X159872200Y-110050170D01*
X159665380Y-110256990D01*
X158406240Y-110256990D01*
X158276250Y-110127000D01*
X157227000Y-110127000D01*
X157227000Y-110147000D01*
X156973000Y-110147000D01*
X156973000Y-110127000D01*
X155923750Y-110127000D01*
X155765000Y-110285750D01*
X155764100Y-110377811D01*
X155755617Y-110382345D01*
X155703166Y-110425391D01*
X155639588Y-110477568D01*
X155615730Y-110506639D01*
X154997932Y-111124437D01*
X154988405Y-111106613D01*
X154877962Y-110972038D01*
X154851109Y-110950000D01*
X154877962Y-110927962D01*
X154988405Y-110793387D01*
X155070472Y-110639851D01*
X155121008Y-110473255D01*
X155138072Y-110300001D01*
X155138072Y-109870365D01*
X155198092Y-109895226D01*
X155398051Y-109935000D01*
X155601929Y-109935000D01*
X155801888Y-109895226D01*
X155903773Y-109853023D01*
X155923750Y-109873000D01*
X156973000Y-109873000D01*
X156973000Y-109853000D01*
X157227000Y-109853000D01*
X157227000Y-109873000D01*
X158276250Y-109873000D01*
X158435000Y-109714250D01*
X158435511Y-109662000D01*
X160205791Y-109662000D01*
X160276884Y-109700000D01*
G37*
G04 #@! TD.AperFunction*
M02*
