%TF.GenerationSoftware,KiCad,Pcbnew,5.1.7-a382d34a8~87~ubuntu18.04.1*%
%TF.CreationDate,2020-10-31T20:21:00-04:00*%
%TF.ProjectId,DolbyS_NR_HIC,446f6c62-7953-45f4-9e52-5f4849432e6b,rev?*%
%TF.SameCoordinates,PXc65d400PY5d75c80*%
%TF.FileFunction,Legend,Bot*%
%TF.FilePolarity,Positive*%
%FSLAX46Y46*%
G04 Gerber Fmt 4.6, Leading zero omitted, Abs format (unit mm)*
G04 Created by KiCad (PCBNEW 5.1.7-a382d34a8~87~ubuntu18.04.1) date 2020-10-31 20:21:00*
%MOMM*%
%LPD*%
G01*
G04 APERTURE LIST*
%ADD10C,0.150000*%
%TA.AperFunction,Profile*%
%ADD11C,0.100000*%
%TD*%
%ADD12C,0.120000*%
G04 APERTURE END LIST*
D10*
X-6347620Y-3085714D02*
X-6347620Y-2514285D01*
X-6347620Y-2800000D02*
X-7347620Y-2800000D01*
X-7204762Y-2704761D01*
X-7109524Y-2609523D01*
X-7061905Y-2514285D01*
D11*
X-76000000Y-27000000D02*
X-76000000Y1000000D01*
X0Y-27000000D02*
X-76000000Y-27000000D01*
X0Y1000000D02*
X0Y-27000000D01*
X-76000000Y1000000D02*
X0Y1000000D01*
D12*
%TO.C,J1*%
X-70903500Y-23856500D02*
X-60570000Y-23856500D01*
X-70903500Y-26523500D02*
X-60553000Y-26523500D01*
X-2200000Y-23860000D02*
X-30263500Y-23856500D01*
X-30263500Y-26523500D02*
X-2200000Y-26520000D01*
X-30263500Y-23856500D02*
X-30263500Y-26523500D01*
X-60553000Y-23856500D02*
X-60553000Y-26523500D01*
X-70903500Y-23856500D02*
X-70903500Y-26523500D01*
X-2200000Y-23860000D02*
X-2200000Y-26520000D01*
%TO.C,C46*%
X-70985000Y-20762500D02*
X-70985000Y-16677500D01*
X-70985000Y-16677500D02*
X-69115000Y-16677500D01*
X-69115000Y-16677500D02*
X-69115000Y-20762500D01*
%TO.C,D1*%
X-6980000Y-14740000D02*
X-6050000Y-14740000D01*
X-3820000Y-14740000D02*
X-4750000Y-14740000D01*
X-3820000Y-14740000D02*
X-3820000Y-16900000D01*
X-6980000Y-14740000D02*
X-6980000Y-16200000D01*
%TO.C,D4*%
X-18380000Y-14762000D02*
X-17450000Y-14762000D01*
X-15220000Y-14762000D02*
X-16150000Y-14762000D01*
X-15220000Y-14762000D02*
X-15220000Y-16922000D01*
X-18380000Y-14762000D02*
X-18380000Y-16222000D01*
%TO.C,D3*%
X-10780000Y-14740000D02*
X-9850000Y-14740000D01*
X-7620000Y-14740000D02*
X-8550000Y-14740000D01*
X-7620000Y-14740000D02*
X-7620000Y-16900000D01*
X-10780000Y-14740000D02*
X-10780000Y-16200000D01*
%TO.C,D2*%
X-14580000Y-14762000D02*
X-13650000Y-14762000D01*
X-11420000Y-14762000D02*
X-12350000Y-14762000D01*
X-11420000Y-14762000D02*
X-11420000Y-16922000D01*
X-14580000Y-14762000D02*
X-14580000Y-16222000D01*
%TO.C,C47*%
X-55860000Y-2851248D02*
X-55860000Y-4273752D01*
X-54040000Y-2851248D02*
X-54040000Y-4273752D01*
%TO.C,C37*%
X-63910000Y-2851248D02*
X-63910000Y-4273752D01*
X-62090000Y-2851248D02*
X-62090000Y-4273752D01*
%TO.C,C12*%
X-42540000Y-16060000D02*
X-43740000Y-16060000D01*
X-47060000Y-16060000D02*
X-45860000Y-16060000D01*
X-47060000Y-12604437D02*
X-47060000Y-16060000D01*
X-42540000Y-12604437D02*
X-42540000Y-16060000D01*
X-43604437Y-11540000D02*
X-43740000Y-11540000D01*
X-45995563Y-11540000D02*
X-45860000Y-11540000D01*
X-45995563Y-11540000D02*
X-47060000Y-12604437D01*
X-43604437Y-11540000D02*
X-42540000Y-12604437D01*
X-46360000Y-10800000D02*
X-46360000Y-11300000D01*
X-46610000Y-11050000D02*
X-46110000Y-11050000D01*
%TO.C,U2*%
X-2113000Y-6967000D02*
X-2113000Y-8917000D01*
X-2113000Y-6967000D02*
X-2113000Y-5017000D01*
X-7233000Y-6967000D02*
X-7233000Y-8917000D01*
X-7233000Y-6967000D02*
X-7233000Y-3517000D01*
%TO.C,R52*%
X-34935000Y-7772936D02*
X-34935000Y-8227064D01*
X-33465000Y-7772936D02*
X-33465000Y-8227064D01*
%TO.C,R51*%
X-51035000Y-12772936D02*
X-51035000Y-13227064D01*
X-49565000Y-12772936D02*
X-49565000Y-13227064D01*
%TO.C,R49*%
X-55635000Y-7772936D02*
X-55635000Y-8227064D01*
X-54165000Y-7772936D02*
X-54165000Y-8227064D01*
%TO.C,R48*%
X-68625000Y-13227064D02*
X-68625000Y-12772936D01*
X-70095000Y-13227064D02*
X-70095000Y-12772936D01*
%TO.C,R47*%
X-53215000Y-13227064D02*
X-53215000Y-12772936D01*
X-54685000Y-13227064D02*
X-54685000Y-12772936D01*
%TO.C,R46*%
X-71865000Y-13227064D02*
X-71865000Y-12772936D01*
X-73335000Y-13227064D02*
X-73335000Y-12772936D01*
%TO.C,R45*%
X-57945000Y-12772936D02*
X-57945000Y-13227064D01*
X-56475000Y-12772936D02*
X-56475000Y-13227064D01*
%TO.C,R44*%
X-60335000Y-7772936D02*
X-60335000Y-8227064D01*
X-58865000Y-7772936D02*
X-58865000Y-8227064D01*
%TO.C,R42*%
X-63735000Y-7772936D02*
X-63735000Y-8227064D01*
X-62265000Y-7772936D02*
X-62265000Y-8227064D01*
%TO.C,R40*%
X-34935000Y-2772936D02*
X-34935000Y-3227064D01*
X-33465000Y-2772936D02*
X-33465000Y-3227064D01*
%TO.C,R38*%
X-65765000Y-8227064D02*
X-65765000Y-7772936D01*
X-67235000Y-8227064D02*
X-67235000Y-7772936D01*
%TO.C,R32*%
X-42265000Y-3227064D02*
X-42265000Y-2772936D01*
X-43735000Y-3227064D02*
X-43735000Y-2772936D01*
%TO.C,R29*%
X-42265000Y-8227064D02*
X-42265000Y-7772936D01*
X-43735000Y-8227064D02*
X-43735000Y-7772936D01*
%TO.C,R28*%
X-35985000Y-17772936D02*
X-35985000Y-18227064D01*
X-34515000Y-17772936D02*
X-34515000Y-18227064D01*
%TO.C,R26*%
X-22165000Y-8227064D02*
X-22165000Y-7772936D01*
X-23635000Y-8227064D02*
X-23635000Y-7772936D01*
%TO.C,R24*%
X-18865000Y-3227064D02*
X-18865000Y-2772936D01*
X-20335000Y-3227064D02*
X-20335000Y-2772936D01*
%TO.C,R20*%
X-23635000Y-12772936D02*
X-23635000Y-13227064D01*
X-22165000Y-12772936D02*
X-22165000Y-13227064D01*
%TO.C,R19*%
X-26735000Y-2772936D02*
X-26735000Y-3227064D01*
X-25265000Y-2772936D02*
X-25265000Y-3227064D01*
%TO.C,R16*%
X-17135000Y-2772936D02*
X-17135000Y-3227064D01*
X-15665000Y-2772936D02*
X-15665000Y-3227064D01*
%TO.C,R15*%
X-28465000Y-8227064D02*
X-28465000Y-7772936D01*
X-29935000Y-8227064D02*
X-29935000Y-7772936D01*
%TO.C,R14*%
X-10135000Y-2772936D02*
X-10135000Y-3227064D01*
X-8665000Y-2772936D02*
X-8665000Y-3227064D01*
%TO.C,R10*%
X-8665000Y-8227064D02*
X-8665000Y-7772936D01*
X-10135000Y-8227064D02*
X-10135000Y-7772936D01*
%TO.C,R8*%
X-36035000Y-12772936D02*
X-36035000Y-13227064D01*
X-34565000Y-12772936D02*
X-34565000Y-13227064D01*
%TO.C,Q4*%
X-18380000Y-19640000D02*
X-17450000Y-19640000D01*
X-15220000Y-19640000D02*
X-16150000Y-19640000D01*
X-15220000Y-19640000D02*
X-15220000Y-21800000D01*
X-18380000Y-19640000D02*
X-18380000Y-21100000D01*
%TO.C,Q3*%
X-10780000Y-19640000D02*
X-9850000Y-19640000D01*
X-7620000Y-19640000D02*
X-8550000Y-19640000D01*
X-7620000Y-19640000D02*
X-7620000Y-21800000D01*
X-10780000Y-19640000D02*
X-10780000Y-21100000D01*
%TO.C,Q2*%
X-14580000Y-19640000D02*
X-13650000Y-19640000D01*
X-11420000Y-19640000D02*
X-12350000Y-19640000D01*
X-11420000Y-19640000D02*
X-11420000Y-21800000D01*
X-14580000Y-19640000D02*
X-14580000Y-21100000D01*
%TO.C,Q1*%
X-6980000Y-19640000D02*
X-6050000Y-19640000D01*
X-3820000Y-19640000D02*
X-4750000Y-19640000D01*
X-3820000Y-19640000D02*
X-3820000Y-21800000D01*
X-6980000Y-19640000D02*
X-6980000Y-21100000D01*
%TO.C,C49*%
X-52060000Y-2888748D02*
X-52060000Y-5211252D01*
X-48640000Y-2888748D02*
X-48640000Y-5211252D01*
%TO.C,C48*%
X-63840000Y-21060000D02*
X-65040000Y-21060000D01*
X-68360000Y-21060000D02*
X-67160000Y-21060000D01*
X-68360000Y-17604437D02*
X-68360000Y-21060000D01*
X-63840000Y-17604437D02*
X-63840000Y-21060000D01*
X-64904437Y-16540000D02*
X-65040000Y-16540000D01*
X-67295563Y-16540000D02*
X-67160000Y-16540000D01*
X-67295563Y-16540000D02*
X-68360000Y-17604437D01*
X-64904437Y-16540000D02*
X-63840000Y-17604437D01*
X-67660000Y-15800000D02*
X-67660000Y-16300000D01*
X-67910000Y-16050000D02*
X-67410000Y-16050000D01*
%TO.C,C45*%
X-54885000Y-20762500D02*
X-54885000Y-16677500D01*
X-54885000Y-16677500D02*
X-53015000Y-16677500D01*
X-53015000Y-16677500D02*
X-53015000Y-20762500D01*
%TO.C,C44*%
X-58290000Y-21060000D02*
X-59490000Y-21060000D01*
X-62810000Y-21060000D02*
X-61610000Y-21060000D01*
X-62810000Y-17604437D02*
X-62810000Y-21060000D01*
X-58290000Y-17604437D02*
X-58290000Y-21060000D01*
X-59354437Y-16540000D02*
X-59490000Y-16540000D01*
X-61745563Y-16540000D02*
X-61610000Y-16540000D01*
X-61745563Y-16540000D02*
X-62810000Y-17604437D01*
X-59354437Y-16540000D02*
X-58290000Y-17604437D01*
X-62110000Y-15800000D02*
X-62110000Y-16300000D01*
X-62360000Y-16050000D02*
X-61860000Y-16050000D01*
%TO.C,C43*%
X-73535000Y-20762500D02*
X-73535000Y-16677500D01*
X-73535000Y-16677500D02*
X-71665000Y-16677500D01*
X-71665000Y-16677500D02*
X-71665000Y-20762500D01*
%TO.C,C42*%
X-57585000Y-20762500D02*
X-57585000Y-16677500D01*
X-57585000Y-16677500D02*
X-55715000Y-16677500D01*
X-55715000Y-16677500D02*
X-55715000Y-20762500D01*
%TO.C,C41*%
X-47790000Y-21060000D02*
X-48990000Y-21060000D01*
X-52310000Y-21060000D02*
X-51110000Y-21060000D01*
X-52310000Y-17604437D02*
X-52310000Y-21060000D01*
X-47790000Y-17604437D02*
X-47790000Y-21060000D01*
X-48854437Y-16540000D02*
X-48990000Y-16540000D01*
X-51245563Y-16540000D02*
X-51110000Y-16540000D01*
X-51245563Y-16540000D02*
X-52310000Y-17604437D01*
X-48854437Y-16540000D02*
X-47790000Y-17604437D01*
X-51610000Y-15800000D02*
X-51610000Y-16300000D01*
X-51860000Y-16050000D02*
X-51360000Y-16050000D01*
%TO.C,C39*%
X-60335000Y-2776248D02*
X-60335000Y-3298752D01*
X-58865000Y-2776248D02*
X-58865000Y-3298752D01*
%TO.C,C35*%
X-71760000Y-2851248D02*
X-71760000Y-4273752D01*
X-69040000Y-2851248D02*
X-69040000Y-4273752D01*
%TO.C,C31*%
X-46935000Y-2776248D02*
X-46935000Y-3298752D01*
X-45465000Y-2776248D02*
X-45465000Y-3298752D01*
%TO.C,C28*%
X-45465000Y-8298752D02*
X-45465000Y-7776248D01*
X-46935000Y-8298752D02*
X-46935000Y-7776248D01*
%TO.C,C27*%
X-22165000Y-3298752D02*
X-22165000Y-2776248D01*
X-23635000Y-3298752D02*
X-23635000Y-2776248D01*
%TO.C,C24*%
X-20335000Y-7776248D02*
X-20335000Y-8298752D01*
X-18865000Y-7776248D02*
X-18865000Y-8298752D01*
%TO.C,C23*%
X-36576000Y-8378000D02*
X-37776000Y-8378000D01*
X-41096000Y-8378000D02*
X-39896000Y-8378000D01*
X-41096000Y-4922437D02*
X-41096000Y-8378000D01*
X-36576000Y-4922437D02*
X-36576000Y-8378000D01*
X-37640437Y-3858000D02*
X-37776000Y-3858000D01*
X-40031563Y-3858000D02*
X-39896000Y-3858000D01*
X-40031563Y-3858000D02*
X-41096000Y-4922437D01*
X-37640437Y-3858000D02*
X-36576000Y-4922437D01*
X-40396000Y-3118000D02*
X-40396000Y-3618000D01*
X-40646000Y-3368000D02*
X-40146000Y-3368000D01*
%TO.C,C21*%
X-25265000Y-13298752D02*
X-25265000Y-12776248D01*
X-26735000Y-13298752D02*
X-26735000Y-12776248D01*
%TO.C,C20*%
X-28465000Y-3298752D02*
X-28465000Y-2776248D01*
X-29935000Y-3298752D02*
X-29935000Y-2776248D01*
%TO.C,C19*%
X-25265000Y-8298752D02*
X-25265000Y-7776248D01*
X-26735000Y-8298752D02*
X-26735000Y-7776248D01*
%TO.C,C17*%
X-15490000Y-9273752D02*
X-15490000Y-7851248D01*
X-17310000Y-9273752D02*
X-17310000Y-7851248D01*
%TO.C,C11*%
X-11890000Y-9273752D02*
X-11890000Y-7851248D01*
X-13710000Y-9273752D02*
X-13710000Y-7851248D01*
%TO.C,C7*%
X-39660000Y-12851248D02*
X-39660000Y-14273752D01*
X-37840000Y-12851248D02*
X-37840000Y-14273752D01*
%TO.C,C5*%
X-28240000Y-16960000D02*
X-29940000Y-16960000D01*
X-33760000Y-16960000D02*
X-32060000Y-16960000D01*
X-33760000Y-12504437D02*
X-33760000Y-16960000D01*
X-28240000Y-12504437D02*
X-28240000Y-16960000D01*
X-29304437Y-11440000D02*
X-29940000Y-11440000D01*
X-32695563Y-11440000D02*
X-32060000Y-11440000D01*
X-32695563Y-11440000D02*
X-33760000Y-12504437D01*
X-29304437Y-11440000D02*
X-28240000Y-12504437D01*
X-32685000Y-10575000D02*
X-32685000Y-11200000D01*
X-32997500Y-10887500D02*
X-32372500Y-10887500D01*
%TO.C,C2*%
X-25315000Y-18298752D02*
X-25315000Y-17776248D01*
X-26785000Y-18298752D02*
X-26785000Y-17776248D01*
%TO.C,C1*%
X-21885000Y-17776248D02*
X-21885000Y-18298752D01*
X-20415000Y-17776248D02*
X-20415000Y-18298752D01*
%TD*%
%TO.C,C46*%
D10*
X-69457143Y-22857142D02*
X-69409524Y-22904761D01*
X-69266667Y-22952380D01*
X-69171429Y-22952380D01*
X-69028572Y-22904761D01*
X-68933334Y-22809523D01*
X-68885715Y-22714285D01*
X-68838096Y-22523809D01*
X-68838096Y-22380952D01*
X-68885715Y-22190476D01*
X-68933334Y-22095238D01*
X-69028572Y-22000000D01*
X-69171429Y-21952380D01*
X-69266667Y-21952380D01*
X-69409524Y-22000000D01*
X-69457143Y-22047619D01*
X-70314286Y-22285714D02*
X-70314286Y-22952380D01*
X-70076191Y-21904761D02*
X-69838096Y-22619047D01*
X-70457143Y-22619047D01*
X-71266667Y-21952380D02*
X-71076191Y-21952380D01*
X-70980953Y-22000000D01*
X-70933334Y-22047619D01*
X-70838096Y-22190476D01*
X-70790477Y-22380952D01*
X-70790477Y-22761904D01*
X-70838096Y-22857142D01*
X-70885715Y-22904761D01*
X-70980953Y-22952380D01*
X-71171429Y-22952380D01*
X-71266667Y-22904761D01*
X-71314286Y-22857142D01*
X-71361905Y-22761904D01*
X-71361905Y-22523809D01*
X-71314286Y-22428571D01*
X-71266667Y-22380952D01*
X-71171429Y-22333333D01*
X-70980953Y-22333333D01*
X-70885715Y-22380952D01*
X-70838096Y-22428571D01*
X-70790477Y-22523809D01*
%TO.C,D1*%
X-6343620Y-12879904D02*
X-7343620Y-12879904D01*
X-7343620Y-13118000D01*
X-7296000Y-13260857D01*
X-7200762Y-13356095D01*
X-7105524Y-13403714D01*
X-6915048Y-13451333D01*
X-6772191Y-13451333D01*
X-6581715Y-13403714D01*
X-6486477Y-13356095D01*
X-6391239Y-13260857D01*
X-6343620Y-13118000D01*
X-6343620Y-12879904D01*
X-6343620Y-14403714D02*
X-6343620Y-13832285D01*
X-6343620Y-14118000D02*
X-7343620Y-14118000D01*
X-7200762Y-14022761D01*
X-7105524Y-13927523D01*
X-7057905Y-13832285D01*
%TO.C,D4*%
X-17669620Y-12871904D02*
X-18669620Y-12871904D01*
X-18669620Y-13110000D01*
X-18622000Y-13252857D01*
X-18526762Y-13348095D01*
X-18431524Y-13395714D01*
X-18241048Y-13443333D01*
X-18098191Y-13443333D01*
X-17907715Y-13395714D01*
X-17812477Y-13348095D01*
X-17717239Y-13252857D01*
X-17669620Y-13110000D01*
X-17669620Y-12871904D01*
X-18336286Y-14300476D02*
X-17669620Y-14300476D01*
X-18717239Y-14062380D02*
X-18002953Y-13824285D01*
X-18002953Y-14443333D01*
%TO.C,D3*%
X-10135620Y-12839904D02*
X-11135620Y-12839904D01*
X-11135620Y-13078000D01*
X-11088000Y-13220857D01*
X-10992762Y-13316095D01*
X-10897524Y-13363714D01*
X-10707048Y-13411333D01*
X-10564191Y-13411333D01*
X-10373715Y-13363714D01*
X-10278477Y-13316095D01*
X-10183239Y-13220857D01*
X-10135620Y-13078000D01*
X-10135620Y-12839904D01*
X-11135620Y-13744666D02*
X-11135620Y-14363714D01*
X-10754667Y-14030380D01*
X-10754667Y-14173238D01*
X-10707048Y-14268476D01*
X-10659429Y-14316095D01*
X-10564191Y-14363714D01*
X-10326096Y-14363714D01*
X-10230858Y-14316095D01*
X-10183239Y-14268476D01*
X-10135620Y-14173238D01*
X-10135620Y-13887523D01*
X-10183239Y-13792285D01*
X-10230858Y-13744666D01*
%TO.C,D2*%
X-13967620Y-12821904D02*
X-14967620Y-12821904D01*
X-14967620Y-13060000D01*
X-14920000Y-13202857D01*
X-14824762Y-13298095D01*
X-14729524Y-13345714D01*
X-14539048Y-13393333D01*
X-14396191Y-13393333D01*
X-14205715Y-13345714D01*
X-14110477Y-13298095D01*
X-14015239Y-13202857D01*
X-13967620Y-13060000D01*
X-13967620Y-12821904D01*
X-14872381Y-13774285D02*
X-14920000Y-13821904D01*
X-14967620Y-13917142D01*
X-14967620Y-14155238D01*
X-14920000Y-14250476D01*
X-14872381Y-14298095D01*
X-14777143Y-14345714D01*
X-14681905Y-14345714D01*
X-14539048Y-14298095D01*
X-13967620Y-13726666D01*
X-13967620Y-14345714D01*
%TO.C,C47*%
X-56212858Y-2907142D02*
X-56165239Y-2859523D01*
X-56117620Y-2716666D01*
X-56117620Y-2621428D01*
X-56165239Y-2478571D01*
X-56260477Y-2383333D01*
X-56355715Y-2335714D01*
X-56546191Y-2288095D01*
X-56689048Y-2288095D01*
X-56879524Y-2335714D01*
X-56974762Y-2383333D01*
X-57070000Y-2478571D01*
X-57117620Y-2621428D01*
X-57117620Y-2716666D01*
X-57070000Y-2859523D01*
X-57022381Y-2907142D01*
X-56784286Y-3764285D02*
X-56117620Y-3764285D01*
X-57165239Y-3526190D02*
X-56450953Y-3288095D01*
X-56450953Y-3907142D01*
X-57117620Y-4192857D02*
X-57117620Y-4859523D01*
X-56117620Y-4430952D01*
%TO.C,C37*%
X-64272858Y-2937142D02*
X-64225239Y-2889523D01*
X-64177620Y-2746666D01*
X-64177620Y-2651428D01*
X-64225239Y-2508571D01*
X-64320477Y-2413333D01*
X-64415715Y-2365714D01*
X-64606191Y-2318095D01*
X-64749048Y-2318095D01*
X-64939524Y-2365714D01*
X-65034762Y-2413333D01*
X-65130000Y-2508571D01*
X-65177620Y-2651428D01*
X-65177620Y-2746666D01*
X-65130000Y-2889523D01*
X-65082381Y-2937142D01*
X-65177620Y-3270476D02*
X-65177620Y-3889523D01*
X-64796667Y-3556190D01*
X-64796667Y-3699047D01*
X-64749048Y-3794285D01*
X-64701429Y-3841904D01*
X-64606191Y-3889523D01*
X-64368096Y-3889523D01*
X-64272858Y-3841904D01*
X-64225239Y-3794285D01*
X-64177620Y-3699047D01*
X-64177620Y-3413333D01*
X-64225239Y-3318095D01*
X-64272858Y-3270476D01*
X-65177620Y-4222857D02*
X-65177620Y-4889523D01*
X-64177620Y-4460952D01*
%TO.C,C12*%
X-47392858Y-13557142D02*
X-47345239Y-13509523D01*
X-47297620Y-13366666D01*
X-47297620Y-13271428D01*
X-47345239Y-13128571D01*
X-47440477Y-13033333D01*
X-47535715Y-12985714D01*
X-47726191Y-12938095D01*
X-47869048Y-12938095D01*
X-48059524Y-12985714D01*
X-48154762Y-13033333D01*
X-48250000Y-13128571D01*
X-48297620Y-13271428D01*
X-48297620Y-13366666D01*
X-48250000Y-13509523D01*
X-48202381Y-13557142D01*
X-47297620Y-14509523D02*
X-47297620Y-13938095D01*
X-47297620Y-14223809D02*
X-48297620Y-14223809D01*
X-48154762Y-14128571D01*
X-48059524Y-14033333D01*
X-48011905Y-13938095D01*
X-48202381Y-14890476D02*
X-48250000Y-14938095D01*
X-48297620Y-15033333D01*
X-48297620Y-15271428D01*
X-48250000Y-15366666D01*
X-48202381Y-15414285D01*
X-48107143Y-15461904D01*
X-48011905Y-15461904D01*
X-47869048Y-15414285D01*
X-47297620Y-14842857D01*
X-47297620Y-15461904D01*
%TO.C,U2*%
X-5247620Y-938095D02*
X-4438096Y-938095D01*
X-4342858Y-985714D01*
X-4295239Y-1033333D01*
X-4247620Y-1128571D01*
X-4247620Y-1319047D01*
X-4295239Y-1414285D01*
X-4342858Y-1461904D01*
X-4438096Y-1509523D01*
X-5247620Y-1509523D01*
X-5152381Y-1938095D02*
X-5200000Y-1985714D01*
X-5247620Y-2080952D01*
X-5247620Y-2319047D01*
X-5200000Y-2414285D01*
X-5152381Y-2461904D01*
X-5057143Y-2509523D01*
X-4961905Y-2509523D01*
X-4819048Y-2461904D01*
X-4247620Y-1890476D01*
X-4247620Y-2509523D01*
%TO.C,R52*%
X-35147620Y-7357142D02*
X-35623810Y-7023809D01*
X-35147620Y-6785714D02*
X-36147620Y-6785714D01*
X-36147620Y-7166666D01*
X-36100000Y-7261904D01*
X-36052381Y-7309523D01*
X-35957143Y-7357142D01*
X-35814286Y-7357142D01*
X-35719048Y-7309523D01*
X-35671429Y-7261904D01*
X-35623810Y-7166666D01*
X-35623810Y-6785714D01*
X-36147620Y-8261904D02*
X-36147620Y-7785714D01*
X-35671429Y-7738095D01*
X-35719048Y-7785714D01*
X-35766667Y-7880952D01*
X-35766667Y-8119047D01*
X-35719048Y-8214285D01*
X-35671429Y-8261904D01*
X-35576191Y-8309523D01*
X-35338096Y-8309523D01*
X-35242858Y-8261904D01*
X-35195239Y-8214285D01*
X-35147620Y-8119047D01*
X-35147620Y-7880952D01*
X-35195239Y-7785714D01*
X-35242858Y-7738095D01*
X-36052381Y-8690476D02*
X-36100000Y-8738095D01*
X-36147620Y-8833333D01*
X-36147620Y-9071428D01*
X-36100000Y-9166666D01*
X-36052381Y-9214285D01*
X-35957143Y-9261904D01*
X-35861905Y-9261904D01*
X-35719048Y-9214285D01*
X-35147620Y-8642857D01*
X-35147620Y-9261904D01*
%TO.C,R51*%
X-51287620Y-12367142D02*
X-51763810Y-12033809D01*
X-51287620Y-11795714D02*
X-52287620Y-11795714D01*
X-52287620Y-12176666D01*
X-52240000Y-12271904D01*
X-52192381Y-12319523D01*
X-52097143Y-12367142D01*
X-51954286Y-12367142D01*
X-51859048Y-12319523D01*
X-51811429Y-12271904D01*
X-51763810Y-12176666D01*
X-51763810Y-11795714D01*
X-52287620Y-13271904D02*
X-52287620Y-12795714D01*
X-51811429Y-12748095D01*
X-51859048Y-12795714D01*
X-51906667Y-12890952D01*
X-51906667Y-13129047D01*
X-51859048Y-13224285D01*
X-51811429Y-13271904D01*
X-51716191Y-13319523D01*
X-51478096Y-13319523D01*
X-51382858Y-13271904D01*
X-51335239Y-13224285D01*
X-51287620Y-13129047D01*
X-51287620Y-12890952D01*
X-51335239Y-12795714D01*
X-51382858Y-12748095D01*
X-51287620Y-14271904D02*
X-51287620Y-13700476D01*
X-51287620Y-13986190D02*
X-52287620Y-13986190D01*
X-52144762Y-13890952D01*
X-52049524Y-13795714D01*
X-52001905Y-13700476D01*
%TO.C,R49*%
X-55877620Y-7357142D02*
X-56353810Y-7023809D01*
X-55877620Y-6785714D02*
X-56877620Y-6785714D01*
X-56877620Y-7166666D01*
X-56830000Y-7261904D01*
X-56782381Y-7309523D01*
X-56687143Y-7357142D01*
X-56544286Y-7357142D01*
X-56449048Y-7309523D01*
X-56401429Y-7261904D01*
X-56353810Y-7166666D01*
X-56353810Y-6785714D01*
X-56544286Y-8214285D02*
X-55877620Y-8214285D01*
X-56925239Y-7976190D02*
X-56210953Y-7738095D01*
X-56210953Y-8357142D01*
X-55877620Y-8785714D02*
X-55877620Y-8976190D01*
X-55925239Y-9071428D01*
X-55972858Y-9119047D01*
X-56115715Y-9214285D01*
X-56306191Y-9261904D01*
X-56687143Y-9261904D01*
X-56782381Y-9214285D01*
X-56830000Y-9166666D01*
X-56877620Y-9071428D01*
X-56877620Y-8880952D01*
X-56830000Y-8785714D01*
X-56782381Y-8738095D01*
X-56687143Y-8690476D01*
X-56449048Y-8690476D01*
X-56353810Y-8738095D01*
X-56306191Y-8785714D01*
X-56258572Y-8880952D01*
X-56258572Y-9071428D01*
X-56306191Y-9166666D01*
X-56353810Y-9214285D01*
X-56449048Y-9261904D01*
%TO.C,R48*%
X-70357620Y-12327142D02*
X-70833810Y-11993809D01*
X-70357620Y-11755714D02*
X-71357620Y-11755714D01*
X-71357620Y-12136666D01*
X-71310000Y-12231904D01*
X-71262381Y-12279523D01*
X-71167143Y-12327142D01*
X-71024286Y-12327142D01*
X-70929048Y-12279523D01*
X-70881429Y-12231904D01*
X-70833810Y-12136666D01*
X-70833810Y-11755714D01*
X-71024286Y-13184285D02*
X-70357620Y-13184285D01*
X-71405239Y-12946190D02*
X-70690953Y-12708095D01*
X-70690953Y-13327142D01*
X-70929048Y-13850952D02*
X-70976667Y-13755714D01*
X-71024286Y-13708095D01*
X-71119524Y-13660476D01*
X-71167143Y-13660476D01*
X-71262381Y-13708095D01*
X-71310000Y-13755714D01*
X-71357620Y-13850952D01*
X-71357620Y-14041428D01*
X-71310000Y-14136666D01*
X-71262381Y-14184285D01*
X-71167143Y-14231904D01*
X-71119524Y-14231904D01*
X-71024286Y-14184285D01*
X-70976667Y-14136666D01*
X-70929048Y-14041428D01*
X-70929048Y-13850952D01*
X-70881429Y-13755714D01*
X-70833810Y-13708095D01*
X-70738572Y-13660476D01*
X-70548096Y-13660476D01*
X-70452858Y-13708095D01*
X-70405239Y-13755714D01*
X-70357620Y-13850952D01*
X-70357620Y-14041428D01*
X-70405239Y-14136666D01*
X-70452858Y-14184285D01*
X-70548096Y-14231904D01*
X-70738572Y-14231904D01*
X-70833810Y-14184285D01*
X-70881429Y-14136666D01*
X-70929048Y-14041428D01*
%TO.C,R47*%
X-54927620Y-12357142D02*
X-55403810Y-12023809D01*
X-54927620Y-11785714D02*
X-55927620Y-11785714D01*
X-55927620Y-12166666D01*
X-55880000Y-12261904D01*
X-55832381Y-12309523D01*
X-55737143Y-12357142D01*
X-55594286Y-12357142D01*
X-55499048Y-12309523D01*
X-55451429Y-12261904D01*
X-55403810Y-12166666D01*
X-55403810Y-11785714D01*
X-55594286Y-13214285D02*
X-54927620Y-13214285D01*
X-55975239Y-12976190D02*
X-55260953Y-12738095D01*
X-55260953Y-13357142D01*
X-55927620Y-13642857D02*
X-55927620Y-14309523D01*
X-54927620Y-13880952D01*
%TO.C,R46*%
X-73607620Y-12377142D02*
X-74083810Y-12043809D01*
X-73607620Y-11805714D02*
X-74607620Y-11805714D01*
X-74607620Y-12186666D01*
X-74560000Y-12281904D01*
X-74512381Y-12329523D01*
X-74417143Y-12377142D01*
X-74274286Y-12377142D01*
X-74179048Y-12329523D01*
X-74131429Y-12281904D01*
X-74083810Y-12186666D01*
X-74083810Y-11805714D01*
X-74274286Y-13234285D02*
X-73607620Y-13234285D01*
X-74655239Y-12996190D02*
X-73940953Y-12758095D01*
X-73940953Y-13377142D01*
X-74607620Y-14186666D02*
X-74607620Y-13996190D01*
X-74560000Y-13900952D01*
X-74512381Y-13853333D01*
X-74369524Y-13758095D01*
X-74179048Y-13710476D01*
X-73798096Y-13710476D01*
X-73702858Y-13758095D01*
X-73655239Y-13805714D01*
X-73607620Y-13900952D01*
X-73607620Y-14091428D01*
X-73655239Y-14186666D01*
X-73702858Y-14234285D01*
X-73798096Y-14281904D01*
X-74036191Y-14281904D01*
X-74131429Y-14234285D01*
X-74179048Y-14186666D01*
X-74226667Y-14091428D01*
X-74226667Y-13900952D01*
X-74179048Y-13805714D01*
X-74131429Y-13758095D01*
X-74036191Y-13710476D01*
%TO.C,R45*%
X-58409620Y-12367142D02*
X-58885810Y-12033809D01*
X-58409620Y-11795714D02*
X-59409620Y-11795714D01*
X-59409620Y-12176666D01*
X-59362000Y-12271904D01*
X-59314381Y-12319523D01*
X-59219143Y-12367142D01*
X-59076286Y-12367142D01*
X-58981048Y-12319523D01*
X-58933429Y-12271904D01*
X-58885810Y-12176666D01*
X-58885810Y-11795714D01*
X-59076286Y-13224285D02*
X-58409620Y-13224285D01*
X-59457239Y-12986190D02*
X-58742953Y-12748095D01*
X-58742953Y-13367142D01*
X-59409620Y-14224285D02*
X-59409620Y-13748095D01*
X-58933429Y-13700476D01*
X-58981048Y-13748095D01*
X-59028667Y-13843333D01*
X-59028667Y-14081428D01*
X-58981048Y-14176666D01*
X-58933429Y-14224285D01*
X-58838191Y-14271904D01*
X-58600096Y-14271904D01*
X-58504858Y-14224285D01*
X-58457239Y-14176666D01*
X-58409620Y-14081428D01*
X-58409620Y-13843333D01*
X-58457239Y-13748095D01*
X-58504858Y-13700476D01*
%TO.C,R44*%
X-60617620Y-7407142D02*
X-61093810Y-7073809D01*
X-60617620Y-6835714D02*
X-61617620Y-6835714D01*
X-61617620Y-7216666D01*
X-61570000Y-7311904D01*
X-61522381Y-7359523D01*
X-61427143Y-7407142D01*
X-61284286Y-7407142D01*
X-61189048Y-7359523D01*
X-61141429Y-7311904D01*
X-61093810Y-7216666D01*
X-61093810Y-6835714D01*
X-61284286Y-8264285D02*
X-60617620Y-8264285D01*
X-61665239Y-8026190D02*
X-60950953Y-7788095D01*
X-60950953Y-8407142D01*
X-61284286Y-9216666D02*
X-60617620Y-9216666D01*
X-61665239Y-8978571D02*
X-60950953Y-8740476D01*
X-60950953Y-9359523D01*
%TO.C,R42*%
X-63997620Y-7387142D02*
X-64473810Y-7053809D01*
X-63997620Y-6815714D02*
X-64997620Y-6815714D01*
X-64997620Y-7196666D01*
X-64950000Y-7291904D01*
X-64902381Y-7339523D01*
X-64807143Y-7387142D01*
X-64664286Y-7387142D01*
X-64569048Y-7339523D01*
X-64521429Y-7291904D01*
X-64473810Y-7196666D01*
X-64473810Y-6815714D01*
X-64664286Y-8244285D02*
X-63997620Y-8244285D01*
X-65045239Y-8006190D02*
X-64330953Y-7768095D01*
X-64330953Y-8387142D01*
X-64902381Y-8720476D02*
X-64950000Y-8768095D01*
X-64997620Y-8863333D01*
X-64997620Y-9101428D01*
X-64950000Y-9196666D01*
X-64902381Y-9244285D01*
X-64807143Y-9291904D01*
X-64711905Y-9291904D01*
X-64569048Y-9244285D01*
X-63997620Y-8672857D01*
X-63997620Y-9291904D01*
%TO.C,R40*%
X-35177620Y-2357142D02*
X-35653810Y-2023809D01*
X-35177620Y-1785714D02*
X-36177620Y-1785714D01*
X-36177620Y-2166666D01*
X-36130000Y-2261904D01*
X-36082381Y-2309523D01*
X-35987143Y-2357142D01*
X-35844286Y-2357142D01*
X-35749048Y-2309523D01*
X-35701429Y-2261904D01*
X-35653810Y-2166666D01*
X-35653810Y-1785714D01*
X-35844286Y-3214285D02*
X-35177620Y-3214285D01*
X-36225239Y-2976190D02*
X-35510953Y-2738095D01*
X-35510953Y-3357142D01*
X-36177620Y-3928571D02*
X-36177620Y-4023809D01*
X-36130000Y-4119047D01*
X-36082381Y-4166666D01*
X-35987143Y-4214285D01*
X-35796667Y-4261904D01*
X-35558572Y-4261904D01*
X-35368096Y-4214285D01*
X-35272858Y-4166666D01*
X-35225239Y-4119047D01*
X-35177620Y-4023809D01*
X-35177620Y-3928571D01*
X-35225239Y-3833333D01*
X-35272858Y-3785714D01*
X-35368096Y-3738095D01*
X-35558572Y-3690476D01*
X-35796667Y-3690476D01*
X-35987143Y-3738095D01*
X-36082381Y-3785714D01*
X-36130000Y-3833333D01*
X-36177620Y-3928571D01*
%TO.C,R38*%
X-67447620Y-7357142D02*
X-67923810Y-7023809D01*
X-67447620Y-6785714D02*
X-68447620Y-6785714D01*
X-68447620Y-7166666D01*
X-68400000Y-7261904D01*
X-68352381Y-7309523D01*
X-68257143Y-7357142D01*
X-68114286Y-7357142D01*
X-68019048Y-7309523D01*
X-67971429Y-7261904D01*
X-67923810Y-7166666D01*
X-67923810Y-6785714D01*
X-68447620Y-7690476D02*
X-68447620Y-8309523D01*
X-68066667Y-7976190D01*
X-68066667Y-8119047D01*
X-68019048Y-8214285D01*
X-67971429Y-8261904D01*
X-67876191Y-8309523D01*
X-67638096Y-8309523D01*
X-67542858Y-8261904D01*
X-67495239Y-8214285D01*
X-67447620Y-8119047D01*
X-67447620Y-7833333D01*
X-67495239Y-7738095D01*
X-67542858Y-7690476D01*
X-68019048Y-8880952D02*
X-68066667Y-8785714D01*
X-68114286Y-8738095D01*
X-68209524Y-8690476D01*
X-68257143Y-8690476D01*
X-68352381Y-8738095D01*
X-68400000Y-8785714D01*
X-68447620Y-8880952D01*
X-68447620Y-9071428D01*
X-68400000Y-9166666D01*
X-68352381Y-9214285D01*
X-68257143Y-9261904D01*
X-68209524Y-9261904D01*
X-68114286Y-9214285D01*
X-68066667Y-9166666D01*
X-68019048Y-9071428D01*
X-68019048Y-8880952D01*
X-67971429Y-8785714D01*
X-67923810Y-8738095D01*
X-67828572Y-8690476D01*
X-67638096Y-8690476D01*
X-67542858Y-8738095D01*
X-67495239Y-8785714D01*
X-67447620Y-8880952D01*
X-67447620Y-9071428D01*
X-67495239Y-9166666D01*
X-67542858Y-9214285D01*
X-67638096Y-9261904D01*
X-67828572Y-9261904D01*
X-67923810Y-9214285D01*
X-67971429Y-9166666D01*
X-68019048Y-9071428D01*
%TO.C,R32*%
X-44047620Y-2357142D02*
X-44523810Y-2023809D01*
X-44047620Y-1785714D02*
X-45047620Y-1785714D01*
X-45047620Y-2166666D01*
X-45000000Y-2261904D01*
X-44952381Y-2309523D01*
X-44857143Y-2357142D01*
X-44714286Y-2357142D01*
X-44619048Y-2309523D01*
X-44571429Y-2261904D01*
X-44523810Y-2166666D01*
X-44523810Y-1785714D01*
X-45047620Y-2690476D02*
X-45047620Y-3309523D01*
X-44666667Y-2976190D01*
X-44666667Y-3119047D01*
X-44619048Y-3214285D01*
X-44571429Y-3261904D01*
X-44476191Y-3309523D01*
X-44238096Y-3309523D01*
X-44142858Y-3261904D01*
X-44095239Y-3214285D01*
X-44047620Y-3119047D01*
X-44047620Y-2833333D01*
X-44095239Y-2738095D01*
X-44142858Y-2690476D01*
X-44952381Y-3690476D02*
X-45000000Y-3738095D01*
X-45047620Y-3833333D01*
X-45047620Y-4071428D01*
X-45000000Y-4166666D01*
X-44952381Y-4214285D01*
X-44857143Y-4261904D01*
X-44761905Y-4261904D01*
X-44619048Y-4214285D01*
X-44047620Y-3642857D01*
X-44047620Y-4261904D01*
%TO.C,R29*%
X-43997620Y-7437142D02*
X-44473810Y-7103809D01*
X-43997620Y-6865714D02*
X-44997620Y-6865714D01*
X-44997620Y-7246666D01*
X-44950000Y-7341904D01*
X-44902381Y-7389523D01*
X-44807143Y-7437142D01*
X-44664286Y-7437142D01*
X-44569048Y-7389523D01*
X-44521429Y-7341904D01*
X-44473810Y-7246666D01*
X-44473810Y-6865714D01*
X-44902381Y-7818095D02*
X-44950000Y-7865714D01*
X-44997620Y-7960952D01*
X-44997620Y-8199047D01*
X-44950000Y-8294285D01*
X-44902381Y-8341904D01*
X-44807143Y-8389523D01*
X-44711905Y-8389523D01*
X-44569048Y-8341904D01*
X-43997620Y-7770476D01*
X-43997620Y-8389523D01*
X-43997620Y-8865714D02*
X-43997620Y-9056190D01*
X-44045239Y-9151428D01*
X-44092858Y-9199047D01*
X-44235715Y-9294285D01*
X-44426191Y-9341904D01*
X-44807143Y-9341904D01*
X-44902381Y-9294285D01*
X-44950000Y-9246666D01*
X-44997620Y-9151428D01*
X-44997620Y-8960952D01*
X-44950000Y-8865714D01*
X-44902381Y-8818095D01*
X-44807143Y-8770476D01*
X-44569048Y-8770476D01*
X-44473810Y-8818095D01*
X-44426191Y-8865714D01*
X-44378572Y-8960952D01*
X-44378572Y-9151428D01*
X-44426191Y-9246666D01*
X-44473810Y-9294285D01*
X-44569048Y-9341904D01*
%TO.C,R28*%
X-36227620Y-17367142D02*
X-36703810Y-17033809D01*
X-36227620Y-16795714D02*
X-37227620Y-16795714D01*
X-37227620Y-17176666D01*
X-37180000Y-17271904D01*
X-37132381Y-17319523D01*
X-37037143Y-17367142D01*
X-36894286Y-17367142D01*
X-36799048Y-17319523D01*
X-36751429Y-17271904D01*
X-36703810Y-17176666D01*
X-36703810Y-16795714D01*
X-37132381Y-17748095D02*
X-37180000Y-17795714D01*
X-37227620Y-17890952D01*
X-37227620Y-18129047D01*
X-37180000Y-18224285D01*
X-37132381Y-18271904D01*
X-37037143Y-18319523D01*
X-36941905Y-18319523D01*
X-36799048Y-18271904D01*
X-36227620Y-17700476D01*
X-36227620Y-18319523D01*
X-36799048Y-18890952D02*
X-36846667Y-18795714D01*
X-36894286Y-18748095D01*
X-36989524Y-18700476D01*
X-37037143Y-18700476D01*
X-37132381Y-18748095D01*
X-37180000Y-18795714D01*
X-37227620Y-18890952D01*
X-37227620Y-19081428D01*
X-37180000Y-19176666D01*
X-37132381Y-19224285D01*
X-37037143Y-19271904D01*
X-36989524Y-19271904D01*
X-36894286Y-19224285D01*
X-36846667Y-19176666D01*
X-36799048Y-19081428D01*
X-36799048Y-18890952D01*
X-36751429Y-18795714D01*
X-36703810Y-18748095D01*
X-36608572Y-18700476D01*
X-36418096Y-18700476D01*
X-36322858Y-18748095D01*
X-36275239Y-18795714D01*
X-36227620Y-18890952D01*
X-36227620Y-19081428D01*
X-36275239Y-19176666D01*
X-36322858Y-19224285D01*
X-36418096Y-19271904D01*
X-36608572Y-19271904D01*
X-36703810Y-19224285D01*
X-36751429Y-19176666D01*
X-36799048Y-19081428D01*
%TO.C,R26*%
X-23847620Y-7357142D02*
X-24323810Y-7023809D01*
X-23847620Y-6785714D02*
X-24847620Y-6785714D01*
X-24847620Y-7166666D01*
X-24800000Y-7261904D01*
X-24752381Y-7309523D01*
X-24657143Y-7357142D01*
X-24514286Y-7357142D01*
X-24419048Y-7309523D01*
X-24371429Y-7261904D01*
X-24323810Y-7166666D01*
X-24323810Y-6785714D01*
X-24752381Y-7738095D02*
X-24800000Y-7785714D01*
X-24847620Y-7880952D01*
X-24847620Y-8119047D01*
X-24800000Y-8214285D01*
X-24752381Y-8261904D01*
X-24657143Y-8309523D01*
X-24561905Y-8309523D01*
X-24419048Y-8261904D01*
X-23847620Y-7690476D01*
X-23847620Y-8309523D01*
X-24847620Y-9166666D02*
X-24847620Y-8976190D01*
X-24800000Y-8880952D01*
X-24752381Y-8833333D01*
X-24609524Y-8738095D01*
X-24419048Y-8690476D01*
X-24038096Y-8690476D01*
X-23942858Y-8738095D01*
X-23895239Y-8785714D01*
X-23847620Y-8880952D01*
X-23847620Y-9071428D01*
X-23895239Y-9166666D01*
X-23942858Y-9214285D01*
X-24038096Y-9261904D01*
X-24276191Y-9261904D01*
X-24371429Y-9214285D01*
X-24419048Y-9166666D01*
X-24466667Y-9071428D01*
X-24466667Y-8880952D01*
X-24419048Y-8785714D01*
X-24371429Y-8738095D01*
X-24276191Y-8690476D01*
%TO.C,R24*%
X-20547620Y-2357142D02*
X-21023810Y-2023809D01*
X-20547620Y-1785714D02*
X-21547620Y-1785714D01*
X-21547620Y-2166666D01*
X-21500000Y-2261904D01*
X-21452381Y-2309523D01*
X-21357143Y-2357142D01*
X-21214286Y-2357142D01*
X-21119048Y-2309523D01*
X-21071429Y-2261904D01*
X-21023810Y-2166666D01*
X-21023810Y-1785714D01*
X-21452381Y-2738095D02*
X-21500000Y-2785714D01*
X-21547620Y-2880952D01*
X-21547620Y-3119047D01*
X-21500000Y-3214285D01*
X-21452381Y-3261904D01*
X-21357143Y-3309523D01*
X-21261905Y-3309523D01*
X-21119048Y-3261904D01*
X-20547620Y-2690476D01*
X-20547620Y-3309523D01*
X-21214286Y-4166666D02*
X-20547620Y-4166666D01*
X-21595239Y-3928571D02*
X-20880953Y-3690476D01*
X-20880953Y-4309523D01*
%TO.C,R20*%
X-23847620Y-12357142D02*
X-24323810Y-12023809D01*
X-23847620Y-11785714D02*
X-24847620Y-11785714D01*
X-24847620Y-12166666D01*
X-24800000Y-12261904D01*
X-24752381Y-12309523D01*
X-24657143Y-12357142D01*
X-24514286Y-12357142D01*
X-24419048Y-12309523D01*
X-24371429Y-12261904D01*
X-24323810Y-12166666D01*
X-24323810Y-11785714D01*
X-24752381Y-12738095D02*
X-24800000Y-12785714D01*
X-24847620Y-12880952D01*
X-24847620Y-13119047D01*
X-24800000Y-13214285D01*
X-24752381Y-13261904D01*
X-24657143Y-13309523D01*
X-24561905Y-13309523D01*
X-24419048Y-13261904D01*
X-23847620Y-12690476D01*
X-23847620Y-13309523D01*
X-24847620Y-13928571D02*
X-24847620Y-14023809D01*
X-24800000Y-14119047D01*
X-24752381Y-14166666D01*
X-24657143Y-14214285D01*
X-24466667Y-14261904D01*
X-24228572Y-14261904D01*
X-24038096Y-14214285D01*
X-23942858Y-14166666D01*
X-23895239Y-14119047D01*
X-23847620Y-14023809D01*
X-23847620Y-13928571D01*
X-23895239Y-13833333D01*
X-23942858Y-13785714D01*
X-24038096Y-13738095D01*
X-24228572Y-13690476D01*
X-24466667Y-13690476D01*
X-24657143Y-13738095D01*
X-24752381Y-13785714D01*
X-24800000Y-13833333D01*
X-24847620Y-13928571D01*
%TO.C,R19*%
X-26947620Y-2357142D02*
X-27423810Y-2023809D01*
X-26947620Y-1785714D02*
X-27947620Y-1785714D01*
X-27947620Y-2166666D01*
X-27900000Y-2261904D01*
X-27852381Y-2309523D01*
X-27757143Y-2357142D01*
X-27614286Y-2357142D01*
X-27519048Y-2309523D01*
X-27471429Y-2261904D01*
X-27423810Y-2166666D01*
X-27423810Y-1785714D01*
X-26947620Y-3309523D02*
X-26947620Y-2738095D01*
X-26947620Y-3023809D02*
X-27947620Y-3023809D01*
X-27804762Y-2928571D01*
X-27709524Y-2833333D01*
X-27661905Y-2738095D01*
X-26947620Y-3785714D02*
X-26947620Y-3976190D01*
X-26995239Y-4071428D01*
X-27042858Y-4119047D01*
X-27185715Y-4214285D01*
X-27376191Y-4261904D01*
X-27757143Y-4261904D01*
X-27852381Y-4214285D01*
X-27900000Y-4166666D01*
X-27947620Y-4071428D01*
X-27947620Y-3880952D01*
X-27900000Y-3785714D01*
X-27852381Y-3738095D01*
X-27757143Y-3690476D01*
X-27519048Y-3690476D01*
X-27423810Y-3738095D01*
X-27376191Y-3785714D01*
X-27328572Y-3880952D01*
X-27328572Y-4071428D01*
X-27376191Y-4166666D01*
X-27423810Y-4214285D01*
X-27519048Y-4261904D01*
%TO.C,R16*%
X-17317620Y-2357142D02*
X-17793810Y-2023809D01*
X-17317620Y-1785714D02*
X-18317620Y-1785714D01*
X-18317620Y-2166666D01*
X-18270000Y-2261904D01*
X-18222381Y-2309523D01*
X-18127143Y-2357142D01*
X-17984286Y-2357142D01*
X-17889048Y-2309523D01*
X-17841429Y-2261904D01*
X-17793810Y-2166666D01*
X-17793810Y-1785714D01*
X-17317620Y-3309523D02*
X-17317620Y-2738095D01*
X-17317620Y-3023809D02*
X-18317620Y-3023809D01*
X-18174762Y-2928571D01*
X-18079524Y-2833333D01*
X-18031905Y-2738095D01*
X-18317620Y-4166666D02*
X-18317620Y-3976190D01*
X-18270000Y-3880952D01*
X-18222381Y-3833333D01*
X-18079524Y-3738095D01*
X-17889048Y-3690476D01*
X-17508096Y-3690476D01*
X-17412858Y-3738095D01*
X-17365239Y-3785714D01*
X-17317620Y-3880952D01*
X-17317620Y-4071428D01*
X-17365239Y-4166666D01*
X-17412858Y-4214285D01*
X-17508096Y-4261904D01*
X-17746191Y-4261904D01*
X-17841429Y-4214285D01*
X-17889048Y-4166666D01*
X-17936667Y-4071428D01*
X-17936667Y-3880952D01*
X-17889048Y-3785714D01*
X-17841429Y-3738095D01*
X-17746191Y-3690476D01*
%TO.C,R15*%
X-30147620Y-7457142D02*
X-30623810Y-7123809D01*
X-30147620Y-6885714D02*
X-31147620Y-6885714D01*
X-31147620Y-7266666D01*
X-31100000Y-7361904D01*
X-31052381Y-7409523D01*
X-30957143Y-7457142D01*
X-30814286Y-7457142D01*
X-30719048Y-7409523D01*
X-30671429Y-7361904D01*
X-30623810Y-7266666D01*
X-30623810Y-6885714D01*
X-30147620Y-8409523D02*
X-30147620Y-7838095D01*
X-30147620Y-8123809D02*
X-31147620Y-8123809D01*
X-31004762Y-8028571D01*
X-30909524Y-7933333D01*
X-30861905Y-7838095D01*
X-31147620Y-9314285D02*
X-31147620Y-8838095D01*
X-30671429Y-8790476D01*
X-30719048Y-8838095D01*
X-30766667Y-8933333D01*
X-30766667Y-9171428D01*
X-30719048Y-9266666D01*
X-30671429Y-9314285D01*
X-30576191Y-9361904D01*
X-30338096Y-9361904D01*
X-30242858Y-9314285D01*
X-30195239Y-9266666D01*
X-30147620Y-9171428D01*
X-30147620Y-8933333D01*
X-30195239Y-8838095D01*
X-30242858Y-8790476D01*
%TO.C,R14*%
X-10347620Y-2357142D02*
X-10823810Y-2023809D01*
X-10347620Y-1785714D02*
X-11347620Y-1785714D01*
X-11347620Y-2166666D01*
X-11300000Y-2261904D01*
X-11252381Y-2309523D01*
X-11157143Y-2357142D01*
X-11014286Y-2357142D01*
X-10919048Y-2309523D01*
X-10871429Y-2261904D01*
X-10823810Y-2166666D01*
X-10823810Y-1785714D01*
X-10347620Y-3309523D02*
X-10347620Y-2738095D01*
X-10347620Y-3023809D02*
X-11347620Y-3023809D01*
X-11204762Y-2928571D01*
X-11109524Y-2833333D01*
X-11061905Y-2738095D01*
X-11014286Y-4166666D02*
X-10347620Y-4166666D01*
X-11395239Y-3928571D02*
X-10680953Y-3690476D01*
X-10680953Y-4309523D01*
%TO.C,R10*%
X-10347620Y-7357142D02*
X-10823810Y-7023809D01*
X-10347620Y-6785714D02*
X-11347620Y-6785714D01*
X-11347620Y-7166666D01*
X-11300000Y-7261904D01*
X-11252381Y-7309523D01*
X-11157143Y-7357142D01*
X-11014286Y-7357142D01*
X-10919048Y-7309523D01*
X-10871429Y-7261904D01*
X-10823810Y-7166666D01*
X-10823810Y-6785714D01*
X-10347620Y-8309523D02*
X-10347620Y-7738095D01*
X-10347620Y-8023809D02*
X-11347620Y-8023809D01*
X-11204762Y-7928571D01*
X-11109524Y-7833333D01*
X-11061905Y-7738095D01*
X-11347620Y-8928571D02*
X-11347620Y-9023809D01*
X-11300000Y-9119047D01*
X-11252381Y-9166666D01*
X-11157143Y-9214285D01*
X-10966667Y-9261904D01*
X-10728572Y-9261904D01*
X-10538096Y-9214285D01*
X-10442858Y-9166666D01*
X-10395239Y-9119047D01*
X-10347620Y-9023809D01*
X-10347620Y-8928571D01*
X-10395239Y-8833333D01*
X-10442858Y-8785714D01*
X-10538096Y-8738095D01*
X-10728572Y-8690476D01*
X-10966667Y-8690476D01*
X-11157143Y-8738095D01*
X-11252381Y-8785714D01*
X-11300000Y-8833333D01*
X-11347620Y-8928571D01*
%TO.C,R8*%
X-36247620Y-12833333D02*
X-36723810Y-12500000D01*
X-36247620Y-12261904D02*
X-37247620Y-12261904D01*
X-37247620Y-12642857D01*
X-37200000Y-12738095D01*
X-37152381Y-12785714D01*
X-37057143Y-12833333D01*
X-36914286Y-12833333D01*
X-36819048Y-12785714D01*
X-36771429Y-12738095D01*
X-36723810Y-12642857D01*
X-36723810Y-12261904D01*
X-36819048Y-13404761D02*
X-36866667Y-13309523D01*
X-36914286Y-13261904D01*
X-37009524Y-13214285D01*
X-37057143Y-13214285D01*
X-37152381Y-13261904D01*
X-37200000Y-13309523D01*
X-37247620Y-13404761D01*
X-37247620Y-13595238D01*
X-37200000Y-13690476D01*
X-37152381Y-13738095D01*
X-37057143Y-13785714D01*
X-37009524Y-13785714D01*
X-36914286Y-13738095D01*
X-36866667Y-13690476D01*
X-36819048Y-13595238D01*
X-36819048Y-13404761D01*
X-36771429Y-13309523D01*
X-36723810Y-13261904D01*
X-36628572Y-13214285D01*
X-36438096Y-13214285D01*
X-36342858Y-13261904D01*
X-36295239Y-13309523D01*
X-36247620Y-13404761D01*
X-36247620Y-13595238D01*
X-36295239Y-13690476D01*
X-36342858Y-13738095D01*
X-36438096Y-13785714D01*
X-36628572Y-13785714D01*
X-36723810Y-13738095D01*
X-36771429Y-13690476D01*
X-36819048Y-13595238D01*
%TO.C,Q4*%
X-17684381Y-18390761D02*
X-17732000Y-18295523D01*
X-17827239Y-18200285D01*
X-17970096Y-18057428D01*
X-18017715Y-17962190D01*
X-18017715Y-17866952D01*
X-17779620Y-17914571D02*
X-17827239Y-17819333D01*
X-17922477Y-17724095D01*
X-18112953Y-17676476D01*
X-18446286Y-17676476D01*
X-18636762Y-17724095D01*
X-18732000Y-17819333D01*
X-18779620Y-17914571D01*
X-18779620Y-18105047D01*
X-18732000Y-18200285D01*
X-18636762Y-18295523D01*
X-18446286Y-18343142D01*
X-18112953Y-18343142D01*
X-17922477Y-18295523D01*
X-17827239Y-18200285D01*
X-17779620Y-18105047D01*
X-17779620Y-17914571D01*
X-18446286Y-19200285D02*
X-17779620Y-19200285D01*
X-18827239Y-18962190D02*
X-18112953Y-18724095D01*
X-18112953Y-19343142D01*
%TO.C,Q3*%
X-10080381Y-18330761D02*
X-10128000Y-18235523D01*
X-10223239Y-18140285D01*
X-10366096Y-17997428D01*
X-10413715Y-17902190D01*
X-10413715Y-17806952D01*
X-10175620Y-17854571D02*
X-10223239Y-17759333D01*
X-10318477Y-17664095D01*
X-10508953Y-17616476D01*
X-10842286Y-17616476D01*
X-11032762Y-17664095D01*
X-11128000Y-17759333D01*
X-11175620Y-17854571D01*
X-11175620Y-18045047D01*
X-11128000Y-18140285D01*
X-11032762Y-18235523D01*
X-10842286Y-18283142D01*
X-10508953Y-18283142D01*
X-10318477Y-18235523D01*
X-10223239Y-18140285D01*
X-10175620Y-18045047D01*
X-10175620Y-17854571D01*
X-11175620Y-18616476D02*
X-11175620Y-19235523D01*
X-10794667Y-18902190D01*
X-10794667Y-19045047D01*
X-10747048Y-19140285D01*
X-10699429Y-19187904D01*
X-10604191Y-19235523D01*
X-10366096Y-19235523D01*
X-10270858Y-19187904D01*
X-10223239Y-19140285D01*
X-10175620Y-19045047D01*
X-10175620Y-18759333D01*
X-10223239Y-18664095D01*
X-10270858Y-18616476D01*
%TO.C,Q2*%
X-13872381Y-18370761D02*
X-13920000Y-18275523D01*
X-14015239Y-18180285D01*
X-14158096Y-18037428D01*
X-14205715Y-17942190D01*
X-14205715Y-17846952D01*
X-13967620Y-17894571D02*
X-14015239Y-17799333D01*
X-14110477Y-17704095D01*
X-14300953Y-17656476D01*
X-14634286Y-17656476D01*
X-14824762Y-17704095D01*
X-14920000Y-17799333D01*
X-14967620Y-17894571D01*
X-14967620Y-18085047D01*
X-14920000Y-18180285D01*
X-14824762Y-18275523D01*
X-14634286Y-18323142D01*
X-14300953Y-18323142D01*
X-14110477Y-18275523D01*
X-14015239Y-18180285D01*
X-13967620Y-18085047D01*
X-13967620Y-17894571D01*
X-14872381Y-18704095D02*
X-14920000Y-18751714D01*
X-14967620Y-18846952D01*
X-14967620Y-19085047D01*
X-14920000Y-19180285D01*
X-14872381Y-19227904D01*
X-14777143Y-19275523D01*
X-14681905Y-19275523D01*
X-14539048Y-19227904D01*
X-13967620Y-18656476D01*
X-13967620Y-19275523D01*
%TO.C,Q1*%
X-6308381Y-18450761D02*
X-6356000Y-18355523D01*
X-6451239Y-18260285D01*
X-6594096Y-18117428D01*
X-6641715Y-18022190D01*
X-6641715Y-17926952D01*
X-6403620Y-17974571D02*
X-6451239Y-17879333D01*
X-6546477Y-17784095D01*
X-6736953Y-17736476D01*
X-7070286Y-17736476D01*
X-7260762Y-17784095D01*
X-7356000Y-17879333D01*
X-7403620Y-17974571D01*
X-7403620Y-18165047D01*
X-7356000Y-18260285D01*
X-7260762Y-18355523D01*
X-7070286Y-18403142D01*
X-6736953Y-18403142D01*
X-6546477Y-18355523D01*
X-6451239Y-18260285D01*
X-6403620Y-18165047D01*
X-6403620Y-17974571D01*
X-6403620Y-19355523D02*
X-6403620Y-18784095D01*
X-6403620Y-19069809D02*
X-7403620Y-19069809D01*
X-7260762Y-18974571D01*
X-7165524Y-18879333D01*
X-7117905Y-18784095D01*
%TO.C,C49*%
X-52432858Y-3377142D02*
X-52385239Y-3329523D01*
X-52337620Y-3186666D01*
X-52337620Y-3091428D01*
X-52385239Y-2948571D01*
X-52480477Y-2853333D01*
X-52575715Y-2805714D01*
X-52766191Y-2758095D01*
X-52909048Y-2758095D01*
X-53099524Y-2805714D01*
X-53194762Y-2853333D01*
X-53290000Y-2948571D01*
X-53337620Y-3091428D01*
X-53337620Y-3186666D01*
X-53290000Y-3329523D01*
X-53242381Y-3377142D01*
X-53004286Y-4234285D02*
X-52337620Y-4234285D01*
X-53385239Y-3996190D02*
X-52670953Y-3758095D01*
X-52670953Y-4377142D01*
X-52337620Y-4805714D02*
X-52337620Y-4996190D01*
X-52385239Y-5091428D01*
X-52432858Y-5139047D01*
X-52575715Y-5234285D01*
X-52766191Y-5281904D01*
X-53147143Y-5281904D01*
X-53242381Y-5234285D01*
X-53290000Y-5186666D01*
X-53337620Y-5091428D01*
X-53337620Y-4900952D01*
X-53290000Y-4805714D01*
X-53242381Y-4758095D01*
X-53147143Y-4710476D01*
X-52909048Y-4710476D01*
X-52813810Y-4758095D01*
X-52766191Y-4805714D01*
X-52718572Y-4900952D01*
X-52718572Y-5091428D01*
X-52766191Y-5186666D01*
X-52813810Y-5234285D01*
X-52909048Y-5281904D01*
%TO.C,C48*%
X-65722858Y-13257142D02*
X-65675239Y-13209523D01*
X-65627620Y-13066666D01*
X-65627620Y-12971428D01*
X-65675239Y-12828571D01*
X-65770477Y-12733333D01*
X-65865715Y-12685714D01*
X-66056191Y-12638095D01*
X-66199048Y-12638095D01*
X-66389524Y-12685714D01*
X-66484762Y-12733333D01*
X-66580000Y-12828571D01*
X-66627620Y-12971428D01*
X-66627620Y-13066666D01*
X-66580000Y-13209523D01*
X-66532381Y-13257142D01*
X-66294286Y-14114285D02*
X-65627620Y-14114285D01*
X-66675239Y-13876190D02*
X-65960953Y-13638095D01*
X-65960953Y-14257142D01*
X-66199048Y-14780952D02*
X-66246667Y-14685714D01*
X-66294286Y-14638095D01*
X-66389524Y-14590476D01*
X-66437143Y-14590476D01*
X-66532381Y-14638095D01*
X-66580000Y-14685714D01*
X-66627620Y-14780952D01*
X-66627620Y-14971428D01*
X-66580000Y-15066666D01*
X-66532381Y-15114285D01*
X-66437143Y-15161904D01*
X-66389524Y-15161904D01*
X-66294286Y-15114285D01*
X-66246667Y-15066666D01*
X-66199048Y-14971428D01*
X-66199048Y-14780952D01*
X-66151429Y-14685714D01*
X-66103810Y-14638095D01*
X-66008572Y-14590476D01*
X-65818096Y-14590476D01*
X-65722858Y-14638095D01*
X-65675239Y-14685714D01*
X-65627620Y-14780952D01*
X-65627620Y-14971428D01*
X-65675239Y-15066666D01*
X-65722858Y-15114285D01*
X-65818096Y-15161904D01*
X-66008572Y-15161904D01*
X-66103810Y-15114285D01*
X-66151429Y-15066666D01*
X-66199048Y-14971428D01*
%TO.C,C45*%
X-52957143Y-22857142D02*
X-52909524Y-22904761D01*
X-52766667Y-22952380D01*
X-52671429Y-22952380D01*
X-52528572Y-22904761D01*
X-52433334Y-22809523D01*
X-52385715Y-22714285D01*
X-52338096Y-22523809D01*
X-52338096Y-22380952D01*
X-52385715Y-22190476D01*
X-52433334Y-22095238D01*
X-52528572Y-22000000D01*
X-52671429Y-21952380D01*
X-52766667Y-21952380D01*
X-52909524Y-22000000D01*
X-52957143Y-22047619D01*
X-53814286Y-22285714D02*
X-53814286Y-22952380D01*
X-53576191Y-21904761D02*
X-53338096Y-22619047D01*
X-53957143Y-22619047D01*
X-54814286Y-21952380D02*
X-54338096Y-21952380D01*
X-54290477Y-22428571D01*
X-54338096Y-22380952D01*
X-54433334Y-22333333D01*
X-54671429Y-22333333D01*
X-54766667Y-22380952D01*
X-54814286Y-22428571D01*
X-54861905Y-22523809D01*
X-54861905Y-22761904D01*
X-54814286Y-22857142D01*
X-54766667Y-22904761D01*
X-54671429Y-22952380D01*
X-54433334Y-22952380D01*
X-54338096Y-22904761D01*
X-54290477Y-22857142D01*
%TO.C,C44*%
X-60142858Y-13287142D02*
X-60095239Y-13239523D01*
X-60047620Y-13096666D01*
X-60047620Y-13001428D01*
X-60095239Y-12858571D01*
X-60190477Y-12763333D01*
X-60285715Y-12715714D01*
X-60476191Y-12668095D01*
X-60619048Y-12668095D01*
X-60809524Y-12715714D01*
X-60904762Y-12763333D01*
X-61000000Y-12858571D01*
X-61047620Y-13001428D01*
X-61047620Y-13096666D01*
X-61000000Y-13239523D01*
X-60952381Y-13287142D01*
X-60714286Y-14144285D02*
X-60047620Y-14144285D01*
X-61095239Y-13906190D02*
X-60380953Y-13668095D01*
X-60380953Y-14287142D01*
X-60714286Y-15096666D02*
X-60047620Y-15096666D01*
X-61095239Y-14858571D02*
X-60380953Y-14620476D01*
X-60380953Y-15239523D01*
%TO.C,C43*%
X-73882858Y-18502142D02*
X-73835239Y-18454523D01*
X-73787620Y-18311666D01*
X-73787620Y-18216428D01*
X-73835239Y-18073571D01*
X-73930477Y-17978333D01*
X-74025715Y-17930714D01*
X-74216191Y-17883095D01*
X-74359048Y-17883095D01*
X-74549524Y-17930714D01*
X-74644762Y-17978333D01*
X-74740000Y-18073571D01*
X-74787620Y-18216428D01*
X-74787620Y-18311666D01*
X-74740000Y-18454523D01*
X-74692381Y-18502142D01*
X-74454286Y-19359285D02*
X-73787620Y-19359285D01*
X-74835239Y-19121190D02*
X-74120953Y-18883095D01*
X-74120953Y-19502142D01*
X-74787620Y-19787857D02*
X-74787620Y-20406904D01*
X-74406667Y-20073571D01*
X-74406667Y-20216428D01*
X-74359048Y-20311666D01*
X-74311429Y-20359285D01*
X-74216191Y-20406904D01*
X-73978096Y-20406904D01*
X-73882858Y-20359285D01*
X-73835239Y-20311666D01*
X-73787620Y-20216428D01*
X-73787620Y-19930714D01*
X-73835239Y-19835476D01*
X-73882858Y-19787857D01*
%TO.C,C42*%
X-56257143Y-22857142D02*
X-56209524Y-22904761D01*
X-56066667Y-22952380D01*
X-55971429Y-22952380D01*
X-55828572Y-22904761D01*
X-55733334Y-22809523D01*
X-55685715Y-22714285D01*
X-55638096Y-22523809D01*
X-55638096Y-22380952D01*
X-55685715Y-22190476D01*
X-55733334Y-22095238D01*
X-55828572Y-22000000D01*
X-55971429Y-21952380D01*
X-56066667Y-21952380D01*
X-56209524Y-22000000D01*
X-56257143Y-22047619D01*
X-57114286Y-22285714D02*
X-57114286Y-22952380D01*
X-56876191Y-21904761D02*
X-56638096Y-22619047D01*
X-57257143Y-22619047D01*
X-57590477Y-22047619D02*
X-57638096Y-22000000D01*
X-57733334Y-21952380D01*
X-57971429Y-21952380D01*
X-58066667Y-22000000D01*
X-58114286Y-22047619D01*
X-58161905Y-22142857D01*
X-58161905Y-22238095D01*
X-58114286Y-22380952D01*
X-57542858Y-22952380D01*
X-58161905Y-22952380D01*
%TO.C,C41*%
X-46542858Y-19357142D02*
X-46495239Y-19309523D01*
X-46447620Y-19166666D01*
X-46447620Y-19071428D01*
X-46495239Y-18928571D01*
X-46590477Y-18833333D01*
X-46685715Y-18785714D01*
X-46876191Y-18738095D01*
X-47019048Y-18738095D01*
X-47209524Y-18785714D01*
X-47304762Y-18833333D01*
X-47400000Y-18928571D01*
X-47447620Y-19071428D01*
X-47447620Y-19166666D01*
X-47400000Y-19309523D01*
X-47352381Y-19357142D01*
X-47114286Y-20214285D02*
X-46447620Y-20214285D01*
X-47495239Y-19976190D02*
X-46780953Y-19738095D01*
X-46780953Y-20357142D01*
X-46447620Y-21261904D02*
X-46447620Y-20690476D01*
X-46447620Y-20976190D02*
X-47447620Y-20976190D01*
X-47304762Y-20880952D01*
X-47209524Y-20785714D01*
X-47161905Y-20690476D01*
%TO.C,C39*%
X-60682858Y-2377142D02*
X-60635239Y-2329523D01*
X-60587620Y-2186666D01*
X-60587620Y-2091428D01*
X-60635239Y-1948571D01*
X-60730477Y-1853333D01*
X-60825715Y-1805714D01*
X-61016191Y-1758095D01*
X-61159048Y-1758095D01*
X-61349524Y-1805714D01*
X-61444762Y-1853333D01*
X-61540000Y-1948571D01*
X-61587620Y-2091428D01*
X-61587620Y-2186666D01*
X-61540000Y-2329523D01*
X-61492381Y-2377142D01*
X-61587620Y-2710476D02*
X-61587620Y-3329523D01*
X-61206667Y-2996190D01*
X-61206667Y-3139047D01*
X-61159048Y-3234285D01*
X-61111429Y-3281904D01*
X-61016191Y-3329523D01*
X-60778096Y-3329523D01*
X-60682858Y-3281904D01*
X-60635239Y-3234285D01*
X-60587620Y-3139047D01*
X-60587620Y-2853333D01*
X-60635239Y-2758095D01*
X-60682858Y-2710476D01*
X-60587620Y-3805714D02*
X-60587620Y-3996190D01*
X-60635239Y-4091428D01*
X-60682858Y-4139047D01*
X-60825715Y-4234285D01*
X-61016191Y-4281904D01*
X-61397143Y-4281904D01*
X-61492381Y-4234285D01*
X-61540000Y-4186666D01*
X-61587620Y-4091428D01*
X-61587620Y-3900952D01*
X-61540000Y-3805714D01*
X-61492381Y-3758095D01*
X-61397143Y-3710476D01*
X-61159048Y-3710476D01*
X-61063810Y-3758095D01*
X-61016191Y-3805714D01*
X-60968572Y-3900952D01*
X-60968572Y-4091428D01*
X-61016191Y-4186666D01*
X-61063810Y-4234285D01*
X-61159048Y-4281904D01*
%TO.C,C35*%
X-72142858Y-2857142D02*
X-72095239Y-2809523D01*
X-72047620Y-2666666D01*
X-72047620Y-2571428D01*
X-72095239Y-2428571D01*
X-72190477Y-2333333D01*
X-72285715Y-2285714D01*
X-72476191Y-2238095D01*
X-72619048Y-2238095D01*
X-72809524Y-2285714D01*
X-72904762Y-2333333D01*
X-73000000Y-2428571D01*
X-73047620Y-2571428D01*
X-73047620Y-2666666D01*
X-73000000Y-2809523D01*
X-72952381Y-2857142D01*
X-73047620Y-3190476D02*
X-73047620Y-3809523D01*
X-72666667Y-3476190D01*
X-72666667Y-3619047D01*
X-72619048Y-3714285D01*
X-72571429Y-3761904D01*
X-72476191Y-3809523D01*
X-72238096Y-3809523D01*
X-72142858Y-3761904D01*
X-72095239Y-3714285D01*
X-72047620Y-3619047D01*
X-72047620Y-3333333D01*
X-72095239Y-3238095D01*
X-72142858Y-3190476D01*
X-73047620Y-4714285D02*
X-73047620Y-4238095D01*
X-72571429Y-4190476D01*
X-72619048Y-4238095D01*
X-72666667Y-4333333D01*
X-72666667Y-4571428D01*
X-72619048Y-4666666D01*
X-72571429Y-4714285D01*
X-72476191Y-4761904D01*
X-72238096Y-4761904D01*
X-72142858Y-4714285D01*
X-72095239Y-4666666D01*
X-72047620Y-4571428D01*
X-72047620Y-4333333D01*
X-72095239Y-4238095D01*
X-72142858Y-4190476D01*
%TO.C,C31*%
X-47302858Y-2377142D02*
X-47255239Y-2329523D01*
X-47207620Y-2186666D01*
X-47207620Y-2091428D01*
X-47255239Y-1948571D01*
X-47350477Y-1853333D01*
X-47445715Y-1805714D01*
X-47636191Y-1758095D01*
X-47779048Y-1758095D01*
X-47969524Y-1805714D01*
X-48064762Y-1853333D01*
X-48160000Y-1948571D01*
X-48207620Y-2091428D01*
X-48207620Y-2186666D01*
X-48160000Y-2329523D01*
X-48112381Y-2377142D01*
X-48207620Y-2710476D02*
X-48207620Y-3329523D01*
X-47826667Y-2996190D01*
X-47826667Y-3139047D01*
X-47779048Y-3234285D01*
X-47731429Y-3281904D01*
X-47636191Y-3329523D01*
X-47398096Y-3329523D01*
X-47302858Y-3281904D01*
X-47255239Y-3234285D01*
X-47207620Y-3139047D01*
X-47207620Y-2853333D01*
X-47255239Y-2758095D01*
X-47302858Y-2710476D01*
X-47207620Y-4281904D02*
X-47207620Y-3710476D01*
X-47207620Y-3996190D02*
X-48207620Y-3996190D01*
X-48064762Y-3900952D01*
X-47969524Y-3805714D01*
X-47921905Y-3710476D01*
%TO.C,C28*%
X-47312858Y-8087142D02*
X-47265239Y-8039523D01*
X-47217620Y-7896666D01*
X-47217620Y-7801428D01*
X-47265239Y-7658571D01*
X-47360477Y-7563333D01*
X-47455715Y-7515714D01*
X-47646191Y-7468095D01*
X-47789048Y-7468095D01*
X-47979524Y-7515714D01*
X-48074762Y-7563333D01*
X-48170000Y-7658571D01*
X-48217620Y-7801428D01*
X-48217620Y-7896666D01*
X-48170000Y-8039523D01*
X-48122381Y-8087142D01*
X-48122381Y-8468095D02*
X-48170000Y-8515714D01*
X-48217620Y-8610952D01*
X-48217620Y-8849047D01*
X-48170000Y-8944285D01*
X-48122381Y-8991904D01*
X-48027143Y-9039523D01*
X-47931905Y-9039523D01*
X-47789048Y-8991904D01*
X-47217620Y-8420476D01*
X-47217620Y-9039523D01*
X-47789048Y-9610952D02*
X-47836667Y-9515714D01*
X-47884286Y-9468095D01*
X-47979524Y-9420476D01*
X-48027143Y-9420476D01*
X-48122381Y-9468095D01*
X-48170000Y-9515714D01*
X-48217620Y-9610952D01*
X-48217620Y-9801428D01*
X-48170000Y-9896666D01*
X-48122381Y-9944285D01*
X-48027143Y-9991904D01*
X-47979524Y-9991904D01*
X-47884286Y-9944285D01*
X-47836667Y-9896666D01*
X-47789048Y-9801428D01*
X-47789048Y-9610952D01*
X-47741429Y-9515714D01*
X-47693810Y-9468095D01*
X-47598572Y-9420476D01*
X-47408096Y-9420476D01*
X-47312858Y-9468095D01*
X-47265239Y-9515714D01*
X-47217620Y-9610952D01*
X-47217620Y-9801428D01*
X-47265239Y-9896666D01*
X-47312858Y-9944285D01*
X-47408096Y-9991904D01*
X-47598572Y-9991904D01*
X-47693810Y-9944285D01*
X-47741429Y-9896666D01*
X-47789048Y-9801428D01*
%TO.C,C27*%
X-23942858Y-2357142D02*
X-23895239Y-2309523D01*
X-23847620Y-2166666D01*
X-23847620Y-2071428D01*
X-23895239Y-1928571D01*
X-23990477Y-1833333D01*
X-24085715Y-1785714D01*
X-24276191Y-1738095D01*
X-24419048Y-1738095D01*
X-24609524Y-1785714D01*
X-24704762Y-1833333D01*
X-24800000Y-1928571D01*
X-24847620Y-2071428D01*
X-24847620Y-2166666D01*
X-24800000Y-2309523D01*
X-24752381Y-2357142D01*
X-24752381Y-2738095D02*
X-24800000Y-2785714D01*
X-24847620Y-2880952D01*
X-24847620Y-3119047D01*
X-24800000Y-3214285D01*
X-24752381Y-3261904D01*
X-24657143Y-3309523D01*
X-24561905Y-3309523D01*
X-24419048Y-3261904D01*
X-23847620Y-2690476D01*
X-23847620Y-3309523D01*
X-24847620Y-3642857D02*
X-24847620Y-4309523D01*
X-23847620Y-3880952D01*
%TO.C,C24*%
X-20642858Y-7357142D02*
X-20595239Y-7309523D01*
X-20547620Y-7166666D01*
X-20547620Y-7071428D01*
X-20595239Y-6928571D01*
X-20690477Y-6833333D01*
X-20785715Y-6785714D01*
X-20976191Y-6738095D01*
X-21119048Y-6738095D01*
X-21309524Y-6785714D01*
X-21404762Y-6833333D01*
X-21500000Y-6928571D01*
X-21547620Y-7071428D01*
X-21547620Y-7166666D01*
X-21500000Y-7309523D01*
X-21452381Y-7357142D01*
X-21452381Y-7738095D02*
X-21500000Y-7785714D01*
X-21547620Y-7880952D01*
X-21547620Y-8119047D01*
X-21500000Y-8214285D01*
X-21452381Y-8261904D01*
X-21357143Y-8309523D01*
X-21261905Y-8309523D01*
X-21119048Y-8261904D01*
X-20547620Y-7690476D01*
X-20547620Y-8309523D01*
X-21214286Y-9166666D02*
X-20547620Y-9166666D01*
X-21595239Y-8928571D02*
X-20880953Y-8690476D01*
X-20880953Y-9309523D01*
%TO.C,C23*%
X-38492858Y-617142D02*
X-38445239Y-569523D01*
X-38397620Y-426666D01*
X-38397620Y-331428D01*
X-38445239Y-188571D01*
X-38540477Y-93333D01*
X-38635715Y-45714D01*
X-38826191Y1905D01*
X-38969048Y1905D01*
X-39159524Y-45714D01*
X-39254762Y-93333D01*
X-39350000Y-188571D01*
X-39397620Y-331428D01*
X-39397620Y-426666D01*
X-39350000Y-569523D01*
X-39302381Y-617142D01*
X-39302381Y-998095D02*
X-39350000Y-1045714D01*
X-39397620Y-1140952D01*
X-39397620Y-1379047D01*
X-39350000Y-1474285D01*
X-39302381Y-1521904D01*
X-39207143Y-1569523D01*
X-39111905Y-1569523D01*
X-38969048Y-1521904D01*
X-38397620Y-950476D01*
X-38397620Y-1569523D01*
X-39397620Y-1902857D02*
X-39397620Y-2521904D01*
X-39016667Y-2188571D01*
X-39016667Y-2331428D01*
X-38969048Y-2426666D01*
X-38921429Y-2474285D01*
X-38826191Y-2521904D01*
X-38588096Y-2521904D01*
X-38492858Y-2474285D01*
X-38445239Y-2426666D01*
X-38397620Y-2331428D01*
X-38397620Y-2045714D01*
X-38445239Y-1950476D01*
X-38492858Y-1902857D01*
%TO.C,C21*%
X-27042858Y-12357142D02*
X-26995239Y-12309523D01*
X-26947620Y-12166666D01*
X-26947620Y-12071428D01*
X-26995239Y-11928571D01*
X-27090477Y-11833333D01*
X-27185715Y-11785714D01*
X-27376191Y-11738095D01*
X-27519048Y-11738095D01*
X-27709524Y-11785714D01*
X-27804762Y-11833333D01*
X-27900000Y-11928571D01*
X-27947620Y-12071428D01*
X-27947620Y-12166666D01*
X-27900000Y-12309523D01*
X-27852381Y-12357142D01*
X-27852381Y-12738095D02*
X-27900000Y-12785714D01*
X-27947620Y-12880952D01*
X-27947620Y-13119047D01*
X-27900000Y-13214285D01*
X-27852381Y-13261904D01*
X-27757143Y-13309523D01*
X-27661905Y-13309523D01*
X-27519048Y-13261904D01*
X-26947620Y-12690476D01*
X-26947620Y-13309523D01*
X-26947620Y-14261904D02*
X-26947620Y-13690476D01*
X-26947620Y-13976190D02*
X-27947620Y-13976190D01*
X-27804762Y-13880952D01*
X-27709524Y-13785714D01*
X-27661905Y-13690476D01*
%TO.C,C20*%
X-30242858Y-2357142D02*
X-30195239Y-2309523D01*
X-30147620Y-2166666D01*
X-30147620Y-2071428D01*
X-30195239Y-1928571D01*
X-30290477Y-1833333D01*
X-30385715Y-1785714D01*
X-30576191Y-1738095D01*
X-30719048Y-1738095D01*
X-30909524Y-1785714D01*
X-31004762Y-1833333D01*
X-31100000Y-1928571D01*
X-31147620Y-2071428D01*
X-31147620Y-2166666D01*
X-31100000Y-2309523D01*
X-31052381Y-2357142D01*
X-31052381Y-2738095D02*
X-31100000Y-2785714D01*
X-31147620Y-2880952D01*
X-31147620Y-3119047D01*
X-31100000Y-3214285D01*
X-31052381Y-3261904D01*
X-30957143Y-3309523D01*
X-30861905Y-3309523D01*
X-30719048Y-3261904D01*
X-30147620Y-2690476D01*
X-30147620Y-3309523D01*
X-31147620Y-3928571D02*
X-31147620Y-4023809D01*
X-31100000Y-4119047D01*
X-31052381Y-4166666D01*
X-30957143Y-4214285D01*
X-30766667Y-4261904D01*
X-30528572Y-4261904D01*
X-30338096Y-4214285D01*
X-30242858Y-4166666D01*
X-30195239Y-4119047D01*
X-30147620Y-4023809D01*
X-30147620Y-3928571D01*
X-30195239Y-3833333D01*
X-30242858Y-3785714D01*
X-30338096Y-3738095D01*
X-30528572Y-3690476D01*
X-30766667Y-3690476D01*
X-30957143Y-3738095D01*
X-31052381Y-3785714D01*
X-31100000Y-3833333D01*
X-31147620Y-3928571D01*
%TO.C,C19*%
X-27042858Y-7357142D02*
X-26995239Y-7309523D01*
X-26947620Y-7166666D01*
X-26947620Y-7071428D01*
X-26995239Y-6928571D01*
X-27090477Y-6833333D01*
X-27185715Y-6785714D01*
X-27376191Y-6738095D01*
X-27519048Y-6738095D01*
X-27709524Y-6785714D01*
X-27804762Y-6833333D01*
X-27900000Y-6928571D01*
X-27947620Y-7071428D01*
X-27947620Y-7166666D01*
X-27900000Y-7309523D01*
X-27852381Y-7357142D01*
X-26947620Y-8309523D02*
X-26947620Y-7738095D01*
X-26947620Y-8023809D02*
X-27947620Y-8023809D01*
X-27804762Y-7928571D01*
X-27709524Y-7833333D01*
X-27661905Y-7738095D01*
X-26947620Y-8785714D02*
X-26947620Y-8976190D01*
X-26995239Y-9071428D01*
X-27042858Y-9119047D01*
X-27185715Y-9214285D01*
X-27376191Y-9261904D01*
X-27757143Y-9261904D01*
X-27852381Y-9214285D01*
X-27900000Y-9166666D01*
X-27947620Y-9071428D01*
X-27947620Y-8880952D01*
X-27900000Y-8785714D01*
X-27852381Y-8738095D01*
X-27757143Y-8690476D01*
X-27519048Y-8690476D01*
X-27423810Y-8738095D01*
X-27376191Y-8785714D01*
X-27328572Y-8880952D01*
X-27328572Y-9071428D01*
X-27376191Y-9166666D01*
X-27423810Y-9214285D01*
X-27519048Y-9261904D01*
%TO.C,C17*%
X-17652858Y-7947142D02*
X-17605239Y-7899523D01*
X-17557620Y-7756666D01*
X-17557620Y-7661428D01*
X-17605239Y-7518571D01*
X-17700477Y-7423333D01*
X-17795715Y-7375714D01*
X-17986191Y-7328095D01*
X-18129048Y-7328095D01*
X-18319524Y-7375714D01*
X-18414762Y-7423333D01*
X-18510000Y-7518571D01*
X-18557620Y-7661428D01*
X-18557620Y-7756666D01*
X-18510000Y-7899523D01*
X-18462381Y-7947142D01*
X-17557620Y-8899523D02*
X-17557620Y-8328095D01*
X-17557620Y-8613809D02*
X-18557620Y-8613809D01*
X-18414762Y-8518571D01*
X-18319524Y-8423333D01*
X-18271905Y-8328095D01*
X-18557620Y-9232857D02*
X-18557620Y-9899523D01*
X-17557620Y-9470952D01*
%TO.C,C11*%
X-14042858Y-7919642D02*
X-13995239Y-7872023D01*
X-13947620Y-7729166D01*
X-13947620Y-7633928D01*
X-13995239Y-7491071D01*
X-14090477Y-7395833D01*
X-14185715Y-7348214D01*
X-14376191Y-7300595D01*
X-14519048Y-7300595D01*
X-14709524Y-7348214D01*
X-14804762Y-7395833D01*
X-14900000Y-7491071D01*
X-14947620Y-7633928D01*
X-14947620Y-7729166D01*
X-14900000Y-7872023D01*
X-14852381Y-7919642D01*
X-13947620Y-8872023D02*
X-13947620Y-8300595D01*
X-13947620Y-8586309D02*
X-14947620Y-8586309D01*
X-14804762Y-8491071D01*
X-14709524Y-8395833D01*
X-14661905Y-8300595D01*
X-13947620Y-9824404D02*
X-13947620Y-9252976D01*
X-13947620Y-9538690D02*
X-14947620Y-9538690D01*
X-14804762Y-9443452D01*
X-14709524Y-9348214D01*
X-14661905Y-9252976D01*
%TO.C,C7*%
X-40092858Y-13358333D02*
X-40045239Y-13310714D01*
X-39997620Y-13167857D01*
X-39997620Y-13072619D01*
X-40045239Y-12929761D01*
X-40140477Y-12834523D01*
X-40235715Y-12786904D01*
X-40426191Y-12739285D01*
X-40569048Y-12739285D01*
X-40759524Y-12786904D01*
X-40854762Y-12834523D01*
X-40950000Y-12929761D01*
X-40997620Y-13072619D01*
X-40997620Y-13167857D01*
X-40950000Y-13310714D01*
X-40902381Y-13358333D01*
X-40997620Y-13691666D02*
X-40997620Y-14358333D01*
X-39997620Y-13929761D01*
%TO.C,C5*%
X-32412858Y-17963333D02*
X-32365239Y-17915714D01*
X-32317620Y-17772857D01*
X-32317620Y-17677619D01*
X-32365239Y-17534761D01*
X-32460477Y-17439523D01*
X-32555715Y-17391904D01*
X-32746191Y-17344285D01*
X-32889048Y-17344285D01*
X-33079524Y-17391904D01*
X-33174762Y-17439523D01*
X-33270000Y-17534761D01*
X-33317620Y-17677619D01*
X-33317620Y-17772857D01*
X-33270000Y-17915714D01*
X-33222381Y-17963333D01*
X-33317620Y-18868095D02*
X-33317620Y-18391904D01*
X-32841429Y-18344285D01*
X-32889048Y-18391904D01*
X-32936667Y-18487142D01*
X-32936667Y-18725238D01*
X-32889048Y-18820476D01*
X-32841429Y-18868095D01*
X-32746191Y-18915714D01*
X-32508096Y-18915714D01*
X-32412858Y-18868095D01*
X-32365239Y-18820476D01*
X-32317620Y-18725238D01*
X-32317620Y-18487142D01*
X-32365239Y-18391904D01*
X-32412858Y-18344285D01*
%TO.C,C2*%
X-25662858Y-20873333D02*
X-25615239Y-20825714D01*
X-25567620Y-20682857D01*
X-25567620Y-20587619D01*
X-25615239Y-20444761D01*
X-25710477Y-20349523D01*
X-25805715Y-20301904D01*
X-25996191Y-20254285D01*
X-26139048Y-20254285D01*
X-26329524Y-20301904D01*
X-26424762Y-20349523D01*
X-26520000Y-20444761D01*
X-26567620Y-20587619D01*
X-26567620Y-20682857D01*
X-26520000Y-20825714D01*
X-26472381Y-20873333D01*
X-26472381Y-21254285D02*
X-26520000Y-21301904D01*
X-26567620Y-21397142D01*
X-26567620Y-21635238D01*
X-26520000Y-21730476D01*
X-26472381Y-21778095D01*
X-26377143Y-21825714D01*
X-26281905Y-21825714D01*
X-26139048Y-21778095D01*
X-25567620Y-21206666D01*
X-25567620Y-21825714D01*
%TO.C,C1*%
X-20792858Y-20833333D02*
X-20745239Y-20785714D01*
X-20697620Y-20642857D01*
X-20697620Y-20547619D01*
X-20745239Y-20404761D01*
X-20840477Y-20309523D01*
X-20935715Y-20261904D01*
X-21126191Y-20214285D01*
X-21269048Y-20214285D01*
X-21459524Y-20261904D01*
X-21554762Y-20309523D01*
X-21650000Y-20404761D01*
X-21697620Y-20547619D01*
X-21697620Y-20642857D01*
X-21650000Y-20785714D01*
X-21602381Y-20833333D01*
X-20697620Y-21785714D02*
X-20697620Y-21214285D01*
X-20697620Y-21500000D02*
X-21697620Y-21500000D01*
X-21554762Y-21404761D01*
X-21459524Y-21309523D01*
X-21411905Y-21214285D01*
%TD*%
M02*
