G04 #@! TF.GenerationSoftware,KiCad,Pcbnew,5.1.9-73d0e3b20d~88~ubuntu18.04.1*
G04 #@! TF.CreationDate,2021-01-10T19:17:03-05:00*
G04 #@! TF.ProjectId,DolbyS_NR_HIC,446f6c62-7953-45f4-9e52-5f4849432e6b,2020-11-03*
G04 #@! TF.SameCoordinates,Original*
G04 #@! TF.FileFunction,Paste,Bot*
G04 #@! TF.FilePolarity,Positive*
%FSLAX46Y46*%
G04 Gerber Fmt 4.6, Leading zero omitted, Abs format (unit mm)*
G04 Created by KiCad (PCBNEW 5.1.9-73d0e3b20d~88~ubuntu18.04.1) date 2021-01-10 19:17:03*
%MOMM*%
%LPD*%
G01*
G04 APERTURE LIST*
G04 APERTURE END LIST*
G36*
G01*
X137524999Y-117812500D02*
X138375001Y-117812500D01*
G75*
G02*
X138625000Y-118062499I0J-249999D01*
G01*
X138625000Y-119137501D01*
G75*
G02*
X138375001Y-119387500I-249999J0D01*
G01*
X137524999Y-119387500D01*
G75*
G02*
X137275000Y-119137501I0J249999D01*
G01*
X137275000Y-118062499D01*
G75*
G02*
X137524999Y-117812500I249999J0D01*
G01*
G37*
G36*
G01*
X137524999Y-114937500D02*
X138375001Y-114937500D01*
G75*
G02*
X138625000Y-115187499I0J-249999D01*
G01*
X138625000Y-116262501D01*
G75*
G02*
X138375001Y-116512500I-249999J0D01*
G01*
X137524999Y-116512500D01*
G75*
G02*
X137275000Y-116262501I0J249999D01*
G01*
X137275000Y-115187499D01*
G75*
G02*
X137524999Y-114937500I249999J0D01*
G01*
G37*
G36*
G01*
X152399998Y-102462500D02*
X153700002Y-102462500D01*
G75*
G02*
X153950000Y-102712498I0J-249998D01*
G01*
X153950000Y-103537502D01*
G75*
G02*
X153700002Y-103787500I-249998J0D01*
G01*
X152399998Y-103787500D01*
G75*
G02*
X152150000Y-103537502I0J249998D01*
G01*
X152150000Y-102712498D01*
G75*
G02*
X152399998Y-102462500I249998J0D01*
G01*
G37*
G36*
G01*
X152399998Y-99337500D02*
X153700002Y-99337500D01*
G75*
G02*
X153950000Y-99587498I0J-249998D01*
G01*
X153950000Y-100412502D01*
G75*
G02*
X153700002Y-100662500I-249998J0D01*
G01*
X152399998Y-100662500D01*
G75*
G02*
X152150000Y-100412502I0J249998D01*
G01*
X152150000Y-99587498D01*
G75*
G02*
X152399998Y-99337500I249998J0D01*
G01*
G37*
G36*
G01*
X144349998Y-102462500D02*
X145650002Y-102462500D01*
G75*
G02*
X145900000Y-102712498I0J-249998D01*
G01*
X145900000Y-103537502D01*
G75*
G02*
X145650002Y-103787500I-249998J0D01*
G01*
X144349998Y-103787500D01*
G75*
G02*
X144100000Y-103537502I0J249998D01*
G01*
X144100000Y-102712498D01*
G75*
G02*
X144349998Y-102462500I249998J0D01*
G01*
G37*
G36*
G01*
X144349998Y-99337500D02*
X145650002Y-99337500D01*
G75*
G02*
X145900000Y-99587498I0J-249998D01*
G01*
X145900000Y-100412502D01*
G75*
G02*
X145650002Y-100662500I-249998J0D01*
G01*
X144349998Y-100662500D01*
G75*
G02*
X144100000Y-100412502I0J249998D01*
G01*
X144100000Y-99587498D01*
G75*
G02*
X144349998Y-99337500I249998J0D01*
G01*
G37*
G36*
G01*
X162650000Y-112300000D02*
X163750000Y-112300000D01*
G75*
G02*
X164000000Y-112550000I0J-250000D01*
G01*
X164000000Y-114650000D01*
G75*
G02*
X163750000Y-114900000I-250000J0D01*
G01*
X162650000Y-114900000D01*
G75*
G02*
X162400000Y-114650000I0J250000D01*
G01*
X162400000Y-112550000D01*
G75*
G02*
X162650000Y-112300000I250000J0D01*
G01*
G37*
G36*
G01*
X162650000Y-108700000D02*
X163750000Y-108700000D01*
G75*
G02*
X164000000Y-108950000I0J-250000D01*
G01*
X164000000Y-111050000D01*
G75*
G02*
X163750000Y-111300000I-250000J0D01*
G01*
X162650000Y-111300000D01*
G75*
G02*
X162400000Y-111050000I0J250000D01*
G01*
X162400000Y-108950000D01*
G75*
G02*
X162650000Y-108700000I250000J0D01*
G01*
G37*
G36*
G01*
X173349999Y-106400000D02*
X174250001Y-106400000D01*
G75*
G02*
X174500000Y-106649999I0J-249999D01*
G01*
X174500000Y-107350001D01*
G75*
G02*
X174250001Y-107600000I-249999J0D01*
G01*
X173349999Y-107600000D01*
G75*
G02*
X173100000Y-107350001I0J249999D01*
G01*
X173100000Y-106649999D01*
G75*
G02*
X173349999Y-106400000I249999J0D01*
G01*
G37*
G36*
G01*
X173349999Y-104400000D02*
X174250001Y-104400000D01*
G75*
G02*
X174500000Y-104649999I0J-249999D01*
G01*
X174500000Y-105350001D01*
G75*
G02*
X174250001Y-105600000I-249999J0D01*
G01*
X173349999Y-105600000D01*
G75*
G02*
X173100000Y-105350001I0J249999D01*
G01*
X173100000Y-104649999D01*
G75*
G02*
X173349999Y-104400000I249999J0D01*
G01*
G37*
G36*
G01*
X157249999Y-111400000D02*
X158150001Y-111400000D01*
G75*
G02*
X158400000Y-111649999I0J-249999D01*
G01*
X158400000Y-112350001D01*
G75*
G02*
X158150001Y-112600000I-249999J0D01*
G01*
X157249999Y-112600000D01*
G75*
G02*
X157000000Y-112350001I0J249999D01*
G01*
X157000000Y-111649999D01*
G75*
G02*
X157249999Y-111400000I249999J0D01*
G01*
G37*
G36*
G01*
X157249999Y-109400000D02*
X158150001Y-109400000D01*
G75*
G02*
X158400000Y-109649999I0J-249999D01*
G01*
X158400000Y-110350001D01*
G75*
G02*
X158150001Y-110600000I-249999J0D01*
G01*
X157249999Y-110600000D01*
G75*
G02*
X157000000Y-110350001I0J249999D01*
G01*
X157000000Y-109649999D01*
G75*
G02*
X157249999Y-109400000I249999J0D01*
G01*
G37*
G36*
G01*
X152649999Y-106400000D02*
X153550001Y-106400000D01*
G75*
G02*
X153800000Y-106649999I0J-249999D01*
G01*
X153800000Y-107350001D01*
G75*
G02*
X153550001Y-107600000I-249999J0D01*
G01*
X152649999Y-107600000D01*
G75*
G02*
X152400000Y-107350001I0J249999D01*
G01*
X152400000Y-106649999D01*
G75*
G02*
X152649999Y-106400000I249999J0D01*
G01*
G37*
G36*
G01*
X152649999Y-104400000D02*
X153550001Y-104400000D01*
G75*
G02*
X153800000Y-104649999I0J-249999D01*
G01*
X153800000Y-105350001D01*
G75*
G02*
X153550001Y-105600000I-249999J0D01*
G01*
X152649999Y-105600000D01*
G75*
G02*
X152400000Y-105350001I0J249999D01*
G01*
X152400000Y-104649999D01*
G75*
G02*
X152649999Y-104400000I249999J0D01*
G01*
G37*
G36*
G01*
X139090001Y-110600000D02*
X138189999Y-110600000D01*
G75*
G02*
X137940000Y-110350001I0J249999D01*
G01*
X137940000Y-109649999D01*
G75*
G02*
X138189999Y-109400000I249999J0D01*
G01*
X139090001Y-109400000D01*
G75*
G02*
X139340000Y-109649999I0J-249999D01*
G01*
X139340000Y-110350001D01*
G75*
G02*
X139090001Y-110600000I-249999J0D01*
G01*
G37*
G36*
G01*
X139090001Y-112600000D02*
X138189999Y-112600000D01*
G75*
G02*
X137940000Y-112350001I0J249999D01*
G01*
X137940000Y-111649999D01*
G75*
G02*
X138189999Y-111400000I249999J0D01*
G01*
X139090001Y-111400000D01*
G75*
G02*
X139340000Y-111649999I0J-249999D01*
G01*
X139340000Y-112350001D01*
G75*
G02*
X139090001Y-112600000I-249999J0D01*
G01*
G37*
G36*
G01*
X154500001Y-110600000D02*
X153599999Y-110600000D01*
G75*
G02*
X153350000Y-110350001I0J249999D01*
G01*
X153350000Y-109649999D01*
G75*
G02*
X153599999Y-109400000I249999J0D01*
G01*
X154500001Y-109400000D01*
G75*
G02*
X154750000Y-109649999I0J-249999D01*
G01*
X154750000Y-110350001D01*
G75*
G02*
X154500001Y-110600000I-249999J0D01*
G01*
G37*
G36*
G01*
X154500001Y-112600000D02*
X153599999Y-112600000D01*
G75*
G02*
X153350000Y-112350001I0J249999D01*
G01*
X153350000Y-111649999D01*
G75*
G02*
X153599999Y-111400000I249999J0D01*
G01*
X154500001Y-111400000D01*
G75*
G02*
X154750000Y-111649999I0J-249999D01*
G01*
X154750000Y-112350001D01*
G75*
G02*
X154500001Y-112600000I-249999J0D01*
G01*
G37*
G36*
G01*
X135850001Y-110600000D02*
X134949999Y-110600000D01*
G75*
G02*
X134700000Y-110350001I0J249999D01*
G01*
X134700000Y-109649999D01*
G75*
G02*
X134949999Y-109400000I249999J0D01*
G01*
X135850001Y-109400000D01*
G75*
G02*
X136100000Y-109649999I0J-249999D01*
G01*
X136100000Y-110350001D01*
G75*
G02*
X135850001Y-110600000I-249999J0D01*
G01*
G37*
G36*
G01*
X135850001Y-112600000D02*
X134949999Y-112600000D01*
G75*
G02*
X134700000Y-112350001I0J249999D01*
G01*
X134700000Y-111649999D01*
G75*
G02*
X134949999Y-111400000I249999J0D01*
G01*
X135850001Y-111400000D01*
G75*
G02*
X136100000Y-111649999I0J-249999D01*
G01*
X136100000Y-112350001D01*
G75*
G02*
X135850001Y-112600000I-249999J0D01*
G01*
G37*
G36*
G01*
X150339999Y-111400000D02*
X151240001Y-111400000D01*
G75*
G02*
X151490000Y-111649999I0J-249999D01*
G01*
X151490000Y-112350001D01*
G75*
G02*
X151240001Y-112600000I-249999J0D01*
G01*
X150339999Y-112600000D01*
G75*
G02*
X150090000Y-112350001I0J249999D01*
G01*
X150090000Y-111649999D01*
G75*
G02*
X150339999Y-111400000I249999J0D01*
G01*
G37*
G36*
G01*
X150339999Y-109400000D02*
X151240001Y-109400000D01*
G75*
G02*
X151490000Y-109649999I0J-249999D01*
G01*
X151490000Y-110350001D01*
G75*
G02*
X151240001Y-110600000I-249999J0D01*
G01*
X150339999Y-110600000D01*
G75*
G02*
X150090000Y-110350001I0J249999D01*
G01*
X150090000Y-109649999D01*
G75*
G02*
X150339999Y-109400000I249999J0D01*
G01*
G37*
G36*
G01*
X147949999Y-106400000D02*
X148850001Y-106400000D01*
G75*
G02*
X149100000Y-106649999I0J-249999D01*
G01*
X149100000Y-107350001D01*
G75*
G02*
X148850001Y-107600000I-249999J0D01*
G01*
X147949999Y-107600000D01*
G75*
G02*
X147700000Y-107350001I0J249999D01*
G01*
X147700000Y-106649999D01*
G75*
G02*
X147949999Y-106400000I249999J0D01*
G01*
G37*
G36*
G01*
X147949999Y-104400000D02*
X148850001Y-104400000D01*
G75*
G02*
X149100000Y-104649999I0J-249999D01*
G01*
X149100000Y-105350001D01*
G75*
G02*
X148850001Y-105600000I-249999J0D01*
G01*
X147949999Y-105600000D01*
G75*
G02*
X147700000Y-105350001I0J249999D01*
G01*
X147700000Y-104649999D01*
G75*
G02*
X147949999Y-104400000I249999J0D01*
G01*
G37*
G36*
G01*
X144549999Y-106400000D02*
X145450001Y-106400000D01*
G75*
G02*
X145700000Y-106649999I0J-249999D01*
G01*
X145700000Y-107350001D01*
G75*
G02*
X145450001Y-107600000I-249999J0D01*
G01*
X144549999Y-107600000D01*
G75*
G02*
X144300000Y-107350001I0J249999D01*
G01*
X144300000Y-106649999D01*
G75*
G02*
X144549999Y-106400000I249999J0D01*
G01*
G37*
G36*
G01*
X144549999Y-104400000D02*
X145450001Y-104400000D01*
G75*
G02*
X145700000Y-104649999I0J-249999D01*
G01*
X145700000Y-105350001D01*
G75*
G02*
X145450001Y-105600000I-249999J0D01*
G01*
X144549999Y-105600000D01*
G75*
G02*
X144300000Y-105350001I0J249999D01*
G01*
X144300000Y-104649999D01*
G75*
G02*
X144549999Y-104400000I249999J0D01*
G01*
G37*
G36*
G01*
X173349999Y-101400000D02*
X174250001Y-101400000D01*
G75*
G02*
X174500000Y-101649999I0J-249999D01*
G01*
X174500000Y-102350001D01*
G75*
G02*
X174250001Y-102600000I-249999J0D01*
G01*
X173349999Y-102600000D01*
G75*
G02*
X173100000Y-102350001I0J249999D01*
G01*
X173100000Y-101649999D01*
G75*
G02*
X173349999Y-101400000I249999J0D01*
G01*
G37*
G36*
G01*
X173349999Y-99400000D02*
X174250001Y-99400000D01*
G75*
G02*
X174500000Y-99649999I0J-249999D01*
G01*
X174500000Y-100350001D01*
G75*
G02*
X174250001Y-100600000I-249999J0D01*
G01*
X173349999Y-100600000D01*
G75*
G02*
X173100000Y-100350001I0J249999D01*
G01*
X173100000Y-99649999D01*
G75*
G02*
X173349999Y-99400000I249999J0D01*
G01*
G37*
G36*
G01*
X141950001Y-105600000D02*
X141049999Y-105600000D01*
G75*
G02*
X140800000Y-105350001I0J249999D01*
G01*
X140800000Y-104649999D01*
G75*
G02*
X141049999Y-104400000I249999J0D01*
G01*
X141950001Y-104400000D01*
G75*
G02*
X142200000Y-104649999I0J-249999D01*
G01*
X142200000Y-105350001D01*
G75*
G02*
X141950001Y-105600000I-249999J0D01*
G01*
G37*
G36*
G01*
X141950001Y-107600000D02*
X141049999Y-107600000D01*
G75*
G02*
X140800000Y-107350001I0J249999D01*
G01*
X140800000Y-106649999D01*
G75*
G02*
X141049999Y-106400000I249999J0D01*
G01*
X141950001Y-106400000D01*
G75*
G02*
X142200000Y-106649999I0J-249999D01*
G01*
X142200000Y-107350001D01*
G75*
G02*
X141950001Y-107600000I-249999J0D01*
G01*
G37*
G36*
G01*
X165450001Y-100600000D02*
X164549999Y-100600000D01*
G75*
G02*
X164300000Y-100350001I0J249999D01*
G01*
X164300000Y-99649999D01*
G75*
G02*
X164549999Y-99400000I249999J0D01*
G01*
X165450001Y-99400000D01*
G75*
G02*
X165700000Y-99649999I0J-249999D01*
G01*
X165700000Y-100350001D01*
G75*
G02*
X165450001Y-100600000I-249999J0D01*
G01*
G37*
G36*
G01*
X165450001Y-102600000D02*
X164549999Y-102600000D01*
G75*
G02*
X164300000Y-102350001I0J249999D01*
G01*
X164300000Y-101649999D01*
G75*
G02*
X164549999Y-101400000I249999J0D01*
G01*
X165450001Y-101400000D01*
G75*
G02*
X165700000Y-101649999I0J-249999D01*
G01*
X165700000Y-102350001D01*
G75*
G02*
X165450001Y-102600000I-249999J0D01*
G01*
G37*
G36*
G01*
X165450001Y-105600000D02*
X164549999Y-105600000D01*
G75*
G02*
X164300000Y-105350001I0J249999D01*
G01*
X164300000Y-104649999D01*
G75*
G02*
X164549999Y-104400000I249999J0D01*
G01*
X165450001Y-104400000D01*
G75*
G02*
X165700000Y-104649999I0J-249999D01*
G01*
X165700000Y-105350001D01*
G75*
G02*
X165450001Y-105600000I-249999J0D01*
G01*
G37*
G36*
G01*
X165450001Y-107600000D02*
X164549999Y-107600000D01*
G75*
G02*
X164300000Y-107350001I0J249999D01*
G01*
X164300000Y-106649999D01*
G75*
G02*
X164549999Y-106400000I249999J0D01*
G01*
X165450001Y-106400000D01*
G75*
G02*
X165700000Y-106649999I0J-249999D01*
G01*
X165700000Y-107350001D01*
G75*
G02*
X165450001Y-107600000I-249999J0D01*
G01*
G37*
G36*
G01*
X168749999Y-118000000D02*
X169650001Y-118000000D01*
G75*
G02*
X169900000Y-118249999I0J-249999D01*
G01*
X169900000Y-118950001D01*
G75*
G02*
X169650001Y-119200000I-249999J0D01*
G01*
X168749999Y-119200000D01*
G75*
G02*
X168500000Y-118950001I0J249999D01*
G01*
X168500000Y-118249999D01*
G75*
G02*
X168749999Y-118000000I249999J0D01*
G01*
G37*
G36*
G01*
X168749999Y-116000000D02*
X169650001Y-116000000D01*
G75*
G02*
X169900000Y-116249999I0J-249999D01*
G01*
X169900000Y-116950001D01*
G75*
G02*
X169650001Y-117200000I-249999J0D01*
G01*
X168749999Y-117200000D01*
G75*
G02*
X168500000Y-116950001I0J249999D01*
G01*
X168500000Y-116249999D01*
G75*
G02*
X168749999Y-116000000I249999J0D01*
G01*
G37*
G36*
G01*
X182600001Y-105650000D02*
X181699999Y-105650000D01*
G75*
G02*
X181450000Y-105400001I0J249999D01*
G01*
X181450000Y-104699999D01*
G75*
G02*
X181699999Y-104450000I249999J0D01*
G01*
X182600001Y-104450000D01*
G75*
G02*
X182850000Y-104699999I0J-249999D01*
G01*
X182850000Y-105400001D01*
G75*
G02*
X182600001Y-105650000I-249999J0D01*
G01*
G37*
G36*
G01*
X182600001Y-107650000D02*
X181699999Y-107650000D01*
G75*
G02*
X181450000Y-107400001I0J249999D01*
G01*
X181450000Y-106699999D01*
G75*
G02*
X181699999Y-106450000I249999J0D01*
G01*
X182600001Y-106450000D01*
G75*
G02*
X182850000Y-106699999I0J-249999D01*
G01*
X182850000Y-107400001D01*
G75*
G02*
X182600001Y-107650000I-249999J0D01*
G01*
G37*
G36*
G01*
X178199999Y-106400000D02*
X179100001Y-106400000D01*
G75*
G02*
X179350000Y-106649999I0J-249999D01*
G01*
X179350000Y-107350001D01*
G75*
G02*
X179100001Y-107600000I-249999J0D01*
G01*
X178199999Y-107600000D01*
G75*
G02*
X177950000Y-107350001I0J249999D01*
G01*
X177950000Y-106649999D01*
G75*
G02*
X178199999Y-106400000I249999J0D01*
G01*
G37*
G36*
G01*
X178199999Y-104400000D02*
X179100001Y-104400000D01*
G75*
G02*
X179350000Y-104649999I0J-249999D01*
G01*
X179350000Y-105350001D01*
G75*
G02*
X179100001Y-105600000I-249999J0D01*
G01*
X178199999Y-105600000D01*
G75*
G02*
X177950000Y-105350001I0J249999D01*
G01*
X177950000Y-104649999D01*
G75*
G02*
X178199999Y-104400000I249999J0D01*
G01*
G37*
G36*
G01*
X186100001Y-100650000D02*
X185199999Y-100650000D01*
G75*
G02*
X184950000Y-100400001I0J249999D01*
G01*
X184950000Y-99699999D01*
G75*
G02*
X185199999Y-99450000I249999J0D01*
G01*
X186100001Y-99450000D01*
G75*
G02*
X186350000Y-99699999I0J-249999D01*
G01*
X186350000Y-100400001D01*
G75*
G02*
X186100001Y-100650000I-249999J0D01*
G01*
G37*
G36*
G01*
X186100001Y-102650000D02*
X185199999Y-102650000D01*
G75*
G02*
X184950000Y-102400001I0J249999D01*
G01*
X184950000Y-101699999D01*
G75*
G02*
X185199999Y-101450000I249999J0D01*
G01*
X186100001Y-101450000D01*
G75*
G02*
X186350000Y-101699999I0J-249999D01*
G01*
X186350000Y-102400001D01*
G75*
G02*
X186100001Y-102650000I-249999J0D01*
G01*
G37*
G36*
G01*
X199199999Y-113000000D02*
X200100001Y-113000000D01*
G75*
G02*
X200350000Y-113249999I0J-249999D01*
G01*
X200350000Y-113950001D01*
G75*
G02*
X200100001Y-114200000I-249999J0D01*
G01*
X199199999Y-114200000D01*
G75*
G02*
X198950000Y-113950001I0J249999D01*
G01*
X198950000Y-113249999D01*
G75*
G02*
X199199999Y-113000000I249999J0D01*
G01*
G37*
G36*
G01*
X199199999Y-111000000D02*
X200100001Y-111000000D01*
G75*
G02*
X200350000Y-111249999I0J-249999D01*
G01*
X200350000Y-111950001D01*
G75*
G02*
X200100001Y-112200000I-249999J0D01*
G01*
X199199999Y-112200000D01*
G75*
G02*
X198950000Y-111950001I0J249999D01*
G01*
X198950000Y-111249999D01*
G75*
G02*
X199199999Y-111000000I249999J0D01*
G01*
G37*
G36*
G01*
X189650001Y-105600000D02*
X188749999Y-105600000D01*
G75*
G02*
X188500000Y-105350001I0J249999D01*
G01*
X188500000Y-104649999D01*
G75*
G02*
X188749999Y-104400000I249999J0D01*
G01*
X189650001Y-104400000D01*
G75*
G02*
X189900000Y-104649999I0J-249999D01*
G01*
X189900000Y-105350001D01*
G75*
G02*
X189650001Y-105600000I-249999J0D01*
G01*
G37*
G36*
G01*
X189650001Y-107600000D02*
X188749999Y-107600000D01*
G75*
G02*
X188500000Y-107350001I0J249999D01*
G01*
X188500000Y-106649999D01*
G75*
G02*
X188749999Y-106400000I249999J0D01*
G01*
X189650001Y-106400000D01*
G75*
G02*
X189900000Y-106649999I0J-249999D01*
G01*
X189900000Y-107350001D01*
G75*
G02*
X189650001Y-107600000I-249999J0D01*
G01*
G37*
G36*
G01*
X192249999Y-101450000D02*
X193150001Y-101450000D01*
G75*
G02*
X193400000Y-101699999I0J-249999D01*
G01*
X193400000Y-102400001D01*
G75*
G02*
X193150001Y-102650000I-249999J0D01*
G01*
X192249999Y-102650000D01*
G75*
G02*
X192000000Y-102400001I0J249999D01*
G01*
X192000000Y-101699999D01*
G75*
G02*
X192249999Y-101450000I249999J0D01*
G01*
G37*
G36*
G01*
X192249999Y-99450000D02*
X193150001Y-99450000D01*
G75*
G02*
X193400000Y-99699999I0J-249999D01*
G01*
X193400000Y-100400001D01*
G75*
G02*
X193150001Y-100650000I-249999J0D01*
G01*
X192249999Y-100650000D01*
G75*
G02*
X192000000Y-100400001I0J249999D01*
G01*
X192000000Y-99699999D01*
G75*
G02*
X192249999Y-99450000I249999J0D01*
G01*
G37*
G36*
G01*
X199199999Y-101450000D02*
X200100001Y-101450000D01*
G75*
G02*
X200350000Y-101699999I0J-249999D01*
G01*
X200350000Y-102400001D01*
G75*
G02*
X200100001Y-102650000I-249999J0D01*
G01*
X199199999Y-102650000D01*
G75*
G02*
X198950000Y-102400001I0J249999D01*
G01*
X198950000Y-101699999D01*
G75*
G02*
X199199999Y-101450000I249999J0D01*
G01*
G37*
G36*
G01*
X199199999Y-99450000D02*
X200100001Y-99450000D01*
G75*
G02*
X200350000Y-99699999I0J-249999D01*
G01*
X200350000Y-100400001D01*
G75*
G02*
X200100001Y-100650000I-249999J0D01*
G01*
X199199999Y-100650000D01*
G75*
G02*
X198950000Y-100400001I0J249999D01*
G01*
X198950000Y-99699999D01*
G75*
G02*
X199199999Y-99450000I249999J0D01*
G01*
G37*
G36*
G01*
X195849999Y-101450000D02*
X196750001Y-101450000D01*
G75*
G02*
X197000000Y-101699999I0J-249999D01*
G01*
X197000000Y-102400001D01*
G75*
G02*
X196750001Y-102650000I-249999J0D01*
G01*
X195849999Y-102650000D01*
G75*
G02*
X195600000Y-102400001I0J249999D01*
G01*
X195600000Y-101699999D01*
G75*
G02*
X195849999Y-101450000I249999J0D01*
G01*
G37*
G36*
G01*
X195849999Y-99450000D02*
X196750001Y-99450000D01*
G75*
G02*
X197000000Y-99699999I0J-249999D01*
G01*
X197000000Y-100400001D01*
G75*
G02*
X196750001Y-100650000I-249999J0D01*
G01*
X195849999Y-100650000D01*
G75*
G02*
X195600000Y-100400001I0J249999D01*
G01*
X195600000Y-99699999D01*
G75*
G02*
X195849999Y-99450000I249999J0D01*
G01*
G37*
G36*
G01*
X200100001Y-105600000D02*
X199199999Y-105600000D01*
G75*
G02*
X198950000Y-105350001I0J249999D01*
G01*
X198950000Y-104649999D01*
G75*
G02*
X199199999Y-104400000I249999J0D01*
G01*
X200100001Y-104400000D01*
G75*
G02*
X200350000Y-104649999I0J-249999D01*
G01*
X200350000Y-105350001D01*
G75*
G02*
X200100001Y-105600000I-249999J0D01*
G01*
G37*
G36*
G01*
X200100001Y-107600000D02*
X199199999Y-107600000D01*
G75*
G02*
X198950000Y-107350001I0J249999D01*
G01*
X198950000Y-106649999D01*
G75*
G02*
X199199999Y-106400000I249999J0D01*
G01*
X200100001Y-106400000D01*
G75*
G02*
X200350000Y-106649999I0J-249999D01*
G01*
X200350000Y-107350001D01*
G75*
G02*
X200100001Y-107600000I-249999J0D01*
G01*
G37*
G36*
G01*
X172249999Y-111400000D02*
X173150001Y-111400000D01*
G75*
G02*
X173400000Y-111649999I0J-249999D01*
G01*
X173400000Y-112350001D01*
G75*
G02*
X173150001Y-112600000I-249999J0D01*
G01*
X172249999Y-112600000D01*
G75*
G02*
X172000000Y-112350001I0J249999D01*
G01*
X172000000Y-111649999D01*
G75*
G02*
X172249999Y-111400000I249999J0D01*
G01*
G37*
G36*
G01*
X172249999Y-109400000D02*
X173150001Y-109400000D01*
G75*
G02*
X173400000Y-109649999I0J-249999D01*
G01*
X173400000Y-110350001D01*
G75*
G02*
X173150001Y-110600000I-249999J0D01*
G01*
X172249999Y-110600000D01*
G75*
G02*
X172000000Y-110350001I0J249999D01*
G01*
X172000000Y-109649999D01*
G75*
G02*
X172249999Y-109400000I249999J0D01*
G01*
G37*
G36*
G01*
X156199999Y-103400000D02*
X159100001Y-103400000D01*
G75*
G02*
X159350000Y-103649999I0J-249999D01*
G01*
X159350000Y-104550001D01*
G75*
G02*
X159100001Y-104800000I-249999J0D01*
G01*
X156199999Y-104800000D01*
G75*
G02*
X155950000Y-104550001I0J249999D01*
G01*
X155950000Y-103649999D01*
G75*
G02*
X156199999Y-103400000I249999J0D01*
G01*
G37*
G36*
G01*
X156199999Y-99300000D02*
X159100001Y-99300000D01*
G75*
G02*
X159350000Y-99549999I0J-249999D01*
G01*
X159350000Y-100450001D01*
G75*
G02*
X159100001Y-100700000I-249999J0D01*
G01*
X156199999Y-100700000D01*
G75*
G02*
X155950000Y-100450001I0J249999D01*
G01*
X155950000Y-99549999D01*
G75*
G02*
X156199999Y-99300000I249999J0D01*
G01*
G37*
G36*
G01*
X141350000Y-117300000D02*
X142450000Y-117300000D01*
G75*
G02*
X142700000Y-117550000I0J-250000D01*
G01*
X142700000Y-119650000D01*
G75*
G02*
X142450000Y-119900000I-250000J0D01*
G01*
X141350000Y-119900000D01*
G75*
G02*
X141100000Y-119650000I0J250000D01*
G01*
X141100000Y-117550000D01*
G75*
G02*
X141350000Y-117300000I250000J0D01*
G01*
G37*
G36*
G01*
X141350000Y-113700000D02*
X142450000Y-113700000D01*
G75*
G02*
X142700000Y-113950000I0J-250000D01*
G01*
X142700000Y-116050000D01*
G75*
G02*
X142450000Y-116300000I-250000J0D01*
G01*
X141350000Y-116300000D01*
G75*
G02*
X141100000Y-116050000I0J250000D01*
G01*
X141100000Y-113950000D01*
G75*
G02*
X141350000Y-113700000I250000J0D01*
G01*
G37*
G36*
G01*
X153624999Y-117812500D02*
X154475001Y-117812500D01*
G75*
G02*
X154725000Y-118062499I0J-249999D01*
G01*
X154725000Y-119137501D01*
G75*
G02*
X154475001Y-119387500I-249999J0D01*
G01*
X153624999Y-119387500D01*
G75*
G02*
X153375000Y-119137501I0J249999D01*
G01*
X153375000Y-118062499D01*
G75*
G02*
X153624999Y-117812500I249999J0D01*
G01*
G37*
G36*
G01*
X153624999Y-114937500D02*
X154475001Y-114937500D01*
G75*
G02*
X154725000Y-115187499I0J-249999D01*
G01*
X154725000Y-116262501D01*
G75*
G02*
X154475001Y-116512500I-249999J0D01*
G01*
X153624999Y-116512500D01*
G75*
G02*
X153375000Y-116262501I0J249999D01*
G01*
X153375000Y-115187499D01*
G75*
G02*
X153624999Y-114937500I249999J0D01*
G01*
G37*
G36*
G01*
X146900000Y-117300000D02*
X148000000Y-117300000D01*
G75*
G02*
X148250000Y-117550000I0J-250000D01*
G01*
X148250000Y-119650000D01*
G75*
G02*
X148000000Y-119900000I-250000J0D01*
G01*
X146900000Y-119900000D01*
G75*
G02*
X146650000Y-119650000I0J250000D01*
G01*
X146650000Y-117550000D01*
G75*
G02*
X146900000Y-117300000I250000J0D01*
G01*
G37*
G36*
G01*
X146900000Y-113700000D02*
X148000000Y-113700000D01*
G75*
G02*
X148250000Y-113950000I0J-250000D01*
G01*
X148250000Y-116050000D01*
G75*
G02*
X148000000Y-116300000I-250000J0D01*
G01*
X146900000Y-116300000D01*
G75*
G02*
X146650000Y-116050000I0J250000D01*
G01*
X146650000Y-113950000D01*
G75*
G02*
X146900000Y-113700000I250000J0D01*
G01*
G37*
G36*
G01*
X134974999Y-117812500D02*
X135825001Y-117812500D01*
G75*
G02*
X136075000Y-118062499I0J-249999D01*
G01*
X136075000Y-119137501D01*
G75*
G02*
X135825001Y-119387500I-249999J0D01*
G01*
X134974999Y-119387500D01*
G75*
G02*
X134725000Y-119137501I0J249999D01*
G01*
X134725000Y-118062499D01*
G75*
G02*
X134974999Y-117812500I249999J0D01*
G01*
G37*
G36*
G01*
X134974999Y-114937500D02*
X135825001Y-114937500D01*
G75*
G02*
X136075000Y-115187499I0J-249999D01*
G01*
X136075000Y-116262501D01*
G75*
G02*
X135825001Y-116512500I-249999J0D01*
G01*
X134974999Y-116512500D01*
G75*
G02*
X134725000Y-116262501I0J249999D01*
G01*
X134725000Y-115187499D01*
G75*
G02*
X134974999Y-114937500I249999J0D01*
G01*
G37*
G36*
G01*
X150924999Y-117812500D02*
X151775001Y-117812500D01*
G75*
G02*
X152025000Y-118062499I0J-249999D01*
G01*
X152025000Y-119137501D01*
G75*
G02*
X151775001Y-119387500I-249999J0D01*
G01*
X150924999Y-119387500D01*
G75*
G02*
X150675000Y-119137501I0J249999D01*
G01*
X150675000Y-118062499D01*
G75*
G02*
X150924999Y-117812500I249999J0D01*
G01*
G37*
G36*
G01*
X150924999Y-114937500D02*
X151775001Y-114937500D01*
G75*
G02*
X152025000Y-115187499I0J-249999D01*
G01*
X152025000Y-116262501D01*
G75*
G02*
X151775001Y-116512500I-249999J0D01*
G01*
X150924999Y-116512500D01*
G75*
G02*
X150675000Y-116262501I0J249999D01*
G01*
X150675000Y-115187499D01*
G75*
G02*
X150924999Y-114937500I249999J0D01*
G01*
G37*
G36*
G01*
X157400000Y-117300000D02*
X158500000Y-117300000D01*
G75*
G02*
X158750000Y-117550000I0J-250000D01*
G01*
X158750000Y-119650000D01*
G75*
G02*
X158500000Y-119900000I-250000J0D01*
G01*
X157400000Y-119900000D01*
G75*
G02*
X157150000Y-119650000I0J250000D01*
G01*
X157150000Y-117550000D01*
G75*
G02*
X157400000Y-117300000I250000J0D01*
G01*
G37*
G36*
G01*
X157400000Y-113700000D02*
X158500000Y-113700000D01*
G75*
G02*
X158750000Y-113950000I0J-250000D01*
G01*
X158750000Y-116050000D01*
G75*
G02*
X158500000Y-116300000I-250000J0D01*
G01*
X157400000Y-116300000D01*
G75*
G02*
X157150000Y-116050000I0J250000D01*
G01*
X157150000Y-113950000D01*
G75*
G02*
X157400000Y-113700000I250000J0D01*
G01*
G37*
G36*
G01*
X147925000Y-101487500D02*
X148875000Y-101487500D01*
G75*
G02*
X149125000Y-101737500I0J-250000D01*
G01*
X149125000Y-102412500D01*
G75*
G02*
X148875000Y-102662500I-250000J0D01*
G01*
X147925000Y-102662500D01*
G75*
G02*
X147675000Y-102412500I0J250000D01*
G01*
X147675000Y-101737500D01*
G75*
G02*
X147925000Y-101487500I250000J0D01*
G01*
G37*
G36*
G01*
X147925000Y-99412500D02*
X148875000Y-99412500D01*
G75*
G02*
X149125000Y-99662500I0J-250000D01*
G01*
X149125000Y-100337500D01*
G75*
G02*
X148875000Y-100587500I-250000J0D01*
G01*
X147925000Y-100587500D01*
G75*
G02*
X147675000Y-100337500I0J250000D01*
G01*
X147675000Y-99662500D01*
G75*
G02*
X147925000Y-99412500I250000J0D01*
G01*
G37*
G36*
G01*
X136499998Y-102462500D02*
X138700002Y-102462500D01*
G75*
G02*
X138950000Y-102712498I0J-249998D01*
G01*
X138950000Y-103537502D01*
G75*
G02*
X138700002Y-103787500I-249998J0D01*
G01*
X136499998Y-103787500D01*
G75*
G02*
X136250000Y-103537502I0J249998D01*
G01*
X136250000Y-102712498D01*
G75*
G02*
X136499998Y-102462500I249998J0D01*
G01*
G37*
G36*
G01*
X136499998Y-99337500D02*
X138700002Y-99337500D01*
G75*
G02*
X138950000Y-99587498I0J-249998D01*
G01*
X138950000Y-100412502D01*
G75*
G02*
X138700002Y-100662500I-249998J0D01*
G01*
X136499998Y-100662500D01*
G75*
G02*
X136250000Y-100412502I0J249998D01*
G01*
X136250000Y-99587498D01*
G75*
G02*
X136499998Y-99337500I249998J0D01*
G01*
G37*
G36*
G01*
X161325000Y-101487500D02*
X162275000Y-101487500D01*
G75*
G02*
X162525000Y-101737500I0J-250000D01*
G01*
X162525000Y-102412500D01*
G75*
G02*
X162275000Y-102662500I-250000J0D01*
G01*
X161325000Y-102662500D01*
G75*
G02*
X161075000Y-102412500I0J250000D01*
G01*
X161075000Y-101737500D01*
G75*
G02*
X161325000Y-101487500I250000J0D01*
G01*
G37*
G36*
G01*
X161325000Y-99412500D02*
X162275000Y-99412500D01*
G75*
G02*
X162525000Y-99662500I0J-250000D01*
G01*
X162525000Y-100337500D01*
G75*
G02*
X162275000Y-100587500I-250000J0D01*
G01*
X161325000Y-100587500D01*
G75*
G02*
X161075000Y-100337500I0J250000D01*
G01*
X161075000Y-99662500D01*
G75*
G02*
X161325000Y-99412500I250000J0D01*
G01*
G37*
G36*
G01*
X162275000Y-105587500D02*
X161325000Y-105587500D01*
G75*
G02*
X161075000Y-105337500I0J250000D01*
G01*
X161075000Y-104662500D01*
G75*
G02*
X161325000Y-104412500I250000J0D01*
G01*
X162275000Y-104412500D01*
G75*
G02*
X162525000Y-104662500I0J-250000D01*
G01*
X162525000Y-105337500D01*
G75*
G02*
X162275000Y-105587500I-250000J0D01*
G01*
G37*
G36*
G01*
X162275000Y-107662500D02*
X161325000Y-107662500D01*
G75*
G02*
X161075000Y-107412500I0J250000D01*
G01*
X161075000Y-106737500D01*
G75*
G02*
X161325000Y-106487500I250000J0D01*
G01*
X162275000Y-106487500D01*
G75*
G02*
X162525000Y-106737500I0J-250000D01*
G01*
X162525000Y-107412500D01*
G75*
G02*
X162275000Y-107662500I-250000J0D01*
G01*
G37*
G36*
G01*
X182625000Y-100637500D02*
X181675000Y-100637500D01*
G75*
G02*
X181425000Y-100387500I0J250000D01*
G01*
X181425000Y-99712500D01*
G75*
G02*
X181675000Y-99462500I250000J0D01*
G01*
X182625000Y-99462500D01*
G75*
G02*
X182875000Y-99712500I0J-250000D01*
G01*
X182875000Y-100387500D01*
G75*
G02*
X182625000Y-100637500I-250000J0D01*
G01*
G37*
G36*
G01*
X182625000Y-102712500D02*
X181675000Y-102712500D01*
G75*
G02*
X181425000Y-102462500I0J250000D01*
G01*
X181425000Y-101787500D01*
G75*
G02*
X181675000Y-101537500I250000J0D01*
G01*
X182625000Y-101537500D01*
G75*
G02*
X182875000Y-101787500I0J-250000D01*
G01*
X182875000Y-102462500D01*
G75*
G02*
X182625000Y-102712500I-250000J0D01*
G01*
G37*
G36*
G01*
X194575000Y-113650000D02*
X196425000Y-113650000D01*
G75*
G02*
X196675000Y-113900000I0J-250000D01*
G01*
X196675000Y-114900000D01*
G75*
G02*
X196425000Y-115150000I-250000J0D01*
G01*
X194575000Y-115150000D01*
G75*
G02*
X194325000Y-114900000I0J250000D01*
G01*
X194325000Y-113900000D01*
G75*
G02*
X194575000Y-113650000I250000J0D01*
G01*
G37*
G36*
G01*
X194575000Y-110400000D02*
X196425000Y-110400000D01*
G75*
G02*
X196675000Y-110650000I0J-250000D01*
G01*
X196675000Y-111650000D01*
G75*
G02*
X196425000Y-111900000I-250000J0D01*
G01*
X194575000Y-111900000D01*
G75*
G02*
X194325000Y-111650000I0J250000D01*
G01*
X194325000Y-110650000D01*
G75*
G02*
X194575000Y-110400000I250000J0D01*
G01*
G37*
G36*
G01*
X185175000Y-106487500D02*
X186125000Y-106487500D01*
G75*
G02*
X186375000Y-106737500I0J-250000D01*
G01*
X186375000Y-107412500D01*
G75*
G02*
X186125000Y-107662500I-250000J0D01*
G01*
X185175000Y-107662500D01*
G75*
G02*
X184925000Y-107412500I0J250000D01*
G01*
X184925000Y-106737500D01*
G75*
G02*
X185175000Y-106487500I250000J0D01*
G01*
G37*
G36*
G01*
X185175000Y-104412500D02*
X186125000Y-104412500D01*
G75*
G02*
X186375000Y-104662500I0J-250000D01*
G01*
X186375000Y-105337500D01*
G75*
G02*
X186125000Y-105587500I-250000J0D01*
G01*
X185175000Y-105587500D01*
G75*
G02*
X184925000Y-105337500I0J250000D01*
G01*
X184925000Y-104662500D01*
G75*
G02*
X185175000Y-104412500I250000J0D01*
G01*
G37*
G36*
G01*
X168614000Y-104618000D02*
X169714000Y-104618000D01*
G75*
G02*
X169964000Y-104868000I0J-250000D01*
G01*
X169964000Y-106968000D01*
G75*
G02*
X169714000Y-107218000I-250000J0D01*
G01*
X168614000Y-107218000D01*
G75*
G02*
X168364000Y-106968000I0J250000D01*
G01*
X168364000Y-104868000D01*
G75*
G02*
X168614000Y-104618000I250000J0D01*
G01*
G37*
G36*
G01*
X168614000Y-101018000D02*
X169714000Y-101018000D01*
G75*
G02*
X169964000Y-101268000I0J-250000D01*
G01*
X169964000Y-103368000D01*
G75*
G02*
X169714000Y-103618000I-250000J0D01*
G01*
X168614000Y-103618000D01*
G75*
G02*
X168364000Y-103368000I0J250000D01*
G01*
X168364000Y-101268000D01*
G75*
G02*
X168614000Y-101018000I250000J0D01*
G01*
G37*
G36*
G01*
X203275000Y-112187500D02*
X202325000Y-112187500D01*
G75*
G02*
X202075000Y-111937500I0J250000D01*
G01*
X202075000Y-111262500D01*
G75*
G02*
X202325000Y-111012500I250000J0D01*
G01*
X203275000Y-111012500D01*
G75*
G02*
X203525000Y-111262500I0J-250000D01*
G01*
X203525000Y-111937500D01*
G75*
G02*
X203275000Y-112187500I-250000J0D01*
G01*
G37*
G36*
G01*
X203275000Y-114262500D02*
X202325000Y-114262500D01*
G75*
G02*
X202075000Y-114012500I0J250000D01*
G01*
X202075000Y-113337500D01*
G75*
G02*
X202325000Y-113087500I250000J0D01*
G01*
X203275000Y-113087500D01*
G75*
G02*
X203525000Y-113337500I0J-250000D01*
G01*
X203525000Y-114012500D01*
G75*
G02*
X203275000Y-114262500I-250000J0D01*
G01*
G37*
G36*
G01*
X189675000Y-100637500D02*
X188725000Y-100637500D01*
G75*
G02*
X188475000Y-100387500I0J250000D01*
G01*
X188475000Y-99712500D01*
G75*
G02*
X188725000Y-99462500I250000J0D01*
G01*
X189675000Y-99462500D01*
G75*
G02*
X189925000Y-99712500I0J-250000D01*
G01*
X189925000Y-100387500D01*
G75*
G02*
X189675000Y-100637500I-250000J0D01*
G01*
G37*
G36*
G01*
X189675000Y-102712500D02*
X188725000Y-102712500D01*
G75*
G02*
X188475000Y-102462500I0J250000D01*
G01*
X188475000Y-101787500D01*
G75*
G02*
X188725000Y-101537500I250000J0D01*
G01*
X189675000Y-101537500D01*
G75*
G02*
X189925000Y-101787500I0J-250000D01*
G01*
X189925000Y-102462500D01*
G75*
G02*
X189675000Y-102712500I-250000J0D01*
G01*
G37*
G36*
G01*
X202325000Y-106487500D02*
X203275000Y-106487500D01*
G75*
G02*
X203525000Y-106737500I0J-250000D01*
G01*
X203525000Y-107412500D01*
G75*
G02*
X203275000Y-107662500I-250000J0D01*
G01*
X202325000Y-107662500D01*
G75*
G02*
X202075000Y-107412500I0J250000D01*
G01*
X202075000Y-106737500D01*
G75*
G02*
X202325000Y-106487500I250000J0D01*
G01*
G37*
G36*
G01*
X202325000Y-104412500D02*
X203275000Y-104412500D01*
G75*
G02*
X203525000Y-104662500I0J-250000D01*
G01*
X203525000Y-105337500D01*
G75*
G02*
X203275000Y-105587500I-250000J0D01*
G01*
X202325000Y-105587500D01*
G75*
G02*
X202075000Y-105337500I0J250000D01*
G01*
X202075000Y-104662500D01*
G75*
G02*
X202325000Y-104412500I250000J0D01*
G01*
G37*
G36*
G01*
X193350002Y-105662500D02*
X192049998Y-105662500D01*
G75*
G02*
X191800000Y-105412502I0J249998D01*
G01*
X191800000Y-104587498D01*
G75*
G02*
X192049998Y-104337500I249998J0D01*
G01*
X193350002Y-104337500D01*
G75*
G02*
X193600000Y-104587498I0J-249998D01*
G01*
X193600000Y-105412502D01*
G75*
G02*
X193350002Y-105662500I-249998J0D01*
G01*
G37*
G36*
G01*
X193350002Y-108787500D02*
X192049998Y-108787500D01*
G75*
G02*
X191800000Y-108537502I0J249998D01*
G01*
X191800000Y-107712498D01*
G75*
G02*
X192049998Y-107462500I249998J0D01*
G01*
X193350002Y-107462500D01*
G75*
G02*
X193600000Y-107712498I0J-249998D01*
G01*
X193600000Y-108537502D01*
G75*
G02*
X193350002Y-108787500I-249998J0D01*
G01*
G37*
G36*
G01*
X189450000Y-113100000D02*
X190550000Y-113100000D01*
G75*
G02*
X190800000Y-113350000I0J-250000D01*
G01*
X190800000Y-115450000D01*
G75*
G02*
X190550000Y-115700000I-250000J0D01*
G01*
X189450000Y-115700000D01*
G75*
G02*
X189200000Y-115450000I0J250000D01*
G01*
X189200000Y-113350000D01*
G75*
G02*
X189450000Y-113100000I250000J0D01*
G01*
G37*
G36*
G01*
X189450000Y-109500000D02*
X190550000Y-109500000D01*
G75*
G02*
X190800000Y-109750000I0J-250000D01*
G01*
X190800000Y-111850000D01*
G75*
G02*
X190550000Y-112100000I-250000J0D01*
G01*
X189450000Y-112100000D01*
G75*
G02*
X189200000Y-111850000I0J250000D01*
G01*
X189200000Y-109750000D01*
G75*
G02*
X189450000Y-109500000I250000J0D01*
G01*
G37*
G36*
G01*
X183250000Y-113100000D02*
X184350000Y-113100000D01*
G75*
G02*
X184600000Y-113350000I0J-250000D01*
G01*
X184600000Y-115450000D01*
G75*
G02*
X184350000Y-115700000I-250000J0D01*
G01*
X183250000Y-115700000D01*
G75*
G02*
X183000000Y-115450000I0J250000D01*
G01*
X183000000Y-113350000D01*
G75*
G02*
X183250000Y-113100000I250000J0D01*
G01*
G37*
G36*
G01*
X183250000Y-109500000D02*
X184350000Y-109500000D01*
G75*
G02*
X184600000Y-109750000I0J-250000D01*
G01*
X184600000Y-111850000D01*
G75*
G02*
X184350000Y-112100000I-250000J0D01*
G01*
X183250000Y-112100000D01*
G75*
G02*
X183000000Y-111850000I0J250000D01*
G01*
X183000000Y-109750000D01*
G75*
G02*
X183250000Y-109500000I250000J0D01*
G01*
G37*
G36*
G01*
X196950002Y-105662500D02*
X195649998Y-105662500D01*
G75*
G02*
X195400000Y-105412502I0J249998D01*
G01*
X195400000Y-104587498D01*
G75*
G02*
X195649998Y-104337500I249998J0D01*
G01*
X196950002Y-104337500D01*
G75*
G02*
X197200000Y-104587498I0J-249998D01*
G01*
X197200000Y-105412502D01*
G75*
G02*
X196950002Y-105662500I-249998J0D01*
G01*
G37*
G36*
G01*
X196950002Y-108787500D02*
X195649998Y-108787500D01*
G75*
G02*
X195400000Y-108537502I0J249998D01*
G01*
X195400000Y-107712498D01*
G75*
G02*
X195649998Y-107462500I249998J0D01*
G01*
X196950002Y-107462500D01*
G75*
G02*
X197200000Y-107712498I0J-249998D01*
G01*
X197200000Y-108537502D01*
G75*
G02*
X196950002Y-108787500I-249998J0D01*
G01*
G37*
G36*
G01*
X168599998Y-112462500D02*
X169900002Y-112462500D01*
G75*
G02*
X170150000Y-112712498I0J-249998D01*
G01*
X170150000Y-113537502D01*
G75*
G02*
X169900002Y-113787500I-249998J0D01*
G01*
X168599998Y-113787500D01*
G75*
G02*
X168350000Y-113537502I0J249998D01*
G01*
X168350000Y-112712498D01*
G75*
G02*
X168599998Y-112462500I249998J0D01*
G01*
G37*
G36*
G01*
X168599998Y-109337500D02*
X169900002Y-109337500D01*
G75*
G02*
X170150000Y-109587498I0J-249998D01*
G01*
X170150000Y-110412502D01*
G75*
G02*
X169900002Y-110662500I-249998J0D01*
G01*
X168599998Y-110662500D01*
G75*
G02*
X168350000Y-110412502I0J249998D01*
G01*
X168350000Y-109587498D01*
G75*
G02*
X168599998Y-109337500I249998J0D01*
G01*
G37*
G36*
G01*
X176450000Y-112900000D02*
X177550000Y-112900000D01*
G75*
G02*
X177800000Y-113150000I0J-250000D01*
G01*
X177800000Y-115650000D01*
G75*
G02*
X177550000Y-115900000I-250000J0D01*
G01*
X176450000Y-115900000D01*
G75*
G02*
X176200000Y-115650000I0J250000D01*
G01*
X176200000Y-113150000D01*
G75*
G02*
X176450000Y-112900000I250000J0D01*
G01*
G37*
G36*
G01*
X176450000Y-108500000D02*
X177550000Y-108500000D01*
G75*
G02*
X177800000Y-108750000I0J-250000D01*
G01*
X177800000Y-111250000D01*
G75*
G02*
X177550000Y-111500000I-250000J0D01*
G01*
X176450000Y-111500000D01*
G75*
G02*
X176200000Y-111250000I0J250000D01*
G01*
X176200000Y-108750000D01*
G75*
G02*
X176450000Y-108500000I250000J0D01*
G01*
G37*
G36*
G01*
X166075000Y-117112500D02*
X165125000Y-117112500D01*
G75*
G02*
X164875000Y-116862500I0J250000D01*
G01*
X164875000Y-116187500D01*
G75*
G02*
X165125000Y-115937500I250000J0D01*
G01*
X166075000Y-115937500D01*
G75*
G02*
X166325000Y-116187500I0J-250000D01*
G01*
X166325000Y-116862500D01*
G75*
G02*
X166075000Y-117112500I-250000J0D01*
G01*
G37*
G36*
G01*
X166075000Y-119187500D02*
X165125000Y-119187500D01*
G75*
G02*
X164875000Y-118937500I0J250000D01*
G01*
X164875000Y-118262500D01*
G75*
G02*
X165125000Y-118012500I250000J0D01*
G01*
X166075000Y-118012500D01*
G75*
G02*
X166325000Y-118262500I0J-250000D01*
G01*
X166325000Y-118937500D01*
G75*
G02*
X166075000Y-119187500I-250000J0D01*
G01*
G37*
G36*
G01*
X168725000Y-122500000D02*
X169675000Y-122500000D01*
G75*
G02*
X169925000Y-122750000I0J-250000D01*
G01*
X169925000Y-123425000D01*
G75*
G02*
X169675000Y-123675000I-250000J0D01*
G01*
X168725000Y-123675000D01*
G75*
G02*
X168475000Y-123425000I0J250000D01*
G01*
X168475000Y-122750000D01*
G75*
G02*
X168725000Y-122500000I250000J0D01*
G01*
G37*
G36*
G01*
X168725000Y-120425000D02*
X169675000Y-120425000D01*
G75*
G02*
X169925000Y-120675000I0J-250000D01*
G01*
X169925000Y-121350000D01*
G75*
G02*
X169675000Y-121600000I-250000J0D01*
G01*
X168725000Y-121600000D01*
G75*
G02*
X168475000Y-121350000I0J250000D01*
G01*
X168475000Y-120675000D01*
G75*
G02*
X168725000Y-120425000I250000J0D01*
G01*
G37*
M02*
